<?xml version="1.0" standalone="no"?>
<!DOCTYPE svg PUBLIC "-//W3C//DTD SVG 20010904//EN"
 "http://www.w3.org/TR/2001/REC-SVG-20010904/DTD/svg10.dtd">
<svg version="1.0" xmlns="http://www.w3.org/2000/svg"
 width="1024.000000pt" height="1024.000000pt" viewBox="0 0 1024.000000 1024.000000"
 preserveAspectRatio="xMidYMid meet">
<metadata>
Created by potrace 1.11, written by Peter Selinger 2001-2013
</metadata>
<g transform="translate(0.000000,1024.000000) scale(0.100000,-0.100000)"
fill="#000000" stroke="none">
<path d="M2600 9801 c-30 -11 -56 -24 -58 -30 -2 -6 -8 -11 -14 -11 -5 0 -24
-16 -41 -36 -111 -125 -71 -305 87 -386 42 -22 60 -26 117 -30 33 -2 38 -5 34
-22 -7 -29 5 -43 40 -49 30 -5 101 -31 140 -52 47 -24 87 -62 112 -105 47 -81
186 -212 293 -277 19 -11 94 -51 165 -87 126 -64 225 -128 225 -144 0 -5 -19
-22 -42 -39 -73 -53 -105 -89 -180 -200 -50 -74 -138 -250 -138 -276 0 -7 -4
-17 -9 -23 -8 -8 -39 -134 -57 -229 -10 -51 -10 -364 -1 -430 10 -69 14 -96
21 -125 3 -14 10 -45 15 -70 6 -25 19 -74 31 -109 l20 -65 -23 -20 c-14 -12
-39 -32 -57 -46 -19 -14 -47 -39 -63 -57 -16 -17 -41 -34 -55 -38 -15 -4 -29
-10 -32 -14 -3 -3 -18 -15 -33 -25 -16 -9 -35 -33 -43 -52 -12 -29 -12 -39 0
-68 12 -29 86 -101 105 -101 3 0 12 -4 19 -9 23 -14 126 -9 158 7 38 20 88 66
105 97 16 30 16 31 18 72 1 31 1 31 19 12 9 -10 44 -53 76 -94 72 -92 169
-189 258 -258 58 -46 72 -63 111 -145 39 -79 79 -174 83 -199 1 -5 3 -10 4
-13 1 -3 4 -9 5 -15 1 -5 3 -11 5 -12 2 -3 5 -16 13 -58 3 -14 8 -32 11 -40
22 -62 22 -277 1 -380 -3 -14 -7 -36 -10 -50 -23 -121 -112 -295 -219 -425
-47 -57 -169 -178 -216 -215 -18 -14 -41 -33 -51 -42 -11 -10 -23 -18 -29 -18
-5 0 -10 -3 -10 -7 0 -5 -30 -28 -68 -53 -37 -24 -69 -47 -72 -50 -10 -12
-240 -150 -250 -150 -6 0 -10 -4 -10 -8 0 -5 -16 -14 -35 -22 -19 -8 -35 -17
-35 -22 0 -4 -5 -8 -11 -8 -6 0 -54 -25 -107 -55 -121 -70 -130 -75 -167 -94
-16 -9 -32 -18 -35 -21 -3 -3 -15 -11 -27 -17 -13 -7 -33 -19 -45 -25 -13 -7
-25 -15 -28 -18 -3 -3 -26 -16 -52 -30 -27 -13 -48 -28 -48 -32 0 -5 -5 -8
-10 -8 -13 0 -194 -119 -198 -131 -2 -5 -10 -9 -17 -9 -7 0 -15 -3 -17 -8 -1
-4 -23 -23 -48 -42 -89 -68 -194 -170 -256 -246 -21 -27 -42 -50 -46 -52 -5
-2 -8 -10 -8 -18 0 -8 -4 -14 -10 -14 -5 0 -10 -7 -10 -15 0 -8 -4 -15 -10
-15 -5 0 -10 -4 -10 -9 0 -5 -16 -35 -35 -67 l-35 -58 0 -527 c0 -362 3 -537
11 -556 6 -15 13 -48 14 -73 2 -25 4 -45 5 -45 0 0 3 -27 5 -60 2 -33 8 -81
14 -108 6 -26 13 -64 16 -85 10 -80 18 -118 27 -130 6 -6 8 -12 4 -12 -3 0 9
-24 26 -52 34 -56 124 -148 145 -148 7 0 13 -4 13 -8 0 -5 28 -23 63 -41 136
-71 161 -123 142 -291 -7 -63 -7 -223 0 -251 3 -13 7 -37 9 -54 15 -114 94
-231 181 -270 80 -35 199 -42 285 -16 41 13 168 25 260 24 150 0 268 -27 358
-79 96 -56 178 -169 186 -255 8 -94 174 -327 302 -424 l46 -35 286 0 c278 0
288 1 322 22 111 70 154 94 235 133 50 24 97 45 105 47 8 2 17 6 20 9 3 3 49
18 103 31 78 20 119 25 200 23 56 -1 113 -4 126 -8 29 -8 114 -48 121 -57 3
-4 46 -22 95 -40 50 -18 99 -36 110 -41 11 -5 31 -11 45 -13 14 -3 50 -12 80
-21 53 -15 70 -19 135 -30 17 -3 41 -7 55 -10 58 -13 227 -7 289 9 98 26 150
65 204 151 75 122 195 183 365 186 77 2 161 -7 197 -21 14 -5 25 -8 25 -6 0 2
28 -5 63 -15 58 -18 119 -31 142 -31 117 4 300 17 300 22 0 1 9 3 20 4 56 7
125 32 154 55 34 28 45 76 23 102 -6 8 -23 27 -37 43 -33 38 -32 41 6 19 66
-39 89 -86 68 -140 -10 -28 -10 -28 8 -8 23 24 28 68 11 98 -7 12 -11 26 -10
30 1 5 -34 44 -78 87 -82 80 -111 126 -104 169 8 49 54 104 121 148 15 10 35
25 44 33 9 8 35 31 59 50 187 151 390 363 513 538 20 28 37 54 37 57 0 2 14
26 30 52 l30 47 0 405 0 404 -25 33 c-71 93 -86 209 -43 332 7 20 17 40 23 44
5 4 7 8 2 8 -4 0 4 18 18 40 25 40 25 44 23 208 l-3 167 -75 11 c-41 6 -169
11 -285 9 -176 -1 -218 -5 -260 -20 -32 -12 -78 -18 -125 -19 -64 0 -83 4
-129 29 -29 16 -66 45 -82 65 -29 34 -77 126 -84 159 -41 195 -87 275 -217
377 -20 15 -138 62 -173 68 -17 3 -50 9 -75 14 -39 7 -109 8 -198 3 -23 -1
-38 -14 -84 -70 -41 -51 -123 -135 -157 -161 -18 -14 -44 -35 -59 -48 -42 -35
-153 -90 -214 -106 -113 -29 -246 -1 -326 70 -73 64 -142 109 -192 126 -87 29
-171 -16 -224 -121 -31 -59 -55 -152 -62 -233 -7 -88 -20 -133 -61 -208 -58
-108 -164 -200 -326 -285 -77 -41 -153 -140 -162 -214 -1 -14 -4 -28 -5 -31
-12 -33 8 -194 35 -270 8 -24 13 -45 10 -48 -2 -3 2 -17 10 -31 8 -14 26 -55
41 -91 38 -95 130 -270 194 -370 18 -27 50 -89 50 -95 0 -3 -4 -4 -8 -1 -5 3
-31 8 -58 12 -152 20 -196 38 -328 138 -65 49 -128 99 -140 110 -111 105 -166
160 -196 192 -46 50 -148 185 -171 227 -43 79 -89 177 -109 234 -35 104 -41
140 -44 286 -3 120 11 214 48 335 22 70 104 244 119 254 7 4 9 8 4 8 -13 0
111 175 203 285 42 50 242 248 299 295 29 25 59 50 65 56 47 44 322 242 349
251 9 3 17 9 17 14 0 5 6 9 14 9 8 0 21 6 28 13 7 7 36 26 63 42 41 24 157
106 175 125 3 3 30 25 60 50 30 24 62 51 71 60 9 8 45 40 80 70 142 121 429
420 529 550 19 24 41 51 48 60 8 8 38 49 68 90 29 41 58 81 65 88 6 7 16 23
22 35 7 12 28 47 48 77 84 127 185 323 249 485 36 90 107 311 116 359 2 17 9
47 14 66 5 19 11 49 14 65 3 17 7 39 9 50 3 11 8 54 12 95 4 41 9 89 11 105 5
39 4 319 -1 365 -2 19 -6 60 -9 90 -3 30 -7 64 -10 75 -2 11 -7 40 -11 65 -4
25 -9 54 -12 65 -3 11 -8 36 -13 55 -4 19 -13 50 -18 68 -6 18 -11 33 -11 35
0 5 -9 35 -25 82 -10 28 -19 57 -21 65 -5 23 -37 94 -99 220 -31 63 -56 119
-56 123 0 9 -69 126 -80 137 -3 3 -17 23 -31 45 -15 22 -41 56 -59 75 -17 19
-35 40 -38 46 -5 7 -120 106 -150 129 -1 1 43 37 99 79 136 105 138 106 173
143 30 31 117 81 154 88 9 1 35 8 57 14 22 6 58 13 80 16 60 9 106 25 147 52
41 28 51 45 42 77 -4 17 4 29 35 54 121 97 124 293 5 401 -71 66 -124 86 -230
86 -82 0 -97 -3 -155 -32 -108 -54 -161 -136 -163 -250 -1 -52 -4 -63 -18 -64
-10 -1 -22 -3 -28 -4 -5 -1 -14 -3 -20 -4 -5 0 -10 -7 -10 -15 0 -8 -5 -16
-10 -18 -6 -2 -12 -54 -15 -123 -6 -172 -16 -229 -58 -315 -28 -58 -107 -150
-129 -150 -11 0 -84 38 -163 85 -81 48 -238 125 -254 125 -6 0 -19 4 -29 9
-42 24 -220 70 -327 86 -127 19 -390 20 -480 1 -24 -4 -164 -28 -185 -31 -8
-1 -22 -5 -30 -8 -8 -3 -35 -11 -60 -17 -66 -16 -170 -50 -208 -67 -18 -8 -42
-16 -52 -18 -11 -2 -26 -7 -33 -12 -6 -4 -14 -8 -17 -9 -51 -10 -414 -200
-462 -242 -10 -8 -18 -12 -18 -8 0 4 -10 -2 -22 -14 -12 -11 -26 -20 -30 -20
-5 0 -19 -9 -31 -21 -16 -15 -30 -19 -55 -15 -47 7 -260 75 -322 102 -3 1 -16
5 -29 9 -45 15 -186 90 -233 125 -61 45 -113 141 -124 225 -1 11 -5 40 -8 65
-12 95 -6 276 10 302 3 4 -2 23 -10 43 -15 35 -47 48 -61 25 -13 -21 -22 -9
-28 35 -12 83 -67 155 -152 197 -60 29 -175 34 -245 9z m3831 -6963 c54 -30
125 -140 135 -207 2 -14 5 -37 7 -50 13 -91 -58 -239 -166 -345 -90 -88 -102
-98 -208 -168 -95 -62 -178 -108 -206 -113 -10 -2 -18 -4 -18 -6 0 -1 -10 -3
-22 -4 -20 -2 -29 8 -39 40 -20 65 -47 175 -48 195 -1 14 -5 30 -8 35 -3 6 -6
61 -6 124 0 120 14 183 59 265 55 99 228 225 334 243 17 3 32 6 33 8 9 9 132
-5 153 -17z m-587 -130 c-4 -7 -17 -26 -29 -43 -11 -16 -27 -42 -35 -57 -7
-16 -15 -26 -17 -24 -5 5 30 67 59 107 22 29 36 40 22 17z"/>
</g>
</svg>
