<?xml version="1.0" encoding="utf-8"?>
<!-- Generator: Adobe Illustrator 19.0.0, SVG Export Plug-In . SVG Version: 6.00 Build 0)  -->
<svg version="1.1" id="Layer_3" xmlns="http://www.w3.org/2000/svg" xmlns:xlink="http://www.w3.org/1999/xlink" x="0px" y="0px"
	 viewBox="-160 370.9 133.8 100" style="enable-background:new -160 370.9 133.8 100;" xml:space="preserve">
<style type="text/css">
	.st0{fill:none;stroke:#2E2E2C;stroke-width:12;stroke-miterlimit:10;}
	.st1{fill:#FFFFFF;}
	.st2{fill:#2E2E2C;}
</style>
<circle class="st0" cx="-92.6" cy="419.2" r="20.4"/>
<path class="st1" d="M-26.2,422"/>
<path class="st2" d="M-105.9,439.6c0,0,37.3,23.2,78.8-16.4c0,0,3.3-3,0.9-7c0,0-13.6-23.4-60.4-28.8c0,0,30.6,6.1,45.8,29.5
	c0,0,3.3,3.1,1.2,5.2c0,0-18.5,18.1-38.9,14.5L-105.9,439.6z"/>
<path class="st2" d="M-100.3,387.3c0,0-34.2,10.5-44.1,27.9c0,0-4.9,4.2,0,8.9c0,0-0.7,8.4,38.4,22.2c0,0-39.6-3-53-24.3
	c0,0-3.3-3.5,1.6-8C-157.3,414-141.8,393.4-100.3,387.3z"/>
</svg>
