<?xml version="1.0" encoding="utf-8"?>
            <!-- Generator: Adobe Illustrator 22.0.1, SVG Export Plug-In . SVG Version: 6.00 Build 0)  -->
            <svg version="1.1" id="" xmlns="http://www.w3.org/2000/svg" xmlns:xlink="http://www.w3.org/1999/xlink" x="0px" y="0px"
            	 viewBox="0 0 157.6 138.1" enable-background="new 0 0 157.6 138.1" xml:space="preserve" width="100px" height="100px" >

						<style>
								@-webkit-keyframes slug-animation  {
								  0% {
								      -webkit-transform-origin: 40% 40%;
								              transform-origin: 40% 40%;
								      -webkit-transform: rotateZ(0deg);
								              transform: rotateZ(0deg);
								  }
									100% {
								      -webkit-transform-origin: 40% 40%;
								              transform-origin: 40% 40%;
								      -webkit-transform: rotateZ(360deg);
								              transform: rotateZ(360deg);
								  }
								}
								@keyframes slug-animation  {
								  0% {
								      -webkit-transform-origin: 40% 40%;
								              transform-origin: 40% 40%;
								      -webkit-transform: rotateZ(0deg);
								              transform: rotateZ(0deg);
								  }
									100% {
								      -webkit-transform-origin: 40% 40%;
								              transform-origin: 40% 40%;
								      -webkit-transform: rotateZ(360deg);
								              transform: rotateZ(360deg);
								  }
								}
								@-webkit-keyframes slime-animation  {
								  0% {
								      -webkit-transform-origin: 50% 50%;
								              transform-origin: 50% 50%;
								      -webkit-transform: rotateZ(0deg);
								              transform: rotateZ(0deg);
								  }
									100% {
								      -webkit-transform-origin: 50% 50%;
								              transform-origin: 50% 50%;
								      -webkit-transform: rotateZ(360deg);
								              transform: rotateZ(360deg);
								  }
								}
								@keyframes slime-animation  {
								  0% {
								      -webkit-transform-origin: 50% 50%;
								              transform-origin: 50% 50%;
								      -webkit-transform: rotateZ(0deg);
								              transform: rotateZ(0deg);
								  }
									100% {
								      -webkit-transform-origin: 50% 50%;
								              transform-origin: 50% 50%;
								      -webkit-transform: rotateZ(360deg);
								              transform: rotateZ(360deg);
								  }
								}
								#slug-animation {
                transform-box: fill-box;
								  -webkit-animation : slug-animation 3s linear infinite;
								          animation : slug-animation 3s linear infinite;
								}
								#slime-animation {
                transform-box: fill-box;
								  -webkit-animation : slime-animation 10s linear infinite;
								          animation : slime-animation 10s linear infinite;
								}

						</style>
					  <g id="slime-animation">
            	<defs>
            		<filter id="Adobe_OpacityMaskFilter" filterUnits="userSpaceOnUse" x="32.5" y="23.1" width="100.6" height="97.2">
            			<feFlood  style="flood-color:white;flood-opacity:1" result="back"/>
            			<feBlend  in="SourceGraphic" in2="back" mode="normal"/>
            		</filter>
            	</defs>
            	<mask maskUnits="userSpaceOnUse" x="32.5" y="23.1" width="100.6" height="97.2" id="SVGID_1_">
            		<g filter="url(#Adobe_OpacityMaskFilter)">
            			<ellipse transform="matrix(0.7071 -0.7071 0.7071 0.7071 -26.976 79.4699)" cx="82.4" cy="72.3" rx="28.3" ry="28.3"/>
            		</g>
            	</mask>
            	<g mask="url(#SVGID_1_)">
            		<g>

            				<linearGradient id="SVGID_2_" gradientUnits="userSpaceOnUse" x1="1091.8086" y1="1423.2384" x2="1098.4392" y2="1423.2384" gradientTransform="matrix(-0.6878 0.7259 -0.7259 -0.6878 1831.1827 236.3784)">
            				<stop  offset="0" style="stop-color:#F9E9FF"/>
            				<stop  offset="0.1649" style="stop-color:#FAD5F0;stop-opacity:0.8351"/>
            				<stop  offset="0.7323" style="stop-color:#FE94BF;stop-opacity:0.2677"/>
            				<stop  offset="1" style="stop-color:#FF7BAC;stop-opacity:0"/>
            			</linearGradient>
            			<path fill="url(#SVGID_2_)" d="M46.8,50.6c-0.3,1-0.9,2.2-1.5,3.1c-0.6,0.9-1.3,1.5-1.8,1l-0.9,0.2c0.2-0.4,0.5-1.2,0.8-2
            				c0.4-0.8,0.8-1.7,1.3-2.4c0.5-0.7,0.9-1.2,1.3-1.2C46.5,49.2,46.7,49.6,46.8,50.6z"/>

            				<linearGradient id="SVGID_3_" gradientUnits="userSpaceOnUse" x1="1088.4369" y1="1418.5518" x2="1091.1727" y2="1418.5518" gradientTransform="matrix(-0.6878 0.7259 -0.7259 -0.6878 1831.1827 236.3784)">
            				<stop  offset="0" style="stop-color:#F9E9FF"/>
            				<stop  offset="0.1649" style="stop-color:#FAD5F0;stop-opacity:0.8351"/>
            				<stop  offset="0.7323" style="stop-color:#FE94BF;stop-opacity:0.2677"/>
            				<stop  offset="1" style="stop-color:#FF7BAC;stop-opacity:0"/>
            			</linearGradient>
            			<path fill="url(#SVGID_3_)" d="M52.2,52.7c-1,1.2-0.9,0-1.2-0.5c0,0,0.1-0.1,0.2-0.3c0.1-0.2,0.2-0.4,0.4-0.6
            				c0.3-0.5,0.6-0.9,0.6-0.9C52.9,50,52.4,51.8,52.2,52.7z"/>

            				<linearGradient id="SVGID_4_" gradientUnits="userSpaceOnUse" x1="1086.6931" y1="1406.5233" x2="1088.2412" y2="1406.5233" gradientTransform="matrix(-0.6878 0.7259 -0.7259 -0.6878 1831.1827 236.3784)">
            				<stop  offset="0" style="stop-color:#F9E9FF"/>
            				<stop  offset="0.1649" style="stop-color:#FAD5F0;stop-opacity:0.8351"/>
            				<stop  offset="0.7323" style="stop-color:#FE94BF;stop-opacity:0.2677"/>
            				<stop  offset="1" style="stop-color:#FF7BAC;stop-opacity:0"/>
            			</linearGradient>
            			<path fill="url(#SVGID_4_)" d="M62.8,58.5l0.4-0.2c-0.4,0.2-0.8,0.7-1,1.1c-0.3-0.1-0.5-0.4-0.6-0.8c-0.1-0.4,0-0.8,0.3-1.1
            				C62.4,57.8,62,58.6,62.8,58.5z"/>

            				<linearGradient id="SVGID_5_" gradientUnits="userSpaceOnUse" x1="1047.2272" y1="1374.1381" x2="1117.5911" y2="1374.1381" gradientTransform="matrix(-0.6878 0.7259 -0.7259 -0.6878 1831.1827 236.3784)">
            				<stop  offset="0" style="stop-color:#F9E9FF"/>
            				<stop  offset="0.1649" style="stop-color:#FAD5F0;stop-opacity:0.8351"/>
            				<stop  offset="0.7323" style="stop-color:#FE94BF;stop-opacity:0.2677"/>
            				<stop  offset="1" style="stop-color:#FF7BAC;stop-opacity:0"/>
            			</linearGradient>
            			<path fill="url(#SVGID_5_)" d="M50.4,83.5c1-0.2,1.9-1,2.7-2.1c0.4-0.5,0.8-1.2,1.2-1.8c0.2-0.3,0.4-0.6,0.5-1
            				c0.2-0.3,0.3-0.7,0.5-1c0,0,0.8,0,1.6-0.1c0.8-0.1,1.6-0.1,1.6-0.1c-0.2,0.5-0.3,1-0.3,1.5c0.1,0.5,0.3,1.1,0.5,1.7
            				c0.5,1.1,1.4,2.2,2,3.1c0.5,0.2,0.5-0.4,0.5-0.8c0-0.4,0.2-0.7,1,0c-0.3,0.5-1,0.7-1,1.3c0.9,0.6,1.7,0.3,2.6,0.3
            				c0.4,0,0.8,0.1,1.3,0.4c0.2,0.1,0.4,0.4,0.7,0.6c0.3,0.3,0.5,0.6,0.8,1c0,0,0,0.5-0.1,1c0,0.3,0,0.5,0,0.7c0,0.2,0,0.3,0,0.3
            				c1.4,1.3,2.9,2.3,4.6,3c1.7,0.8,3.4,1.3,5.2,1.7c1.7,0.4,3.5,0.6,5.2,0.9c1.7,0.2,3.4,0.4,5,0.7c0.3-0.4,0.7-0.7,1.2-1
            				c0.2-0.1,0.5-0.2,0.8-0.3c0.3-0.1,0.6-0.2,0.9-0.3c1.2-0.4,2.4-0.8,3.2-1.6l0.3,0.9c0.2-0.5,0.4-0.7,0.7-0.9
            				c0.2-0.1,0.3-0.1,0.5-0.2c0.2,0,0.4-0.1,0.6-0.1c0.2,0,0.4,0,0.6,0c0.2,0,0.4,0,0.6,0c0.4,0,0.8-0.1,1.1-0.4c0,0,0.4,0.1,0.8,0.1
            				c0.2,0,0.4,0,0.5,0c0.1,0,0.2,0,0.2,0c0.3,0.3,0.3,0.6,0.1,0.9c-0.2,0.3-0.6,0.6-0.9,1c-0.7,0.7-1.3,1.3-0.2,2.1
            				c0.9,0,1.5-0.3,2.1-0.8c0.3-0.2,0.5-0.5,0.7-0.7c0.2-0.3,0.4-0.5,0.6-0.8c0.2-0.3,0.4-0.6,0.6-0.8c0.2-0.3,0.4-0.5,0.6-0.7
            				c0.5-0.4,1-0.7,1.8-0.8c0.6-0.3,0.9-0.7,1.1-0.9c0.2-0.3,0.3-0.6,0.4-0.8c0.1-0.5,0.1-1,0.4-1.8c-0.5-0.9-1-0.3-1.7-1.1
            				c0.2-0.3,0.4-0.5,0.6-0.7c0.2-0.2,0.4-0.4,0.6-0.6c0.4-0.3,0.8-0.6,1.2-0.9c0.4-0.2,0.8-0.4,1.2-0.6c0.4-0.2,0.8-0.3,1.3-0.4
            				c0.4-0.2,0.8-0.3,1.2-0.5c0.4-0.2,0.8-0.4,1.2-0.7c0.4-0.3,0.7-0.6,1-1.1c0.3-0.4,0.5-1,0.7-1.6c-0.2-0.1-0.3-0.5-0.5-0.9
            				c-0.2-0.4-0.4-0.9-0.7-1.3c-0.3-0.4-0.6-0.6-1-0.6c-0.4,0-0.8,0.3-1.4,1c0,0,0,0.1,0.1,0.3c0,0.2,0.1,0.4,0.1,0.6
            				c0.1,0.5,0.2,1,0.2,1s-0.1,0-0.2,0.1c-0.1,0.1-0.3,0.1-0.5,0.2c-0.4,0.1-0.7,0.3-0.7,0.3c0.1-0.3,0.3-0.6,0.4-1
            				c0.1-0.4,0.3-0.7,0.3-1.1c0.1-0.7,0-1.2-0.5-1.3c0.5,0,0.8-0.2,1.1-0.5c0.1-0.1,0.2-0.3,0.3-0.5c0.1-0.2,0.1-0.4,0.2-0.6
            				c0-0.2,0-0.4,0.1-0.6c0-0.2,0-0.4-0.1-0.7c0-0.2-0.1-0.4-0.1-0.6c-0.1-0.2-0.1-0.4-0.2-0.6c-0.2-0.8-0.4-1.3-0.2-1.5
            				c0.2-0.2,0.8,0.1,2,1.1c-1.2,2.1-1.2,2.6-0.1,4.4c0.4-1.2,0.8-2.4,1.2-3.6c0.4-1.2,0.7-2.4,0.9-3.6c0.4-2.4,0.6-4.7,0.1-6.9
            				c0,0-0.5-0.2-0.9-0.4c-0.2-0.1-0.5-0.2-0.6-0.3c-0.2-0.1-0.3-0.1-0.3-0.1c0.7-0.3,1.2-1,1.5-1.9c0.1-0.5,0.2-1,0.1-1.6
            				c0-0.5-0.1-1.1-0.2-1.7c-0.7-0.7-1.2-1.9-1.7-1.2c-0.5,0,0.3,1.8,0.4,3.4c0.1,0.8,0.1,1.4-0.2,1.8c-0.3,0.3-0.8,0.3-1.8-0.3
            				c-0.4-2.2-1.1-4.5-1.7-6.8c-0.7-2.3-1.4-4.4-1.8-6.4c0.5,0.4,0.9,0.7,1.4,1.1c0.4,0.4,0.8,0.7,1.2,1.1c0.9,0.7,1.9,1.3,3.5,1.8
            				c1.7,1.6,3.2,3.7,4.2,6c1.1,2.2,1.8,4.7,2.3,7.2c0.5,2.5,0.7,5,0.7,7.5c0.1,2.5,0,5-0.1,7.6c-0.6,0-1.1,0.6-1.7,1
            				c-0.6,0.4-1.1,0.7-1.5,0.2c-0.5,0.3-0.8,1-1.1,1.7c-0.4,0.7-0.9,1.3-1.7,1.2c-0.8,3.4-3,6.7-5.7,9.2c-1.4,1.3-2.8,2.4-4.3,3.3
            				c-1.5,0.9-3,1.7-4.4,2.3c0.7,0.5,0.9,0.9,0.8,1.3c-0.1,0.4-0.6,0.9-1.3,1.3c-1.3,0.8-3.1,1.5-3.9,2.3c-1-0.4-2.2-0.2-3.4,0
            				c-0.6,0.1-1.2,0.2-1.9,0.3c-0.6,0.1-1.2,0.2-1.8,0.3c-0.2,0.5-1.6,0.8-1.2,1.5c0.8-0.2,1.4-0.2,2-0.1c0.6,0.1,1.2,0.3,2.1,0.3
            				c-0.1,0.5-0.4,0.8-0.8,1c-0.4,0.1-1,0.1-1.6,0c-0.6-0.1-1.3-0.3-2-0.4c-0.7-0.2-1.4-0.3-2-0.4c0,0,0.4-0.3,0.7-0.6
            				c0.3-0.3,0.7-0.6,0.7-0.6c-2.1,0-4.4-1.1-6.4-2.2c-2-1-3.8-2-5.9-1.7c0,0,0.1,0.2,0.3,0.5c0.2,0.3,0.5,0.6,0.8,1
            				c0.3,0.4,0.6,0.7,0.9,1c0.2,0.3,0.4,0.4,0.4,0.4c-2.5-0.2-4.9-1.7-6.9-3.1c-2.1-1.4-3.9-2.8-6.1-3c0.5,0.7,1.3,1.3,2.1,1.8
            				c0.8,0.5,1.7,1.1,2.4,1.5c1.5,0.9,2.6,1.7,2,2.9c-0.2,0.3-0.6,0.4-1.1,0.4c-0.5,0-1.1-0.2-1.6-0.5c-0.6-0.3-1.2-0.7-1.7-1.1
            				c-0.5-0.4-1-0.9-1.3-1.2c-1.3-1.7-2.7-3.1-4.1-4.2c-1.4-1.2-2.9-2.3-4.3-3.5c-0.3-0.3-0.7-0.6-1-0.9c-0.3-0.3-0.6-0.6-0.9-1
            				c-0.6-0.7-1.1-1.4-1.5-2.2C50.7,87.3,50.2,85.5,50.4,83.5z"/>

            				<linearGradient id="SVGID_6_" gradientUnits="userSpaceOnUse" x1="1116.8541" y1="1375.8324" x2="1122.642" y2="1375.8324" gradientTransform="matrix(-0.6878 0.7259 -0.7259 -0.6878 1831.1827 236.3784)">
            				<stop  offset="0" style="stop-color:#F9E9FF"/>
            				<stop  offset="0.1649" style="stop-color:#FAD5F0;stop-opacity:0.8351"/>
            				<stop  offset="0.7323" style="stop-color:#FE94BF;stop-opacity:0.2677"/>
            				<stop  offset="1" style="stop-color:#FF7BAC;stop-opacity:0"/>
            			</linearGradient>
            			<path fill="url(#SVGID_6_)" d="M52.6,96c1.2,1.4,2.3,2.1,3.1,2.4c0.8,0.3,1.5,0.3,2.1,0.2c1.3-0.1,2.4-0.1,4.9,2
            				c-0.8,0.3-0.7,1.3-0.1,2.2c0.6,1,1.7,2,2.7,2.7c0.6,0.1,1.2,0.3,1.8,0.5c0.6,0.2,1.1,0.5,1.7,0.7c1.1,0.5,2.2,1.1,3.1,1.4
            				c1.2,0.7,0.5,2.4-2.2,1.4c-0.7-0.7-1.4-1.2-2.2-1.7c-0.4-0.3-0.8-0.5-1.2-0.7c-0.4-0.2-0.8-0.5-1.2-0.7c-0.4-0.2-0.8-0.4-1.2-0.7
            				c-0.4-0.2-0.8-0.4-1.3-0.6c-0.8-0.5-1.7-0.9-2.5-1.4c-1.7-0.9-3.3-2-4.7-3.3c-0.7-0.6-1.3-1.3-1.8-2.1
            				C53.3,97.6,52.8,96.8,52.6,96z"/>

            				<linearGradient id="SVGID_7_" gradientUnits="userSpaceOnUse" x1="1112.4866" y1="1389.7155" x2="1116.3516" y2="1389.7155" gradientTransform="matrix(-0.6878 0.7259 -0.7259 -0.6878 1831.1827 236.3784)">
            				<stop  offset="0" style="stop-color:#F9E9FF"/>
            				<stop  offset="0.1649" style="stop-color:#FAD5F0;stop-opacity:0.8351"/>
            				<stop  offset="0.7323" style="stop-color:#FE94BF;stop-opacity:0.2677"/>
            				<stop  offset="1" style="stop-color:#FF7BAC;stop-opacity:0"/>
            			</linearGradient>
            			<path fill="url(#SVGID_7_)" d="M55.6,86.5c0.4,0.6,0.6,1.1,0.6,1.6c0,0.5-0.2,0.9-0.3,1.3c-0.1,0.4-0.3,0.8-0.2,1.2
            				c0.1,0.4,0.3,0.9,1,1.4c-0.6,0-0.9-0.1-1.2-0.2c-0.2-0.2-0.4-0.4-0.5-0.8c-0.2-0.7-0.4-1.6-1.2-2.8c0,0,0.1,0.1,0.3,0.1
            				c0.2,0.1,0.4,0.2,0.6,0.3c0.4,0.2,0.9,0.4,0.9,0.4s0-0.6,0-1.3c0-0.3,0-0.6,0-0.9C55.6,86.7,55.6,86.5,55.6,86.5z"/>

            				<linearGradient id="SVGID_8_" gradientUnits="userSpaceOnUse" x1="1112.1213" y1="1360.9366" x2="1115.0861" y2="1360.9366" gradientTransform="matrix(-0.6878 0.7259 -0.7259 -0.6878 1831.1827 236.3784)">
            				<stop  offset="0" style="stop-color:#F9E9FF"/>
            				<stop  offset="0.1649" style="stop-color:#FAD5F0;stop-opacity:0.8351"/>
            				<stop  offset="0.7323" style="stop-color:#FE94BF;stop-opacity:0.2677"/>
            				<stop  offset="1" style="stop-color:#FF7BAC;stop-opacity:0"/>
            			</linearGradient>
            			<path fill="url(#SVGID_8_)" d="M73.4,106c0.5,0.1,1.2,0.3,2,0.6c0.8,0.3,1.5,0.6,2.3,1c0.4,0.2,0.7,0.4,1.1,0.6
            				c0.3,0.2,0.6,0.4,0.9,0.6c0.5,0.4,0.8,0.9,0.8,1.4c0.3,0.2-0.4,1.1,1,0.9c-1-0.4-3.1-0.9-4.8-1.7c-0.9-0.4-1.7-0.9-2.3-1.5
            				C73.8,107.3,73.4,106.7,73.4,106z"/>

            				<linearGradient id="SVGID_9_" gradientUnits="userSpaceOnUse" x1="1108.7931" y1="1374.6677" x2="1110.1857" y2="1374.6677" gradientTransform="matrix(-0.6878 0.7259 -0.7259 -0.6878 1831.1827 236.3784)">
            				<stop  offset="0" style="stop-color:#F9E9FF"/>
            				<stop  offset="0.1649" style="stop-color:#FAD5F0;stop-opacity:0.8351"/>
            				<stop  offset="0.7323" style="stop-color:#FE94BF;stop-opacity:0.2677"/>
            				<stop  offset="1" style="stop-color:#FF7BAC;stop-opacity:0"/>
            			</linearGradient>
            			<path fill="url(#SVGID_9_)" d="M68.6,95.5c0.5,0.1,1,0.3,1.5,0.5c0.5,0.2,1.1,0.5,1.8,0.8c-0.5,0-1.1-0.1-1.7-0.2
            				C69.5,96.5,69,96.2,68.6,95.5z"/>

            				<linearGradient id="SVGID_10_" gradientUnits="userSpaceOnUse" x1="1108.2799" y1="1363.3877" x2="1109.998" y2="1363.3877" gradientTransform="matrix(-0.6878 0.7259 -0.7259 -0.6878 1831.1827 236.3784)">
            				<stop  offset="0" style="stop-color:#F9E9FF"/>
            				<stop  offset="0.1649" style="stop-color:#FAD5F0;stop-opacity:0.8351"/>
            				<stop  offset="0.7323" style="stop-color:#FE94BF;stop-opacity:0.2677"/>
            				<stop  offset="1" style="stop-color:#FF7BAC;stop-opacity:0"/>
            			</linearGradient>
            			<path fill="url(#SVGID_10_)" d="M77.1,103.3c0-0.7,0.4-0.7,0.9-0.5c0.5,0.2,1.1,0.6,1.4,0.6c0,0,0.3,0.2,0.5,0.4
            				c0.3,0.2,0.6,0.4,0.6,0.4c-0.3,0-0.6,0.1-0.9,0.1c-0.3,0-0.6,0-0.9-0.1c-0.3-0.1-0.6-0.2-0.9-0.3
            				C77.5,103.8,77.2,103.6,77.1,103.3z"/>

            				<linearGradient id="SVGID_11_" gradientUnits="userSpaceOnUse" x1="1099.7485" y1="1348.5513" x2="1103.0892" y2="1348.5513" gradientTransform="matrix(-0.6878 0.7259 -0.7259 -0.6878 1831.1827 236.3784)">
            				<stop  offset="0" style="stop-color:#F9E9FF"/>
            				<stop  offset="0.1649" style="stop-color:#FAD5F0;stop-opacity:0.8351"/>
            				<stop  offset="0.7323" style="stop-color:#FE94BF;stop-opacity:0.2677"/>
            				<stop  offset="1" style="stop-color:#FF7BAC;stop-opacity:0"/>
            			</linearGradient>
            			<path fill="url(#SVGID_11_)" d="M95.2,107.3c0.8-0.1,1.1,0.1,1,0.3c0,0.2-0.4,0.5-0.7,0.8c-0.7,0.6-1.3,1.1,0.7,0.8
            				c0,0-0.6,0.2-1.1,0.4c-0.6,0.2-1.1,0.4-1.1,0.4s-0.3-0.5-0.6-1c-0.3-0.5-0.6-1-0.6-1s0.6-0.1,1.3-0.3
            				C94.6,107.5,95.2,107.3,95.2,107.3z"/>

            				<linearGradient id="SVGID_12_" gradientUnits="userSpaceOnUse" x1="1093.2931" y1="1343.8674" x2="1096.7947" y2="1343.8674" gradientTransform="matrix(-0.6878 0.7259 -0.7259 -0.6878 1831.1827 236.3784)">
            				<stop  offset="0" style="stop-color:#F9E9FF"/>
            				<stop  offset="0.1649" style="stop-color:#FAD5F0;stop-opacity:0.8351"/>
            				<stop  offset="0.7323" style="stop-color:#FE94BF;stop-opacity:0.2677"/>
            				<stop  offset="1" style="stop-color:#FF7BAC;stop-opacity:0"/>
            			</linearGradient>
            			<path fill="url(#SVGID_12_)" d="M100.7,107.6c0.4-0.4,0.8-0.8,1.3-1c0.5-0.3,1.1-0.5,2-0.7c0,0-0.1,0.3-0.2,0.6
            				c-0.1,0.3-0.3,0.6-0.3,0.6c-0.2,0.3-0.6,0.3-1.1,0.3C101.9,107.4,101.3,107.3,100.7,107.6z"/>

            				<linearGradient id="SVGID_13_" gradientUnits="userSpaceOnUse" x1="1096.7688" y1="1350.0892" x2="1098.6434" y2="1350.0892" gradientTransform="matrix(-0.6878 0.7259 -0.7259 -0.6878 1831.1827 236.3784)">
            				<stop  offset="0" style="stop-color:#F9E9FF"/>
            				<stop  offset="0.1649" style="stop-color:#FAD5F0;stop-opacity:0.8351"/>
            				<stop  offset="0.7323" style="stop-color:#FE94BF;stop-opacity:0.2677"/>
            				<stop  offset="1" style="stop-color:#FF7BAC;stop-opacity:0"/>
            			</linearGradient>
            			<path fill="url(#SVGID_13_)" d="M95.1,104.2c1.2-0.9,1.4,0.2,2.4,0.4c-0.2,0.4-1.1,0.5-1.9,0.4C94.9,104.8,94.4,104.5,95.1,104.2
            				z"/>

            				<linearGradient id="SVGID_14_" gradientUnits="userSpaceOnUse" x1="1082.6251" y1="1359.0381" x2="1087.2068" y2="1359.0381" gradientTransform="matrix(-0.6878 0.7259 -0.7259 -0.6878 1831.1827 236.3784)">
            				<stop  offset="0" style="stop-color:#F9E9FF"/>
            				<stop  offset="0.1649" style="stop-color:#FAD5F0;stop-opacity:0.8351"/>
            				<stop  offset="0.7323" style="stop-color:#FE94BF;stop-opacity:0.2677"/>
            				<stop  offset="1" style="stop-color:#FF7BAC;stop-opacity:0"/>
            			</linearGradient>
            			<path fill="url(#SVGID_14_)" d="M99.8,87.3c0.1,0.5,0,0.9-0.1,1.2c-0.2,0.3-0.4,0.6-0.8,0.8c-0.2,0.1-0.3,0.2-0.5,0.3
            				c-0.2,0.1-0.4,0.2-0.6,0.3c-0.4,0.2-0.7,0.5-1.1,0.8c0.7-0.6,1-1.3,1.4-1.9c0.2-0.3,0.4-0.6,0.7-0.8
            				C99.1,87.7,99.4,87.5,99.8,87.3z"/>

            				<linearGradient id="SVGID_15_" gradientUnits="userSpaceOnUse" x1="1063.2421" y1="1424.6674" x2="1067.4258" y2="1424.6674" gradientTransform="matrix(-0.6878 0.7259 -0.7259 -0.6878 1831.1827 236.3784)">
            				<stop  offset="0" style="stop-color:#F9E9FF"/>
            				<stop  offset="0.1649" style="stop-color:#FAD5F0;stop-opacity:0.8351"/>
            				<stop  offset="0.7323" style="stop-color:#FE94BF;stop-opacity:0.2677"/>
            				<stop  offset="1" style="stop-color:#FF7BAC;stop-opacity:0"/>
            			</linearGradient>
            			<path fill="url(#SVGID_15_)" d="M62.5,30.9c1.6-0.3,2.8-1.5,3.6-2.4c0,0-0.2-0.1-0.5-0.1c-0.2-0.1-0.5-0.1-0.5-0.1
            				s-0.7,0.6-1.3,1.3C63.1,30.3,62.5,30.9,62.5,30.9z"/>

            				<linearGradient id="SVGID_16_" gradientUnits="userSpaceOnUse" x1="1070.14" y1="1426.392" x2="1089.1605" y2="1426.392" gradientTransform="matrix(-0.6878 0.7259 -0.7259 -0.6878 1831.1827 236.3784)">
            				<stop  offset="0" style="stop-color:#F9E9FF"/>
            				<stop  offset="0.1649" style="stop-color:#FAD5F0;stop-opacity:0.8351"/>
            				<stop  offset="0.7323" style="stop-color:#FE94BF;stop-opacity:0.2677"/>
            				<stop  offset="1" style="stop-color:#FF7BAC;stop-opacity:0"/>
            			</linearGradient>
            			<path fill="url(#SVGID_16_)" d="M46.7,45.6c0.5,1.2,0.9,1.1,1.5,0.5c0.3-0.3,0.7-0.7,1.2-1.2c0.2-0.2,0.5-0.5,0.8-0.7
            				c0.3-0.2,0.6-0.4,1-0.6c0.6-0.7,1.2-1.5,1.8-2.3c0.3-0.4,0.6-0.8,0.8-1.2c0.3-0.4,0.5-0.8,0.8-1.2c1.1-1.7,2.3-3.3,3.9-4.5
            				c0,0,0.1-0.2,0.2-0.4c0.1-0.2,0.3-0.5,0.4-0.8c0.3-0.6,0.6-1.2,0.6-1.2c-2.2,1.1-5,2.9-7.4,5.4C49.8,39.8,47.7,42.8,46.7,45.6z"
            				/>

            				<linearGradient id="SVGID_17_" gradientUnits="userSpaceOnUse" x1="1082.1465" y1="1416.7725" x2="1090.6854" y2="1416.7725" gradientTransform="matrix(-0.6878 0.7259 -0.7259 -0.6878 1831.1827 236.3784)">
            				<stop  offset="0" style="stop-color:#F9E9FF"/>
            				<stop  offset="0.1649" style="stop-color:#FAD5F0;stop-opacity:0.8351"/>
            				<stop  offset="0.7323" style="stop-color:#FE94BF;stop-opacity:0.2677"/>
            				<stop  offset="1" style="stop-color:#FF7BAC;stop-opacity:0"/>
            			</linearGradient>
            			<path fill="url(#SVGID_17_)" d="M54.5,53c0.5-0.4,0.8-0.9,1.1-1.5c0.3-0.5,0.5-1.1,0.8-1.7c0.1-0.3,0.2-0.6,0.3-0.9
            				c0.1-0.3,0.2-0.6,0.3-0.8c0.2-0.5,0.4-1,0.7-1.3c-0.5,0.5-1,1.1-1.5,1.7c-0.2,0.3-0.5,0.6-0.7,1c-0.2,0.3-0.5,0.6-0.7,1
            				c-0.2,0.3-0.4,0.6-0.6,1c-0.2,0.3-0.4,0.6-0.5,0.9c-0.4,0.6-0.6,1.1-0.9,1.6C53.2,54.3,53.9,53.3,54.5,53z"/>

            				<linearGradient id="SVGID_18_" gradientUnits="userSpaceOnUse" x1="1037.6204" y1="1403.049" x2="1119.8414" y2="1403.049" gradientTransform="matrix(-0.6878 0.7259 -0.7259 -0.6878 1831.1827 236.3784)">
            				<stop  offset="0" style="stop-color:#F9E9FF"/>
            				<stop  offset="0.1649" style="stop-color:#FAD5F0;stop-opacity:0.8351"/>
            				<stop  offset="0.7323" style="stop-color:#FE94BF;stop-opacity:0.2677"/>
            				<stop  offset="1" style="stop-color:#FF7BAC;stop-opacity:0"/>
            			</linearGradient>
            			<path fill="url(#SVGID_18_)" d="M99.5,25.7c-2.4-0.8-5.3-1.9-8.5-2.3c-3.1-0.5-6.4-0.3-9.1,1.3c1.3,0.2,1.9,0.4,2.8,0.6
            				c0.4,0.1,0.9,0.3,1.4,0.4c0.6,0.1,1.3,0.3,2.3,0.4c-0.8,0.6-1.5,0.9-2.2,1c-0.7,0.1-1.5,0-2.2-0.2c-1.5-0.4-3.2-1-4.9-0.7
            				c1.4,0.1,1.3,0.6,0.5,1.1c-0.4,0.3-0.9,0.5-1.5,0.8c-0.6,0.3-1.2,0.5-1.8,0.7c-2.2,0.1-5,0.9-7.8,2.1c-2.8,1.2-5.6,3-8,4.9
            				c-0.4,0.6-1.1,1.3-1.9,2c-0.4,0.4-0.9,0.8-1.3,1.2c-0.4,0.4-0.8,0.8-1.2,1.3c-0.4,0.4-0.7,0.8-1,1.2c-0.3,0.4-0.5,0.8-0.6,1.1
            				c-0.2,0.7-0.1,1.1,0.6,1.3c-0.3,0.4-0.5,0.7-0.8,0.9c-0.2,0.3-0.5,0.5-0.7,0.7c-0.5,0.4-1,0.6-1.4,0.8c-1,0.4-2,0.7-2.9,1.8
            				c-0.3,2.2-1.1,3.8-2.1,5.5c-0.5,0.8-1,1.6-1.6,2.4L44.6,57c-0.3,0.4-0.6,0.8-0.9,1.3c-1.1,1.7-2.1,3.6-2.6,5.6
            				c-0.5,2.1-0.4,4.3,0.6,6.6c-0.8-0.3-1.1,0.8-1.2,2.1c-0.1,1.3,0.2,3,0.3,3.9c0.1,0.5,0.2,1.1,0.3,1.7c0.1,0.6,0.3,1.3,0.5,2
            				c0.4,1.4,0.9,2.8,1.5,4c0.3,0.6,0.6,1.1,0.9,1.5c0.3,0.4,0.6,0.8,1,1c0.6,0.4,1.2,0.4,1.7-0.4c0.4-1.6-0.6-3.2-1.5-5.1
            				c-0.9-1.9-1.7-4.1-1-6.2c0.3-0.9,0.5-1.4,0.8-1.7c0.2-0.3,0.4-0.3,0.6-0.2c0.3,0.3,0.6,1.3,0.9,2.5c0.2,0.6,0.4,1.2,0.6,1.8
            				c0.2,0.6,0.5,1.2,0.7,1.7c0.6,1,1.1,1.7,1.8,1.5c-0.4-0.3,0-0.8,0.2-1.5c0.2-0.7,0.4-1.5-0.3-2.6c1.2,2.6,1.8,1.7,2.4,0.7
            				c0.5-1,1.2-2.3,2.2-1.2c0.2-2.9,0.6-4.1,1.1-5c0.3-0.5,0.6-0.8,1.1-1.2c0.5-0.4,1.1-0.9,2-1.4c-0.1-0.7-0.3-1.2-0.6-1.6
            				c-0.3-0.4-0.7-0.6-1-0.8c-0.8-0.4-1.7-0.5-2.3-1c-0.5-1.8,0.3-3.3,1.2-4.6c0.2-0.3,0.5-0.6,0.7-0.9c0.2-0.3,0.5-0.6,0.7-0.9
            				c0.2-0.3,0.4-0.6,0.5-0.9c0.2-0.3,0.2-0.7,0.3-1c0.7,0.9,1.4,1.2,2,1c0.6-0.1,1.1-0.7,1.7-1.4c0.1-0.2,0.3-0.4,0.4-0.6
            				c0.1-0.2,0.3-0.4,0.4-0.6c0.2-0.4,0.5-0.8,0.8-1.3c0.5-0.8,1-1.7,1.5-2.3c0.3-0.4,0.6-0.7,0.7-1c0.1-0.3,0.2-0.6,0.2-0.8
            				c0-0.5-0.2-0.9-0.3-1.4c-0.4-0.9-0.7-1.9,1.2-3.3c1.5,0.1,1,1.3,0.7,2.5c-0.3,1.2-0.4,2.3,1.3,2.2c0,0,0-0.1,0.1-0.3
            				c0.1-0.2,0.2-0.4,0.3-0.6c0.2-0.5,0.5-0.9,0.5-0.9c0-2-0.4-4.4,0.5-6.2c0.9-0.5,2.2-1.3,2.5-0.7c-0.7,0.7-0.7,1.4-0.3,1.8
            				c0.2,0.2,0.5,0.4,0.9,0.5c0.4,0.1,0.9,0.2,1.4,0.2c0.5-0.9,0.7-1.2,0.8-1.9c-1.3-0.7-1.8-1.1-1.6-1.5c0.1-0.3,0.8-0.6,1.8-0.9
            				c0.2-0.1,0.5-0.1,0.7-0.2c0.3-0.1,0.5-0.1,0.8-0.2c0.5-0.1,1.1-0.2,1.6-0.4c1.1-0.3,2.1-0.7,2.7-1.4c0.5-0.3,1-0.5,1.4-0.7
            				c0.2-0.1,0.4-0.2,0.6-0.2c0.2-0.1,0.4-0.1,0.6-0.1c0.4-0.1,0.7-0.1,1-0.1c0.3,0,0.6,0.1,0.8,0.1c1,0.3,1.5,1.1,2,1.8
            				c0.5,0.8,0.9,1.7,1.7,2.3c0.8,0.6,1.9,1,3.8,1c-0.3-1.1-0.2-1.7,0.4-2c0.3-0.1,0.6-0.2,1-0.2c0.4,0,0.9,0.1,1.4,0.2
            				c0.5,0.1,1,0.3,1.5,0.4c0.3,0.1,0.5,0.2,0.8,0.3c0.3,0.1,0.5,0.2,0.8,0.3c0.5,0.2,1,0.4,1.5,0.5c0.2,0.1,0.5,0.1,0.7,0.2
            				c0.2,0,0.4,0.1,0.6,0.1c2,1.3,2,2.7,2.5,4.6c0.4,0,0.9,0.2,1.5,0.5c0.5,0.2,1.1,0.4,1.4,0.2c0.7-1.2,1.1-2.5,1.3-4.1
            				c0.1-0.8,0.1-1.6,0-2.4c-0.1-0.9-0.2-1.7-0.5-2.6c-0.2-0.9-0.6-1.8-1-2.8c-0.4-0.9-0.9-1.9-1.6-2.9c-0.6-1-1.3-1.9-2.1-2.9
            				c-0.8-0.9-1.7-1.9-2.7-2.8C99.8,25.6,99.6,25.6,99.5,25.7z"/>
            		</g>
            		<g>

            				<linearGradient id="SVGID_19_" gradientUnits="userSpaceOnUse" x1="1123.3767" y1="1364.2085" x2="1127.3033" y2="1364.2085" gradientTransform="matrix(-0.6878 0.7259 -0.7259 -0.6878 1831.1827 236.3784)">
            				<stop  offset="0" style="stop-color:#F9E9FF"/>
            				<stop  offset="0.1649" style="stop-color:#FAD5F0;stop-opacity:0.8351"/>
            				<stop  offset="0.7323" style="stop-color:#FE94BF;stop-opacity:0.2677"/>
            				<stop  offset="1" style="stop-color:#FF7BAC;stop-opacity:0"/>
            			</linearGradient>
            			<path fill="url(#SVGID_19_)" d="M65,112c1.2,0.2,2.5,0.9,3.5,1.7c1,0.8,1.5,1.8,0.9,2.7l0.1,1.4c-0.5-0.2-1.4-0.6-2.3-1
            				c-0.9-0.5-2-1-2.7-1.6c-0.8-0.6-1.3-1.2-1.3-1.8C63.2,112.9,63.7,112.4,65,112z"/>

            				<linearGradient id="SVGID_20_" gradientUnits="userSpaceOnUse" x1="1115.6658" y1="1371.306" x2="1118.1039" y2="1371.306" gradientTransform="matrix(-0.6878 0.7259 -0.7259 -0.6878 1831.1827 236.3784)">
            				<stop  offset="0" style="stop-color:#F9E9FF"/>
            				<stop  offset="0.1649" style="stop-color:#FAD5F0;stop-opacity:0.8351"/>
            				<stop  offset="0.7323" style="stop-color:#FE94BF;stop-opacity:0.2677"/>
            				<stop  offset="1" style="stop-color:#FF7BAC;stop-opacity:0"/>
            			</linearGradient>
            			<path fill="url(#SVGID_20_)" d="M68.7,103.3c1.1,1.3-0.2,1.4-0.8,1.9c0,0-0.1-0.1-0.3-0.2c-0.2-0.1-0.4-0.3-0.7-0.4
            				c-0.5-0.3-1-0.6-1-0.6C65.8,102.8,67.7,103.1,68.7,103.3z"/>

            				<linearGradient id="SVGID_21_" gradientUnits="userSpaceOnUse" x1="1095.9537" y1="1376.3524" x2="1098.2869" y2="1376.3524" gradientTransform="matrix(-0.6878 0.7259 -0.7259 -0.6878 1831.1827 236.3784)">
            				<stop  offset="0" style="stop-color:#F9E9FF"/>
            				<stop  offset="0.1649" style="stop-color:#FAD5F0;stop-opacity:0.8351"/>
            				<stop  offset="0.7323" style="stop-color:#FE94BF;stop-opacity:0.2677"/>
            				<stop  offset="1" style="stop-color:#FF7BAC;stop-opacity:0"/>
            			</linearGradient>
            			<path fill="url(#SVGID_21_)" d="M77.8,85.3l-0.1-0.6c0.1,0.6,0.4,1,0.7,1.1c-0.2,0.5-0.5,0.9-0.9,1.2c-0.3,0.2-0.7,0.2-0.9-0.1
            				C77.1,86.2,77.7,86.4,77.8,85.3z"/>

            				<linearGradient id="SVGID_22_" gradientUnits="userSpaceOnUse" x1="1046.6185" y1="1377.2246" x2="1095.1445" y2="1377.2246" gradientTransform="matrix(-0.6878 0.7259 -0.7259 -0.6878 1831.1827 236.3784)">
            				<stop  offset="0" style="stop-color:#F9E9FF"/>
            				<stop  offset="0.1649" style="stop-color:#FAD5F0;stop-opacity:0.8351"/>
            				<stop  offset="0.7323" style="stop-color:#FE94BF;stop-opacity:0.2677"/>
            				<stop  offset="1" style="stop-color:#FF7BAC;stop-opacity:0"/>
            			</linearGradient>
            			<path fill="url(#SVGID_22_)" d="M101.1,105.7c-0.4-1.6-1.6-3.2-3-4.8c-0.7-0.8-1.4-1.5-2.2-2.3c-0.4-0.4-0.7-0.7-1.1-1
            				c-0.4-0.3-0.7-0.7-1.1-1c0,0-0.2-1.3-0.4-2.6c-0.2-1.3-0.5-2.6-0.5-2.6c0.5,0.5,1,0.7,1.5,0.8c0.5,0,1-0.1,1.5-0.4
            				c1-0.5,1.8-1.4,2.6-2c0-0.7-0.6-0.8-1.1-1c-0.5-0.2-0.8-0.6-0.4-1.5c0.6,0.6,1.2,1.8,1.8,2c0.3-1.1-0.3-2.3-0.6-3.4
            				c-0.2-0.6-0.2-1.1-0.1-1.5c0.1-0.2,0.2-0.4,0.4-0.6c0.2-0.2,0.5-0.4,0.9-0.5c0,0,0.6,0.3,1.3,0.5c0.3,0.1,0.7,0.2,0.9,0.3
            				c0.3,0.1,0.4,0.1,0.4,0.1c1-1.1,1.8-2.5,2.2-4c0.5-1.5,0.7-3,0.8-4.4c0.1-1.4,0.1-2.8,0.3-4.1c0.2-1.3,0.4-2.6,1-3.9
            				c-0.7-0.2-1.1-0.5-1.5-0.9c-0.2-0.2-0.3-0.4-0.5-0.6c-0.1-0.2-0.3-0.4-0.4-0.6c-0.5-0.8-0.9-1.8-1.9-2.2l1.5-0.5
            				c-0.7,0-1.1-0.1-1.2-0.4c-0.1-0.1-0.1-0.2-0.1-0.4c0-0.1,0-0.3,0.1-0.5c0.1-0.2,0.1-0.4,0.2-0.6c0.1-0.2,0.1-0.4,0.1-0.6
            				c0.1-0.4,0.1-0.7-0.1-0.9c0,0,0.2-0.4,0.4-0.8c0.1-0.2,0.2-0.4,0.3-0.6c0.1-0.2,0.1-0.3,0.1-0.3c0.5-0.4,0.9-0.5,1.3-0.4
            				c0.4,0.1,0.7,0.3,1.1,0.6c0.4,0.2,0.8,0.4,1.3,0.4c0.5,0,1.1-0.2,1.9-0.9c0.2-0.9-0.1-1.5-0.5-1.9c-0.2-0.2-0.5-0.4-0.8-0.6
            				c-0.3-0.2-0.6-0.3-1-0.4c-0.3-0.1-0.7-0.2-0.9-0.3c-0.3-0.1-0.6-0.2-0.8-0.4c-0.4-0.4-0.6-0.8-0.5-1.7c-0.2-0.5-0.5-0.8-0.8-1
            				c-0.3-0.2-0.6-0.2-0.9-0.2c-0.6,0.1-1.3,0.4-2,0.3c-1.3,1-0.7,1.4-2.1,2.7c-0.2-0.1-0.4-0.3-0.6-0.4c-0.2-0.1-0.3-0.3-0.4-0.5
            				c-0.2-0.4-0.4-0.7-0.4-1.2c-0.1-0.5-0.1-0.9-0.1-1.5c0-0.6,0-1.1,0-1.6c0-0.5,0-1.1-0.1-1.6c-0.1-0.5-0.2-1-0.3-1.5
            				c-0.2-0.5-0.4-0.9-0.8-1.2c-0.4-0.3-0.8-0.6-1.4-0.7c-0.2,0.3-0.6,0.6-1,1.1c-0.5,0.4-1,0.9-1.4,1.4c-0.4,0.5-0.7,1.1-0.8,1.7
            				c-0.1,0.6,0.1,1.2,0.5,1.9c0,0,0.1-0.1,0.3-0.2c0.2-0.1,0.4-0.3,0.6-0.4c0.4-0.3,0.9-0.5,0.9-0.5s0,0.1,0,0.3c0,0.2,0,0.4,0,0.7
            				c0,0.5,0,1,0,1c-0.2-0.1-0.5-0.2-0.8-0.3c-0.3-0.1-0.6-0.2-0.8-0.2c-0.6,0-1,0.3-1.2,1.2c0.1-0.8,0-1.3-0.1-1.6
            				c-0.1-0.2-0.2-0.3-0.3-0.4c-0.1-0.1-0.3-0.1-0.4-0.1c-0.2,0-0.3,0-0.5,0c-0.2,0-0.4,0.1-0.5,0.2c-0.2,0.1-0.4,0.2-0.5,0.3
            				c-0.2,0.1-0.3,0.2-0.5,0.3c-0.6,0.4-1,0.8-1.1,0.5c-0.1-0.3,0.1-1.3,1-3.5c1.5,1.7,1.9,1.5,3.7-0.5c-1-0.4-1.9-0.9-2.9-1.3
            				c-1-0.5-2-0.9-3-1.2c-2-0.7-4.1-1.1-6.1-0.7c0,0-0.1,0.7-0.2,1.4c0,0.4-0.1,0.7-0.1,1c0,0.3,0,0.5,0,0.5
            				c-0.4-1.3-1.1-2.2-2.1-2.8c-0.5-0.3-1-0.5-1.6-0.6c-0.5-0.1-1.1-0.2-1.7-0.1c-0.6,0.9-1.6,1.2-0.8,2.2c0.2,0.8,1.8,0.2,3.3,0.3
            				c0.7,0.1,1.4,0.3,1.7,0.8c0.4,0.5,0.4,1.4,0.2,2.7c-1.8,0.1-3.9,0.2-6.1,0.2c-2.2,0-4.6,0.1-7.1-0.1c0.3-0.5,0.6-0.9,0.9-1.3
            				c0.3-0.4,0.6-0.8,0.9-1.2c0.6-0.9,0.9-2.1,1-4.3c1.4-2,3.3-3.6,5.5-4.7c2.2-1.2,4.6-1.9,7-2.4c2.4-0.5,4.9-0.8,7.5-1
            				c2.5-0.2,5.1-0.4,7.8-0.7c-0.1,0.9,0.5,1.7,0.8,2.5c0.3,0.8,0.5,1.5-0.1,2.3c0.2,0.7,0.9,1,1.5,1.4c0.6,0.4,1.1,1,0.8,2.3
            				c3.5,0.2,6.7,2.2,9.1,4.8c1.2,1.3,2.2,2.8,3,4.2c0.8,1.5,1.5,2.9,2.1,4.3c0.9-0.9,1.6-1.2,2.2-1.2c0.6,0,1.2,0.5,1.6,1.1
            				c1,1.2,1.6,3,2.8,3.7c-0.7,1.1-0.8,2.3-0.6,3.6c0.1,0.6,0.2,1.2,0.4,1.8c0.1,0.6,0.3,1.2,0.3,1.8c0.8,0.2,1.2,1.6,2.5,1.2
            				c-0.3-0.9-0.2-1.5-0.1-2.1c0.2-0.6,0.5-1.3,0.6-2.2c0.9,0.1,1.4,0.4,1.6,0.8c0.2,0.4,0.1,1-0.1,1.7c-0.2,0.7-0.5,1.4-0.8,2.1
            				c-0.3,0.7-0.5,1.4-0.6,2.1c0,0-0.4-0.4-0.9-0.7c-0.5-0.3-1-0.7-1-0.7c0,0.5-0.1,1.1-0.3,1.6c-0.2,0.5-0.4,1.1-0.8,1.6
            				c-0.3,0.5-0.6,1.1-1,1.6c-0.4,0.5-0.7,1-1.1,1.5c-1.5,1.9-2.6,3.5-1.7,5.8c0,0,0.3-0.1,0.7-0.3c0.4-0.2,0.9-0.4,1.4-0.6
            				c0.5-0.2,1-0.5,1.4-0.7c0.4-0.2,0.6-0.4,0.6-0.4c0,0.6-0.1,1.3-0.3,1.9c-0.1,0.3-0.2,0.6-0.3,0.9c-0.1,0.3-0.3,0.6-0.4,0.9
            				c-0.2,0.3-0.3,0.6-0.5,0.9L118,84c-0.4,0.5-0.8,1.1-1.2,1.6c-1.6,2.1-3,3.8-2.5,6.5c0.8-0.5,1.4-1.2,2-2c0.6-0.8,1.1-1.7,1.5-2.5
            				c1-1.5,2-2.6,4-1.6c0.5,0.3,0.8,0.8,0.9,1.3c0.1,0.6-0.1,1.2-0.3,1.9c-0.3,0.6-0.7,1.3-1.2,1.8c-0.5,0.5-1,1-1.5,1.3
            				c-2.2,1.2-3.6,2.6-4.9,4.2c-1.2,1.5-2.2,3.3-3.4,4.9c-0.3,0.4-0.6,0.8-0.9,1.2c-0.3,0.4-0.6,0.7-1,1.1c-0.7,0.7-1.4,1.3-2.3,1.7
            				C105.5,106.2,103.4,106.5,101.1,105.7z"/>

            				<linearGradient id="SVGID_23_" gradientUnits="userSpaceOnUse" x1="1058.2035" y1="1336.9751" x2="1084.7378" y2="1336.9751" gradientTransform="matrix(-0.6878 0.7259 -0.7259 -0.6878 1831.1827 236.3784)">
            				<stop  offset="0" style="stop-color:#F9E9FF"/>
            				<stop  offset="0.1649" style="stop-color:#FAD5F0;stop-opacity:0.8351"/>
            				<stop  offset="0.7323" style="stop-color:#FE94BF;stop-opacity:0.2677"/>
            				<stop  offset="1" style="stop-color:#FF7BAC;stop-opacity:0"/>
            			</linearGradient>
            			<path fill="url(#SVGID_23_)" d="M116.1,105.6c1.6-1.4,2.3-2.7,2.5-3.7c0.2-1.1,0-2-0.3-2.8c-0.5-1.8-0.9-3.2,1.4-5.9
            				c0.7,1.1,2,1.2,3.3,0.7c1.3-0.5,2.7-1.6,3.4-2.7c0-0.7,0.1-1.4,0.3-2.1c0.2-0.7,0.5-1.3,0.8-1.9c0.6-1.2,1.3-2.4,1.6-3.4
            				c0.5-0.6,1.4-0.7,2.1-0.2c0.7,0.5,1.1,1.5,0.6,3.1c-0.9,0.7-1.7,1.5-2.3,2.3c-0.3,0.4-0.6,0.8-0.9,1.3c-0.3,0.4-0.6,0.9-0.8,1.3
            				c-0.2,0.5-0.5,0.9-0.7,1.4c-0.2,0.5-0.5,1-0.7,1.5c-0.5,1-0.9,2-1.4,3c-0.9,2-2.1,3.9-3.5,5.4c-0.7,0.8-1.5,1.4-2.4,1.9
            				C118.1,105.1,117.2,105.5,116.1,105.6z"/>

            				<linearGradient id="SVGID_24_" gradientUnits="userSpaceOnUse" x1="1084.0703" y1="1346.1998" x2="1088.9935" y2="1346.1998" gradientTransform="matrix(-0.6878 0.7259 -0.7259 -0.6878 1831.1827 236.3784)">
            				<stop  offset="0" style="stop-color:#F9E9FF"/>
            				<stop  offset="0.1649" style="stop-color:#FAD5F0;stop-opacity:0.8351"/>
            				<stop  offset="0.7323" style="stop-color:#FE94BF;stop-opacity:0.2677"/>
            				<stop  offset="1" style="stop-color:#FF7BAC;stop-opacity:0"/>
            			</linearGradient>
            			<path fill="url(#SVGID_24_)" d="M103.2,98.5c0.6-0.5,1.2-0.5,1.7-0.4c0.6,0.2,1.1,0.5,1.7,0.9c0.5,0.3,1.1,0.6,1.6,0.6
            				c0.5,0,1-0.2,1.4-1.1c0.2,0.8,0.2,1.3,0,1.6c-0.2,0.3-0.4,0.4-0.8,0.5c-0.8,0.2-1.9,0.1-3.2,1c0,0,0-0.1,0.1-0.4
            				c0.1-0.2,0.1-0.5,0.2-0.8c0.1-0.6,0.3-1.2,0.3-1.2s-0.8-0.2-1.5-0.4c-0.4-0.1-0.8-0.2-1-0.3C103.4,98.5,103.2,98.5,103.2,98.5z"
            				/>

            				<linearGradient id="SVGID_25_" gradientUnits="userSpaceOnUse" x1="1049.5624" y1="1344.6327" x2="1060.7413" y2="1344.6327" gradientTransform="matrix(-0.6878 0.7259 -0.7259 -0.6878 1831.1827 236.3784)">
            				<stop  offset="0" style="stop-color:#F9E9FF"/>
            				<stop  offset="0.1649" style="stop-color:#FAD5F0;stop-opacity:0.8351"/>
            				<stop  offset="0.7323" style="stop-color:#FE94BF;stop-opacity:0.2677"/>
            				<stop  offset="1" style="stop-color:#FF7BAC;stop-opacity:0"/>
            			</linearGradient>
            			<path fill="url(#SVGID_25_)" d="M125.6,81.6c0.1-0.6,0.3-1.3,0.7-2.1c0.3-0.8,0.8-1.6,1.3-2.4c0.3-0.4,0.5-0.8,0.8-1.1
            				c0.3-0.3,0.6-0.7,0.9-0.9c0.7-0.5,1.4-0.8,2.2-0.8c0.3-0.4,1.8,0.5,1.4-1.1c-0.6,1.1-1.2,3.4-2.4,5.3c-0.6,0.9-1.3,1.8-2.1,2.4
            				C127.6,81.4,126.7,81.7,125.6,81.6z"/>

            				<linearGradient id="SVGID_26_" gradientUnits="userSpaceOnUse" x1="1070.2175" y1="1354.1436" x2="1073.2241" y2="1354.1436" gradientTransform="matrix(-0.6878 0.7259 -0.7259 -0.6878 1831.1827 236.3784)">
            				<stop  offset="0" style="stop-color:#F9E9FF"/>
            				<stop  offset="0.1649" style="stop-color:#FAD5F0;stop-opacity:0.8351"/>
            				<stop  offset="0.7323" style="stop-color:#FE94BF;stop-opacity:0.2677"/>
            				<stop  offset="1" style="stop-color:#FF7BAC;stop-opacity:0"/>
            			</linearGradient>
            			<path fill="url(#SVGID_26_)" d="M110.5,84.4c0-0.5,0.1-1,0.3-1.5c0.2-0.5,0.4-1,0.7-1.7c0.1,0.5,0.2,1.2,0.2,1.8
            				C111.6,83.7,111.3,84.2,110.5,84.4z"/>

            				<linearGradient id="SVGID_27_" gradientUnits="userSpaceOnUse" x1="1057.736" y1="1351.8694" x2="1061.4102" y2="1351.8694" gradientTransform="matrix(-0.6878 0.7259 -0.7259 -0.6878 1831.1827 236.3784)">
            				<stop  offset="0" style="stop-color:#F9E9FF"/>
            				<stop  offset="0.1649" style="stop-color:#FAD5F0;stop-opacity:0.8351"/>
            				<stop  offset="0.7323" style="stop-color:#FE94BF;stop-opacity:0.2677"/>
            				<stop  offset="1" style="stop-color:#FF7BAC;stop-opacity:0"/>
            			</linearGradient>
            			<path fill="url(#SVGID_27_)" d="M120.7,77.2c-1.2-0.1-1.2-0.5-1-1c0.2-0.5,0.8-1.1,0.8-1.4c0,0,0.3-0.3,0.6-0.5
            				c0.3-0.3,0.6-0.5,0.6-0.5c0.1,0.3,0.2,0.6,0.2,1c0,0.3,0,0.7,0,1c-0.1,0.3-0.2,0.6-0.4,0.9C121.3,76.8,121.1,77,120.7,77.2z"/>

            				<linearGradient id="SVGID_28_" gradientUnits="userSpaceOnUse" x1="1039.1976" y1="1357.863" x2="1043.9031" y2="1357.863" gradientTransform="matrix(-0.6878 0.7259 -0.7259 -0.6878 1831.1827 236.3784)">
            				<stop  offset="0" style="stop-color:#F9E9FF"/>
            				<stop  offset="0.1649" style="stop-color:#FAD5F0;stop-opacity:0.8351"/>
            				<stop  offset="0.7323" style="stop-color:#FE94BF;stop-opacity:0.2677"/>
            				<stop  offset="1" style="stop-color:#FF7BAC;stop-opacity:0"/>
            			</linearGradient>
            			<path fill="url(#SVGID_28_)" d="M127.4,58c0-0.9,0.2-1.2,0.6-1.2c0.4,0,0.8,0.4,1.3,0.7c0.9,0.7,1.7,1.4,1.3-0.9
            				c0,0,0.2,0.6,0.5,1.2c0.2,0.6,0.5,1.3,0.5,1.3s-0.9,0.4-1.7,0.8c-0.9,0.4-1.7,0.8-1.7,0.8s-0.2-0.7-0.3-1.4
            				C127.6,58.6,127.4,58,127.4,58z"/>

            				<linearGradient id="SVGID_29_" gradientUnits="userSpaceOnUse" x1="1034.688" y1="1364.8088" x2="1036.949" y2="1364.8088" gradientTransform="matrix(-0.6878 0.7259 -0.7259 -0.6878 1831.1827 236.3784)">
            				<stop  offset="0" style="stop-color:#F9E9FF"/>
            				<stop  offset="0.1649" style="stop-color:#FAD5F0;stop-opacity:0.8351"/>
            				<stop  offset="0.7323" style="stop-color:#FE94BF;stop-opacity:0.2677"/>
            				<stop  offset="1" style="stop-color:#FF7BAC;stop-opacity:0"/>
            			</linearGradient>
            			<path fill="url(#SVGID_29_)" d="M128.8,51.6c-0.6-0.4-1.1-0.8-1.4-1.3c-0.3-0.6-0.6-1.3-0.6-2.3c0,0,0.4,0.1,0.8,0.2
            				c0.4,0.1,0.8,0.2,0.8,0.2c0.4,0.2,0.3,0.7,0.3,1.3C128.6,50.2,128.5,50.9,128.8,51.6z"/>

            				<linearGradient id="SVGID_30_" gradientUnits="userSpaceOnUse" x1="1043.5399" y1="1362.9897" x2="1046.3538" y2="1362.9897" gradientTransform="matrix(-0.6878 0.7259 -0.7259 -0.6878 1831.1827 236.3784)">
            				<stop  offset="0" style="stop-color:#F9E9FF"/>
            				<stop  offset="0.1649" style="stop-color:#FAD5F0;stop-opacity:0.8351"/>
            				<stop  offset="0.7323" style="stop-color:#FE94BF;stop-opacity:0.2677"/>
            				<stop  offset="1" style="stop-color:#FF7BAC;stop-opacity:0"/>
            			</linearGradient>
            			<path fill="url(#SVGID_30_)" d="M122.3,58.5c-1.2-1.2,0.6-1.5,1-2.7c0.6,0.1,0.6,1.2,0.2,2C123.3,58.7,122.7,59.2,122.3,58.5z"/>

            				<linearGradient id="SVGID_31_" gradientUnits="userSpaceOnUse" x1="1061.5952" y1="1378.3763" x2="1063.3038" y2="1378.3763" gradientTransform="matrix(-0.6878 0.7259 -0.7259 -0.6878 1831.1827 236.3784)">
            				<stop  offset="0" style="stop-color:#F9E9FF"/>
            				<stop  offset="0.1649" style="stop-color:#FAD5F0;stop-opacity:0.8351"/>
            				<stop  offset="0.7323" style="stop-color:#FE94BF;stop-opacity:0.2677"/>
            				<stop  offset="1" style="stop-color:#FF7BAC;stop-opacity:0"/>
            			</linearGradient>
            			<path fill="url(#SVGID_31_)" d="M98.1,58.8c0.7-0.3,1.1-0.4,1.5-0.4c0.4,0,0.6,0.2,0.8,0.4c0.1,0.1,0.2,0.2,0.2,0.4
            				c0.1,0.1,0.1,0.3,0.2,0.4c0.2,0.3,0.4,0.5,0.7,0.7c-0.7-0.4-1.5-0.4-2.1-0.6c-0.3-0.1-0.6-0.1-0.8-0.3
            				C98.4,59.3,98.2,59.1,98.1,58.8z"/>

            				<linearGradient id="SVGID_32_" gradientUnits="userSpaceOnUse" x1="1126.6573" y1="1398.3517" x2="1128.1855" y2="1398.3517" gradientTransform="matrix(-0.6878 0.7259 -0.7259 -0.6878 1831.1827 236.3784)">
            				<stop  offset="0" style="stop-color:#F9E9FF"/>
            				<stop  offset="0.1649" style="stop-color:#FAD5F0;stop-opacity:0.8351"/>
            				<stop  offset="0.7323" style="stop-color:#FE94BF;stop-opacity:0.2677"/>
            				<stop  offset="1" style="stop-color:#FF7BAC;stop-opacity:0"/>
            			</linearGradient>
            			<path fill="url(#SVGID_32_)" d="M42.2,94.9c0-1-0.4-1.8-1-2.5c-0.6-0.7-1.3-1.2-1.9-1.5c0,0-0.1,0.3-0.3,0.6
            				c-0.1,0.3-0.3,0.6-0.3,0.6s0.9,0.7,1.7,1.4C41.3,94.2,42.2,94.9,42.2,94.9z"/>

            				<linearGradient id="SVGID_33_" gradientUnits="userSpaceOnUse" x1="1126.3164" y1="1381.9606" x2="1131.9504" y2="1381.9606" gradientTransform="matrix(-0.6878 0.7259 -0.7259 -0.6878 1831.1827 236.3784)">
            				<stop  offset="0" style="stop-color:#F9E9FF"/>
            				<stop  offset="0.1649" style="stop-color:#FAD5F0;stop-opacity:0.8351"/>
            				<stop  offset="0.7323" style="stop-color:#FE94BF;stop-opacity:0.2677"/>
            				<stop  offset="1" style="stop-color:#FF7BAC;stop-opacity:0"/>
            			</linearGradient>
            			<path fill="url(#SVGID_33_)" d="M58.7,113.3c1.7-1,1.6-1.6,1-2.4c-0.3-0.4-0.8-0.9-1.3-1.5c-0.2-0.3-0.5-0.6-0.7-1
            				c-0.2-0.4-0.4-0.8-0.5-1.3c-0.8-0.8-1.6-1.4-2.6-2c-0.5-0.3-0.9-0.6-1.4-0.8c-0.5-0.3-1-0.5-1.5-0.8c-0.5-0.3-1-0.6-1.5-0.9
            				c-0.5-0.3-1-0.6-1.4-1c-0.9-0.7-1.7-1.5-2.4-2.3c0,0-0.2-0.1-0.5-0.1c-0.3-0.1-0.7-0.2-1.1-0.4c-0.8-0.3-1.6-0.6-1.6-0.6
            				c1.1,2.6,3.1,6,5.9,8.9C51.8,110,55.4,112.4,58.7,113.3z"/>

            				<linearGradient id="SVGID_34_" gradientUnits="userSpaceOnUse" x1="1112.2339" y1="1375.1127" x2="1114.7404" y2="1375.1127" gradientTransform="matrix(-0.6878 0.7259 -0.7259 -0.6878 1831.1827 236.3784)">
            				<stop  offset="0" style="stop-color:#F9E9FF"/>
            				<stop  offset="0.1649" style="stop-color:#FAD5F0;stop-opacity:0.8351"/>
            				<stop  offset="0.7323" style="stop-color:#FE94BF;stop-opacity:0.2677"/>
            				<stop  offset="1" style="stop-color:#FF7BAC;stop-opacity:0"/>
            			</linearGradient>
            			<path fill="url(#SVGID_34_)" d="M69.6,99.6c-0.3-0.6-0.8-1-1.4-1.3c-0.5-0.3-1.2-0.5-1.8-0.6c-0.3-0.1-0.6-0.1-1-0.2
            				c-0.3-0.1-0.6-0.1-0.9-0.2c-0.6-0.2-1.1-0.3-1.4-0.6c0.5,0.6,1.1,1.1,1.7,1.6c0.3,0.3,0.6,0.5,0.9,0.8c0.3,0.3,0.6,0.5,1,0.7
            				c0.3,0.2,0.6,0.4,1,0.7c0.3,0.2,0.6,0.4,0.9,0.6c0.6,0.4,1.1,0.7,1.6,0.9C70.8,101.3,69.9,100.4,69.6,99.6z"/>

            				<linearGradient id="SVGID_35_" gradientUnits="userSpaceOnUse" x1="1079.0891" y1="1383.2712" x2="1124.316" y2="1383.2712" gradientTransform="matrix(-0.6878 0.7259 -0.7259 -0.6878 1831.1827 236.3784)">
            				<stop  offset="0" style="stop-color:#F9E9FF"/>
            				<stop  offset="0.1649" style="stop-color:#FAD5F0;stop-opacity:0.8351"/>
            				<stop  offset="0.7323" style="stop-color:#FE94BF;stop-opacity:0.2677"/>
            				<stop  offset="1" style="stop-color:#FF7BAC;stop-opacity:0"/>
            			</linearGradient>
            			<path fill="url(#SVGID_35_)" d="M35.6,52.3c-0.9,2.8-2.3,6.1-2.9,9.8c-0.6,3.6-0.2,7.5,2.2,10.5c0.3-1.5,0.7-2.2,1.1-3.2
            				c0.2-0.5,0.4-1,0.6-1.6c0.2-0.7,0.4-1.5,0.7-2.5c1.1,0.9,1.6,1.7,1.7,2.5c0.2,0.8-0.1,1.6-0.4,2.5c-0.6,1.7-1.8,3.7-1.4,5.6
            				c0.3-1.7,1-1.5,1.8-0.6c0.4,0.4,0.8,1,1.2,1.7c0.4,0.6,0.7,1.3,0.9,1.9c-0.1,2.5,0.7,5.6,2.1,8.7c1.4,3.1,3.4,6.2,5.5,8.8
            				c0.7,0.3,1.6,1.1,2.4,2c0.4,0.4,0.9,0.9,1.3,1.4c0.5,0.5,0.9,0.9,1.4,1.4c0.5,0.4,0.9,0.8,1.4,1.1c0.5,0.3,0.9,0.5,1.3,0.6
            				c0.8,0.1,1.5-0.2,1.9-1.2c0.4,0.3,0.7,0.5,1,0.8c0.3,0.3,0.5,0.6,0.6,0.9c0.3,0.6,0.5,1.3,0.7,1.9c0.3,1.3,0.4,2.7,1.5,3.9
            				c2.6,0,4.5,0.8,6.2,2.1c0.9,0.7,1.7,1.4,2.5,2.2l1.3,1.2c0.4,0.4,0.9,0.8,1.3,1.2c1.8,1.6,3.9,3.1,6.3,3.8c2.3,0.7,5,0.5,7.5-1.2
            				c-0.3,1.3,0.9,1.9,2.5,2c1.6,0.1,3.4-0.2,4.5-0.3c0.6-0.1,1.2-0.2,2-0.3c0.7-0.1,1.5-0.3,2.3-0.5c1.6-0.4,3.2-1.1,4.5-1.8
            				c0.7-0.4,1.2-0.8,1.7-1.2c0.5-0.4,0.8-0.9,1-1.3c0.4-0.9,0.2-1.8-0.8-2.7c-1-0.4-1.9-0.4-2.9,0c-0.5,0.2-0.9,0.4-1.4,0.7
            				c-0.5,0.3-1,0.6-1.5,0.9c-0.5,0.3-1.1,0.6-1.6,0.8c-0.6,0.2-1.1,0.5-1.7,0.6c-1.2,0.2-2.4,0.2-3.6-0.5c-1-0.5-1.6-1-2-1.4
            				c-0.3-0.4-0.4-0.7-0.2-1c0.3-0.5,1.4-0.9,2.7-1.3c0.6-0.2,1.3-0.5,2-0.7c0.7-0.3,1.3-0.6,1.8-0.9c1-0.7,1.7-1.6,1.3-2.7
            				c-0.3,0.5-0.9-0.1-1.7-0.6c-0.8-0.5-1.7-0.9-2.8,0.1c1.3-0.8,1.7-1.5,1.6-2.1c-0.1-0.6-0.6-1.1-1.2-1.7c-0.6-0.5-1.2-1.1-1.6-1.7
            				c-0.4-0.6-0.4-1.3,0-2.1c-0.7-0.2-1.3-0.4-1.8-0.5c-0.5-0.2-1-0.4-1.3-0.6c-0.7-0.4-1.3-0.8-1.7-1.3c-0.4-0.5-0.8-1.1-1.1-1.9
            				c-0.4-0.8-0.8-1.9-1.2-3.3c-0.6,0.2-1,0.6-1.3,1.1c-0.3,0.5-0.6,1.1-0.7,1.8c-0.4,1.3-0.5,2.9-1.1,3.9c-0.4,0.2-0.8,0.3-1.2,0.4
            				c-0.4,0-0.8-0.1-1.1-0.2c-0.4-0.1-0.7-0.4-1-0.6c-0.3-0.3-0.6-0.5-0.9-0.8c-0.3-0.3-0.5-0.6-0.8-0.9c-0.2-0.3-0.5-0.6-0.7-0.8
            				c-0.3-0.2-0.5-0.4-0.8-0.6c-0.3-0.1-0.6-0.2-1-0.2c1.1-1.4,1.6-2.5,1.6-3.4c0.1-0.9-0.3-1.5-0.8-2c-0.1-0.1-0.3-0.2-0.4-0.4
            				c-0.1-0.1-0.3-0.2-0.5-0.3c-0.3-0.2-0.7-0.4-1-0.6c-0.7-0.4-1.4-0.8-1.9-1.1c-0.3-0.3-0.6-0.5-0.9-0.5c-0.3-0.1-0.6,0-0.9,0.1
            				c-0.6,0.2-1.2,0.6-1.9,1c-1.3,0.8-2.7,1.6-3.8-0.3c0.3-0.9,0.9-1.3,1.5-1.5c0.6-0.2,1.4-0.2,2.1-0.2c0.7-0.1,1.4-0.2,2-0.5
            				c0.6-0.3,1-0.9,1.4-1.9c0,0-0.1,0-0.3,0c-0.2,0-0.4,0-0.7-0.1c-0.5-0.1-1-0.1-1-0.1c-2.7,0.9-6.1,2.1-8.6,1.7
            				c-0.5-0.8-1.2-2-0.3-2.5c0.9,0.6,1.9,0.4,2.7-0.2c0.4-0.3,0.8-0.7,1.1-1.1c0.3-0.4,0.6-0.9,0.8-1.4c-1.3-0.2-1.6-0.3-2.8-0.2
            				c-1.4,1.4-2.2,2.1-2.7,2c-0.5,0-0.8-0.7-0.9-1.6c0-0.2-0.1-0.5-0.1-0.7c0-0.2-0.1-0.5-0.1-0.8c-0.1-0.5-0.2-1-0.3-1.5
            				c-0.3-1-0.8-1.9-2-2.4c-0.5-0.4-0.8-0.9-1.1-1.3c-0.1-0.2-0.3-0.4-0.4-0.6c-0.1-0.2-0.2-0.4-0.2-0.5c-0.1-0.4-0.2-0.7-0.1-1
            				c0-0.3,0.1-0.6,0.2-0.8c0.5-0.9,1.7-1.4,3-1.8c1.3-0.4,2.7-0.7,3.7-1.4c0.5-0.3,0.8-0.7,1-1.2c0.1-0.3,0.1-0.5,0.1-0.9
            				c0-0.3,0-0.7-0.1-1.2c-1.7,0.1-2.7-0.2-3.2-0.7c-0.3-0.3-0.4-0.6-0.5-1c-0.1-0.4-0.1-0.8,0-1.3c0.1-0.5,0.2-1,0.3-1.5
            				c0.1-0.3,0.1-0.5,0.2-0.8c0.1-0.2,0.2-0.5,0.2-0.7c0.1-0.5,0.3-1,0.3-1.5c0-0.2,0-0.5,0-0.7c0-0.2,0-0.4-0.1-0.7
            				c1.3-1.8,3.3-1.5,5.7-1.3c-0.1-0.4,0-1,0.1-1.6c0.1-0.6,0.1-1.2-0.3-1.7c-1.8-1.3-3.7-2.3-5.9-3c-1.1-0.3-2.2-0.6-3.4-0.8
            				c-1.2-0.2-2.4-0.2-3.7-0.2c-1.3,0.1-2.6,0.2-3.9,0.5c-1.3,0.3-2.7,0.7-4.1,1.3c-1.4,0.5-2.7,1.2-4.1,2c-1.4,0.8-2.7,1.8-4,2.8
            				C35.3,51.9,35.4,52.2,35.6,52.3z"/>
            		</g>
            	</g>
            </g>
            <g id="slug-animation">
            	<path fill="#FFFFFF" d="M73.5,117.8c11.6,0.3,16.7,2.3,27.2-4.5c10.5-6.8,18.4-11.6,24.1-23.4c10-14.2,2.4-37.3-8-47.1
            		c-10.3-9.9-10.4-7.3-22.4-8.8c1,5.4,9.7,6.9,11.9,17.1c3,25.4,2.2,25.5-10.7,47.5c-7.5,8.4-10.8,9.5-21.9,9.6
            		c-4.2-2.6-8.3-5.2-12.5-8c-1.6,1.6-1.6,1.2,0.9,3.3c1.4,1.2,6,3.9,7.7,6c1.7,2.1,1.2,4.6,0.3,6.9c-1.9,2.6-4.2,5.4-6.1,8
            		c-1.8,2.6-1.2,2.4,1.3,1.9C67.7,122.9,69.6,119.1,73.5,117.8z"/>
            </g>
            </svg>
