<?xml version="1.0" encoding="utf-8"?>
<!-- Generator: Adobe Illustrator 22.0.1, SVG Export Plug-In . SVG Version: 6.00 Build 0)  -->

<svg version="1.1" id="Layer_4" xmlns="http://www.w3.org/2000/svg" xmlns:xlink="http://www.w3.org/1999/xlink" x="0px" y="0px"
	 viewBox="0 0 25.9 27" enable-background="new 0 0 25.9 27" xml:space="preserve">
<style>
	@-webkit-keyframes mid-orbit-animation  {
		0% {
				-webkit-transform-origin: 50% 50%;
				        transform-origin: 50% 50%;
	      -webkit-transform: scale(0.50);
	              transform: scale(0.50);
	  }
		25% {
				-webkit-transform-origin: 50% 50%;
				        transform-origin: 50% 50%;
	      -webkit-transform: scale(0.70) rotateZ(80deg);
	              transform: scale(0.70) rotateZ(80deg);
	  }
		50% {
				-webkit-transform-origin: 50% 50%;
				        transform-origin: 50% 50%;
	      -webkit-transform: scale(1) rotateZ(160deg);
	              transform: scale(1) rotateZ(160deg);
	  }
		75% {
				-webkit-transform-origin: 50% 50%;
				        transform-origin: 50% 50%;
	      -webkit-transform: scale(0.70) rotateZ(220deg);
	              transform: scale(0.70) rotateZ(220deg);
	  }
		100% {
				-webkit-transform-origin: 50% 50%;
				        transform-origin: 50% 50%;
	      -webkit-transform: scale(0.50) rotateZ(360deg);
	              transform: scale(0.50) rotateZ(360deg);
	  }
	}
	@keyframes mid-orbit-animation  {
		0% {
				-webkit-transform-origin: 50% 50%;
				        transform-origin: 50% 50%;
	      -webkit-transform: scale(0.50);
	              transform: scale(0.50);
	  }
		25% {
				-webkit-transform-origin: 50% 50%;
				        transform-origin: 50% 50%;
	      -webkit-transform: scale(0.70) rotateZ(80deg);
	              transform: scale(0.70) rotateZ(80deg);
	  }
		50% {
				-webkit-transform-origin: 50% 50%;
				        transform-origin: 50% 50%;
	      -webkit-transform: scale(1) rotateZ(160deg);
	              transform: scale(1) rotateZ(160deg);
	  }
		75% {
				-webkit-transform-origin: 50% 50%;
				        transform-origin: 50% 50%;
	      -webkit-transform: scale(0.70) rotateZ(220deg);
	              transform: scale(0.70) rotateZ(220deg);
	  }
		100% {
				-webkit-transform-origin: 50% 50%;
				        transform-origin: 50% 50%;
	      -webkit-transform: scale(0.50) rotateZ(360deg);
	              transform: scale(0.50) rotateZ(360deg);
	  }
	}
	@-webkit-keyframes out-orbit-animation  {
			0% {
					-webkit-transform-origin: 50% 50%;
					        transform-origin: 50% 50%;
		      -webkit-transform: scale(0.30);
		              transform: scale(0.30);
		  }
			25% {
					-webkit-transform-origin: 50% 50%;
					        transform-origin: 50% 50%;
		      -webkit-transform: scale(0.70) rotateZ(-80deg);
		              transform: scale(0.70) rotateZ(-80deg);
		  }
			50% {
					-webkit-transform-origin: 50% 50%;
					        transform-origin: 50% 50%;
		      -webkit-transform: scale(1) rotateZ(-160deg);
		              transform: scale(1) rotateZ(-160deg);
		  }
			75% {
					-webkit-transform-origin: 50% 50%;
					        transform-origin: 50% 50%;
		      -webkit-transform: scale(0.70) rotateZ(-220deg);
		              transform: scale(0.70) rotateZ(-220deg);
		  }
			100% {
					-webkit-transform-origin: 50% 50%;
					        transform-origin: 50% 50%;
		      -webkit-transform: scale(0.30) rotateZ(-360deg);
		              transform: scale(0.30) rotateZ(-360deg);
		  }
		}
	@keyframes out-orbit-animation  {
			0% {
					-webkit-transform-origin: 50% 50%;
					        transform-origin: 50% 50%;
		      -webkit-transform: scale(0.30);
		              transform: scale(0.30);
		  }
			25% {
					-webkit-transform-origin: 50% 50%;
					        transform-origin: 50% 50%;
		      -webkit-transform: scale(0.70) rotateZ(-80deg);
		              transform: scale(0.70) rotateZ(-80deg);
		  }
			50% {
					-webkit-transform-origin: 50% 50%;
					        transform-origin: 50% 50%;
		      -webkit-transform: scale(1) rotateZ(-160deg);
		              transform: scale(1) rotateZ(-160deg);
		  }
			75% {
					-webkit-transform-origin: 50% 50%;
					        transform-origin: 50% 50%;
		      -webkit-transform: scale(0.70) rotateZ(-220deg);
		              transform: scale(0.70) rotateZ(-220deg);
		  }
			100% {
					-webkit-transform-origin: 50% 50%;
					        transform-origin: 50% 50%;
		      -webkit-transform: scale(0.30) rotateZ(-360deg);
		              transform: scale(0.30) rotateZ(-360deg);
		  }
		}
		@-webkit-keyframes in-orbit-animation  {
				0% {
						-webkit-transform-origin: 50% 50%;
						        transform-origin: 50% 50%;
			      -webkit-transform: scale(0.30);
			              transform: scale(0.30);
			  }
				25% {
						-webkit-transform-origin: 50% 50%;
						        transform-origin: 50% 50%;
			      -webkit-transform: scale(0.70) rotateZ(-80deg);
			              transform: scale(0.70) rotateZ(-80deg);
			  }
				50% {
						-webkit-transform-origin: 50% 50%;
						        transform-origin: 50% 50%;
			      -webkit-transform: scale(1) rotateZ(-160deg);
			              transform: scale(1) rotateZ(-160deg);
			  }
				75% {
						-webkit-transform-origin: 50% 50%;
						        transform-origin: 50% 50%;
			      -webkit-transform: scale(0.70) rotateZ(-220deg);
			              transform: scale(0.70) rotateZ(-220deg);
			  }
				100% {
						-webkit-transform-origin: 50% 50%;
						        transform-origin: 50% 50%;
			      -webkit-transform: scale(0.30) rotateZ(-360deg);
			              transform: scale(0.30) rotateZ(-360deg);
			  }
			}
		@keyframes in-orbit-animation  {
				0% {
						-webkit-transform-origin: 50% 50%;
						        transform-origin: 50% 50%;
			      -webkit-transform: scale(0.30);
			              transform: scale(0.30);
			  }
				25% {
						-webkit-transform-origin: 50% 50%;
						        transform-origin: 50% 50%;
			      -webkit-transform: scale(0.70) rotateZ(-80deg);
			              transform: scale(0.70) rotateZ(-80deg);
			  }
				50% {
						-webkit-transform-origin: 50% 50%;
						        transform-origin: 50% 50%;
			      -webkit-transform: scale(1) rotateZ(-160deg);
			              transform: scale(1) rotateZ(-160deg);
			  }
				75% {
						-webkit-transform-origin: 50% 50%;
						        transform-origin: 50% 50%;
			      -webkit-transform: scale(0.70) rotateZ(-220deg);
			              transform: scale(0.70) rotateZ(-220deg);
			  }
				100% {
						-webkit-transform-origin: 50% 50%;
						        transform-origin: 50% 50%;
			      -webkit-transform: scale(0.30) rotateZ(-360deg);
			              transform: scale(0.30) rotateZ(-360deg);
			  }
			}
	#mid {
	  -webkit-animation : mid-orbit-animation 2s linear infinite;
	          animation : mid-orbit-animation 2s linear infinite;
	}
	#out {
	  -webkit-animation : out-orbit-animation 2s linear infinite;
	          animation : out-orbit-animation 2s linear infinite;
	}
	#in {
	  -webkit-animation : in-orbit-animation 2s linear infinite;
	          animation : in-orbit-animation 2s linear infinite;
	}
</style>
<g>
	<ellipse fill="#FFFFFF" cx="13" cy="13.4" rx="4.3" ry="4.4"/>
</g>
<g id="in">
	<g opacity="0.54">
		<ellipse fill="#FFFFFF" cx="13" cy="13.4" rx="7.4" ry="7.5"/>
	</g>
	<g>
		<g>
			<path fill="#FFFFFF" d="M13,6.4c-0.2,0-0.4,0.2-0.4,0.4v0.8C12.6,7.9,12.8,8,13,8c0.2,0,0.4-0.2,0.4-0.4V6.8
				C13.4,6.6,13.2,6.4,13,6.4z"/>
		</g>
		<g>
			<path fill="#FFFFFF" d="M13,18.8c-0.2,0-0.4,0.2-0.4,0.4v0.8c0,0.2,0.2,0.4,0.4,0.4c0.2,0,0.4-0.2,0.4-0.4v-0.8
				C13.4,19,13.2,18.8,13,18.8z"/>
		</g>
		<g>
			<path fill="#FFFFFF" d="M19.5,13h-0.8c-0.2,0-0.4,0.2-0.4,0.4c0,0.2,0.2,0.4,0.4,0.4h0.8c0.2,0,0.4-0.2,0.4-0.4
				C20,13.2,19.8,13,19.5,13z"/>
		</g>
		<g>
			<path fill="#FFFFFF" d="M7.7,13.4c0-0.2-0.2-0.4-0.4-0.4H6.5c-0.2,0-0.4,0.2-0.4,0.4c0,0.2,0.2,0.4,0.4,0.4h0.8
				C7.5,13.8,7.7,13.7,7.7,13.4z"/>
		</g>
		<g>
			<path fill="#FFFFFF" d="M17.1,9.7c0.1,0,0.2,0,0.3-0.1L17.9,9c0.2-0.2,0.2-0.4,0-0.6c-0.2-0.2-0.4-0.2-0.6,0L16.8,9
				c-0.2,0.2-0.2,0.4,0,0.6C16.8,9.7,17,9.7,17.1,9.7z"/>
		</g>
		<g>
			<path fill="#FFFFFF" d="M8.7,17.2l-0.6,0.6c-0.2,0.2-0.2,0.4,0,0.6c0.1,0.1,0.2,0.1,0.3,0.1s0.2,0,0.3-0.1l0.6-0.6
				c0.2-0.2,0.2-0.4,0-0.6C9.1,17.1,8.8,17.1,8.7,17.2z"/>
		</g>
		<g>
			<path fill="#FFFFFF" d="M17.3,17.2c-0.2-0.2-0.4-0.2-0.6,0c-0.2,0.2-0.2,0.4,0,0.6l0.6,0.6c0.1,0.1,0.2,0.1,0.3,0.1
				c0.1,0,0.2,0,0.3-0.1c0.2-0.2,0.2-0.4,0-0.6L17.3,17.2z"/>
		</g>
		<g>
			<path fill="#FFFFFF" d="M8.7,8.5c-0.2-0.2-0.4-0.2-0.6,0S7.9,8.9,8.1,9l0.6,0.6C8.8,9.7,8.9,9.7,9,9.7c0.1,0,0.2,0,0.3-0.1
				c0.2-0.2,0.2-0.4,0-0.6L8.7,8.5z"/>
		</g>
		<g>
			<path fill="#FFFFFF" d="M15.7,6.9c-0.2-0.1-0.4,0-0.5,0.2l-0.3,0.8c-0.1,0.2,0,0.5,0.2,0.5c0.1,0,0.1,0,0.2,0
				c0.2,0,0.3-0.1,0.4-0.3l0.3-0.8C16,7.3,15.9,7,15.7,6.9z"/>
		</g>
		<g>
			<path fill="#FFFFFF" d="M10.9,18.4c-0.2-0.1-0.4,0-0.5,0.2l-0.3,0.8c-0.1,0.2,0,0.5,0.2,0.5c0.1,0,0.1,0,0.2,0
				c0.2,0,0.3-0.1,0.4-0.3l0.3-0.8C11.2,18.7,11.1,18.5,10.9,18.4z"/>
		</g>
		<g>
			<path fill="#FFFFFF" d="M19.2,15.6l-0.8-0.3c-0.2-0.1-0.4,0-0.5,0.2c-0.1,0.2,0,0.5,0.2,0.5l0.8,0.3c0.1,0,0.1,0,0.2,0
				c0.2,0,0.3-0.1,0.4-0.3C19.5,16,19.4,15.7,19.2,15.6z"/>
		</g>
		<g>
			<path fill="#FFFFFF" d="M6.8,11.2l0.8,0.3c0.1,0,0.1,0,0.2,0c0.2,0,0.3-0.1,0.4-0.3c0.1-0.2,0-0.5-0.2-0.5l-0.8-0.3
				c-0.2-0.1-0.4,0-0.5,0.2C6.5,10.9,6.6,11.1,6.8,11.2z"/>
		</g>
		<g>
			<path fill="#FFFFFF" d="M17.9,11.3c0.1,0.2,0.2,0.3,0.4,0.3c0.1,0,0.1,0,0.2,0l0.8-0.3c0.2-0.1,0.3-0.3,0.2-0.5
				c-0.1-0.2-0.3-0.3-0.5-0.2l-0.8,0.3C18,10.9,17.9,11.1,17.9,11.3z"/>
		</g>
		<g>
			<path fill="#FFFFFF" d="M8.1,15.4c-0.1-0.2-0.3-0.3-0.5-0.2l-0.8,0.3c-0.2,0.1-0.3,0.3-0.2,0.5c0.1,0.2,0.2,0.3,0.4,0.3
				c0.1,0,0.1,0,0.2,0l0.8-0.3C8.1,15.8,8.2,15.6,8.1,15.4z"/>
		</g>
		<g>
			<path fill="#FFFFFF" d="M15.5,18.6c-0.1-0.2-0.3-0.3-0.5-0.2c-0.2,0.1-0.3,0.3-0.2,0.5l0.3,0.8c0.1,0.2,0.2,0.3,0.4,0.3
				c0.1,0,0.1,0,0.2,0c0.2-0.1,0.3-0.3,0.2-0.5L15.5,18.6z"/>
		</g>
		<g>
			<path fill="#FFFFFF" d="M10.9,7.1c-0.1-0.2-0.3-0.3-0.5-0.2c-0.2,0.1-0.3,0.3-0.2,0.5l0.3,0.8c0.1,0.2,0.2,0.3,0.4,0.3
				c0.1,0,0.1,0,0.2,0c0.2-0.1,0.3-0.3,0.2-0.5L10.9,7.1z"/>
		</g>
	</g>
</g>
<g id="mid">
	<g>
		<g>
			<path fill="#FFFFFF" d="M13,3.7c-0.2,0-0.4,0.2-0.4,0.4v0.9c0,0.2,0.2,0.4,0.4,0.4s0.4-0.2,0.4-0.4V4.2C13.4,3.9,13.3,3.7,13,3.7
				z"/>
		</g>
		<g>
			<path fill="#FFFFFF" d="M13,21.4c-0.2,0-0.4,0.2-0.4,0.4v0.9c0,0.2,0.2,0.4,0.4,0.4s0.4-0.2,0.4-0.4v-0.9
				C13.4,21.6,13.3,21.4,13,21.4z"/>
		</g>
		<g>
			<path fill="#FFFFFF" d="M22.1,13h-0.9c-0.2,0-0.4,0.2-0.4,0.4c0,0.2,0.2,0.4,0.4,0.4h0.9c0.2,0,0.4-0.2,0.4-0.4
				C22.6,13.2,22.4,13,22.1,13z"/>
		</g>
		<g>
			<path fill="#FFFFFF" d="M5.2,13.4C5.2,13.2,5,13,4.8,13H3.9c-0.2,0-0.4,0.2-0.4,0.4c0,0.2,0.2,0.4,0.4,0.4h0.9
				C5,13.9,5.2,13.7,5.2,13.4z"/>
		</g>
		<g>
			<path fill="#FFFFFF" d="M19.1,6.6l-0.6,0.6c-0.2,0.2-0.2,0.5,0,0.6C18.6,7.9,18.7,8,18.8,8s0.2,0,0.3-0.1l0.6-0.6
				c0.2-0.2,0.2-0.5,0-0.6C19.6,6.4,19.3,6.4,19.1,6.6z"/>
		</g>
		<g>
			<path fill="#FFFFFF" d="M6.9,19l-0.6,0.6c-0.2,0.2-0.2,0.5,0,0.6c0.1,0.1,0.2,0.1,0.3,0.1c0.1,0,0.2,0,0.3-0.1l0.6-0.6
				c0.2-0.2,0.2-0.5,0-0.6S7.1,18.9,6.9,19z"/>
		</g>
		<g>
			<path fill="#FFFFFF" d="M19.1,19c-0.2-0.2-0.4-0.2-0.6,0c-0.2,0.2-0.2,0.5,0,0.6l0.6,0.6c0.1,0.1,0.2,0.1,0.3,0.1s0.2,0,0.3-0.1
				c0.2-0.2,0.2-0.5,0-0.6L19.1,19z"/>
		</g>
		<g>
			<path fill="#FFFFFF" d="M6.9,6.6c-0.2-0.2-0.4-0.2-0.6,0C6.1,6.8,6.1,7,6.3,7.2l0.6,0.6C7,7.9,7.1,8,7.2,8s0.2,0,0.3-0.1
				c0.2-0.2,0.2-0.5,0-0.6L6.9,6.6z"/>
		</g>
		<g>
			<path fill="#FFFFFF" d="M16.7,4.5c-0.2-0.1-0.5,0-0.6,0.2l-0.3,0.8c-0.1,0.2,0,0.5,0.2,0.6c0.1,0,0.1,0,0.2,0
				c0.2,0,0.3-0.1,0.4-0.3L17,5.1C17.1,4.9,17,4.6,16.7,4.5z"/>
		</g>
		<g>
			<path fill="#FFFFFF" d="M10,20.7c-0.2-0.1-0.5,0-0.6,0.2l-0.3,0.8c-0.1,0.2,0,0.5,0.2,0.6c0.1,0,0.1,0,0.2,0
				c0.2,0,0.3-0.1,0.4-0.3l0.3-0.8C10.3,21.1,10.2,20.8,10,20.7z"/>
		</g>
		<g>
			<path fill="#FFFFFF" d="M21.6,16.6l-0.8-0.3c-0.2-0.1-0.5,0-0.6,0.2c-0.1,0.2,0,0.5,0.2,0.6l0.8,0.3c0.1,0,0.1,0,0.2,0
				c0.2,0,0.3-0.1,0.4-0.3C21.9,17,21.8,16.7,21.6,16.6z"/>
		</g>
		<g>
			<path fill="#FFFFFF" d="M5.6,9.8L4.8,9.4c-0.2-0.1-0.5,0-0.6,0.2c-0.1,0.2,0,0.5,0.2,0.6l0.8,0.3c0.1,0,0.1,0,0.2,0
				c0.2,0,0.3-0.1,0.4-0.3C5.9,10.1,5.8,9.9,5.6,9.8z"/>
		</g>
		<g>
			<path fill="#FFFFFF" d="M20.7,10.7c0.1,0,0.1,0,0.2,0l0.8-0.3c0.2-0.1,0.3-0.3,0.2-0.6c-0.1-0.2-0.3-0.3-0.6-0.2l-0.8,0.3
				c-0.2,0.1-0.3,0.3-0.2,0.6C20.3,10.6,20.5,10.7,20.7,10.7z"/>
		</g>
		<g>
			<path fill="#FFFFFF" d="M5.2,16.1l-0.8,0.3c-0.2,0.1-0.3,0.3-0.2,0.6c0.1,0.2,0.2,0.3,0.4,0.3c0.1,0,0.1,0,0.2,0l0.8-0.3
				c0.2-0.1,0.3-0.3,0.2-0.6C5.7,16.1,5.4,16,5.2,16.1z"/>
		</g>
		<g>
			<path fill="#FFFFFF" d="M16.5,20.9c-0.1-0.2-0.3-0.3-0.6-0.2c-0.2,0.1-0.3,0.3-0.2,0.6l0.3,0.8c0.1,0.2,0.2,0.3,0.4,0.3
				c0.1,0,0.1,0,0.2,0c0.2-0.1,0.3-0.3,0.2-0.6L16.5,20.9z"/>
		</g>
		<g>
			<path fill="#FFFFFF" d="M10,4.6C9.9,4.4,9.7,4.3,9.4,4.4C9.2,4.5,9.1,4.7,9.2,5l0.3,0.8C9.6,5.9,9.8,6,9.9,6C10,6,10,6,10.1,6
				c0.2-0.1,0.3-0.3,0.2-0.6L10,4.6z"/>
		</g>
	</g>
	<g opacity="0.31">
		<ellipse fill="#FFFFFF" cx="13" cy="13.4" rx="9.6" ry="9.7"/>
	</g>
</g>
<g id="out">
	<g>
		<path fill="#FFFFFF" d="M13,0.2c-0.2,0-0.4,0.2-0.4,0.4v2.2c0,0.2,0.2,0.4,0.4,0.4s0.4-0.2,0.4-0.4V0.7C13.4,0.4,13.3,0.2,13,0.2z
			"/>
	</g>
	<g>
		<path fill="#FFFFFF" d="M13,23.6c-0.2,0-0.4,0.2-0.4,0.4v2.2c0,0.2,0.2,0.4,0.4,0.4s0.4-0.2,0.4-0.4V24
			C13.4,23.8,13.3,23.6,13,23.6z"/>
	</g>
	<g>
		<path fill="#FFFFFF" d="M25.6,13h-2.2c-0.2,0-0.4,0.2-0.4,0.4c0,0.2,0.2,0.4,0.4,0.4h2.2c0.2,0,0.4-0.2,0.4-0.4
			C26,13.2,25.8,13,25.6,13z"/>
	</g>
	<g>
		<path fill="#FFFFFF" d="M3,13.4C3,13.2,2.8,13,2.6,13H0.4C0.2,13,0,13.2,0,13.4c0,0.2,0.2,0.4,0.4,0.4h2.2C2.8,13.9,3,13.7,3,13.4
			z"/>
	</g>
	<g>
		<path fill="#FFFFFF" d="M20.4,6.4c0.1,0,0.2,0,0.3-0.1l1.5-1.6c0.2-0.2,0.2-0.5,0-0.6c-0.2-0.2-0.4-0.2-0.6,0l-1.5,1.6
			c-0.2,0.2-0.2,0.5,0,0.6C20.2,6.4,20.3,6.4,20.4,6.4z"/>
	</g>
	<g>
		<path fill="#FFFFFF" d="M5.3,20.6l-1.5,1.6c-0.2,0.2-0.2,0.5,0,0.6c0.1,0.1,0.2,0.1,0.3,0.1s0.2,0,0.3-0.1L6,21.2
			c0.2-0.2,0.2-0.5,0-0.6S5.5,20.4,5.3,20.6z"/>
	</g>
	<g>
		<path fill="#FFFFFF" d="M20.7,20.6c-0.2-0.2-0.4-0.2-0.6,0c-0.2,0.2-0.2,0.5,0,0.6l1.5,1.6c0.1,0.1,0.2,0.1,0.3,0.1s0.2,0,0.3-0.1
			c0.2-0.2,0.2-0.5,0-0.6L20.7,20.6z"/>
	</g>
	<g>
		<path fill="#FFFFFF" d="M4.4,4.1C4.3,3.9,4,3.9,3.8,4.1c-0.2,0.2-0.2,0.5,0,0.6l1.5,1.6c0.1,0.1,0.2,0.1,0.3,0.1s0.2,0,0.3-0.1
			c0.2-0.2,0.2-0.5,0-0.6L4.4,4.1z"/>
	</g>
	<g>
		<path fill="#FFFFFF" d="M18.1,1.3c-0.2-0.1-0.5,0-0.6,0.2l-0.8,2c-0.1,0.2,0,0.5,0.2,0.6c0.1,0,0.1,0,0.2,0c0.2,0,0.3-0.1,0.4-0.3
			l0.8-2C18.4,1.6,18.3,1.4,18.1,1.3z"/>
	</g>
	<g>
		<path fill="#FFFFFF" d="M9.1,22.8c-0.2-0.1-0.5,0-0.6,0.2l-0.8,2c-0.1,0.2,0,0.5,0.2,0.6c0.1,0,0.1,0,0.2,0c0.2,0,0.3-0.1,0.4-0.3
			l0.8-2C9.4,23.1,9.3,22.8,9.1,22.8z"/>
	</g>
	<g>
		<path fill="#FFFFFF" d="M24.8,18l-2-0.9c-0.2-0.1-0.5,0-0.6,0.2c-0.1,0.2,0,0.5,0.2,0.6l2,0.9c0.1,0,0.1,0,0.2,0
			c0.2,0,0.3-0.1,0.4-0.3C25.1,18.4,25,18.1,24.8,18z"/>
	</g>
	<g>
		<path fill="#FFFFFF" d="M1.3,8.8l2,0.9c0.1,0,0.1,0,0.2,0c0.2,0,0.3-0.1,0.4-0.3c0.1-0.2,0-0.5-0.2-0.6L1.6,8C1.4,7.9,1.1,8,1,8.3
			C0.9,8.5,1,8.8,1.3,8.8z"/>
	</g>
	<g>
		<path fill="#FFFFFF" d="M22.3,9.6c0.1,0.2,0.2,0.3,0.4,0.3c0.1,0,0.1,0,0.2,0l2-0.8c0.2-0.1,0.3-0.3,0.2-0.6
			c-0.1-0.2-0.3-0.3-0.6-0.2l-2,0.8C22.3,9.1,22.2,9.3,22.3,9.6z"/>
	</g>
	<g>
		<path fill="#FFFFFF" d="M3.8,17.2c-0.1-0.2-0.3-0.3-0.6-0.2l-2,0.8C1,17.8,0.9,18.1,1,18.3c0.1,0.2,0.2,0.3,0.4,0.3
			c0.1,0,0.1,0,0.2,0l2-0.8C3.7,17.6,3.9,17.4,3.8,17.2z"/>
	</g>
	<g>
		<path fill="#FFFFFF" d="M17.3,23c-0.1-0.2-0.3-0.3-0.6-0.2c-0.2,0.1-0.3,0.3-0.2,0.6l0.8,2c0.1,0.2,0.2,0.3,0.4,0.3
			c0.1,0,0.1,0,0.2,0c0.2-0.1,0.3-0.3,0.2-0.6L17.3,23z"/>
	</g>
	<g>
		<path fill="#FFFFFF" d="M8.7,1.4C8.6,1.1,8.4,1,8.1,1.1C7.9,1.2,7.8,1.5,7.9,1.7l0.8,2C8.8,3.9,8.9,4,9.1,4c0.1,0,0.1,0,0.2,0
			c0.2-0.1,0.3-0.3,0.2-0.6L8.7,1.4z"/>
	</g>
</g>
</svg>

  
