<?xml version="1.0" encoding="utf-8"?>
<!-- Generator: Adobe Illustrator 22.0.1, SVG Export Plug-In . SVG Version: 6.00 Build 0)  -->

<svg version="1.1" id="Layer_1" xmlns="http://www.w3.org/2000/svg" xmlns:xlink="http://www.w3.org/1999/xlink" x="0px" y="0px"
	 viewBox="0 0 25 21.9" enable-background="new 0 0 25 21.9" xml:space="preserve">
<style>
	@-webkit-keyframes galaxy-animation  {
		0% {
				-webkit-transform-origin: 50% 50%;
				        transform-origin: 50% 50%;
	      -webkit-transform: scale(0.30);
	              transform: scale(0.30);
	  }
		25% {
				-webkit-transform-origin: 50% 50%;
				        transform-origin: 50% 50%;
			   -webkit-transform: scale(0.60) rotateZ(50deg);
			           transform: scale(0.60) rotateZ(50deg);
	  }
		50% {
				-webkit-transform-origin: 50% 50%;
				        transform-origin: 50% 50%;
	      -webkit-transform: scale(0.80) rotateZ(100deg);
	              transform: scale(0.80) rotateZ(100deg);
	  }
		75% {
				-webkit-transform-origin: 50% 50%;
				        transform-origin: 50% 50%;
	      -webkit-transform: scale(0.60)  rotateZ(200deg);
	              transform: scale(0.60)  rotateZ(200deg);
	  }
		100% {
				-webkit-transform-origin: 50% 50%;
				        transform-origin: 50% 50%;
	      -webkit-transform: scale(0.30);
	              transform: scale(0.30);
	  }
	}
	@keyframes galaxy-animation  {
		0% {
				-webkit-transform-origin: 50% 50%;
				        transform-origin: 50% 50%;
	      -webkit-transform: scale(0.30);
	              transform: scale(0.30);
	  }
		25% {
				-webkit-transform-origin: 50% 50%;
				        transform-origin: 50% 50%;
			   -webkit-transform: scale(0.60) rotateZ(50deg);
			           transform: scale(0.60) rotateZ(50deg);
	  }
		50% {
				-webkit-transform-origin: 50% 50%;
				        transform-origin: 50% 50%;
	      -webkit-transform: scale(0.80) rotateZ(100deg);
	              transform: scale(0.80) rotateZ(100deg);
	  }
		75% {
				-webkit-transform-origin: 50% 50%;
				        transform-origin: 50% 50%;
	      -webkit-transform: scale(0.60)  rotateZ(200deg);
	              transform: scale(0.60)  rotateZ(200deg);
	  }
		100% {
				-webkit-transform-origin: 50% 50%;
				        transform-origin: 50% 50%;
	      -webkit-transform: scale(0.30);
	              transform: scale(0.30);
	  }
	}
	#galaxy-animation {
	  -webkit-animation : galaxy-animation 2s linear infinite;
	          animation : galaxy-animation 2s linear infinite;
	}
</style>
<g id="galaxy-animation">
	<path fill="#6D316C" d="M13.9,19.7c-4.6,0-7.9-3.1-7.9-7.5c0-2.7,2.1-5.5,5.1-5.5c2.5,0,4.2,1.5,4.2,3.8V11h0.5
		c0.9,0,1.3-1.1,1.3-2.1c0-2.7-3.1-5.2-6.4-5.2c-4.4,0-9,4-9,10c0,0.8,0.1,1.5,0.2,2.3c-0.3-1-0.5-2-0.5-3.2
		c0-4.9,3.9-10.1,9.7-10.1c4.6,0,7.9,3.1,7.9,7.5c0,2.7-2.1,5.5-5.1,5.5c-2.5,0-4.2-1.5-4.2-3.8v-0.5H9.2c-0.9,0-1.3,1.1-1.3,2.1
		c0,2.7,3.1,5.2,6.4,5.2c4.4,0,9-4,9-10c0-0.8-0.1-1.5-0.2-2.3c0.3,1,0.5,2,0.5,3.2C23.6,14.5,19.7,19.7,13.9,19.7z"/>
	<path fill="#6D316C" d="M11.2,3.1c4.3,0,7.4,2.9,7.4,7c0,2.4-1.9,5-4.6,5c-2.2,0-3.7-1.3-3.7-3.3v-1h-1c-1.1,0-1.8,1.1-1.8,2.6
		c0,3,3.3,5.7,6.9,5.7c0.5,0,0.9,0,1.4-0.1c-0.6,0.1-1.2,0.2-1.8,0.2c-4.3,0-7.4-2.9-7.4-7c0-2.4,1.9-5,4.6-5c2.2,0,3.7,1.3,3.7,3.3
		v1h1c1.1,0,1.8-1.1,1.8-2.6c0-3-3.3-5.7-6.9-5.7c-0.5,0-0.9,0-1.4,0.1C10,3.2,10.6,3.1,11.2,3.1 M19.7,0.5c1.5,1.8,3.2,4.7,3.2,8.2
		c0,5.7-4.3,9.5-8.5,9.5c-3.2,0-5.9-2.4-5.9-4.7c0-0.8,0.3-1.6,0.8-1.6c0,2.3,1.6,4.3,4.7,4.3c3.4,0,5.6-3.2,5.6-6
		c0-4.8-3.7-8-8.4-8C5.3,2.1,1,7.3,1,12.7c0,4.7,2.6,7.7,4.4,9.2c-1.5-1.8-3.2-4.7-3.2-8.2c0-5.7,4.3-9.5,8.5-9.5
		c3.2,0,5.9,2.4,5.9,4.7c0,0.8-0.3,1.6-0.8,1.6c0-2.3-1.6-4.3-4.7-4.3c-3.4,0-5.6,3.2-5.6,6c0,4.8,3.7,8,8.4,8
		c5.8,0,10.2-5.2,10.2-10.6C24.1,5,21.5,2,19.7,0.5L19.7,0.5z"/>
</g>
<circle fill="#6D316C" cx="12.5" cy="11.4" r="4.5"/>
</svg>
