<?xml version="1.0" encoding="utf-8"?>
<!-- Generator: Adobe Illustrator 19.0.0, SVG Export Plug-In . SVG Version: 6.00 Build 0)  -->
<svg version="1.1" id="Layer_2" xmlns="http://www.w3.org/2000/svg" xmlns:xlink="http://www.w3.org/1999/xlink" x="0px" y="0px"
	 viewBox="-160 370.9 105 100" style="enable-background:new -160 370.9 105 100;" xml:space="preserve">
<style type="text/css">
	.st0{clip-path:url(#SVGID_2_);}
	.st1{clip-path:url(#SVGID_4_);fill:#2E2E2C;}
	.st2{clip-path:url(#SVGID_6_);}
	.st3{clip-path:url(#SVGID_8_);fill:#2E2E2C;}
	.st4{clip-path:url(#SVGID_10_);}
	.st5{clip-path:url(#SVGID_12_);fill:#2E2E2C;}
	.st6{clip-path:url(#SVGID_14_);}
	.st7{clip-path:url(#SVGID_16_);fill:#2E2E2C;}
	.st8{clip-path:url(#SVGID_18_);}
	.st9{clip-path:url(#SVGID_20_);fill:#2E2E2C;}
	.st10{clip-path:url(#SVGID_22_);}
	.st11{clip-path:url(#SVGID_24_);}
	.st12{clip-path:url(#SVGID_26_);}
	.st13{clip-path:url(#SVGID_29_);}
	.st14{clip-path:url(#SVGID_30_);}
	.st15{clip-path:url(#SVGID_32_);fill:#2E2E2C;}
	.st16{clip-path:url(#SVGID_30_);enable-background:new    ;}
	.st17{clip-path:url(#SVGID_34_);}
	.st18{clip-path:url(#SVGID_36_);fill:#2E2E2C;}
	.st19{clip-path:url(#SVGID_38_);}
	.st20{clip-path:url(#SVGID_40_);fill:#2E2E2C;}
	.st21{clip-path:url(#SVGID_42_);}
	.st22{clip-path:url(#SVGID_44_);fill:#2E2E2C;}
	.st23{clip-path:url(#SVGID_46_);}
	.st24{clip-path:url(#SVGID_48_);fill:#2E2E2C;}
	.st25{clip-path:url(#SVGID_50_);}
	.st26{fill:#2E2E2C;}
	.st27{clip-path:url(#SVGID_52_);fill:#2E2E2C;}
	.st28{clip-path:url(#SVGID_54_);fill:#2E2E2C;}
	.st29{clip-path:url(#SVGID_56_);fill:#2E2E2C;}
</style>
<g>
	<g>
		<g>
			<defs>
				<path id="SVGID_1_" d="M-68,442.9c-2.7,0-3.8-1.6-3.8-1.6c-0.2-0.7-0.4-11.4-0.4-21.9c-0.1-11,0-21.9,0.5-22
					c3.1-5.8,13-17.5,13-17.5c-18.4,3.7-28.5,15.8-28.5,15.8c-3-2.3-9-2-9-2c2.9,1.5,5.6,6.1,5.6,9.8v37.1c0,0-6.2,5.5-10.9,5.5
					c-2.9,0-4.6-1.5-5.6-2.8c-0.6-0.9-0.9-1.6-0.9-1.6v-45.7c-0.6,0.4-1.4,0.8-2.2,0.8c-1,0-2.1-0.5-2.8-2c-0.5-1.2-0.9-2.8-0.9-5.3
					c0-8.4,9.6-14.1,9.6-14.1c-12.1,3.2-23.4,9.5-38.3,26.7s-12.1,31.3-12.1,31.3s4-9.8,14-20.1c4.7-4.8,8.2-6.4,10.7-6.5
					c2.7,0,3.9,2,3.9,3.8v34.8c0,3.4-2.2,4.2-4.3,4.1c-1.7,0-3.3-0.6-3.3-0.6c10.2,14.8,34.6,16.9,34.6,16.9l10.7-11.5l0.3,0.2
					l9.8,8.3c17.9-10.7,26.6-30.4,26.6-30.4C-59.8,440.9-64.9,442.9-68,442.9"/>
			</defs>
			<clipPath id="SVGID_2_">
				<use xlink:href="#SVGID_1_"  style="overflow:visible;"/>
			</clipPath>
			<g class="st0">
				<g>
					<defs>
						<rect id="SVGID_3_" x="-245.9" y="259.6" width="631.6" height="421.1"/>
					</defs>
					<clipPath id="SVGID_4_">
						<use xlink:href="#SVGID_3_"  style="overflow:visible;"/>
					</clipPath>
					<rect x="-156" y="374.2" class="st1" width="105.3" height="92.6"/>
				</g>
			</g>
			<g class="st0">
				<g>
					<defs>
						<path id="SVGID_5_" d="M-100.6,348.9c19,0,36.9,7.4,50.3,21c13.4,13.5,20.9,31.6,20.9,50.8s-7.4,37.2-20.9,50.8
							c-13.4,13.5-31.3,21-50.3,21s-36.9-7.4-50.3-21c-13.4-13.5-20.9-31.6-20.9-50.8s7.4-37.2,20.9-50.8
							C-137.4,356.3-119.6,348.9-100.6,348.9 M-100.6,345.5c-41.2,0-74.5,33.6-74.5,75s33.3,75,74.4,75s74.4-33.6,74.4-75
							C-26.2,379.1-59.5,345.5-100.6,345.5"/>
					</defs>
					<clipPath id="SVGID_6_">
						<use xlink:href="#SVGID_5_"  style="overflow:visible;"/>
					</clipPath>
					<g class="st2">
						<g>
							<defs>
								<rect id="SVGID_7_" x="-245.9" y="259.6" width="631.6" height="421.1"/>
							</defs>
							<clipPath id="SVGID_8_">
								<use xlink:href="#SVGID_7_"  style="overflow:visible;"/>
							</clipPath>
							<rect x="-176.1" y="344.5" class="st3" width="150.9" height="152.2"/>
						</g>
					</g>
					<g class="st2">
						<g>
							<defs>
								<polygon id="SVGID_9_" points="-138.2,557.5 -154.1,557.5 -154.1,542.9 -138.4,542.9 -138.4,546.2 -149.8,546.2 
									-149.8,548.7 -139.1,548.7 -139.1,551.7 -149.8,551.7 -149.8,554.2 -138.2,554.2 								"/>
							</defs>
							<clipPath id="SVGID_10_">
								<use xlink:href="#SVGID_9_"  style="overflow:visible;"/>
							</clipPath>
							<g class="st4">
								<g>
									<defs>
										<rect id="SVGID_11_" x="-245.9" y="259.6" width="631.6" height="421.1"/>
									</defs>
									<clipPath id="SVGID_12_">
										<use xlink:href="#SVGID_11_"  style="overflow:visible;"/>
									</clipPath>
									<rect x="-155.2" y="542" class="st5" width="18" height="16.7"/>
								</g>
							</g>
							<g class="st4">
								<g>
									<defs>
										<polygon id="SVGID_13_" points="-116.6,557.5 -122.9,557.5 -131.4,546.6 -131.5,546.6 -131.5,557.5 -135.7,557.5 
											-135.7,542.9 -129.2,542.9 -120.9,553.9 -120.8,553.9 -120.8,542.9 -116.6,542.9 										"/>
									</defs>
									<clipPath id="SVGID_14_">
										<use xlink:href="#SVGID_13_"  style="overflow:visible;"/>
									</clipPath>
									<g class="st6">
										<g>
											<defs>
												<rect id="SVGID_15_" x="-245.9" y="259.6" width="631.6" height="421.1"/>
											</defs>
											<clipPath id="SVGID_16_">
												<use xlink:href="#SVGID_15_"  style="overflow:visible;"/>
											</clipPath>
											<rect x="-136.8" y="542" class="st7" width="21.3" height="16.7"/>
										</g>
									</g>
									<g class="st6">
										<g>
											<defs>
												<path id="SVGID_17_" d="M-104.1,557.7c-1.3,0-2.5,0-3.5-0.1c-1-0.1-1.8-0.2-2.5-0.4c-0.7-0.2-1.3-0.4-1.7-0.8
													c-0.4-0.4-0.8-0.8-1-1.3c-0.3-0.5-0.4-1.2-0.4-2c-0.1-0.7-0.1-1.7-0.1-2.7v-0.4c0-1.1,0-2,0.1-2.7
													c0.1-0.8,0.3-1.4,0.4-2c0.3-0.5,0.5-1,1-1.3c0.4-0.4,1-0.6,1.7-0.8s1.5-0.3,2.5-0.4c1-0.1,2.1-0.1,3.5-0.1h0.6
													c1.2,0,2.1,0,3,0.1c0.8,0.1,1.6,0.2,2.1,0.3c0.6,0.1,1.1,0.3,1.5,0.5c0.4,0.2,0.7,0.5,0.9,0.8c0.3,0.4,0.4,0.7,0.4,1.3
													c0.1,0.4,0.1,1.1,0.1,1.7v0.5h-4.1v-0.2c0-0.4-0.1-0.6-0.2-0.8c-0.1-0.3-0.3-0.4-0.6-0.5c-0.3-0.2-0.7-0.3-1.3-0.3
													c-0.5-0.1-1.3-0.1-2.1-0.1h-0.4c-0.8,0-1.5,0-2.1,0c-0.5,0-1.1,0.1-1.4,0.2c-0.4,0.1-0.7,0.3-0.9,0.4
													c-0.2,0.2-0.4,0.4-0.5,0.7c-0.1,0.3-0.2,0.6-0.2,1.1c0,0.4-0.1,1-0.1,1.6v0.3c0,0.6,0,1.2,0.1,1.5
													c0,0.4,0.1,0.8,0.2,1.1s0.3,0.5,0.5,0.7c0.2,0.2,0.5,0.3,0.9,0.4c0.4,0.1,0.9,0.2,1.4,0.2s1.3,0,2.1,0h0.4
													c0.6,0,1.3,0,1.7,0c0.4,0,0.9-0.1,1.2-0.1c0.4-0.1,0.6-0.1,0.8-0.2c0.2-0.1,0.4-0.2,0.4-0.4c0.1-0.2,0.2-0.3,0.2-0.5
													c0-0.2,0.1-0.4,0.1-0.6v-0.4h-5.6v-2.8h9.7v3.2c0,0.7-0.1,1.3-0.2,1.9s-0.3,1-0.5,1.3c-0.3,0.4-0.5,0.7-1,1
													c-0.4,0.3-0.9,0.4-1.5,0.6c-0.6,0.2-1.3,0.3-2.2,0.4c-0.9,0.1-1.9,0.1-3,0.1L-104.1,557.7L-104.1,557.7z"/>
											</defs>
											<clipPath id="SVGID_18_">
												<use xlink:href="#SVGID_17_"  style="overflow:visible;"/>
											</clipPath>
											<g class="st8">
												<g>
													<defs>
														<rect id="SVGID_19_" x="-245.9" y="259.6" width="631.6" height="421.1"/>
													</defs>
													<clipPath id="SVGID_20_">
														<use xlink:href="#SVGID_19_"  style="overflow:visible;"/>
													</clipPath>
													<rect x="-114.4" y="541.9" class="st9" width="20.4" height="16.9"/>
												</g>
											</g>
											<g class="st8">
												<g>
													<defs>
														<rect id="SVGID_21_" x="-202.4" y="509.4" width="203.8" height="48.4"/>
													</defs>
													<clipPath id="SVGID_22_">
														<use xlink:href="#SVGID_21_"  style="overflow:visible;"/>
													</clipPath>
													<g class="st10">
														<g>
															<defs>
																<rect id="SVGID_23_" x="-245.9" y="259.6" width="631.6" height="421.1"/>
															</defs>
															<clipPath id="SVGID_24_">
																<use xlink:href="#SVGID_23_"  style="overflow:visible;"/>
															</clipPath>
															<g class="st11">
																<g>
																	<g>
																		<defs>
																			<rect id="SVGID_25_" x="-84.7" y="543" width="38.3" height="14.8"/>
																		</defs>
																		<clipPath id="SVGID_26_">
																			<use xlink:href="#SVGID_25_"  style="overflow:visible;"/>
																		</clipPath>
																		<g class="st12">
																			<g>
																				<defs>
																					<polygon id="SVGID_27_" points="-65.6,557.5 -72,557.5 -80.4,546.7 -80.5,546.7 -80.5,557.5 -84.6,557.5 
																						-84.6,543.1 -78.2,543.1 -69.9,553.9 -69.8,553.9 -69.8,543.1 -65.6,543.1 																					"/>
																				</defs>
																				<defs>
																					<rect id="SVGID_28_" x="-84.7" y="543" width="38.3" height="14.8"/>
																				</defs>
																				<clipPath id="SVGID_29_">
																					<use xlink:href="#SVGID_27_"  style="overflow:visible;"/>
																				</clipPath>
																				<clipPath id="SVGID_30_" class="st13">
																					<use xlink:href="#SVGID_28_"  style="overflow:visible;"/>
																				</clipPath>
																				<g class="st14">
																					<g>
																						<defs>
																							<rect id="SVGID_31_" x="-202.4" y="509.3" width="203.8" height="48.4"/>
																						</defs>
																						<clipPath id="SVGID_32_">
																							<use xlink:href="#SVGID_31_"  style="overflow:visible;"/>
																						</clipPath>
																						<rect x="-85.7" y="542" class="st15" width="21.1" height="16.6"/>
																					</g>
																				</g>
																				<g class="st16">
																					<g>
																						<defs>
																							<polygon id="SVGID_33_" points="-46.5,557.5 -62.2,557.5 -62.2,543.1 -46.8,543.1 -46.8,546.2 -58,546.2 
																								-58,548.8 -47.3,548.8 -47.3,551.8 -58,551.8 -58,554.3 -46.5,554.3 																							"/>
																						</defs>
																						<clipPath id="SVGID_34_">
																							<use xlink:href="#SVGID_33_"  style="overflow:visible;"/>
																						</clipPath>
																						<g class="st17">
																							<g>
																								<defs>
																									<rect id="SVGID_35_" x="-202.4" y="509.3" width="203.8" height="48.4"/>
																								</defs>
																								<clipPath id="SVGID_36_">
																									<use xlink:href="#SVGID_35_"  style="overflow:visible;"/>
																								</clipPath>
																								<rect x="-63.3" y="542" class="st18" width="17.9" height="16.6"/>
																							</g>
																						</g>
																					</g>
																				</g>
																			</g>
																		</g>
																		<g class="st12">
																			<g>
																				<defs>
																					<path id="SVGID_37_" d="M-187.1,535.1c-2.1,0-3.8-0.1-5.5-0.2c-1.5-0.1-2.9-0.3-4-0.5
																						c-1.2-0.3-2.1-0.6-2.8-1.1s-1.3-1.1-1.8-1.7c-0.4-0.7-0.7-1.5-0.9-2.5c-0.2-1-0.3-2.1-0.3-3.3v-16.5h7.5v14.1
																						c0,0.9,0,1.6,0.1,2.2c0.1,0.6,0.2,1.2,0.4,1.6c0.2,0.4,0.4,0.8,0.8,1.1s0.8,0.4,1.4,0.6
																						c0.5,0.2,1.3,0.3,2.1,0.3c0.8,0.1,1.9,0.1,3,0.1h0.6c1.2,0,2.1,0,3-0.1c0.8-0.1,1.5-0.2,2.1-0.3
																						c0.5-0.2,1.1-0.4,1.4-0.6s0.6-0.6,0.8-1.1c0.2-0.4,0.3-1,0.4-1.6c0.1-0.6,0.1-1.3,0.1-2.2v-14.1h7.5v16.5
																						c0,1.3-0.1,2.3-0.3,3.3c-0.2,1-0.4,1.8-0.9,2.5c-0.4,0.7-1,1.3-1.8,1.7c-0.7,0.4-1.7,0.8-2.8,1.1
																						c-1.2,0.3-2.5,0.4-4,0.5c-1.6,0.1-3.4,0.2-5.5,0.2H-187.1z"/>
																				</defs>
																				<clipPath id="SVGID_38_">
																					<use xlink:href="#SVGID_37_"  style="overflow:visible;"/>
																				</clipPath>
																				<g class="st19">
																					<g>
																						<defs>
																							<rect id="SVGID_39_" x="-245.9" y="259.6" width="631.6" height="421.1"/>
																						</defs>
																						<clipPath id="SVGID_40_">
																							<use xlink:href="#SVGID_39_"  style="overflow:visible;"/>
																						</clipPath>
																						<rect x="-203.4" y="508.3" class="st20" width="33.5" height="27.9"/>
																					</g>
																				</g>
																				<g class="st19">
																					<g>
																						<defs>
																							<polygon id="SVGID_41_" points="-132.4,534.9 -143.6,534.9 -158.4,515.8 -158.6,515.8 -158.6,534.9 
																								-165.9,534.9 -165.9,509.4 -154.5,509.4 -139.9,528.4 -139.8,528.4 -139.8,509.4 -132.4,509.4 
																																															"/>
																						</defs>
																						<clipPath id="SVGID_42_">
																							<use xlink:href="#SVGID_41_"  style="overflow:visible;"/>
																						</clipPath>
																						<g class="st21">
																							<g>
																								<defs>
																									<rect id="SVGID_43_" x="-245.9" y="259.6" width="631.6" height="421.1"/>
																								</defs>
																								<clipPath id="SVGID_44_">
																									<use xlink:href="#SVGID_43_"  style="overflow:visible;"/>
																								</clipPath>
																								<rect x="-167" y="508.3" class="st22" width="35.6" height="27.7"/>
																							</g>
																						</g>
																						<g class="st21">
																							<g>
																								<defs>
																									<path id="SVGID_45_" d="M-97,534.9h-7.4v-2.1c0-0.7,0-1.3-0.1-2c-0.1-0.5-0.2-1-0.4-1.3
																										c-0.2-0.4-0.4-0.7-0.8-0.9c-0.4-0.3-0.8-0.4-1.4-0.5c-0.5-0.1-1.3-0.2-2.1-0.3c-0.8,0-1.9-0.1-3-0.1h-7.5
																										v7.1h-7.4v-25.5h19.9c2.1,0,3.8,0.1,5.1,0.4s2.4,0.7,3.1,1.3c0.8,0.6,1.3,1.4,1.6,2.4
																										c0.3,1,0.4,2.2,0.4,3.7v0.9c0,1-0.1,1.9-0.3,2.6c-0.2,0.7-0.4,1.4-0.8,2s-0.8,1-1.3,1.3
																										c-0.5,0.4-1.3,0.6-2.1,0.8v0.2c0.9,0.2,1.6,0.4,2.2,0.5c0.5,0.3,1,0.5,1.3,1c0.4,0.4,0.5,1.1,0.6,1.8
																										c0.1,0.7,0.2,1.6,0.2,2.8v4H-97z M-110.4,522.3c1.3,0,2.3,0,3.1-0.1c0.8-0.1,1.3-0.3,1.8-0.5
																										c0.4-0.3,0.6-0.6,0.8-1.1c0.1-0.4,0.2-1.1,0.2-1.8v-0.4c0-0.7-0.1-1.3-0.2-1.8c-0.1-0.4-0.4-0.8-0.8-1
																										c-0.4-0.3-1-0.4-1.8-0.4c-0.8-0.1-1.8-0.1-3-0.1h-9.4v7.3H-110.4L-110.4,522.3z"/>
																								</defs>
																								<clipPath id="SVGID_46_">
																									<use xlink:href="#SVGID_45_"  style="overflow:visible;"/>
																								</clipPath>
																								<g class="st23">
																									<g>
																										<defs>
																											<rect id="SVGID_47_" x="-245.9" y="259.6" width="631.6" height="421.1"/>
																										</defs>
																										<clipPath id="SVGID_48_">
																											<use xlink:href="#SVGID_47_"  style="overflow:visible;"/>
																										</clipPath>
																										<rect x="-128.2" y="508.3" class="st24" width="32.3" height="27.7"/>
																									</g>
																								</g>
																								<g class="st23">
																									<g>
																										<defs>
																											<polygon id="SVGID_49_" points="-64.3,534.9 -92.1,534.9 -92.1,509.4 -64.8,509.4 -64.8,515 -84.6,515 
																												-84.6,519.3 -65.8,519.3 -65.8,524.7 -84.6,524.7 -84.6,529.1 -64.3,529.1 																											
																												"/>
																										</defs>
																										<clipPath id="SVGID_50_">
																											<use xlink:href="#SVGID_49_"  style="overflow:visible;"/>
																										</clipPath>
																										<g class="st25">
																											<g>
																												<rect x="-93.1" y="508.3" class="st26" width="29.9" height="27.7"/>
																											</g>
																										</g>
																										<g class="st25">
																											<g>
																												<defs>
																													<rect id="SVGID_51_" x="-245.9" y="259.6" width="631.6" height="421.1"/>
																												</defs>
																												<clipPath id="SVGID_52_">
																													<use xlink:href="#SVGID_51_"  style="overflow:visible;"/>
																												</clipPath>
																												<rect x="-63.8" y="508.3" class="st27" width="38.9" height="27.7"/>
																											</g>
																										</g>
																										<g class="st25">
																											<g>
																												<defs>
																													<rect id="SVGID_53_" x="-245.9" y="259.6" width="631.6" height="421.1"/>
																												</defs>
																												<clipPath id="SVGID_54_">
																													<use xlink:href="#SVGID_53_"  style="overflow:visible;"/>
																												</clipPath>
																												<rect x="-24.3" y="508.3" class="st28" width="26.7" height="27.7"/>
																											</g>
																										</g>
																										<g class="st25">
																											<g>
																												<defs>
																													<rect id="SVGID_55_" x="-245.9" y="259.6" width="631.6" height="421.1"/>
																												</defs>
																												<clipPath id="SVGID_56_">
																													<use xlink:href="#SVGID_55_"  style="overflow:visible;"/>
																												</clipPath>
																												<rect x="-93.2" y="542" class="st29" width="6.4" height="16.6"/>
																											</g>
																										</g>
																									</g>
																								</g>
																							</g>
																						</g>
																					</g>
																				</g>
																			</g>
																		</g>
																	</g>
																</g>
															</g>
														</g>
													</g>
												</g>
											</g>
										</g>
									</g>
								</g>
							</g>
						</g>
					</g>
				</g>
			</g>
		</g>
	</g>
</g>
</svg>
