<?xml version="1.0" encoding="utf-8"?>
<!-- Generator: Adobe Illustrator 22.0.1, SVG Export Plug-In . SVG Version: 6.00 Build 0)  -->
<svg version="1.1" id="Layer_1" xmlns="http://www.w3.org/2000/svg" xmlns:xlink="http://www.w3.org/1999/xlink" x="0px" y="0px"
	 viewBox="0 0 85.5 196.8" style="enable-background:new 0 0 85.5 196.8;" xml:space="preserve">
<style type="text/css">
	.st0{fill:#D68A69;}
	.st1{fill:#171D49;}
	.st2{fill:#48626B;}
	.st3{fill:#333333;}
	.st4{fill:#506A75;}
	.st5{fill:#FFFFFF;}
	.st6{fill:#3A4D57;}
	.st7{fill:#281406;}
	.st8{fill:#E29E4B;}
</style>
<g id="Layer_1_1_">
	<g id="left">
		<g id="_x30_0_2_">
			<polyline id="ear_x5F_front" class="st0" points="27.1,15.2 27.1,24.2 32.1,20.2 			"/>
			<polyline id="ear_x5F_back" class="st0" points="58.5,15.4 50.4,19.4 56.2,22.1 			"/>
			<path id="arm_x5F_back_x5F_top" class="st0" d="M58.1,81.1c0.2-5.6-0.1-5.6,0.4-8.3c0.8-6.2,2.4-20.2-4.1-20.1
				c-5.5,0.1-5.3,8.6-5.5,13.9c0,0.8,1.5,12.2,1.7,15.2c0,0.2,0.1,0.5,0.1,1c1.4,1.9,2.5,3.4,3.5,2.1C56.4,84.2,57.5,83.7,58.1,81.1
				z"/>
			<path id="arm_x5F_back_x5F_bot" class="st0" d="M58.1,80.1c-0.7-1.8-2-3.1-4.2-2.3c-1,1.2-2.6,2.3-3.3,4c0.2,6,0.7,33.5,4.3,30.3
				C57.9,109.6,58,91.5,58.1,80.1z"/>
			<path id="foot_x5F_front" class="st1" d="M41.6,172.6c-5.2-3.7-10.5-7-17-8.2c-2.1-0.4-5.5,1.4-6,3.9s-2.8,3.1,0.4,6.2
				c3.1,3.1,13.6,6.7,19,7.1C39.2,178.7,40.3,175.6,41.6,172.6z"/>
			<path id="foot_x5F_back" class="st1" d="M44.9,177.1c2.7,0.4,5.3,0.9,7.9,0.6c1-0.1,0.7-5.7,0.6-6.2c0-0.6-0.2-0.9-0.1-0.5
				c-0.3-0.7-0.6-0.2-1.1-0.3c-1.2-0.2,0.2-0.6-1.6-1.6c-1.9-1-5-4.9-8.3-3c-3.4,2-8,3.7-6.8,8.9C36.6,180.2,41.4,176.7,44.9,177.1z
				"/>
			<polygon id="CAT_x5F_chest" class="st0" points="39.4,65 38.7,72 33.9,72 27.5,49.6 39.4,51 			"/>
			<path id="CAT_x5F_leg_x5F_back_x5F_bot" class="st2" d="M40.4,170.9l3.3-36.8c0,0,6.9-4.9,8.2-2.7s6,28.9,1.8,41.1
				C53.6,172.5,45.5,180.2,40.4,170.9z"/>
			<path id="CAT_x5F_leg_x5F_back_x5F_top" class="st2" d="M39.4,105.9c0,0,8.3-12.7,14.3-8.6c6,4.2,6,12.8,6,12.8l-8.3,29.4
				c0,0-8,12.9-12,0.5C35.5,127.7,39.4,105.9,39.4,105.9z"/>
			<path id="CAT_x5F_hip_x5F_back" class="st2" d="M58.3,82.1l-4.7,10.6c0,0-1.8,1.8,1,3.2c2.8,1.4,5.2,5.5,5.2,5.5s2,8.8,0,11.2
				c0,0-5.8,9.7-16-0.5l-0.9-22.1l2.5-7.5L58.3,82.1z"/>
			<path id="leg_x5F_back_x5F_top" class="st3" d="M39.2,104.9L38.9,136c0,0,0.1,17.1,12.3,2.5l5.5-31.5c0,0,2.1-11.6-2.7-13.5
				C49.3,91.5,39.2,104.9,39.2,104.9z"/>
			<path id="leg_x5F_back_x5F_bot" class="st3" d="M39.9,157.9l0.3,13.8c0,0,7.2,4.5,12.2,1.5c4.9-2.9-0.8-42.8-0.8-42.8
				s-4.8-0.7-9.6,7.9C37.2,147,39.9,157.9,39.9,157.9z"/>
			<path id="leg_x5F_front_x5F_bot" class="st3" d="M37,133.8c-4.8-2.1-8.7,0.6-10,4.8c0.7,15,1.4,31.5,1.6,33.4
				c0,0,1.7,4.4,7.3,4.2s6.7-4,6.7-4s0.1-25-0.3-33C41,137.1,39.4,135.2,37,133.8z"/>
			<path id="leg_x5F_front_x5F_top" class="st3" d="M56.3,101.1c-1.1-9.7-25-6.7-28.8-2.2c0,0-1.9,9.3-1.6,15.1
				c0.1,2.5,0.6,13.1,1.1,24.6c-1.1,6.7,2.6,8.1,7.4,10.2c2.4,1.4,7.4-4.5,7.9-9.6c0-0.4,0-0.8-0.1-1.2
				C41,119.3,45.5,110.4,56.3,101.1z"/>
			<path id="CAT_x5F_leg_x5F_front_x5F_bot" class="st4" d="M42.8,153.6l-0.3-13.4c0,0-10.5-16.7-15.3-0.6l1.6,33.4
				c0,0,8.4,10.7,14,0.2L42.8,153.6z"/>
			<path id="CAT_x5F_leg_x5F_front_x5F_top" class="st4" d="M39,96c0,0,13.8-3.1,10.1,12.8c-3.7,15.9-7.3,34.3-7.3,34.3
				s-7.6,17.5-13.5-1.6s4-44.1,4-44.1L39,96z"/>
			<path id="CAT_x5F_hip_x5F_front" class="st4" d="M48.2,83.7c0,0-5,7.8,0,14.2c5,6.3-1.5,15.5-1.5,15.5s-7.4,8.3-19.5,0
				c0,0,3.3-25.2,8-28.9S48.2,83.7,48.2,83.7z"/>
			<path id="top" class="st5" d="M25.7,98.7c0,0,7,3.8,16.2,3.8c9.3,0,14.4-3.8,14.4-3.8c-0.9-10.7,1.3-17.5,0.1-22.4
				c-1-4-2.9-20.3-2.9-20.3c-2.8,6.6-3.1,7.7-3.1,7.7c-3.9-5.8-15.5-5.6-15.5-5.6c0.6,6.2-3.2,11.7-5.1,13s-3.8,0.7-1.9,7.4
				C28.7,83.3,28.8,89.3,25.7,98.7z"/>
			<path id="arm_x5F_front_x5F_bot" class="st0" d="M25.8,79.9c-2.8,0.7-1.9,3.8-2.7,6.8c2.1,4.7-2.7,26.4,2.4,23
				c3.5-2.3,5-13.3,4.8-22.8C28,84,30.4,78.1,25.8,79.9z"/>
			<path id="arm_x5F_front_x5F_top" class="st0" d="M29.9,53.2c-6.1-0.5-7,9.7-7,14.2c0.1,4.4-0.6,12.6,0.5,16.9
				c0,0.2,0,0.3,0.1,0.5c0.4-3.9-1.2,5.5,1.5,6c4.9,0.3,3.5-1.7,4.9-2.8c0.2-0.3,0.3-0.7,0.5-1c1.9-4.4,3.1-8.5,3-11
				C33.3,68.8,37.1,53.8,29.9,53.2z"/>
			<path id="CAT_x5F_top" class="st6" d="M61.8,65c0,0-16,5.9-38.8,0l-1.6,10l12.2,2l-2.1,15l26.7-1.2l-0.8-14.5l1,2.1
				C58.4,78.5,61.8,73.3,61.8,65z"/>
			<path id="hair" class="st7" d="M42.1,69.2c0,0-2-1.1-4-1s-0.7-1.8-1.9-0.7c0,0-1-18.2-8.4-15.6c0,0-1.5-12.1-3.4-20.7
				s4-12.1,4-12.1s-0.2-7.5,8.8-9s17.8,1.9,19,9.1s1.9,9.2,3.1,9.4c0,0,1.3,24.1-2.2,31.6C52.5,70.1,46.3,75.1,42.1,69.2z"/>
			<path id="CAT_x5F_hair" class="st8" d="M42.9,76.7c0,0-2-1.2-4-1.1c-2,0.1-0.7-2-1.9-0.8c0,0-1.4-20.5-8.7-17.4
				c0,0-1.7-13.6-3.8-23.3s3.8-13.7,3.8-13.7s-0.3-8.4,8.6-10.3s17.8,1.8,19.2,9.9s2.1,10.3,3.3,10.5c0,0,1.8,27.1-1.6,35.6
				C53.3,77.5,47.2,83.3,42.9,76.7z"/>
			<circle id="tail" class="st7" cx="51.6" cy="104.7" r="6.5"/>
			<path id="CAT_x5F_tail" class="st8" d="M52.7,106.2c0,0,12.5,0.6,8.8,18.2c-3.7,17.6,7.3,26.4,7.3,26.4s7.6,4.8,1.4-2.7
				c-6.1-7.6-7.4-11-6.2-22.7s0.4-24.6-9.7-26.1S52.7,106.2,52.7,106.2z"/>
		</g>
	</g>
</g>
</svg>
