<?xml version="1.0" encoding="utf-8"?>
<!-- Generator: Adobe Illustrator 22.0.1, SVG Export Plug-In . SVG Version: 6.00 Build 0)  -->
<svg version="1.1" id="Layer_1" xmlns="http://www.w3.org/2000/svg" xmlns:xlink="http://www.w3.org/1999/xlink" x="0px" y="0px"
	 viewBox="0 0 102 197.6" style="enable-background:new 0 0 102 197.6;" xml:space="preserve">
<style type="text/css">
	.st0{fill:#E29E4B;}
	.st1{fill:#D68A69;}
	.st2{fill:#171D49;}
	.st3{fill:#48626B;}
	.st4{fill:#333333;}
	.st5{fill:#506A75;}
	.st6{fill:#FFFFFF;}
	.st7{opacity:0.3;fill:#E8B9A0;enable-background:new    ;}
	.st8{fill:#3A4D57;}
	.st9{fill:#562809;}
	.st10{fill:#281406;}
	.st11{fill:none;stroke:#331908;stroke-width:0.5;stroke-miterlimit:10;}
	.st12{fill:none;stroke:#231307;stroke-width:0.5;stroke-miterlimit:10;}
	.st13{fill:#4F2508;stroke:#5E2B08;stroke-width:0.5;stroke-miterlimit:10;}
	.st14{fill:#5B3B3E;}
	.st15{fill:#E0A053;}
	.st16{fill:#F4BB76;}
	.st17{fill:#493033;}
	.st18{fill:#966E53;}
	.st19{fill:#8C654B;}
	.st20{fill:#6C61AF;}
	.st21{fill:#F2B361;}
	.st22{fill:#513A40;}
	.st23{fill:#3A262B;}
	.st24{fill:#E6E8A7;}
</style>
<g id="_x30_0">
	<path id="CAT_x5F_tail" class="st0" d="M36.4,100.2c0,0-12.5,0.6-8.8,18.2s-7.3,26.4-7.3,26.4s-7.6,4.8-1.4-2.7
		c6.1-7.6,7.4-11,6.2-22.7s-0.4-24.6,9.7-26.1S36.4,100.2,36.4,100.2z"/>
	<path id="arm_x5F_back_x5F_bot" class="st1" d="M60.3,87.8c0,0,1.3-7.9,5.9-1.3s0.3,24.7,0.3,24.7S64.6,114,60.3,87.8z"/>
	<path id="arm_x5F_back_x5F_top" class="st1" d="M58.6,50.3c6-0.9,6.7,8.4,7.5,14c0.2,0.9,0.6,15.9,0.9,18.3c0.5,3.5,0,10.3-2.4,9.1
		c-6.4-3.2-5.8-11.3-7.6-17.9C55.3,67.2,51.4,51.4,58.6,50.3z"/>
	<path id="foot_x5F_back" class="st2" d="M60.5,166.7c-2.7-0.6-5.6-0.9-8.4-1c-1.8-3.2-0.3,6.9-0.2,8.2c0.2,1.1,0,0.3,0,0.3
		c0.3,0.7,0.8,0.4,1.1,0.3c0.6-0.7-0.9,0.6,0.9,1.4s3.5,5,7,5.1c3.5,0.1,5.1,2.6,8.8-0.3C73.6,177.6,63.9,167.9,60.5,166.7z"/>
	<path id="CAT_x5F_leg_x5F_back_x5F_bot" class="st3" d="M53,136.6c-1.2,0.6-2.1,1.4-2.7,2.4v29c5.6,4.1,11.8,0,11.8,0
		s1.9-18.5,4-28.3C62.2,136.2,57.6,133.8,53,136.6z"/>
	<path id="CAT_x5F_leg_x5F_back_x5F_top" class="st3" d="M47,91.6c0,0.8,0,2.3,0,3.3l3.3,22v22.4c2.1,2.7,5.4,4.3,8.7,3.2
		c3-0.6,5,0.8,6.8-1.5c0.4-1.5,1.4-5.7,1.7-6.4c2.5-5.2,2.2-22.7,1.4-32.3c-0.3-3.8-1-8.2-1.7-12.3C61.4,86.7,51.8,86.8,47,91.6z"/>
	<path id="leg_x5F_back_x5F_bot" class="st4" d="M52.3,135.3c0,0-2.6-0.3-5.5,29.8c0,0,5.2,11.4,16.3,4.4L63,130.8
		C63,130.8,55.8,122.1,52.3,135.3z"/>
	<path id="leg_x5F_back_x5F_top" class="st4" d="M51.4,93.3c-1.1,9.3-1.8,14.4-1.7,24.5c0.2,10.1,0.3,9.4,0.4,18.1s13.6,8.7,13-2.6
		c-0.5-11.3,2.4-23.5,1.6-34.8C64,87.4,56,94.8,51.4,93.3z"/>
	<path id="foot_x5F_front" class="st2" d="M42.7,164c-2.7-0.2-5.2,1.3-6.1,4c-1.2,3.3-2.2,6.7-1.9,10.6c0.1,1.7,2.8,4.6,5.2,4.4
		s3.7,1.4,6-1.8c1.5-2.2,2.3-6.9,2.4-11.1C48.3,166.9,45.9,164.2,42.7,164L42.7,164z"/>
	<path id="CAT_x5F_hip_x5F_back" class="st3" d="M69,103.3c0-0.3-0.1-0.6-0.1-0.9c-0.9-9.6-3.8-23.6-3.8-23.6L51,75.4l-6,6.4
		l3.5,23.4C54.8,107.1,64.1,107.7,69,103.3z"/>
	<path id="CAT_x5F_leg_x5F_front_x5F_bot" class="st5" d="M42,118.6c-2.8,1.9-5.6,6.3-6.8,10.9c-0.4,4.3-1.1,10.1-1.6,14.2
		c-0.6,6,0.9,28.4,0.9,28.4s1.9,1.5,5.9,1.5s5.9-1.7,5.9-1.7c-0.3-2.8,1.3-15.3,1.3-19.2s2.5-13.8,3.4-15.5c0.6-1.1,1.4-4.1,2-6.8
		C53.1,123.3,49.8,114.3,42,118.6z"/>
	<path id="CAT_x5F_leg_x5F_front_x5F_top" class="st5" d="M50,134.6c1.1-0.4,2.1-1.5,2.9-3.1c0.4-2,0.8-4,0.8-5.2
		c0-2.6-0.5-19.9,0.3-21.8c0.1-0.2,0.2-0.3,0.3-0.5c0.9-6.6-3.8-13.5-10.3-14.4c-3.6,0-7.8,0.5-10.6,3.2c-0.6,2.2-2.1,8-1.6,13.9
		c0.6,7.4,3.4,14.7,3.6,18.1c0,0.4,0,0.9,0,1.4C39,131.6,44.5,136.2,50,134.6z"/>
	<path id="CAT_x5F_hip_x5F_front" class="st5" d="M60.6,79.9l-3.4-4.3c0,0-14.1-0.2-14.5-0.2S39.2,80,39.2,80l-5.4,11.9
		c0,0-0.4,1.3-0.9,3.4c3.1,7.4,13.1,10.2,21.6,8.7c1.4-1.9,5-5,6.1-8.5C61.8,91.5,60.6,79.9,60.6,79.9z"/>
	<path id="leg_x5F_front_x5F_bot" class="st4" d="M47.5,133.2l-9-0.2c0,0-2.7,9.4-3.3,29.7l0.8,8.2c0,0,3,2,6.6-0.2
		c3.6-2.1,6.8-8,6.8-8L47.5,133.2z"/>
	<path id="leg_x5F_front_x5F_top" class="st4" d="M37.1,95.1c0,0-1.7,6.9-2.8,19.4c-0.4,4.8,1.1,13.5,1.1,13.5l1.2,16.6
		c0,0,13-1.3,13-15.4c0-9.7,5.5-21.1,4.8-31.3C54,93.5,37.1,95.1,37.1,95.1z"/>
	<path id="chest" class="st1" d="M42.7,38.8v6.7l-5.3,3.6c-1,1.9,0.1,14.7,5.2,17.1c4.3,2,12.4-6.2,14.7-6.6
		c3.2-0.4,3.9-11.6-1.6-13.5c-2.4-0.8-1.8-3.7-1.8-5.7C53.9,40.5,46.1,34.9,42.7,38.8z"/>
	<path id="top" class="st6" d="M33.9,95.7c0,0,7,3.8,16.2,3.8c9.3,0,14.4-3.8,14.4-3.8c-0.9-10.7,1.3-17.5,0.1-22.4
		c-1-4,3.7-9.5,1.7-12.6s-4.6-7.6-4.6-7.6c-2.8,6.6-3.1,7.7-3.1,7.7c-3.9-5.8-15.5-5.6-15.5-5.6c0.6,6.2-3.2,11.7-5.1,13
		s-3.8,0.7-1.9,7.4C36.9,80.3,37,86.3,33.9,95.7z"/>
	<path id="arm_x5F_front_x5F_top" class="st1" d="M38.2,49.8C44.5,50,44.9,60.1,45,65s-2.4,14.2-3.2,18.5c-0.2,1.1-3.6,12.1-5.9,9.2
		c-2-2.5-2.9-18.6-3-19.9C32.5,66.9,30.7,49.8,38.2,49.8z"/>
	<path id="arm_x5F_front_x5F_bot" class="st1" d="M35.1,87.1c0,0,2.4-20.8,6.5-7c1.8,6.2,0.8,26.8,0,31.6c-0.6,3.1-1.7,0.4-1.7,0.4
		S32.8,92.8,35.1,87.1z"/>
	<path id="neck" class="st7" d="M50.2,48.7c1.7,0.7,5.8,0.9,5.4-2c-0.2-1.2-0.3-1.5-0.9-2.5c-0.8-1.4-3.1-2.1-3.8-3.5
		c-0.3-0.6,0.7-0.9,1-0.3c0.4,0.9,1.2,1.8,1.9,2.7c0.2-0.2,0.5-0.3,0.7,0c0.1,0.1,0.1,0.1,0.2,0.2c-0.2-1.1-0.2-2.3-0.3-3.3
		c0,0-8.5-5.2-11.8-0.9c0.4,2.1,1.6,4.8,2.8,6.5C46.5,47.1,48.2,47.9,50.2,48.7z"/>
	<path id="CAT_x5F_top" class="st8" d="M41.7,81.1c0,0,1,1,12,0.6s13.4-4.2,13.4-4.2s-0.2-9.9-0.3-11.3c-0.1-1.4,2.7-3.8,2.7-4.8
		s-2.3-6.9-6.9-11.3c-1.7-1.6-3.9-2.3-6.5-2.5c0.4,0.3,4.7,3.4,4.6,5.4c-0.1,2-9.8,6-13.6,6s-6-3.9-11.3-5.2c-4.7,2.4-7,4.3-8.1,8.5
		c-1,3.8,10.7,7.5,11.7,10.6C40.3,75.9,41.7,81.1,41.7,81.1z"/>
	<path id="hair_x5F_back" class="st9" d="M61.5,33.3c0,0-1.2,16.6,3.9,25.7c0,0-0.1,2.6-2.6,3s-0.9-11.7-7.2-16
		C55.6,46,54.9,29.9,61.5,33.3z"/>
	<path id="head" class="st1" d="M61.2,16.6c-5.8-7.6-17.5-7-22.8,0.1C33,23.8,38.6,31.6,41.2,36c2.6,4.4,1.1,2.6,3.8,5.4
		c0.6,0.7,1.4,1.3,2.3,1.9c2.9,1.3,6.3,1.3,9.3,0c2.1-1.8,3.6-5.1,4.7-7.9c0.1-3.2,0.5-4.8,0.8-8.1C62.5,23.9,63.8,20.1,61.2,16.6z"
		/>
	<path id="hair_x5F_front" class="st10" d="M43.5,30.2c0,0-0.9-3.3-2.9-2.7c-2,0.6,0.1,3.9,0.5,5.3c0.4,1.4,0.8,3.1,1.9,2.2
		c0,0,0.9,1.4-0.3,3.8c0,0-0.7,5.8,3.1,9.8s5.1,12,5.2,14.6c0,0-0.4,2.2-2.5,2.3c-2,0.1-3-1-4.2,0c0,0-1-18.2-8.4-15.6
		c0,0-1.5-12.1-3.4-20.7s4-12.1,4-12.1s-0.2-7.5,8.8-9s17.9,1.9,19.1,9.1c1.2,7.2,1.9,9.2,3.1,9.4c0,0-10.5,4.9-22.1-6.2
		C45.3,20.4,48.7,27.3,43.5,30.2z"/>
	<polyline id="ear" class="st1" points="35.3,12.2 35.3,21.2 40.3,17.2 	"/>
	<path id="CAT_x5F_hair" class="st0" d="M59.5,18c0,0-5.2,7.8-8.5,12c-3.3,4.3-6.9,10.3-6,15c1,4.8,5.1,11.9,4.4,18.8
		c-0.7,6.8-2.6,7.2-2.6,7.2S43.3,58.3,42,55s-3-4.3-3-4.3L31.7,57c0,0,1.8-5.4,2.5-12.9C34.8,36.6,34,23.6,37,17
		c3-6.5,7.2-6.6,9-6.5s1.8,0.1,1.8,0.1s1-1,4.3-1.2s10.5,2.9,11.6,7.2c1.2,4.3-1.2,9.7-1.2,9.7S62.9,20.5,59.5,18z"/>
	<line id="whisker_x5F_left_x5F_top" class="st11" x1="50.3" y1="34.2" x2="36.3" y2="33.2"/>
	<line id="whisker_x5F_left_x5F_mid" class="st12" x1="50.3" y1="35.1" x2="36.3" y2="36.2"/>
	<line id="whisker_x5F_left_x5F_bot" class="st12" x1="50.1" y1="35.9" x2="36.5" y2="39.4"/>
	<line id="whisker_x5F_right_x5F_bot" class="st12" x1="60.1" y1="35.3" x2="69.5" y2="38.8"/>
	<line id="whisker_x5F_right_x5F_mid" class="st12" x1="60.3" y1="34.6" x2="70.1" y2="36.6"/>
	<line id="whisker_x5F_right_x5F_top" class="st12" x1="60.6" y1="34" x2="70.6" y2="34.3"/>
	<polygon id="nose" class="st13" points="53.8,35.7 56.8,35.6 54.8,37.7 	"/>
	<path id="ELEPHANT_x5F_arm_x5F_back_x5F_bot" class="st14" d="M62.9,70.7l5.1,20c0,0-1,1.2-1.5,2.8C66,95.1,66,99,66.8,99.7
		c0.8,0.6,1.1-3.1,1.8-2.9c0.7,0.1,2.1,4,2.2,4.9c0.2,0.9-1,2.4-0.3,3c0.6,0.6,1.8,0.2,3.2-2.6c1.4-2.9,1.9-4.5,1.8-6.4
		s-2.8-7.3-2.8-7.3s0.5-19-0.9-20.9"/>
	<g id="ELEPHANT_x5F_arm_x5F_back_x5F_top">
		<path class="st15" d="M65.5,38.7c-1.2-1.9-4.8-1-6.1,0.7c-1.3,1.8-0.8,7.3,0.6,17c1.4,9.7,1.3,10.5,1.3,10.5l1,8.1
			c0,0,9.1-0.5,10.3-0.3c1.2,0.1,0-5.2,0-5.2s-2.4-16.7-3.4-22.3C68.3,41.4,65.5,38.7,65.5,38.7z"/>
		<path class="st16" d="M61.9,70.4l10.8-1c0,0,1.2,4.3,0.5,4.7C72.4,74.6,62.4,75,62.4,75L61.9,70.4z"/>
	</g>
	<path id="ELEPHANT_x5F_leg_x5F_back_x5F_bot" class="st17" d="M62.4,172.7c0.6-0.6,1.5-1.3,2.2-2c-1-1.2-1.7-2-1.7-2
		s0.6-22.2,0.9-28c0.2-3.2,0.8-5.6,1.4-8.6c-1.9-2.4-5.3-4-7.9-2.5c-1.5,0.9-3.5,2-5,3.5c-0.2,1.6-0.5,3.3-0.5,5.3
		c0,5,1.5,19.1,2.2,24.5c0.2,1.6,0.1,2.7-0.1,3.6l0,0c-0.2,0.8-0.5,1.4-0.8,2C55.2,171.6,58.8,174.3,62.4,172.7z"/>
	<path id="ELEPHANT_x5F_foot_x5F_back" class="st8" d="M76.7,178.1c-0.9,2-8.2,2.4-10.4,1.8c-2.2-0.6-7.4-3.8-9.7-4.6
		s-3.5-0.8-3.7-2.3c-0.4-2.2,0.7-3.4,0.5-5.8c1,0.6,1.6,2.5,3.8,2.4c2.4-0.1,2.2-1.6,2.8-1.9c0.6-0.3,2.8-0.8,2.8-0.8
		S77.6,176,76.7,178.1z"/>
	<g id="ELEPHANT_x5F_leg_x5F_back_x5F_top">
		<path class="st17" d="M62.4,149.7c0.4-0.2,0.8-0.5,1.1-0.9c0.1-3.5,0.2-6.5,0.3-8.2c0.4-5.7,2.2-9,2.4-17.8c0-0.8,0.1-1.7,0.1-2.7
			c-5,1.7-10.5,1.1-15.2-1c0.3,2.6,0.7,4.8,1,6.2c1.2,4.9-0.5,7.9-0.5,12.9c0,1.4,0.1,3.5,0.3,5.9C54,148.3,57.5,151.6,62.4,149.7z"
			/>
		<path class="st18" d="M47.2,92.9c0.2,7.1,1.4,12,1.5,13.2c0.2,1.3,0.4,13.9,0.4,13.9s3.4,2.5,10.4,2.3c7.7-0.2,9-3.5,9-3.5
			l1.2-22.5c0,0-13.7-4.1-17.5-3.9C48.4,92.7,47.2,92.9,47.2,92.9z"/>
	</g>
	<path id="ELEPHANT_x5F_leg_x5F_front_x5F_bot" class="st14" d="M47.1,177.3c0.6-0.6,1.5-1.3,2.2-2c-1-1.2-1.7-2-1.7-2
		s0.6-22.2,0.9-28c0.2-3.2,0.8-5.6,1.4-8.6c-1.9-2.4-5.3-4-7.9-2.5c-1.5,0.9-3.5,2-5,3.5c-0.2,1.6-0.5,3.3-0.5,5.3
		c0,5,1.5,19.1,2.2,24.5c0.2,1.6,0.1,2.7-0.1,3.6l0,0c-0.2,0.8-0.5,1.4-0.8,2C39.9,176.2,43.5,178.9,47.1,177.3z"/>
	<path id="ELEPHANT_x5F_foot_x5F_front" class="st8" d="M61.4,182.7c-0.9,2-8.2,2.4-10.4,1.8c-2.2-0.6-7.4-3.8-9.7-4.6
		s-3.5-0.8-3.7-2.3c-0.4-2.2,0.7-3.4,0.5-5.8c1,0.6,1.6,2.5,3.8,2.4c2.4-0.1,2.2-1.6,2.8-1.9c0.6-0.3,2.8-0.8,2.8-0.8
		S62.3,180.6,61.4,182.7z"/>
	<g id="ELEPHANT_x5F_leg_x5F_front_x5F_top">
		<path class="st14" d="M47.1,154.3c0.4-0.2,0.8-0.5,1.1-0.9c0.1-3.5,0.2-6.5,0.3-8.2c0.4-5.7,2.2-9,2.4-17.8c0-0.8,0.1-1.7,0.1-2.7
			c-5,1.7-10.5,1.1-15.2-1c0.3,2.6,0.7,4.8,1,6.2c1.2,4.9-0.5,7.9-0.5,12.9c0,1.4,0.1,3.5,0.3,5.9C38.7,152.9,42.2,156.2,47.1,154.3
			z"/>
		<path class="st19" d="M31.9,97.5c0.2,7.1,1.4,12,1.5,13.2c0.2,1.3,0.4,13.9,0.4,13.9s3.4,2.5,10.4,2.3c7.7-0.2,9-3.5,9-3.5
			l1.2-22.5c0,0-13.7-4.1-17.5-3.9C33.1,97.3,31.9,97.5,31.9,97.5z"/>
	</g>
	<g id="ELEPHANT_x5F_top">
		<path class="st20" d="M67.3,60.1c-0.5-9.4-0.4-21.6-2.1-25.3c-0.8-1.9-2.4-3.7-4.4-4.7c-2.3-1.2-4.9-0.1-7.3,0.3
			c-2.3,0.4-4.6,1.4-6.7,2.3c-2.4,1-5,1.7-7.2,2.9c-2.2,1.1-4.3,2.4-6.4,3.6c-7,4.1-6.9,7.7-4.7,16.6S31,97.6,31,97.6
			c11.2,7.4,24.5,4.6,24.5,4.6s8.8-1.4,12.2-5.3C67.6,96.8,67.8,69.5,67.3,60.1z M57.5,65.9L57.5,65.9c-0.1-1.5-0.2-3.1-0.3-4.5
			C57.4,63,57.5,64.5,57.5,65.9z"/>
		<path class="st21" d="M52.7,37.9c0,0,2.1,7,2.3,13.5c0.3,6.5-2.8,52.2-2.8,52.2s-11.6,1.7-21.4-5.2l-1.7-29.5l-0.6-25.7
			c0,0,0.3-1.2,3.3-3.6c2.9-2.4,9.5-5.7,9.5-5.7l6.8,3.4L52.7,37.9z"/>
		<path class="st15" d="M42.7,32.4c0,0,3.4,2.9,6.7,4.2c3.3,1.2,3.3,1.2,3.3,1.2s-1.4,5.3-1.4,6.2s-7.9-3.9-9.5-5.9
			c-1.5-2-1-3.5-1-3.5l1.2-3.3l0.8-0.8L42.7,32.4z"/>
		<path class="st21" d="M57.2,34.8c1.5,3.1,3.8,9.3,4.4,13.9c0.6,4.6,2.8,34.9,3.1,39.2s0.6,11.6,0.6,11.6l3.2-2.4
			c0,0-0.8-42-1.7-52.7c-0.9-10.7-2.4-14-8-14.9c0,0-0.8,2.2-2.3,3.1L57.2,34.8z"/>
		<path class="st15" d="M56.1,32.9c0,0,0.8,1.2,1.1,1.9c0.3,0.8,2.5,3.9,2.5,3.9s0.3-3.3-0.3-4.6s-1.9-2.4-1.9-2.4
			S57.1,32.4,56.1,32.9z"/>
	</g>
	<path id="ELEPHANT_x5F_arm_x5F_front_x5F_bot" class="st14" d="M38.5,73.7l-1.9,20.4c0,0,1.4,1.1,2.3,2.6c0.9,1.5,1.7,5.4,0.9,6.1
		s-1.9-2.9-2.7-2.6c-0.8,0.2-1.6,4.2-1.6,5.1s1.6,2.2,1,2.9c-0.6,0.7-2.1,0.5-4.3-2.1c-2.3-2.6-3.2-4.1-3.4-6
		c-0.2-1.9,1.8-7.6,1.8-7.6s-4.5-18.7-3.2-20.8"/>
	<g id="ELEPHANT_x5F_arm_x5F_front_x5F_top">
		<path class="st15" d="M28.9,42.5c1-2,5.3-1.7,7.2-0.2c1.9,1.6,2.4,7.1,2.8,16.8c0.3,9.8,0.6,10.6,0.6,10.6l0.5,8.2
			c0,0-10.7,0.8-12,1.1c-1.4,0.3-1-5.2-1-5.2S26.2,57,26.2,51.3S28.9,42.5,28.9,42.5z"/>
		<path class="st16" d="M39.7,73.3l-12.8,0.6c0,0-0.6,4.4,0.4,4.7c0.9,0.3,12.7-0.7,12.7-0.7L39.7,73.3z"/>
	</g>
	<g id="ELEPHANT_x5F_head">
		<path class="st22" d="M53.3,19.6l2.5-1.1l6.4-7.5l15.2,6.2c0,0,5.7,5.8-0.4,18s-5.7,12.5-5.7,12.5s-3,3.1-4.6-3.6
			S53.3,19.6,53.3,19.6z"/>
		<path class="st23" d="M41.5,32.2c1,2.4-0.6,8.6,0.1,10.7c0.7,2.2,7,8,12.6,5.8c5.6-2.1,5.5-5.9,5-11.2
			C58.8,32.2,41.5,32.2,41.5,32.2z"/>
		<path class="st14" d="M62.3,12.3c0.1,0.2,0.2,0.3,0.3,0.5c0.8,1.3,1.4,2.8,1.5,4.3c0.2,1.6-0.2,3.1-0.1,4.6c0,1,0.8,2,1,4.3
			s-1.3,13.6-7.6,14.5s-10.5-2.8-12.2-4.3c-1.8-1.5-6-6.9-6-6.9s-3.8-6.3-4.6-9.9c-0.6-2.6-0.2-5.7,0.5-8.2c0.3-1.1,0.8-2.3,1.7-3.1
			C38,7,39.7,7,41.1,6.4c1-0.5,1.5-1.6,2.6-2.1c1.4-0.6,3.9-0.3,5.3,0C54.1,5.2,59.3,7.9,62.3,12.3z"/>
		<path class="st14" d="M46.3,15.4l-2.9,0.1L34,11.3l-12,12c0,0-3,7.7,8.3,16.2s11,9,11,9s4.3,1.5,2.9-5.2S46.3,15.4,46.3,15.4z"/>
		<path class="st24" d="M60.8,34c0,0,0.2-4.2,5.8-2c0,0-1.6,4,2.5,7.5c4,3.5-4.1,1.8-4.1,1.8S59.7,38.6,60.8,34z"/>
		<path class="st14" d="M62,27.6c0,0,1.9,30.5,2.8,32.1c0.9,1.5,3.9,33.2-2.1,37.3c-4.2,2.8-3.2-0.4-2.3-2.6
			c0.4-0.9,0.8-1.7,0.8-1.7s-2.7,3.9-0.8-4.2s-9.6-52.9-9.6-52.9l0.7-7.9H62V27.6z"/>
		<path class="st24" d="M51.1,35.4c0,0-0.2-4.2-6.1-2c0,0,1.7,4-2.6,7.5c-4.2,3.5,4.4,1.8,4.4,1.8S52.2,39.9,51.1,35.4z"/>
	</g>
</g>
</svg>
