<?xml version="1.0" encoding="utf-8"?>
<!-- Generator: Adobe Illustrator 22.0.1, SVG Export Plug-In . SVG Version: 6.00 Build 0)  -->
<svg version="1.1" id="Layer_1" xmlns="http://www.w3.org/2000/svg" xmlns:xlink="http://www.w3.org/1999/xlink" x="0px" y="0px"
	 viewBox="0 0 102 197.6" style="enable-background:new 0 0 102 197.6;" xml:space="preserve">
<style type="text/css">
	.st0{fill:#281406;}
	.st1{fill:#E29E4B;}
	.st2{fill:#D68A69;}
	.st3{fill:#171D49;}
	.st4{fill:#333333;}
	.st5{fill:#48626B;}
	.st6{fill:#506A75;}
	.st7{fill:#FFFFFF;}
	.st8{fill:#3A4D57;}
	.st9{opacity:0.3;fill:#E8B9A0;enable-background:new    ;}
	.st10{fill:#562809;}
	.st11{fill:none;stroke:#331908;stroke-width:0.5;stroke-miterlimit:10;}
	.st12{fill:none;stroke:#231307;stroke-width:0.5;stroke-miterlimit:10;}
	.st13{fill:#4F2508;stroke:#5E2B08;stroke-width:0.5;stroke-miterlimit:10;}
	.st14{fill:#5B3B3E;}
	.st15{fill:#E0A053;}
	.st16{fill:#F4BB76;}
	.st17{fill:#493033;}
	.st18{fill:#966E53;}
	.st19{fill:#8C654B;}
	.st20{fill:#6C61AF;}
	.st21{fill:#F2B361;}
	.st22{fill:#513A40;}
	.st23{fill:#3A262B;}
	.st24{fill:#E6E8A7;}


@-webkit-keyframes leg_back_top {
  0% { -webkit-transform: translateX(0); transform: translateX(0);}
  14% {
    -webkit-transform-origin: 20% 40%;
            transform-origin: 20% 40%;
    -webkit-transform: translate(-20%, 0%) rotateZ(15deg);
            transform: translate(-20%, 0%) rotateZ(15deg);
  }
  21% {
    -webkit-transform-origin: 20% 40%;
            transform-origin: 20% 40%;
    -webkit-transform: translate(-40%, -20%) rotateZ(25deg);
            transform: translate(-40%, -20%) rotateZ(25deg);
  }
  28% {
    -webkit-transform-origin: 20% 40%;
            transform-origin: 20% 40%;
    -webkit-transform: translate(-20%, 0%) rotateZ(15deg);
            transform: translate(-20%, 0%) rotateZ(15deg);
  }
  35% {
    -webkit-transform-origin: 20% 40%;
            transform-origin: 20% 40%;
    -webkit-transform: translate(0%, 0%) rotateZ(0deg);
            transform: translate(0%, 0%) rotateZ(0deg);
  }
  42% {
    -webkit-transform-origin: 20% 40%;
            transform-origin: 20% 40%;
    -webkit-transform: translate(0%, 0%) rotateZ(-25deg);
            transform: translate(0%, 0%) rotateZ(-25deg);
  }
  49% {
    -webkit-transform-origin: 20% 40%;
            transform-origin: 20% 40%;
    -webkit-transform: translate(10%, -10%) rotateZ(-40deg);
            transform: translate(10%, -10%) rotateZ(-40deg);
  }
  60% {
    -webkit-transform-origin: 20% 40%;
            transform-origin: 20% 40%;
    -webkit-transform: translate(0%, 0%) rotateZ(-25deg);
            transform: translate(0%, 0%) rotateZ(-25deg);
  }
  70% {
    -webkit-transform-origin: 20% 40%;
            transform-origin: 20% 40%;
    -webkit-transform: translate(0%, 0%) rotateZ(-15deg);
            transform: translate(0%, 0%) rotateZ(-15deg);
  }
  80% {
    -webkit-transform-origin: 20% 40%;
            transform-origin: 20% 40%;
    -webkit-transform: translate(0%, 0%) rotateZ(-10deg);
            transform: translate(0%, 0%) rotateZ(-10deg);
  }
  90% {
    -webkit-transform-origin: 20% 40%;
            transform-origin: 20% 40%;
    -webkit-transform: translate(0%, 0%) rotateZ(-0deg);
            transform: translate(0%, 0%) rotateZ(-0deg);
  }
}
@keyframes leg_back_top {
  0% { -webkit-transform: translateX(0); transform: translateX(0);}
  14% {
    -webkit-transform-origin: 20% 40%;
            transform-origin: 20% 40%;
    -webkit-transform: translate(-20%, 0%) rotateZ(15deg);
            transform: translate(-20%, 0%) rotateZ(15deg);
  }
  21% {
    -webkit-transform-origin: 20% 40%;
            transform-origin: 20% 40%;
    -webkit-transform: translate(-40%, -20%) rotateZ(25deg);
            transform: translate(-40%, -20%) rotateZ(25deg);
  }
  28% {
    -webkit-transform-origin: 20% 40%;
            transform-origin: 20% 40%;
    -webkit-transform: translate(-20%, 0%) rotateZ(15deg);
            transform: translate(-20%, 0%) rotateZ(15deg);
  }
  35% {
    -webkit-transform-origin: 20% 40%;
            transform-origin: 20% 40%;
    -webkit-transform: translate(0%, 0%) rotateZ(0deg);
            transform: translate(0%, 0%) rotateZ(0deg);
  }
  42% {
    -webkit-transform-origin: 20% 40%;
            transform-origin: 20% 40%;
    -webkit-transform: translate(0%, 0%) rotateZ(-25deg);
            transform: translate(0%, 0%) rotateZ(-25deg);
  }
  49% {
    -webkit-transform-origin: 20% 40%;
            transform-origin: 20% 40%;
    -webkit-transform: translate(10%, -10%) rotateZ(-40deg);
            transform: translate(10%, -10%) rotateZ(-40deg);
  }
  60% {
    -webkit-transform-origin: 20% 40%;
            transform-origin: 20% 40%;
    -webkit-transform: translate(0%, 0%) rotateZ(-25deg);
            transform: translate(0%, 0%) rotateZ(-25deg);
  }
  70% {
    -webkit-transform-origin: 20% 40%;
            transform-origin: 20% 40%;
    -webkit-transform: translate(0%, 0%) rotateZ(-15deg);
            transform: translate(0%, 0%) rotateZ(-15deg);
  }
  80% {
    -webkit-transform-origin: 20% 40%;
            transform-origin: 20% 40%;
    -webkit-transform: translate(0%, 0%) rotateZ(-10deg);
            transform: translate(0%, 0%) rotateZ(-10deg);
  }
  90% {
    -webkit-transform-origin: 20% 40%;
            transform-origin: 20% 40%;
    -webkit-transform: translate(0%, 0%) rotateZ(-0deg);
            transform: translate(0%, 0%) rotateZ(-0deg);
  }
}
@-webkit-keyframes leg_back_bot {
  0% { -webkit-transform: translateX(0); transform: translateX(0);}
  14% {
    -webkit-transform-origin: 20% 40%;
            transform-origin: 20% 40%;
    -webkit-transform: translate(-90%, -20%) rotateZ(15deg);
            transform: translate(-90%, -20%) rotateZ(15deg);
  }
  21% {
    -webkit-transform-origin: 20% 40%;
            transform-origin: 20% 40%;
    -webkit-transform: translate(-130%, -50%) rotateZ(25deg);
            transform: translate(-130%, -50%) rotateZ(25deg);
  }
  28% {
    -webkit-transform-origin: 20% 40%;
            transform-origin: 20% 40%;
    -webkit-transform: translate(-80%, -30%) rotateZ(90deg);
            transform: translate(-80%, -30%) rotateZ(90deg);
  }
  35% {
    -webkit-transform-origin: 20% 40%;
            transform-origin: 20% 40%;
    -webkit-transform: translate(-50%, -20%) rotateZ(70deg);
            transform: translate(-50%, -20%) rotateZ(70deg);
  }
  42% {
    -webkit-transform-origin: 20% 40%;
            transform-origin: 20% 40%;
    -webkit-transform: translate(30%, -10%) rotateZ(20deg);
            transform: translate(30%, -10%) rotateZ(20deg);
  }
  49% {
    -webkit-transform-origin: 20% 40%;
            transform-origin: 20% 40%;
    -webkit-transform: translate(60%, -30%) rotateZ(20deg);
            transform: translate(60%, -30%) rotateZ(20deg);
  }
  60% {
    -webkit-transform-origin: 20% 40%;
            transform-origin: 20% 40%;
    -webkit-transform: translate(30%, -10%) rotateZ(20deg);
            transform: translate(30%, -10%) rotateZ(20deg);
  }
  70% {
    -webkit-transform-origin: 20% 40%;
            transform-origin: 20% 40%;
    -webkit-transform: translate(70%, 10%) rotateZ(-20deg);
            transform: translate(70%, 10%) rotateZ(-20deg);
  }
  80% {
    -webkit-transform-origin: 20% 40%;
            transform-origin: 20% 40%;
    -webkit-transform: translate(50%, 10%) rotateZ(-15deg);
            transform: translate(50%, 10%) rotateZ(-15deg);
  }
  90% {
    -webkit-transform-origin: 20% 40%;
            transform-origin: 20% 40%;
    -webkit-transform: translate(0%, 10%) rotateZ(0deg);
            transform: translate(0%, 10%) rotateZ(0deg);
  }
}
@keyframes leg_back_bot {
  0% { -webkit-transform: translateX(0); transform: translateX(0);}
  14% {
    -webkit-transform-origin: 20% 40%;
            transform-origin: 20% 40%;
    -webkit-transform: translate(-90%, -20%) rotateZ(15deg);
            transform: translate(-90%, -20%) rotateZ(15deg);
  }
  21% {
    -webkit-transform-origin: 20% 40%;
            transform-origin: 20% 40%;
    -webkit-transform: translate(-130%, -50%) rotateZ(25deg);
            transform: translate(-130%, -50%) rotateZ(25deg);
  }
  28% {
    -webkit-transform-origin: 20% 40%;
            transform-origin: 20% 40%;
    -webkit-transform: translate(-80%, -30%) rotateZ(90deg);
            transform: translate(-80%, -30%) rotateZ(90deg);
  }
  35% {
    -webkit-transform-origin: 20% 40%;
            transform-origin: 20% 40%;
    -webkit-transform: translate(-50%, -20%) rotateZ(70deg);
            transform: translate(-50%, -20%) rotateZ(70deg);
  }
  42% {
    -webkit-transform-origin: 20% 40%;
            transform-origin: 20% 40%;
    -webkit-transform: translate(30%, -10%) rotateZ(20deg);
            transform: translate(30%, -10%) rotateZ(20deg);
  }
  49% {
    -webkit-transform-origin: 20% 40%;
            transform-origin: 20% 40%;
    -webkit-transform: translate(60%, -30%) rotateZ(20deg);
            transform: translate(60%, -30%) rotateZ(20deg);
  }
  60% {
    -webkit-transform-origin: 20% 40%;
            transform-origin: 20% 40%;
    -webkit-transform: translate(30%, -10%) rotateZ(20deg);
            transform: translate(30%, -10%) rotateZ(20deg);
  }
  70% {
    -webkit-transform-origin: 20% 40%;
            transform-origin: 20% 40%;
    -webkit-transform: translate(70%, 10%) rotateZ(-20deg);
            transform: translate(70%, 10%) rotateZ(-20deg);
  }
  80% {
    -webkit-transform-origin: 20% 40%;
            transform-origin: 20% 40%;
    -webkit-transform: translate(50%, 10%) rotateZ(-15deg);
            transform: translate(50%, 10%) rotateZ(-15deg);
  }
  90% {
    -webkit-transform-origin: 20% 40%;
            transform-origin: 20% 40%;
    -webkit-transform: translate(0%, 10%) rotateZ(0deg);
            transform: translate(0%, 10%) rotateZ(0deg);
  }
}
@-webkit-keyframes foot_back {
  0% { -webkit-transform: translateX(0); transform: translateX(0);}
  14% {
    -webkit-transform-origin: 20% 40%;
            transform-origin: 20% 40%;
    -webkit-transform: translate(-120%, -40%) rotateZ(0deg);
            transform: translate(-120%, -40%) rotateZ(0deg);
  }
  21% {
    -webkit-transform-origin: 20% 40%;
            transform-origin: 20% 40%;
    -webkit-transform: translate(-170%, -120%) rotateZ(0deg);
            transform: translate(-170%, -120%) rotateZ(0deg);
  }
  28% {
    -webkit-transform-origin: 20% 40%;
            transform-origin: 20% 40%;
    -webkit-transform: translate(-220%, -200%) rotateZ(50deg);
            transform: translate(-220%, -200%) rotateZ(50deg);
  }
  35% {
    -webkit-transform-origin: 20% 40%;
            transform-origin: 20% 40%;
    -webkit-transform: translate(-180%, -150%) rotateZ(50deg);
            transform: translate(-180%, -150%) rotateZ(50deg);
  }
  42% {
    -webkit-transform-origin: 20% 40%;
            transform-origin: 20% 40%;
    -webkit-transform: translate(-20%, -20%) rotateZ(0deg);
            transform: translate(-20%, -20%) rotateZ(0deg);
  }
  49% {
    -webkit-transform-origin: 20% 40%;
            transform-origin: 20% 40%;
    -webkit-transform: translate(10%, -80%) rotateZ(0deg);
            transform: translate(10%, -80%) rotateZ(0deg);
  }
  60% {
    -webkit-transform-origin: 20% 40%;
            transform-origin: 20% 40%;
    -webkit-transform: translate(-20%, -20%) rotateZ(0deg);
            transform: translate(-20%, -20%) rotateZ(0deg);
  }
  70% {
    -webkit-transform-origin: 20% 40%;
            transform-origin: 20% 40%;
    -webkit-transform: translate(90%, -20%) rotateZ(0deg);
            transform: translate(90%, -20%) rotateZ(0deg);
  }
  80% {
    -webkit-transform-origin: 20% 40%;
            transform-origin: 20% 40%;
    -webkit-transform: translate(90%, 0%) rotateZ(-90deg);
            transform: translate(90%, 0%) rotateZ(-90deg);
  }
  90% {
    -webkit-transform-origin: 20% 40%;
            transform-origin: 20% 40%;
    -webkit-transform: translate(-20%, 10%) rotateZ(-10deg);
            transform: translate(-20%, 10%) rotateZ(-10deg);
  }
}
@keyframes foot_back {
  0% { -webkit-transform: translateX(0); transform: translateX(0);}
  14% {
    -webkit-transform-origin: 20% 40%;
            transform-origin: 20% 40%;
    -webkit-transform: translate(-120%, -40%) rotateZ(0deg);
            transform: translate(-120%, -40%) rotateZ(0deg);
  }
  21% {
    -webkit-transform-origin: 20% 40%;
            transform-origin: 20% 40%;
    -webkit-transform: translate(-170%, -120%) rotateZ(0deg);
            transform: translate(-170%, -120%) rotateZ(0deg);
  }
  28% {
    -webkit-transform-origin: 20% 40%;
            transform-origin: 20% 40%;
    -webkit-transform: translate(-220%, -200%) rotateZ(50deg);
            transform: translate(-220%, -200%) rotateZ(50deg);
  }
  35% {
    -webkit-transform-origin: 20% 40%;
            transform-origin: 20% 40%;
    -webkit-transform: translate(-180%, -150%) rotateZ(50deg);
            transform: translate(-180%, -150%) rotateZ(50deg);
  }
  42% {
    -webkit-transform-origin: 20% 40%;
            transform-origin: 20% 40%;
    -webkit-transform: translate(-20%, -20%) rotateZ(0deg);
            transform: translate(-20%, -20%) rotateZ(0deg);
  }
  49% {
    -webkit-transform-origin: 20% 40%;
            transform-origin: 20% 40%;
    -webkit-transform: translate(10%, -80%) rotateZ(0deg);
            transform: translate(10%, -80%) rotateZ(0deg);
  }
  60% {
    -webkit-transform-origin: 20% 40%;
            transform-origin: 20% 40%;
    -webkit-transform: translate(-20%, -20%) rotateZ(0deg);
            transform: translate(-20%, -20%) rotateZ(0deg);
  }
  70% {
    -webkit-transform-origin: 20% 40%;
            transform-origin: 20% 40%;
    -webkit-transform: translate(90%, -20%) rotateZ(0deg);
            transform: translate(90%, -20%) rotateZ(0deg);
  }
  80% {
    -webkit-transform-origin: 20% 40%;
            transform-origin: 20% 40%;
    -webkit-transform: translate(90%, 0%) rotateZ(-90deg);
            transform: translate(90%, 0%) rotateZ(-90deg);
  }
  90% {
    -webkit-transform-origin: 20% 40%;
            transform-origin: 20% 40%;
    -webkit-transform: translate(-20%, 10%) rotateZ(-10deg);
            transform: translate(-20%, 10%) rotateZ(-10deg);
  }
}


@-webkit-keyframes leg_front_top {
  0% { -webkit-transform: translateX(0); transform: translateX(0);}
  7% {
    -webkit-transform-origin: 20% 40%;
            transform-origin: 20% 40%;
    -webkit-transform: translate(10%, 0%) rotateZ(-5deg);
            transform: translate(10%, 0%) rotateZ(-5deg);
  }
  14% {
    -webkit-transform-origin: 20% 40%;
            transform-origin: 20% 40%;
    -webkit-transform: translate(10%, 0%) rotateZ(-10deg);
            transform: translate(10%, 0%) rotateZ(-10deg);
  }
  21% {
    -webkit-transform-origin: 20% 40%;
            transform-origin: 20% 40%;
    -webkit-transform: translate(10%, 0%) rotateZ(-10deg);
            transform: translate(10%, 0%) rotateZ(-10deg);
  }
  35% {
    -webkit-transform-origin: 20% 40%;
            transform-origin: 20% 40%;
    -webkit-transform: translate(10%, 0%) rotateZ(-10deg);
            transform: translate(10%, 0%) rotateZ(-10deg);
  }
  42% {
    -webkit-transform-origin: 20% 40%;
            transform-origin: 20% 40%;
    -webkit-transform: translate(10%, 0%) rotateZ(10deg);
            transform: translate(10%, 0%) rotateZ(10deg);
  }
  49% {
    -webkit-transform-origin: 20% 40%;
            transform-origin: 20% 40%;
    -webkit-transform: translate(10%, 0%) rotateZ(10deg);
            transform: translate(10%, 0%) rotateZ(10deg);
  }
  60% {
    -webkit-transform-origin: 20% 40%;
            transform-origin: 20% 40%;
    -webkit-transform: translate(-10%, 0%) rotateZ(30deg);
            transform: translate(-10%, 0%) rotateZ(30deg);
  }
  70% {
    -webkit-transform-origin: 20% 40%;
            transform-origin: 20% 40%;
    -webkit-transform: translate(-10%, 0%) rotateZ(30deg);
            transform: translate(-10%, 0%) rotateZ(30deg);
  }
  80% {
    -webkit-transform-origin: 20% 40%;
            transform-origin: 20% 40%;
    -webkit-transform: translate(-10%, 0%) rotateZ(10deg);
            transform: translate(-10%, 0%) rotateZ(10deg);
  }
  90% {
    -webkit-transform-origin: 20% 40%;
            transform-origin: 20% 40%;
    -webkit-transform: translate(0%, 0%) rotateZ(0deg);
            transform: translate(0%, 0%) rotateZ(0deg);
  }
}


@keyframes leg_front_top {
  0% { -webkit-transform: translateX(0); transform: translateX(0);}
  7% {
    -webkit-transform-origin: 20% 40%;
            transform-origin: 20% 40%;
    -webkit-transform: translate(10%, 0%) rotateZ(-5deg);
            transform: translate(10%, 0%) rotateZ(-5deg);
  }
  14% {
    -webkit-transform-origin: 20% 40%;
            transform-origin: 20% 40%;
    -webkit-transform: translate(10%, 0%) rotateZ(-10deg);
            transform: translate(10%, 0%) rotateZ(-10deg);
  }
  21% {
    -webkit-transform-origin: 20% 40%;
            transform-origin: 20% 40%;
    -webkit-transform: translate(10%, 0%) rotateZ(-10deg);
            transform: translate(10%, 0%) rotateZ(-10deg);
  }
  35% {
    -webkit-transform-origin: 20% 40%;
            transform-origin: 20% 40%;
    -webkit-transform: translate(10%, 0%) rotateZ(-10deg);
            transform: translate(10%, 0%) rotateZ(-10deg);
  }
  42% {
    -webkit-transform-origin: 20% 40%;
            transform-origin: 20% 40%;
    -webkit-transform: translate(10%, 0%) rotateZ(10deg);
            transform: translate(10%, 0%) rotateZ(10deg);
  }
  49% {
    -webkit-transform-origin: 20% 40%;
            transform-origin: 20% 40%;
    -webkit-transform: translate(10%, 0%) rotateZ(10deg);
            transform: translate(10%, 0%) rotateZ(10deg);
  }
  60% {
    -webkit-transform-origin: 20% 40%;
            transform-origin: 20% 40%;
    -webkit-transform: translate(-10%, 0%) rotateZ(30deg);
            transform: translate(-10%, 0%) rotateZ(30deg);
  }
  70% {
    -webkit-transform-origin: 20% 40%;
            transform-origin: 20% 40%;
    -webkit-transform: translate(-10%, 0%) rotateZ(30deg);
            transform: translate(-10%, 0%) rotateZ(30deg);
  }
  80% {
    -webkit-transform-origin: 20% 40%;
            transform-origin: 20% 40%;
    -webkit-transform: translate(-10%, 0%) rotateZ(10deg);
            transform: translate(-10%, 0%) rotateZ(10deg);
  }
  90% {
    -webkit-transform-origin: 20% 40%;
            transform-origin: 20% 40%;
    -webkit-transform: translate(0%, 0%) rotateZ(0deg);
            transform: translate(0%, 0%) rotateZ(0deg);
  }
}
@-webkit-keyframes leg_front_bot {
  0% { -webkit-transform: translateX(0); transform: translateX(0);}
  7% {
    -webkit-transform-origin: 20% 40%;
            transform-origin: 20% 40%;
    -webkit-transform: translate(30%, 30%) rotateZ(-20deg);
            transform: translate(30%, 30%) rotateZ(-20deg);
  }
  14% {
    -webkit-transform-origin: 20% 40%;
            transform-origin: 20% 40%;
    -webkit-transform: translate(50%, 30%) rotateZ(-30deg);
            transform: translate(50%, 30%) rotateZ(-30deg);
  }
  21% {
    -webkit-transform-origin: 20% 40%;
            transform-origin: 20% 40%;
    -webkit-transform: translate(50%, 20%) rotateZ(-30deg);
            transform: translate(50%, 20%) rotateZ(-30deg);
  }
  28% {
    -webkit-transform-origin: 20% 40%;
            transform-origin: 20% 40%;
    -webkit-transform: translate(70%, 20%) rotateZ(-40deg);
            transform: translate(70%, 20%) rotateZ(-40deg);
  }
  42% {
    -webkit-transform-origin: 20% 40%;
            transform-origin: 20% 40%;
    -webkit-transform: translate(30%, 20%) rotateZ(-30deg);
            transform: translate(30%, 20%) rotateZ(-30deg);
  }
  49% {
    -webkit-transform-origin: 20% 40%;
            transform-origin: 20% 40%;
    -webkit-transform: translate(20%, 20%) rotateZ(-30deg);
            transform: translate(20%, 20%) rotateZ(-30deg);
  }
  60% {
    -webkit-transform-origin: 20% 40%;
            transform-origin: 20% 40%;
    -webkit-transform: translate(-55%, 10%) rotateZ(0deg);
            transform: translate(-55%, 10%) rotateZ(0deg);
  }
  70% {
    -webkit-transform-origin: 20% 40%;
            transform-origin: 20% 40%;
    -webkit-transform: translate(-55%, 10%) rotateZ(0deg);
            transform: translate(-55%, 10%) rotateZ(0deg);
  }
  80% {
    -webkit-transform-origin: 20% 40%;
            transform-origin: 20% 40%;
    -webkit-transform: translate(-25%, 10%) rotateZ(0deg);
            transform: translate(-25%, 10%) rotateZ(0deg);
  }
  90% {
    -webkit-transform-origin: 20% 40%;
            transform-origin: 20% 40%;
    -webkit-transform: translate(0%, 0%) rotateZ(0deg);
            transform: translate(0%, 0%) rotateZ(0deg);
  }
}
@keyframes leg_front_bot {
  0% { -webkit-transform: translateX(0); transform: translateX(0);}
  7% {
    -webkit-transform-origin: 20% 40%;
            transform-origin: 20% 40%;
    -webkit-transform: translate(30%, 30%) rotateZ(-20deg);
            transform: translate(30%, 30%) rotateZ(-20deg);
  }
  14% {
    -webkit-transform-origin: 20% 40%;
            transform-origin: 20% 40%;
    -webkit-transform: translate(50%, 30%) rotateZ(-30deg);
            transform: translate(50%, 30%) rotateZ(-30deg);
  }
  21% {
    -webkit-transform-origin: 20% 40%;
            transform-origin: 20% 40%;
    -webkit-transform: translate(50%, 20%) rotateZ(-30deg);
            transform: translate(50%, 20%) rotateZ(-30deg);
  }
  28% {
    -webkit-transform-origin: 20% 40%;
            transform-origin: 20% 40%;
    -webkit-transform: translate(70%, 20%) rotateZ(-40deg);
            transform: translate(70%, 20%) rotateZ(-40deg);
  }
  42% {
    -webkit-transform-origin: 20% 40%;
            transform-origin: 20% 40%;
    -webkit-transform: translate(30%, 20%) rotateZ(-30deg);
            transform: translate(30%, 20%) rotateZ(-30deg);
  }
  49% {
    -webkit-transform-origin: 20% 40%;
            transform-origin: 20% 40%;
    -webkit-transform: translate(20%, 20%) rotateZ(-30deg);
            transform: translate(20%, 20%) rotateZ(-30deg);
  }
  60% {
    -webkit-transform-origin: 20% 40%;
            transform-origin: 20% 40%;
    -webkit-transform: translate(-55%, 10%) rotateZ(0deg);
            transform: translate(-55%, 10%) rotateZ(0deg);
  }
  70% {
    -webkit-transform-origin: 20% 40%;
            transform-origin: 20% 40%;
    -webkit-transform: translate(-55%, 10%) rotateZ(0deg);
            transform: translate(-55%, 10%) rotateZ(0deg);
  }
  80% {
    -webkit-transform-origin: 20% 40%;
            transform-origin: 20% 40%;
    -webkit-transform: translate(-25%, 10%) rotateZ(0deg);
            transform: translate(-25%, 10%) rotateZ(0deg);
  }
  90% {
    -webkit-transform-origin: 20% 40%;
            transform-origin: 20% 40%;
    -webkit-transform: translate(0%, 0%) rotateZ(0deg);
            transform: translate(0%, 0%) rotateZ(0deg);
  }
}
@-webkit-keyframes foot_front {
  0% { -webkit-transform: translateX(0); transform: translateX(0);}
  7% {
    -webkit-transform-origin: 20% 40%;
            transform-origin: 20% 40%;
    -webkit-transform: translate(70%, 40%);
            transform: translate(70%, 40%);
  }
  14% {
    -webkit-transform-origin: 20% 40%;
            transform-origin: 20% 40%;
    -webkit-transform: translate(90%, 40%);
            transform: translate(90%, 40%);
  }
  21% {
    -webkit-transform-origin: 20% 40%;
            transform-origin: 20% 40%;
    -webkit-transform: translate(100%, 20%);
            transform: translate(100%, 20%);
  }
  28% {
    -webkit-transform-origin: 20% 40%;
            transform-origin: 20% 40%;
    -webkit-transform: translate(130%, 20%);
            transform: translate(130%, 20%);
  }
  35% {
    -webkit-transform-origin: 20% 40%;
            transform-origin: 20% 40%;
    -webkit-transform: translate(140%, 20%)  rotateZ(-70deg);
            transform: translate(140%, 20%)  rotateZ(-70deg);
  }
  42% {
    -webkit-transform-origin: 20% 40%;
            transform-origin: 20% 40%;
    -webkit-transform: translate(80%, 20%)  rotateZ(0deg);
            transform: translate(80%, 20%)  rotateZ(0deg);
  }
  49% {
    -webkit-transform-origin: 20% 40%;
            transform-origin: 20% 40%;
    -webkit-transform: translate(80%, 20%)  rotateZ(0deg);
            transform: translate(80%, 20%)  rotateZ(0deg);
  }
  60% {
    -webkit-transform-origin: 20% 40%;
            transform-origin: 20% 40%;
    -webkit-transform: translate(-80%, 20%)  rotateZ(0deg);
            transform: translate(-80%, 20%)  rotateZ(0deg);
  }
  70% {
    -webkit-transform-origin: 20% 40%;
            transform-origin: 20% 40%;
    -webkit-transform: translate(-80%, 20%)  rotateZ(-20deg);
            transform: translate(-80%, 20%)  rotateZ(-20deg);
  }
  80% {
    -webkit-transform-origin: 20% 40%;
            transform-origin: 20% 40%;
    -webkit-transform: translate(-50%, 20%)  rotateZ(-20deg);
            transform: translate(-50%, 20%)  rotateZ(-20deg);
  }
  90% {
    -webkit-transform-origin: 20% 40%;
            transform-origin: 20% 40%;
    -webkit-transform: translate(-20%, 0%)  rotateZ(40deg);
            transform: translate(-20%, 0%)  rotateZ(40deg);
  }
}
@keyframes foot_front {
  0% { -webkit-transform: translateX(0); transform: translateX(0);}
  7% {
    -webkit-transform-origin: 20% 40%;
            transform-origin: 20% 40%;
    -webkit-transform: translate(70%, 40%);
            transform: translate(70%, 40%);
  }
  14% {
    -webkit-transform-origin: 20% 40%;
            transform-origin: 20% 40%;
    -webkit-transform: translate(90%, 40%);
            transform: translate(90%, 40%);
  }
  21% {
    -webkit-transform-origin: 20% 40%;
            transform-origin: 20% 40%;
    -webkit-transform: translate(100%, 20%);
            transform: translate(100%, 20%);
  }
  28% {
    -webkit-transform-origin: 20% 40%;
            transform-origin: 20% 40%;
    -webkit-transform: translate(130%, 20%);
            transform: translate(130%, 20%);
  }
  35% {
    -webkit-transform-origin: 20% 40%;
            transform-origin: 20% 40%;
    -webkit-transform: translate(140%, 20%)  rotateZ(-70deg);
            transform: translate(140%, 20%)  rotateZ(-70deg);
  }
  42% {
    -webkit-transform-origin: 20% 40%;
            transform-origin: 20% 40%;
    -webkit-transform: translate(80%, 20%)  rotateZ(0deg);
            transform: translate(80%, 20%)  rotateZ(0deg);
  }
  49% {
    -webkit-transform-origin: 20% 40%;
            transform-origin: 20% 40%;
    -webkit-transform: translate(80%, 20%)  rotateZ(0deg);
            transform: translate(80%, 20%)  rotateZ(0deg);
  }
  60% {
    -webkit-transform-origin: 20% 40%;
            transform-origin: 20% 40%;
    -webkit-transform: translate(-80%, 20%)  rotateZ(0deg);
            transform: translate(-80%, 20%)  rotateZ(0deg);
  }
  70% {
    -webkit-transform-origin: 20% 40%;
            transform-origin: 20% 40%;
    -webkit-transform: translate(-80%, 20%)  rotateZ(-20deg);
            transform: translate(-80%, 20%)  rotateZ(-20deg);
  }
  80% {
    -webkit-transform-origin: 20% 40%;
            transform-origin: 20% 40%;
    -webkit-transform: translate(-50%, 20%)  rotateZ(-20deg);
            transform: translate(-50%, 20%)  rotateZ(-20deg);
  }
  90% {
    -webkit-transform-origin: 20% 40%;
            transform-origin: 20% 40%;
    -webkit-transform: translate(-20%, 0%)  rotateZ(40deg);
            transform: translate(-20%, 0%)  rotateZ(40deg);
  }
}


@-webkit-keyframes arm_back_top {
  0% { -webkit-transform: translateX(0); transform: translateX(0);}
  42% {
    -webkit-transform-origin: 20% 40%;
            transform-origin: 20% 40%;
    -webkit-transform: translate(-60%, 0%)  rotateZ(0deg);
            transform: translate(-60%, 0%)  rotateZ(0deg);
  }
}


@keyframes arm_back_top {
  0% { -webkit-transform: translateX(0); transform: translateX(0);}
  42% {
    -webkit-transform-origin: 20% 40%;
            transform-origin: 20% 40%;
    -webkit-transform: translate(-60%, 0%)  rotateZ(0deg);
            transform: translate(-60%, 0%)  rotateZ(0deg);
  }
}
@-webkit-keyframes arm_back_bot {
  0% { -webkit-transform: translateX(0); transform: translateX(0);}
  42% {
    -webkit-transform-origin: 20% 40%;
            transform-origin: 20% 40%;
    -webkit-transform: translate(-120%, 0%)  rotateZ(-20deg);
            transform: translate(-120%, 0%)  rotateZ(-20deg);
  }
}
@keyframes arm_back_bot {
  0% { -webkit-transform: translateX(0); transform: translateX(0);}
  42% {
    -webkit-transform-origin: 20% 40%;
            transform-origin: 20% 40%;
    -webkit-transform: translate(-120%, 0%)  rotateZ(-20deg);
            transform: translate(-120%, 0%)  rotateZ(-20deg);
  }
}
@-webkit-keyframes arm_front_top {
  0% { -webkit-transform: translateX(0); transform: translateX(0);}
  45% {
    -webkit-transform-origin: 20% 40%;
            transform-origin: 20% 40%;
    -webkit-transform: translate(20%, 5%)  rotateZ(-20deg);
            transform: translate(20%, 5%)  rotateZ(-20deg);
  }
}
@keyframes arm_front_top {
  0% { -webkit-transform: translateX(0); transform: translateX(0);}
  45% {
    -webkit-transform-origin: 20% 40%;
            transform-origin: 20% 40%;
    -webkit-transform: translate(20%, 5%)  rotateZ(-20deg);
            transform: translate(20%, 5%)  rotateZ(-20deg);
  }
}
@-webkit-keyframes arm_front_bot {
  0% { -webkit-transform: translateX(0); transform: translateX(0);}
  45% {
    -webkit-transform-origin: 20% 40%;
            transform-origin: 20% 40%;
    -webkit-transform: translate(150%, 20%)  rotateZ(-50deg);
            transform: translate(150%, 20%)  rotateZ(-50deg);
  }
}
@keyframes arm_front_bot {
  0% { -webkit-transform: translateX(0); transform: translateX(0);}
  45% {
    -webkit-transform-origin: 20% 40%;
            transform-origin: 20% 40%;
    -webkit-transform: translate(150%, 20%)  rotateZ(-50deg);
            transform: translate(150%, 20%)  rotateZ(-50deg);
  }
}









#foot_x5F_front {
  -webkit-animation : foot_front 1.5s linear infinite;
          animation : foot_front 1.5s linear infinite;
}
#foot_x5F_back {
  -webkit-animation : foot_back 1.5s linear infinite;
          animation : foot_back 1.5s linear infinite;
}
#leg_x5F_back_x5F_top {
  -webkit-animation : leg_back_top 1.5s linear infinite;
          animation : leg_back_top 1.5s linear infinite;
}
#leg_x5F_back_x5F_bot{
  -webkit-animation : leg_back_bot 1.5s linear infinite;
          animation : leg_back_bot 1.5s linear infinite;
}
#leg_x5F_front_x5F_bot{
  -webkit-animation : leg_front_bot 1.5s linear infinite;
          animation : leg_front_bot 1.5s linear infinite;
}
#leg_x5F_front_x5F_top{
  -webkit-animation : leg_front_top 1.5s linear infinite;
          animation : leg_front_top 1.5s linear infinite;
}
#arm_x5F_back_x5F_top {
  -webkit-animation : arm_back_top 1.5s linear infinite;
          animation : arm_back_top 1.5s linear infinite;
}
#arm_x5F_back_x5F_bot {
  -webkit-animation : arm_back_bot 1.5s linear infinite;
          animation : arm_back_bot 1.5s linear infinite;
}
#arm_x5F_front_x5F_top {
  -webkit-animation : arm_front_top 1.5s linear infinite;
          animation : arm_front_top 1.5s linear infinite;
}
#arm_x5F_front_x5F_bot {
  -webkit-animation : arm_front_bot 1.5s linear infinite;
          animation : arm_front_bot 1.5s linear infinite;
}
</style>
<g id="_x30_0">
	<circle id="tail" class="st0" cx="38.7" cy="102.7" r="6.5"/>
	<path id="CAT_x5F_tail" class="st1" d="M37.4,105.2c0,0-12.5,0.6-8.8,18.2s-7.3,26.4-7.3,26.4s-7.6,4.8-1.4-2.7
		c6.1-7.6,7.4-11,6.2-22.7s-0.4-24.6,9.7-26.1S37.4,105.2,37.4,105.2z"/>
	<path id="arm_x5F_back_x5F_bot" class="st2" d="M66.7,84.9c0,0-0.4-8,5.5-2.5s5.4,24.1,5.4,24.1S76.3,109.6,66.7,84.9z"/>
	<path id="arm_x5F_back_x5F_top" class="st2" d="M57.4,48.5c5.7-2.1,8.3,6.9,10.2,12.2c0.3,0.8,3.8,15.5,4.6,17.7
		c1.2,3.3,2.1,10.1-0.5,9.4c-6.9-1.9-8-9.9-11.1-16C57.6,65.7,50.6,51,57.4,48.5z"/>
	<path id="foot_x5F_back" class="st3" d="M61.4,166.7c-2.7-0.6-5.6-0.9-8.4-1c-1.8-3.2-0.3,6.9-0.2,8.2c0.2,1.1,0,0.3,0,0.3
		c0.3,0.7,0.8,0.4,1.1,0.3c0.6-0.7-0.9,0.6,0.9,1.4c1.8,0.8,3.5,5,7,5.1c3.5,0.1,5.1,2.6,8.8-0.3C74.5,177.6,64.8,167.9,61.4,166.7z
		"/>
	<path id="leg_x5F_back_x5F_bot" class="st4" d="M53.2,135.3c0,0-2.6-0.3-5.5,29.8c0,0,5.2,11.4,16.3,4.4l-0.1-38.7
		C63.9,130.8,56.7,122.1,53.2,135.3z"/>
	<path id="leg_x5F_back_x5F_top" class="st4" d="M52.3,93.3c-1.1,9.3-1.8,14.4-1.7,24.5c0.2,10.1,0.3,9.4,0.4,18.1s13.6,8.7,13-2.6
		c-0.5-11.3,2.4-23.5,1.6-34.8C64.9,87.4,56.9,94.8,52.3,93.3z"/>
	<path id="CAT_x5F_leg_x5F_back_x5F_bot" class="st5" d="M54,136.6c-1.2,0.6-2.1,1.4-2.7,2.4v29c5.6,4.1,11.8,0,11.8,0
		s1.9-18.5,4-28.3C63.2,136.2,58.6,133.8,54,136.6z"/>
	<path id="CAT_x5F_leg_x5F_back_x5F_top" class="st5" d="M48,91.6c0,0.8,0,2.3,0,3.3l3.3,22v22.4c2.1,2.7,5.4,4.3,8.7,3.2
		c3-0.6,5,0.8,6.8-1.5c0.4-1.5,1.4-5.7,1.7-6.4c2.5-5.2,2.2-22.7,1.4-32.3c-0.3-3.8-1-8.2-1.7-12.3C62.4,86.7,52.8,86.8,48,91.6z"/>
	<path id="CAT_x5F_hip_x5F_back" class="st5" d="M70,103.3c0-0.3-0.1-0.6-0.1-0.9c-0.9-9.6-3.8-23.6-3.8-23.6L52,75.4l-6,6.4
		l3.5,23.4C55.8,107.1,65.1,107.7,70,103.3z"/>
	<path id="foot_x5F_front" class="st3" d="M31.1,162.1c2.4,4.6,4.1,9.2,8.5,12.7c1.4,1.1,5.3,1.1,6.8-0.8c1.5-1.9,3.6-1.7,2.8-5.6
		c-0.9-3.9-6.8-10.3-10.8-12.9C35.9,157.6,33.6,159.9,31.1,162.1z"/>
	<path id="leg_x5F_front_x5F_bot" class="st4" d="M52.7,131.3l-8.2-3.8c0,0-6.3,7.5-15,25.8l-2.6,7.8c0,0,1.9,3,6.1,2.5
		s9.5-4.6,9.5-4.6L52.7,131.3z"/>
	<path id="leg_x5F_front_x5F_top" class="st4" d="M34.7,94.4c0,0-0.6,7.1,0.4,19.6c0.4,4.8,4.4,9.1,6.1,13.4c2.7,6.9,3,9.9,3,9.9
		s10.8,2.6,8.5-11.3c-1.6-9.6,2-21.8-0.4-31.7C51.2,90,34.7,94.4,34.7,94.4z"/>
	<path id="CAT_x5F_leg_x5F_front_x5F_bot" class="st6" d="M56.4,115.4c-3.3,0.5-7.7,3.3-10.8,7c-2.2,3.8-5.4,8.6-7.5,12.2
		c-3.1,5.1-11.3,26-11.3,26s1,2.2,4.7,3.9s6.1,1,6.1,1c0.9-2.7,7.8-13.2,9.4-16.7c1.7-3.5,8.2-11.4,9.7-12.6c1-0.7,3-3.1,4.7-5.3
		C64.4,124.4,65.3,114.8,56.4,115.4z"/>
	<path id="CAT_x5F_leg_x5F_front_x5F_top" class="st6" d="M60.9,132.2c1-0.6,1.6-2,2.1-3.7c-0.1-2.1-0.2-4.1-0.5-5.3
		c-0.6-2.5-5.4-19.2-5-21.2c0-0.2,0.1-0.4,0.2-0.6c-0.7-6.6-7-12.2-13.5-11.5c-3.5,0.9-7.5,2.4-9.5,5.6c-0.1,2.3-0.1,8.3,1.8,13.9
		c2.4,7,6.9,13.4,7.9,16.6c0.1,0.4,0.2,0.9,0.4,1.4C49.6,132,56,135.1,60.9,132.2z"/>
	<path id="CAT_x5F_hip_x5F_front" class="st6" d="M61.6,79.9l-3.4-4.3c0,0-14.1-0.2-14.5-0.2S40.2,80,40.2,80l-5.4,11.9
		c0,0-0.4,1.3-0.9,3.4c3.1,7.4,13.1,10.2,21.6,8.7c1.4-1.9,5-5,6.1-8.5C62.8,91.5,61.6,79.9,61.6,79.9z"/>
	<path id="chest" class="st2" d="M43.6,38.8v6.7l-5.3,3.6c-1.8,3.5,14.9,11.2,19.9,10.5c3.2-0.4,3.9-11.6-1.6-13.5
		c-2.4-0.8-1.8-3.7-1.8-5.7C54.8,40.5,47,34.9,43.6,38.8z"/>
	<path id="top" class="st7" d="M34.8,95.7c0,0,7,3.8,16.2,3.8c9.3,0,14.4-3.8,14.4-3.8c-0.9-10.7,1.3-17.5,0.1-22.4
		c-1-4,3.7-9.5,1.7-12.6s-4.6-7.6-4.6-7.6c-2.8,6.6-3.1,7.7-3.1,7.7C55.6,55,44,55.2,44,55.2c0.6,6.2-3.2,11.7-5.1,13
		c-1.9,1.3-3.8,0.7-1.9,7.4C37.8,80.3,37.9,86.3,34.8,95.7z"/>
	<path id="arm_x5F_front_x5F_top" class="st2" d="M39,50.1c6.1,1.6,4.3,11.5,3.3,16.3s-5.5,13.3-7.2,17.3c-0.5,1.1-6.2,11-7.8,7.7
		c-1.4-2.9,1.3-18.8,1.5-20.1C29.8,65.4,31.8,48.3,39,50.1z"/>
	<path id="arm_x5F_front_x5F_bot" class="st2" d="M27.8,85.7c0,0,7-19.8,7.9-5.4c0.4,6.4-5.2,26.3-7,30.8c-1.2,2.9-1.7,0-1.7,0
		S24.3,90.7,27.8,85.7z"/>
	<path id="CAT_x5F_top" class="st8" d="M42.7,81.1c0,0,1,1,12,0.6s13.4-4.2,13.4-4.2s-0.2-9.9-0.3-11.3c-0.1-1.4,2.7-3.8,2.7-4.8
		s-2.3-6.9-6.9-11.3c-1.7-1.6-3.9-2.3-6.5-2.5c0.4,0.3,4.7,3.4,4.6,5.4c-0.1,2-9.8,6-13.6,6s-6-3.9-11.3-5.2c-4.7,2.4-7,4.3-8.1,8.5
		c-1,3.8,10.7,7.5,11.7,10.6C41.3,75.9,42.7,81.1,42.7,81.1z"/>
	<path id="neck" class="st9" d="M51.1,48.7c1.7,0.7,5.8,0.9,5.4-2c-0.2-1.2-0.3-1.5-0.9-2.5c-0.8-1.4-3.1-2.1-3.8-3.5
		c-0.3-0.6,0.7-0.9,1-0.3c0.4,0.9,1.2,1.8,1.9,2.7c0.2-0.2,0.5-0.3,0.7,0c0.1,0.1,0.1,0.1,0.2,0.2c-0.2-1.1-0.2-2.3-0.3-3.3
		c0,0-8.5-5.2-11.8-0.9c0.4,2.1,1.6,4.8,2.8,6.5C47.4,47.1,49.1,47.9,51.1,48.7z"/>
	<path id="hair_x5F_back" class="st10" d="M62.4,33.3c0,0-1.2,16.6,3.9,25.7c0,0-0.1,2.6-2.6,3s-0.9-11.7-7.2-16
		C56.5,46,55.8,29.9,62.4,33.3z"/>
	<path id="head" class="st2" d="M62.1,16.6c-5.8-7.6-17.5-7-22.8,0.1c-5.4,7.1,0.2,14.9,2.8,19.3s1.1,2.6,3.8,5.4
		c0.6,0.7,1.4,1.3,2.3,1.9c2.9,1.3,6.3,1.3,9.3,0c2.1-1.8,3.6-5.1,4.7-7.9c0.1-3.2,0.5-4.8,0.8-8.1C63.4,23.9,64.7,20.1,62.1,16.6z"
		/>
	<path id="hair_x5F_front" class="st0" d="M44.4,30.2c0,0-0.9-3.3-2.9-2.7c-2,0.6,0.1,3.9,0.5,5.3c0.4,1.4,0.8,3.1,1.9,2.2
		c0,0,0.9,1.4-0.3,3.8c0,0-0.7,5.8,3.1,9.8s5.1,12,5.2,14.6c0,0-0.4,2.2-2.5,2.3c-2,0.1-3-1-4.2,0c0,0-1-18.2-8.4-15.6
		c0,0-1.5-12.1-3.4-20.7c-1.9-8.6,4-12.1,4-12.1s-0.2-7.5,8.8-9s17.9,1.9,19.1,9.1c1.2,7.2,1.9,9.2,3.1,9.4c0,0-10.5,4.9-22.1-6.2
		C46.2,20.4,49.6,27.3,44.4,30.2z"/>
	<path id="CAT_x5F_hair" class="st1" d="M60.5,18c0,0-5.2,7.8-8.5,12c-3.3,4.3-6.9,10.3-6,15c1,4.8,5.1,11.9,4.4,18.8
		c-0.7,6.8-2.6,7.2-2.6,7.2S44.3,58.3,43,55s-3-4.3-3-4.3L32.7,57c0,0,1.8-5.4,2.5-12.9C35.8,36.6,35,23.6,38,17
		c3-6.5,7.2-6.6,9-6.5s1.8,0.1,1.8,0.1s1-1,4.3-1.2s10.5,2.9,11.6,7.2c1.2,4.3-1.2,9.7-1.2,9.7S63.9,20.5,60.5,18z"/>
	<polyline id="ear" class="st2" points="36.2,12.2 36.2,21.2 41.2,17.2 	"/>
	<line id="whisker_x5F_left_x5F_top" class="st11" x1="51.2" y1="34.2" x2="37.2" y2="33.2"/>
	<line id="whisker_x5F_left_x5F_mid" class="st12" x1="51.2" y1="35.1" x2="37.2" y2="36.2"/>
	<line id="whisker_x5F_left_x5F_bot" class="st12" x1="51" y1="35.9" x2="37.4" y2="39.4"/>
	<line id="whisker_x5F_right_x5F_bot" class="st12" x1="61" y1="35.3" x2="70.4" y2="38.8"/>
	<line id="whisker_x5F_right_x5F_mid" class="st12" x1="61.2" y1="34.6" x2="71" y2="36.6"/>
	<line id="whisker_x5F_right_x5F_top" class="st12" x1="61.5" y1="34" x2="71.5" y2="34.3"/>
	<polygon id="nose" class="st13" points="54.7,35.7 57.7,35.6 55.7,37.7 	"/>
</g>
<path id="ELEPHANT_x5F_arm_x5F_back_x5F_bot" class="st14" d="M61.9,72.5l8.7,18.7c0,0-0.8,1.4-1,3c-0.2,1.7,0.5,5.5,1.4,6
	c0.9,0.4,0.5-3.2,1.2-3.2c0.7,0,2.8,3.5,3.1,4.4c0.4,0.8-0.5,2.5,0.3,3c0.7,0.5,1.8-0.1,2.7-3.1c0.8-3.1,1-4.8,0.6-6.6
	c-0.4-1.8-4.1-6.7-4.1-6.7s-3-18.8-4.7-20.4"/>
<g id="ELEPHANT_x5F_arm_x5F_back_x5F_top">
	<path class="st15" d="M58.5,40.5c-1.5-1.6-4.9-0.1-5.9,1.8c-0.9,2,0.6,7.3,3.7,16.6S59.6,69,59.6,69l2.5,7.8c0,0,8.9-2.2,10.1-2.2
		c1.2-0.1-1-5.1-1-5.1s-5.4-16-7.4-21.3C61.8,42.7,58.5,40.5,58.5,40.5z"/>
	<path class="st16" d="M60.8,72.4l10.4-3c0,0,2,4,1.4,4.5c-0.7,0.6-10.5,2.9-10.5,2.9L60.8,72.4z"/>
</g>
<path id="ELEPHANT_x5F_leg_x5F_back_x5F_bot" class="st17" d="M59.4,171.7c0.6-0.6,1.5-1.3,2.2-2c-1-1.2-1.7-2-1.7-2
	s0.6-22.2,0.9-28c0.2-3.2,0.8-5.6,1.4-8.6c-1.9-2.4-5.3-4-7.9-2.5c-1.5,0.9-3.5,2-5,3.5c-0.2,1.6-0.5,3.3-0.5,5.3
	c0,5,1.5,19.1,2.2,24.5c0.2,1.6,0.1,2.7-0.1,3.6l0,0c-0.2,0.8-0.5,1.4-0.8,2C52.2,170.6,55.8,173.3,59.4,171.7z"/>
<path id="ELEPHANT_x5F_foot_x5F_back" class="st8" d="M73.7,177.1c-0.9,2-8.2,2.4-10.4,1.8c-2.2-0.6-7.4-3.8-9.7-4.6
	s-3.5-0.8-3.7-2.3c-0.4-2.2,0.7-3.4,0.5-5.8c1,0.6,1.6,2.5,3.8,2.4c2.4-0.1,2.2-1.6,2.8-1.9c0.6-0.3,2.8-0.8,2.8-0.8
	S74.6,175,73.7,177.1z"/>
<g id="ELEPHANT_x5F_leg_x5F_back_x5F_top">
	<path class="st17" d="M59.4,148.7c0.4-0.2,0.8-0.5,1.1-0.9c0.1-3.5,0.2-6.5,0.3-8.2c0.4-5.7,2.2-9,2.4-17.8c0-0.8,0.1-1.7,0.1-2.7
		c-5,1.7-10.5,1.1-15.2-1c0.3,2.6,0.7,4.8,1,6.2c1.2,4.9-0.5,7.9-0.5,12.9c0,1.4,0.1,3.5,0.3,5.9C51,147.3,54.5,150.6,59.4,148.7z"
		/>
	<path class="st18" d="M44.2,91.9c0.2,7.1,1.4,12,1.5,13.2c0.2,1.3,0.4,13.9,0.4,13.9s3.4,2.5,10.4,2.3c7.7-0.2,9-3.5,9-3.5
		l1.2-22.5c0,0-13.7-4.1-17.5-3.9C45.4,91.7,44.2,91.9,44.2,91.9z"/>
</g>
<path id="ELEPHANT_x5F_leg_x5F_front_x5F_bot" class="st14" d="M38.2,165.6c0.8-0.3,1.9-0.5,2.9-0.8c-0.4-1.5-0.6-2.5-0.6-2.5
	s10.5-19.6,13.3-24.7c1.6-2.8,3.2-4.7,5.1-7.1c-0.6-3-3-5.9-6-5.8c-1.7,0.1-4,0.2-6,0.9c-0.9,1.3-1.9,2.7-2.8,4.5
	c-2.2,4.5-7.2,17.8-9,22.9c-0.5,1.5-1.1,2.5-1.7,3.2l0,0c-0.5,0.6-1.1,1-1.6,1.4C32.3,161.4,34.3,165.4,38.2,165.6z"/>
<path id="ELEPHANT_x5F_foot_x5F_front" class="st8" d="M48.6,176.8c-1.7,1.4-8.4-1.5-10.1-3c-1.7-1.5-4.9-6.7-6.6-8.4
	c-1.7-1.7-2.8-2.3-2.3-3.7c0.6-2.1,2.1-2.7,3-5c0.6,1,0.3,3,2.3,3.8c2.2,1,2.7-0.4,3.4-0.4c0.7,0,2.9,0.5,2.9,0.5
	S50.3,175.3,48.6,176.8z"/>
<g id="ELEPHANT_x5F_leg_x5F_front_x5F_top">
	<path class="st14" d="M58,132.1c0.3-0.3,0.6-0.6,0.8-0.9c-0.7-1.9-1.2-3.5-1.5-4.5c-0.9-3.2,0.1-5.6-1.6-10.3
		c-0.2-0.4-0.3-0.9-0.5-1.5c-4.3,2.8-9.5,4.5-14.3,5.2c0.8,1.3,1.7,2.3,2.3,2.9c2.2,2.1,1.2,4.4,2.3,7c0.3,0.7,0.8,1.8,1.5,3
		C50,134.5,53.9,135,58,132.1z"/>
	<path class="st19" d="M27.6,97.3c2.8,6.5,5.8,10.6,6.3,11.7c0.7,1.1,5.6,12.7,5.6,12.7s4.1,1,10.5-1.8c7.1-3.1,7-6.6,7-6.6L49.7,92
		c0,0-14.2,1.3-17.7,3C28.6,96.7,27.6,97.3,27.6,97.3z"/>
</g>
<g id="ELEPHANT_x5F_top">
	<path class="st20" d="M64.3,59.1c-0.5-9.4-0.4-21.6-2.1-25.3c-0.8-1.9-2.4-3.7-4.4-4.7c-2.3-1.2-4.9-0.1-7.3,0.3
		c-2.3,0.4-4.6,1.4-6.7,2.3c-2.4,1-5,1.7-7.2,2.9c-2.2,1.1-4.3,2.4-6.4,3.6c-7,4.1-6.9,7.7-4.7,16.6S28,96.6,28,96.6
		c11.2,7.4,24.5,4.6,24.5,4.6s8.8-1.4,12.2-5.3C64.6,95.8,64.8,68.5,64.3,59.1z M54.5,64.9L54.5,64.9c-0.1-1.5-0.2-3.1-0.3-4.5
		C54.4,62,54.5,63.5,54.5,64.9z"/>
	<path class="st21" d="M49.7,36.9c0,0,2.1,7,2.3,13.5c0.3,6.5-2.8,52.2-2.8,52.2s-11.6,1.7-21.4-5.2l-1.7-29.5l-0.6-25.7
		c0,0,0.3-1.2,3.3-3.6c2.9-2.4,9.5-5.7,9.5-5.7l6.8,3.4L49.7,36.9z"/>
	<path class="st15" d="M39.7,31.4c0,0,3.4,2.9,6.7,4.2c3.3,1.2,3.3,1.2,3.3,1.2s-1.4,5.3-1.4,6.2s-7.9-3.9-9.5-5.9
		c-1.5-2-1-3.5-1-3.5l1.2-3.3l0.8-0.8L39.7,31.4z"/>
	<path class="st21" d="M54.2,33.8c1.5,3.1,3.8,9.3,4.4,13.9c0.6,4.6,2.8,34.9,3.1,39.2s0.6,11.6,0.6,11.6l3.2-2.4
		c0,0-0.8-42-1.7-52.7c-0.9-10.7-2.4-14-8-14.9c0,0-0.8,2.2-2.3,3.1L54.2,33.8z"/>
	<path class="st15" d="M53.1,31.9c0,0,0.8,1.2,1.1,1.9c0.3,0.8,2.5,3.9,2.5,3.9s0.3-3.3-0.3-4.6s-1.9-2.4-1.9-2.4
		S54.1,31.4,53.1,31.9z"/>
</g>
<path id="ELEPHANT_x5F_arm_x5F_front_x5F_bot" class="st14" d="M30,73.6l-7.9,18.9c0,0,1,1.5,1.4,3.2c0.4,1.7,0,5.7-0.9,6.1
	c-1,0.4-1-3.3-1.8-3.3c-0.8,0-2.8,3.5-3,4.4c-0.3,0.9,0.9,2.6,0.1,3.1c-0.8,0.5-2.2-0.1-3.5-3.3c-1.4-3.2-1.8-4.9-1.5-6.7
	c0.4-1.9,4-6.7,4-6.7s1.2-19.2,3.1-20.8"/>
<g id="ELEPHANT_x5F_arm_x5F_front_x5F_top">
	<path class="st15" d="M26.7,40.3c1.4-1.8,5.5-0.6,7.1,1.3c1.5,2,0.9,7.4-0.7,17c-1.7,9.7-1.6,10.5-1.6,10.5l-1.2,8.1
		c0,0-10.6-1.4-12-1.4c-1.4,0,0.1-5.3,0.1-5.3s2.7-16.6,3.9-22.2S26.7,40.3,26.7,40.3z"/>
	<path class="st16" d="M30.9,72.7l-12.6-2.1c0,0-1.5,4.2-0.6,4.7c0.8,0.5,12.6,1.9,12.6,1.9L30.9,72.7z"/>
</g>
<g id="ELEPHANT_x5F_head">
	<path class="st22" d="M50.3,18.6l2.5-1.1l6.4-7.5l15.2,6.2c0,0,5.7,5.8-0.4,18s-5.7,12.5-5.7,12.5s-3,3.1-4.6-3.6
		S50.3,18.6,50.3,18.6z"/>
	<path class="st23" d="M38.5,31.2c1,2.4-0.6,8.6,0.1,10.7c0.7,2.2,7,8,12.6,5.8c5.6-2.1,5.5-5.9,5-11.2
		C55.8,31.2,38.5,31.2,38.5,31.2z"/>
	<path class="st14" d="M59.3,11.3c0.1,0.2,0.2,0.3,0.3,0.5c0.8,1.3,1.4,2.8,1.5,4.3c0.2,1.6-0.2,3.1-0.1,4.6c0,1,0.8,2,1,4.3
		s-1.3,13.6-7.6,14.5s-10.5-2.8-12.2-4.3c-1.8-1.5-6-6.9-6-6.9s-3.8-6.3-4.6-9.9c-0.6-2.6-0.2-5.7,0.5-8.2c0.3-1.1,0.8-2.3,1.7-3.1
		C35,6,36.7,6,38.1,5.4c1-0.5,1.5-1.6,2.6-2.1c1.4-0.6,3.9-0.3,5.3,0C51.1,4.2,56.3,6.9,59.3,11.3z"/>
	<path class="st14" d="M43.3,14.4l-2.9,0.1L31,10.3l-12,12c0,0-3,7.7,8.3,16.2s11,9,11,9s4.3,1.5,2.9-5.2S43.3,14.4,43.3,14.4z"/>
	<path class="st24" d="M57.8,33c0,0,0.2-4.2,5.8-2c0,0-1.6,4,2.5,7.5c4,3.5-4.1,1.8-4.1,1.8S56.7,37.6,57.8,33z"/>
	<path class="st14" d="M59,26.6c0,0,1.9,30.5,2.8,32.1c0.9,1.5,3.9,33.2-2.1,37.3c-4.2,2.8-3.2-0.4-2.3-2.6c0.4-0.9,0.8-1.7,0.8-1.7
		s-2.7,3.9-0.8-4.2s-9.6-52.9-9.6-52.9l0.7-7.9H59V26.6z"/>
	<path class="st24" d="M48.1,34.4c0,0-0.2-4.2-6.1-2c0,0,1.7,4-2.6,7.5c-4.2,3.5,4.4,1.8,4.4,1.8S49.2,38.9,48.1,34.4z"/>
</g>
</svg>
