<?xml version="1.0" encoding="utf-8"?>
<!-- Generator: Adobe Illustrator 22.0.1, SVG Export Plug-In . SVG Version: 6.00 Build 0)  -->
<svg version="1.1" id="Layer_1" xmlns="http://www.w3.org/2000/svg" xmlns:xlink="http://www.w3.org/1999/xlink" x="0px" y="0px"
	 viewBox="0 0 85.5 196.8" style="enable-background:new 0 0 85.5 196.8;" height="250px"  width="250px" preserveAspectRatio="none" xml:space="preserve">
<style type="text/css">
	.st0{fill:#D68A69;}
	.st1{fill:#171D49;}
	.st2{fill:#333333;}
	.st3{fill:#48626B;}
	.st4{fill:#506A75;}
	.st5{fill:#FFFFFF;}
	.st6{fill:#3A4D57;}
	.st7{fill:#281406;}
	.st8{fill:#E29E4B;}
	.st9{fill:#493033;}
	.st10{fill:#966E53;}
	.st11{fill:#634246;}
	.st12{fill:#5B3B3E;}
	.st13{fill:#8C654B;}
	.st14{fill:#513A40;}
	.st15{fill:#E0A053;}
	.st16{fill:#F4BB76;}
	.st17{fill:#F2B361;}
	.st18{fill:#FA8B65;}
	.st19{fill:#A57951;}
	.st20{fill:#D68162;}
	.st21{fill:#9B6249;}
	.st22{fill:#A36955;}
	.st23{fill:#4A3A56;}
	.st24{opacity:0.58;fill:#513F5E;enable-background:new    ;}
	.st25{opacity:0.74;fill:#513F5E;enable-background:new    ;}
	.st26{opacity:0.42;fill:#513F5E;enable-background:new    ;}
	.st27{opacity:0.72;fill:#513F5E;enable-background:new    ;}
	.st28{fill:#513F5E;}
	@-webkit-keyframes leg_back_top {
	  0% {
	      -webkit-transform-origin: 100% 40%;
	              transform-origin: 100% 40%;
	      -webkit-transform: translate(10%, -10%) rotateZ(0deg);
	              transform: translate(10%, -10%) rotateZ(0deg);
	  }
	  15% {
	      -webkit-transform-origin: 100% 40%;
	              transform-origin: 100% 40%;
	      -webkit-transform: translate(20%, 10%) rotateZ(-0deg);
	              transform: translate(20%, 10%) rotateZ(-0deg);
	  }
	  30% {
	      -webkit-transform-origin: 100% 40%;
	              transform-origin: 100% 40%;
	      -webkit-transform: translate(10%, -10%) rotateZ(0deg);
	              transform: translate(10%, -10%) rotateZ(0deg);
	  }
	  45% {
	      -webkit-transform-origin: 100% 40%;
	              transform-origin: 100% 40%;
	      -webkit-transform: translate(10%, -10%) rotateZ(30deg);
	              transform: translate(10%, -10%) rotateZ(30deg);
	  }
	  60% {
	      -webkit-transform-origin: 100% 40%;
	              transform-origin: 100% 40%;
	      -webkit-transform: translate(10%, 30%) rotateZ(40deg);
	              transform: translate(10%, 30%) rotateZ(40deg);
	  }
	  70% {
	      -webkit-transform-origin: 100% 40%;
	              transform-origin: 100% 40%;
	      -webkit-transform: translate(-30%, 10%) rotateZ(50deg);
	              transform: translate(-30%, 10%) rotateZ(50deg);
	  }
	  80% {
	      -webkit-transform-origin: 20% 40%;
	              transform-origin: 20% 40%;
	      -webkit-transform: translate(-20%, 0%) rotateZ(30deg);
	              transform: translate(-20%, 0%) rotateZ(30deg);
	  }
	}

	@keyframes leg_back_top {
	  0% {
	      -webkit-transform-origin: 100% 40%;
	              transform-origin: 100% 40%;
	      -webkit-transform: translate(10%, -10%) rotateZ(0deg);
	              transform: translate(10%, -10%) rotateZ(0deg);
	  }
	  15% {
	      -webkit-transform-origin: 100% 40%;
	              transform-origin: 100% 40%;
	      -webkit-transform: translate(20%, 10%) rotateZ(-0deg);
	              transform: translate(20%, 10%) rotateZ(-0deg);
	  }
	  30% {
	      -webkit-transform-origin: 100% 40%;
	              transform-origin: 100% 40%;
	      -webkit-transform: translate(10%, -10%) rotateZ(0deg);
	              transform: translate(10%, -10%) rotateZ(0deg);
	  }
	  45% {
	      -webkit-transform-origin: 100% 40%;
	              transform-origin: 100% 40%;
	      -webkit-transform: translate(10%, -10%) rotateZ(30deg);
	              transform: translate(10%, -10%) rotateZ(30deg);
	  }
	  60% {
	      -webkit-transform-origin: 100% 40%;
	              transform-origin: 100% 40%;
	      -webkit-transform: translate(10%, 30%) rotateZ(40deg);
	              transform: translate(10%, 30%) rotateZ(40deg);
	  }
	  70% {
	      -webkit-transform-origin: 100% 40%;
	              transform-origin: 100% 40%;
	      -webkit-transform: translate(-30%, 10%) rotateZ(50deg);
	              transform: translate(-30%, 10%) rotateZ(50deg);
	  }
	  80% {
	      -webkit-transform-origin: 20% 40%;
	              transform-origin: 20% 40%;
	      -webkit-transform: translate(-20%, 0%) rotateZ(30deg);
	              transform: translate(-20%, 0%) rotateZ(30deg);
	  }
	}

	@-webkit-keyframes leg_back_bot {
	    0% {
	        -webkit-transform-origin: 100% 40%;
	                transform-origin: 100% 40%;
	        -webkit-transform: translate(10%, -60%) rotateZ(-60deg);
	                transform: translate(10%, -60%) rotateZ(-60deg);
	    }
	    15% {
	        -webkit-transform-origin: 100% 40%;
	                transform-origin: 100% 40%;
	        -webkit-transform: translate(10%, -40%) rotateZ(-60deg);
	                transform: translate(10%, -40%) rotateZ(-60deg);
	    }
	    30% {
	        -webkit-transform-origin: 100% 40%;
	                transform-origin: 100% 40%;
	        -webkit-transform: translate(20%, 0%) rotateZ(-60deg);
	                transform: translate(20%, 0%) rotateZ(-60deg);
	    }
	    45% {
	        -webkit-transform-origin: 100% 40%;
	                transform-origin: 100% 40%;
	        -webkit-transform: translate(-15%, -50%) rotateZ(-60deg);
	                transform: translate(-15%, -50%) rotateZ(-60deg);
	    }
	    60% {
	        -webkit-transform-origin: 100% 40%;
	                transform-origin: 100% 40%;
	        -webkit-transform: translate(-20%, -20%) rotateZ(-50deg);
	                transform: translate(-20%, -20%) rotateZ(-50deg);
	    }
	    70% {
	        -webkit-transform-origin: 100% 40%;
	                transform-origin: 100% 40%;
	        -webkit-transform: translate(-60%, -40%) rotateZ(-30deg);
	                transform: translate(-60%, -40%) rotateZ(-30deg);
	    }
	    80% {
	        -webkit-transform-origin: 100% 40%;
	                transform-origin: 100% 40%;
	        -webkit-transform: translate(-50%, 0%) rotateZ(-20deg);
	                transform: translate(-50%, 0%) rotateZ(-20deg);
	    }
	}

	@keyframes leg_back_bot {
	    0% {
	        -webkit-transform-origin: 100% 40%;
	                transform-origin: 100% 40%;
	        -webkit-transform: translate(10%, -60%) rotateZ(-60deg);
	                transform: translate(10%, -60%) rotateZ(-60deg);
	    }
	    15% {
	        -webkit-transform-origin: 100% 40%;
	                transform-origin: 100% 40%;
	        -webkit-transform: translate(10%, -40%) rotateZ(-60deg);
	                transform: translate(10%, -40%) rotateZ(-60deg);
	    }
	    30% {
	        -webkit-transform-origin: 100% 40%;
	                transform-origin: 100% 40%;
	        -webkit-transform: translate(20%, 0%) rotateZ(-60deg);
	                transform: translate(20%, 0%) rotateZ(-60deg);
	    }
	    45% {
	        -webkit-transform-origin: 100% 40%;
	                transform-origin: 100% 40%;
	        -webkit-transform: translate(-15%, -50%) rotateZ(-60deg);
	                transform: translate(-15%, -50%) rotateZ(-60deg);
	    }
	    60% {
	        -webkit-transform-origin: 100% 40%;
	                transform-origin: 100% 40%;
	        -webkit-transform: translate(-20%, -20%) rotateZ(-50deg);
	                transform: translate(-20%, -20%) rotateZ(-50deg);
	    }
	    70% {
	        -webkit-transform-origin: 100% 40%;
	                transform-origin: 100% 40%;
	        -webkit-transform: translate(-60%, -40%) rotateZ(-30deg);
	                transform: translate(-60%, -40%) rotateZ(-30deg);
	    }
	    80% {
	        -webkit-transform-origin: 100% 40%;
	                transform-origin: 100% 40%;
	        -webkit-transform: translate(-50%, 0%) rotateZ(-20deg);
	                transform: translate(-50%, 0%) rotateZ(-20deg);
	    }
	}
	@-webkit-keyframes foot_back {
	  0% {
	      -webkit-transform-origin: 100% 40%;
	              transform-origin: 100% 40%;
	      -webkit-transform: translate(140%, 30%) rotateZ(-10deg);
	              transform: translate(140%, 30%) rotateZ(-10deg);
	  }
	  15% {
	      -webkit-transform-origin: 100% 40%;
	              transform-origin: 100% 40%;
	      -webkit-transform: translate(145%, 30%) rotateZ(-60deg);
	              transform: translate(145%, 30%) rotateZ(-60deg);
	  }
	  30% {
	      -webkit-transform-origin: 100% 40%;
	              transform-origin: 100% 40%;
	      -webkit-transform: translate(140%, 80%) rotateZ(-40deg);
	              transform: translate(140%, 80%) rotateZ(-40deg);
	  }
	  45% {
	      -webkit-transform-origin: 100% 40%;
	              transform-origin: 100% 40%;
	      -webkit-transform: translate(80%, 80%) rotateZ(-40deg);
	              transform: translate(80%, 80%) rotateZ(-40deg);
	  }
	  60% {
	      -webkit-transform-origin: 100% 40%;
	              transform-origin: 100% 40%;
	      -webkit-transform: translate(60%, 90%) rotateZ(-20deg);
	              transform: translate(60%, 90%) rotateZ(-20deg);
	  }
	  70% {
	      -webkit-transform-origin: 100% 40%;
	              transform-origin: 100% 40%;
	      -webkit-transform: translate(-150%, 100%) rotateZ(50deg);
	              transform: translate(-150%, 100%) rotateZ(50deg);
	  }
	  80% {
	      -webkit-transform-origin: 100% 40%;
	              transform-origin: 100% 40%;
	      -webkit-transform: translate(-130%, 80%) rotateZ(60deg);
	              transform: translate(-130%, 80%) rotateZ(60deg);
	  }
	}
	@keyframes foot_back {
	  0% {
	      -webkit-transform-origin: 100% 40%;
	              transform-origin: 100% 40%;
	      -webkit-transform: translate(140%, 30%) rotateZ(-10deg);
	              transform: translate(140%, 30%) rotateZ(-10deg);
	  }
	  15% {
	      -webkit-transform-origin: 100% 40%;
	              transform-origin: 100% 40%;
	      -webkit-transform: translate(145%, 30%) rotateZ(-60deg);
	              transform: translate(145%, 30%) rotateZ(-60deg);
	  }
	  30% {
	      -webkit-transform-origin: 100% 40%;
	              transform-origin: 100% 40%;
	      -webkit-transform: translate(140%, 80%) rotateZ(-40deg);
	              transform: translate(140%, 80%) rotateZ(-40deg);
	  }
	  45% {
	      -webkit-transform-origin: 100% 40%;
	              transform-origin: 100% 40%;
	      -webkit-transform: translate(80%, 80%) rotateZ(-40deg);
	              transform: translate(80%, 80%) rotateZ(-40deg);
	  }
	  60% {
	      -webkit-transform-origin: 100% 40%;
	              transform-origin: 100% 40%;
	      -webkit-transform: translate(60%, 90%) rotateZ(-20deg);
	              transform: translate(60%, 90%) rotateZ(-20deg);
	  }
	  70% {
	      -webkit-transform-origin: 100% 40%;
	              transform-origin: 100% 40%;
	      -webkit-transform: translate(-150%, 100%) rotateZ(50deg);
	              transform: translate(-150%, 100%) rotateZ(50deg);
	  }
	  80% {
	      -webkit-transform-origin: 100% 40%;
	              transform-origin: 100% 40%;
	      -webkit-transform: translate(-130%, 80%) rotateZ(60deg);
	              transform: translate(-130%, 80%) rotateZ(60deg);
	  }
	}


	@-webkit-keyframes leg_front_top {
	  0% {
	      -webkit-transform-origin: 100% 40%;
	              transform-origin: 100% 40%;
	      -webkit-transform: translate(0%, 0%) rotateZ(10deg);
	              transform: translate(0%, 0%) rotateZ(10deg);
	  }
	  15% {
	      -webkit-transform-origin: 100% 40%;
	              transform-origin: 100% 40%;
	      -webkit-transform: translate(-10%, 0%) rotateZ(0deg);
	              transform: translate(-10%, 0%) rotateZ(0deg);
	  }
	  30% {
	      -webkit-transform-origin: 100% 40%;
	              transform-origin: 100% 40%;
	      -webkit-transform: translate(20%, 0%) rotateZ(-10deg);
	              transform: translate(20%, 0%) rotateZ(-10deg);
	  }
	  45% {
	      -webkit-transform-origin: 100% 40%;
	              transform-origin: 100% 40%;
	      -webkit-transform: translate(20%, 0%) rotateZ(-20deg);
	              transform: translate(20%, 0%) rotateZ(-20deg);
	  }
	  60% {
	      -webkit-transform-origin: 100% 40%;
	              transform-origin: 100% 40%;
	      -webkit-transform: translate(-0%, -10%) rotateZ(-0deg);
	              transform: translate(-0%, -10%) rotateZ(-0deg);
	  }
	  70% {
	      -webkit-transform-origin: 100% 40%;
	              transform-origin: 100% 40%;
	      -webkit-transform: translate(10%, -10%) rotateZ(-0deg);
	              transform: translate(10%, -10%) rotateZ(-0deg);
	  }
	  80% {
	      -webkit-transform-origin: 100% 40%;
	              transform-origin: 100% 40%;
	      -webkit-transform: translate(10%, -10%) rotateZ(-10deg);
	              transform: translate(10%, -10%) rotateZ(-10deg);
	  }
	}


	@keyframes leg_front_top {
	  0% {
	      -webkit-transform-origin: 100% 40%;
	              transform-origin: 100% 40%;
	      -webkit-transform: translate(0%, 0%) rotateZ(10deg);
	              transform: translate(0%, 0%) rotateZ(10deg);
	  }
	  15% {
	      -webkit-transform-origin: 100% 40%;
	              transform-origin: 100% 40%;
	      -webkit-transform: translate(-10%, 0%) rotateZ(0deg);
	              transform: translate(-10%, 0%) rotateZ(0deg);
	  }
	  30% {
	      -webkit-transform-origin: 100% 40%;
	              transform-origin: 100% 40%;
	      -webkit-transform: translate(20%, 0%) rotateZ(-10deg);
	              transform: translate(20%, 0%) rotateZ(-10deg);
	  }
	  45% {
	      -webkit-transform-origin: 100% 40%;
	              transform-origin: 100% 40%;
	      -webkit-transform: translate(20%, 0%) rotateZ(-20deg);
	              transform: translate(20%, 0%) rotateZ(-20deg);
	  }
	  60% {
	      -webkit-transform-origin: 100% 40%;
	              transform-origin: 100% 40%;
	      -webkit-transform: translate(-0%, -10%) rotateZ(-0deg);
	              transform: translate(-0%, -10%) rotateZ(-0deg);
	  }
	  70% {
	      -webkit-transform-origin: 100% 40%;
	              transform-origin: 100% 40%;
	      -webkit-transform: translate(10%, -10%) rotateZ(-0deg);
	              transform: translate(10%, -10%) rotateZ(-0deg);
	  }
	  80% {
	      -webkit-transform-origin: 100% 40%;
	              transform-origin: 100% 40%;
	      -webkit-transform: translate(10%, -10%) rotateZ(-10deg);
	              transform: translate(10%, -10%) rotateZ(-10deg);
	  }
	}
	@-webkit-keyframes leg_front_bot {

	  0% {
	      -webkit-transform-origin: 100% 40%;
	              transform-origin: 100% 40%;
	      -webkit-transform: translate(-30%, 0%) rotateZ(10deg);
	              transform: translate(-30%, 0%) rotateZ(10deg);
	  }
	  15% {
	      -webkit-transform-origin: 100% 40%;
	              transform-origin: 100% 40%;
	      -webkit-transform: translate(-35%, 0%) rotateZ(10deg);
	              transform: translate(-35%, 0%) rotateZ(10deg);
	  }
	  30% {
	      -webkit-transform-origin: 100% 40%;
	              transform-origin: 100% 40%;
	      -webkit-transform: translate(-50%, 0%) rotateZ(40deg);
	              transform: translate(-50%, 0%) rotateZ(40deg);
	  }
	  45% {
	      -webkit-transform-origin: 100% 40%;
	              transform-origin: 100% 40%;
	      -webkit-transform: translate(-5%, 10%) rotateZ(60deg);
	              transform: translate(-5%, 10%) rotateZ(60deg);
	  }
	  60% {
	      -webkit-transform-origin: 100% 40%;
	              transform-origin: 100% 40%;
	      -webkit-transform: translate(20%, -10%) rotateZ(-10deg);
	              transform: translate(20%, -10%) rotateZ(-10deg);
	  }
	  70% {
	      -webkit-transform-origin: 100% 40%;
	              transform-origin: 100% 40%;
	      -webkit-transform: translate(20%, -10%) rotateZ(-0deg);
	              transform: translate(20%, -10%) rotateZ(-0deg);
	  }
	  80% {
	      -webkit-transform-origin: 100% 40%;
	              transform-origin: 100% 40%;
	      -webkit-transform: translate(40%, 0%) rotateZ(10deg);
	              transform: translate(40%, 0%) rotateZ(10deg);
	  }
	}
	@keyframes leg_front_bot {

	  0% {
	      -webkit-transform-origin: 100% 40%;
	              transform-origin: 100% 40%;
	      -webkit-transform: translate(-30%, 0%) rotateZ(10deg);
	              transform: translate(-30%, 0%) rotateZ(10deg);
	  }
	  15% {
	      -webkit-transform-origin: 100% 40%;
	              transform-origin: 100% 40%;
	      -webkit-transform: translate(-35%, 0%) rotateZ(10deg);
	              transform: translate(-35%, 0%) rotateZ(10deg);
	  }
	  30% {
	      -webkit-transform-origin: 100% 40%;
	              transform-origin: 100% 40%;
	      -webkit-transform: translate(-50%, 0%) rotateZ(40deg);
	              transform: translate(-50%, 0%) rotateZ(40deg);
	  }
	  45% {
	      -webkit-transform-origin: 100% 40%;
	              transform-origin: 100% 40%;
	      -webkit-transform: translate(-5%, 10%) rotateZ(60deg);
	              transform: translate(-5%, 10%) rotateZ(60deg);
	  }
	  60% {
	      -webkit-transform-origin: 100% 40%;
	              transform-origin: 100% 40%;
	      -webkit-transform: translate(20%, -10%) rotateZ(-10deg);
	              transform: translate(20%, -10%) rotateZ(-10deg);
	  }
	  70% {
	      -webkit-transform-origin: 100% 40%;
	              transform-origin: 100% 40%;
	      -webkit-transform: translate(20%, -10%) rotateZ(-0deg);
	              transform: translate(20%, -10%) rotateZ(-0deg);
	  }
	  80% {
	      -webkit-transform-origin: 100% 40%;
	              transform-origin: 100% 40%;
	      -webkit-transform: translate(40%, 0%) rotateZ(10deg);
	              transform: translate(40%, 0%) rotateZ(10deg);
	  }
	}

	@-webkit-keyframes foot_front {
	  0% {
	      -webkit-transform-origin: 100% 40%;
	              transform-origin: 100% 40%;
	      -webkit-transform: translate(-20%, 0%) rotateZ(10deg);
	              transform: translate(-20%, 0%) rotateZ(10deg);
	  }
	  15% {
	      -webkit-transform-origin: 100% 40%;
	              transform-origin: 100% 40%;
	      -webkit-transform: translate(-20%, -10%) rotateZ(10deg);
	              transform: translate(-20%, -10%) rotateZ(10deg);
	  }
	  30% {
	      -webkit-transform-origin: 100% 40%;
	              transform-origin: 100% 40%;
	      -webkit-transform: translate(-60%, -10%) rotateZ(40deg);
	              transform: translate(-60%, -10%) rotateZ(40deg);
	  }
	  45% {
	      -webkit-transform-origin: 100% 40%;
	              transform-origin: 100% 40%;
	      -webkit-transform: translate(-80%, -10%) rotateZ(60deg);
	              transform: translate(-80%, -10%) rotateZ(60deg);
	  }
	  60% {
	      -webkit-transform-origin: 100% 40%;
	              transform-origin: 100% 40%;
	      -webkit-transform: translate(20%, -10%) rotateZ(20deg);
	              transform: translate(20%, -10%) rotateZ(20deg);
	  }
	  70% {
	      -webkit-transform-origin: 100% 40%;
	              transform-origin: 100% 40%;
	      -webkit-transform: translate(30%, -10%) rotateZ(20deg);
	              transform: translate(30%, -10%) rotateZ(20deg);
	  }
	  80% {
	      -webkit-transform-origin: 100% 40%;
	              transform-origin: 100% 40%;
	      -webkit-transform: translate(10%, -10%) rotateZ(20deg);
	              transform: translate(10%, -10%) rotateZ(20deg);
	  }
	}

	@keyframes foot_front {
	  0% {
	      -webkit-transform-origin: 100% 40%;
	              transform-origin: 100% 40%;
	      -webkit-transform: translate(-20%, 0%) rotateZ(10deg);
	              transform: translate(-20%, 0%) rotateZ(10deg);
	  }
	  15% {
	      -webkit-transform-origin: 100% 40%;
	              transform-origin: 100% 40%;
	      -webkit-transform: translate(-20%, -10%) rotateZ(10deg);
	              transform: translate(-20%, -10%) rotateZ(10deg);
	  }
	  30% {
	      -webkit-transform-origin: 100% 40%;
	              transform-origin: 100% 40%;
	      -webkit-transform: translate(-60%, -10%) rotateZ(40deg);
	              transform: translate(-60%, -10%) rotateZ(40deg);
	  }
	  45% {
	      -webkit-transform-origin: 100% 40%;
	              transform-origin: 100% 40%;
	      -webkit-transform: translate(-80%, -10%) rotateZ(60deg);
	              transform: translate(-80%, -10%) rotateZ(60deg);
	  }
	  60% {
	      -webkit-transform-origin: 100% 40%;
	              transform-origin: 100% 40%;
	      -webkit-transform: translate(20%, -10%) rotateZ(20deg);
	              transform: translate(20%, -10%) rotateZ(20deg);
	  }
	  70% {
	      -webkit-transform-origin: 100% 40%;
	              transform-origin: 100% 40%;
	      -webkit-transform: translate(30%, -10%) rotateZ(20deg);
	              transform: translate(30%, -10%) rotateZ(20deg);
	  }
	  80% {
	      -webkit-transform-origin: 100% 40%;
	              transform-origin: 100% 40%;
	      -webkit-transform: translate(10%, -10%) rotateZ(20deg);
	              transform: translate(10%, -10%) rotateZ(20deg);
	  }
	}


	@-webkit-keyframes arm_back_top {
	  0% {
	      -webkit-transform-origin: 100% 40%;
	              transform-origin: 100% 40%;
	      -webkit-transform: translate(0%, 0%) rotateZ(0deg);
	              transform: translate(0%, 0%) rotateZ(0deg);
	  }
	  45% {
	      -webkit-transform-origin: 100% 40%;
	              transform-origin: 100% 40%;
	      -webkit-transform: translate(20%, 0%) rotateZ(-20deg);
	              transform: translate(20%, 0%) rotateZ(-20deg);
	  }
	}


	@keyframes arm_back_top {
	  0% {
	      -webkit-transform-origin: 100% 40%;
	              transform-origin: 100% 40%;
	      -webkit-transform: translate(0%, 0%) rotateZ(0deg);
	              transform: translate(0%, 0%) rotateZ(0deg);
	  }
	  45% {
	      -webkit-transform-origin: 100% 40%;
	              transform-origin: 100% 40%;
	      -webkit-transform: translate(20%, 0%) rotateZ(-20deg);
	              transform: translate(20%, 0%) rotateZ(-20deg);
	  }
	}

	@-webkit-keyframes arm_back_bot {
	  0% {
	      -webkit-transform-origin: 100% 40%;
	              transform-origin: 100% 40%;
	      -webkit-transform: translate(0%, 0%) rotateZ(0deg);
	              transform: translate(0%, 0%) rotateZ(0deg);
	  }
	    45% {
	        -webkit-transform-origin: 100% 40%;
	                transform-origin: 100% 40%;
	        -webkit-transform: translate(120%, 0%) rotateZ(-30deg);
	                transform: translate(120%, 0%) rotateZ(-30deg);
	    }
	}

	@keyframes arm_back_bot {
	  0% {
	      -webkit-transform-origin: 100% 40%;
	              transform-origin: 100% 40%;
	      -webkit-transform: translate(0%, 0%) rotateZ(0deg);
	              transform: translate(0%, 0%) rotateZ(0deg);
	  }
	    45% {
	        -webkit-transform-origin: 100% 40%;
	                transform-origin: 100% 40%;
	        -webkit-transform: translate(120%, 0%) rotateZ(-30deg);
	                transform: translate(120%, 0%) rotateZ(-30deg);
	    }
	}

	@-webkit-keyframes arm_front_top {
	  0% {
	      -webkit-transform-origin: 100% 40%;
	              transform-origin: 100% 40%;
	      -webkit-transform: translate(0%, 0%) rotateZ(-0deg);
	              transform: translate(0%, 0%) rotateZ(-0deg);
	  }
	  45% {
	      -webkit-transform-origin: 100% 40%;
	              transform-origin: 100% 40%;
	      -webkit-transform: translate(-15%, 5%) rotateZ(20deg);
	              transform: translate(-15%, 5%) rotateZ(20deg);
	  }
	}

	@keyframes arm_front_top {
	  0% {
	      -webkit-transform-origin: 100% 40%;
	              transform-origin: 100% 40%;
	      -webkit-transform: translate(0%, 0%) rotateZ(-0deg);
	              transform: translate(0%, 0%) rotateZ(-0deg);
	  }
	  45% {
	      -webkit-transform-origin: 100% 40%;
	              transform-origin: 100% 40%;
	      -webkit-transform: translate(-15%, 5%) rotateZ(20deg);
	              transform: translate(-15%, 5%) rotateZ(20deg);
	  }
	}

	@-webkit-keyframes arm_front_bot {
	  0% {
	      -webkit-transform-origin: 100% 40%;
	              transform-origin: 100% 40%;
	      -webkit-transform: translate(0%, 0%) rotateZ(0deg);
	              transform: translate(0%, 0%) rotateZ(0deg);
	  }
	  45% {
	      -webkit-transform-origin: 100% 40%;
	              transform-origin: 100% 40%;
	      -webkit-transform: translate(-70%, 30%) rotateZ(50deg);
	              transform: translate(-70%, 30%) rotateZ(50deg);
	  }
	}

	@keyframes arm_front_bot {
	  0% {
	      -webkit-transform-origin: 100% 40%;
	              transform-origin: 100% 40%;
	      -webkit-transform: translate(0%, 0%) rotateZ(0deg);
	              transform: translate(0%, 0%) rotateZ(0deg);
	  }
	  45% {
	      -webkit-transform-origin: 100% 40%;
	              transform-origin: 100% 40%;
	      -webkit-transform: translate(-70%, 30%) rotateZ(50deg);
	              transform: translate(-70%, 30%) rotateZ(50deg);
	  }
	}

	@-webkit-keyframes tail {
	  0% {
	      -webkit-transform-origin: 20% 40%;
	              transform-origin: 20% 40%;
	      -webkit-transform: translate(0%, 0%) rotateZ(0deg);
	              transform: translate(0%, 0%) rotateZ(0deg);
	  }
	  50% {
	      -webkit-transform-origin: 20% 40%;
	              transform-origin: 20% 40%;
	      -webkit-transform: translate(20%, 0%) rotateZ(0deg);
	              transform: translate(20%, 0%) rotateZ(0deg);
	  }
	}

	@keyframes tail {
	  0% {
	      -webkit-transform-origin: 20% 40%;
	              transform-origin: 20% 40%;
	      -webkit-transform: translate(0%, 0%) rotateZ(0deg);
	              transform: translate(0%, 0%) rotateZ(0deg);
	  }
	  50% {
	      -webkit-transform-origin: 20% 40%;
	              transform-origin: 20% 40%;
	      -webkit-transform: translate(20%, 0%) rotateZ(0deg);
	              transform: translate(20%, 0%) rotateZ(0deg);
	  }
	}









	#foot_x5F_front {
		transform-box: fill-box;
	  -webkit-animation : foot_front 1.5s linear infinite;
	          animation : foot_front 1.5s linear infinite;
	}
	#foot_x5F_back {
		transform-box: fill-box;
	  -webkit-animation : foot_back 1.5s linear infinite;
	          animation : foot_back 1.5s linear infinite;
	}
	#leg_x5F_back_x5F_top {
		transform-box: fill-box;
	  -webkit-animation : leg_back_top 1.5s linear infinite;
	          animation : leg_back_top 1.5s linear infinite;
	}
	#leg_x5F_back_x5F_bot{
		transform-box: fill-box;
	  -webkit-animation : leg_back_bot 1.5s linear infinite;
	          animation : leg_back_bot 1.5s linear infinite;
	}
	#leg_x5F_front_x5F_bot{
		transform-box: fill-box;
	  -webkit-animation : leg_front_bot 1.5s linear infinite;
	          animation : leg_front_bot 1.5s linear infinite;
	}
	#leg_x5F_front_x5F_top{
		transform-box: fill-box;
	  -webkit-animation : leg_front_top 1.5s linear infinite;
	          animation : leg_front_top 1.5s linear infinite;
	}
	#arm_x5F_back_x5F_top {
		transform-box: fill-box;
	  -webkit-animation : arm_back_top 1.5s linear infinite;
	          animation : arm_back_top 1.5s linear infinite;
	}
	#arm_x5F_back_x5F_bot {
		transform-box: fill-box;
	  -webkit-animation : arm_back_bot 1.5s linear infinite;
	          animation : arm_back_bot 1.5s linear infinite;
	}
	#arm_x5F_front_x5F_top {
		transform-box: fill-box;
	  -webkit-animation : arm_front_top 1.5s linear infinite;
	          animation : arm_front_top 1.5s linear infinite;
	}
	#arm_x5F_front_x5F_bot {
		transform-box: fill-box;
	  -webkit-animation : arm_front_bot 1.5s linear infinite;
	          animation : arm_front_bot 1.5s linear infinite;
	}
	#tail {
		transform-box: fill-box;
	  -webkit-animation : tail 1.5s linear infinite;
	          animation : tail 1.5s linear infinite;
	}
</style>
<g id="CAT_x2F_BUNNY">
	<polyline id="ear_x5F_front" class="st0" points="45.7,20.2 50.7,24.2 50.7,15.2 	"/>
	<polyline id="ear_x5F_back" class="st0" points="21.6,22.1 27.4,19.4 19.3,15.4 	"/>
	<path id="arm_x5F_back_x5F_top" class="st0" d="M13.1,78c0.8-3.7,1.5-6.6,1.6-8.2c0.7-6.2,2.5-20.2,8.8-18.5
		c5.3,1.4,3.1,9.6,2,14.8c-0.2,0.8-4.4,11.5-5.3,14.4c-0.1,0.2-0.2,0.5-0.3,1c-1.8,1.5-3.2,2.7-3.9,1.2C14,81.4,13.1,80.7,13.1,78z"
		/>
	<path id="arm_x5F_back_x5F_bot" class="st0" d="M13.1,78c1.1-1.6,2.7-2.5,4.6-1.2c0.7,1.4,2,2.9,2.2,4.7
		c-1.6,5.8-8.7,32.4-11.4,28.4C6.4,106.7,10.6,89.1,13.1,78z"/>
	<path id="foot_x5F_front" class="st1" d="M39.8,181.6c5.4-0.4,15.9-4,19-7.1c3.2-3.1,0.9-3.7,0.4-6.2s-3.9-4.3-6-3.9
		c-6.5,1.2-11.8,4.5-17,8.2C37.5,175.6,38.6,178.7,39.8,181.6z"/>
	<path id="foot_x5F_back" class="st1" d="M34.4,161.7c4.2-3.2,1.7-7.5,0.4-11.2c-1.3-3.6-6.2-2.6-8.3-3s-1.3,0.8-2.3,0.2
		c-0.4-0.3-0.3-0.8-1-0.5c0.3-0.3,0-0.2-0.4,0.3c-0.4,0.4-4.2,4.5-3.5,5.2c1.9,1.9,4.2,3.2,6.5,4.6C28.8,159.2,30.2,165,34.4,161.7z
		"/>
	<path id="leg_x5F_back_x5F_top" class="st2" d="M41.6,102.5l12.1,28.7c0,0,6.5,15.8-10.4,7l-17.2-27c0,0-6.4-9.9-2.7-13.5
		C27.1,94,41.6,102.5,41.6,102.5z"/>
	<path id="leg_x5F_back_x5F_bot" class="st2" d="M36.7,150.3L24,155.8c0,0-7.1-4.7-6.5-10.4s30.8-14.6,30.8-14.6s11.1,1.5,5.3,9.4
		C47.8,148.2,36.7,150.3,36.7,150.3z"/>
	<path id="CAT_x5F_leg_x5F_back_x5F_bot" class="st3" d="M21.8,157.3L54.4,140c0,0,1.8-8.3-0.7-8.6c-2.6-0.3-29,5.8-38.6,14.4
		C15.1,145.7,11.2,156.2,21.8,157.3z"/>
	<path id="CAT_x5F_leg_x5F_back_x5F_top" class="st3" d="M41,102.9c0,0-12.8-8.2-16.6-2c-3.8,6.3-0.3,14.1-0.3,14.1l19.6,23.4
		c0,0,12.6,8.5,11.2-4.4S41,102.9,41,102.9z"/>
	<path id="CAT_x5F_hip_x5F_back" class="st3" d="M19.8,80.1l4.7,10.6c0,0,1.8,1.8-1,3.2c-2.8,1.4-5.2,5.5-5.2,5.5s-2,8.8,0,11.2
		c0,0,5.8,9.7,16-0.5L35.2,88l-2.5-7.5L19.8,80.1z"/>
	<path id="leg_x5F_front_x5F_bot" class="st2" d="M40.8,133.8c4.8-2.1,8.7,0.6,10,4.8c-0.7,15-1.4,31.5-1.6,33.4
		c0,0-1.7,4.4-7.3,4.2s-6.7-4-6.7-4s-0.1-25,0.3-33C36.7,137.1,38.4,135.2,40.8,133.8z"/>
	<path id="leg_x5F_front_x5F_top" class="st2" d="M21.5,101.1c1.1-9.7,25-6.7,28.8-2.2c0,0,1.9,9.3,1.6,15.1
		c-0.1,2.5-0.6,13.1-1.1,24.6c1.1,6.7-2.6,8.1-7.4,10.2c-2.4,1.4-7.4-4.5-7.9-9.6c0-0.4,0-0.8,0.1-1.2
		C36.8,119.3,32.3,110.4,21.5,101.1z"/>
	<path id="CAT_x5F_leg_x5F_front_x5F_bot" class="st4" d="M35.3,151.6l0.3-13.4c0,0,10.5-16.7,15.3-0.6L49.3,171
		c0,0-8.4,10.7-14,0.2V151.6z"/>
	<path id="CAT_x5F_leg_x5F_front_x5F_top" class="st4" d="M39.1,94c0,0-13.8-3.1-10.1,12.8s7.3,34.3,7.3,34.3s7.6,17.5,13.5-1.6
		s-4-44.1-4-44.1L39.1,94z"/>
	<path id="CAT_x5F_hip_x5F_front" class="st4" d="M29.9,81.7c0,0,5,7.8,0,14.2c-5,6.3,1.5,15.5,1.5,15.5s7.4,8.3,19.5,0
		c0,0-3.3-25.2-8-28.9S29.9,81.7,29.9,81.7z"/>
	<path id="top" class="st5" d="M49.9,78.5c1.9-6.7,0-6.1-1.9-7.4s-5.7-6.8-5.1-13c0,0-11.6-0.2-15.5,5.6c0,0-0.3-1.1-3.1-7.7
		c0,0-1.9,16.3-2.9,20.3c-1.2,4.9,1,11.7,0.1,22.4c0,0,5.1,3.8,14.4,3.8c9.2,0,16.2-3.8,16.2-3.8C49,89.3,49.1,83.3,49.9,78.5z"/>
	<polygon id="CAT_x5F_chest" class="st0" points="38.8,63 39.4,70 44.2,70 50.6,47.6 38.8,49 	"/>
	<path id="arm_x5F_front_x5F_bot" class="st0" d="M51.8,78.8c2.7-0.9,3.7,2.1,6,4.2c0.8,5.1,16.8,20.6,10.6,20.6
		c-4.2,0-11.5-8.4-16.5-16.4C52.2,83.4,47,79.8,51.8,78.8z"/>
	<path id="arm_x5F_front_x5F_top" class="st0" d="M46.8,52.7c6-1.4,8.4,8.6,9,13c0.6,4.4,2.4,12.4,2,16.8c0,0.2,0,0.3,0,0.5
		c-1-3.8,2,5.3-0.6,6.2c-4.8,1-3.7-1.2-5.3-2c-0.2-0.3-0.4-0.6-0.6-0.9c-2.5-4.1-4.3-8-4.6-10.4C45.7,68.7,39.7,54.4,46.8,52.7z"/>
	<path id="CAT_x5F_top" class="st6" d="M16.3,63c0,0,16,5.9,38.8,0l1.6,10l-12.2,2l2.1,15l-26.7-1.2l0.7-12.7L13.3,75
		C13.4,75.1,13.9,63,16.3,63z"/>
	<path id="hair" class="st7" d="M20.7,60.2c-3.5-7.5-2.2-31.6-2.2-31.6c1.2-0.2,1.9-2.2,3.1-9.4s10-10.6,19-9.1s8.8,9,8.8,9
		s5.9,3.5,4,12.1C51.5,39.8,50,51.9,50,51.9c-7.4-2.6-8.4,15.6-8.4,15.6c-1.2-1.1,0.1,0.8-1.9,0.7s-4,1-4,1
		C31.5,75.1,25.3,70.1,20.7,60.2z"/>
	<path id="CAT_x5F_hair" class="st8" d="M20.4,64.3c-3.4-8.5-1.6-35.6-1.6-35.6c1.2-0.2,1.9-2.4,3.3-10.5
		c1.3-8.1,10.2-11.8,19.2-9.9s8.6,10.3,8.6,10.3s5.8,4,3.8,13.7c-2.1,9.7-3.8,23.3-3.8,23.3C42.6,52.5,41.2,73,41.2,73
		c-1.2-1.3,0.1,0.9-1.9,0.8s-4,1.1-4,1.1C30.9,81.3,24.8,75.5,20.4,64.3z"/>
	<circle id="tail" class="st7" cx="26.2" cy="104.7" r="6.5"/>
	<path id="CAT_x5F_tail" class="st8" d="M25.4,104.2c0,0-12.5,0.6-8.8,18.2s-7.3,26.4-7.3,26.4s-7.6,4.8-1.4-2.7
		c6.1-7.6,7.4-11,6.2-22.7s-0.4-24.6,9.7-26.1S25.4,104.2,25.4,104.2z"/>
</g>
<g id="ELEPHANT">
	<path id="ELEPHANT_x5F_foot_x5F_back" class="st6" d="M13.3,146.9c-1.3,0.2-4.1,2-6,4s0.3,4.9,2.3,6.3s4.8,2.2,9.8,3.9
		s9.7,0.2,9.5-2.1s-8.4-8-8.4-8S14.7,146.6,13.3,146.9z"/>
	<path id="ELEPHANT_x5F_leg_x5F_back_x5F_bot" class="st9" d="M41.5,124.9c-1.8,0.9-3.6,2-5.7,3.6c-6.1,4.5-23.1,18-23.1,20.2
		s1.9,4.4,4.1,4.3c2.2-0.1,6.6-3.5,14.6-8.8c6.9-4.5,13.8-7.4,17.8-9.4c0.2-0.4,0.4-0.8,0.4-1.3C49.5,127.9,45.5,125.3,41.5,124.9z"
		/>
	<g id="ELEPHANT_x5F_leg_x5F_back_x5F_top">
		<path class="st9" d="M47.7,133.5c-1.7-6.6-2.5-12.3-3.3-15.3c-0.2-1.1-0.7-3-1.4-5.4c-2.9,3.7-6.7,7.1-10.7,7.8
			c0.8,3.5,1.6,7.2,3.5,12.2c0.2,0.6,0.5,1.2,0.7,2C40.3,136,44.7,136.5,47.7,133.5z"/>
		<path class="st10" d="M35.5,88.7c-3.6,1.2-15,9.9-15,9.9l9.1,20.6c0,0,2.4,2.6,9.7,0.1c6.6-2.3,8.9-5.8,8.9-5.8
			s-4.3-11.8-4.6-13.1c-0.3-1.2-1-6.2-3.3-12.9C40.4,87.4,39.2,87.6,35.5,88.7z"/>
	</g>
	<path id="ELEPHANT_x5F_foot_x5F_front" class="st6" d="M38.9,172c-0.6,1.2-0.8,4.5-0.3,7.2s4.1,2.6,6.4,1.9c2.3-0.8,4.6-2.6,9-5.6
		s5.9-7.7,3.9-8.9s-11.4,2-11.4,2S39.4,170.6,38.9,172z"/>
	<path id="ELEPHANT_x5F_tail" class="st11" d="M36.3,104.7c-1.6,2.1-5.9,25.7-5.9,25.7s-2.8,6.7-1.9-1s4.6-27,4.6-27
		S37.9,102.6,36.3,104.7z"/>
	<path id="ELEPHANT_x5F_leg_x5F_front_x5F_bot" class="st12" d="M37.8,134.8c-0.3,2-0.5,4.2-0.5,6.9c0,7.8,0.8,30.5,2.5,31.8
		c1.8,1.3,4.7,1.2,5.9-0.7s1.1-7.7,1.6-17.7c0.5-8.5,2.2-16.1,3-20.7c-0.2-0.5-0.4-0.9-0.8-1.2C45,129.9,40.6,131.5,37.8,134.8z"/>
	<g id="ELEPHANT_x5F_leg_x5F_front_x5F_top">
		<path class="st12" d="M48.2,143.3c0.8-6.8,2-12.4,2.4-15.5c0.2-1.1,0.4-3.1,0.6-5.6c-4,2.4-8.8,4.3-12.8,3.5
			c-0.5,3.6-1.1,7.3-1.1,12.6c0,0.6,0,1.3,0,2.1C40.4,143,44.3,145,48.2,143.3z"/>
		<path class="st13" d="M50.6,97c-3.8-0.2-17.5,3.9-17.5,3.9l1.2,22.5c0,0,1.3,3.3,9,3.5c7,0.2,10.4-2.3,10.4-2.3s0.2-12.6,0.4-13.9
			c0.1-1.2,1.3-6.1,1.5-13.2C55.6,97.5,54.4,97.3,50.6,97z"/>
	</g>
	<g id="ELEPHANT_x5F_head">
		<path class="st14" d="M20.8,44.1c-1.6,6.7-4.6,3.6-4.6,3.6s0.4-0.3-5.7-12.5s-0.4-18-0.4-18L25.3,11l6.4,7.5l2.5,1.1
			C34.2,19.6,22.4,37.4,20.8,44.1z"/>
		<path class="st12" d="M43.3,43.3c-1.4,6.7,2.9,5.2,2.9,5.2s-0.3-0.5,11-9s8.3-16.2,8.3-16.2l-12-12l-9.4,4.2l-2.9-0.1
			C41.2,15.4,44.7,36.6,43.3,43.3z"/>
	</g>
	<path id="ELEPHANT_x5F_arm_x5F_back_x5F_bot" class="st12" d="M7.7,100.1c0.3,0.6,1.4,2.6,1.4,2.6c1,0.5,3.5-2.2,3.5-2.8
		c0.1-0.6-0.3-3-0.2-3.6s0.9-0.9,1.6-1.8c0.6-0.9-0.1-3-0.1-3c0.1-0.6,6.2-11.9,8.9-18c-3-1.6-6.1-2.3-9.3-2.9
		c-0.2,0.4-0.3,0.7-0.4,1l-4,18.1c0,0-2.3,5.2-2.5,5.9C6.5,96.4,7.3,99.4,7.7,100.1z"/>
	<g id="ELEPHANT_x5F_arm_x5F_back_x5F_top">
		<path class="st15" d="M18,47c-1.5,5.5-5.2,21.9-5.2,21.9s-1.6,5.2-0.4,5.2c1.2-0.1,10.2,1.1,10.2,1.1l1.7-8c0,0,0-0.8,2.2-10.4
			s3.1-15,2-16.9c-1.2-1.8-4.7-3-6-1.2C22.4,38.8,19.4,41.3,18,47z"/>
		<path class="st16" d="M22.5,75.2c0,0-9.9-1.2-10.7-1.8c-0.7-0.5,0.9-4.6,0.9-4.6l10.7,1.9L22.5,75.2z"/>
	</g>
	<g id="ELEPHANT_x5F_top">
		<path class="st17" d="M19.8,96.9c3.4,3.9,12.2,5.3,12.2,5.3s13.3,2.8,24.5-4.6c0,0,0.3-33,2.5-41.9s2.3-12.5-4.7-16.6
			c-2.1-1.2-4.2-2.5-6.4-3.6c-2.2-1.2-3.2,1.5-12.8-1.8c-6.8,3.3-1.1,1.7-11.6,3.9c-1.7,3.7-2.8,13.1-3.3,22.5S19.9,96.8,19.8,96.9z
			 M30.3,61.4c-0.1,1.4-0.2,3-0.3,4.5l0,0C30,64.5,30.1,63,30.3,61.4z"/>
	</g>
	<path id="ELEPHANT_x5F_arm_x5F_front_x5F_bot" class="st12" d="M71,99.7c-0.2,0.7-1,2.8-1,2.8c-0.9,0.7-3.3-1.7-3.4-2.3
		c-0.2-0.6-0.1-2.9-0.2-3.5s-0.9-0.8-1.6-1.6c-0.7-0.8-0.3-3.1-0.3-3.1c-0.1-0.6-6.8-11.1-9.8-16.8c2.4-1.9,5.2-2.9,7.9-3.9
		c0.1,0.4,0.3,0.6,0.4,1l5.5,17.5c0,0,2.7,4.9,2.9,5.6C71.6,96,71.3,99,71,99.7z"/>
	<g id="ELEPHANT_x5F_arm_x5F_front_x5F_top">
		<path class="st15" d="M62.7,50.2c1,5.6,3.1,22.3,3.1,22.3s1.3,5.3-0.1,5.3c-1.3-0.1-12,1-12,1l-0.9-8.2c0,0,0.2-0.8-1.2-10.5
			c-1.3-9.6-1.7-15.1-0.1-17c1.6-1.8,5.8-2.8,7.1-1C58.5,42,61.7,44.6,62.7,50.2z"/>
		<path class="st16" d="M53.6,78.8c0,0,11.8-1,12.6-1.5c0.9-0.5-0.4-4.7-0.4-4.7l-12.7,1.6L53.6,78.8z"/>
	</g>
	<path id="ELEPHANT_x5F_neck" class="st12" d="M25.5,7c1.5-1.3,4.2-3.4,6.2-3.8c1.6-0.3,2.8,0.4,4.3,0.2C38,3,40,1.8,42,2
		c1.5,0.1,2.8,1,3.8,1.8c2.3,2,4.7,4.7,5.5,7.7c1.2,4.1,0.6,13,0.6,13s-1.6,8.3-2.8,11.1c-1.1,2.7-3.7,9.3-11.6,12.9
		S21.1,42,19.9,39.6s-0.8-4-1.4-5c-0.8-1.6-2.2-2.7-2.9-4.5c-0.8-1.6-1-3.5-0.8-5.3c0-0.3,0.1-0.4,0-0.7C15.7,17.8,20.1,11.5,25.5,7
		z"/>
</g>
<g id="INSECT">
	<path id="INSECT_x5F_foot_x5F_back" class="st18" d="M13.6,147.6c-1.3,0.1-4.2,1.7-6.3,3.6s-0.1,4.9,1.8,6.4s4.6,2.5,9.5,4.6
		s9.7,0.9,9.6-1.4c0-2.3-7.8-8.6-7.8-8.6S15.1,147.4,13.6,147.6z"/>
	<g id="INSECT_x5F_foot_x5F_front">
		<path id="INSECT_x5F_foot_x5F_front_1_" class="st18" d="M39.8,172c-0.6,1.2-0.8,4.5-0.3,7.2s4.1,2.6,6.4,1.9
			c2.3-0.8,4.6-2.6,9-5.6s5.9-7.7,3.9-8.9s-11.4,2-11.4,2S40.3,170.6,39.8,172z"/>
		<path id="INSECT_x5F_foot_x5F_front_2_" class="st19" d="M40.3,171.2c-0.5,0.9-0.9,3.3-0.9,5.3s2.2,2.2,3.7,1.9
			c1.5-0.4,3-1.5,6-3.4c2.9-1.8,4.3-5.2,3.2-6.2s-7.1,0.6-7.1,0.6S40.7,170.3,40.3,171.2z"/>
	</g>
	<g id="INSECT_x5F_arm_x5F_back_x5F_bot">
		<path class="st19" d="M19.8,74c-2.2,5.8-4.7,12.3-4.8,12.8c-0.1,0.8,1,2,1.2,3.2c0.2,1.3-0.7,5.6-1.6,5.6s-0.4-2.7-1.1-2.6
			c-0.6,0.1-1.3,2.6-1.5,3.8c-0.2,1.2,0.2,2.7-0.5,2.9c-0.8,0-3.6-2.7-3.7-4.8c-0.1-2.1,1.5-6.8,2.2-8c0.4-0.7,2.4-8.6,4-14.9
			C16,72.8,17.9,73.4,19.8,74z"/>
		<path class="st20" d="M22.7,68.4c-1,2.5-2.4,6.2-2.4,6.2s-3.6,1-7.1-1.5c0,0,1.1-5,2-8c1.3-1.1,2.6-1.8,3.8-1.8
			C22.4,61.5,22.5,65.2,22.7,68.4z"/>
	</g>
	<path id="INSECT_x5F_arm_x5F_back_x5F_top" class="st20" d="M16.9,62c-0.5,1.5-2.1,6.2-2.1,6.2c-0.4,8.2,5.3,1.7,5.3,1.7
		s3.4-5.8,3.7-6.4c0.2-0.6,4-7.5,6.2-11.1c2.1-3.6,3.2-8.9,0.4-10.4s-4.7-0.2-6.3,2.5C21,49.7,17.4,60.5,16.9,62z"/>
	<g id="INSECT_x5F_leg_x5F_back_x5F_bot">
		<path class="st19" d="M16.9,145.2c-1.9,1.2-4.2,2.6-6,4c0.8,2.9,2.5,5.9,5.1,7.4c0.5-0.8,0.9-1.4,1.4-1.8c0.6-0.5,1.5-1,2.6-1.6
			C17.8,151.2,16.6,148.4,16.9,145.2z"/>
		<path class="st21" d="M16.8,143.7c8.1-10,33.2-20.3,35.8-20.3c2.6-0.1,2.1,8.4,2.1,8.4l-29.4,22.4
			C14.6,154.8,16.8,143.8,16.8,143.7z"/>
	</g>
	<path id="INSECT_x5F_leg_x5F_back_x5F_top" class="st21" d="M48.2,122.3c1.6,12.9-11.1,4.6-11.1,4.6l-20-23.1c0,0-3.6-7.8,0-14.1
		c3.7-6.3,16.6,1.7,16.6,1.7S46.5,109.5,48.2,122.3z"/>
	<path id="INSECT_x5F_hip_x5F_back" class="st21" d="M33,73.5l2.5,7.5l-0.9,22.1c-10.2,10.2-16,0.5-16,0.5c-2-2.4,0-11.2,0-11.2
		s2.4-4.1,5.2-5.5s1-3.2,1-3.2l-4.7-10.6L33,73.5z"/>
	<path id="INSECT_x5F_leg_x5F_front_x5F_top" class="st22" d="M46.1,88.4c0,0,9.9,25,4,44.1s-13.5,1.6-13.5,1.6s-3.6-18.4-7.3-34.3
		S39.4,87,39.4,87L46.1,88.4z"/>
	<path id="INSECT_x5F_hip_x5F_front" class="st22" d="M43.2,75.5c4.7,3.7,8,28.9,8,28.9c-12.1,8.3-19.5,0-19.5,0s-6.5-9.2-1.5-15.5
		c5-6.4,0-14.2,0-14.2S38.5,71.8,43.2,75.5z"/>
	<g id="INSECT_x5F_leg_x5F_front_x5F_bot">
		<path class="st19" d="M47.5,165.9c-2.6,1.5-5.6,2.6-8.6,2.8c0,1.9-0.1,3.5-0.1,4.8c2.1,2.3,4.9,3,8.2,0.1
			C47.2,171.4,47.3,168.7,47.5,165.9z"/>
		<path class="st22" d="M35.6,164.2c5.6,10.5,14-0.2,14-0.2l1.6-33.4c-4.8-16.1-15.3,0.6-15.3,0.6l-0.3,13.4V164.2z"/>
	</g>
	<path id="INSECT_x5F_hair_x5F_back" class="st23" d="M24.1,9.8c-2.8,2.5-3,7.1-2.9,8.6s-2.8,5.7-3.2,7.9s3,5,4.3,6.5
		c1.4,1.5-0.6,5.5-0.7,6.8s3.7,4.2,5.2,5.1s1.4-2.1,3.1-2.3s2.4-4.2,2.4-4.2l-0.2-5.7l-3.3-19.6l5.1-5.1C33.9,7.8,27,7.4,24.1,9.8z"
		/>
	<path id="INSECT_x5F_top" class="st18" d="M38.5,43.1c-5.1,2-7.4-0.6-9.3-1.9s-3.4-2.1-3.4-2.1s-1.4-0.1-2.9,2.5
		c-1.5-5.3-3,7.7,0,11.4s5.6,10,6.3,13c0.6,3-7.6,7.2-8.5,9.5s-9.8,6.9-5.3,19.8c0,0,10.7-8.5,14-7.4s6.7,7,11.8,7.2
		c5.1,0.1,8.7-6.1,9-7.4s-2.4-15.9-2.4-22.8s2.4-11,2-13.7C49.6,48.6,46.2,41,44.9,39c-1.4-2-6.3-2.1-6.3-2.1S41.3,42,38.5,43.1z"/>
	<g id="INSECT_x5F_arm_x5F_front_x5F_bot">
		<path class="st19" d="M55.9,76.5c3.3,5.1,7.1,11,7.3,11.5c0.3,0.7-0.6,2.2-0.6,3.5c0.1,1.3,1.8,5.3,2.6,5.2c0.8-0.2,0-2.8,0.6-2.8
			c0.8-0.1,1.9,2.2,2.3,3.4c0.3,1.1,0.3,2.8,1,2.7c0.8-0.1,3.1-3.5,2.8-5.6c-0.3-2.2-2.9-6.3-3.8-7.4c-0.5-0.6-4.1-7.9-6.9-13.8
			C59.6,74.3,57.8,75.4,55.9,76.5z"/>
		<path class="st20" d="M52.1,71.5c1.5,2.3,3.6,5.6,3.6,5.6s3.8,0.3,6.9-3.1c0,0-2.1-4.7-3.5-7.4c-1.4-0.8-3-1.1-4.1-0.9
			C51,64.7,51.6,68.3,52.1,71.5z"/>
	</g>
	<path id="INSECT_x5F_arm_x5F_front_x5F_top" class="st20" d="M57.7,64c0.3,1.6,1.2,6.4,1.2,6.4c-1.2,8.4-6.7,1.3-6.7,1.3
		s-2.9-6.1-3-6.7c-0.2-0.6-3.3-7.9-5.1-11.7c-1.9-3.8-2.1-9.2,1.7-10.5s5.8,0.1,7.1,3C55.5,51.3,57.5,62.4,57.7,64z"/>
	<g id="INSECT_x5F_wings">
		<path class="st24" d="M38.5,61.8c38.7-14.4,39-25.3,39-25.3c-20.7-6.4-38,11.1-38,11.1L38.5,61.8z"/>
		<path class="st25" d="M32.6,71c41.2,4.7,46.8-4.8,46.8-4.8c-15.1-14.9-39-7.2-39-7.2L32.6,71z"/>
		<path class="st26" d="M29.2,57.5C-7.3,38.5-6.1,27.6-6.1,27.6c21.4-3.8,36.2,15.7,36.2,15.7L29.2,57.5z"/>
		<path class="st27" d="M33.8,67.5C-7.7,67-12,56.9-12,56.9c17.1-13,39.7-2.4,39.7-2.4L33.8,67.5z"/>
	</g>
	<path id="INSECT_x5F_hair_x5F_front" class="st28" d="M42.4,6.4c1.4-1.1,7.2,1.2,7.2,2.4s3.9,1.4,5,1.6c1.1,0.2,4.9,6.2,4.9,6.2
		s0,0,0.6,1.8c0.6,1.7-0.9,8.1,0,9.6s-2.4,6.4-3.6,7.2c-1.2,0.8-2.3,2-0.7,3.4s-2.9,5.3-5.4,2.9s-0.4,1.3-3.7-0.7s0.1,0.7-2.6,1.5
		s-3.7,3.2-3.7,3.2s-3.3,2.6-6.4-0.6s-3.8-1.6-3.8-1.6l-7.8-6.4c4.1-2.3-0.1-3.9-1.6-5.8c-1.5-1.9-1.1-5.4-1.1-5.4
		C8.3,19.8,30.4,1.1,29.8,8.9C36.2-1.6,41,7.5,42.4,6.4z"/>
	<g id="INSECT_x5F_antennas">
		<path class="st19" d="M39.1,13.5c7.2-17.9,18.1-3.2,17.6-4C44-7.3,38.5,12.2,38.5,12.2L39.1,13.5z"/>
		<ellipse class="st19" cx="56.3" cy="9.1" rx="1.7" ry="1.6"/>
		<path class="st19" d="M27.9,10.7c0.2-0.4,0.6-0.7,1.1-0.8C26.6,5.3,21.3-0.6,12.5,11C12.3,11.2,21-0.1,27.9,10.7z"/>
		<ellipse class="st19" cx="13" cy="10.5" rx="1.7" ry="1.6"/>
	</g>
</g>
</svg>
