<?xml version="1.0" encoding="utf-8"?>
<!-- Generator: Adobe Illustrator 22.0.1, SVG Export Plug-In . SVG Version: 6.00 Build 0)  -->
<svg version="1.1" id="Layer_1" xmlns="http://www.w3.org/2000/svg" xmlns:xlink="http://www.w3.org/1999/xlink" x="0px" y="0px"
	 viewBox="0 0 102 197.6" style="enable-background:new 0 0 102 197.6;" width="250px" height="250px" preserveAspectRatio="none"  xml:space="preserve">
<style type="text/css">
	.st0{fill:#D68A69;}
	.st1{fill:#E29E4B;}
	.st2{fill:#171D49;}
	.st3{fill:#333333;}
	.st4{fill:#48626B;}
	.st5{fill:#506A75;}
	.st6{fill:#FFFFFF;}
	.st7{opacity:0.3;fill:#E8B9A0;enable-background:new    ;}
	.st8{fill:#3A4D57;}
	.st9{fill:#562809;}
	.st10{fill:#281406;}
	.st11{fill:none;stroke:#331908;stroke-width:0.5;stroke-miterlimit:10;}
	.st12{fill:none;stroke:#231307;stroke-width:0.5;stroke-miterlimit:10;}
	.st13{fill:#4F2508;stroke:#5E2B08;stroke-width:0.5;stroke-miterlimit:10;}
	.st14{fill:#5B3B3E;}
	.st15{fill:#E0A053;}
	.st16{fill:#F4BB76;}
	.st17{fill:#493033;}
	.st18{fill:#966E53;}
	.st19{fill:#8C654B;}
	.st20{fill:#6C61AF;}
	.st21{fill:#F2B361;}
	.st22{fill:#513A40;}
	.st23{fill:#3A262B;}
	.st24{fill:#E6E8A7;}
	.st25{opacity:0.58;fill:#513F5E;enable-background:new    ;}
	.st26{opacity:0.74;fill:#513F5E;enable-background:new    ;}
	.st27{opacity:0.42;fill:#513F5E;enable-background:new    ;}
	.st28{opacity:0.72;fill:#513F5E;enable-background:new    ;}
	.st29{fill:#A57951;}
	.st30{fill:#D68162;}
	.st31{fill:#9B6249;}
	.st32{fill:#A36955;}
	.st33{fill:#4A3A56;}
	.st34{fill:#FA8B65;}
	.st35{fill:#936C4D;}
	.st36{fill:#513F5E;}
</style>
<g id="CAT_x2F_BUNNY">
	<path id="arm_x5F_back_x5F_bot" class="st0" d="M36.2,111.2c0,0-4.3-18.1,0.3-24.7s5.9,1.3,5.9,1.3C38.1,114,36.2,111.2,36.2,111.2
		z"/>
	<path id="arm_x5F_back_x5F_top" class="st0" d="M45.7,73.8c-1.8,6.6-1.2,14.7-7.6,17.9c-2.4,1.2-2.9-5.6-2.4-9.1
		c0.3-2.4,0.7-17.4,0.9-18.3c0.8-5.6,1.5-14.9,7.5-14C51.3,51.4,47.4,67.2,45.7,73.8z"/>
	<path id="CAT_x5F_tail" class="st1" d="M66.6,101.2c0,0,12.5,0.6,8.8,18.2s7.3,26.4,7.3,26.4s7.6,4.8,1.4-2.7
		c-6.1-7.6-7.4-11-6.2-22.7c1.3-11.7,0.4-24.6-9.7-26.1S66.6,101.2,66.6,101.2z"/>
	<path id="foot_x5F_back" class="st2" d="M33,180.7c3.7,2.9,5.3,0.4,8.8,0.3c3.5-0.1,5.2-4.3,7-5.1s0.3-2.1,0.9-1.4
		c0.3,0.1,0.8,0.4,1.1-0.3c0,0-0.2,0.8,0-0.3c0.1-1.3,1.6-11.4-0.2-8.2c-2.8,0.1-5.7,0.4-8.4,1C38.8,167.9,29.1,177.6,33,180.7z"/>
	<path id="leg_x5F_back_x5F_bot" class="st3" d="M39.7,130.8l-0.1,38.7c11.1,7,16.3-4.4,16.3-4.4c-2.9-30.1-5.5-29.8-5.5-29.8
		C46.9,122.1,39.7,130.8,39.7,130.8z"/>
	<path id="leg_x5F_back_x5F_top" class="st3" d="M38,98.5c-0.8,11.3,2.1,23.5,1.6,34.8c-0.6,11.3,12.9,11.3,13,2.6s0.2-8,0.4-18.1
		c0.1-10.1-0.6-15.2-1.7-24.5C46.7,94.8,38.7,87.4,38,98.5z"/>
	<path id="CAT_x5F_leg_x5F_back_x5F_bot" class="st4" d="M50,137.6c1.2,0.6,2.1,1.4,2.7,2.4v29c-5.6,4.1-11.8,0-11.8,0
		s-1.9-18.5-4-28.3C40.7,137.2,45.3,134.8,50,137.6z"/>
	<path id="CAT_x5F_leg_x5F_back_x5F_top" class="st4" d="M56,92.6c0,0.8,0,2.3,0,3.3l-3.3,22v22.4c-2.1,2.7-5.4,4.3-8.7,3.2
		c-3-0.6-5,0.8-6.8-1.5c-0.4-1.5-1.4-5.7-1.7-6.4c-2.5-5.2-2.2-22.7-1.4-32.3c0.3-3.8,1-8.2,1.7-12.3C41.6,87.7,51.1,87.8,56,92.6z"
		/>
	<path id="CAT_x5F_hip_x5F_back" class="st4" d="M34,104.3c0-0.3,0.1-0.6,0.1-0.9c0.9-9.6,3.8-23.6,3.8-23.6L52,76.4l6,6.4
		l-3.5,23.4C48.2,108.1,38.9,108.7,34,104.3z"/>
	<g id="foot_x5F_front">
		<path class="st2" d="M60,164c-3.2,0.2-5.6,2.9-5.6,6.1c0.1,4.2,0.9,8.9,2.4,11.1c2.3,3.2,3.6,1.6,6,1.8s5.1-2.7,5.2-4.4
			c0.3-3.9-0.7-7.3-1.9-10.6C65.2,165.3,62.7,163.8,60,164L60,164z"/>
	</g>
	<path id="leg_x5F_front_x5F_bot" class="st3" d="M53.3,162.7c0,0,3.2,5.9,6.8,8c3.6,2.2,6.6,0.2,6.6,0.2l0.8-8.2
		c-0.6-20.3-3.3-29.7-3.3-29.7l-9,0.2L53.3,162.7z"/>
	<path id="leg_x5F_front_x5F_top" class="st3" d="M48.3,97.9c-0.7,10.2,4.8,21.6,4.8,31.3c0,14.1,13,15.4,13,15.4l1.2-16.6
		c0,0,1.5-8.7,1.1-13.5c-1.1-12.5-2.8-19.4-2.8-19.4S48.7,93.5,48.3,97.9z"/>
	<path id="CAT_x5F_leg_x5F_front_x5F_bot" class="st5" d="M61,119.6c2.8,1.9,5.6,6.3,6.8,10.9c0.4,4.3,1.1,10.1,1.6,14.2
		c0.6,6-0.9,28.4-0.9,28.4s-1.9,1.5-5.9,1.5s-5.9-1.7-5.9-1.7c0.3-2.8-1.3-15.3-1.3-19.2s-2.5-13.8-3.4-15.5c-0.6-1.1-1.4-4.1-2-6.8
		C49.9,124.3,53.2,115.3,61,119.6z"/>
	<path id="CAT_x5F_leg_x5F_front_x5F_top" class="st5" d="M53,135.6c-1.1-0.4-2.1-1.5-2.9-3.1c-0.4-2-0.8-4-0.8-5.2
		c0-2.6,0.5-19.9-0.3-21.8c-0.1-0.2-0.2-0.3-0.3-0.5c-0.9-6.6,3.8-13.5,10.3-14.4c3.6,0,7.8,0.5,10.6,3.2c0.6,2.2,2.1,8,1.6,13.9
		c-0.6,7.4-3.4,14.7-3.6,18.1c0,0.4,0,0.9,0,1.4C63.9,132.6,58.5,137.2,53,135.6z"/>
	<path id="CAT_x5F_hip_x5F_front" class="st5" d="M42.4,80.9l3.4-4.3c0,0,14.1-0.2,14.5-0.2s3.5,4.6,3.5,4.6l5.4,11.9
		c0,0,0.4,1.3,0.9,3.4C67,103.7,57,106.5,48.5,105c-1.4-1.9-5-5-6.1-8.5C41.1,92.5,42.4,80.9,42.4,80.9z"/>
	<path id="chest" class="st0" d="M48.8,40.9c0,2.3,0.6,5.7-1.8,6.6c-5.5,2.2-4.8,15.3-1.6,15.7C50.4,64,67.1,55,65.3,51L60,46.8V39
		C56.6,34.5,48.8,41,48.8,40.9z"/>
	<path id="top" class="st6" d="M66.6,75.6c1.9-6.7,0-6.1-1.9-7.4s-5.7-6.8-5.1-13c0,0-11.6-0.2-15.5,5.6c0,0-0.3-1.1-3.1-7.7
		c0,0-2.6,4.5-4.6,7.6s2.7,8.6,1.7,12.6c-1.2,4.9,1,11.7,0.1,22.4c0,0,5.1,3.8,14.4,3.8c9.2,0,16.2-3.8,16.2-3.8
		C65.7,86.3,65.8,80.3,66.6,75.6z"/>
	<path id="arm_x5F_front_x5F_top" class="st0" d="M69.8,72.8c-0.1,1.3-1,17.4-3,19.9c-2.3,2.9-5.7-8.1-5.9-9.2
		c-0.8-4.3-3.3-13.6-3.2-18.5s0.5-15,6.8-15.2C72,49.8,70.2,66.9,69.8,72.8z"/>
	<path id="arm_x5F_front_x5F_bot" class="st0" d="M62.8,112.1c0,0-1.1,2.7-1.7-0.4c-0.8-4.8-1.8-25.4,0-31.6c4.1-13.8,6.5,7,6.5,7
		C69.9,92.8,62.8,112.1,62.8,112.1z"/>
	<path id="neck" class="st7" d="M57.3,45.6c1.2-1.7,2.4-4.4,2.8-6.5C56.8,34.8,48.3,40,48.3,40c-0.1,1-0.1,2.2-0.3,3.3
		c0.1-0.1,0.1-0.1,0.2-0.2c0.2-0.3,0.5-0.2,0.7,0c0.7-0.9,1.5-1.8,1.9-2.7c0.3-0.6,1.3-0.3,1,0.3c-0.7,1.4-3,2.1-3.8,3.5
		c-0.6,1-0.7,1.3-0.9,2.5c-0.4,2.9,3.7,2.7,5.4,2C54.5,47.9,56.2,47.1,57.3,45.6z"/>
	<path id="CAT_x5F_top" class="st8" d="M61.2,82.1c0,0-1,1-12,0.6s-13.4-4.2-13.4-4.2s0.2-9.9,0.3-11.3s-2.7-3.8-2.7-4.8
		s2.3-6.9,6.9-11.3c1.7-1.6,3.9-2.3,6.5-2.5c-0.4,0.3-4.7,3.4-4.6,5.4c0.1,2,9.8,6,13.6,6s6-3.9,11.3-5.2c4.7,2.4,7,4.3,8.1,8.5
		c1,3.8-10.7,7.5-11.7,10.6C62.6,76.9,61.2,82.1,61.2,82.1z"/>
	<path id="hair_x5F_back" class="st9" d="M47.1,46c-6.3,4.3-4.7,16.4-7.2,16s-2.6-3-2.6-3c5.1-9.1,3.9-25.7,3.9-25.7
		C47.8,29.9,47.1,46,47.1,46z"/>
	<path id="head" class="st0" d="M40.6,27.3c0.3,3.3,0.7,4.9,0.8,8.1c1.1,2.8,2.6,6.1,4.7,7.9c3,1.3,6.4,1.3,9.3,0
		c0.9-0.6,1.7-1.2,2.3-1.9c2.7-2.8,1.2-1,3.8-5.4c2.6-4.4,8.2-12.2,2.8-19.3C59,9.6,47.3,9,41.5,16.6C38.9,20.1,40.2,23.9,40.6,27.3
		z"/>
	<path id="hair_x5F_front" class="st10" d="M57.3,20.4c-11.6,11.1-22.1,6.2-22.1,6.2c1.2-0.2,1.9-2.2,3.1-9.4
		C39.5,10,48.4,6.6,57.4,8.1s8.8,9,8.8,9s5.9,3.5,4,12.1s-3.4,20.7-3.4,20.7c-7.4-2.6-8.4,15.6-8.4,15.6c-1.2-1-2.2,0.1-4.2,0
		c-2.1-0.1-2.5-2.3-2.5-2.3c0.1-2.6,1.4-10.6,5.2-14.6s3.1-9.8,3.1-9.8c-1.2-2.4-0.3-3.8-0.3-3.8c1.1,0.9,1.5-0.8,1.9-2.2
		c0.4-1.4,2.5-4.7,0.5-5.3c-2-0.6-2.9,2.7-2.9,2.7C54,27.3,57.4,20.4,57.3,20.4z"/>
	<path id="CAT_x5F_hair" class="st1" d="M43.5,19c0,0,5.2,7.8,8.5,12c3.3,4.3,6.9,10.3,6,15c-1,4.8-5.1,11.9-4.4,18.8
		c0.7,6.8,2.6,7.2,2.6,7.2s3.5-12.7,4.8-16s3-4.3,3-4.3l7.3,6.3c0,0-1.8-5.4-2.5-12.9C68.2,37.8,69,24.7,66,18.2s-7.2-6.6-9-6.5
		s-1.8,0.1-1.8,0.1s-1-1-4.3-1.2s-10.5,2.9-11.6,7.2c-1.2,4.3,1.2,9.7,1.2,9.7S40.1,21.5,43.5,19z"/>
	<polyline id="ear" class="st0" points="62.4,17.2 67.4,21.2 67.4,12.2 	"/>
	<line id="whisker_x5F_left_x5F_top" class="st11" x1="66.4" y1="33.2" x2="52.4" y2="34.2"/>
	<line id="whisker_x5F_left_x5F_mid" class="st12" x1="66.4" y1="36.2" x2="52.4" y2="35.1"/>
	<line id="whisker_x5F_left_x5F_bot" class="st12" x1="66.2" y1="39.4" x2="52.6" y2="35.9"/>
	<line id="whisker_x5F_right_x5F_bot" class="st12" x1="33.2" y1="38.8" x2="42.6" y2="35.3"/>
	<line id="whisker_x5F_right_x5F_mid" class="st12" x1="32.6" y1="36.6" x2="42.4" y2="34.6"/>
	<line id="whisker_x5F_right_x5F_top" class="st12" x1="32.1" y1="34.3" x2="42.1" y2="34"/>
	<polygon id="nose" class="st13" points="47.9,37.7 45.9,35.6 48.9,35.7 	"/>
</g>
<g id="ELEPHANT">
	<path id="ELEPHANT_x5F_arm_x5F_back_x5F_bot" class="st14" d="M29.7,72.5c-1.4,1.9-0.9,20.9-0.9,20.9s-2.7,5.4-2.8,7.3
		s0.4,3.5,1.8,6.4c1.4,2.8,2.6,3.2,3.2,2.6c0.7-0.6-0.5-2.1-0.3-3c0.1-0.9,1.5-4.8,2.2-4.9c0.7-0.2,1,3.5,1.8,2.9
		c0.8-0.7,0.8-4.6,0.3-6.2s-1.5-2.8-1.5-2.8l5.1-20"/>
	<g id="ELEPHANT_x5F_arm_x5F_back_x5F_top">
		<path class="st15" d="M32.3,52.2c-1,5.6-3.4,22.3-3.4,22.3s-1.2,5.3,0,5.2c1.2-0.2,10.3,0.3,10.3,0.3l1-8.1c0,0-0.1-0.8,1.3-10.5
			c1.4-9.7,1.9-15.2,0.6-17c-1.3-1.7-4.9-2.6-6.1-0.7C36,43.7,33.2,46.4,32.3,52.2z"/>
		<path class="st16" d="M39.1,80c0,0-10-0.4-10.8-0.9c-0.7-0.4,0.5-4.7,0.5-4.7l10.8,1L39.1,80z"/>
	</g>
	<path id="ELEPHANT_x5F_leg_x5F_back_x5F_bot" class="st17" d="M48.4,173.5c-0.3-0.6-0.6-1.2-0.8-2l0,0c-0.2-0.9-0.3-2-0.1-3.6
		c0.7-5.4,2.2-19.5,2.2-24.5c0-2-0.3-3.7-0.5-5.3c-1.5-1.5-3.5-2.6-5-3.5c-2.6-1.5-6,0.1-7.9,2.5c0.6,3,1.2,5.4,1.4,8.6
		c0.3,5.8,0.9,28,0.9,28s-0.7,0.8-1.7,2c0.7,0.7,1.6,1.4,2.2,2C42.7,179.3,46.3,176.6,48.4,173.5z"/>
	<path id="ELEPHANT_x5F_foot_x5F_back" class="st8" d="M38.7,171.9c0,0,2.2,0.5,2.8,0.8s0.4,1.8,2.8,1.9c2.2,0.1,2.8-1.8,3.8-2.4
		c-0.2,2.4,0.9,3.6,0.5,5.8c-0.2,1.5-1.4,1.5-3.7,2.3s-7.5,4-9.7,4.6s-9.5,0.2-10.4-1.8C23.9,181,38.7,171.9,38.7,171.9z"/>
	<g id="ELEPHANT_x5F_leg_x5F_back_x5F_top">
		<path class="st17" d="M49.6,149.1c0.2-2.4,0.3-4.5,0.3-5.9c0-5-1.7-8-0.5-12.9c0.3-1.4,0.7-3.6,1-6.2c-4.7,2.1-10.2,2.7-15.2,1
			c0,1,0.1,1.9,0.1,2.7c0.2,8.8,2,12.1,2.4,17.8c0.1,1.7,0.2,4.7,0.3,8.2c0.3,0.4,0.7,0.7,1.1,0.9C44,156.6,47.5,153.3,49.6,149.1z"
			/>
		<path class="st18" d="M49.3,97.4c-3.8-0.2-17.5,3.9-17.5,3.9l1.2,22.5c0,0,1.3,3.3,9,3.5c7,0.2,10.4-2.3,10.4-2.3
			s0.2-12.6,0.4-13.9c0.1-1.2,1.3-6.1,1.5-13.2C54.3,97.9,53.1,97.7,49.3,97.4z"/>
	</g>
	<path id="ELEPHANT_x5F_leg_x5F_front_x5F_bot" class="st14" d="M63.7,178.1c-0.3-0.6-0.6-1.2-0.8-2l0,0c-0.2-0.9-0.3-2-0.1-3.6
		C63.5,167.1,65,153,65,148c0-2-0.3-3.7-0.5-5.3c-1.5-1.5-3.5-2.6-5-3.5c-2.6-1.5-6,0.1-7.9,2.5c0.6,3,1.2,5.4,1.4,8.6
		c0.3,5.8,0.9,28,0.9,28s-0.7,0.8-1.7,2c0.7,0.7,1.6,1.4,2.2,2C58,183.9,61.6,181.2,63.7,178.1z"/>
	<path id="ELEPHANT_x5F_foot_x5F_front" class="st8" d="M54,176.5c0,0,2.2,0.5,2.8,0.8s0.4,1.8,2.8,1.9c2.2,0.1,2.8-1.8,3.8-2.4
		c-0.2,2.4,0.9,3.6,0.5,5.8c-0.2,1.5-1.4,1.5-3.7,2.3s-7.5,4-9.7,4.6s-9.5,0.2-10.4-1.8C39.2,185.6,54,176.5,54,176.5z"/>
	<g id="ELEPHANT_x5F_leg_x5F_front_x5F_top">
		<path class="st14" d="M64.9,153.7c0.2-2.4,0.3-4.5,0.3-5.9c0-5-1.7-8-0.5-12.9c0.3-1.4,0.7-3.6,1-6.2c-4.7,2.1-10.2,2.7-15.2,1
			c0,1,0.1,1.9,0.1,2.7c0.2,8.8,2,12.1,2.4,17.8c0.1,1.7,0.2,4.7,0.3,8.2c0.3,0.4,0.7,0.7,1.1,0.9C59.3,161.2,62.8,157.9,64.9,153.7
			z"/>
		<path class="st19" d="M64.6,102c-3.8-0.2-17.5,3.9-17.5,3.9l1.2,22.5c0,0,1.3,3.3,9,3.5c7,0.2,10.4-2.3,10.4-2.3
			s0.2-12.6,0.4-13.9c0.1-1.2,1.3-6.1,1.5-13.2C69.6,102.5,68.4,102.3,64.6,102z"/>
	</g>
	<g id="ELEPHANT_x5F_top">
		<path class="st20" d="M33.8,101.9c3.4,3.9,12.2,5.3,12.2,5.3s13.3,2.8,24.5-4.6c0,0,0.3-32.9,2.5-41.8s2.3-12.5-4.7-16.6
			c-2.1-1.2-4.2-2.5-6.4-3.6c-2.2-1.2-4.8-1.9-7.2-2.9c-2.1-0.9-4.4-1.9-6.7-2.3c-2.4-0.4-5-1.5-7.3-0.3c-2,1-3.6,2.8-4.4,4.7
			c-1.7,3.7-1.6,15.9-2.1,25.3S33.9,101.8,33.8,101.9z M44.3,66.4c-0.1,1.4-0.2,3-0.3,4.6v-0.1C44,69.5,44.1,68,44.3,66.4z"/>
		<path class="st21" d="M53.4,42.3l6.8-3.4c0,0,6.6,3.3,9.5,5.7c3,2.4,3.3,3.6,3.3,3.6l-0.6,25.7l-1.7,29.5
			c-9.8,6.9-21.4,5.2-21.4,5.2s-3.1-45.7-2.8-52.2c0.2-6.5,2.3-13.5,2.3-13.5L53.4,42.3z"/>
		<path class="st15" d="M58.7,35.5l0.8,0.8l1.2,3.3c0,0,0.5,1.5-1,3.5c-1.6,2-9.5,6.8-9.5,5.9s-1.4-6.2-1.4-6.2s0,0,3.3-1.2
			c3.3-1.3,6.7-4.2,6.7-4.2L58.7,35.5z"/>
		<path class="st21" d="M45,37.6c-1.5-0.9-2.3-3.1-2.3-3.1c-5.6,0.9-7.1,4.2-8,14.9S33,102.1,33,102.1l3.2,2.4c0,0,0.3-7.3,0.6-11.6
			s2.5-34.6,3.1-39.2s2.9-10.8,4.4-13.9L45,37.6z"/>
		<path class="st15" d="M44,36.7c0,0-1.3,1.1-1.9,2.4s-0.3,4.6-0.3,4.6s2.2-3.1,2.5-3.9c0.3-0.7,1.1-1.9,1.1-1.9
			C44.4,37.4,44,36.7,44,36.7z"/>
	</g>
	<path id="ELEPHANT_x5F_arm_x5F_front_x5F_bot" class="st14" d="M74.1,76.7c1.3,2.1-3.2,20.8-3.2,20.8s2,5.7,1.8,7.6s-1.1,3.4-3.4,6
		c-2.2,2.6-3.7,2.8-4.3,2.1c-0.6-0.7,1-2,1-2.9s-0.8-4.9-1.6-5.1c-0.8-0.3-1.9,3.3-2.7,2.6s0-4.6,0.9-6.1s2.3-2.6,2.3-2.6L63,78.7"
		/>
	<g id="ELEPHANT_x5F_arm_x5F_front_x5F_top">
		<path class="st15" d="M75.3,56.3c0,5.7-0.8,22.5-0.8,22.5s0.4,5.5-1,5.2c-1.3-0.3-12-1.1-12-1.1l0.5-8.2c0,0,0.3-0.8,0.6-10.6
			c0.4-9.7,0.9-15.2,2.8-16.8c1.9-1.5,6.2-1.8,7.2,0.2C72.6,47.5,75.3,50.6,75.3,56.3z"/>
		<path class="st16" d="M61.5,82.9c0,0,11.8,1,12.7,0.7c1-0.3,0.4-4.7,0.4-4.7l-12.8-0.6L61.5,82.9z"/>
	</g>
	<g id="ELEPHANT_x5F_head">
		<path class="st22" d="M34.8,49.1c-1.6,6.7-4.6,3.6-4.6,3.6s0.4-0.3-5.7-12.5s-0.4-18-0.4-18L39.3,16l6.4,7.5l2.5,1.1
			C48.2,24.6,36.4,42.4,34.8,49.1z"/>
		<path class="st23" d="M42.3,42.5c-0.5,5.3-0.6,9.1,5,11.2c5.6,2.2,11.9-3.6,12.6-5.8c0.7-2.1-0.9-8.3,0.1-10.7
			C60,37.2,42.7,37.2,42.3,42.5z"/>
		<path class="st14" d="M52.5,9.3c1.4-0.3,3.9-0.6,5.3,0c1.1,0.5,1.6,1.6,2.6,2.1c1.4,0.6,3.1,0.6,4.3,1.7c0.9,0.8,1.4,2,1.7,3.1
			c0.7,2.5,1.1,5.6,0.5,8.2c-0.8,3.6-4.6,9.9-4.6,9.9s-4.2,5.4-6,6.9c-1.7,1.5-5.9,5.2-12.2,4.3S36.3,33.3,36.5,31s1-3.3,1-4.3
			c0.1-1.5-0.3-3-0.1-4.6c0.1-1.5,0.7-3,1.5-4.3c0.1-0.2,0.2-0.3,0.3-0.5C42.2,12.9,47.4,10.2,52.5,9.3z"/>
		<path class="st14" d="M57.3,48.3c-1.4,6.7,2.9,5.2,2.9,5.2s-0.3-0.5,11-9s8.3-16.2,8.3-16.2l-12-12l-9.4,4.2l-2.9-0.1
			C55.2,20.4,58.7,41.6,57.3,48.3z"/>
		<path class="st24" d="M36.5,46.3c0,0-8.1,1.7-4.1-1.8c4.1-3.5,2.5-7.5,2.5-7.5c5.6-2.2,5.8,2,5.8,2C41.8,43.6,36.5,46.3,36.5,46.3
			z"/>
		<path class="st14" d="M39.5,32.7H50l0.7,7.9c0,0-11.5,44.8-9.6,52.9s-0.8,4.2-0.8,4.2s0.4,0.8,0.8,1.7c0.9,2.2,1.9,5.4-2.3,2.6
			c-6-4.1-3-35.8-2.1-37.3c0.9-1.6,2.8-32.1,2.8-32.1V32.7z"/>
		<path class="st24" d="M54.7,47.7c0,0,8.6,1.7,4.4-1.8c-4.3-3.5-2.6-7.5-2.6-7.5c-5.9-2.2-6.1,2-6.1,2
			C49.3,44.9,54.7,47.7,54.7,47.7z"/>
	</g>
</g>
<g id="INSECT">
	<g id="INSECT_x5F_wings">
		<path class="st25" d="M52.5,66.8c38.7-14.4,39-25.3,39-25.3c-20.7-6.4-38,11.1-38,11.1L52.5,66.8z"/>
		<path class="st26" d="M46.6,76c41.2,4.7,46.8-4.8,46.8-4.8c-15.1-14.9-39-7.2-39-7.2L46.6,76z"/>
		<path class="st27" d="M43.2,62.5C6.7,43.5,7.9,32.6,7.9,32.6c21.4-3.8,36.2,15.7,36.2,15.7L43.2,62.5z"/>
		<path class="st28" d="M47.8,72.5C6.3,72,2,61.9,2,61.9c17.1-13,39.7-2.4,39.7-2.4L47.8,72.5z"/>
	</g>
	<g id="INSECT_x5F_arm_x5F_back_x5F_bot">
		<path class="st29" d="M35.6,75.9c-0.9,6.1-1.9,13-1.9,13.5c0.1,0.8,1.4,1.7,1.9,2.9c0.5,1.2,0.5,5.6-0.3,5.8s-1-2.5-1.6-2.3
			s-0.7,2.8-0.6,4c0.1,1.2,0.8,2.6,0.1,2.9c-0.8,0.2-4.1-1.9-4.7-3.9s0-7,0.4-8.3c0.2-0.8,0.5-8.9,0.7-15.4
			C31.6,75.6,33.6,75.8,35.6,75.9z"/>
		<path class="st30" d="M37.2,69.8c-0.4,2.7-1,6.6-1,6.6s-3.3,1.8-7.3,0.1c0,0,0-5.1,0.2-8.2c1-1.3,2.2-2.3,3.3-2.6
			C35.4,63.2,36.3,66.7,37.2,69.8z"/>
	</g>
	<path id="INSECT_x5F_arm_x5F_back_x5F_top" class="st30" d="M30.1,64.9c-0.2,1.6-0.7,6.5-0.7,6.5c1.4,8.1,5.5,0.5,5.5,0.5
		s2.1-6.4,2.2-7s2.3-8.2,3.6-12.2s1.2-9.4-1.9-10.2s-4.6,0.8-5.6,3.8C31.4,52,30.3,63.3,30.1,64.9z"/>
	<g id="INSECT_x5F_leg_x5F_back_x5F_bot">
		<path class="st29" d="M40.6,163.8c0.1,1.3,0.1,2.3,0,3.1c-0.1,0.6-0.4,1.3-0.8,2.1c2.7,1.4,6.1,1.3,9,0.4c0.2-2.3,0.2-4.9,0.2-7.2
			C46.4,164.1,43.4,164.6,40.6,163.8z"/>
		<path class="st31" d="M34.7,129c0.2,0.9,0.4,1.6,0.6,2.2c2,5.1,4.4,32.8,4.4,32.8s5,4,9.6,0v-31.6c-2-3.8-3.5-7.6-7-9.6
			C37.2,119.4,35.3,124,34.7,129z"/>
	</g>
	<path id="INSECT_x5F_leg_x5F_back_x5F_top" class="st31" d="M34.9,129.8c0.4,0.3,0.9,0.6,1.5,0.7c4.9,2,10.2-0.6,13-4.6v-12
		l4.2-34.6L48.7,73l-11.5,3.3c0,0-2.4,13.8-3.1,23.2C33.5,108.2,33.3,123.5,34.9,129.8z"/>
	<g id="INSECT_x5F_foot_x5F_back">
		<path class="st29" d="M30.1,181.4c-0.3,2.5,7.8,1.9,10,0.6s3.9-3.9,5.4-5c1.5-1.2,2.8-1.2,3-2.3c0-0.3,0.1-1.2,0.2-2.5
			c0.1-0.8,0.1-1.8,0.2-2.8c-2.9,1-6.3,1-9-0.4c-1.5,2.6-4.7,5.9-7.1,8.5C31.3,179.1,30.1,180.5,30.1,181.4z"/>
		<path class="st30" d="M32.7,177.5c0.3,0.6,1.2,1.2,2.9,1.4c2.7,0.3,10-4.6,13-6.7c-0.1,1.2-0.2,2.2-0.2,2.5
			c-0.1,1.2-1.5,1.2-3,2.3s-3.2,3.7-5.4,5s-10.3,2-10-0.6C30.1,180.5,31.3,179.1,32.7,177.5z"/>
	</g>
	<g id="INSECT_x5F_leg_x5F_front_x5F_bot">
		<path class="st29" d="M61.5,170.9c-2.6,1.5-5.6,2.6-8.6,2.8c0,1.9-0.1,3.5-0.1,4.8c2.1,2.3,4.9,3,8.2,0.1
			C61.2,176.4,61.3,173.7,61.5,170.9z"/>
		<path class="st32" d="M46.5,125.2c0,0.7,0,1.3,0,1.6c0,2.6,1.2,9.5,2,11.2s2.8,11.9,2.8,15.9s1.4,16.8,1.1,19.7
			c0,0,1.5,1.7,4.8,1.7s4.8-1.5,4.8-1.5s1.3-23,0.8-29.1c-0.3-4.4-1-10.7-1.3-15.2c-2.5-3.9-5.6-7.6-11.2-7.6
			C48.6,122.4,47.2,123.6,46.5,125.2z"/>
	</g>
	<path id="INSECT_x5F_leg_x5F_front_x5F_top" class="st32" d="M46.5,126.7c0.5,1.5,0.8,3.2,1.8,4.7c3.9,8.1,9.4,3.8,13.2-2.1
		c-0.1-1.7-0.1-3.1-0.1-4.1c0.2-3.5,2.5-10.9,3-18.5s-1.5-15.2-1.5-15.2l-4.4-12.2c0,0-2.6-4.7-2.9-4.7s-11.8,0.2-11.8,0.2L41,79.2
		c0,0-1,11.9,0,15.9s4.6,7.5,5.3,9.4C46.9,106.4,46.5,123.8,46.5,126.7z"/>
	<g id="INSECT_x5F_foot_x5F_front">
		<path class="st29" d="M52.7,178.6c0,0.9,0,1.6-0.1,2.1c-0.1,1.2-0.8,3.9-1.4,6.6c-0.7,3.1-1.2,6.1-0.6,7.1c1.2,1.8,8.3,0,9.3-1.6
			s0.7-5.2,0.7-7.1c0-0.3,0.1-1.6,0.2-3.5c0-1,0.1-2.3,0.2-3.6C57.8,181.6,54.9,180.8,52.7,178.6z"/>
		<path class="st30" d="M51.4,187.5c0.3,1.8,1.2,3.3,3.3,3c4.8-0.6,5.1-2.1,5.7-5.7c0.1-0.9,0.3-1.7,0.5-2.5
			c-0.1,1.9-0.2,3.2-0.2,3.5c0,1.9,0.3,5.5-0.7,7.1s-8.1,3.4-9.3,1.6C50,193.5,50.6,190.4,51.4,187.5z"/>
	</g>
	<path id="INSECT_x5F_hair_x5F_back" class="st33" d="M38.1,14.8c-2.8,2.5-3,7.1-2.9,8.6s-2.8,5.7-3.2,7.9s3,5,4.3,6.5
		c1.4,1.5-0.6,5.5-0.7,6.8s3.7,4.2,5.2,5.1s1.4-2.1,3.1-2.3s2.4-4.2,2.4-4.2l-0.2-5.7l-3.3-19.6l5.1-5.1
		C47.9,12.8,41,12.4,38.1,14.8z"/>
	<path id="INSECT_x5F_top" class="st34" d="M46.1,39.9c0,0-4.9,0.1-6.3,2.1c-1.3,2-4.7,9.6-4.9,12.2c-0.4,2.7,2,6.8,2,13.7
		s-2.7,21.5-2.4,22.8s3.9,7.5,9,7.4c5.1-0.2,8.5-6.1,11.8-7.2s8.6,3.3,8.6,3.3C63,88.7,60.2,83,59.3,80.7s0-7.4,0.6-10.4
		c0.7-3,3.1-2.2,6.1-5.9c3-3.7,4-10.8,2.5-13.3c-1.5-2.6-9.6-9-9.6-9s-1.5,0.8-3.4,2.1s-4.2,3.9-9.3,1.9
		C43.4,45,46.1,39.9,46.1,39.9z"/>
	<path id="INSECT_x5F_neck" class="st35" d="M48.5,35.4c4.4-2,7.4-2.5,7.4-2.5s0.2,9.8,0.1,11.9c0,2.1-1.7,3.5-3.9,3.5
		s-7.5,0-7.7-1.8c-0.2-1.9-0.3-8.1-0.3-8.1S44.1,37.4,48.5,35.4z"/>
	<path id="INSECT_x5F_head" class="st29" d="M45.5,15c3.6-2.4,13.6-2.2,15.5,3.8s-0.9,11.5-2,12.9s-2.9,1.2-2.9,1.2
		s-1.3,1.7-2.9,2.9c-1.6,1.2-9.6,2.4-11,1.5c-1.5-0.9-1.4-7.8-1.4-9.1s0.5-2.1,0.7-2.9s-0.4-3.3,0.2-5.1C41.7,20.2,42,17.4,45.5,15z
		"/>
	<g id="INSECT_x5F_arm_x5F_front_x5F_bot">
		<path class="st29" d="M62.5,82.5c0.2,6.1,0.4,13.1,0.3,13.6c-0.1,0.8-1.7,1.6-2.3,2.7s-1.2,5.5-0.4,5.8s1.4-2.4,2-2.1
			c0.7,0.3,0.5,2.9,0.2,4.1c-0.3,1.1-1.2,2.5-0.5,2.8s4.4-1.4,5.3-3.4s0.8-6.9,0.6-8.3c-0.1-0.8,0.6-8.9,1.2-15.4
			C66.8,82.6,64.7,82.6,62.5,82.5z"/>
		<path class="st30" d="M61.8,76.3c0.1,2.7,0.2,6.6,0.2,6.6s3.1,2.2,7.5,0.9c0,0,0.6-5.1,0.8-8.2c-0.8-1.4-2-2.5-3.1-2.9
			C64.4,69.9,63.1,73.3,61.8,76.3z"/>
	</g>
	<path id="INSECT_x5F_arm_x5F_front_x5F_top" class="st30" d="M69.7,73.1c-0.2,1.6-0.7,6.5-0.7,6.5c-3.5,7.7-6.8-0.6-6.8-0.6
		s-1.1-6.7-1-7.3c0-0.6-0.9-8.5-1.6-12.7s0.6-9.4,4.6-9.6c4-0.2,5.5,1.7,6,4.9C71.1,60.3,69.9,71.5,69.7,73.1z"/>
	<path id="INSECT_x5F_hair_x5F_front" class="st36" d="M56.3,11.4c1.4-1.1,7.2,1.2,7.2,2.4s3.9,1.4,5,1.6s4.9,6.2,4.9,6.2
		s0,0,0.6,1.8c0.6,1.7-0.9,8.1,0,9.6c0.9,1.5-2.4,6.4-3.6,7.2s-2.3,2-0.7,3.4c1.6,1.4-2.9,5.3-5.4,2.9c-2.5-2.4-0.4,1.3-3.7-0.7
		s-2.8-0.2-5.5,0.6s-2.6-4.5-2.6-4.5s4.3-1.7,1.2-4.9s1.4-4.1,1.4-4.1l1.1-0.5c4.1-2.3,2.4-4.7,0.9-6.6S54,28.5,54,28.5
		c-11.4-5-12.2-11.6-12.2-11.6C48.2,6.4,54.9,12.5,56.3,11.4z"/>
	<g id="INSECT_x5F_antennas">
		<path class="st29" d="M53.1,18.5c7.2-17.9,18.1-3.2,17.6-4C58-2.3,52.5,17.2,52.5,17.2L53.1,18.5z"/>
		<ellipse class="st29" cx="70.3" cy="14.1" rx="1.7" ry="1.6"/>
		<path class="st29" d="M41.9,15.7c0.2-0.4,0.6-0.7,1.1-0.8c-2.4-4.6-7.7-10.5-16.5,1.1C26.3,16.2,35,4.9,41.9,15.7z"/>
		<ellipse class="st29" cx="27" cy="15.5" rx="1.7" ry="1.6"/>
	</g>
</g>
</svg>
