<?xml version="1.0" encoding="utf-8"?>
<!-- Generator: Adobe Illustrator 22.0.1, SVG Export Plug-In . SVG Version: 6.00 Build 0)  -->
<svg version="1.0" id="Layer_1" xmlns="http://www.w3.org/2000/svg" xmlns:xlink="http://www.w3.org/1999/xlink" x="0px" y="0px"
	 viewBox="0 0 102 197.6" style="enable-background:new 0 0 102 197.6;" xml:space="preserve">
<style type="text/css">
	.st0{fill:#281406;}
	.st1{fill:#D68A69;}
	.st2{fill:#171D49;}
	.st3{fill:#333333;}
	.st4{fill:#FFFFFF;}
	.st5{opacity:0.3;fill:#E8B9A0;enable-background:new    ;}
	.st6{fill:#562809;}
	.st7{fill:none;stroke:#331908;stroke-width:0.5;stroke-miterlimit:10;}
	.st8{fill:none;stroke:#231307;stroke-width:0.5;stroke-miterlimit:10;}
	.st9{fill:#4F2508;stroke:#5E2B08;stroke-width:0.5;stroke-miterlimit:10;}
</style>
<g id="_x30_0">
	<circle id="tail" class="st0" cx="38.7" cy="102.7" r="6.5"/>
	<path id="arm_x5F_back_x5F_bot" class="st1" d="M66.7,84.9c0,0-0.4-8,5.5-2.5s5.4,24.1,5.4,24.1S76.3,109.6,66.7,84.9z"/>
	<path id="arm_x5F_back_x5F_top" class="st1" d="M57.4,48.5c5.7-2.1,8.3,6.9,10.2,12.2c0.3,0.8,3.8,15.5,4.6,17.7
		c1.2,3.3,2.1,10.1-0.5,9.4c-6.9-1.9-8-9.9-11.1-16C57.6,65.7,50.6,51,57.4,48.5z"/>
	<path id="foot_x5F_back" class="st2" d="M61.4,166.7c-2.7-0.6-5.6-0.9-8.4-1c-1.8-3.2-0.3,6.9-0.2,8.2c0.2,1.1,0,0.3,0,0.3
		c0.3,0.7,0.8,0.4,1.1,0.3c0.6-0.7-0.9,0.6,0.9,1.4c1.8,0.8,3.5,5,7,5.1c3.5,0.1,5.1,2.6,8.8-0.3C74.5,177.6,64.8,167.9,61.4,166.7z
		"/>
	<path id="leg_x5F_back_x5F_bot" class="st3" d="M53.2,135.3c0,0-2.6-0.3-5.5,29.8c0,0,5.2,11.4,16.3,4.4l-0.1-38.7
		C63.9,130.8,56.7,122.1,53.2,135.3z"/>
	<path id="leg_x5F_back_x5F_top" class="st3" d="M52.3,93.3c-1.1,9.3-1.8,14.4-1.7,24.5c0.2,10.1,0.3,9.4,0.4,18.1s13.6,8.7,13-2.6
		c-0.5-11.3,2.4-23.5,1.6-34.8C64.9,87.4,56.9,94.8,52.3,93.3z"/>
	<g id="foot_x5F_front">
		<path class="st2" d="M31.1,162.1c2.4,4.6,4.1,9.2,8.5,12.7c1.4,1.1,5.3,1.1,6.8-0.8c1.5-1.9,3.6-1.7,2.8-5.6
			c-0.9-3.9-6.8-10.3-10.8-12.9C35.9,157.6,33.6,159.9,31.1,162.1z"/>
	</g>
	<path id="leg_x5F_front_x5F_bot" class="st3" d="M52.7,131.3l-8.2-3.8c0,0-6.3,7.5-15,25.8l-2.6,7.8c0,0,1.9,3,6.1,2.5
		s9.5-4.6,9.5-4.6L52.7,131.3z"/>
	<path id="leg_x5F_front_x5F_top" class="st3" d="M34.7,94.4c0,0-0.6,7.1,0.4,19.6c0.4,4.8,4.4,9.1,6.1,13.4c2.7,6.9,3,9.9,3,9.9
		s10.8,2.6,8.5-11.3c-1.6-9.6,2-21.8-0.4-31.7C51.2,90,34.7,94.4,34.7,94.4z"/>
	<path id="chest" class="st1" d="M43.6,38.8v6.7l-5.3,3.6c-1.8,3.5,14.9,11.2,19.9,10.5c3.2-0.4,3.9-11.6-1.6-13.5
		c-2.4-0.8-1.8-3.7-1.8-5.7C54.8,40.5,47,34.9,43.6,38.8z"/>
	<path id="top" class="st4" d="M34.8,95.7c0,0,7,3.8,16.2,3.8c9.3,0,14.4-3.8,14.4-3.8c-0.9-10.7,1.3-17.5,0.1-22.4
		c-1-4,3.7-9.5,1.7-12.6s-4.6-7.6-4.6-7.6c-2.8,6.6-3.1,7.7-3.1,7.7C55.6,55,44,55.2,44,55.2c0.6,6.2-3.2,11.7-5.1,13
		c-1.9,1.3-3.8,0.7-1.9,7.4C37.8,80.3,37.9,86.3,34.8,95.7z"/>
	<path id="arm_x5F_front_x5F_top" class="st1" d="M39,50.1c6.1,1.6,4.3,11.5,3.3,16.3s-5.5,13.3-7.2,17.3c-0.5,1.1-6.2,11-7.8,7.7
		c-1.4-2.9,1.3-18.8,1.5-20.1C29.8,65.4,31.8,48.3,39,50.1z"/>
	<path id="arm_x5F_front_x5F_bot" class="st1" d="M27.8,85.7c0,0,7-19.8,7.9-5.4c0.4,6.4-5.2,26.3-7,30.8c-1.2,2.9-1.7,0-1.7,0
		S24.3,90.7,27.8,85.7z"/>
	<path id="neck" class="st5" d="M51.1,48.7c1.7,0.7,5.8,0.9,5.4-2c-0.2-1.2-0.3-1.5-0.9-2.5c-0.8-1.4-3.1-2.1-3.8-3.5
		c-0.3-0.6,0.7-0.9,1-0.3c0.4,0.9,1.2,1.8,1.9,2.7c0.2-0.2,0.5-0.3,0.7,0c0.1,0.1,0.1,0.1,0.2,0.2c-0.2-1.1-0.2-2.3-0.3-3.3
		c0,0-8.5-5.2-11.8-0.9c0.4,2.1,1.6,4.8,2.8,6.5C47.4,47.1,49.1,47.9,51.1,48.7z"/>
	<path id="hair_x5F_back" class="st6" d="M62.4,33.3c0,0-1.2,16.6,3.9,25.7c0,0-0.1,2.6-2.6,3s-0.9-11.7-7.2-16
		C56.5,46,55.8,29.9,62.4,33.3z"/>
	<path id="head" class="st1" d="M62.1,16.6c-5.8-7.6-17.5-7-22.8,0.1c-5.4,7.1,0.2,14.9,2.8,19.3s1.1,2.6,3.8,5.4
		c0.6,0.7,1.4,1.3,2.3,1.9c2.9,1.3,6.3,1.3,9.3,0c2.1-1.8,3.6-5.1,4.7-7.9c0.1-3.2,0.5-4.8,0.8-8.1C63.4,23.9,64.7,20.1,62.1,16.6z"
		/>
	<path id="hair_x5F_front" class="st0" d="M44.4,30.2c0,0-0.9-3.3-2.9-2.7c-2,0.6,0.1,3.9,0.5,5.3c0.4,1.4,0.8,3.1,1.9,2.2
		c0,0,0.9,1.4-0.3,3.8c0,0-0.7,5.8,3.1,9.8s5.1,12,5.2,14.6c0,0-0.4,2.2-2.5,2.3c-2,0.1-3-1-4.2,0c0,0-1-18.2-8.4-15.6
		c0,0-1.5-12.1-3.4-20.7c-1.9-8.6,4-12.1,4-12.1s-0.2-7.5,8.8-9s17.9,1.9,19.1,9.1c1.2,7.2,1.9,9.2,3.1,9.4c0,0-10.5,4.9-22.1-6.2
		C46.2,20.4,49.6,27.3,44.4,30.2z"/>
	<polyline id="ear" class="st1" points="36.2,12.2 36.2,21.2 41.2,17.2 	"/>
	<line id="whisker_x5F_left_x5F_top" class="st7" x1="51.2" y1="34.2" x2="37.2" y2="33.2"/>
	<line id="whisker_x5F_left_x5F_mid" class="st8" x1="51.2" y1="35.1" x2="37.2" y2="36.2"/>
	<line id="whisker_x5F_left_x5F_bot" class="st8" x1="51" y1="35.9" x2="37.4" y2="39.4"/>
	<line id="whisker_x5F_right_x5F_bot" class="st8" x1="61" y1="35.3" x2="70.4" y2="38.8"/>
	<line id="whisker_x5F_right_x5F_mid" class="st8" x1="61.2" y1="34.6" x2="71" y2="36.6"/>
	<line id="whisker_x5F_right_x5F_top" class="st8" x1="61.5" y1="34" x2="71.5" y2="34.3"/>
	<polygon id="nose" class="st9" points="54.7,35.7 57.7,35.6 55.7,37.7 	"/>
</g>
</svg>
