<?xml version="1.0" encoding="utf-8"?>
<!-- Generator: Adobe Illustrator 22.0.1, SVG Export Plug-In . SVG Version: 6.00 Build 0)  -->
<svg version="1.1" id="Layer_1" xmlns="http://www.w3.org/2000/svg" xmlns:xlink="http://www.w3.org/1999/xlink" x="0px" y="0px"
	 viewBox="0 0 85.5 196.8" style="enable-background:new 0 0 85.5 196.8;" width="250px" height="250px" preserveAspectRatio="none" xml:space="preserve" nopin="nopin">

<g id="CAT_x2F_BUNNY">
	<polyline id="ear_x5F_front" class="st0" points="44.8,20.2 49.8,24.2 49.8,15.2 	"/>
	<polyline id="ear_x5F_back" class="st0" points="20.7,22.1 26.5,19.4 18.4,15.4 	"/>
	<polygon id="CAT_x5F_chest" class="st0" points="37.8,64 38.4,71 43.2,71 49.6,48.6 37.8,50 	"/>
	<path id="arm_x5F_back_x5F_top" class="st0" d="M22.7,84.9c1,1.3,2.1-0.2,3.5-2.1c0-0.5,0.1-0.8,0.1-1c0.2-3,1.7-14.4,1.7-15.2
		c-0.2-5.3,0-13.8-5.5-13.9c-6.5-0.1-4.9,13.9-4.1,20.1c0.5,2.7,0.2,2.7,0.4,8.3C19.4,83.7,20.5,84.2,22.7,84.9z"/>
	<path id="arm_x5F_back_x5F_bot" class="st0" d="M22,112.1c3.6,3.2,4.1-24.3,4.3-30.3c-0.7-1.7-2.3-2.8-3.3-4
		c-2.2-0.8-3.5,0.5-4.2,2.3C18.9,91.5,19,109.6,22,112.1z"/>
	<path id="foot_x5F_front" class="st1" d="M38.9,181.6c5.4-0.4,15.9-4,19-7.1c3.2-3.1,0.9-3.7,0.4-6.2s-3.9-4.3-6-3.9
		c-6.5,1.2-11.8,4.5-17,8.2C36.6,175.6,37.7,178.7,38.9,181.6z"/>
	<path id="foot_x5F_back" class="st1" d="M41.4,175c1.2-5.2-3.4-6.9-6.8-8.9c-3.3-1.9-6.4,2-8.3,3c-1.8,1-0.4,1.4-1.6,1.6
		c-0.5,0.1-0.8-0.4-1.1,0.3c0.1-0.4-0.1-0.1-0.1,0.5c-0.1,0.5-0.4,6.1,0.6,6.2c2.6,0.3,5.2-0.2,7.9-0.6
		C35.5,176.7,40.3,180.2,41.4,175z"/>
	<path id="leg_x5F_back_x5F_top" class="st2" d="M22.9,93.5c-4.8,1.9-2.7,13.5-2.7,13.5l5.5,31.5C37.9,153.1,38,136,38,136
		l-0.3-31.1C37.7,104.9,27.6,91.5,22.9,93.5z"/>
	<path id="leg_x5F_back_x5F_bot" class="st2" d="M34.9,138.3c-4.8-8.6-9.6-7.9-9.6-7.9s-5.7,39.9-0.8,42.8c5,3,12.2-1.5,12.2-1.5
		l0.3-13.8C37,157.9,39.7,147,34.9,138.3z"/>
	<path id="CAT_x5F_leg_x5F_back_x5F_bot" class="st3" d="M36.7,169.9l-3.3-36.8c0,0-6.9-4.9-8.2-2.7s-6,28.9-1.8,41.1
		C23.5,171.5,31.6,179.2,36.7,169.9z"/>
	<path id="CAT_x5F_leg_x5F_back_x5F_top" class="st3" d="M37.7,104.9c0,0-8.3-12.7-14.3-8.6c-6,4.2-6,12.8-6,12.8l8.3,29.4
		c0,0,8,12.9,12,0.5C41.7,126.7,37.7,104.9,37.7,104.9z"/>
	<path id="CAT_x5F_hip_x5F_back" class="st3" d="M18.8,81.1l4.7,10.6c0,0,1.8,1.8-1,3.2c-2.8,1.4-5.2,5.5-5.2,5.5s-2,8.8,0,11.2
		c0,0,5.8,9.7,16-0.5L34.2,89l-2.5-7.5L18.8,81.1z"/>
	<path id="leg_x5F_front_x5F_bot" class="st2" d="M34.6,139.2c-0.4,8-0.3,33-0.3,33s1.1,3.8,6.7,4s7.3-4.2,7.3-4.2
		c0.2-1.9,0.9-18.4,1.6-33.4c-1.3-4.2-5.2-6.9-10-4.8C37.5,135.2,35.9,137.1,34.6,139.2z"/>
	<path id="leg_x5F_front_x5F_top" class="st2" d="M34.7,138c-0.1,0.4-0.1,0.8-0.1,1.2c0.5,5.1,5.5,11,7.9,9.6
		c4.8-2.1,8.5-3.5,7.4-10.2c0.5-11.5,1-22.1,1.1-24.6c0.3-5.8-1.6-15.1-1.6-15.1c-3.8-4.5-27.7-7.5-28.8,2.2
		C31.4,110.4,35.9,119.3,34.7,138z"/>
	<path id="CAT_x5F_leg_x5F_front_x5F_bot" class="st4" d="M34.3,152.6l0.3-13.4c0,0,10.5-16.7,15.3-0.6L48.3,172
		c0,0-8.4,10.7-14,0.2V152.6z"/>
	<path id="CAT_x5F_leg_x5F_front_x5F_top" class="st4" d="M38.1,95c0,0-13.8-3.1-10.1,12.8s7.3,34.3,7.3,34.3s7.6,17.5,13.5-1.6
		s-4-44.1-4-44.1L38.1,95z"/>
	<path id="CAT_x5F_hip_x5F_front" class="st4" d="M28.9,82.7c0,0,5,7.8,0,14.2c-5,6.3,1.5,15.5,1.5,15.5s7.4,8.3,19.5,0
		c0,0-3.3-25.2-8-28.9S28.9,82.7,28.9,82.7z"/>
	<path id="top" class="st5" d="M49,78.5c1.9-6.7,0-6.1-1.9-7.4s-5.7-6.8-5.1-13c0,0-11.6-0.2-15.5,5.6c0,0-0.3-1.1-3.1-7.7
		c0,0-1.9,16.3-2.9,20.3c-1.2,4.9,1,11.7,0.1,22.4c0,0,5.1,3.8,14.4,3.8c9.2,0,16.2-3.8,16.2-3.8C48.1,89.3,48.2,83.3,49,78.5z"/>
	<path id="arm_x5F_front_x5F_bot" class="st0" d="M46.6,86.9c-0.2,9.5,1.3,20.5,4.8,22.8c5.1,3.4,0.3-18.3,2.4-23
		c-0.8-3,0.1-6.1-2.7-6.8C46.5,78.1,48.9,84,46.6,86.9z"/>
	<path id="arm_x5F_front_x5F_top" class="st0" d="M43.5,76c-0.1,2.5,1.1,6.6,3,11c0.2,0.3,0.3,0.7,0.5,1c1.4,1.1,0,3.1,4.9,2.8
		c2.7-0.5,1.1-9.9,1.5-6c0.1-0.2,0.1-0.3,0.1-0.5c1.1-4.3,0.4-12.5,0.5-16.9c0-4.5-0.9-14.7-7-14.2C39.8,53.8,43.6,68.8,43.5,76z"/>
	<path id="CAT_x5F_top" class="st6" d="M15.3,64c0,0,16,5.9,38.8,0l1.6,10l-12.2,2l2.1,15l-26.7-1.2l0.8-14.5l-1,2.1
		C18.7,77.5,15.3,72.3,15.3,64z"/>
	<path id="hair" class="st7" d="M19.8,60.2c-3.5-7.5-2.2-31.6-2.2-31.6c1.2-0.2,1.9-2.2,3.1-9.4s10-10.6,19-9.1s8.8,9,8.8,9
		s5.9,3.5,4,12.1s-3.4,20.7-3.4,20.7c-7.4-2.6-8.4,15.6-8.4,15.6c-1.2-1.1,0.1,0.8-1.9,0.7s-4,1-4,1C30.6,75.1,24.4,70.1,19.8,60.2z
		"/>
	<path id="CAT_x5F_hair" class="st8" d="M19.4,65.3c-3.4-8.5-1.6-35.6-1.6-35.6c1.2-0.2,1.9-2.4,3.3-10.5
		c1.3-8.1,10.2-11.8,19.2-9.9s8.6,10.3,8.6,10.3s5.8,4,3.8,13.7c-2.1,9.7-3.8,23.3-3.8,23.3C41.6,53.5,40.2,74,40.2,74
		c-1.2-1.3,0.1,0.9-1.9,0.8s-4,1.1-4,1.1C29.9,82.3,23.8,76.5,19.4,65.3z"/>
	<path id="CAT_x5F_tail" class="st8" d="M24.4,105.2c0,0-12.5,0.6-8.8,18.2s-7.3,26.4-7.3,26.4s-7.6,4.8-1.4-2.7
		c6.1-7.6,7.4-11,6.2-22.7s-0.4-24.6,9.7-26.1S24.4,105.2,24.4,105.2z"/>
	<circle id="tail" class="st7" cx="25.3" cy="104.7" r="6.5"/>
</g>
<g id="ELEPHANT">
	<path id="ELEPHANT_x5F_foot_x5F_back" class="st6" d="M27.4,171.3c-0.6,1.2-0.8,4.5-0.3,7.2s4.1,2.7,6.4,1.9s4.6-2.6,9-5.6
		s5.9-7.7,3.9-8.9s-11.4,2-11.4,2S28,169.9,27.4,171.3z"/>
	<path id="ELEPHANT_x5F_leg_x5F_back_x5F_bot" class="st9" d="M26.4,135.5c-0.3,2-0.5,4.1-0.5,6.7c0,7.6,0.8,29.3,2.5,30.6
		c1.8,1.3,4.7,1.1,5.9-0.7s1.1-7.4,1.6-17c0.5-8.2,2.2-15.5,3-19.9c-0.2-0.4-0.4-0.8-0.8-1.1C33.6,130.9,29.1,132.5,26.4,135.5z"/>
	<g id="ELEPHANT_x5F_leg_x5F_back_x5F_top">
		<path class="st9" d="M36.8,142.6c0.8-6.8,2-12.4,2.4-15.5c0.2-1.1,0.4-3.1,0.6-5.6c-4,2.4-8.8,4.3-12.8,3.5
			c-0.5,3.6-1.1,7.3-1.1,12.6c0,0.6,0,1.3,0,2.1C29,142.3,32.9,144.3,36.8,142.6z"/>
		<path class="st10" d="M41.3,96.4c-3.8-0.2-17.5,3.9-17.5,3.9l1.2,22.5c0,0,1.3,3.3,9,3.5c7,0.2,10.4-2.3,10.4-2.3
			s0.2-12.6,0.4-13.9c0.1-1.2,1.3-6.1,1.5-13.2C46.3,96.9,45.1,96.7,41.3,96.4z"/>
	</g>
	<path id="ELEPHANT_x5F_foot_x5F_front" class="st6" d="M41.9,176c-0.6,1.2-0.8,4.5-0.3,7.2s4.1,2.6,6.4,1.9c2.3-0.8,4.6-2.6,9-5.6
		s5.9-7.7,3.9-8.9s-11.4,2-11.4,2S42.4,174.6,41.9,176z"/>
	<path id="ELEPHANT_x5F_tail" class="st11" d="M39.3,108.7c-1.6,2.1-5.9,25.7-5.9,25.7s-2.8,6.7-1.9-1s4.6-27,4.6-27
		S40.9,106.6,39.3,108.7z"/>
	<path id="ELEPHANT_x5F_leg_x5F_front_x5F_bot" class="st12" d="M40.8,138.8c-0.3,2-0.5,4.2-0.5,6.9c0,7.8,0.8,30.5,2.5,31.8
		c1.8,1.3,4.7,1.2,5.9-0.7s1.1-7.7,1.6-17.7c0.5-8.5,2.2-16.1,3-20.7c-0.2-0.5-0.4-0.9-0.8-1.2C48,133.9,43.6,135.5,40.8,138.8z"/>
	<g id="ELEPHANT_x5F_leg_x5F_front_x5F_top">
		<path class="st12" d="M51.2,147.3c0.8-6.8,2-12.4,2.4-15.5c0.2-1.1,0.4-3.1,0.6-5.6c-4,2.4-8.8,4.3-12.8,3.5
			c-0.5,3.6-1.1,7.3-1.1,12.6c0,0.6,0,1.3,0,2.1C43.4,147,47.3,149,51.2,147.3z"/>
		<path class="st13" d="M53.6,101c-3.8-0.2-17.5,3.9-17.5,3.9l1.2,22.5c0,0,1.3,3.3,9,3.5c7,0.2,10.4-2.3,10.4-2.3
			s0.2-12.6,0.4-13.9c0.1-1.2,1.3-6.1,1.5-13.2C58.6,101.5,57.4,101.3,53.6,101z"/>
	</g>
	<g id="ELEPHANT_x5F_head">
		<path class="st14" d="M23.8,48.1c-1.6,6.7-4.6,3.6-4.6,3.6s0.4-0.3-5.7-12.5s-0.4-18-0.4-18L28.3,15l6.4,7.5l2.5,1.1
			C37.2,23.6,25.4,41.4,23.8,48.1z"/>
		<path class="st12" d="M46.3,47.3c-1.4,6.7,2.9,5.2,2.9,5.2s-0.3-0.5,11-9s8.3-16.2,8.3-16.2l-12-12l-9.4,4.2l-2.9-0.1
			C44.2,19.4,47.7,40.6,46.3,47.3z"/>
	</g>
	<path id="ELEPHANT_x5F_arm_x5F_back_x5F_bot" class="st12" d="M19.1,105.3c0.4,0.5,2,2.2,2,2.2c1.1,0.2,2.8-3,2.7-3.6
		s-1-2.8-1.1-3.4s0.7-1.1,1.1-2.1S23,95.5,23,95.5c-0.1-0.6,3.1-13.1,4.2-19.6c-3.3-0.8-6.5-0.7-9.7-0.5c-0.1,0.4-0.1,0.7-0.1,1.1
		L18,95c0,0-1,5.6-1,6.3S18.5,104.7,19.1,105.3z"/>
	<g id="ELEPHANT_x5F_arm_x5F_back_x5F_top">
		<path class="st15" d="M21.3,51.2c-1,5.6-3.4,22.3-3.4,22.3s-1.2,5.3,0,5.2c1.2-0.2,10.3,0.3,10.3,0.3l1-8.1c0,0-0.1-0.8,1.3-10.5
			s1.9-15.2,0.6-17c-1.3-1.7-4.9-2.6-6.1-0.7C25,42.7,22.2,45.4,21.3,51.2z"/>
		<path class="st16" d="M28.1,79c0,0-10-0.4-10.8-0.9c-0.7-0.4,0.5-4.7,0.5-4.7l10.8,1L28.1,79z"/>
	</g>
	<g id="ELEPHANT_x5F_top">
		<path class="st17" d="M22.8,100.9c3.4,3.9,12.2,5.3,12.2,5.3s13.3,2.8,24.5-4.6c0,0,0.3-33,2.5-41.9c2.2-8.9,2.3-12.5-4.7-16.6
			c-2.1-1.2-4.2-2.5-6.4-3.6c-2.2-1.2-3.2,1.5-12.8-1.8c-6.8,3.3-1.1,1.7-11.6,3.9c-1.7,3.7-2.8,13.1-3.3,22.5
			S22.9,100.8,22.8,100.9z M33.3,65.4c-0.1,1.4-0.2,3-0.3,4.5l0,0C33,68.5,33.1,67,33.3,65.4z"/>
	</g>
	<path id="ELEPHANT_x5F_arm_x5F_front_x5F_bot" class="st12" d="M58.9,105.3c-0.4,0.6-1.8,2.4-1.8,2.4c-1.1,0.4-2.6-2.7-2.5-3.3
		c0-0.6,0.8-2.8,0.9-3.4c0.1-0.6-0.6-1-1-2s0.7-3,0.7-3c0.1-0.6-2.9-12.7-4-19c2.9-1,5.8-1.1,8.7-1.2c0,0.4,0.1,0.7,0.1,1.1
		l-0.3,18.3c0,0,1,5.5,1,6.2C60.7,102,59.4,104.8,58.9,105.3z"/>
	<g id="ELEPHANT_x5F_arm_x5F_front_x5F_top">
		<path class="st15" d="M64.3,55.3c0,5.7-0.8,22.5-0.8,22.5s0.4,5.5-1,5.2c-1.3-0.3-12-1.1-12-1.1l0.5-8.2c0,0,0.3-0.8,0.6-10.6
			c0.4-9.7,0.9-15.2,2.8-16.8c1.9-1.5,6.2-1.8,7.2,0.2C61.6,46.5,64.3,49.6,64.3,55.3z"/>
		<path class="st16" d="M50.5,81.9c0,0,11.8,1,12.7,0.7c1-0.3,0.4-4.7,0.4-4.7l-12.8-0.6L50.5,81.9z"/>
	</g>
	<path id="ELEPHANT_x5F_neck" class="st12" d="M28.5,11c1.5-1.3,4.2-3.4,6.2-3.8c1.6-0.3,2.8,0.4,4.3,0.2C41,7,43,5.8,45,6
		c1.5,0.1,2.8,1,3.8,1.8c2.3,2,4.7,4.7,5.5,7.7c1.2,4.1,0.6,13,0.6,13s-1.6,8.3-2.8,11.1c-1.1,2.7-3.7,9.3-11.6,12.9
		S24.1,46,22.9,43.6s-0.8-4-1.4-5c-0.8-1.6-2.2-2.7-2.9-4.5c-0.8-1.6-1-3.5-0.8-5.3c0-0.3,0.1-0.4,0-0.7
		C18.7,21.8,23.1,15.5,28.5,11z"/>
</g>
<g id="INSECT">
	<path id="INSECT_x5F_foot_x5F_back" class="st18" d="M30.3,172.3c-0.6,1.2-0.8,4.5-0.3,7.2s4.1,2.7,6.4,1.9s4.6-2.6,9-5.6
		s5.9-7.7,3.9-8.9s-11.4,2-11.4,2S30.9,170.9,30.3,172.3z"/>
	<g id="INSECT_x5F_foot_x5F_front">
		<path id="INSECT_x5F_foot_x5F_front_1_" class="st18" d="M43.8,176c-0.6,1.2-0.8,4.5-0.3,7.2s4.1,2.6,6.4,1.9
			c2.3-0.8,4.6-2.6,9-5.6s5.9-7.7,3.9-8.9s-11.4,2-11.4,2S44.3,174.6,43.8,176z"/>
		<path id="INSECT_x5F_foot_x5F_front_2_" class="st19" d="M44.3,175.2c-0.5,0.9-0.9,3.3-0.9,5.3s2.2,2.2,3.7,1.9
			c1.5-0.4,3-1.5,6-3.4c2.9-1.8,4.3-5.2,3.2-6.2s-7.1,0.6-7.1,0.6S44.7,174.3,44.3,175.2z"/>
	</g>
	<g id="INSECT_x5F_arm_x5F_back_x5F_bot">
		<path class="st19" d="M25.6,74.9c-0.9,6.1-1.9,13-1.9,13.5c0.1,0.8,1.4,1.7,1.9,2.9c0.5,1.2,0.5,5.6-0.3,5.8s-1-2.5-1.6-2.3
			s-0.7,2.8-0.6,4s0.8,2.6,0.1,2.9c-0.8,0.2-4.1-1.9-4.7-3.9s0-7,0.4-8.3c0.2-0.8,0.5-8.9,0.7-15.4C21.6,74.6,23.6,74.8,25.6,74.9z"
			/>
		<path class="st20" d="M27.2,68.8c-0.4,2.7-1,6.6-1,6.6s-3.3,1.8-7.3,0.1c0,0,0-5.1,0.2-8.2c1-1.3,2.2-2.3,3.3-2.6
			C25.4,62.2,26.3,65.7,27.2,68.8z"/>
	</g>
	<path id="INSECT_x5F_arm_x5F_back_x5F_top" class="st20" d="M20.1,63.9c-0.2,1.6-0.7,6.5-0.7,6.5c1.4,8.1,5.5,0.5,5.5,0.5
		s2.1-6.4,2.2-7s2.3-8.2,3.6-12.2c1.3-4,1.2-9.4-1.9-10.2s-4.6,0.8-5.6,3.8C21.4,51,20.3,62.3,20.1,63.9z"/>
	<path id="INSECT_x5F_leg_x5F_back_x5F_top" class="st21" d="M43,135c-4,12.4-12-0.5-12-0.5l-8.3-29.4c0,0,0-8.6,6-12.8
		c6-4.1,14.3,8.6,14.3,8.6S46.9,122.7,43,135z"/>
	<path id="INSECT_x5F_hip_x5F_back" class="st21" d="M37,77.5l2.5,7.5l-0.9,22.1c-10.2,10.2-16,0.5-16,0.5c-2-2.4,0-11.2,0-11.2
		s2.4-4.1,5.2-5.5s1-3.2,1-3.2l-4.7-10.6L37,77.5z"/>
	<path id="INSECT_x5F_leg_x5F_front_x5F_top" class="st22" d="M50.1,92.4c0,0,9.9,25,4,44.1s-13.5,1.6-13.5,1.6s-3.6-18.4-7.3-34.3
		S43.4,91,43.4,91L50.1,92.4z"/>
	<path id="INSECT_x5F_hip_x5F_front" class="st22" d="M47.2,79.5c4.7,3.7,8,28.9,8,28.9c-12.1,8.3-19.5,0-19.5,0s-6.5-9.2-1.5-15.5
		c5-6.4,0-14.2,0-14.2S42.5,75.8,47.2,79.5z"/>
	<g id="INSECT_x5F_leg_x5F_back_x5F_bot">
		<path class="st21" d="M28.7,167.5c-4.2-12.2,0.5-38.9,1.8-41.1c1.3-2.2,8.2,2.7,8.2,2.7l3.3,36.8
			C36.9,175.2,28.8,167.5,28.7,167.5z"/>
		<path class="st19" d="M30,168.2c0,2.3,0,4.9,0.2,7.2c2.9,0.9,6.3,1,9-0.4c-0.4-0.8-0.7-1.5-0.8-2.1c-0.1-0.8-0.1-1.8,0-3.1
			C35.6,170.6,32.6,170.1,30,168.2z"/>
	</g>
	<g id="INSECT_x5F_leg_x5F_front_x5F_bot">
		<path class="st19" d="M51.5,169.9c-2.6,1.5-5.6,2.6-8.6,2.8c0,1.9-0.1,3.5-0.1,4.8c2.1,2.3,4.9,3,8.2,0.1
			C51.2,175.4,51.3,172.7,51.5,169.9z"/>
		<path class="st22" d="M39.6,168.2c5.6,10.5,14-0.2,14-0.2l1.6-33.4c-4.8-16.1-15.3,0.6-15.3,0.6l-0.3,13.4V168.2z"/>
	</g>
	<path id="INSECT_x5F_hair_x5F_back" class="st23" d="M28.1,13.8c-2.8,2.5-3,7.1-2.9,8.6s-2.8,5.7-3.2,7.9s3,5,4.3,6.5
		c1.4,1.5-0.6,5.5-0.7,6.8s3.7,4.2,5.2,5.1s1.4-2.1,3.1-2.3s2.4-4.2,2.4-4.2l-0.2-5.7l-3.3-19.6l5.1-5.1
		C37.9,11.8,31,11.4,28.1,13.8z"/>
	<path id="INSECT_x5F_top" class="st18" d="M42.5,47.1c-5.1,2-7.4-0.6-9.3-1.9s-3.4-2.1-3.4-2.1s-1.4-0.1-2.9,2.5
		c-1.5-5.3-3,7.7,0,11.4s5.6,10,6.3,13c0.6,3-7.6,7.2-8.5,9.5s-9.8,6.9-5.3,19.8c0,0,10.7-8.5,14-7.4s6.7,7,11.8,7.2
		c5.1,0.1,8.7-6.1,9-7.4s-2.4-15.9-2.4-22.8s2.4-11,2-13.7C53.6,52.6,50.2,45,48.9,43c-1.4-2-6.3-2.1-6.3-2.1S45.3,46,42.5,47.1z"/>
	<g id="INSECT_x5F_arm_x5F_front_x5F_bot">
		<path class="st19" d="M52.5,81.5c0.2,6.1,0.4,13.1,0.3,13.6c-0.1,0.8-1.7,1.6-2.3,2.7s-1.2,5.5-0.4,5.8s1.4-2.4,2-2.1
			c0.7,0.3,0.5,2.9,0.2,4.1c-0.3,1.1-1.2,2.5-0.5,2.8s4.4-1.4,5.3-3.4c0.9-2,0.8-6.9,0.6-8.3c-0.1-0.8,0.6-8.9,1.2-15.4
			C56.8,81.6,54.7,81.6,52.5,81.5z"/>
		<path class="st20" d="M51.8,75.3c0.1,2.7,0.2,6.6,0.2,6.6s3.1,2.2,7.5,0.9c0,0,0.6-5.1,0.8-8.2c-0.8-1.4-2-2.5-3.1-2.9
			C54.4,68.9,53.1,72.3,51.8,75.3z"/>
	</g>
	<path id="INSECT_x5F_arm_x5F_front_x5F_top" class="st20" d="M59.7,72.1c-0.2,1.6-0.7,6.5-0.7,6.5c-3.5,7.7-6.8-0.6-6.8-0.6
		s-1.1-6.7-1-7.3c0-0.6-0.9-8.5-1.6-12.7s0.6-9.4,4.6-9.6c4-0.2,5.5,1.7,6,4.9C61.1,59.3,59.9,70.5,59.7,72.1z"/>
	<g id="INSECT_x5F_wings">
		<path class="st24" d="M42.5,65.8c38.7-14.4,39-25.3,39-25.3c-20.7-6.4-38,11.1-38,11.1L42.5,65.8z"/>
		<path class="st25" d="M36.6,75c41.2,4.7,46.8-4.8,46.8-4.8c-15.1-14.9-39-7.2-39-7.2L36.6,75z"/>
		<path class="st26" d="M33.2,61.5C-3.3,42.5-2.1,31.6-2.1,31.6c21.4-3.8,36.2,15.7,36.2,15.7L33.2,61.5z"/>
		<path class="st27" d="M37.8,71.5C-3.7,71-8,60.9-8,60.9c17.1-13,39.7-2.4,39.7-2.4L37.8,71.5z"/>
	</g>
	<path id="INSECT_x5F_hair_x5F_front" class="st28" d="M46.4,10.4c1.4-1.1,7.2,1.2,7.2,2.4s3.9,1.4,5,1.6c1.1,0.2,4.9,6.2,4.9,6.2
		s0,0,0.6,1.8c0.6,1.7-0.9,8.1,0,9.6c0.9,1.5-2.4,6.4-3.6,7.2c-1.2,0.8-2.3,2-0.7,3.4s-2.9,5.3-5.4,2.9s-0.4,1.3-3.7-0.7
		s0.1,0.7-2.6,1.5s-3.7,3.2-3.7,3.2s-3.3,2.6-6.4-0.6s-3.8-1.6-3.8-1.6l-7.8-6.4c4.1-2.3-0.1-3.9-1.6-5.8c-1.5-1.9-1.1-5.4-1.1-5.4
		C12.3,23.8,34.4,5.1,33.8,12.9C40.2,2.4,45,11.5,46.4,10.4z"/>
	<g id="INSECT_x5F_antennas">
		<path class="st19" d="M43.1,17.5c7.2-17.9,18.1-3.2,17.6-4C48-3.3,42.5,16.2,42.5,16.2L43.1,17.5z"/>
		<ellipse class="st19" cx="60.3" cy="13.1" rx="1.7" ry="1.6"/>
		<path class="st19" d="M31.9,14.7c0.2-0.4,0.6-0.7,1.1-0.8C30.6,9.3,25.3,3.4,16.5,15C16.3,15.2,25,3.9,31.9,14.7z"/>
		<ellipse class="st19" cx="17" cy="14.5" rx="1.7" ry="1.6"/>
	</g>
</g>
</svg>
