<?xml version="1.0" encoding="utf-8"?>
<!-- Generator: Adobe Illustrator 22.0.1, SVG Export Plug-In . SVG Version: 6.00 Build 0)  -->
<svg version="1.1" id="Layer_1" xmlns="http://www.w3.org/2000/svg" xmlns:xlink="http://www.w3.org/1999/xlink" x="0px" y="0px"
	 viewBox="0 0 102 197.6" style="enable-background:new 0 0 102 197.6;" xml:space="preserve">
<style type="text/css">
	.st0{fill:#281406;}
	.st1{fill:#E29E4B;}
	.st2{fill:#D68A69;}
	.st3{fill:#171D49;}
	.st4{fill:#333333;}
	.st5{fill:#48626B;}
	.st6{fill:#506A75;}
	.st7{fill:#FFFFFF;}
	.st8{opacity:0.3;fill:#E8B9A0;enable-background:new    ;}
	.st9{fill:#3A4D57;}
	.st10{fill:#562809;}
	.st11{fill:none;stroke:#231307;stroke-width:0.5;stroke-miterlimit:10;}
	.st12{fill:none;stroke:#331908;stroke-width:0.5;stroke-miterlimit:10;}
	.st13{fill:#4F2508;stroke:#5E2B08;stroke-width:0.5;stroke-miterlimit:10;}

	@-webkit-keyframes leg_back_top {
	  0% { -webkit-transform: translateX(0); transform: translateX(0);}
	  14% {
	    -webkit-transform-origin: -20% 40%;
	            transform-origin: -20% 40%;
	    -webkit-transform: translate(20%, 0%) rotateZ(-15deg);
	            transform: translate(20%, 0%) rotateZ(-15deg);
	  }
	  21% {
	    -webkit-transform-origin: -20% 40%;
	            transform-origin: -20% 40%;
	    -webkit-transform: translate(40%, -20%) rotateZ(-25deg);
	            transform: translate(40%, -20%) rotateZ(-25deg);
	  }
	  28% {
	    -webkit-transform-origin: -20% 40%;
	            transform-origin: -20% 40%;
	    -webkit-transform: translate(20%, 0%) rotateZ(-15deg);
	            transform: translate(20%, 0%) rotateZ(-15deg);
	  }
	  35% {
	    -webkit-transform-origin: -20% 40%;
	            transform-origin: -20% 40%;
	    -webkit-transform: translate(0%, 0%) rotateZ(0deg);
	            transform: translate(0%, 0%) rotateZ(0deg);
	  }
	  42% {
	    -webkit-transform-origin: -20% 40%;
	            transform-origin: -20% 40%;
	    -webkit-transform: translate(0%, 0%) rotateZ(25deg);
	            transform: translate(0%, 0%) rotateZ(25deg);
	  }
	  49% {
	    -webkit-transform-origin: -20% 40%;
	            transform-origin: -20% 40%;
	    -webkit-transform: translate(-10%, -10%) rotateZ(40deg);
	            transform: translate(-10%, -10%) rotateZ(40deg);
	  }
	  60% {
	    -webkit-transform-origin: -20% 40%;
	            transform-origin: -20% 40%;
	    -webkit-transform: translate(0%, 0%) rotateZ(25deg);
	            transform: translate(0%, 0%) rotateZ(25deg);
	  }
	  70% {
	    -webkit-transform-origin: -20% 40%;
	            transform-origin: -20% 40%;
	    -webkit-transform: translate(0%, 0%) rotateZ(15deg);
	            transform: translate(0%, 0%) rotateZ(15deg);
	  }
	  80% {
	    -webkit-transform-origin: -20% 40%;
	            transform-origin: -20% 40%;
	    -webkit-transform: translate(0%, 0%) rotateZ(10deg);
	            transform: translate(0%, 0%) rotateZ(10deg);
	  }
	  90% {
	    -webkit-transform-origin: -20% 40%;
	            transform-origin: -20% 40%;
	    -webkit-transform: translate(0%, 0%) rotateZ(-0deg);
	            transform: translate(0%, 0%) rotateZ(-0deg);
	  }
	}
	@keyframes leg_back_top {
	  0% { -webkit-transform: translateX(0); transform: translateX(0);}
	  14% {
	    -webkit-transform-origin: -20% 40%;
	            transform-origin: -20% 40%;
	    -webkit-transform: translate(20%, 0%) rotateZ(-15deg);
	            transform: translate(20%, 0%) rotateZ(-15deg);
	  }
	  21% {
	    -webkit-transform-origin: -20% 40%;
	            transform-origin: -20% 40%;
	    -webkit-transform: translate(40%, -20%) rotateZ(-25deg);
	            transform: translate(40%, -20%) rotateZ(-25deg);
	  }
	  28% {
	    -webkit-transform-origin: -20% 40%;
	            transform-origin: -20% 40%;
	    -webkit-transform: translate(20%, 0%) rotateZ(-15deg);
	            transform: translate(20%, 0%) rotateZ(-15deg);
	  }
	  35% {
	    -webkit-transform-origin: -20% 40%;
	            transform-origin: -20% 40%;
	    -webkit-transform: translate(0%, 0%) rotateZ(0deg);
	            transform: translate(0%, 0%) rotateZ(0deg);
	  }
	  42% {
	    -webkit-transform-origin: -20% 40%;
	            transform-origin: -20% 40%;
	    -webkit-transform: translate(0%, 0%) rotateZ(25deg);
	            transform: translate(0%, 0%) rotateZ(25deg);
	  }
	  49% {
	    -webkit-transform-origin: -20% 40%;
	            transform-origin: -20% 40%;
	    -webkit-transform: translate(-10%, -10%) rotateZ(40deg);
	            transform: translate(-10%, -10%) rotateZ(40deg);
	  }
	  60% {
	    -webkit-transform-origin: -20% 40%;
	            transform-origin: -20% 40%;
	    -webkit-transform: translate(0%, 0%) rotateZ(25deg);
	            transform: translate(0%, 0%) rotateZ(25deg);
	  }
	  70% {
	    -webkit-transform-origin: -20% 40%;
	            transform-origin: -20% 40%;
	    -webkit-transform: translate(0%, 0%) rotateZ(15deg);
	            transform: translate(0%, 0%) rotateZ(15deg);
	  }
	  80% {
	    -webkit-transform-origin: -20% 40%;
	            transform-origin: -20% 40%;
	    -webkit-transform: translate(0%, 0%) rotateZ(10deg);
	            transform: translate(0%, 0%) rotateZ(10deg);
	  }
	  90% {
	    -webkit-transform-origin: -20% 40%;
	            transform-origin: -20% 40%;
	    -webkit-transform: translate(0%, 0%) rotateZ(-0deg);
	            transform: translate(0%, 0%) rotateZ(-0deg);
	  }
	}
	@-webkit-keyframes leg_back_bot {
	  0% { -webkit-transform: translateX(0); transform: translateX(0);}
	  14% {
	    -webkit-transform-origin: 20% 40%;
	            transform-origin: 20% 40%;
	    -webkit-transform: translate(90%, -20%) rotateZ(-15deg);
	            transform: translate(90%, -20%) rotateZ(-15deg);
	  }
	  21% {
	    -webkit-transform-origin: 20% 40%;
	            transform-origin: 20% 40%;
	    -webkit-transform: translate(130%, -30%) rotateZ(-25deg);
	            transform: translate(130%, -30%) rotateZ(-25deg);
	  }
	  28% {
	    -webkit-transform-origin: 20% 40%;
	            transform-origin: 20% 40%;
	    -webkit-transform: translate(110%, -30%) rotateZ(-90deg);
	            transform: translate(110%, -30%) rotateZ(-90deg);
	  }
	  35% {
	    -webkit-transform-origin: 20% 40%;
	            transform-origin: 20% 40%;
	    -webkit-transform: translate(70%, -20%) rotateZ(-70deg);
	            transform: translate(70%, -20%) rotateZ(-70deg);
	  }
	  42% {
	    -webkit-transform-origin: 20% 40%;
	            transform-origin: 20% 40%;
	    -webkit-transform: translate(-30%, 10%) rotateZ(-20deg);
	            transform: translate(-30%, 10%) rotateZ(-20deg);
	  }
	  49% {
	    -webkit-transform-origin: 20% 40%;
	            transform-origin: 20% 40%;
	    -webkit-transform: translate(-60%, 0%) rotateZ(-20deg);
	            transform: translate(-60%, 0%) rotateZ(-20deg);
	  }
	  60% {
	    -webkit-transform-origin: 20% 40%;
	            transform-origin: 20% 40%;
	    -webkit-transform: translate(-30%, -10%) rotateZ(-20deg);
	            transform: translate(-30%, -10%) rotateZ(-20deg);
	  }
	  70% {
	    -webkit-transform-origin: 20% 40%;
	            transform-origin: 20% 40%;
	    -webkit-transform: translate(-70%, 10%) rotateZ(20deg);
	            transform: translate(-70%, 10%) rotateZ(20deg);
	  }
	  80% {
	    -webkit-transform-origin: 20% 40%;
	            transform-origin: 20% 40%;
	    -webkit-transform: translate(-50%, 10%) rotateZ(15deg);
	            transform: translate(-50%, 10%) rotateZ(15deg);
	  }
	  90% {
	    -webkit-transform-origin: 20% 40%;
	            transform-origin: 20% 40%;
	    -webkit-transform: translate(0%, 10%) rotateZ(0deg);
	            transform: translate(0%, 10%) rotateZ(0deg);
	  }
	}
	@keyframes leg_back_bot {
	  0% { -webkit-transform: translateX(0); transform: translateX(0);}
	  14% {
	    -webkit-transform-origin: 20% 40%;
	            transform-origin: 20% 40%;
	    -webkit-transform: translate(90%, -20%) rotateZ(-15deg);
	            transform: translate(90%, -20%) rotateZ(-15deg);
	  }
	  21% {
	    -webkit-transform-origin: 20% 40%;
	            transform-origin: 20% 40%;
	    -webkit-transform: translate(130%, -30%) rotateZ(-25deg);
	            transform: translate(130%, -30%) rotateZ(-25deg);
	  }
	  28% {
	    -webkit-transform-origin: 20% 40%;
	            transform-origin: 20% 40%;
	    -webkit-transform: translate(110%, -30%) rotateZ(-90deg);
	            transform: translate(110%, -30%) rotateZ(-90deg);
	  }
	  35% {
	    -webkit-transform-origin: 20% 40%;
	            transform-origin: 20% 40%;
	    -webkit-transform: translate(70%, -20%) rotateZ(-70deg);
	            transform: translate(70%, -20%) rotateZ(-70deg);
	  }
	  42% {
	    -webkit-transform-origin: 20% 40%;
	            transform-origin: 20% 40%;
	    -webkit-transform: translate(-30%, 10%) rotateZ(-20deg);
	            transform: translate(-30%, 10%) rotateZ(-20deg);
	  }
	  49% {
	    -webkit-transform-origin: 20% 40%;
	            transform-origin: 20% 40%;
	    -webkit-transform: translate(-60%, 0%) rotateZ(-20deg);
	            transform: translate(-60%, 0%) rotateZ(-20deg);
	  }
	  60% {
	    -webkit-transform-origin: 20% 40%;
	            transform-origin: 20% 40%;
	    -webkit-transform: translate(-30%, -10%) rotateZ(-20deg);
	            transform: translate(-30%, -10%) rotateZ(-20deg);
	  }
	  70% {
	    -webkit-transform-origin: 20% 40%;
	            transform-origin: 20% 40%;
	    -webkit-transform: translate(-70%, 10%) rotateZ(20deg);
	            transform: translate(-70%, 10%) rotateZ(20deg);
	  }
	  80% {
	    -webkit-transform-origin: 20% 40%;
	            transform-origin: 20% 40%;
	    -webkit-transform: translate(-50%, 10%) rotateZ(15deg);
	            transform: translate(-50%, 10%) rotateZ(15deg);
	  }
	  90% {
	    -webkit-transform-origin: 20% 40%;
	            transform-origin: 20% 40%;
	    -webkit-transform: translate(0%, 10%) rotateZ(0deg);
	            transform: translate(0%, 10%) rotateZ(0deg);
	  }
	}
	@-webkit-keyframes foot_back {
	  0% { -webkit-transform: translateX(0); transform: translateX(0);}
	  14% {
	    -webkit-transform-origin: 20% 40%;
	            transform-origin: 20% 40%;
	    -webkit-transform: translate(120%, -40%) rotateZ(0deg);
	            transform: translate(120%, -40%) rotateZ(0deg);
	  }
	  21% {
	    -webkit-transform-origin: 20% 40%;
	            transform-origin: 20% 40%;
	    -webkit-transform: translate(170%, -120%) rotateZ(0deg);
	            transform: translate(170%, -120%) rotateZ(0deg);
	  }
	  28% {
	    -webkit-transform-origin: 20% 40%;
	            transform-origin: 20% 40%;
	    -webkit-transform: translate(170%, -200%) rotateZ(-50deg);
	            transform: translate(170%, -200%) rotateZ(-50deg);
	  }
	  35% {
	    -webkit-transform-origin: 20% 40%;
	            transform-origin: 20% 40%;
	    -webkit-transform: translate(180%, -150%) rotateZ(-50deg);
	            transform: translate(180%, -150%) rotateZ(-50deg);
	  }
	  42% {
	    -webkit-transform-origin: 20% 40%;
	            transform-origin: 20% 40%;
	    -webkit-transform: translate(20%, -20%) rotateZ(0deg);
	            transform: translate(20%, -20%) rotateZ(0deg);
	  }
	  49% {
	    -webkit-transform-origin: 20% 40%;
	            transform-origin: 20% 40%;
	    -webkit-transform: translate(-10%, -80%) rotateZ(0deg);
	            transform: translate(-10%, -80%) rotateZ(0deg);
	  }
	  60% {
	    -webkit-transform-origin: 20% 40%;
	            transform-origin: 20% 40%;
	    -webkit-transform: translate(20%, -20%) rotateZ(0deg);
	            transform: translate(20%, -20%) rotateZ(0deg);
	  }
	  70% {
	    -webkit-transform-origin: 20% 40%;
	            transform-origin: 20% 40%;
	    -webkit-transform: translate(-90%, -20%) rotateZ(0deg);
	            transform: translate(-90%, -20%) rotateZ(0deg);
	  }
	  80% {
	    -webkit-transform-origin: 20% 40%;
	            transform-origin: 20% 40%;
	    -webkit-transform: translate(-90%, 0%) rotateZ(0deg);
	            transform: translate(-90%, 0%) rotateZ(0deg);
	  }
	  90% {
	    -webkit-transform-origin: 20% 40%;
	            transform-origin: 20% 40%;
	    -webkit-transform: translate(20%, 10%) rotateZ(10deg);
	            transform: translate(20%, 10%) rotateZ(10deg);
	  }
	}
	@keyframes foot_back {
	  0% { -webkit-transform: translateX(0); transform: translateX(0);}
	  14% {
	    -webkit-transform-origin: 20% 40%;
	            transform-origin: 20% 40%;
	    -webkit-transform: translate(120%, -40%) rotateZ(0deg);
	            transform: translate(120%, -40%) rotateZ(0deg);
	  }
	  21% {
	    -webkit-transform-origin: 20% 40%;
	            transform-origin: 20% 40%;
	    -webkit-transform: translate(170%, -120%) rotateZ(0deg);
	            transform: translate(170%, -120%) rotateZ(0deg);
	  }
	  28% {
	    -webkit-transform-origin: 20% 40%;
	            transform-origin: 20% 40%;
	    -webkit-transform: translate(170%, -200%) rotateZ(-50deg);
	            transform: translate(170%, -200%) rotateZ(-50deg);
	  }
	  35% {
	    -webkit-transform-origin: 20% 40%;
	            transform-origin: 20% 40%;
	    -webkit-transform: translate(180%, -150%) rotateZ(-50deg);
	            transform: translate(180%, -150%) rotateZ(-50deg);
	  }
	  42% {
	    -webkit-transform-origin: 20% 40%;
	            transform-origin: 20% 40%;
	    -webkit-transform: translate(20%, -20%) rotateZ(0deg);
	            transform: translate(20%, -20%) rotateZ(0deg);
	  }
	  49% {
	    -webkit-transform-origin: 20% 40%;
	            transform-origin: 20% 40%;
	    -webkit-transform: translate(-10%, -80%) rotateZ(0deg);
	            transform: translate(-10%, -80%) rotateZ(0deg);
	  }
	  60% {
	    -webkit-transform-origin: 20% 40%;
	            transform-origin: 20% 40%;
	    -webkit-transform: translate(20%, -20%) rotateZ(0deg);
	            transform: translate(20%, -20%) rotateZ(0deg);
	  }
	  70% {
	    -webkit-transform-origin: 20% 40%;
	            transform-origin: 20% 40%;
	    -webkit-transform: translate(-90%, -20%) rotateZ(0deg);
	            transform: translate(-90%, -20%) rotateZ(0deg);
	  }
	  80% {
	    -webkit-transform-origin: 20% 40%;
	            transform-origin: 20% 40%;
	    -webkit-transform: translate(-90%, 0%) rotateZ(0deg);
	            transform: translate(-90%, 0%) rotateZ(0deg);
	  }
	  90% {
	    -webkit-transform-origin: 20% 40%;
	            transform-origin: 20% 40%;
	    -webkit-transform: translate(20%, 10%) rotateZ(10deg);
	            transform: translate(20%, 10%) rotateZ(10deg);
	  }
	}


	@-webkit-keyframes leg_front_top {
	  0% { -webkit-transform: translateX(0); transform: translateX(0);}
	  7% {
	    -webkit-transform-origin: 20% 40%;
	            transform-origin: 20% 40%;
	    -webkit-transform: translate(-10%, 0%) rotateZ(5deg);
	            transform: translate(-10%, 0%) rotateZ(5deg);
	  }
	  14% {
	    -webkit-transform-origin: 20% 40%;
	            transform-origin: 20% 40%;
	    -webkit-transform: translate(-10%, 0%) rotateZ(10deg);
	            transform: translate(-10%, 0%) rotateZ(10deg);
	  }
	  21% {
	    -webkit-transform-origin: 20% 40%;
	            transform-origin: 20% 40%;
	    -webkit-transform: translate(-10%, 0%) rotateZ(10deg);
	            transform: translate(-10%, 0%) rotateZ(10deg);
	  }
	  35% {
	    -webkit-transform-origin: 20% 40%;
	            transform-origin: 20% 40%;
	    -webkit-transform: translate(-10%, 0%) rotateZ(10deg);
	            transform: translate(-10%, 0%) rotateZ(10deg);
	  }
	  42% {
	    -webkit-transform-origin: 20% 40%;
	            transform-origin: 20% 40%;
	    -webkit-transform: translate(-10%, 0%) rotateZ(-10deg);
	            transform: translate(-10%, 0%) rotateZ(-10deg);
	  }
	  49% {
	    -webkit-transform-origin: 20% 40%;
	            transform-origin: 20% 40%;
	    -webkit-transform: translate(-10%, 0%) rotateZ(-10deg);
	            transform: translate(-10%, 0%) rotateZ(-10deg);
	  }
	  60% {
	    -webkit-transform-origin: 20% 40%;
	            transform-origin: 20% 40%;
	    -webkit-transform: translate(10%, 0%) rotateZ(-30deg);
	            transform: translate(10%, 0%) rotateZ(-30deg);
	  }
	  70% {
	    -webkit-transform-origin: 20% 40%;
	            transform-origin: 20% 40%;
	    -webkit-transform: translate(10%, 0%) rotateZ(-30deg);
	            transform: translate(10%, 0%) rotateZ(-30deg);
	  }
	  80% {
	    -webkit-transform-origin: 20% 40%;
	            transform-origin: 20% 40%;
	    -webkit-transform: translate(10%, 0%) rotateZ(-10deg);
	            transform: translate(10%, 0%) rotateZ(-10deg);
	  }
	  90% {
	    -webkit-transform-origin: 20% 40%;
	            transform-origin: 20% 40%;
	    -webkit-transform: translate(0%, 0%) rotateZ(0deg);
	            transform: translate(0%, 0%) rotateZ(0deg);
	  }
	}


	@keyframes leg_front_top {
	  0% { -webkit-transform: translateX(0); transform: translateX(0);}
	  7% {
	    -webkit-transform-origin: 20% 40%;
	            transform-origin: 20% 40%;
	    -webkit-transform: translate(-10%, 0%) rotateZ(5deg);
	            transform: translate(-10%, 0%) rotateZ(5deg);
	  }
	  14% {
	    -webkit-transform-origin: 20% 40%;
	            transform-origin: 20% 40%;
	    -webkit-transform: translate(-10%, 0%) rotateZ(10deg);
	            transform: translate(-10%, 0%) rotateZ(10deg);
	  }
	  21% {
	    -webkit-transform-origin: 20% 40%;
	            transform-origin: 20% 40%;
	    -webkit-transform: translate(-10%, 0%) rotateZ(10deg);
	            transform: translate(-10%, 0%) rotateZ(10deg);
	  }
	  35% {
	    -webkit-transform-origin: 20% 40%;
	            transform-origin: 20% 40%;
	    -webkit-transform: translate(-10%, 0%) rotateZ(10deg);
	            transform: translate(-10%, 0%) rotateZ(10deg);
	  }
	  42% {
	    -webkit-transform-origin: 20% 40%;
	            transform-origin: 20% 40%;
	    -webkit-transform: translate(-10%, 0%) rotateZ(-10deg);
	            transform: translate(-10%, 0%) rotateZ(-10deg);
	  }
	  49% {
	    -webkit-transform-origin: 20% 40%;
	            transform-origin: 20% 40%;
	    -webkit-transform: translate(-10%, 0%) rotateZ(-10deg);
	            transform: translate(-10%, 0%) rotateZ(-10deg);
	  }
	  60% {
	    -webkit-transform-origin: 20% 40%;
	            transform-origin: 20% 40%;
	    -webkit-transform: translate(10%, 0%) rotateZ(-30deg);
	            transform: translate(10%, 0%) rotateZ(-30deg);
	  }
	  70% {
	    -webkit-transform-origin: 20% 40%;
	            transform-origin: 20% 40%;
	    -webkit-transform: translate(10%, 0%) rotateZ(-30deg);
	            transform: translate(10%, 0%) rotateZ(-30deg);
	  }
	  80% {
	    -webkit-transform-origin: 20% 40%;
	            transform-origin: 20% 40%;
	    -webkit-transform: translate(10%, 0%) rotateZ(-10deg);
	            transform: translate(10%, 0%) rotateZ(-10deg);
	  }
	  90% {
	    -webkit-transform-origin: 20% 40%;
	            transform-origin: 20% 40%;
	    -webkit-transform: translate(0%, 0%) rotateZ(0deg);
	            transform: translate(0%, 0%) rotateZ(0deg);
	  }
	}
	@-webkit-keyframes leg_front_bot {
	  0% { -webkit-transform: translateX(0); transform: translateX(0);}
	  7% {
	    -webkit-transform-origin: 20% 40%;
	            transform-origin: 20% 40%;
	    -webkit-transform: translate(-30%, 0%) rotateZ(20deg);
	            transform: translate(-30%, 0%) rotateZ(20deg);
	  }
	  14% {
	    -webkit-transform-origin: 20% 40%;
	            transform-origin: 20% 40%;
	    -webkit-transform: translate(-30%, 0%) rotateZ(30deg);
	            transform: translate(-30%, 0%) rotateZ(30deg);
	  }
	  21% {
	    -webkit-transform-origin: 20% 40%;
	            transform-origin: 20% 40%;
	    -webkit-transform: translate(-50%, 0%) rotateZ(30deg);
	            transform: translate(-50%, 0%) rotateZ(30deg);
	  }
	  28% {
	    -webkit-transform-origin: 20% 40%;
	            transform-origin: 20% 40%;
	    -webkit-transform: translate(-50%, 0%) rotateZ(40deg);
	            transform: translate(-50%, 0%) rotateZ(40deg);
	  }
	  42% {
	    -webkit-transform-origin: 20% 40%;
	            transform-origin: 20% 40%;
	    -webkit-transform: translate(-10%, 0%) rotateZ(30deg);
	            transform: translate(-10%, 0%) rotateZ(30deg);
	  }
	  49% {
	    -webkit-transform-origin: 20% 40%;
	            transform-origin: 20% 40%;
	    -webkit-transform: translate(-20%, 0%) rotateZ(30deg);
	            transform: translate(-20%, 0%) rotateZ(30deg);
	  }
	  60% {
	    -webkit-transform-origin: 20% 40%;
	            transform-origin: 20% 40%;
	    -webkit-transform: translate(55%, 0%) rotateZ(0deg);
	            transform: translate(55%, 0%) rotateZ(0deg);
	  }
	  70% {
	    -webkit-transform-origin: 20% 40%;
	            transform-origin: 20% 40%;
	    -webkit-transform: translate(55%, 10%) rotateZ(0deg);
	            transform: translate(55%, 10%) rotateZ(0deg);
	  }
	  80% {
	    -webkit-transform-origin: 20% 40%;
	            transform-origin: 20% 40%;
	    -webkit-transform: translate(25%, 10%) rotateZ(0deg);
	            transform: translate(25%, 10%) rotateZ(0deg);
	  }
	  90% {
	    -webkit-transform-origin: 20% 40%;
	            transform-origin: 20% 40%;
	    -webkit-transform: translate(0%, 0%) rotateZ(0deg);
	            transform: translate(0%, 0%) rotateZ(0deg);
	  }
	}
	@keyframes leg_front_bot {
	  0% { -webkit-transform: translateX(0); transform: translateX(0);}
	  7% {
	    -webkit-transform-origin: 20% 40%;
	            transform-origin: 20% 40%;
	    -webkit-transform: translate(-30%, 0%) rotateZ(20deg);
	            transform: translate(-30%, 0%) rotateZ(20deg);
	  }
	  14% {
	    -webkit-transform-origin: 20% 40%;
	            transform-origin: 20% 40%;
	    -webkit-transform: translate(-30%, 0%) rotateZ(30deg);
	            transform: translate(-30%, 0%) rotateZ(30deg);
	  }
	  21% {
	    -webkit-transform-origin: 20% 40%;
	            transform-origin: 20% 40%;
	    -webkit-transform: translate(-50%, 0%) rotateZ(30deg);
	            transform: translate(-50%, 0%) rotateZ(30deg);
	  }
	  28% {
	    -webkit-transform-origin: 20% 40%;
	            transform-origin: 20% 40%;
	    -webkit-transform: translate(-50%, 0%) rotateZ(40deg);
	            transform: translate(-50%, 0%) rotateZ(40deg);
	  }
	  42% {
	    -webkit-transform-origin: 20% 40%;
	            transform-origin: 20% 40%;
	    -webkit-transform: translate(-10%, 0%) rotateZ(30deg);
	            transform: translate(-10%, 0%) rotateZ(30deg);
	  }
	  49% {
	    -webkit-transform-origin: 20% 40%;
	            transform-origin: 20% 40%;
	    -webkit-transform: translate(-20%, 0%) rotateZ(30deg);
	            transform: translate(-20%, 0%) rotateZ(30deg);
	  }
	  60% {
	    -webkit-transform-origin: 20% 40%;
	            transform-origin: 20% 40%;
	    -webkit-transform: translate(55%, 0%) rotateZ(0deg);
	            transform: translate(55%, 0%) rotateZ(0deg);
	  }
	  70% {
	    -webkit-transform-origin: 20% 40%;
	            transform-origin: 20% 40%;
	    -webkit-transform: translate(55%, 10%) rotateZ(0deg);
	            transform: translate(55%, 10%) rotateZ(0deg);
	  }
	  80% {
	    -webkit-transform-origin: 20% 40%;
	            transform-origin: 20% 40%;
	    -webkit-transform: translate(25%, 10%) rotateZ(0deg);
	            transform: translate(25%, 10%) rotateZ(0deg);
	  }
	  90% {
	    -webkit-transform-origin: 20% 40%;
	            transform-origin: 20% 40%;
	    -webkit-transform: translate(0%, 0%) rotateZ(0deg);
	            transform: translate(0%, 0%) rotateZ(0deg);
	  }
	}
	@-webkit-keyframes foot_front {
	  0% { -webkit-transform: translateX(0); transform: translateX(0);}
	  7% {
	    -webkit-transform-origin: 20% 40%;
	            transform-origin: 20% 40%;
	    -webkit-transform: translate(-70%, 40%);
	            transform: translate(-70%, 40%);
	  }
	  14% {
	    -webkit-transform-origin: 20% 40%;
	            transform-origin: 20% 40%;
	    -webkit-transform: translate(-90%, 40%);
	            transform: translate(-90%, 40%);
	  }
	  21% {
	    -webkit-transform-origin: 20% 40%;
	            transform-origin: 20% 40%;
	    -webkit-transform: translate(-100%, 20%);
	            transform: translate(-100%, 20%);
	  }
	  28% {
	    -webkit-transform-origin: 20% 40%;
	            transform-origin: 20% 40%;
	    -webkit-transform: translate(-120%, 20%);
	            transform: translate(-120%, 20%);
	  }
	  35% {
	    -webkit-transform-origin: 20% 40%;
	            transform-origin: 20% 40%;
	    -webkit-transform: translate(-100%, 0%)  rotateZ(0deg);
	            transform: translate(-100%, 0%)  rotateZ(0deg);
	  }
	  42% {
	    -webkit-transform-origin: 20% 40%;
	            transform-origin: 20% 40%;
	    -webkit-transform: translate(-80%, 20%)  rotateZ(0deg);
	            transform: translate(-80%, 20%)  rotateZ(0deg);
	  }
	  49% {
	    -webkit-transform-origin: 20% 40%;
	            transform-origin: 20% 40%;
	    -webkit-transform: translate(-80%, 20%)  rotateZ(0deg);
	            transform: translate(-80%, 20%)  rotateZ(0deg);
	  }
	  60% {
	    -webkit-transform-origin: 20% 40%;
	            transform-origin: 20% 40%;
	    -webkit-transform: translate(80%, 20%)  rotateZ(0deg);
	            transform: translate(80%, 20%)  rotateZ(0deg);
	  }
	  70% {
	    -webkit-transform-origin: 20% 40%;
	            transform-origin: 20% 40%;
	    -webkit-transform: translate(80%, 20%)  rotateZ(20deg);
	            transform: translate(80%, 20%)  rotateZ(20deg);
	  }
	  80% {
	    -webkit-transform-origin: 20% 40%;
	            transform-origin: 20% 40%;
	    -webkit-transform: translate(50%, 20%)  rotateZ(20deg);
	            transform: translate(50%, 20%)  rotateZ(20deg);
	  }
	  90% {
	    -webkit-transform-origin: 20% 40%;
	            transform-origin: 20% 40%;
	    -webkit-transform: translate(20%, 0%)  rotateZ(20deg);
	            transform: translate(20%, 0%)  rotateZ(20deg);
	  }
	}
	@keyframes foot_front {
	  0% { -webkit-transform: translateX(0); transform: translateX(0);}
	  7% {
	    -webkit-transform-origin: 20% 40%;
	            transform-origin: 20% 40%;
	    -webkit-transform: translate(-70%, 40%);
	            transform: translate(-70%, 40%);
	  }
	  14% {
	    -webkit-transform-origin: 20% 40%;
	            transform-origin: 20% 40%;
	    -webkit-transform: translate(-90%, 40%);
	            transform: translate(-90%, 40%);
	  }
	  21% {
	    -webkit-transform-origin: 20% 40%;
	            transform-origin: 20% 40%;
	    -webkit-transform: translate(-100%, 20%);
	            transform: translate(-100%, 20%);
	  }
	  28% {
	    -webkit-transform-origin: 20% 40%;
	            transform-origin: 20% 40%;
	    -webkit-transform: translate(-120%, 20%);
	            transform: translate(-120%, 20%);
	  }
	  35% {
	    -webkit-transform-origin: 20% 40%;
	            transform-origin: 20% 40%;
	    -webkit-transform: translate(-100%, 0%)  rotateZ(0deg);
	            transform: translate(-100%, 0%)  rotateZ(0deg);
	  }
	  42% {
	    -webkit-transform-origin: 20% 40%;
	            transform-origin: 20% 40%;
	    -webkit-transform: translate(-80%, 20%)  rotateZ(0deg);
	            transform: translate(-80%, 20%)  rotateZ(0deg);
	  }
	  49% {
	    -webkit-transform-origin: 20% 40%;
	            transform-origin: 20% 40%;
	    -webkit-transform: translate(-80%, 20%)  rotateZ(0deg);
	            transform: translate(-80%, 20%)  rotateZ(0deg);
	  }
	  60% {
	    -webkit-transform-origin: 20% 40%;
	            transform-origin: 20% 40%;
	    -webkit-transform: translate(80%, 20%)  rotateZ(0deg);
	            transform: translate(80%, 20%)  rotateZ(0deg);
	  }
	  70% {
	    -webkit-transform-origin: 20% 40%;
	            transform-origin: 20% 40%;
	    -webkit-transform: translate(80%, 20%)  rotateZ(20deg);
	            transform: translate(80%, 20%)  rotateZ(20deg);
	  }
	  80% {
	    -webkit-transform-origin: 20% 40%;
	            transform-origin: 20% 40%;
	    -webkit-transform: translate(50%, 20%)  rotateZ(20deg);
	            transform: translate(50%, 20%)  rotateZ(20deg);
	  }
	  90% {
	    -webkit-transform-origin: 20% 40%;
	            transform-origin: 20% 40%;
	    -webkit-transform: translate(20%, 0%)  rotateZ(20deg);
	            transform: translate(20%, 0%)  rotateZ(20deg);
	  }
	}


	@-webkit-keyframes arm_back_top {
	  0% { -webkit-transform: translateX(0); transform: translateX(0);}
	  42% {
	    -webkit-transform-origin: 20% 40%;
	            transform-origin: 20% 40%;
	    -webkit-transform: translate(40%, 0%)  rotateZ(0deg);
	            transform: translate(40%, 0%)  rotateZ(0deg);
	  }
	}


	@keyframes arm_back_top {
	  0% { -webkit-transform: translateX(0); transform: translateX(0);}
	  42% {
	    -webkit-transform-origin: 20% 40%;
	            transform-origin: 20% 40%;
	    -webkit-transform: translate(40%, 0%)  rotateZ(0deg);
	            transform: translate(40%, 0%)  rotateZ(0deg);
	  }
	}
	@-webkit-keyframes arm_back_bot {
	  0% { -webkit-transform: translateX(0); transform: translateX(0);}
	  42% {
	    -webkit-transform-origin: 20% 40%;
	            transform-origin: 20% 40%;
	    -webkit-transform: translate(100%, 0%)  rotateZ(20deg);
	            transform: translate(100%, 0%)  rotateZ(20deg);
	  }
	}
	@keyframes arm_back_bot {
	  0% { -webkit-transform: translateX(0); transform: translateX(0);}
	  42% {
	    -webkit-transform-origin: 20% 40%;
	            transform-origin: 20% 40%;
	    -webkit-transform: translate(100%, 0%)  rotateZ(20deg);
	            transform: translate(100%, 0%)  rotateZ(20deg);
	  }
	}
	@-webkit-keyframes arm_front_top {
	  0% { -webkit-transform: translateX(0); transform: translateX(0);}
	  45% {
	    -webkit-transform-origin: 20% 40%;
	            transform-origin: 20% 40%;
	    -webkit-transform: translate(-20%, -5%)  rotateZ(20deg);
	            transform: translate(-20%, -5%)  rotateZ(20deg);
	  }
	}
	@keyframes arm_front_top {
	  0% { -webkit-transform: translateX(0); transform: translateX(0);}
	  45% {
	    -webkit-transform-origin: 20% 40%;
	            transform-origin: 20% 40%;
	    -webkit-transform: translate(-20%, -5%)  rotateZ(20deg);
	            transform: translate(-20%, -5%)  rotateZ(20deg);
	  }
	}
	@-webkit-keyframes arm_front_bot {
	  0% { -webkit-transform: translateX(0); transform: translateX(0);}
	  45% {
	    -webkit-transform-origin: 20% 40%;
	            transform-origin: 20% 40%;
	    -webkit-transform: translate(-130%, -5%)  rotateZ(50deg);
	            transform: translate(-130%, -5%)  rotateZ(50deg);
	  }
	}
	@keyframes arm_front_bot {
	  0% { -webkit-transform: translateX(0); transform: translateX(0);}
	  45% {
	    -webkit-transform-origin: 20% 40%;
	            transform-origin: 20% 40%;
	    -webkit-transform: translate(-130%, -5%)  rotateZ(50deg);
	            transform: translate(-130%, -5%)  rotateZ(50deg);
	  }
	}









	#foot_x5F_front {
	  -webkit-animation : foot_front 1.5s linear infinite;
	          animation : foot_front 1.5s linear infinite;
	}
	#foot_x5F_back {
	  -webkit-animation : foot_back 1.5s linear infinite;
	          animation : foot_back 1.5s linear infinite;
	}
	#leg_x5F_back_x5F_top {
	  -webkit-animation : leg_back_top 1.5s linear infinite;
	          animation : leg_back_top 1.5s linear infinite;
	}
	#leg_x5F_back_x5F_bot{
	  -webkit-animation : leg_back_bot 1.5s linear infinite;
	          animation : leg_back_bot 1.5s linear infinite;
	}
	#leg_x5F_front_x5F_bot{
	  -webkit-animation : leg_front_bot 1.5s linear infinite;
	          animation : leg_front_bot 1.5s linear infinite;
	}
	#leg_x5F_front_x5F_top{
	  -webkit-animation : leg_front_top 1.5s linear infinite;
	          animation : leg_front_top 1.5s linear infinite;
	}
	#arm_x5F_back_x5F_top {
	  -webkit-animation : arm_back_top 1.5s linear infinite;
	          animation : arm_back_top 1.5s linear infinite;
	}
	#arm_x5F_back_x5F_bot {
	  -webkit-animation : arm_back_bot 1.5s linear infinite;
	          animation : arm_back_bot 1.5s linear infinite;
	}
	#arm_x5F_front_x5F_top {
	  -webkit-animation : arm_front_top 1.5s linear infinite;
	          animation : arm_front_top 1.5s linear infinite;
	}
	#arm_x5F_front_x5F_bot {
	  -webkit-animation : arm_front_bot 1.5s linear infinite;
	          animation : arm_front_bot 1.5s linear infinite;
	}
</style>
<g id="_x30_0">
	<circle id="tail" class="st0" cx="64.9" cy="102.7" r="6.5"/>
	<path id="CAT_x5F_tail" class="st1" d="M67.6,103.2c0,0,12.5,0.6,8.8,18.2s7.3,26.4,7.3,26.4s7.6,4.8,1.4-2.7
		c-6.1-7.6-7.4-11-6.2-22.7c1.3-11.7,0.4-24.6-9.7-26.1S67.6,103.2,67.6,103.2z"/>
	<path id="arm_x5F_back_x5F_bot" class="st2" d="M26,106.5c0,0-0.5-18.6,5.4-24.1s5.5,2.5,5.5,2.5C27.3,109.6,26,106.5,26,106.5z"/>
	<path id="arm_x5F_back_x5F_top" class="st2" d="M43,71.8c-3.1,6.1-4.2,14.1-11.1,16c-2.6,0.7-1.7-6.1-0.5-9.4
		c0.8-2.2,4.3-16.9,4.6-17.7c1.9-5.3,4.5-14.3,10.2-12.2C53,51,46,65.7,43,71.8z"/>
	<path id="foot_x5F_back" class="st3" d="M33,180.7c3.7,2.9,5.3,0.4,8.8,0.3c3.5-0.1,5.2-4.3,7-5.1s0.3-2.1,0.9-1.4
		c0.3,0.1,0.8,0.4,1.1-0.3c0,0-0.2,0.8,0-0.3c0.1-1.3,1.6-11.4-0.2-8.2c-2.8,0.1-5.7,0.4-8.4,1C38.8,167.9,29.1,177.6,33,180.7z"/>
	<path id="leg_x5F_back_x5F_bot" class="st4" d="M39.7,130.8l-0.1,38.7c11.1,7,16.3-4.4,16.3-4.4c-2.9-30.1-5.5-29.8-5.5-29.8
		C46.9,122.1,39.7,130.8,39.7,130.8z"/>
	<path id="leg_x5F_back_x5F_top" class="st4" d="M38,98.5c-0.8,11.3,2.1,23.5,1.6,34.8c-0.6,11.3,12.9,11.3,13,2.6s0.2-8,0.4-18.1
		c0.1-10.1-0.6-15.2-1.7-24.5C46.7,94.8,38.7,87.4,38,98.5z"/>
	<path id="CAT_x5F_leg_x5F_back_x5F_bot" class="st5" d="M51,134.6c1.2,0.6,2.1,1.4,2.7,2.4v29c-5.6,4.1-11.8,0-11.8,0
		s-1.9-18.5-4-28.3C41.7,134.2,46.3,131.8,51,134.6z"/>
	<path id="CAT_x5F_leg_x5F_back_x5F_top" class="st5" d="M57,89.6c0,0.8,0,2.3,0,3.3l-3.3,22v22.4c-2.1,2.7-5.4,4.3-8.7,3.2
		c-3-0.6-5,0.8-6.8-1.5c-0.4-1.5-1.4-5.7-1.7-6.4c-2.5-5.2-2.2-22.7-1.4-32.3c0.3-3.8,1-8.2,1.7-12.3C42.6,84.7,52.1,84.8,57,89.6z"
		/>
	<path id="CAT_x5F_hip_x5F_back" class="st5" d="M35,101.3c0-0.3,0.1-0.6,0.1-0.9c0.9-9.6,3.8-23.6,3.8-23.6L53,73.4l6,6.4
		l-3.5,23.4C49.2,105.1,39.9,105.7,35,101.3z"/>
	<path id="foot_x5F_front" class="st3" d="M65.2,155.5c-4,2.6-9.9,9-10.8,12.9c-0.8,3.9,1.3,3.7,2.8,5.6c1.5,1.9,5.4,1.9,6.8,0.8
		c4.4-3.5,6.1-8.1,8.5-12.7C70,159.9,67.7,157.6,65.2,155.5z"/>
	<path id="leg_x5F_front_x5F_bot" class="st4" d="M61.1,159c0,0,5.3,4.1,9.5,4.6s6.1-2.5,6.1-2.5l-2.6-7.8
		c-8.7-18.3-15-25.8-15-25.8l-8.2,3.8L61.1,159z"/>
	<path id="leg_x5F_front_x5F_top" class="st4" d="M51.3,94.3c-2.4,9.9,1.2,22.1-0.4,31.7c-2.3,13.9,8.5,11.3,8.5,11.3s0.3-3,3-9.9
		c1.7-4.3,5.7-8.6,6.1-13.4c1-12.5,0.4-19.6,0.4-19.6S52.4,90,51.3,94.3z"/>
	<path id="CAT_x5F_leg_x5F_front_x5F_bot" class="st6" d="M48.5,113.4c3.3,0.5,7.7,3.3,10.8,7c2.2,3.8,5.4,8.6,7.5,12.2
		c3.1,5.1,11.3,26,11.3,26s-1,2.2-4.7,3.9c-3.7,1.7-6.1,1-6.1,1c-0.9-2.7-7.8-13.2-9.4-16.7s-8.2-11.4-9.7-12.6
		c-1-0.7-3-3.1-4.7-5.3C40.6,122.4,39.7,112.8,48.5,113.4z"/>
	<path id="CAT_x5F_leg_x5F_front_x5F_top" class="st6" d="M44,130.2c-1-0.6-1.6-2-2.1-3.7c0.1-2.1,0.2-4.1,0.5-5.3
		c0.6-2.5,5.4-19.2,5-21.2c0-0.2-0.1-0.4-0.2-0.6c0.7-6.6,7-12.2,13.5-11.5c3.5,0.9,7.5,2.4,9.5,5.6c0.1,2.3,0.1,8.3-1.8,13.9
		c-2.4,7-6.9,13.4-7.9,16.6c-0.1,0.4-0.2,0.9-0.4,1.4C55.4,130,49,133.1,44,130.2z"/>
	<path id="CAT_x5F_hip_x5F_front" class="st6" d="M43.4,77.9l3.4-4.3c0,0,14.1-0.2,14.5-0.2c0.4,0,3.5,4.6,3.5,4.6l5.4,11.9
		c0,0,0.4,1.3,0.9,3.4c-3.1,7.4-13.1,10.2-21.6,8.7c-1.4-1.9-5-5-6.1-8.5C42.1,89.5,43.4,77.9,43.4,77.9z"/>
	<path id="chest" class="st2" d="M48.8,40.4c0,2,0.6,4.9-1.8,5.7c-5.5,1.9-4.8,13.1-1.6,13.5c5,0.7,21.7-7,19.9-10.5L60,45.5v-6.7
		C56.6,34.9,48.8,40.5,48.8,40.4z"/>
	<path id="top" class="st7" d="M66.6,75.6c1.9-6.7,0-6.1-1.9-7.4s-5.7-6.8-5.1-13c0,0-11.6-0.2-15.5,5.6c0,0-0.3-1.1-3.1-7.7
		c0,0-2.6,4.5-4.6,7.6s2.7,8.6,1.7,12.6c-1.2,4.9,1,11.7,0.1,22.4c0,0,5.1,3.8,14.4,3.8c9.2,0,16.2-3.8,16.2-3.8
		C65.7,86.3,65.8,80.3,66.6,75.6z"/>
	<path id="arm_x5F_front_x5F_top" class="st2" d="M74.8,71.3c0.2,1.3,2.9,17.2,1.5,20.1c-1.6,3.3-7.3-6.6-7.8-7.7
		c-1.7-4-6.2-12.5-7.2-17.3s-2.8-14.7,3.3-16.3C71.8,48.3,73.8,65.4,74.8,71.3z"/>
	<path id="arm_x5F_front_x5F_bot" class="st2" d="M76.6,111.1c0,0-0.5,2.9-1.7,0c-1.8-4.5-7.4-24.4-7-30.8c0.9-14.4,7.9,5.4,7.9,5.4
		C79.3,90.7,76.6,111.1,76.6,111.1z"/>
	<path id="neck" class="st8" d="M57.3,45.6c1.2-1.7,2.4-4.4,2.8-6.5C56.8,34.8,48.3,40,48.3,40c-0.1,1-0.1,2.2-0.3,3.3
		c0.1-0.1,0.1-0.1,0.2-0.2c0.2-0.3,0.5-0.2,0.7,0c0.7-0.9,1.5-1.8,1.9-2.7c0.3-0.6,1.3-0.3,1,0.3c-0.7,1.4-3,2.1-3.8,3.5
		c-0.6,1-0.7,1.3-0.9,2.5c-0.4,2.9,3.7,2.7,5.4,2C54.5,47.9,56.2,47.1,57.3,45.6z"/>
	<path id="CAT_x5F_top" class="st9" d="M62.2,79.1c0,0-1,1-12,0.6c-11-0.4-13.4-4.2-13.4-4.2s0.2-9.9,0.3-11.3
		c0.1-1.4-2.7-3.8-2.7-4.8c0-1,2.3-6.9,6.9-11.3c1.7-1.6,3.9-2.3,6.5-2.5c-0.4,0.3-4.7,3.4-4.6,5.4c0.1,2,9.8,6,13.6,6
		c3.8,0,6-3.9,11.3-5.2c4.7,2.4,7,4.3,8.1,8.5c1,3.8-10.7,7.5-11.7,10.6C63.6,73.9,62.2,79.1,62.2,79.1z"/>
	<path id="hair_x5F_back" class="st10" d="M47.1,46c-6.3,4.3-4.7,16.4-7.2,16s-2.6-3-2.6-3c5.1-9.1,3.9-25.7,3.9-25.7
		C47.8,29.9,47.1,46,47.1,46z"/>
	<path id="head" class="st2" d="M40.6,27.3c0.3,3.3,0.7,4.9,0.8,8.1c1.1,2.8,2.6,6.1,4.7,7.9c3,1.3,6.4,1.3,9.3,0
		c0.9-0.6,1.7-1.2,2.3-1.9c2.7-2.8,1.2-1,3.8-5.4c2.6-4.4,8.2-12.2,2.8-19.3C59,9.6,47.3,9,41.5,16.6C38.9,20.1,40.2,23.9,40.6,27.3
		z"/>
	<path id="hair_x5F_front" class="st0" d="M57.3,20.4c-11.6,11.1-22.1,6.2-22.1,6.2c1.2-0.2,1.9-2.2,3.1-9.4
		C39.5,10,48.4,6.6,57.4,8.1s8.8,9,8.8,9s5.9,3.5,4,12.1s-3.4,20.7-3.4,20.7c-7.4-2.6-8.4,15.6-8.4,15.6c-1.2-1-2.2,0.1-4.2,0
		c-2.1-0.1-2.5-2.3-2.5-2.3c0.1-2.6,1.4-10.6,5.2-14.6s3.1-9.8,3.1-9.8c-1.2-2.4-0.3-3.8-0.3-3.8c1.1,0.9,1.5-0.8,1.9-2.2
		c0.4-1.4,2.5-4.7,0.5-5.3c-2-0.6-2.9,2.7-2.9,2.7C54,27.3,57.4,20.4,57.3,20.4z"/>
	<path id="CAT_x5F_hair" class="st1" d="M44.5,16c0,0,5.2,7.8,8.5,12c3.3,4.3,6.9,10.3,6,15c-1,4.8-5.1,11.9-4.4,18.8
		c0.7,6.8,2.6,7.2,2.6,7.2s3.5-12.7,4.8-16c1.3-3.3,3-4.3,3-4.3l7.3,6.3c0,0-1.8-5.4-2.5-12.9C69.2,34.8,70,21.7,67,15.2
		c-3-6.5-7.2-6.6-9-6.5c-1.8,0.1-1.8,0.1-1.8,0.1s-1-1-4.3-1.2c-3.3-0.2-10.5,2.9-11.6,7.2c-1.2,4.3,1.2,9.7,1.2,9.7
		S41.1,18.5,44.5,16z"/>
	<polyline id="ear" class="st2" points="62.4,17.2 67.4,21.2 67.4,12.2 	"/>
	<line id="whisker_x5F_right_x5F_bot" class="st11" x1="33.2" y1="38.8" x2="42.6" y2="35.3"/>
	<line id="whisker_x5F_left_x5F_top" class="st12" x1="66.4" y1="33.2" x2="52.4" y2="34.2"/>
	<line id="whisker_x5F_left_x5F_mid" class="st11" x1="66.4" y1="36.2" x2="52.4" y2="35.1"/>
	<line id="whisker_x5F_left_x5F_bot" class="st11" x1="66.2" y1="39.4" x2="52.6" y2="35.9"/>
	<line id="whisker_x5F_right_x5F_mid" class="st11" x1="32.6" y1="36.6" x2="42.4" y2="34.6"/>
	<line id="whisker_x5F_right_x5F_top" class="st11" x1="32.1" y1="34.3" x2="42.1" y2="34"/>
	<polygon id="nose" class="st13" points="47.9,37.7 45.9,35.6 48.9,35.7 	"/>
</g>
</svg>
