<?xml version="1.0" encoding="utf-8"?>
<!-- Generator: Adobe Illustrator 22.0.1, SVG Export Plug-In . SVG Version: 6.00 Build 0)  -->
<svg version="1.1" id="Layer_1" xmlns="http://www.w3.org/2000/svg" xmlns:xlink="http://www.w3.org/1999/xlink" x="0px" y="0px"
	 viewBox="0 0 85.5 196.8" style="enable-background:new 0 0 85.5 196.8;" xml:space="preserve">
<style type="text/css">
	.st0{fill:#D68A69;}
	.st1{fill:#171D49;}
	.st2{fill:#333333;}
	.st3{fill:#FFFFFF;}
	.st4{fill:#281406;}
</style>
<g id="Layer_1_1_">
	<g id="left">
		<g id="_x30_0_2_">
			<polyline id="ear_x5F_front" class="st0" points="45.7,20.2 50.7,24.2 50.7,15.2 			"/>
			<polyline id="ear_x5F_back" class="st0" points="21.6,22.1 27.4,19.4 19.3,15.4 			"/>
			<path id="arm_x5F_back_x5F_top" class="st0" d="M13.1,78c0.8-3.7,1.5-6.6,1.6-8.2c0.7-6.2,2.5-20.2,8.8-18.5
				c5.3,1.4,3.1,9.6,2,14.8c-0.2,0.8-4.4,11.5-5.3,14.4c-0.1,0.2-0.2,0.5-0.3,1c-1.8,1.5-3.2,2.7-3.9,1.2C14,81.4,13.1,80.7,13.1,78
				z"/>
			<path id="arm_x5F_back_x5F_bot" class="st0" d="M13.1,78c1.1-1.6,2.7-2.5,4.6-1.2c0.7,1.4,2,2.9,2.2,4.7
				c-1.6,5.8-8.7,32.4-11.4,28.4C6.4,106.7,10.6,89.1,13.1,78z"/>
			<path id="foot_x5F_front" class="st1" d="M39.8,181.6c5.4-0.4,15.9-4,19-7.1c3.2-3.1,0.9-3.7,0.4-6.2s-3.9-4.3-6-3.9
				c-6.5,1.2-11.8,4.5-17,8.2C37.5,175.6,38.6,178.7,39.8,181.6z"/>
			<path id="foot_x5F_back" class="st1" d="M34.4,161.7c4.2-3.2,1.7-7.5,0.4-11.2c-1.3-3.6-6.2-2.6-8.3-3s-1.3,0.8-2.3,0.2
				c-0.4-0.3-0.3-0.8-1-0.5c0.3-0.3,0-0.2-0.4,0.3c-0.4,0.4-4.2,4.5-3.5,5.2c1.9,1.9,4.2,3.2,6.5,4.6
				C28.8,159.2,30.2,165,34.4,161.7z"/>
			<path id="leg_x5F_back_x5F_top" class="st2" d="M41.6,102.5l12.1,28.7c0,0,6.5,15.8-10.4,7l-17.2-27c0,0-6.4-9.9-2.7-13.5
				C27.1,94,41.6,102.5,41.6,102.5z"/>
			<path id="leg_x5F_back_x5F_bot" class="st2" d="M36.7,150.3L24,155.8c0,0-7.1-4.7-6.5-10.4s30.8-14.6,30.8-14.6s11.1,1.5,5.3,9.4
				C47.8,148.2,36.7,150.3,36.7,150.3z"/>
			<path id="leg_x5F_front_x5F_bot" class="st2" d="M40.8,133.8c4.8-2.1,8.7,0.6,10,4.8c-0.7,15-1.4,31.5-1.6,33.4
				c0,0-1.7,4.4-7.3,4.2s-6.7-4-6.7-4s-0.1-25,0.3-33C36.7,137.1,38.4,135.2,40.8,133.8z"/>
			<path id="leg_x5F_front_x5F_top" class="st2" d="M21.5,101.1c1.1-9.7,25-6.7,28.8-2.2c0,0,1.9,9.3,1.6,15.1
				c-0.1,2.5-0.6,13.1-1.1,24.6c1.1,6.7-2.6,8.1-7.4,10.2c-2.4,1.4-7.4-4.5-7.9-9.6c0-0.4,0-0.8,0.1-1.2
				C36.8,119.3,32.3,110.4,21.5,101.1z"/>
			<path id="chest" class="st3" d="M49.9,78.5c1.9-6.7,0-6.1-1.9-7.4s-5.7-6.8-5.1-13c0,0-11.6-0.2-15.5,5.6c0,0-0.3-1.1-3.1-7.7
				c0,0-1.9,16.3-2.9,20.3c-1.2,4.9,1,11.7,0.1,22.4c0,0,5.1,3.8,14.4,3.8c9.2,0,16.2-3.8,16.2-3.8C49,89.3,49.1,83.3,49.9,78.5z"/>
			<path id="arm_x5F_front_x5F_bot" class="st0" d="M51.8,78.8c2.7-0.9,3.7,2.1,6,4.2c0.8,5.1,16.8,20.6,10.6,20.6
				c-4.2,0-11.5-8.4-16.5-16.4C52.2,83.4,47,79.8,51.8,78.8z"/>
			<path id="arm_x5F_front_x5F_top" class="st0" d="M46.8,52.7c6-1.4,8.4,8.6,9,13c0.6,4.4,2.4,12.4,2,16.8c0,0.2,0,0.3,0,0.5
				c-1-3.8,2,5.3-0.6,6.2c-4.8,1-3.7-1.2-5.3-2c-0.2-0.3-0.4-0.6-0.6-0.9c-2.5-4.1-4.3-8-4.6-10.4C45.7,68.7,39.7,54.4,46.8,52.7z"
				/>
			<path id="hair" class="st4" d="M20.7,60.2c-3.5-7.5-2.2-31.6-2.2-31.6c1.2-0.2,1.9-2.2,3.1-9.4s10-10.6,19-9.1s8.8,9,8.8,9
				s5.9,3.5,4,12.1C51.5,39.8,50,51.9,50,51.9c-7.4-2.6-8.4,15.6-8.4,15.6c-1.2-1.1,0.1,0.8-1.9,0.7s-4,1-4,1
				C31.5,75.1,25.3,70.1,20.7,60.2z"/>
			<circle id="tail" class="st4" cx="26.2" cy="104.7" r="6.5"/>
		</g>
	</g>
</g>
</svg>
