<?xml version="1.0" encoding="utf-8"?>
<!-- Generator: Adobe Illustrator 22.0.1, SVG Export Plug-In . SVG Version: 6.00 Build 0)  -->
<svg version="1.1" id="Layer_1" xmlns="http://www.w3.org/2000/svg" xmlns:xlink="http://www.w3.org/1999/xlink" x="0px" y="0px"
	 viewBox="0 0 102 197.6" style="enable-background:new 0 0 102 197.6;" xml:space="preserve">
<style type="text/css">
	.st0{fill:#D68A69;}
	.st1{fill:#E29E4B;}
	.st2{fill:#171D49;}
	.st3{fill:#333333;}
	.st4{fill:#48626B;}
	.st5{fill:#506A75;}
	.st6{fill:#FFFFFF;}
	.st7{opacity:0.3;fill:#E8B9A0;enable-background:new    ;}
	.st8{fill:#3A4D57;}
	.st9{fill:#562809;}
	.st10{fill:#281406;}
	.st11{fill:none;stroke:#331908;stroke-width:0.5;stroke-miterlimit:10;}
	.st12{fill:none;stroke:#231307;stroke-width:0.5;stroke-miterlimit:10;}
	.st13{fill:#4F2508;stroke:#5E2B08;stroke-width:0.5;stroke-miterlimit:10;}
</style>
<g id="_x30_0">
	<path id="arm_x5F_back_x5F_bot" class="st0" d="M36.2,111.2c0,0-4.3-18.1,0.3-24.7s5.9,1.3,5.9,1.3C38.1,114,36.2,111.2,36.2,111.2
		z"/>
	<path id="arm_x5F_back_x5F_top" class="st0" d="M45.7,73.8c-1.8,6.6-1.2,14.7-7.6,17.9c-2.4,1.2-2.9-5.6-2.4-9.1
		c0.3-2.4,0.7-17.4,0.9-18.3c0.8-5.6,1.5-14.9,7.5-14C51.3,51.4,47.4,67.2,45.7,73.8z"/>
	<path id="CAT_x5F_tail" class="st1" d="M66.6,101.2c0,0,12.5,0.6,8.8,18.2s7.3,26.4,7.3,26.4s7.6,4.8,1.4-2.7
		c-6.1-7.6-7.4-11-6.2-22.7c1.3-11.7,0.4-24.6-9.7-26.1S66.6,101.2,66.6,101.2z"/>
	<path id="foot_x5F_back" class="st2" d="M33,180.7c3.7,2.9,5.3,0.4,8.8,0.3c3.5-0.1,5.2-4.3,7-5.1s0.3-2.1,0.9-1.4
		c0.3,0.1,0.8,0.4,1.1-0.3c0,0-0.2,0.8,0-0.3c0.1-1.3,1.6-11.4-0.2-8.2c-2.8,0.1-5.7,0.4-8.4,1C38.8,167.9,29.1,177.6,33,180.7z"/>
	<path id="leg_x5F_back_x5F_bot" class="st3" d="M39.7,130.8l-0.1,38.7c11.1,7,16.3-4.4,16.3-4.4c-2.9-30.1-5.5-29.8-5.5-29.8
		C46.9,122.1,39.7,130.8,39.7,130.8z"/>
	<path id="leg_x5F_back_x5F_top" class="st3" d="M38,98.5c-0.8,11.3,2.1,23.5,1.6,34.8c-0.6,11.3,12.9,11.3,13,2.6s0.2-8,0.4-18.1
		c0.1-10.1-0.6-15.2-1.7-24.5C46.7,94.8,38.7,87.4,38,98.5z"/>
	<path id="CAT_x5F_leg_x5F_back_x5F_bot" class="st4" d="M50,137.6c1.2,0.6,2.1,1.4,2.7,2.4v29c-5.6,4.1-11.8,0-11.8,0
		s-1.9-18.5-4-28.3C40.7,137.2,45.3,134.8,50,137.6z"/>
	<path id="CAT_x5F_leg_x5F_back_x5F_top" class="st4" d="M56,92.6c0,0.8,0,2.3,0,3.3l-3.3,22v22.4c-2.1,2.7-5.4,4.3-8.7,3.2
		c-3-0.6-5,0.8-6.8-1.5c-0.4-1.5-1.4-5.7-1.7-6.4c-2.5-5.2-2.2-22.7-1.4-32.3c0.3-3.8,1-8.2,1.7-12.3C41.6,87.7,51.1,87.8,56,92.6z"
		/>
	<path id="CAT_x5F_hip_x5F_back" class="st4" d="M34,104.3c0-0.3,0.1-0.6,0.1-0.9c0.9-9.6,3.8-23.6,3.8-23.6L52,76.4l6,6.4
		l-3.5,23.4C48.2,108.1,38.9,108.7,34,104.3z"/>
	<g id="foot_x5F_front">
		<path class="st2" d="M60,164c-3.2,0.2-5.6,2.9-5.6,6.1c0.1,4.2,0.9,8.9,2.4,11.1c2.3,3.2,3.6,1.6,6,1.8s5.1-2.7,5.2-4.4
			c0.3-3.9-0.7-7.3-1.9-10.6C65.2,165.3,62.7,163.8,60,164L60,164z"/>
	</g>
	<path id="leg_x5F_front_x5F_bot" class="st3" d="M53.3,162.7c0,0,3.2,5.9,6.8,8c3.6,2.2,6.6,0.2,6.6,0.2l0.8-8.2
		c-0.6-20.3-3.3-29.7-3.3-29.7l-9,0.2L53.3,162.7z"/>
	<path id="leg_x5F_front_x5F_top" class="st3" d="M48.3,97.9c-0.7,10.2,4.8,21.6,4.8,31.3c0,14.1,13,15.4,13,15.4l1.2-16.6
		c0,0,1.5-8.7,1.1-13.5c-1.1-12.5-2.8-19.4-2.8-19.4S48.7,93.5,48.3,97.9z"/>
	<path id="CAT_x5F_leg_x5F_front_x5F_bot" class="st5" d="M61,119.6c2.8,1.9,5.6,6.3,6.8,10.9c0.4,4.3,1.1,10.1,1.6,14.2
		c0.6,6-0.9,28.4-0.9,28.4s-1.9,1.5-5.9,1.5c-4,0-5.9-1.7-5.9-1.7c0.3-2.8-1.3-15.3-1.3-19.2s-2.5-13.8-3.4-15.5
		c-0.6-1.1-1.4-4.1-2-6.8C49.9,124.3,53.2,115.3,61,119.6z"/>
	<path id="CAT_x5F_leg_x5F_front_x5F_top" class="st5" d="M53,135.6c-1.1-0.4-2.1-1.5-2.9-3.1c-0.4-2-0.8-4-0.8-5.2
		c0-2.6,0.5-19.9-0.3-21.8c-0.1-0.2-0.2-0.3-0.3-0.5c-0.9-6.6,3.8-13.5,10.3-14.4c3.6,0,7.8,0.5,10.6,3.2c0.6,2.2,2.1,8,1.6,13.9
		c-0.6,7.4-3.4,14.7-3.6,18.1c0,0.4,0,0.9,0,1.4C63.9,132.6,58.5,137.2,53,135.6z"/>
	<path id="CAT_x5F_hip_x5F_front" class="st5" d="M42.4,80.9l3.4-4.3c0,0,14.1-0.2,14.5-0.2c0.4,0,3.5,4.6,3.5,4.6l5.4,11.9
		c0,0,0.4,1.3,0.9,3.4c-3.1,7.4-13.1,10.2-21.6,8.7c-1.4-1.9-5-5-6.1-8.5C41.1,92.5,42.4,80.9,42.4,80.9z"/>
	<path id="chest" class="st0" d="M48.8,40.9c0,2.3,0.6,5.7-1.8,6.6c-5.5,2.2-4.8,15.3-1.6,15.7c5,0.8,21.7-8.2,19.9-12.2L60,46.8V39
		C56.6,34.5,48.8,41,48.8,40.9z"/>
	<path id="top" class="st6" d="M66.6,75.6c1.9-6.7,0-6.1-1.9-7.4s-5.7-6.8-5.1-13c0,0-11.6-0.2-15.5,5.6c0,0-0.3-1.1-3.1-7.7
		c0,0-2.6,4.5-4.6,7.6s2.7,8.6,1.7,12.6c-1.2,4.9,1,11.7,0.1,22.4c0,0,5.1,3.8,14.4,3.8c9.2,0,16.2-3.8,16.2-3.8
		C65.7,86.3,65.8,80.3,66.6,75.6z"/>
	<path id="arm_x5F_front_x5F_top" class="st0" d="M69.8,72.8c-0.1,1.3-1,17.4-3,19.9c-2.3,2.9-5.7-8.1-5.9-9.2
		c-0.8-4.3-3.3-13.6-3.2-18.5s0.5-15,6.8-15.2C72,49.8,70.2,66.9,69.8,72.8z"/>
	<path id="arm_x5F_front_x5F_bot" class="st0" d="M62.8,112.1c0,0-1.1,2.7-1.7-0.4c-0.8-4.8-1.8-25.4,0-31.6c4.1-13.8,6.5,7,6.5,7
		C69.9,92.8,62.8,112.1,62.8,112.1z"/>
	<path id="neck" class="st7" d="M57.3,45.6c1.2-1.7,2.4-4.4,2.8-6.5C56.8,34.8,48.3,40,48.3,40c-0.1,1-0.1,2.2-0.3,3.3
		c0.1-0.1,0.1-0.1,0.2-0.2c0.2-0.3,0.5-0.2,0.7,0c0.7-0.9,1.5-1.8,1.9-2.7c0.3-0.6,1.3-0.3,1,0.3c-0.7,1.4-3,2.1-3.8,3.5
		c-0.6,1-0.7,1.3-0.9,2.5c-0.4,2.9,3.7,2.7,5.4,2C54.5,47.9,56.2,47.1,57.3,45.6z"/>
	<path id="CAT_x5F_top" class="st8" d="M61.2,82.1c0,0-1,1-12,0.6c-11-0.4-13.4-4.2-13.4-4.2s0.2-9.9,0.3-11.3
		c0.1-1.4-2.7-3.8-2.7-4.8c0-1,2.3-6.9,6.9-11.3c1.7-1.6,3.9-2.3,6.5-2.5c-0.4,0.3-4.7,3.4-4.6,5.4c0.1,2,9.8,6,13.6,6
		c3.8,0,6-3.9,11.3-5.2c4.7,2.4,7,4.3,8.1,8.5c1,3.8-10.7,7.5-11.7,10.6C62.6,76.9,61.2,82.1,61.2,82.1z"/>
	<path id="hair_x5F_back" class="st9" d="M47.1,46c-6.3,4.3-4.7,16.4-7.2,16s-2.6-3-2.6-3c5.1-9.1,3.9-25.7,3.9-25.7
		C47.8,29.9,47.1,46,47.1,46z"/>
	<path id="head" class="st0" d="M40.6,27.3c0.3,3.3,0.7,4.9,0.8,8.1c1.1,2.8,2.6,6.1,4.7,7.9c3,1.3,6.4,1.3,9.3,0
		c0.9-0.6,1.7-1.2,2.3-1.9c2.7-2.8,1.2-1,3.8-5.4c2.6-4.4,8.2-12.2,2.8-19.3C59,9.6,47.3,9,41.5,16.6C38.9,20.1,40.2,23.9,40.6,27.3
		z"/>
	<path id="hair_x5F_front" class="st10" d="M57.3,20.4c-11.6,11.1-22.1,6.2-22.1,6.2c1.2-0.2,1.9-2.2,3.1-9.4
		C39.5,10,48.4,6.6,57.4,8.1s8.8,9,8.8,9s5.9,3.5,4,12.1s-3.4,20.7-3.4,20.7c-7.4-2.6-8.4,15.6-8.4,15.6c-1.2-1-2.2,0.1-4.2,0
		c-2.1-0.1-2.5-2.3-2.5-2.3c0.1-2.6,1.4-10.6,5.2-14.6s3.1-9.8,3.1-9.8c-1.2-2.4-0.3-3.8-0.3-3.8c1.1,0.9,1.5-0.8,1.9-2.2
		c0.4-1.4,2.5-4.7,0.5-5.3c-2-0.6-2.9,2.7-2.9,2.7C54,27.3,57.4,20.4,57.3,20.4z"/>
	<path id="CAT_x5F_hair" class="st1" d="M43.5,19c0,0,5.2,7.8,8.5,12c3.3,4.3,6.9,10.3,6,15c-1,4.8-5.1,11.9-4.4,18.8
		c0.7,6.8,2.6,7.2,2.6,7.2s3.5-12.7,4.8-16c1.3-3.3,3-4.3,3-4.3l7.3,6.3c0,0-1.8-5.4-2.5-12.9C68.2,37.8,69,24.7,66,18.2
		c-3-6.5-7.2-6.6-9-6.5c-1.8,0.1-1.8,0.1-1.8,0.1s-1-1-4.3-1.2c-3.3-0.2-10.5,2.9-11.6,7.2c-1.2,4.3,1.2,9.7,1.2,9.7
		S40.1,21.5,43.5,19z"/>
	<polyline id="ear" class="st0" points="62.4,17.2 67.4,21.2 67.4,12.2 	"/>
	<line id="whisker_x5F_left_x5F_top" class="st11" x1="66.4" y1="33.2" x2="52.4" y2="34.2"/>
	<line id="whisker_x5F_left_x5F_mid" class="st12" x1="66.4" y1="36.2" x2="52.4" y2="35.1"/>
	<line id="whisker_x5F_left_x5F_bot" class="st12" x1="66.2" y1="39.4" x2="52.6" y2="35.9"/>
	<line id="whisker_x5F_right_x5F_bot" class="st12" x1="33.2" y1="38.8" x2="42.6" y2="35.3"/>
	<line id="whisker_x5F_right_x5F_mid" class="st12" x1="32.6" y1="36.6" x2="42.4" y2="34.6"/>
	<line id="whisker_x5F_right_x5F_top" class="st12" x1="32.1" y1="34.3" x2="42.1" y2="34"/>
	<polygon id="nose" class="st13" points="47.9,37.7 45.9,35.6 48.9,35.7 	"/>
</g>
</svg>
