<?xml version="1.0" encoding="utf-8"?>
<!-- Generator: Adobe Illustrator 22.1.0, SVG Export Plug-In . SVG Version: 6.00 Build 0)  -->
<svg version="1.1" id="Layer_1" xmlns="http://www.w3.org/2000/svg" xmlns:xlink="http://www.w3.org/1999/xlink" x="0px" y="0px"
	 viewBox="0 0 250 250" enable-background="new 0 0 250 250"  height="250px"  width="250px" preserveAspectRatio="none" xml:space="preserve" nopin="nopin">
<g id="CAT_x2F_BUNNY">
	<polyline id="ear_x5F_front" fill="#D68A69" points="79.2,19.3 79.2,30.7 93.9,25.7 	"/>
	<polyline id="ear_x5F_back" fill="#D68A69" points="171.1,19.6 147.4,24.6 164.3,28.1 	"/>
	<path id="arm_x5F_back_x5F_top" fill="#D68A69" d="M169.9,103c0.6-7.1-0.3-7.1,1.2-10.5c2.3-7.9,7-25.7-12-25.5
		C143,67.1,143.6,77.9,143,84.6c0,1,4.4,15.5,5,19.3c0,0.3,0.3,0.6,0.3,1.3c4.1,2.4,7.3,4.3,10.2,2.7
		C164.9,107,168.1,106.3,169.9,103z"/>
	<path id="arm_x5F_back_x5F_bot" fill="#D68A69" d="M169.9,101.8c-2-2.3-5.8-3.9-12.3-2.9c-2.9,1.5-7.6,2.9-9.6,5.1
		c0.6,7.6,2,42.6,12.6,38.5C169.3,139.2,169.6,116.2,169.9,101.8z"/>
	<path id="foot_x5F_front" fill="#171D49" d="M121.6,219.3c-15.2-4.7-30.7-8.9-49.7-10.4c-6.1-0.5-16.1,1.8-17.5,5
		c-1.5,3.2-8.2,3.9,1.2,7.9c9.1,3.9,39.8,8.5,55.6,9C114.6,227,117.8,223.1,121.6,219.3z"/>
	<path id="foot_x5F_back" fill="#171D49" d="M131.3,225c7.9,0.5,15.5,1.1,23.1,0.8c2.9-0.1,2-7.2,1.8-7.9c0-0.8-0.6-1.1-0.3-0.6
		c-0.9-0.9-1.8-0.3-3.2-0.4c-3.5-0.3,0.6-0.8-4.7-2c-5.6-1.3-14.6-6.2-24.3-3.8c-9.9,2.5-23.4,4.7-19.9,11.3
		C107,228.9,121.1,224.5,131.3,225z"/>
	<polygon id="CAT_x5F_chest" fill="#D68A69" points="115.2,82.6 113.2,91.5 99.1,91.5 80.4,63 115.2,64.8 	"/>
	<path id="CAT_x5F_leg_x5F_back_x5F_bot" fill="#48626B" d="M118.1,217.1l9.6-46.7c0,0,20.2-6.2,24-3.4c3.8,2.8,17.5,36.7,5.3,52.2
		C156.7,219.1,133,228.9,118.1,217.1z"/>
	<path id="CAT_x5F_leg_x5F_back_x5F_top" fill="#48626B" d="M115.2,134.5c0,0,24.3-16.1,41.8-10.9c17.5,5.3,17.5,16.3,17.5,16.3
		l-24.3,37.3c0,0-23.4,16.4-35.1,0.6C103.8,162.2,115.2,134.5,115.2,134.5z"/>
	<path id="CAT_x5F_hip_x5F_back" fill="#48626B" d="M170.5,104.3l-13.7,13.5c0,0-5.3,2.3,2.9,4.1c8.2,1.8,15.2,7,15.2,7
		s5.8,11.2,0,14.2c0,0-17,12.3-46.8-0.6l-2.6-28.1l7.3-9.5L170.5,104.3z"/>
	<path id="leg_x5F_back_x5F_top" fill="#333333" d="M114.6,133.3l-0.9,39.5c0,0,0.3,21.7,36,3.2l16.1-40c0,0,6.1-14.7-7.9-17.1
		C144.2,116.2,114.6,133.3,114.6,133.3z"/>
	<path id="leg_x5F_back_x5F_bot" fill="#333333" d="M116.7,200.6l0.9,17.5c0,0,21.1,5.7,35.7,1.9c14.3-3.7-2.3-54.4-2.3-54.4
		s-14-0.9-28.1,10C108.8,186.7,116.7,200.6,116.7,200.6z"/>
	<path id="leg_x5F_front_x5F_bot" fill="#333333" d="M108.2,170c-14-2.7-25.4,0.8-29.2,6.1c2,19.1,4.1,40,4.7,42.4
		c0,0,5,5.6,21.3,5.3s19.6-5.1,19.6-5.1s0.3-31.8-0.9-41.9C119.9,174.2,115.2,171.7,108.2,170z"/>
	<path id="leg_x5F_front_x5F_top" fill="#333333" d="M164.6,128.4c-3.2-12.3-73.1-8.5-84.2-2.8c0,0-5.6,11.8-4.7,19.2
		c0.3,3.2,1.8,16.6,3.2,31.3c-3.2,8.5,7.6,10.3,21.6,13c7,1.8,21.6-5.7,23.1-12.2c0-0.5,0-1-0.3-1.5
		C119.9,151.5,133,140.2,164.6,128.4z"/>
	<path id="CAT_x5F_leg_x5F_front_x5F_bot" fill="#506A75" d="M125.1,195.1l-0.9-17c0,0-30.7-21.2-44.7-0.8l4.7,42.4
		c0,0,24.6,13.6,40.9,0.3L125.1,195.1z"/>
	<path id="CAT_x5F_leg_x5F_front_x5F_top" fill="#506A75" d="M114,122c0,0,40.4-3.9,29.5,16.3c-10.8,20.2-21.3,43.6-21.3,43.6
		s-22.2,22.2-39.5-2s11.7-56,11.7-56L114,122z"/>
	<path id="CAT_x5F_hip_x5F_front" fill="#506A75" d="M140.9,106.3c0,0-14.6,9.9,0,18c14.6,8-4.4,19.7-4.4,19.7s-21.6,10.5-57,0
		c0,0,9.6-32,23.4-36.7S140.9,106.3,140.9,106.3z"/>
	<path id="top" fill="#FFFFFF" d="M75.1,125.4c0,0,20.5,4.8,47.4,4.8c27.2,0,42.1-4.8,42.1-4.8c-2.6-13.6,3.8-22.2,0.3-28.5
		c-2.9-5.1-8.5-25.8-8.5-25.8c-8.2,8.4-9.1,9.8-9.1,9.8C136,73.6,102,73.8,102,73.8c1.8,7.9-9.4,14.9-14.9,16.5
		c-5.6,1.7-11.1,0.9-5.6,9.4C83.9,105.8,84.2,113.4,75.1,125.4z"/>
	<path id="arm_x5F_front_x5F_bot" fill="#D68A69" d="M75.4,101.5c-8.2,0.9-5.6,4.8-7.9,8.6c6.1,6-7.9,33.5,7,29.2
		c10.2-2.9,14.6-16.9,14-29C81.9,106.7,88.9,99.2,75.4,101.5z"/>
	<path id="arm_x5F_front_x5F_top" fill="#D68A69" d="M87.4,67.6C69.6,66.9,67,79.9,67,85.6c0.3,5.6-1.8,16,1.5,21.5
		c0,0.3,0,0.4,0.3,0.6c1.2-5-3.5,7,4.4,7.6c14.3,0.4,10.2-2.2,14.3-3.6c0.6-0.4,0.9-0.9,1.5-1.3c5.6-5.6,9.1-10.8,8.8-14
		C97.4,87.4,108.5,68.3,87.4,67.6z"/>
	<path id="CAT_x5F_top" fill="#3A4D57" d="M180.7,82.6c0,0-46.8,7.5-113.5,0l-4.7,12.7l35.7,2.5l-6.1,19.1l78.1-1.5l-2.3-18.4
		l2.9,2.7C170.8,99.7,180.7,93.1,180.7,82.6z"/>
	<path id="hair" fill="#281406" d="M123.1,87.9c0,0-5.8-1.4-11.7-1.3c-5.8,0.1-2-2.3-5.6-0.9c0,0-2.9-23.1-24.6-19.8
		c0,0-4.4-15.4-9.9-26.3S83,24.3,83,24.3s-0.6-9.5,25.7-11.4s52,2.4,55.6,11.6s5.6,11.7,9.1,11.9c0,0,3.8,30.6-6.4,40.1
		C153.5,89,135.4,95.4,123.1,87.9z"/>
	<ellipse id="tail" fill="#281406" cx="150.9" cy="133" rx="19" ry="8.3"/>
	<path id="CAT_x5F_tail" fill="#E29E4B" d="M154.1,134.9c0,0,36.5,0.8,25.7,23.1c-10.8,22.4,21.3,33.5,21.3,33.5s22.2,6.1,4.1-3.4
		c-17.8-9.7-21.6-14-18.1-28.8c3.5-14.9,1.2-31.3-28.4-33.2C129.2,124.2,154.1,134.9,154.1,134.9z"/>
	<path id="CAT_x5F_hair" fill="#E29E4B" d="M124.9,95.9c0,0-5.8-1.5-11.7-1.4s-2-2.7-5.6-1c0,0-4.1-26-25.4-22.1
		c0,0-5-17.3-11.1-29.6c-5.8-12.3,11.1-17.4,11.1-17.4S81,13.7,107.3,11.3s52.3,2.3,56.1,12.6c4.1,10.3,6.1,13.1,9.6,13.3
		c0,0,5.3,34.4-4.7,45.2C155.6,96.7,137.7,104.1,124.9,95.9z"/>
</g>
<g id="ELEPHANT">
	<path id="ELEPHANT_x5F_foot_x5F_back" fill="#3A4D57" d="M127.2,206.9c0,0-27.5-4.1-33.3-2.5c-5.8,1.5-1.5,7.5,11.4,11.3
		s19.6,6.1,26.3,7.1s17.3,1,18.7-2.4c1.5-3.4,0.9-7.6-0.9-9.1C147.7,209.5,127.2,206.9,127.2,206.9z"/>
	<path id="ELEPHANT_x5F_leg_x5F_back_x5F_bot" fill="#493033" d="M118.1,164c-1.2,0.4-1.8,0.9-2.3,1.4c2.3,5.6,7.3,14.9,8.8,25.3
		c1.5,12.2,1.2,19.3,4.7,21.6c3.5,2.3,12,2.5,17.3,0.9c5-1.7,7.3-29.2,7.3-38.9c0-3.3-0.6-6-1.5-8.5
		C144.4,162,131.3,159.9,118.1,164z"/>
	<g id="ELEPHANT_x5F_leg_x5F_back_x5F_top">
		<path fill="#493033" d="M153.8,171.1c0-1,0-1.9,0-2.7c0-6.7-1.8-11.4-3.2-16c-11.7,1-25.7-1.4-37.4-4.4c0.6,3.2,1.2,5.7,1.8,7.1
			c1.2,3.9,4.7,11.1,7,19.7C133.3,177,144.7,174.4,153.8,171.1z"/>
		<path fill="#966E53" d="M94.2,116.7c0.6,9,4.1,15.2,4.4,16.8c0.6,1.7,1.2,17.7,1.2,17.7s9.9,3.2,30.4,2.9
			c22.5-0.3,26.3-4.4,26.3-4.4l3.5-28.6c0,0-40.1-5.2-51.2-5C97.7,116.5,94.2,116.7,94.2,116.7z"/>
	</g>
	<path id="ELEPHANT_x5F_foot_x5F_front" fill="#3A4D57" d="M84.8,212.9c0,0-27.5-4.1-33.3-2.5s-1.5,7.5,11.4,11.3
		c12.9,3.8,19.6,6.1,26.3,7.1c6.7,0.9,17.3,1,18.7-2.4s0.9-7.6-0.9-9.1C105.6,215.4,84.8,212.9,84.8,212.9z"/>
	<path id="ELEPHANT_x5F_tail" fill="#634246" d="M124,128.8c0,0,10.8,24.5,13.5,34.3c2.6,9.8-5.6,1.3-5.6,1.3s-12.6-30-17.3-32.6
		C109.9,129.1,124,128.8,124,128.8z"/>
	<path id="ELEPHANT_x5F_leg_x5F_front_x5F_bot" fill="#5B3B3E" d="M76,167.9c-1.2,0.4-1.8,0.9-2.3,1.5c2.3,5.8,7.3,15.5,8.8,26.3
		c1.5,12.7,1.2,20.1,4.7,22.5s12,2.5,17.3,0.9c5-1.7,7.3-30.5,7.3-40.4c0-3.4-0.6-6.2-1.5-8.8C102,165.8,89.2,163.7,76,167.9z"/>
	<g id="ELEPHANT_x5F_leg_x5F_front_x5F_top">
		<path fill="#5B3B3E" d="M111.7,177.1c0-1,0-1.9,0-2.7c0-6.7-1.8-11.4-3.2-16c-11.7,1-25.7-1.4-37.4-4.4c0.6,3.2,1.2,5.7,1.8,7.1
			c1.2,3.9,4.7,11.1,7,19.7C91.2,182.9,102.6,180.4,111.7,177.1z"/>
		<path fill="#8C654B" d="M58.2,122.6c0.6,9,4.1,15.2,4.4,16.8c0.6,1.7,1.2,17.7,1.2,17.7s9.9,3.2,30.4,2.9
			c22.5-0.3,26.3-4.4,26.3-4.4l3.5-28.6c0,0-40.1-5.2-51.2-5C61.7,122.3,58.2,122.6,58.2,122.6z"/>
	</g>
	<g id="ELEPHANT_x5F_head">
		<path fill="#513A40" d="M120.8,23.6l7.3-1.4l18.7-9.5l44.4,7.9c0,0,16.7,7.4-1.2,22.9s-16.7,15.9-16.7,15.9s-8.8,3.9-13.5-4.6
			S120.8,23.6,120.8,23.6z"/>
		<path fill="#5B3B3E" d="M100.3,18.3l-8.5,0.1l-27.5-5.3L29.2,28.3c0,0-8.8,9.8,24.3,20.6s32.2,11.4,32.2,11.4s12.6,1.9,8.5-6.6
			C90.1,45.2,100.3,18.3,100.3,18.3z"/>
	</g>
	<path id="ELEPHANT_x5F_arm_x5F_back_x5F_bot" fill="#5B3B3E" d="M179.8,122.3c0-0.9-2.9-8-2.9-8l1.8-23.5c0-0.5,0-0.9-0.3-1.4
		c-9.4-0.3-18.7-0.4-28.4,0.6c3.2,8.3,12.6,24.1,12.3,24.9c0,0-3.5,2.4-2.3,3.7c1.2,1.3,3.5,1.9,3.2,2.7c-0.3,0.8-2.9,3.6-3.2,4.3
		s4.7,4.8,7.9,4.6c0,0,4.7-2.2,5.8-2.8C175.4,126.7,179.8,123.2,179.8,122.3z"/>
	<g id="ELEPHANT_x5F_arm_x5F_back_x5F_top">
		<path fill="#E0A053" d="M156.4,47.9c-3.5-2.4-14-1.3-17.8,0.9c-3.8,2.3-2.3,9.3,1.8,21.6c4.1,12.3,3.8,13.3,3.8,13.3l2.9,10.3
			c0,0,26.6-0.6,30.1-0.4c3.5,0.1,0-6.6,0-6.6s-7-21.2-9.9-28.3C164.6,51.3,156.4,47.9,156.4,47.9z"/>
		<path fill="#F4BB76" d="M145.9,88.2l31.6-1.3c0,0,3.5,5.5,1.5,6c-2.3,0.6-31.6,1.1-31.6,1.1L145.9,88.2z"/>
	</g>
	<g id="ELEPHANT_x5F_top">
		<path fill="#F2B361" d="M161.7,75.1c-1.5-11.9-4.7-23.9-9.6-28.6c-30.7-2.8-14-0.8-33.9-5c-28.1,4.2-31,0.8-37.4,2.3
			c-6.4,1.4-12.6,3-18.7,4.6c-20.5,5.2-20.2,9.8-13.7,21.1s7.3,53.2,7.3,53.2c32.7,9.4,71.6,5.8,71.6,5.8s25.7-1.8,35.7-6.7
			C162.6,121.7,163.2,87,161.7,75.1z M133,82.4L133,82.4c-0.3-1.9-0.6-3.9-0.9-5.7C132.7,78.8,133,80.7,133,82.4z"/>
	</g>
	<path id="ELEPHANT_x5F_arm_x5F_front_x5F_bot" fill="#5B3B3E" d="M52,122.5c0-0.9,2.9-7.9,2.9-7.9l-0.9-23.2c0-0.5,0.3-0.9,0.3-1.4
		c8.5,0.1,17,0.3,25.4,1.5c-3.2,8-12,23.4-11.7,24.1c0,0,3.2,2.5,2,3.8c-1.2,1.3-3.2,1.8-2.9,2.5c0.3,0.8,2.6,3.6,2.6,4.3
		c0.3,0.8-4.1,4.7-7.3,4.2c0,0-4.1-2.3-5.3-3C55.8,126.8,52,123.2,52,122.5z"/>
	<g id="ELEPHANT_x5F_arm_x5F_front_x5F_top">
		<path fill="#E0A053" d="M49.4,52.7c2.9-2.5,15.5-2.2,21.1-0.3c5.6,2,7,9,8.2,21.3c0.9,12.4,1.8,13.5,1.8,13.5l1.5,10.4
			c0,0-31.3,1-35.1,1.4c-4.1,0.4-2.9-6.6-2.9-6.6s-2.3-21.3-2.3-28.6C41.5,56.7,49.4,52.7,49.4,52.7z"/>
		<path fill="#F4BB76" d="M81,91.8l-37.4,0.8c0,0-1.8,5.6,1.2,6c2.6,0.4,37.1-0.9,37.1-0.9L81,91.8z"/>
	</g>
	<path id="ELEPHANT_x5F_neck" fill="#5B3B3E" d="M177.2,29.6c0,0.4,0.3,0.5,0,0.9c0.3,2.4-0.3,4.8-2.3,6.7c-2,2.2-6.1,3.7-8.5,5.7
		c-1.8,1.3-0.9,3.2-4.1,6.4c-3.5,3-28.4,15.9-51.5,11.3S80.1,47.5,76.9,44.1C73.4,40.5,68.7,30,68.7,30S67,18.7,70.5,13.5
		c2.6-3.8,9.4-7.4,16.1-9.8c2.9-1.1,6.7-2.2,11.1-2.3c6.1-0.3,11.7,1.3,17.5,1.8c4.4,0.3,7.9-0.6,12.6-0.3
		c5.8,0.5,13.7,3.2,18.1,4.8C162,13.3,174.9,21.3,177.2,29.6z"/>
</g>
<g id="INSECT">
	<path id="INSECT_x5F_foot_x5F_back" fill="#FA8B65" d="M133,208.2c0,0-27.5-4.1-33.3-2.5c-5.8,1.5-1.5,7.5,11.4,11.3
		s19.6,6.1,26.3,7.1c6.7,1,17.3,1,18.7-2.4c1.5-3.4,0.9-7.6-0.9-9.1C153.5,210.7,133,208.2,133,208.2z"/>
	<g id="INSECT_x5F_foot_x5F_front">
		<path id="INSECT_x5F_foot_x5F_front_1_" fill="#FA8B65" d="M93.6,212.9c0,0-27.5-4.1-33.3-2.5s-1.5,7.5,11.4,11.3
			c12.9,3.8,19.6,6.1,26.3,7.1c6.7,0.9,17.3,1,18.7-2.4s0.9-7.6-0.9-9.1C114.3,215.4,93.6,212.9,93.6,212.9z"/>
		<path id="INSECT_x5F_foot_x5F_front_2_" fill="#A57951" d="M100,213.9c0,0-17.5-2-20.8-0.8s0.9,5.6,9.4,7.9
			c8.8,2.4,13.2,3.8,17.5,4.3c4.4,0.4,10.8,0.1,10.8-2.4s-1.2-5.6-2.6-6.7C113.2,215.1,100,213.9,100,213.9z"/>
	</g>
	<g id="INSECT_x5F_arm_x5F_back_x5F_bot">
		<path fill="#A57951" d="M186.5,87.8c0.6,8.3,1.5,18.5,2,19.6c1.2,1.7,2.9,8,1.2,10.5c-1.8,2.5-11.4,5.2-13.7,5
			c-2-0.4,0-2.2,0.3-3.7c0.3-1.5,0-4.8-1.8-5.1c-1.8-0.3-2.3,3.2-4.7,2.9c-2.3-0.3-2.3-5.8-0.9-7.4c1.5-1.5,5.3-2.7,5.6-3.7
			c0-0.6-2.9-9.4-5.6-17.1C174.9,88.7,180.7,88.4,186.5,87.8z"/>
		<path fill="#D68162" d="M178.4,75.8c3.2,0.4,6.7,1.7,9.6,3.3c0.6,3.9,0.6,10.4,0.6,10.4c-11.7,2.2-21.3-0.1-21.3-0.1
			s-1.8-5-2.9-8.4C167,77.1,169.6,72.7,178.4,75.8z"/>
	</g>
	<path id="INSECT_x5F_arm_x5F_back_x5F_top" fill="#D68162" d="M176,51.2c-2.9-3.8-7.3-5.8-16.4-4.8c-9.1,1-9.4,7.9-5.6,13
		c3.8,5.1,10.2,14.7,10.5,15.5c0.3,0.8,6.4,8.9,6.4,8.9s12,9.7,16.1-0.6c0,0-1.5-6.2-2-8.3C184.5,72.8,181.3,58.4,176,51.2z"/>
	<path id="INSECT_x5F_leg_x5F_back_x5F_top" fill="#9B6249" d="M118.1,121.8c0,0,24.3-16.1,41.8-10.9c17.5,5.3,17.5,16.3,17.5,16.3
		l-24.3,37.3c0,0-23.4,16.4-35.1,0.6C106.7,149.5,118.1,121.8,118.1,121.8z"/>
	<path id="INSECT_x5F_hip_x5F_back" fill="#9B6249" d="M173.4,91.6l-13.7,13.5c0,0-5.3,2.3,2.9,4.1c8.2,1.8,15.2,7,15.2,7
		s5.8,11.2,0,14.2c0,0-17,12.3-46.8-0.6l-2.6-28.1l7.3-9.5L173.4,91.6z"/>
	<path id="INSECT_x5F_leg_x5F_front_x5F_top" fill="#A36955" d="M117,109.2c0,0,40.4-3.9,29.5,16.3s-21.3,43.6-21.3,43.6
		s-22.2,22.2-39.5-2s11.7-56,11.7-56L117,109.2z"/>
	<path id="INSECT_x5F_hip_x5F_front" fill="#A36955" d="M143.9,93.6c0,0-14.6,9.9,0,18c14.6,8-4.4,19.7-4.4,19.7s-21.6,10.5-57,0
		c0,0,9.6-32,23.4-36.7C119.6,89.9,143.9,93.6,143.9,93.6z"/>
	<g id="INSECT_x5F_leg_x5F_back_x5F_bot">
		<path fill="#9B6249" d="M121.1,204.4l9.6-46.7c0,0,20.2-6.2,24-3.4c3.8,2.8,17.5,36.7,5.3,52.2C159.6,206.4,136,216.2,121.1,204.4
			z"/>
		<path fill="#A57951" d="M131.6,209.3c0.3,1.7,0.3,2.9,0,3.9c-0.3,0.8-1.2,1.7-2.3,2.7c7.9,1.8,17.8,1.7,26.3,0.5
			c0.6-2.9,0.6-6.2,0.6-9.1C148.5,209.7,139.8,210.4,131.6,209.3z"/>
	</g>
	<g id="INSECT_x5F_leg_x5F_front_x5F_bot">
		<path fill="#A57951" d="M94.7,219.3c9.6,3.7,17.8,2.8,24-0.1c0-1.7-0.3-3.7-0.3-6.1c-8.8-0.3-17.5-1.7-25.1-3.6
			C93.9,213,94.2,216.5,94.7,219.3z"/>
		<path fill="#A36955" d="M128.1,182.4l-0.9-17c0,0-30.7-21.2-44.7-0.8l4.7,42.4c0,0,24.6,13.6,40.9,0.3L128.1,182.4z"/>
	</g>
	<path id="INSECT_x5F_hair_x5F_back" fill="#4A3A56" d="M133,8.6l14.9,6.5L138.3,40l-0.6,7.2c0,0,2,5.1,7,5.3s4.7,4.1,9.1,2.9
		c4.4-1.1,15.5-4.8,15.2-6.5c-0.3-1.7-6.1-6.7-2-8.6c3.8-1.9,13.7-5.5,12.6-8.3c-1.2-2.8-9.6-8.1-9.4-10s-0.3-7.7-8.5-10.9
		C153.2,8.1,133,8.6,133,8.6z"/>
	<path id="INSECT_x5F_top" fill="#FA8B65" d="M119.3,45.6c0,0-14.3,0.1-18.4,2.7c-3.8,2.5-13.7,12.2-14.3,15.5
		c-1.2,3.4,5.8,8.6,5.8,17.4s-7.9,27.3-7,29c0.9,1.7,11.4,9.5,26.3,9.4c14.9-0.3,24.9-7.7,34.5-9.1c9.6-1.4,40.9,9.4,40.9,9.4
		c13.2-16.4-12.9-22.2-15.5-25.2c-2.6-2.9-26.6-8.3-24.9-12.1c2-3.8,9.6-11.8,18.4-16.5s4.4-21.2,0-14.5c-4.4-3.3-8.5-3.2-8.5-3.2
		s-4.4,1-9.9,2.7c-5.6,1.7-12.3,5-27.2,2.4C111.4,52.1,119.3,45.6,119.3,45.6z"/>
	<g id="INSECT_x5F_arm_x5F_front_x5F_bot">
		<path fill="#A57951" d="M71.6,96.9c1.8,8.3,3.8,18.5,3.5,19.6c-0.6,1.8-0.9,8,1.8,10.5c2.6,2.5,13.5,4.7,15.5,4.3
			c2-0.4-0.6-2.2-1.5-3.6c-0.9-1.5-1.5-4.8,0.6-5.2c1.8-0.4,3.5,3,5.8,2.7c2.3-0.4,0.6-6-1.2-7.4c-1.8-1.4-6.4-2.4-6.7-3.4
			c-0.3-0.6,0.3-9.5,0.9-17.3C83.9,97.3,77.8,97.3,71.6,96.9z"/>
		<path fill="#D68162" d="M76.6,84.7c-3.2,0.5-6.7,1.9-9.1,3.7c0.6,3.9,2.3,10.4,2.3,10.4c12.9,1.7,21.9-1.1,21.9-1.1s0.3-5,0.6-8.4
			C88.6,85.5,84.8,81.2,76.6,84.7z"/>
	</g>
	<path id="INSECT_x5F_arm_x5F_front_x5F_top" fill="#D68162" d="M67.8,61.4c1.5-4.1,5.8-6.5,17.5-6.2c11.7,0.3,15.5,6.9,13.5,12.2
		c-2,5.3-4.7,15.4-4.7,16.1c0.3,0.8-2.9,9.3-2.9,9.3s-9.6,10.5-19.9,0.8c0,0-1.5-6.2-2-8.3C68.7,83.2,65.2,69,67.8,61.4z"/>
	<g id="INSECT_x5F_wings">
		<path opacity="0.58" fill="#513F5E" enable-background="new    " d="M116.7,59.2c0,0-50.6-22.2-111.1-14.1c0,0,0.9,13.8,114,32.1
			L116.7,59.2z"/>
		<path opacity="0.74" fill="#513F5E" enable-background="new    " d="M114,73.7c0,0-69.9-9.8-114,9.1c0,0,16.4,12.1,136.8,6.1
			L114,73.7z"/>
		<path opacity="0.42" fill="#513F5E" enable-background="new    " d="M144.2,53.7c0,0,43.3-24.8,105.8-19.9c0,0,3.5,13.8-103.2,38
			L144.2,53.7z"/>
		<path opacity="0.72" fill="#513F5E" enable-background="new    " d="M151.2,68c0,0,66.1-13.5,116.1,3c0,0-12.6,12.8-133.9,13.5
			L151.2,68z"/>
	</g>
	<path id="INSECT_x5F_hair_x5F_front" fill="#513F5E" d="M145,10c-1.8-9.9,62.9,13.8,29.5,21.3c0,0,1.2,4.4-3.2,6.9
		c-4.4,2.4-16.7,4.4-4.7,7.4l-22.8,8.1c0,0-2-2-11.1,2c-9.1,4.1-18.7,0.8-18.7,0.8s-2.9-3-10.8-4.1c-7.9-1,2-4.4-7.6-1.9
		s-3.5-2.2-10.8,0.9c-7.3,3-20.5-1.9-15.8-3.7c4.7-1.8,1.5-3.3-2-4.3c-3.5-1-13.2-7.2-10.5-9.1s-1.8-10,0-12.2
		c1.8-2.3,1.8-2.3,1.8-2.3s11.1-7.6,14.3-7.9s14.6-0.5,14.6-2s17-4.4,21.1-3C112.3,8.3,126.3-3.3,145,10z"/>
	<g id="INSECT_x5F_antennas">
		<path fill="#A57951" d="M119.6,14.2c0,0-16.1-24.8-53.2-3.4c-1.5,1,30.4-17.7,51.5,5.1L119.6,14.2z"/>
		<ellipse fill="#A57951" cx="67.5" cy="10.3" rx="5" ry="2"/>
		<path fill="#A57951" d="M195.6,12.7c-25.7-14.7-41.2-7.2-48.2-1.4c1.5,0.1,2.6,0.5,3.2,1C170.8-1.4,196.2,13,195.6,12.7z"/>
		<ellipse fill="#A57951" cx="194.2" cy="12.1" rx="5" ry="2"/>
	</g>
</g>
</svg>
