<?xml version="1.0" encoding="utf-8"?>
<!-- Generator: Adobe Illustrator 22.0.1, SVG Export Plug-In . SVG Version: 6.00 Build 0)  -->
<svg version="1.1" id="Layer_1" xmlns="http://www.w3.org/2000/svg" xmlns:xlink="http://www.w3.org/1999/xlink" x="0px" y="0px"
	 viewBox="0 0 102 197.6" style="enable-background:new 0 0 102 197.6;" width="250px" height="250px" preserveAspectRatio="none" xml:space="preserve" nopin="nopin">

<g id="CAT_x2F_BUNNY">
	<circle id="tail" class="st0" cx="64.9" cy="102.7" r="6.5"/>
	<path id="CAT_x5F_tail" class="st1" d="M67.6,103.2c0,0,12.5,0.6,8.8,18.2s7.3,26.4,7.3,26.4s7.6,4.8,1.4-2.7
		c-6.1-7.6-7.4-11-6.2-22.7c1.3-11.7,0.4-24.6-9.7-26.1S67.6,103.2,67.6,103.2z"/>
	<path id="arm_x5F_back_x5F_bot" class="st2" d="M26,106.5c0,0-0.5-18.6,5.4-24.1s5.5,2.5,5.5,2.5C27.3,109.6,26,106.5,26,106.5z"/>
	<path id="arm_x5F_back_x5F_top" class="st2" d="M43,71.8c-3.1,6.1-4.2,14.1-11.1,16c-2.6,0.7-1.7-6.1-0.5-9.4
		c0.8-2.2,4.3-16.9,4.6-17.7c1.9-5.3,4.5-14.3,10.2-12.2C53,51,46,65.7,43,71.8z"/>
	<path id="foot_x5F_back" class="st3" d="M33,180.7c3.7,2.9,5.3,0.4,8.8,0.3c3.5-0.1,5.2-4.3,7-5.1s0.3-2.1,0.9-1.4
		c0.3,0.1,0.8,0.4,1.1-0.3c0,0-0.2,0.8,0-0.3c0.1-1.3,1.6-11.4-0.2-8.2c-2.8,0.1-5.7,0.4-8.4,1C38.8,167.9,29.1,177.6,33,180.7z"/>
	<path id="leg_x5F_back_x5F_bot" class="st4" d="M39.7,130.8l-0.1,38.7c11.1,7,16.3-4.4,16.3-4.4c-2.9-30.1-5.5-29.8-5.5-29.8
		C46.9,122.1,39.7,130.8,39.7,130.8z"/>
	<path id="leg_x5F_back_x5F_top" class="st4" d="M38,98.5c-0.8,11.3,2.1,23.5,1.6,34.8c-0.6,11.3,12.9,11.3,13,2.6s0.2-8,0.4-18.1
		c0.1-10.1-0.6-15.2-1.7-24.5C46.7,94.8,38.7,87.4,38,98.5z"/>
	<path id="CAT_x5F_leg_x5F_back_x5F_bot" class="st5" d="M51,134.6c1.2,0.6,2.1,1.4,2.7,2.4v29c-5.6,4.1-11.8,0-11.8,0
		s-1.9-18.5-4-28.3C41.7,134.2,46.3,131.8,51,134.6z"/>
	<path id="CAT_x5F_leg_x5F_back_x5F_top" class="st5" d="M57,89.6c0,0.8,0,2.3,0,3.3l-3.3,22v22.4c-2.1,2.7-5.4,4.3-8.7,3.2
		c-3-0.6-5,0.8-6.8-1.5c-0.4-1.5-1.4-5.7-1.7-6.4c-2.5-5.2-2.2-22.7-1.4-32.3c0.3-3.8,1-8.2,1.7-12.3C42.6,84.7,52.1,84.8,57,89.6z"
		/>
	<path id="CAT_x5F_hip_x5F_back" class="st5" d="M35,101.3c0-0.3,0.1-0.6,0.1-0.9c0.9-9.6,3.8-23.6,3.8-23.6L53,73.4l6,6.4
		l-3.5,23.4C49.2,105.1,39.9,105.7,35,101.3z"/>
	<path id="foot_x5F_front" class="st3" d="M65.2,155.5c-4,2.6-9.9,9-10.8,12.9c-0.8,3.9,1.3,3.7,2.8,5.6c1.5,1.9,5.4,1.9,6.8,0.8
		c4.4-3.5,6.1-8.1,8.5-12.7C70,159.9,67.7,157.6,65.2,155.5z"/>
	<path id="leg_x5F_front_x5F_bot" class="st4" d="M61.1,159c0,0,5.3,4.1,9.5,4.6s6.1-2.5,6.1-2.5l-2.6-7.8
		c-8.7-18.3-15-25.8-15-25.8l-8.2,3.8L61.1,159z"/>
	<path id="leg_x5F_front_x5F_top" class="st4" d="M51.3,94.3c-2.4,9.9,1.2,22.1-0.4,31.7c-2.3,13.9,8.5,11.3,8.5,11.3s0.3-3,3-9.9
		c1.7-4.3,5.7-8.6,6.1-13.4c1-12.5,0.4-19.6,0.4-19.6S52.4,90,51.3,94.3z"/>
	<path id="CAT_x5F_leg_x5F_front_x5F_bot" class="st6" d="M48.5,113.4c3.3,0.5,7.7,3.3,10.8,7c2.2,3.8,5.4,8.6,7.5,12.2
		c3.1,5.1,11.3,26,11.3,26s-1,2.2-4.7,3.9s-6.1,1-6.1,1c-0.9-2.7-7.8-13.2-9.4-16.7s-8.2-11.4-9.7-12.6c-1-0.7-3-3.1-4.7-5.3
		C40.6,122.4,39.7,112.8,48.5,113.4z"/>
	<path id="CAT_x5F_leg_x5F_front_x5F_top" class="st6" d="M44,130.2c-1-0.6-1.6-2-2.1-3.7c0.1-2.1,0.2-4.1,0.5-5.3
		c0.6-2.5,5.4-19.2,5-21.2c0-0.2-0.1-0.4-0.2-0.6c0.7-6.6,7-12.2,13.5-11.5c3.5,0.9,7.5,2.4,9.5,5.6c0.1,2.3,0.1,8.3-1.8,13.9
		c-2.4,7-6.9,13.4-7.9,16.6c-0.1,0.4-0.2,0.9-0.4,1.4C55.4,130,49,133.1,44,130.2z"/>
	<path id="CAT_x5F_hip_x5F_front" class="st6" d="M43.4,77.9l3.4-4.3c0,0,14.1-0.2,14.5-0.2s3.5,4.6,3.5,4.6l5.4,11.9
		c0,0,0.4,1.3,0.9,3.4C68,100.7,58,103.5,49.5,102c-1.4-1.9-5-5-6.1-8.5C42.1,89.5,43.4,77.9,43.4,77.9z"/>
	<path id="chest" class="st2" d="M48.8,40.4c0,2,0.6,4.9-1.8,5.7c-5.5,1.9-4.8,13.1-1.6,13.5c5,0.7,21.7-7,19.9-10.5L60,45.5v-6.7
		C56.6,34.9,48.8,40.5,48.8,40.4z"/>
	<path id="top" class="st7" d="M66.6,75.6c1.9-6.7,0-6.1-1.9-7.4s-5.7-6.8-5.1-13c0,0-11.6-0.2-15.5,5.6c0,0-0.3-1.1-3.1-7.7
		c0,0-2.6,4.5-4.6,7.6s2.7,8.6,1.7,12.6c-1.2,4.9,1,11.7,0.1,22.4c0,0,5.1,3.8,14.4,3.8c9.2,0,16.2-3.8,16.2-3.8
		C65.7,86.3,65.8,80.3,66.6,75.6z"/>
	<path id="arm_x5F_front_x5F_top" class="st2" d="M74.8,71.3c0.2,1.3,2.9,17.2,1.5,20.1c-1.6,3.3-7.3-6.6-7.8-7.7
		c-1.7-4-6.2-12.5-7.2-17.3s-2.8-14.7,3.3-16.3C71.8,48.3,73.8,65.4,74.8,71.3z"/>
	<path id="arm_x5F_front_x5F_bot" class="st2" d="M76.6,111.1c0,0-0.5,2.9-1.7,0c-1.8-4.5-7.4-24.4-7-30.8c0.9-14.4,7.9,5.4,7.9,5.4
		C79.3,90.7,76.6,111.1,76.6,111.1z"/>
	<path id="neck" class="st8" d="M57.3,45.6c1.2-1.7,2.4-4.4,2.8-6.5C56.8,34.8,48.3,40,48.3,40c-0.1,1-0.1,2.2-0.3,3.3
		c0.1-0.1,0.1-0.1,0.2-0.2c0.2-0.3,0.5-0.2,0.7,0c0.7-0.9,1.5-1.8,1.9-2.7c0.3-0.6,1.3-0.3,1,0.3c-0.7,1.4-3,2.1-3.8,3.5
		c-0.6,1-0.7,1.3-0.9,2.5c-0.4,2.9,3.7,2.7,5.4,2C54.5,47.9,56.2,47.1,57.3,45.6z"/>
	<path id="CAT_x5F_top" class="st9" d="M62.2,79.1c0,0-1,1-12,0.6s-13.4-4.2-13.4-4.2s0.2-9.9,0.3-11.3s-2.7-3.8-2.7-4.8
		s2.3-6.9,6.9-11.3c1.7-1.6,3.9-2.3,6.5-2.5c-0.4,0.3-4.7,3.4-4.6,5.4c0.1,2,9.8,6,13.6,6s6-3.9,11.3-5.2c4.7,2.4,7,4.3,8.1,8.5
		c1,3.8-10.7,7.5-11.7,10.6C63.6,73.9,62.2,79.1,62.2,79.1z"/>
	<path id="hair_x5F_back" class="st10" d="M47.1,46c-6.3,4.3-4.7,16.4-7.2,16s-2.6-3-2.6-3c5.1-9.1,3.9-25.7,3.9-25.7
		C47.8,29.9,47.1,46,47.1,46z"/>
	<path id="head" class="st2" d="M40.6,27.3c0.3,3.3,0.7,4.9,0.8,8.1c1.1,2.8,2.6,6.1,4.7,7.9c3,1.3,6.4,1.3,9.3,0
		c0.9-0.6,1.7-1.2,2.3-1.9c2.7-2.8,1.2-1,3.8-5.4c2.6-4.4,8.2-12.2,2.8-19.3C59,9.6,47.3,9,41.5,16.6C38.9,20.1,40.2,23.9,40.6,27.3
		z"/>
	<path id="hair_x5F_front" class="st0" d="M57.3,20.4c-11.6,11.1-22.1,6.2-22.1,6.2c1.2-0.2,1.9-2.2,3.1-9.4
		C39.5,10,48.4,6.6,57.4,8.1s8.8,9,8.8,9s5.9,3.5,4,12.1s-3.4,20.7-3.4,20.7c-7.4-2.6-8.4,15.6-8.4,15.6c-1.2-1-2.2,0.1-4.2,0
		c-2.1-0.1-2.5-2.3-2.5-2.3c0.1-2.6,1.4-10.6,5.2-14.6s3.1-9.8,3.1-9.8c-1.2-2.4-0.3-3.8-0.3-3.8c1.1,0.9,1.5-0.8,1.9-2.2
		c0.4-1.4,2.5-4.7,0.5-5.3c-2-0.6-2.9,2.7-2.9,2.7C54,27.3,57.4,20.4,57.3,20.4z"/>
	<path id="CAT_x5F_hair" class="st1" d="M44.5,16c0,0,5.2,7.8,8.5,12c3.3,4.3,6.9,10.3,6,15c-1,4.8-5.1,11.9-4.4,18.8
		c0.7,6.8,2.6,7.2,2.6,7.2s3.5-12.7,4.8-16s3-4.3,3-4.3l7.3,6.3c0,0-1.8-5.4-2.5-12.9C69.2,34.8,70,21.7,67,15.2s-7.2-6.6-9-6.5
		c-1.8,0.1-1.8,0.1-1.8,0.1s-1-1-4.3-1.2s-10.5,2.9-11.6,7.2c-1.2,4.3,1.2,9.7,1.2,9.7S41.1,18.5,44.5,16z"/>
	<polyline id="ear" class="st2" points="62.4,17.2 67.4,21.2 67.4,12.2 	"/>
	<line id="whisker_x5F_right_x5F_bot" class="st11" x1="33.2" y1="38.8" x2="42.6" y2="35.3"/>
	<line id="whisker_x5F_left_x5F_top" class="st12" x1="66.4" y1="33.2" x2="52.4" y2="34.2"/>
	<line id="whisker_x5F_left_x5F_mid" class="st11" x1="66.4" y1="36.2" x2="52.4" y2="35.1"/>
	<line id="whisker_x5F_left_x5F_bot" class="st11" x1="66.2" y1="39.4" x2="52.6" y2="35.9"/>
	<line id="whisker_x5F_right_x5F_mid" class="st11" x1="32.6" y1="36.6" x2="42.4" y2="34.6"/>
	<line id="whisker_x5F_right_x5F_top" class="st11" x1="32.1" y1="34.3" x2="42.1" y2="34"/>
	<polygon id="nose" class="st13" points="47.9,37.7 45.9,35.6 48.9,35.7 	"/>
</g>
<g id="ELEPHANT">
	<path id="ELEPHANT_x5F_arm_x5F_back_x5F_bot" class="st14" d="M31.8,68.7c-1.7,1.6-4.7,20.4-4.7,20.4s-3.6,4.8-4.1,6.7
		c-0.4,1.8-0.3,3.5,0.6,6.6c0.9,3,2,3.6,2.7,3.1c0.8-0.5-0.1-2.2,0.3-3c0.3-0.9,2.4-4.4,3.1-4.4c0.7-0.1,0.3,3.6,1.2,3.2
		c0.9-0.5,1.6-4.4,1.4-6c-0.2-1.7-1-3-1-3L40,73.5"/>
	<g id="ELEPHANT_x5F_arm_x5F_back_x5F_top">
		<path class="st15" d="M38.1,49.2c-2,5.3-7.4,21.3-7.4,21.3s-2.2,5-1,5.1c1.2,0,10.1,2.2,10.1,2.2l2.5-7.8c0,0,0-0.8,3.2-10.1
			s4.7-14.6,3.7-16.6c-1-1.9-4.3-3.5-5.9-1.8C43.3,41.5,40.1,43.7,38.1,49.2z"/>
		<path class="st16" d="M39.7,77.8c0,0-9.8-2.2-10.5-2.9c-0.6-0.5,1.4-4.5,1.4-4.5l10.4,3L39.7,77.8z"/>
	</g>
	<path id="ELEPHANT_x5F_leg_x5F_back_x5F_bot" class="st17" d="M51.7,168.5c-0.3-0.6-0.6-1.2-0.8-2l0,0c-0.2-0.9-0.3-2-0.1-3.6
		c0.7-5.4,2.2-19.5,2.2-24.5c0-2-0.3-3.7-0.5-5.3c-1.5-1.5-3.5-2.6-5-3.5c-2.6-1.5-6,0.1-7.9,2.5c0.6,3,1.2,5.4,1.4,8.6
		c0.3,5.8,0.9,28,0.9,28s-0.7,0.8-1.7,2c0.7,0.7,1.6,1.4,2.2,2C46,174.3,49.6,171.6,51.7,168.5z"/>
	<path id="ELEPHANT_x5F_foot_x5F_back" class="st9" d="M42,166.9c0,0,2.2,0.5,2.8,0.8s0.4,1.8,2.8,1.9c2.2,0.1,2.8-1.8,3.8-2.4
		c-0.2,2.4,0.9,3.6,0.5,5.8c-0.2,1.5-1.4,1.5-3.7,2.3s-7.5,4-9.7,4.6s-9.5,0.2-10.4-1.8C27.2,176,42,166.9,42,166.9z"/>
	<g id="ELEPHANT_x5F_leg_x5F_back_x5F_top">
		<path class="st17" d="M52.9,144.1c0.2-2.4,0.3-4.5,0.3-5.9c0-5-1.7-8-0.5-12.9c0.3-1.4,0.7-3.6,1-6.2c-4.7,2.1-10.2,2.7-15.2,1
			c0,1,0.1,1.9,0.1,2.7c0.2,8.8,2,12.1,2.4,17.8c0.1,1.7,0.2,4.7,0.3,8.2c0.3,0.4,0.7,0.7,1.1,0.9C47.3,151.6,50.8,148.3,52.9,144.1
			z"/>
		<path class="st18" d="M52.6,92.4c-3.8-0.2-17.5,3.9-17.5,3.9l1.2,22.5c0,0,1.3,3.3,9,3.5c7,0.2,10.4-2.3,10.4-2.3
			s0.2-12.6,0.4-13.9c0.1-1.2,1.3-6.1,1.5-13.2C57.6,92.9,56.4,92.7,52.6,92.4z"/>
	</g>
	<path id="ELEPHANT_x5F_leg_x5F_front_x5F_bot" class="st14" d="M70.1,158.6c-0.5-0.4-1.1-0.8-1.6-1.4l0,0c-0.6-0.7-1.2-1.7-1.7-3.2
		c-1.8-5.1-6.7-18.4-9-22.9c-0.9-1.8-1.9-3.2-2.8-4.5c-2-0.7-4.3-0.8-6-0.9c-3-0.2-5.3,2.8-6,5.8c1.9,2.4,3.5,4.3,5.1,7.1
		c2.9,5.1,13.3,24.7,13.3,24.7s-0.3,1-0.6,2.5c0.9,0.3,2.1,0.5,2.9,0.8C67.6,166.4,69.6,162.4,70.1,158.6z"/>
	<path id="ELEPHANT_x5F_foot_x5F_front" class="st9" d="M60.7,161.5c0,0,2.2-0.5,2.9-0.5s1.2,1.4,3.4,0.4c2-0.9,1.7-2.9,2.3-3.8
		c0.9,2.2,2.4,2.8,3,5c0.5,1.4-0.6,2-2.3,3.7c-1.7,1.7-4.9,6.9-6.6,8.4c-1.7,1.5-8.4,4.4-10.1,3C51.5,176.3,60.7,161.5,60.7,161.5z"
		/>
	<g id="ELEPHANT_x5F_leg_x5F_front_x5F_top">
		<path class="st14" d="M54.7,134.1c0.7-1.2,1.2-2.3,1.5-3c1.1-2.6,0.1-4.9,2.3-7c0.6-0.6,1.4-1.6,2.3-2.9c-4.8-0.7-10-2.4-14.3-5.2
			c-0.2,0.5-0.3,1-0.5,1.5c-1.7,4.7-0.7,7.2-1.6,10.3c-0.3,0.9-0.8,2.6-1.5,4.5c0.2,0.3,0.5,0.6,0.8,0.9
			C47.9,136,51.9,135.5,54.7,134.1z"/>
		<path class="st19" d="M69.8,96c-3.4-1.6-17.7-3-17.7-3l-7.3,21.3c0,0,0,3.5,7,6.6c6.4,2.8,10.5,1.8,10.5,1.8s4.9-11.6,5.6-12.7
			c0.5-1.1,3.5-5.2,6.3-11.7C74.3,98.3,73.2,97.7,69.8,96z"/>
	</g>
	<g id="ELEPHANT_x5F_top">
		<path class="st20" d="M37.1,96.9c3.4,3.9,12.2,5.3,12.2,5.3s13.3,2.8,24.5-4.6c0,0,0.3-32.9,2.5-41.8s2.3-12.5-4.7-16.6
			c-2.1-1.2-4.2-2.5-6.4-3.6c-2.2-1.2-4.8-1.9-7.2-2.9c-2.1-0.9-4.4-1.9-6.7-2.3c-2.4-0.4-5-1.5-7.3-0.3c-2,1-3.6,2.8-4.4,4.7
			c-1.7,3.7-1.6,15.9-2.1,25.3S37.2,96.8,37.1,96.9z M47.6,61.4c-0.1,1.4-0.2,3-0.3,4.5l0,0C47.3,64.5,47.4,63,47.6,61.4z"/>
		<path class="st21" d="M56.7,37.3l6.8-3.4c0,0,6.6,3.3,9.5,5.7c3,2.4,3.3,3.6,3.3,3.6l-0.6,25.7L74,98.4
			c-9.8,6.9-21.4,5.2-21.4,5.2s-3.1-45.7-2.8-52.2c0.2-6.5,2.3-13.5,2.3-13.5L56.7,37.3z"/>
		<path class="st15" d="M62,30.5l0.8,0.8l1.2,3.3c0,0,0.5,1.5-1,3.5c-1.6,2-9.5,6.8-9.5,5.9s-1.4-6.2-1.4-6.2s0,0,3.3-1.2
			c3.3-1.3,6.7-4.2,6.7-4.2L62,30.5z"/>
		<path class="st21" d="M48.3,32.6c-1.5-0.9-2.3-3.1-2.3-3.1c-5.6,0.9-7.1,4.2-8,14.9s-1.7,52.7-1.7,52.7l3.2,2.4
			c0,0,0.3-7.3,0.6-11.6s2.5-34.6,3.1-39.2s2.9-10.8,4.4-13.9L48.3,32.6z"/>
		<path class="st15" d="M47.3,31.7c0,0-1.3,1.1-1.9,2.4s-0.3,4.6-0.3,4.6s2.2-3.1,2.5-3.9c0.3-0.7,1.1-1.9,1.1-1.9
			C47.7,32.4,47.3,31.7,47.3,31.7z"/>
	</g>
	<path id="ELEPHANT_x5F_arm_x5F_front_x5F_bot" class="st14" d="M81.9,69.4C83.8,71,85,90.2,85,90.2s3.6,4.9,4,6.7
		c0.4,1.9,0,3.6-1.5,6.7c-1.3,3.1-2.7,3.8-3.5,3.3s0.4-2.2,0.1-3.1s-2.2-4.4-3-4.4c-0.9,0-0.8,3.7-1.8,3.3c-1-0.4-1.4-4.4-0.9-6.1
		c0.4-1.7,1.4-3.2,1.4-3.2l-7.9-18.9"/>
	<g id="ELEPHANT_x5F_arm_x5F_front_x5F_top">
		<path class="st15" d="M79.6,49.4c1.2,5.6,3.9,22.2,3.9,22.2s1.5,5.3,0.1,5.3c-1.3,0-12,1.4-12,1.4l-1.2-8.1c0,0,0.1-0.8-1.6-10.5
			c-1.6-9.6-2.3-15.1-0.7-17c1.5-1.9,5.7-3,7.1-1.3C75.2,41.3,78.5,43.8,79.6,49.4z"/>
		<path class="st16" d="M71.6,78.2c0,0,11.8-1.5,12.6-1.9c0.9-0.5-0.6-4.7-0.6-4.7L71,73.7L71.6,78.2z"/>
	</g>
	<g id="ELEPHANT_x5F_head">
		<path class="st22" d="M38.1,44.1c-1.6,6.7-4.6,3.6-4.6,3.6s0.4-0.3-5.7-12.5s-0.4-18-0.4-18L42.6,11l6.4,7.5l2.5,1.1
			C51.5,19.6,39.7,37.4,38.1,44.1z"/>
		<path class="st23" d="M45.6,37.5c-0.5,5.3-0.6,9.1,5,11.2c5.6,2.2,11.9-3.6,12.6-5.8c0.7-2.1-0.9-8.3,0.1-10.7
			C63.3,32.2,46,32.2,45.6,37.5z"/>
		<path class="st14" d="M55.8,4.3c1.4-0.3,3.9-0.6,5.3,0c1.1,0.5,1.6,1.6,2.6,2.1C65.1,7,66.8,7,68,8.1c0.9,0.8,1.4,2,1.7,3.1
			c0.7,2.5,1.1,5.6,0.5,8.2c-0.8,3.6-4.6,9.9-4.6,9.9s-4.2,5.4-6,6.9c-1.7,1.5-5.9,5.2-12.2,4.3S39.6,28.3,39.8,26s1-3.3,1-4.3
			c0.1-1.5-0.3-3-0.1-4.6c0.1-1.5,0.7-3,1.5-4.3c0.1-0.2,0.2-0.3,0.3-0.5C45.5,7.9,50.7,5.2,55.8,4.3z"/>
		<path class="st14" d="M60.6,43.3c-1.4,6.7,2.9,5.2,2.9,5.2s-0.3-0.5,11-9s8.3-16.2,8.3-16.2l-12-12l-9.4,4.2l-2.9-0.1
			C58.5,15.4,62,36.6,60.6,43.3z"/>
		<path class="st24" d="M39.8,41.3c0,0-8.1,1.7-4.1-1.8c4.1-3.5,2.5-7.5,2.5-7.5c5.6-2.2,5.8,2,5.8,2C45.1,38.6,39.8,41.3,39.8,41.3
			z"/>
		<path class="st14" d="M42.8,27.7h10.5l0.7,7.9c0,0-11.5,44.8-9.6,52.9s-0.8,4.2-0.8,4.2s0.4,0.8,0.8,1.7c0.9,2.2,1.9,5.4-2.3,2.6
			c-6-4.1-3-35.8-2.1-37.3c0.9-1.6,2.8-32.1,2.8-32.1S42.8,27.7,42.8,27.7z"/>
		<path class="st24" d="M58,42.7c0,0,8.6,1.7,4.4-1.8c-4.3-3.5-2.6-7.5-2.6-7.5c-5.9-2.2-6.1,2-6.1,2C52.6,39.9,58,42.7,58,42.7z"/>
	</g>
</g>
<g id="INSECT_1_">
	<g id="INSECT_x5F_wings">
		<path class="st25" d="M53.5,62.8c38.7-14.4,39-25.3,39-25.3c-20.7-6.4-38,11.1-38,11.1L53.5,62.8z"/>
		<path class="st26" d="M47.6,72c41.2,4.7,46.8-4.8,46.8-4.8c-15.1-14.9-39-7.2-39-7.2L47.6,72z"/>
		<path class="st27" d="M44.2,58.5C7.7,39.5,8.9,28.6,8.9,28.6c21.4-3.8,36.2,15.7,36.2,15.7L44.2,58.5z"/>
		<path class="st28" d="M48.8,68.5C7.3,68,3,57.9,3,57.9c17.1-13,39.7-2.4,39.7-2.4L48.8,68.5z"/>
	</g>
	<g id="INSECT_x5F_arm_x5F_back_x5F_bot">
		<path class="st29" d="M37.8,75.4c-1.8,5.9-3.9,12.5-4,13c0,0.8,1.1,1.9,1.4,3.2c0.3,1.3-0.4,5.6-1.2,5.7c-0.8,0.1-0.6-2.6-1.2-2.5
			c-0.6,0.1-1.1,2.7-1.2,3.9c-0.1,1.2,0.4,2.7-0.4,2.9c-0.8,0.1-3.8-2.5-4-4.6c-0.3-2.1,1.1-6.9,1.7-8.1c0.3-0.8,1.9-8.7,3.1-15.1
			C33.9,74.5,35.8,75,37.8,75.4z"/>
		<path class="st30" d="M40.3,69.7c-0.8,2.6-2,6.4-2,6.4s-3.5,1.3-7.2-1c0,0,0.8-5,1.5-8.1c1.2-1.1,2.5-1.9,3.7-2.1
			C39.6,62.9,39.9,66.5,40.3,69.7z"/>
	</g>
	<path id="INSECT_x5F_arm_x5F_back_x5F_top" class="st30" d="M32.7,62.6c-0.3,1.6-1.1,6.4-1.1,6.4c0.9,8.2,5.5,0.8,5.5,0.8
		s2.5-6.3,2.6-6.9c0.1-0.6,2.8-8,4.3-12s1.8-9.3-1.3-10.3c-3-1-4.6,0.5-5.8,3.5C34.8,49.8,33,61,32.7,62.6z"/>
	<g id="INSECT_x5F_leg_x5F_back_x5F_bot">
		<path class="st29" d="M41.6,159.8c0.1,1.3,0.1,2.3,0,3.1c-0.1,0.6-0.4,1.3-0.8,2.1c2.7,1.4,6.1,1.3,9,0.4c0.2-2.3,0.2-4.9,0.2-7.2
			C47.4,160.1,44.4,160.6,41.6,159.8z"/>
		<path class="st31" d="M35.7,125c0.2,0.9,0.4,1.6,0.6,2.2c2,5.1,4.4,32.8,4.4,32.8s5,4,9.6,0v-31.6c-2-3.8-3.5-7.6-7-9.6
			C38.2,115.4,36.3,120,35.7,125z"/>
	</g>
	<path id="INSECT_x5F_leg_x5F_back_x5F_top" class="st31" d="M35.9,125.8c0.4,0.3,0.9,0.6,1.5,0.7c4.9,2,10.2-0.6,13-4.6v-12
		l4.2-34.6L49.7,69l-11.5,3.3c0,0-2.4,13.8-3.1,23.2C34.5,104.2,34.3,119.5,35.9,125.8z"/>
	<g id="INSECT_x5F_foot_x5F_back">
		<path class="st29" d="M31.1,177.4c-0.3,2.5,7.8,1.9,10,0.6s3.9-3.9,5.4-5c1.5-1.2,2.8-1.2,3-2.3c0-0.3,0.1-1.2,0.2-2.5
			c0.1-0.8,0.1-1.8,0.2-2.8c-2.9,1-6.3,1-9-0.4c-1.5,2.6-4.7,5.9-7.1,8.5C32.3,175.1,31.1,176.5,31.1,177.4z"/>
		<path class="st30" d="M33.7,173.5c0.3,0.6,1.2,1.2,2.9,1.4c2.7,0.3,10-4.6,13-6.7c-0.1,1.2-0.2,2.2-0.2,2.5
			c-0.1,1.2-1.5,1.2-3,2.3s-3.2,3.7-5.4,5s-10.3,2-10-0.6C31.1,176.5,32.3,175.1,33.7,173.5z"/>
	</g>
	<g id="INSECT_x5F_leg_x5F_front_x5F_bot">
		<path class="st29" d="M61.3,153.7c-1.5,2.6-3.5,5.1-6,6.8c1,1.6,1.7,3.1,2.3,4.2c3,0.9,5.7,0.1,7.1-4.1
			C63.9,158.6,62.6,156.2,61.3,153.7z"/>
		<path class="st32" d="M32.4,134.1c0.3,0.4,0.5,0.8,0.6,1c0.9,1.6,4.5,5.3,5.8,5.9s6.7,5.9,8.2,8.4c1.5,2.5,7.3,9.7,8.1,11.6
			c0,0,1.9,0.3,4.8-1.4c2.8-1.7,3.6-3.4,3.6-3.4s-7.2-14.9-9.9-18.4c-1.9-2.6-4.7-6.1-6.6-8.7c-3.6-1.1-7.6-1.9-12.4,1
			C33.2,131.3,32.5,132.7,32.4,134.1z"/>
	</g>
	<path id="INSECT_x5F_leg_x5F_front_x5F_top" class="st32" d="M33,126.1c-0.2,1.6-0.6,3.2-0.4,5c0.1,9,6.9,7.4,12.8,3.7
		c0.6-1.6,1.2-2.9,1.6-3.8c1.7-3.1,6.9-8.8,10.5-15.5s5.1-14.4,5.1-14.4l1.2-12.9c0,0-0.4-5.4-0.6-5.5C63,82.6,52.5,78,52.5,78
		l-4.4,2.8c0,0-5.9,10.4-6.7,14.4s1,8.7,0.8,10.8C41.9,107.9,34.2,123.5,33,126.1z"/>
	<g id="INSECT_x5F_foot_x5F_front">
		<path class="st29" d="M55.4,179.8c1,2.3,7.7-2.3,8.9-4.5c1.2-2.2,1.4-5.3,2.1-7c0.7-1.8,1.8-2.5,1.4-3.5c-0.2-0.3-0.5-1.1-1.1-2.3
			c-0.3-0.7-0.8-1.6-1.2-2.5c-2,2.3-4.9,4.1-8,4.2c0,3-1.1,7.5-1.8,10.9C55.2,177.2,54.9,179,55.4,179.8z"/>
		<path class="st30" d="M55.6,175.1c0.6,0.4,1.6,0.4,3.2-0.3c2.5-1.1,6.3-9,7.8-12.4c0.5,1.1,0.9,2,1.1,2.3c0.5,1.1-0.7,1.8-1.4,3.5
			c-0.7,1.7-0.9,4.8-2.1,7c-1.2,2.2-7.9,6.9-8.9,4.5C54.9,179,55.2,177.2,55.6,175.1z"/>
	</g>
	<path id="INSECT_x5F_hair_x5F_back" class="st33" d="M39.1,10.8c-2.8,2.5-3,7.1-2.9,8.6s-2.8,5.7-3.2,7.9s3,5,4.3,6.5
		c1.4,1.5-0.6,5.5-0.7,6.8s3.7,4.2,5.2,5.1s1.4-2.1,3.1-2.3s2.4-4.2,2.4-4.2l-0.2-5.7l-3.3-19.6l5.1-5.1C48.9,8.8,42,8.4,39.1,10.8z
		"/>
	<path id="INSECT_x5F_top" class="st34" d="M47.1,35.9c0,0-4.9,0.1-6.3,2.1c-1.3,2-4.7,9.6-4.9,12.2c-0.4,2.7,2,6.8,2,13.7
		s-2.7,21.5-2.4,22.8s3.9,7.5,9,7.4c5.1-0.2,8.5-6.1,11.8-7.2s8.6,3.3,8.6,3.3C64,84.7,61.2,79,60.3,76.7s0-7.4,0.6-10.4
		c0.7-3,3.1-2.2,6.1-5.9c3-3.7,4-10.8,2.5-13.3c-1.5-2.6-9.6-9-9.6-9s-1.5,0.8-3.4,2.1s-4.2,3.9-9.3,1.9
		C44.4,41,47.1,35.9,47.1,35.9z"/>
	<path id="INSECT_x5F_neck" class="st35" d="M49.5,31.4c4.4-2,7.4-2.5,7.4-2.5s0.2,9.8,0.1,11.9c0,2.1-1.7,3.5-3.9,3.5
		s-7.5,0-7.7-1.8c-0.2-1.9-0.3-8.1-0.3-8.1S45.1,33.4,49.5,31.4z"/>
	<path id="INSECT_x5F_head" class="st29" d="M46.5,11c3.6-2.4,13.6-2.2,15.5,3.8s-0.9,11.5-2,12.9s-2.9,1.2-2.9,1.2
		s-1.3,1.7-2.9,2.9c-1.6,1.2-9.6,2.4-11,1.5c-1.5-0.9-1.4-7.8-1.4-9.1s0.5-2.1,0.7-2.9s-0.4-3.3,0.2-5.1C42.7,16.2,43,13.4,46.5,11z
		"/>
	<g id="INSECT_x5F_arm_x5F_front_x5F_bot">
		<path class="st29" d="M71.5,79.5c0.2,6.1,0.4,13.1,0.3,13.6c-0.1,0.8-1.7,1.6-2.3,2.7s-1.2,5.5-0.4,5.8s1.4-2.4,2-2.1
			c0.7,0.3,0.5,2.9,0.2,4.1c-0.3,1.1-1.2,2.5-0.5,2.8c0.7,0.3,4.4-1.4,5.3-3.4s0.8-6.9,0.6-8.3c-0.1-0.8,0.6-8.9,1.2-15.4
			C75.8,79.6,73.7,79.6,71.5,79.5z"/>
		<path class="st30" d="M70.8,73.3c0.1,2.7,0.2,6.6,0.2,6.6s3.1,2.2,7.5,0.9c0,0,0.6-5.1,0.8-8.2c-0.8-1.4-2-2.5-3.1-2.9
			C73.4,66.9,72.1,70.3,70.8,73.3z"/>
	</g>
	<path id="INSECT_x5F_arm_x5F_front_x5F_top" class="st30" d="M76.7,66.1c0.3,1.6,1.5,6.4,1.5,6.4c-0.8,8.4-6.6,1.7-6.6,1.7
		s-3.3-6-3.4-6.6c-0.2-0.6-3.7-7.7-5.7-11.5s-2.5-9.1,1.2-10.6c3.7-1.5,5.8-0.2,7.3,2.6C73.8,53.6,76.4,64.6,76.7,66.1z"/>
	<path id="INSECT_x5F_hair_x5F_front" class="st36" d="M57.3,7.4c1.4-1.1,7.2,1.2,7.2,2.4s3.9,1.4,5,1.6s4.9,6.2,4.9,6.2
		s0,0,0.6,1.8c0.6,1.7-0.9,8.1,0,9.6c0.9,1.5-2.4,6.4-3.6,7.2s-2.3,2-0.7,3.4c1.6,1.4-2.9,5.3-5.4,2.9c-2.5-2.4-0.4,1.3-3.7-0.7
		s-2.8-0.2-5.5,0.6s-2.6-4.5-2.6-4.5s4.3-1.7,1.2-4.9s1.4-4.1,1.4-4.1l1.1-0.5c4.1-2.3,2.4-4.7,0.9-6.6S55,24.5,55,24.5
		c-11.4-5-12.2-11.6-12.2-11.6C49.2,2.4,55.9,8.5,57.3,7.4z"/>
	<g id="INSECT_x5F_antennas">
		<path class="st29" d="M54.1,14.5c7.2-17.9,18.1-3.2,17.6-4C59-6.3,53.5,13.2,53.5,13.2L54.1,14.5z"/>
		<ellipse class="st29" cx="71.3" cy="10.1" rx="1.7" ry="1.6"/>
		<path class="st29" d="M42.9,11.7c0.2-0.4,0.6-0.7,1.1-0.8C41.6,6.3,36.3,0.4,27.5,12C27.3,12.2,36,0.9,42.9,11.7z"/>
		<ellipse class="st29" cx="28" cy="11.5" rx="1.7" ry="1.6"/>
	</g>
</g>
</svg>
