<?xml version="1.0" encoding="utf-8"?>
<!-- Generator: Adobe Illustrator 22.0.1, SVG Export Plug-In . SVG Version: 6.00 Build 0)  -->
<svg version="1.1" id="Layer_1" xmlns="http://www.w3.org/2000/svg" xmlns:xlink="http://www.w3.org/1999/xlink" x="0px" y="0px"
	 viewBox="0 0 85.5 196.8" style="enable-background:new 0 0 85.5 196.8;" xml:space="preserve">
<style type="text/css">
	.st0{fill:#D68A69;}
	.st1{fill:#171D49;}
	.st2{fill:#48626B;}
	.st3{fill:#333333;}
	.st4{fill:#506A75;}
	.st5{fill:#FFFFFF;}
	.st6{fill:#3A4D57;}
	.st7{fill:#281406;}
	.st8{fill:#E29E4B;}
	.st9{fill:#493033;}
	.st10{fill:#966E53;}
	.st11{fill:#634246;}
	.st12{fill:#5B3B3E;}
	.st13{fill:#8C654B;}
	.st14{fill:#513A40;}
	.st15{fill:#E0A053;}
	.st16{fill:#F4BB76;}
	.st17{fill:#F2B361;}
	.st18{fill:#FA8B65;}
	.st19{fill:#A57951;}
	.st20{fill:#D68162;}
	.st21{fill:#9B6249;}
	.st22{fill:#A36955;}
	.st23{fill:#4A3A56;}
	.st24{opacity:0.58;fill:#513F5E;enable-background:new    ;}
	.st25{opacity:0.74;fill:#513F5E;enable-background:new    ;}
	.st26{opacity:0.42;fill:#513F5E;enable-background:new    ;}
	.st27{opacity:0.72;fill:#513F5E;enable-background:new    ;}
	.st28{fill:#513F5E;}


	@-webkit-keyframes leg_back_top {
	  0% {
	      -webkit-transform-origin: 20% 40%;
	              transform-origin: 20% 40%;
	      -webkit-transform: translate(0%, -10%) rotateZ(0deg);
	              transform: translate(0%, -10%) rotateZ(0deg);
	  }
	  15% {
	      -webkit-transform-origin: 20% 40%;
	              transform-origin: 20% 40%;
	      -webkit-transform: translate(-10%, -10%) rotateZ(-20deg);
	              transform: translate(-10%, -10%) rotateZ(-20deg);
	  }
	  30% {
	      -webkit-transform-origin: 20% 40%;
	              transform-origin: 20% 40%;
	      -webkit-transform: translate(5%, -10%) rotateZ(-20deg);
	              transform: translate(5%, -10%) rotateZ(-20deg);
	  }
	  45% {
	      -webkit-transform-origin: 20% 40%;
	              transform-origin: 20% 40%;
	      -webkit-transform: translate(-10%, 0%) rotateZ(-30deg);
	              transform: translate(-10%, 0%) rotateZ(-30deg);
	  }
	  60% {
	      -webkit-transform-origin: 20% 40%;
	              transform-origin: 20% 40%;
	      -webkit-transform: translate(-10%, 10%) rotateZ(-40deg);
	              transform: translate(-10%, 10%) rotateZ(-40deg);
	  }
	  70% {
	      -webkit-transform-origin: 20% 40%;
	              transform-origin: 20% 40%;
	      -webkit-transform: translate(30%, 10%) rotateZ(-50deg);
	              transform: translate(30%, 10%) rotateZ(-50deg);
	  }
	  80% {
	      -webkit-transform-origin: 20% 40%;
	              transform-origin: 20% 40%;
	      -webkit-transform: translate(30%, 10%) rotateZ(-30deg);
	              transform: translate(30%, 10%) rotateZ(-30deg);
	  }
	}
	@keyframes leg_back_top {
	  0% {
	      -webkit-transform-origin: 20% 40%;
	              transform-origin: 20% 40%;
	      -webkit-transform: translate(0%, -10%) rotateZ(0deg);
	              transform: translate(0%, -10%) rotateZ(0deg);
	  }
	  15% {
	      -webkit-transform-origin: 20% 40%;
	              transform-origin: 20% 40%;
	      -webkit-transform: translate(-10%, -10%) rotateZ(-20deg);
	              transform: translate(-10%, -10%) rotateZ(-20deg);
	  }
	  30% {
	      -webkit-transform-origin: 20% 40%;
	              transform-origin: 20% 40%;
	      -webkit-transform: translate(5%, -10%) rotateZ(-20deg);
	              transform: translate(5%, -10%) rotateZ(-20deg);
	  }
	  45% {
	      -webkit-transform-origin: 20% 40%;
	              transform-origin: 20% 40%;
	      -webkit-transform: translate(-10%, 0%) rotateZ(-30deg);
	              transform: translate(-10%, 0%) rotateZ(-30deg);
	  }
	  60% {
	      -webkit-transform-origin: 20% 40%;
	              transform-origin: 20% 40%;
	      -webkit-transform: translate(-10%, 10%) rotateZ(-40deg);
	              transform: translate(-10%, 10%) rotateZ(-40deg);
	  }
	  70% {
	      -webkit-transform-origin: 20% 40%;
	              transform-origin: 20% 40%;
	      -webkit-transform: translate(30%, 10%) rotateZ(-50deg);
	              transform: translate(30%, 10%) rotateZ(-50deg);
	  }
	  80% {
	      -webkit-transform-origin: 20% 40%;
	              transform-origin: 20% 40%;
	      -webkit-transform: translate(30%, 10%) rotateZ(-30deg);
	              transform: translate(30%, 10%) rotateZ(-30deg);
	  }
	}
	@-webkit-keyframes leg_back_bot {
	    0% {
	        -webkit-transform-origin: 20% 40%;
	                transform-origin: 20% 40%;
	        -webkit-transform: translate(-10%, -30%) rotateZ(60deg);
	                transform: translate(-10%, -30%) rotateZ(60deg);
	    }
	    15% {
	        -webkit-transform-origin: 20% 40%;
	                transform-origin: 20% 40%;
	        -webkit-transform: translate(-0%, -40%) rotateZ(70deg);
	                transform: translate(-0%, -40%) rotateZ(70deg);
	    }
	    30% {
	        -webkit-transform-origin: 20% 40%;
	                transform-origin: 20% 40%;
	        -webkit-transform: translate(10%, 0%) rotateZ(60deg);
	                transform: translate(10%, 0%) rotateZ(60deg);
	    }
	    45% {
	        -webkit-transform-origin: 20% 40%;
	                transform-origin: 20% 40%;
	        -webkit-transform: translate(15%, 0%) rotateZ(60deg);
	                transform: translate(15%, 0%) rotateZ(60deg);
	    }
	    60% {
	        -webkit-transform-origin: 20% 40%;
	                transform-origin: 20% 40%;
	        -webkit-transform: translate(20%, 0%) rotateZ(60deg);
	                transform: translate(20%, 0%) rotateZ(60deg);
	    }
	    70% {
	        -webkit-transform-origin: 20% 40%;
	                transform-origin: 20% 40%;
	        -webkit-transform: translate(70%, 0%) rotateZ(30deg);
	                transform: translate(70%, 0%) rotateZ(30deg);
	    }
	    80% {
	        -webkit-transform-origin: 20% 40%;
	                transform-origin: 20% 40%;
	        -webkit-transform: translate(50%, 0%) rotateZ(20deg);
	                transform: translate(50%, 0%) rotateZ(20deg);
	    }
	}
	@keyframes leg_back_bot {
	    0% {
	        -webkit-transform-origin: 20% 40%;
	                transform-origin: 20% 40%;
	        -webkit-transform: translate(-10%, -30%) rotateZ(60deg);
	                transform: translate(-10%, -30%) rotateZ(60deg);
	    }
	    15% {
	        -webkit-transform-origin: 20% 40%;
	                transform-origin: 20% 40%;
	        -webkit-transform: translate(-0%, -40%) rotateZ(70deg);
	                transform: translate(-0%, -40%) rotateZ(70deg);
	    }
	    30% {
	        -webkit-transform-origin: 20% 40%;
	                transform-origin: 20% 40%;
	        -webkit-transform: translate(10%, 0%) rotateZ(60deg);
	                transform: translate(10%, 0%) rotateZ(60deg);
	    }
	    45% {
	        -webkit-transform-origin: 20% 40%;
	                transform-origin: 20% 40%;
	        -webkit-transform: translate(15%, 0%) rotateZ(60deg);
	                transform: translate(15%, 0%) rotateZ(60deg);
	    }
	    60% {
	        -webkit-transform-origin: 20% 40%;
	                transform-origin: 20% 40%;
	        -webkit-transform: translate(20%, 0%) rotateZ(60deg);
	                transform: translate(20%, 0%) rotateZ(60deg);
	    }
	    70% {
	        -webkit-transform-origin: 20% 40%;
	                transform-origin: 20% 40%;
	        -webkit-transform: translate(70%, 0%) rotateZ(30deg);
	                transform: translate(70%, 0%) rotateZ(30deg);
	    }
	    80% {
	        -webkit-transform-origin: 20% 40%;
	                transform-origin: 20% 40%;
	        -webkit-transform: translate(50%, 0%) rotateZ(20deg);
	                transform: translate(50%, 0%) rotateZ(20deg);
	    }
	}
	@-webkit-keyframes foot_back {
	  0% {
	      -webkit-transform-origin: 20% 40%;
	              transform-origin: 20% 40%;
	      -webkit-transform: translate(-140%, 30%) rotateZ(10deg);
	              transform: translate(-140%, 30%) rotateZ(10deg);
	  }
	  15% {
	      -webkit-transform-origin: 20% 40%;
	              transform-origin: 20% 40%;
	      -webkit-transform: translate(-105%, 5%) rotateZ(60deg);
	              transform: translate(-105%, 5%) rotateZ(60deg);
	  }
	  30% {
	      -webkit-transform-origin: 20% 40%;
	              transform-origin: 20% 40%;
	      -webkit-transform: translate(-110%, 80%) rotateZ(40deg);
	              transform: translate(-110%, 80%) rotateZ(40deg);
	  }
	  45% {
	      -webkit-transform-origin: 20% 40%;
	              transform-origin: 20% 40%;
	      -webkit-transform: translate(-80%, 80%) rotateZ(40deg);
	              transform: translate(-80%, 80%) rotateZ(40deg);
	  }
	  60% {
	      -webkit-transform-origin: 20% 40%;
	              transform-origin: 20% 40%;
	      -webkit-transform: translate(-60%, 90%) rotateZ(20deg);
	              transform: translate(-60%, 90%) rotateZ(20deg);
	  }
	  70% {
	      -webkit-transform-origin: 20% 40%;
	              transform-origin: 20% 40%;
	      -webkit-transform: translate(150%, 100%) rotateZ(-50deg);
	              transform: translate(150%, 100%) rotateZ(-50deg);
	  }
	  80% {
	      -webkit-transform-origin: 20% 40%;
	              transform-origin: 20% 40%;
	      -webkit-transform: translate(130%, 80%) rotateZ(-60deg);
	              transform: translate(130%, 80%) rotateZ(-60deg);
	  }
	}
	@keyframes foot_back {
	  0% {
	      -webkit-transform-origin: 20% 40%;
	              transform-origin: 20% 40%;
	      -webkit-transform: translate(-140%, 30%) rotateZ(10deg);
	              transform: translate(-140%, 30%) rotateZ(10deg);
	  }
	  15% {
	      -webkit-transform-origin: 20% 40%;
	              transform-origin: 20% 40%;
	      -webkit-transform: translate(-105%, 5%) rotateZ(60deg);
	              transform: translate(-105%, 5%) rotateZ(60deg);
	  }
	  30% {
	      -webkit-transform-origin: 20% 40%;
	              transform-origin: 20% 40%;
	      -webkit-transform: translate(-110%, 80%) rotateZ(40deg);
	              transform: translate(-110%, 80%) rotateZ(40deg);
	  }
	  45% {
	      -webkit-transform-origin: 20% 40%;
	              transform-origin: 20% 40%;
	      -webkit-transform: translate(-80%, 80%) rotateZ(40deg);
	              transform: translate(-80%, 80%) rotateZ(40deg);
	  }
	  60% {
	      -webkit-transform-origin: 20% 40%;
	              transform-origin: 20% 40%;
	      -webkit-transform: translate(-60%, 90%) rotateZ(20deg);
	              transform: translate(-60%, 90%) rotateZ(20deg);
	  }
	  70% {
	      -webkit-transform-origin: 20% 40%;
	              transform-origin: 20% 40%;
	      -webkit-transform: translate(150%, 100%) rotateZ(-50deg);
	              transform: translate(150%, 100%) rotateZ(-50deg);
	  }
	  80% {
	      -webkit-transform-origin: 20% 40%;
	              transform-origin: 20% 40%;
	      -webkit-transform: translate(130%, 80%) rotateZ(-60deg);
	              transform: translate(130%, 80%) rotateZ(-60deg);
	  }
	}


	@-webkit-keyframes leg_front_top {
	  0% {
	      -webkit-transform-origin: 20% 40%;
	              transform-origin: 20% 40%;
	      -webkit-transform: translate(0%, 0%) rotateZ(-10deg);
	              transform: translate(0%, 0%) rotateZ(-10deg);
	  }
	  15% {
	      -webkit-transform-origin: 20% 40%;
	              transform-origin: 20% 40%;
	      -webkit-transform: translate(10%, 0%) rotateZ(-10deg);
	              transform: translate(10%, 0%) rotateZ(-10deg);
	  }
	  30% {
	      -webkit-transform-origin: 20% 40%;
	              transform-origin: 20% 40%;
	      -webkit-transform: translate(10%, 0%) rotateZ(-10deg);
	              transform: translate(10%, 0%) rotateZ(-10deg);
	  }
	  45% {
	      -webkit-transform-origin: 20% 40%;
	              transform-origin: 20% 40%;
	      -webkit-transform: translate(-20%, 0%) rotateZ(20deg);
	              transform: translate(-20%, 0%) rotateZ(20deg);
	  }
	  60% {
	      -webkit-transform-origin: 20% 40%;
	              transform-origin: 20% 40%;
	      -webkit-transform: translate(-20%, -10%) rotateZ(30deg);
	              transform: translate(-20%, -10%) rotateZ(30deg);
	  }
	  70% {
	      -webkit-transform-origin: 20% 40%;
	              transform-origin: 20% 40%;
	      -webkit-transform: translate(-0%, -10%) rotateZ(0deg);
	              transform: translate(-0%, -10%) rotateZ(0deg);
	  }
	  80% {
	      -webkit-transform-origin: 20% 40%;
	              transform-origin: 20% 40%;
	      -webkit-transform: translate(-10%, -10%) rotateZ(10deg);
	              transform: translate(-10%, -10%) rotateZ(10deg);
	  }
	}


	@keyframes leg_front_top {
	  0% {
	      -webkit-transform-origin: 20% 40%;
	              transform-origin: 20% 40%;
	      -webkit-transform: translate(0%, 0%) rotateZ(-10deg);
	              transform: translate(0%, 0%) rotateZ(-10deg);
	  }
	  15% {
	      -webkit-transform-origin: 20% 40%;
	              transform-origin: 20% 40%;
	      -webkit-transform: translate(10%, 0%) rotateZ(-10deg);
	              transform: translate(10%, 0%) rotateZ(-10deg);
	  }
	  30% {
	      -webkit-transform-origin: 20% 40%;
	              transform-origin: 20% 40%;
	      -webkit-transform: translate(10%, 0%) rotateZ(-10deg);
	              transform: translate(10%, 0%) rotateZ(-10deg);
	  }
	  45% {
	      -webkit-transform-origin: 20% 40%;
	              transform-origin: 20% 40%;
	      -webkit-transform: translate(-20%, 0%) rotateZ(20deg);
	              transform: translate(-20%, 0%) rotateZ(20deg);
	  }
	  60% {
	      -webkit-transform-origin: 20% 40%;
	              transform-origin: 20% 40%;
	      -webkit-transform: translate(-20%, -10%) rotateZ(30deg);
	              transform: translate(-20%, -10%) rotateZ(30deg);
	  }
	  70% {
	      -webkit-transform-origin: 20% 40%;
	              transform-origin: 20% 40%;
	      -webkit-transform: translate(-0%, -10%) rotateZ(0deg);
	              transform: translate(-0%, -10%) rotateZ(0deg);
	  }
	  80% {
	      -webkit-transform-origin: 20% 40%;
	              transform-origin: 20% 40%;
	      -webkit-transform: translate(-10%, -10%) rotateZ(10deg);
	              transform: translate(-10%, -10%) rotateZ(10deg);
	  }
	}
	@-webkit-keyframes leg_front_bot {

	  0% {
	      -webkit-transform-origin: 20% 40%;
	              transform-origin: 20% 40%;
	      -webkit-transform: translate(30%, 0%) rotateZ(-10deg);
	              transform: translate(30%, 0%) rotateZ(-10deg);
	  }
	  15% {
	      -webkit-transform-origin: 20% 40%;
	              transform-origin: 20% 40%;
	      -webkit-transform: translate(80%, 0%) rotateZ(-10deg);
	              transform: translate(80%, 0%) rotateZ(-10deg);
	  }
	  30% {
	      -webkit-transform-origin: 20% 40%;
	              transform-origin: 20% 40%;
	      -webkit-transform: translate(60%, 0%) rotateZ(-10deg);
	              transform: translate(60%, 0%) rotateZ(-10deg);
	  }
	  45% {
	      -webkit-transform-origin: 20% 40%;
	              transform-origin: 20% 40%;
	      -webkit-transform: translate(5%, 10%) rotateZ(-50deg);
	              transform: translate(5%, 10%) rotateZ(-50deg);
	  }
	  60% {
	      -webkit-transform-origin: 20% 40%;
	              transform-origin: 20% 40%;
	      -webkit-transform: translate(-120%, -10%) rotateZ(-10deg);
	              transform: translate(-120%, -10%) rotateZ(-10deg);
	  }
	  70% {
	      -webkit-transform-origin: 20% 40%;
	              transform-origin: 20% 40%;
	      -webkit-transform: translate(-10%, -10%) rotateZ(0deg);
	              transform: translate(-10%, -10%) rotateZ(0deg);
	  }
	  80% {
	      -webkit-transform-origin: 20% 40%;
	              transform-origin: 20% 40%;
	      -webkit-transform: translate(-40%, 0%) rotateZ(-10deg);
	              transform: translate(-40%, 0%) rotateZ(-10deg);
	  }
	}
	@keyframes leg_front_bot {

	  0% {
	      -webkit-transform-origin: 20% 40%;
	              transform-origin: 20% 40%;
	      -webkit-transform: translate(30%, 0%) rotateZ(-10deg);
	              transform: translate(30%, 0%) rotateZ(-10deg);
	  }
	  15% {
	      -webkit-transform-origin: 20% 40%;
	              transform-origin: 20% 40%;
	      -webkit-transform: translate(80%, 0%) rotateZ(-10deg);
	              transform: translate(80%, 0%) rotateZ(-10deg);
	  }
	  30% {
	      -webkit-transform-origin: 20% 40%;
	              transform-origin: 20% 40%;
	      -webkit-transform: translate(60%, 0%) rotateZ(-10deg);
	              transform: translate(60%, 0%) rotateZ(-10deg);
	  }
	  45% {
	      -webkit-transform-origin: 20% 40%;
	              transform-origin: 20% 40%;
	      -webkit-transform: translate(5%, 10%) rotateZ(-50deg);
	              transform: translate(5%, 10%) rotateZ(-50deg);
	  }
	  60% {
	      -webkit-transform-origin: 20% 40%;
	              transform-origin: 20% 40%;
	      -webkit-transform: translate(-120%, -10%) rotateZ(-10deg);
	              transform: translate(-120%, -10%) rotateZ(-10deg);
	  }
	  70% {
	      -webkit-transform-origin: 20% 40%;
	              transform-origin: 20% 40%;
	      -webkit-transform: translate(-10%, -10%) rotateZ(0deg);
	              transform: translate(-10%, -10%) rotateZ(0deg);
	  }
	  80% {
	      -webkit-transform-origin: 20% 40%;
	              transform-origin: 20% 40%;
	      -webkit-transform: translate(-40%, 0%) rotateZ(-10deg);
	              transform: translate(-40%, 0%) rotateZ(-10deg);
	  }
	}

	@-webkit-keyframes foot_front {
	  0% {
	      -webkit-transform-origin: 20% 40%;
	              transform-origin: 20% 40%;
	      -webkit-transform: translate(20%, 0%) rotateZ(-10deg);
	              transform: translate(20%, 0%) rotateZ(-10deg);
	  }
	  15% {
	      -webkit-transform-origin: 20% 40%;
	              transform-origin: 20% 40%;
	      -webkit-transform: translate(60%, 0%) rotateZ(-10deg);
	              transform: translate(60%, 0%) rotateZ(-10deg);
	  }
	  30% {
	      -webkit-transform-origin: 20% 40%;
	              transform-origin: 20% 40%;
	      -webkit-transform: translate(50%, 30%) rotateZ(-40deg);
	              transform: translate(50%, 30%) rotateZ(-40deg);
	  }
	  45% {
	      -webkit-transform-origin: 20% 40%;
	              transform-origin: 20% 40%;
	      -webkit-transform: translate(80%, -10%) rotateZ(-60deg);
	              transform: translate(80%, -10%) rotateZ(-60deg);
	  }
	  60% {
	      -webkit-transform-origin: 20% 40%;
	              transform-origin: 20% 40%;
	      -webkit-transform: translate(-70%, -10%) rotateZ(-20deg);
	              transform: translate(-70%, -10%) rotateZ(-20deg);
	  }
	  70% {
	      -webkit-transform-origin: 20% 40%;
	              transform-origin: 20% 40%;
	      -webkit-transform: translate(-10%, -40%) rotateZ(20deg);
	              transform: translate(-10%, -40%) rotateZ(20deg);
	  }
	  80% {
	      -webkit-transform-origin: 20% 40%;
	              transform-origin: 20% 40%;
	      -webkit-transform: translate(-10%, -10%) rotateZ(-20deg);
	              transform: translate(-10%, -10%) rotateZ(-20deg);
	  }
	}

	@keyframes foot_front {
	  0% {
	      -webkit-transform-origin: 20% 40%;
	              transform-origin: 20% 40%;
	      -webkit-transform: translate(20%, 0%) rotateZ(-10deg);
	              transform: translate(20%, 0%) rotateZ(-10deg);
	  }
	  15% {
	      -webkit-transform-origin: 20% 40%;
	              transform-origin: 20% 40%;
	      -webkit-transform: translate(60%, 0%) rotateZ(-10deg);
	              transform: translate(60%, 0%) rotateZ(-10deg);
	  }
	  30% {
	      -webkit-transform-origin: 20% 40%;
	              transform-origin: 20% 40%;
	      -webkit-transform: translate(50%, 30%) rotateZ(-40deg);
	              transform: translate(50%, 30%) rotateZ(-40deg);
	  }
	  45% {
	      -webkit-transform-origin: 20% 40%;
	              transform-origin: 20% 40%;
	      -webkit-transform: translate(80%, -10%) rotateZ(-60deg);
	              transform: translate(80%, -10%) rotateZ(-60deg);
	  }
	  60% {
	      -webkit-transform-origin: 20% 40%;
	              transform-origin: 20% 40%;
	      -webkit-transform: translate(-70%, -10%) rotateZ(-20deg);
	              transform: translate(-70%, -10%) rotateZ(-20deg);
	  }
	  70% {
	      -webkit-transform-origin: 20% 40%;
	              transform-origin: 20% 40%;
	      -webkit-transform: translate(-10%, -40%) rotateZ(20deg);
	              transform: translate(-10%, -40%) rotateZ(20deg);
	  }
	  80% {
	      -webkit-transform-origin: 20% 40%;
	              transform-origin: 20% 40%;
	      -webkit-transform: translate(-10%, -10%) rotateZ(-20deg);
	              transform: translate(-10%, -10%) rotateZ(-20deg);
	  }
	}


	@-webkit-keyframes arm_back_top {
	  0% {
	      -webkit-transform-origin: 20% 40%;
	              transform-origin: 20% 40%;
	      -webkit-transform: translate(0%, 0%) rotateZ(0deg);
	              transform: translate(0%, 0%) rotateZ(0deg);
	  }
	  45% {
	      -webkit-transform-origin: 20% 40%;
	              transform-origin: 20% 40%;
	      -webkit-transform: translate(-20%, 0%) rotateZ(20deg);
	              transform: translate(-20%, 0%) rotateZ(20deg);
	  }
	}


	@keyframes arm_back_top {
	  0% {
	      -webkit-transform-origin: 20% 40%;
	              transform-origin: 20% 40%;
	      -webkit-transform: translate(0%, 0%) rotateZ(0deg);
	              transform: translate(0%, 0%) rotateZ(0deg);
	  }
	  45% {
	      -webkit-transform-origin: 20% 40%;
	              transform-origin: 20% 40%;
	      -webkit-transform: translate(-20%, 0%) rotateZ(20deg);
	              transform: translate(-20%, 0%) rotateZ(20deg);
	  }
	}

	@-webkit-keyframes arm_back_bot {
	  0% {
	      -webkit-transform-origin: 20% 40%;
	              transform-origin: 20% 40%;
	      -webkit-transform: translate(0%, 0%) rotateZ(0deg);
	              transform: translate(0%, 0%) rotateZ(0deg);
	  }
	    45% {
	        -webkit-transform-origin: 20% 40%;
	                transform-origin: 20% 40%;
	        -webkit-transform: translate(-120%, 0%) rotateZ(30deg);
	                transform: translate(-120%, 0%) rotateZ(30deg);
	    }
	}

	@keyframes arm_back_bot {
	  0% {
	      -webkit-transform-origin: 20% 40%;
	              transform-origin: 20% 40%;
	      -webkit-transform: translate(0%, 0%) rotateZ(0deg);
	              transform: translate(0%, 0%) rotateZ(0deg);
	  }
	    45% {
	        -webkit-transform-origin: 20% 40%;
	                transform-origin: 20% 40%;
	        -webkit-transform: translate(-120%, 0%) rotateZ(30deg);
	                transform: translate(-120%, 0%) rotateZ(30deg);
	    }
	}

	@-webkit-keyframes arm_front_top {
	  0% {
	      -webkit-transform-origin: 20% 40%;
	              transform-origin: 20% 40%;
	      -webkit-transform: translate(0%, 0%) rotateZ(-0deg);
	              transform: translate(0%, 0%) rotateZ(-0deg);
	  }
	  45% {
	      -webkit-transform-origin: 20% 40%;
	              transform-origin: 20% 40%;
	      -webkit-transform: translate(15%, 5%) rotateZ(-20deg);
	              transform: translate(15%, 5%) rotateZ(-20deg);
	  }
	}

	@keyframes arm_front_top {
	  0% {
	      -webkit-transform-origin: 20% 40%;
	              transform-origin: 20% 40%;
	      -webkit-transform: translate(0%, 0%) rotateZ(-0deg);
	              transform: translate(0%, 0%) rotateZ(-0deg);
	  }
	  45% {
	      -webkit-transform-origin: 20% 40%;
	              transform-origin: 20% 40%;
	      -webkit-transform: translate(15%, 5%) rotateZ(-20deg);
	              transform: translate(15%, 5%) rotateZ(-20deg);
	  }
	}

	@-webkit-keyframes arm_front_bot {
	  0% {
	      -webkit-transform-origin: 20% 40%;
	              transform-origin: 20% 40%;
	      -webkit-transform: translate(0%, 0%) rotateZ(0deg);
	              transform: translate(0%, 0%) rotateZ(0deg);
	  }
	  45% {
	      -webkit-transform-origin: 20% 40%;
	              transform-origin: 20% 40%;
	      -webkit-transform: translate(70%, 30%) rotateZ(-50deg);
	              transform: translate(70%, 30%) rotateZ(-50deg);
	  }
	}

	@keyframes arm_front_bot {
	  0% {
	      -webkit-transform-origin: 20% 40%;
	              transform-origin: 20% 40%;
	      -webkit-transform: translate(0%, 0%) rotateZ(0deg);
	              transform: translate(0%, 0%) rotateZ(0deg);
	  }
	  45% {
	      -webkit-transform-origin: 20% 40%;
	              transform-origin: 20% 40%;
	      -webkit-transform: translate(70%, 30%) rotateZ(-50deg);
	              transform: translate(70%, 30%) rotateZ(-50deg);
	  }
	}

	@-webkit-keyframes tail {
	  0% {
	      -webkit-transform-origin: 20% 40%;
	              transform-origin: 20% 40%;
	      -webkit-transform: translate(0%, 0%) rotateZ(0deg);
	              transform: translate(0%, 0%) rotateZ(0deg);
	  }
	  50% {
	      -webkit-transform-origin: 20% 40%;
	              transform-origin: 20% 40%;
	      -webkit-transform: translate(-20%, 0%) rotateZ(0deg);
	              transform: translate(-20%, 0%) rotateZ(0deg);
	  }
	}

	@keyframes tail {
	  0% {
	      -webkit-transform-origin: 20% 40%;
	              transform-origin: 20% 40%;
	      -webkit-transform: translate(0%, 0%) rotateZ(0deg);
	              transform: translate(0%, 0%) rotateZ(0deg);
	  }
	  50% {
	      -webkit-transform-origin: 20% 40%;
	              transform-origin: 20% 40%;
	      -webkit-transform: translate(-20%, 0%) rotateZ(0deg);
	              transform: translate(-20%, 0%) rotateZ(0deg);
	  }
	}









	#foot_x5F_front {
	  -webkit-animation : foot_front 1.5s linear infinite;
	          animation : foot_front 1.5s linear infinite;
	}
	#foot_x5F_back {
	  -webkit-animation : foot_back 1.5s linear infinite;
	          animation : foot_back 1.5s linear infinite;
	}
	#leg_x5F_back_x5F_top {
	  -webkit-animation : leg_back_top 1.5s linear infinite;
	          animation : leg_back_top 1.5s linear infinite;
	}
	#leg_x5F_back_x5F_bot{
	  -webkit-animation : leg_back_bot 1.5s linear infinite;
	          animation : leg_back_bot 1.5s linear infinite;
	}
	#leg_x5F_front_x5F_bot{
	  -webkit-animation : leg_front_bot 1.5s linear infinite;
	          animation : leg_front_bot 1.5s linear infinite;
	}
	#leg_x5F_front_x5F_top{
	  -webkit-animation : leg_front_top 1.5s linear infinite;
	          animation : leg_front_top 1.5s linear infinite;
	}
	#arm_x5F_back_x5F_top {
	  -webkit-animation : arm_back_top 1.5s linear infinite;
	          animation : arm_back_top 1.5s linear infinite;
	}
	#arm_x5F_back_x5F_bot {
	  -webkit-animation : arm_back_bot 1.5s linear infinite;
	          animation : arm_back_bot 1.5s linear infinite;
	}
	#arm_x5F_front_x5F_top {
	  -webkit-animation : arm_front_top 1.5s linear infinite;
	          animation : arm_front_top 1.5s linear infinite;
	}
	#arm_x5F_front_x5F_bot {
	  -webkit-animation : arm_front_bot 1.5s linear infinite;
	          animation : arm_front_bot 1.5s linear infinite;
	}
	#tail {
	  -webkit-animation : tail 1.5s linear infinite;
	          animation : tail 1.5s linear infinite;
	}
</style>
<g id="CAT_x2F_BUNNY">
	<polyline id="ear_x5F_front" class="st0" points="27.1,15.2 27.1,24.2 32.1,20.2 	"/>
	<polyline id="ear_x5F_back" class="st0" points="58.5,15.4 50.4,19.4 56.2,22.1 	"/>
	<path id="arm_x5F_back_x5F_top" class="st0" d="M64.6,78c-0.8-3.7-1.5-6.6-1.6-8.2c-0.7-6.2-2.5-20.2-8.8-18.5
		c-5.3,1.4-3.1,9.6-2,14.8c0.2,0.8,4.4,11.5,5.3,14.4c0.1,0.2,0.2,0.5,0.3,1c1.8,1.5,3.2,2.7,3.9,1.2C63.7,81.4,64.6,80.7,64.6,78z"
		/>
	<path id="arm_x5F_back_x5F_bot" class="st0" d="M64.6,78c-1.1-1.6-2.7-2.5-4.6-1.2c-0.7,1.4-2,2.9-2.2,4.7
		c1.6,5.8,8.7,32.4,11.4,28.4C71.4,106.7,67.2,89.1,64.6,78z"/>
	<path id="foot_x5F_front" class="st1" d="M41.6,172.6c-5.2-3.7-10.5-7-17-8.2c-2.1-0.4-5.5,1.4-6,3.9s-2.8,3.1,0.4,6.2
		c3.1,3.1,13.6,6.7,19,7.1C39.2,178.7,40.3,175.6,41.6,172.6z"/>
	<path id="foot_x5F_back" class="st1" d="M52,157.3c2.3-1.4,4.6-2.7,6.5-4.6c0.7-0.7-3.1-4.8-3.5-5.2c-0.4-0.5-0.7-0.6-0.4-0.3
		c-0.7-0.3-0.6,0.2-1,0.5c-1,0.6-0.2-0.6-2.3-0.2s-7-0.6-8.3,3c-1.3,3.7-3.8,8,0.4,11.2C47.6,165,49,159.2,52,157.3z"/>
	<path id="CAT_x5F_leg_x5F_back_x5F_bot" class="st2" d="M56.3,157.3L23.7,140c0,0-1.8-8.3,0.7-8.6c2.6-0.3,29,5.8,38.6,14.4
		C63,145.7,66.9,156.2,56.3,157.3z"/>
	<path id="CAT_x5F_leg_x5F_back_x5F_top" class="st2" d="M37.2,102.9c0,0,12.8-8.2,16.6-2c3.8,6.3,0.3,14.1,0.3,14.1l-19.6,23.4
		c0,0-12.6,8.5-11.2-4.4S37.2,102.9,37.2,102.9z"/>
	<path id="CAT_x5F_hip_x5F_back" class="st2" d="M58.3,80.1l-4.7,10.6c0,0-1.8,1.8,1,3.2c2.8,1.4,5.2,5.5,5.2,5.5s2,8.8,0,11.2
		c0,0-5.8,9.7-16-0.5L42.9,88l2.5-7.5L58.3,80.1z"/>
	<path id="leg_x5F_back_x5F_top" class="st3" d="M36.2,102.5L24,131.2c0,0-6.5,15.8,10.4,7l17.2-27c0,0,6.4-9.9,2.7-13.5
		C50.7,94,36.2,102.5,36.2,102.5z"/>
	<path id="leg_x5F_back_x5F_bot" class="st3" d="M41.1,150.3l12.7,5.5c0,0,7.1-4.7,6.5-10.4s-30.8-14.6-30.8-14.6s-11.1,1.5-5.3,9.4
		C30,148.2,41.1,150.3,41.1,150.3z"/>
	<path id="leg_x5F_front_x5F_bot" class="st3" d="M37,133.8c-4.8-2.1-8.7,0.6-10,4.8c0.7,15,1.4,31.5,1.6,33.4c0,0,1.7,4.4,7.3,4.2
		s6.7-4,6.7-4s0.1-25-0.3-33C41,137.1,39.4,135.2,37,133.8z"/>
	<path id="leg_x5F_front_x5F_top" class="st3" d="M56.3,101.1c-1.1-9.7-25-6.7-28.8-2.2c0,0-1.9,9.3-1.6,15.1
		c0.1,2.5,0.6,13.1,1.1,24.6c-1.1,6.7,2.6,8.1,7.4,10.2c2.4,1.4,7.4-4.5,7.9-9.6c0-0.4,0-0.8-0.1-1.2
		C41,119.3,45.5,110.4,56.3,101.1z"/>
	<path id="CAT_x5F_leg_x5F_front_x5F_bot" class="st4" d="M42.8,151.6l-0.3-13.4c0,0-10.5-16.7-15.3-0.6l1.6,33.4
		c0,0,8.4,10.7,14,0.2L42.8,151.6z"/>
	<path id="CAT_x5F_leg_x5F_front_x5F_top" class="st4" d="M39,94c0,0,13.8-3.1,10.1,12.8s-7.3,34.3-7.3,34.3s-7.6,17.5-13.5-1.6
		s4-44.1,4-44.1L39,94z"/>
	<path id="CAT_x5F_hip_x5F_front" class="st4" d="M48.2,81.7c0,0-5,7.8,0,14.2c5,6.3-1.5,15.5-1.5,15.5s-7.4,8.3-19.5,0
		c0,0,3.3-25.2,8-28.9S48.2,81.7,48.2,81.7z"/>
	<path id="top" class="st5" d="M25.7,98.7c0,0,7,3.8,16.2,3.8c9.3,0,14.4-3.8,14.4-3.8c-0.9-10.7,1.3-17.5,0.1-22.4
		c-1-4-2.9-20.3-2.9-20.3c-2.8,6.6-3.1,7.7-3.1,7.7c-3.9-5.8-15.5-5.6-15.5-5.6c0.6,6.2-3.2,11.7-5.1,13s-3.8,0.7-1.9,7.4
		C28.7,83.3,28.8,89.3,25.7,98.7z"/>
	<path id="arm_x5F_front_x5F_bot" class="st0" d="M26,78.8c-2.7-0.9-3.7,2.1-6,4.2c-0.8,5.1-16.8,20.6-10.6,20.6
		c4.2,0,11.5-8.4,16.5-16.4C25.6,83.4,30.8,79.8,26,78.8z"/>
	<path id="arm_x5F_front_x5F_top" class="st0" d="M31,52.7c-6-1.4-8.4,8.6-9,13c-0.6,4.4-2.4,12.4-2,16.8c0,0.2,0,0.3,0,0.5
		c1-3.8-2,5.3,0.6,6.2c4.8,1,3.7-1.2,5.3-2c0.2-0.3,0.4-0.6,0.6-0.9c2.5-4.1,4.3-8,4.6-10.4C32.1,68.7,38.1,54.4,31,52.7z"/>
	<polygon id="CAT_x5F_chest" class="st0" points="39.4,63 38.7,70 33.9,70 27.5,47.6 39.4,49 	"/>
	<path id="CAT_x5F_top" class="st6" d="M61.8,63c0,0-16,5.9-38.8,0l-1.6,10l12.2,2l-2.1,15l26.7-1.2l-0.7-12.7l7.3-1.1
		C64.7,75.1,64.2,63,61.8,63z"/>
	<path id="hair" class="st7" d="M42.1,69.2c0,0-2-1.1-4-1s-0.7-1.8-1.9-0.7c0,0-1-18.2-8.4-15.6c0,0-1.5-12.1-3.4-20.7
		s4-12.1,4-12.1s-0.2-7.5,8.8-9s17.8,1.9,19,9.1s1.9,9.2,3.1,9.4c0,0,1.3,24.1-2.2,31.6C52.5,70.1,46.3,75.1,42.1,69.2z"/>
	<path id="CAT_x5F_hair" class="st8" d="M42.9,74.7c0,0-2-1.2-4-1.1s-0.7-2-1.9-0.8c0,0-1.4-20.5-8.7-17.4c0,0-1.7-13.6-3.8-23.3
		s3.8-13.7,3.8-13.7S28,10,36.9,8.1S54.7,9.9,56.1,18s2.1,10.3,3.3,10.5c0,0,1.8,27.1-1.6,35.6C53.3,75.5,47.2,81.3,42.9,74.7z"/>
	<circle id="tail" class="st7" cx="51.6" cy="104.7" r="6.5"/>
	<path id="CAT_x5F_tail" class="st8" d="M52.7,104.2c0,0,12.5,0.6,8.8,18.2c-3.7,17.6,7.3,26.4,7.3,26.4s7.6,4.8,1.4-2.7
		c-6.1-7.6-7.4-11-6.2-22.7s0.4-24.6-9.7-26.1S52.7,104.2,52.7,104.2z"/>
</g>
<g id="ELEPHANT">
	<path id="ELEPHANT_x5F_foot_x5F_back" class="st6" d="M54.5,152c0,0-8.2,5.7-8.4,8s4.5,3.8,9.5,2.1s7.8-2.5,9.8-3.9
		c2-1.4,4.2-4.3,2.3-6.3s-4.7-3.8-6-4C60.3,147.6,54.5,152,54.5,152z"/>
	<path id="ELEPHANT_x5F_leg_x5F_back_x5F_bot" class="st9" d="M25.4,134.5c0,0.5,0.2,0.9,0.4,1.3c4,2,10.9,4.9,17.8,9.4
		c8,5.3,12.4,8.7,14.6,8.8c2.2,0.1,4.1-2.1,4.1-4.3s-17-15.7-23.1-20.2c-2.1-1.6-3.9-2.7-5.7-3.6C29.5,126.3,25.5,128.9,25.4,134.5z
		"/>
	<g id="ELEPHANT_x5F_leg_x5F_back_x5F_top">
		<path class="st9" d="M38.5,135.8c0.2-0.8,0.5-1.4,0.7-2c1.9-5,2.7-8.7,3.5-12.2c-4-0.7-7.8-4.1-10.7-7.8c-0.7,2.4-1.2,4.3-1.4,5.4
			c-0.8,3-1.6,8.7-3.3,15.3C30.3,137.5,34.7,137,38.5,135.8z"/>
		<path class="st10" d="M34.7,88.5c-2.3,6.7-3,11.7-3.3,12.9c-0.3,1.3-4.6,13.1-4.6,13.1s2.3,3.5,8.9,5.8c7.3,2.5,9.7-0.1,9.7-0.1
			l9.1-20.6c0,0-11.4-8.7-15-9.9C35.8,88.6,34.6,88.4,34.7,88.5z"/>
	</g>
	<path id="ELEPHANT_x5F_foot_x5F_front" class="st6" d="M28.5,169.6c0,0-9.4-3.2-11.4-2s-0.5,5.9,3.9,8.9s6.7,4.8,9,5.6
		c2.3,0.7,5.9,0.8,6.4-1.9s0.3-6-0.3-7.2C35.6,171.6,28.5,169.6,28.5,169.6z"/>
	<path id="ELEPHANT_x5F_tail" class="st11" d="M41.9,103.4c0,0,3.7,19.3,4.6,27c0.9,7.7-1.9,1-1.9,1s-4.3-23.6-5.9-25.7
		C37.1,103.6,41.9,103.4,41.9,103.4z"/>
	<path id="ELEPHANT_x5F_leg_x5F_front_x5F_bot" class="st12" d="M25.5,134.2c-0.4,0.3-0.6,0.7-0.8,1.2c0.8,4.6,2.5,12.2,3,20.7
		c0.5,10,0.4,15.8,1.6,17.7s4.1,2,5.9,0.7c1.7-1.3,2.5-24,2.5-31.8c0-2.7-0.2-4.9-0.5-6.9C34.4,132.5,30,130.9,25.5,134.2z"/>
	<g id="ELEPHANT_x5F_leg_x5F_front_x5F_top">
		<path class="st12" d="M37.7,141.4c0-0.8,0-1.5,0-2.1c0-5.3-0.6-9-1.1-12.6c-4,0.8-8.8-1.1-12.8-3.5c0.2,2.5,0.4,4.5,0.6,5.6
			c0.4,3.1,1.6,8.7,2.4,15.5C30.7,146,34.6,144,37.7,141.4z"/>
		<path class="st13" d="M19.4,98.5c0.2,7.1,1.4,12,1.5,13.2c0.2,1.3,0.4,13.9,0.4,13.9s3.4,2.5,10.4,2.3c7.7-0.2,9-3.5,9-3.5
			l1.2-22.5c0,0-13.7-4.1-17.5-3.9C20.6,98.3,19.4,98.5,19.4,98.5z"/>
	</g>
	<g id="ELEPHANT_x5F_head">
		<path class="st14" d="M40.8,20.6l2.5-1.1l6.4-7.5l15.2,6.2c0,0,5.7,5.8-0.4,18s-5.7,12.5-5.7,12.5s-3,3.1-4.6-3.6
			C52.6,38.4,40.8,20.6,40.8,20.6z"/>
		<path class="st12" d="M33.8,16.4l-2.9,0.1l-9.4-4.2l-12,12c0,0-3,7.7,8.3,16.2s11,9,11,9s4.3,1.5,2.9-5.2S33.8,16.4,33.8,16.4z"/>
	</g>
	<path id="ELEPHANT_x5F_arm_x5F_back_x5F_bot" class="st12" d="M68.4,96.6c-0.2-0.7-2.5-5.9-2.5-5.9l-4-18.1c-0.1-0.3-0.2-0.6-0.4-1
		c-3.2,0.6-6.3,1.3-9.3,2.9c2.7,6.1,8.8,17.4,8.9,18c0,0-0.7,2.1-0.1,3c0.7,0.9,1.5,1.2,1.6,1.8c0.1,0.6-0.3,3-0.2,3.6
		c0,0.6,2.5,3.3,3.5,2.8c0,0,1.1-2,1.4-2.6C67.7,100.4,68.5,97.4,68.4,96.6z"/>
	<g id="ELEPHANT_x5F_arm_x5F_back_x5F_top">
		<path class="st15" d="M52.5,39.7c-1.3-1.8-4.8-0.6-6,1.2c-1.1,1.9-0.2,7.3,2,16.9s2.2,10.4,2.2,10.4l1.7,8c0,0,9-1.2,10.2-1.1
			c1.2,0-0.4-5.2-0.4-5.2S58.5,53.5,57,48C55.6,42.3,52.6,39.8,52.5,39.7z"/>
		<path class="st16" d="M51.6,71.7l10.7-1.9c0,0,1.6,4.1,0.9,4.6c-0.8,0.6-10.7,1.8-10.7,1.8L51.6,71.7z"/>
	</g>
	<g id="ELEPHANT_x5F_top">
		<path class="st17" d="M54.8,61.1c-0.5-9.4-1.6-18.8-3.3-22.5C41,36.4,46.7,38,39.9,34.7c-9.6,3.3-10.6,0.6-12.8,1.8
			c-2.2,1.1-4.3,2.4-6.4,3.6c-7,4.1-6.9,7.7-4.7,16.6s2.5,41.9,2.5,41.9c11.2,7.4,24.5,4.6,24.5,4.6s8.8-1.4,12.2-5.3
			C55.1,97.8,55.3,70.5,54.8,61.1z M45,66.9L45,66.9c-0.1-1.5-0.2-3.1-0.3-4.5C44.9,64,45,65.5,45,66.9z"/>
	</g>
	<path id="ELEPHANT_x5F_arm_x5F_front_x5F_bot" class="st12" d="M3.6,96.4c0.2-0.7,2.9-5.6,2.9-5.6L12,73.3c0.1-0.4,0.3-0.6,0.4-1
		c2.7,1,5.5,2,7.9,3.9c-3,5.7-9.7,16.2-9.8,16.8c0,0,0.4,2.3-0.3,3.1c-0.7,0.8-1.5,1-1.6,1.6s0,2.9-0.2,3.5c-0.1,0.6-2.5,3-3.4,2.3
		c0,0-0.8-2.1-1-2.8C3.7,100,3.4,97,3.6,96.4z"/>
	<g id="ELEPHANT_x5F_arm_x5F_front_x5F_top">
		<path class="st15" d="M16.4,43.1c1.3-1.8,5.5-0.8,7.1,1c1.6,1.9,1.2,7.4-0.1,17c-1.4,9.7-1.2,10.5-1.2,10.5l-0.9,8.2
			c0,0-10.7-1.1-12-1c-1.4,0-0.1-5.3-0.1-5.3s2.1-16.7,3.1-22.3S16.5,43,16.4,43.1z"/>
		<path class="st16" d="M21.9,75.2L9.2,73.6c0,0-1.3,4.2-0.4,4.7c0.8,0.5,12.6,1.5,12.6,1.5L21.9,75.2z"/>
	</g>
	<path id="ELEPHANT_x5F_neck" class="st12" d="M60.2,25.1c-0.1,0.3,0,0.4,0,0.7c0.2,1.8,0,3.7-0.8,5.3c-0.7,1.8-2.1,2.9-2.9,4.5
		c-0.6,1-0.2,2.6-1.4,5s-9.7,12.5-17.6,8.9S27,39.3,25.9,36.6c-1.2-2.8-2.8-11.1-2.8-11.1s-0.6-8.9,0.6-13c0.8-3,3.2-5.7,5.5-7.7
		C30.2,4,31.5,3.1,33,3c2-0.2,4,1,6,1.4c1.5,0.2,2.7-0.5,4.3-0.2c2,0.4,4.7,2.5,6.2,3.8C54.9,12.5,59.3,18.8,60.2,25.1z"/>
</g>
<g id="INSECT">
	<path id="INSECT_x5F_foot_x5F_back" class="st18" d="M56,153.2c0,0-7.8,6.3-7.8,8.6c-0.1,2.3,4.7,3.5,9.6,1.4s7.6-3.1,9.5-4.6
		s3.9-4.5,1.8-6.4c-2.1-1.9-5-3.5-6.3-3.6C61.3,148.4,56,153.2,56,153.2z"/>
	<g id="INSECT_x5F_foot_x5F_front">
		<path id="INSECT_x5F_foot_x5F_front_1_" class="st18" d="M29,169.6c0,0-9.4-3.2-11.4-2s-0.5,5.9,3.9,8.9s6.7,4.8,9,5.6
			c2.3,0.7,5.9,0.8,6.4-1.9s0.3-6-0.3-7.2C36.1,171.6,29,169.6,29,169.6z"/>
		<path id="INSECT_x5F_foot_x5F_front_2_" class="st19" d="M31.2,170.4c0,0-6-1.6-7.1-0.6s0.3,4.4,3.2,6.2c3,1.9,4.5,3,6,3.4
			c1.5,0.3,3.7,0.1,3.7-1.9s-0.4-4.4-0.9-5.3C35.7,171.3,31.2,170.4,31.2,170.4z"/>
	</g>
	<g id="INSECT_x5F_arm_x5F_back_x5F_bot">
		<path class="st19" d="M62.4,73c1.6,6.3,3.6,14.2,4,14.9c0.7,1.2,2.3,5.9,2.2,8c-0.1,2.1-2.9,4.8-3.7,4.8c-0.7-0.2-0.3-1.7-0.5-2.9
			c-0.2-1.2-0.9-3.7-1.5-3.8c-0.7-0.1-0.2,2.6-1.1,2.6S60,92.3,60.2,91c0.2-1.2,1.3-2.4,1.2-3.2c-0.1-0.5-2.6-7-4.8-12.8
			C58.5,74.4,60.4,73.8,62.4,73z"/>
		<path class="st20" d="M57.4,64.3c1.2,0,2.5,0.7,3.8,1.8c0.9,3,2,8,2,8c-3.5,2.5-7.1,1.5-7.1,1.5s-1.4-3.7-2.4-6.2
			C53.9,66.2,54,62.5,57.4,64.3z"/>
	</g>
	<path id="INSECT_x5F_arm_x5F_back_x5F_top" class="st20" d="M52.3,45.5c-1.6-2.7-3.5-4-6.3-2.5c-2.8,1.5-1.7,6.8,0.4,10.4
		c2.2,3.6,6,10.5,6.2,11.1c0.3,0.6,3.7,6.4,3.7,6.4s5.7,6.5,5.3-1.7c0,0-1.6-4.7-2.1-6.2S55.4,50.7,52.3,45.5z"/>
	<g id="INSECT_x5F_leg_x5F_back_x5F_bot">
		<path class="st19" d="M56.4,154.2c1.1,0.6,2,1.1,2.6,1.6c0.5,0.4,0.9,1,1.4,1.8c2.6-1.5,4.3-4.5,5.1-7.4c-1.8-1.4-4.1-2.8-6-4
			C59.8,149.4,58.6,152.2,56.4,154.2z"/>
		<path class="st21" d="M51.1,155.2l-29.4-22.4c0,0-0.5-8.5,2.1-8.4c2.6,0,27.7,10.3,35.8,20.3C59.6,144.8,61.8,155.8,51.1,155.2z"
			/>
	</g>
	<path id="INSECT_x5F_leg_x5F_back_x5F_top" class="st21" d="M42.7,92.4c0,0,12.9-8,16.6-1.7c3.6,6.3,0,14.1,0,14.1l-20,23.1
		c0,0-12.7,8.3-11.1-4.6C29.9,110.5,42.7,92.4,42.7,92.4z"/>
	<path id="INSECT_x5F_hip_x5F_back" class="st21" d="M56.3,74.1l-4.7,10.6c0,0-1.8,1.8,1,3.2c2.8,1.4,5.2,5.5,5.2,5.5s2,8.8,0,11.2
		c0,0-5.8,9.7-16-0.5L40.9,82l2.5-7.5L56.3,74.1z"/>
	<path id="INSECT_x5F_leg_x5F_front_x5F_bot" class="st22" d="M40.8,145.6l-0.3-13.4c0,0-10.5-16.7-15.3-0.6l1.6,33.4
		c0,0,8.4,10.7,14,0.2V145.6z"/>
	<path id="INSECT_x5F_leg_x5F_front_x5F_top" class="st22" d="M37,88c0,0,13.8-3.1,10.1,12.8s-7.3,34.3-7.3,34.3s-7.6,17.5-13.5-1.6
		s4-44.1,4-44.1L37,88z"/>
	<path id="INSECT_x5F_hip_x5F_front" class="st22" d="M46.2,75.7c0,0-5,7.8,0,14.2c5,6.3-1.5,15.5-1.5,15.5s-7.4,8.3-19.5,0
		c0,0,3.3-25.2,8-28.9S46.2,75.7,46.2,75.7z"/>
	<g id="INSECT_x5F_leg_x5F_front_x5F_bot_1_">
		<path class="st19" d="M29.4,174.6c3.3,2.9,6.1,2.2,8.2-0.1c0-1.3-0.1-2.9-0.1-4.8c-3-0.2-6-1.3-8.6-2.8
			C29.1,169.7,29.2,172.4,29.4,174.6z"/>
	</g>
	<path id="INSECT_x5F_hair_x5F_back" class="st23" d="M42.5,8.8l5.1,5.1l-3.3,19.6l-0.2,5.7c0,0,0.7,4,2.4,4.2s1.6,3.2,3.1,2.3
		s5.3-3.8,5.2-5.1c-0.1-1.3-2.1-5.3-0.7-6.8c1.3-1.5,4.7-4.3,4.3-6.5s-3.3-6.4-3.2-7.9c0.1-1.5-0.1-6.1-2.9-8.6
		C49.4,8.4,42.5,8.8,42.5,8.8z"/>
	<path id="INSECT_x5F_top" class="st18" d="M37.8,37.9c0,0-4.9,0.1-6.3,2.1c-1.3,2-4.7,9.6-4.9,12.2c-0.4,2.7,2,6.8,2,13.7
		s-2.7,21.5-2.4,22.8s3.9,7.5,9,7.4c5.1-0.2,8.5-6.1,11.8-7.2s14,7.4,14,7.4c4.5-12.9-4.4-17.5-5.3-19.8c-0.9-2.3-9.1-6.5-8.5-9.5
		c0.7-3,3.3-9.3,6.3-13s1.5-16.7,0-11.4c-1.5-2.6-2.9-2.5-2.9-2.5s-1.5,0.8-3.4,2.1c-1.9,1.3-4.2,3.9-9.3,1.9
		C35.1,43,37.8,37.9,37.8,37.9z"/>
	<g id="INSECT_x5F_arm_x5F_front_x5F_bot">
		<path class="st19" d="M15.2,74.2C12.4,80.1,8.8,87.4,8.3,88c-0.9,1.1-3.5,5.2-3.8,7.4c-0.3,2.1,2,5.5,2.8,5.6
			c0.7,0.1,0.7-1.6,1-2.7c0.4-1.2,1.5-3.5,2.3-3.4c0.6,0-0.2,2.6,0.6,2.8c0.8,0.1,2.5-3.9,2.6-5.2c0-1.3-0.9-2.8-0.6-3.5
			c0.2-0.5,4-6.4,7.3-11.5C18.6,76.4,16.8,75.3,15.2,74.2z"/>
		<path class="st20" d="M21.4,66.7c-1.1-0.2-2.7,0.1-4.1,0.9c-1.4,2.7-3.5,7.4-3.5,7.4c3.1,3.4,6.9,3.1,6.9,3.1s2.1-3.3,3.6-5.6
			C24.8,69.3,25.4,65.7,21.4,66.7z"/>
	</g>
	<path id="INSECT_x5F_arm_x5F_front_x5F_top" class="st20" d="M23.5,46.8c1.3-2.9,3.3-4.3,7.1-3s3.6,6.7,1.7,10.5
		c-1.8,3.8-4.9,11.1-5.1,11.7c-0.1,0.6-3,6.7-3,6.7s-5.5,7.1-6.7-1.3c0,0,0.9-4.8,1.2-6.4C18.9,63.4,20.9,52.3,23.5,46.8z"/>
	<g id="INSECT_x5F_wings">
		<path class="st24" d="M36.9,48.6c0,0-17.3-17.5-38-11.1c0,0,0.3,10.9,39,25.3L36.9,48.6z"/>
		<path class="st25" d="M36,60c0,0-23.9-7.7-39,7.2c0,0,5.6,9.5,46.8,4.8L36,60z"/>
		<path class="st26" d="M46.3,44.3c0,0,14.8-19.5,36.2-15.7c0,0,1.2,10.9-35.3,29.9L46.3,44.3z"/>
		<path class="st27" d="M48.7,55.5c0,0,22.6-10.6,39.7,2.4c0,0-4.3,10.1-45.8,10.6L48.7,55.5z"/>
	</g>
	<path id="INSECT_x5F_hair_x5F_front" class="st28" d="M46.6,9.9C46,2.1,68.1,20.8,56.7,26.7c0,0,0.4,3.5-1.1,5.4
		c-1.5,1.9-5.7,3.5-1.6,5.8l-7.8,6.4c0,0-0.7-1.6-3.8,1.6S36,46.5,36,46.5s-1-2.4-3.7-3.2s0.7-3.5-2.6-1.5s-1.2-1.7-3.7,0.7
		s-7-1.5-5.4-2.9s0.5-2.6-0.7-3.4c-1.2-0.8-4.5-5.7-3.6-7.2s-0.6-7.9,0-9.6c0.6-1.8,0.6-1.8,0.6-1.8s3.8-6,4.9-6.2
		c1.1-0.2,5-0.4,5-1.6s5.8-3.5,7.2-2.4S40.2-0.6,46.6,9.9z"/>
	<g id="INSECT_x5F_antennas">
		<path class="st19" d="M37.9,13.2c0,0-5.5-19.5-18.2-2.7c-0.5,0.8,10.4-13.9,17.6,4L37.9,13.2z"/>
		<ellipse class="st19" cx="20.1" cy="10.1" rx="1.7" ry="1.6"/>
		<path class="st19" d="M63.9,12c-8.8-11.6-14.1-5.7-16.5-1.1c0.5,0.1,0.9,0.4,1.1,0.8C55.4,0.9,64.1,12.2,63.9,12z"/>
		<ellipse class="st19" cx="63.4" cy="11.5" rx="1.7" ry="1.6"/>
	</g>
</g>
</svg>
