<?xml version="1.0" encoding="utf-8"?>
<!-- Generator: Adobe Illustrator 22.0.1, SVG Export Plug-In . SVG Version: 6.00 Build 0)  -->
<svg version="1.1" id="Layer_1" xmlns="http://www.w3.org/2000/svg" xmlns:xlink="http://www.w3.org/1999/xlink" x="0px" y="0px"
	 viewBox="0 0 85.5 196.8" style="enable-background:new 0 0 85.5 196.8;" xml:space="preserve">
<style type="text/css">
	.st0{fill:#D68A69;}
	.st1{fill:#171D49;}
	.st2{fill:#48626B;}
	.st3{fill:#333333;}
	.st4{fill:#506A75;}
	.st5{fill:#FFFFFF;}
	.st6{fill:#3A4D57;}
	.st7{fill:#281406;}
	.st8{fill:#E29E4B;}
	.st9{fill:#493033;}
	.st10{fill:#966E53;}
	.st11{fill:#634246;}
	.st12{fill:#5B3B3E;}
	.st13{fill:#8C654B;}
	.st14{fill:#513A40;}
	.st15{fill:#E0A053;}
	.st16{fill:#F4BB76;}
	.st17{fill:#F2B361;}
	.st18{fill:#FA8B65;}
	.st19{fill:#A57951;}
	.st20{fill:#D68162;}
	.st21{fill:#9B6249;}
	.st22{fill:#A36955;}
	.st23{fill:#4A3A56;}
	.st24{opacity:0.58;fill:#513F5E;enable-background:new    ;}
	.st25{opacity:0.74;fill:#513F5E;enable-background:new    ;}
	.st26{opacity:0.42;fill:#513F5E;enable-background:new    ;}
	.st27{opacity:0.72;fill:#513F5E;enable-background:new    ;}
	.st28{fill:#513F5E;}
</style>
<g id="CAT_x2F_BUNNY">
	<polyline id="ear_x5F_front" class="st0" points="27.1,15.2 27.1,24.2 32.1,20.2 	"/>
	<polyline id="ear_x5F_back" class="st0" points="58.5,15.4 50.4,19.4 56.2,22.1 	"/>
	<path id="arm_x5F_back_x5F_top" class="st0" d="M58.1,81.1c0.2-5.6-0.1-5.6,0.4-8.3c0.8-6.2,2.4-20.2-4.1-20.1
		c-5.5,0.1-5.3,8.6-5.5,13.9c0,0.8,1.5,12.2,1.7,15.2c0,0.2,0.1,0.5,0.1,1c1.4,1.9,2.5,3.4,3.5,2.1C56.4,84.2,57.5,83.7,58.1,81.1z"
		/>
	<path id="arm_x5F_back_x5F_bot" class="st0" d="M58.1,80.1c-0.7-1.8-2-3.1-4.2-2.3c-1,1.2-2.6,2.3-3.3,4c0.2,6,0.7,33.5,4.3,30.3
		C57.9,109.6,58,91.5,58.1,80.1z"/>
	<path id="foot_x5F_front" class="st1" d="M41.6,172.6c-5.2-3.7-10.5-7-17-8.2c-2.1-0.4-5.5,1.4-6,3.9s-2.8,3.1,0.4,6.2
		c3.1,3.1,13.6,6.7,19,7.1C39.2,178.7,40.3,175.6,41.6,172.6z"/>
	<path id="foot_x5F_back" class="st1" d="M44.9,177.1c2.7,0.4,5.3,0.9,7.9,0.6c1-0.1,0.7-5.7,0.6-6.2c0-0.6-0.2-0.9-0.1-0.5
		c-0.3-0.7-0.6-0.2-1.1-0.3c-1.2-0.2,0.2-0.6-1.6-1.6c-1.9-1-5-4.9-8.3-3c-3.4,2-8,3.7-6.8,8.9C36.6,180.2,41.4,176.7,44.9,177.1z"
		/>
	<polygon id="CAT_x5F_chest" class="st0" points="39.4,65 38.7,72 33.9,72 27.5,49.6 39.4,51 	"/>
	<path id="CAT_x5F_leg_x5F_back_x5F_bot" class="st2" d="M40.4,170.9l3.3-36.8c0,0,6.9-4.9,8.2-2.7s6,28.9,1.8,41.1
		C53.6,172.5,45.5,180.2,40.4,170.9z"/>
	<path id="CAT_x5F_leg_x5F_back_x5F_top" class="st2" d="M39.4,105.9c0,0,8.3-12.7,14.3-8.6c6,4.2,6,12.8,6,12.8l-8.3,29.4
		c0,0-8,12.9-12,0.5C35.5,127.7,39.4,105.9,39.4,105.9z"/>
	<path id="CAT_x5F_hip_x5F_back" class="st2" d="M58.3,82.1l-4.7,10.6c0,0-1.8,1.8,1,3.2c2.8,1.4,5.2,5.5,5.2,5.5s2,8.8,0,11.2
		c0,0-5.8,9.7-16-0.5L42.9,90l2.5-7.5L58.3,82.1z"/>
	<path id="leg_x5F_back_x5F_top" class="st3" d="M39.2,104.9L38.9,136c0,0,0.1,17.1,12.3,2.5l5.5-31.5c0,0,2.1-11.6-2.7-13.5
		C49.3,91.5,39.2,104.9,39.2,104.9z"/>
	<path id="leg_x5F_back_x5F_bot" class="st3" d="M39.9,157.9l0.3,13.8c0,0,7.2,4.5,12.2,1.5c4.9-2.9-0.8-42.8-0.8-42.8
		s-4.8-0.7-9.6,7.9C37.2,147,39.9,157.9,39.9,157.9z"/>
	<path id="leg_x5F_front_x5F_bot" class="st3" d="M37,133.8c-4.8-2.1-8.7,0.6-10,4.8c0.7,15,1.4,31.5,1.6,33.4c0,0,1.7,4.4,7.3,4.2
		s6.7-4,6.7-4s0.1-25-0.3-33C41,137.1,39.4,135.2,37,133.8z"/>
	<path id="leg_x5F_front_x5F_top" class="st3" d="M56.3,101.1c-1.1-9.7-25-6.7-28.8-2.2c0,0-1.9,9.3-1.6,15.1
		c0.1,2.5,0.6,13.1,1.1,24.6c-1.1,6.7,2.6,8.1,7.4,10.2c2.4,1.4,7.4-4.5,7.9-9.6c0-0.4,0-0.8-0.1-1.2
		C41,119.3,45.5,110.4,56.3,101.1z"/>
	<path id="CAT_x5F_leg_x5F_front_x5F_bot" class="st4" d="M42.8,153.6l-0.3-13.4c0,0-10.5-16.7-15.3-0.6l1.6,33.4
		c0,0,8.4,10.7,14,0.2L42.8,153.6z"/>
	<path id="CAT_x5F_leg_x5F_front_x5F_top" class="st4" d="M39,96c0,0,13.8-3.1,10.1,12.8s-7.3,34.3-7.3,34.3s-7.6,17.5-13.5-1.6
		s4-44.1,4-44.1L39,96z"/>
	<path id="CAT_x5F_hip_x5F_front" class="st4" d="M48.2,83.7c0,0-5,7.8,0,14.2c5,6.3-1.5,15.5-1.5,15.5s-7.4,8.3-19.5,0
		c0,0,3.3-25.2,8-28.9S48.2,83.7,48.2,83.7z"/>
	<path id="top" class="st5" d="M25.7,98.7c0,0,7,3.8,16.2,3.8c9.3,0,14.4-3.8,14.4-3.8c-0.9-10.7,1.3-17.5,0.1-22.4
		c-1-4-2.9-20.3-2.9-20.3c-2.8,6.6-3.1,7.7-3.1,7.7c-3.9-5.8-15.5-5.6-15.5-5.6c0.6,6.2-3.2,11.7-5.1,13s-3.8,0.7-1.9,7.4
		C28.7,83.3,28.8,89.3,25.7,98.7z"/>
	<path id="arm_x5F_front_x5F_bot" class="st0" d="M25.8,79.9c-2.8,0.7-1.9,3.8-2.7,6.8c2.1,4.7-2.7,26.4,2.4,23
		c3.5-2.3,5-13.3,4.8-22.8C28,84,30.4,78.1,25.8,79.9z"/>
	<path id="arm_x5F_front_x5F_top" class="st0" d="M29.9,53.2c-6.1-0.5-7,9.7-7,14.2c0.1,4.4-0.6,12.6,0.5,16.9c0,0.2,0,0.3,0.1,0.5
		c0.4-3.9-1.2,5.5,1.5,6c4.9,0.3,3.5-1.7,4.9-2.8c0.2-0.3,0.3-0.7,0.5-1c1.9-4.4,3.1-8.5,3-11C33.3,68.8,37.1,53.8,29.9,53.2z"/>
	<path id="CAT_x5F_top" class="st6" d="M61.8,65c0,0-16,5.9-38.8,0l-1.6,10l12.2,2l-2.1,15l26.7-1.2l-0.8-14.5l1,2.1
		C58.4,78.5,61.8,73.3,61.8,65z"/>
	<path id="hair" class="st7" d="M42.1,69.2c0,0-2-1.1-4-1s-0.7-1.8-1.9-0.7c0,0-1-18.2-8.4-15.6c0,0-1.5-12.1-3.4-20.7
		s4-12.1,4-12.1s-0.2-7.5,8.8-9s17.8,1.9,19,9.1s1.9,9.2,3.1,9.4c0,0,1.3,24.1-2.2,31.6C52.5,70.1,46.3,75.1,42.1,69.2z"/>
	<circle id="tail" class="st7" cx="51.6" cy="104.7" r="6.5"/>
	<path id="CAT_x5F_tail" class="st8" d="M52.7,106.2c0,0,12.5,0.6,8.8,18.2c-3.7,17.6,7.3,26.4,7.3,26.4s7.6,4.8,1.4-2.7
		c-6.1-7.6-7.4-11-6.2-22.7s0.4-24.6-9.7-26.1S52.7,106.2,52.7,106.2z"/>
</g>
<g id="ELEPHANT">
	<path id="ELEPHANT_x5F_foot_x5F_back" class="st6" d="M43.5,162.9c0,0-9.4-3.2-11.4-2s-0.5,5.9,3.9,8.9s6.7,4.8,9,5.6
		s5.9,0.8,6.4-1.9s0.3-6-0.3-7.2C50.5,164.9,43.5,162.9,43.5,162.9z"/>
	<path id="ELEPHANT_x5F_leg_x5F_back_x5F_bot" class="st9" d="M40.4,129.1c-0.4,0.3-0.6,0.7-0.8,1.1c0.8,4.4,2.5,11.7,3,19.9
		c0.5,9.6,0.4,15.2,1.6,17c1.2,1.8,4.1,2,5.9,0.7c1.7-1.3,2.5-23,2.5-30.6c0-2.6-0.2-4.7-0.5-6.7C49.4,127.5,44.9,125.9,40.4,129.1z
		"/>
	<g id="ELEPHANT_x5F_leg_x5F_back_x5F_top">
		<path class="st9" d="M52.6,134.7c0-0.8,0-1.5,0-2.1c0-5.3-0.6-9-1.1-12.6c-4,0.8-8.8-1.1-12.8-3.5c0.2,2.5,0.4,4.5,0.6,5.6
			c0.4,3.1,1.6,8.7,2.4,15.5C45.6,139.3,49.5,137.3,52.6,134.7z"/>
		<path class="st10" d="M32.2,91.9c0.2,7.1,1.4,12,1.5,13.2c0.2,1.3,0.4,13.9,0.4,13.9s3.4,2.5,10.4,2.3c7.7-0.2,9-3.5,9-3.5
			l1.2-22.5c0,0-13.7-4.1-17.5-3.9C33.4,91.7,32.2,91.9,32.2,91.9z"/>
	</g>
	<path id="ELEPHANT_x5F_foot_x5F_front" class="st6" d="M29,167.6c0,0-9.4-3.2-11.4-2s-0.5,5.9,3.9,8.9s6.7,4.8,9,5.6
		c2.3,0.7,5.9,0.8,6.4-1.9s0.3-6-0.3-7.2C36.1,169.6,29,167.6,29,167.6z"/>
	<path id="ELEPHANT_x5F_tail" class="st11" d="M42.4,101.4c0,0,3.7,19.3,4.6,27s-1.9,1-1.9,1s-4.3-23.6-5.9-25.7
		S42.4,101.4,42.4,101.4z"/>
	<path id="ELEPHANT_x5F_leg_x5F_front_x5F_bot" class="st12" d="M26,132.2c-0.4,0.3-0.6,0.7-0.8,1.2c0.8,4.6,2.5,12.2,3,20.7
		c0.5,10,0.4,15.8,1.6,17.7s4.1,2,5.9,0.7c1.7-1.3,2.5-24,2.5-31.8c0-2.7-0.2-4.9-0.5-6.9C34.9,130.5,30.5,128.9,26,132.2z"/>
	<g id="ELEPHANT_x5F_leg_x5F_front_x5F_top">
		<path class="st12" d="M38.2,139.4c0-0.8,0-1.5,0-2.1c0-5.3-0.6-9-1.1-12.6c-4,0.8-8.8-1.1-12.8-3.5c0.2,2.5,0.4,4.5,0.6,5.6
			c0.4,3.1,1.6,8.7,2.4,15.5C31.2,144,35.1,142,38.2,139.4z"/>
		<path class="st13" d="M19.9,96.5c0.2,7.1,1.4,12,1.5,13.2c0.2,1.3,0.4,13.9,0.4,13.9s3.4,2.5,10.4,2.3c7.7-0.2,9-3.5,9-3.5
			l1.2-22.5c0,0-13.7-4.1-17.5-3.9C21.1,96.3,19.9,96.5,19.9,96.5z"/>
	</g>
	<g id="ELEPHANT_x5F_head">
		<path class="st14" d="M41.3,18.6l2.5-1.1l6.4-7.5l15.2,6.2c0,0,5.7,5.8-0.4,18s-5.7,12.5-5.7,12.5s-3,3.1-4.6-3.6
			S41.3,18.6,41.3,18.6z"/>
		<path class="st12" d="M34.3,14.4l-2.9,0.1L22,10.3l-12,12c0,0-3,7.7,8.3,16.2s11,9,11,9s4.3,1.5,2.9-5.2S34.3,14.4,34.3,14.4z"/>
	</g>
	<path id="ELEPHANT_x5F_arm_x5F_back_x5F_bot" class="st12" d="M61.5,96.3c0-0.7-1-6.3-1-6.3l0.6-18.5c0-0.4,0-0.7-0.1-1.1
		c-3.2-0.2-6.4-0.3-9.7,0.5c1.1,6.5,4.3,19,4.2,19.6c0,0-1.2,1.9-0.8,2.9s1.2,1.5,1.1,2.1c-0.1,0.6-1,2.8-1.1,3.4s1.6,3.8,2.7,3.6
		c0,0,1.6-1.7,2-2.2C60,99.7,61.5,97,61.5,96.3z"/>
	<g id="ELEPHANT_x5F_arm_x5F_back_x5F_top">
		<path class="st15" d="M53.5,37.7c-1.2-1.9-4.8-1-6.1,0.7c-1.3,1.8-0.8,7.3,0.6,17c1.4,9.7,1.3,10.5,1.3,10.5l1,8.1
			c0,0,9.1-0.5,10.3-0.3c1.2,0.1,0-5.2,0-5.2s-2.4-16.7-3.4-22.3C56.3,40.4,53.5,37.7,53.5,37.7z"/>
		<path class="st16" d="M49.9,69.4l10.8-1c0,0,1.2,4.3,0.5,4.7C60.4,73.6,50.4,74,50.4,74L49.9,69.4z"/>
	</g>
	<g id="ELEPHANT_x5F_top">
		<path class="st17" d="M55.3,59.1c-0.5-9.4-1.6-18.8-3.3-22.5c-10.5-2.2-4.8-0.6-11.6-3.9c-9.6,3.3-10.6,0.6-12.8,1.8
			c-2.2,1.1-4.3,2.4-6.4,3.6c-7,4.1-6.9,7.7-4.7,16.6S19,96.6,19,96.6c11.2,7.4,24.5,4.6,24.5,4.6s8.8-1.4,12.2-5.3
			C55.6,95.8,55.8,68.5,55.3,59.1z M45.5,64.9L45.5,64.9c-0.1-1.5-0.2-3.1-0.3-4.5C45.4,62,45.5,63.5,45.5,64.9z"/>
	</g>
	<path id="ELEPHANT_x5F_arm_x5F_front_x5F_bot" class="st12" d="M17.8,96.4c0-0.7,1-6.2,1-6.2l-0.3-18.3c0-0.4,0.1-0.7,0.1-1.1
		c2.9,0.1,5.8,0.2,8.7,1.2c-1.1,6.3-4.1,18.4-4,19c0,0,1.1,2,0.7,3s-1.1,1.4-1,2s0.9,2.8,0.9,3.4c0.1,0.6-1.4,3.7-2.5,3.3
		c0,0-1.4-1.8-1.8-2.4C19.1,99.8,17.8,97,17.8,96.4z"/>
	<g id="ELEPHANT_x5F_arm_x5F_front_x5F_top">
		<path class="st15" d="M16.9,41.5c1-2,5.3-1.7,7.2-0.2c1.9,1.6,2.4,7.1,2.8,16.8c0.3,9.8,0.6,10.6,0.6,10.6l0.5,8.2
			c0,0-10.7,0.8-12,1.1c-1.4,0.3-1-5.2-1-5.2S14.2,56,14.2,50.3S16.9,41.5,16.9,41.5z"/>
		<path class="st16" d="M27.7,72.3l-12.8,0.6c0,0-0.6,4.4,0.4,4.7c0.9,0.3,12.7-0.7,12.7-0.7L27.7,72.3z"/>
	</g>
	<path id="ELEPHANT_x5F_neck" class="st12" d="M60.6,23.3c0,0.3,0.1,0.4,0,0.7c0.1,1.9-0.1,3.8-0.8,5.3c-0.7,1.7-2.1,2.9-2.9,4.5
		c-0.6,1-0.3,2.5-1.4,5c-1.2,2.4-9.7,12.5-17.6,8.9s-10.5-10.3-11.6-13c-1.2-2.8-2.8-11.1-2.8-11.1s-0.6-8.9,0.6-13
		c0.9-3,3.2-5.8,5.5-7.7c1-0.9,2.3-1.7,3.8-1.8c2.1-0.2,4,1,6,1.4c1.5,0.2,2.7-0.5,4.3-0.2c2,0.4,4.7,2.5,6.2,3.8
		C55.4,10.5,59.8,16.8,60.6,23.3z"/>
</g>
<g id="INSECT">
	<path id="INSECT_x5F_foot_x5F_back" class="st18" d="M45.5,163.9c0,0-9.4-3.2-11.4-2s-0.5,5.9,3.9,8.9s6.7,4.8,9,5.6
		s5.9,0.8,6.4-1.9s0.3-6-0.3-7.2C52.5,165.9,45.5,163.9,45.5,163.9z"/>
	<g id="INSECT_x5F_foot_x5F_front">
		<path id="INSECT_x5F_foot_x5F_front_1_" class="st18" d="M32,167.6c0,0-9.4-3.2-11.4-2s-0.5,5.9,3.9,8.9s6.7,4.8,9,5.6
			c2.3,0.7,5.9,0.8,6.4-1.9s0.3-6-0.3-7.2C39.1,169.6,32,167.6,32,167.6z"/>
		<path id="INSECT_x5F_foot_x5F_front_2_" class="st19" d="M34.2,168.4c0,0-6-1.6-7.1-0.6s0.3,4.4,3.2,6.2c3,1.9,4.5,3,6,3.4
			c1.5,0.3,3.7,0.1,3.7-1.9s-0.4-4.4-0.9-5.3C38.7,169.3,34.2,168.4,34.2,168.4z"/>
	</g>
	<g id="INSECT_x5F_arm_x5F_back_x5F_bot">
		<path class="st19" d="M63.8,69.1c0.2,6.5,0.5,14.6,0.7,15.4c0.4,1.3,1,6.3,0.4,8.3s-3.9,4.1-4.7,3.9c-0.7-0.3,0-1.7,0.1-2.9
			c0.1-1.2,0-3.8-0.6-4s-0.8,2.5-1.6,2.3s-0.8-4.6-0.3-5.8c0.5-1.2,1.8-2.1,1.9-2.9c0-0.5-1-7.4-1.9-13.5
			C59.8,69.8,61.8,69.6,63.8,69.1z"/>
		<path class="st20" d="M61,59.7c1.1,0.3,2.3,1.3,3.3,2.6c0.2,3.1,0.2,8.2,0.2,8.2c-4,1.7-7.3-0.1-7.3-0.1s-0.6-3.9-1-6.6
			C57.1,60.7,58,57.2,61,59.7z"/>
	</g>
	<path id="INSECT_x5F_arm_x5F_back_x5F_top" class="st20" d="M60.2,40.3c-1-3-2.5-4.6-5.6-3.8s-3.2,6.2-1.9,10.2s3.5,11.6,3.6,12.2
		s2.2,7,2.2,7s4.1,7.6,5.5-0.5c0,0-0.5-4.9-0.7-6.5S62,46,60.2,40.3z"/>
	<path id="INSECT_x5F_leg_x5F_back_x5F_top" class="st21" d="M40.4,95.9c0,0,8.3-12.7,14.3-8.6c6,4.2,6,12.8,6,12.8l-8.3,29.4
		c0,0-8,12.9-12,0.5C36.5,117.7,40.4,95.9,40.4,95.9z"/>
	<path id="INSECT_x5F_hip_x5F_back" class="st21" d="M59.3,72.1l-4.7,10.6c0,0-1.8,1.8,1,3.2c2.8,1.4,5.2,5.5,5.2,5.5s2,8.8,0,11.2
		c0,0-5.8,9.7-16-0.5L43.9,80l2.5-7.5L59.3,72.1z"/>
	<path id="INSECT_x5F_leg_x5F_front_x5F_top" class="st22" d="M40,86c0,0,13.8-3.1,10.1,12.8s-7.3,34.3-7.3,34.3s-7.6,17.5-13.5-1.6
		s4-44.1,4-44.1L40,86z"/>
	<path id="INSECT_x5F_hip_x5F_front" class="st22" d="M49.2,73.7c0,0-5,7.8,0,14.2c5,6.3-1.5,15.5-1.5,15.5s-7.4,8.3-19.5,0
		c0,0,3.3-25.2,8-28.9S49.2,73.7,49.2,73.7z"/>
	<g id="INSECT_x5F_leg_x5F_back_x5F_bot">
		<path class="st21" d="M41.4,160.9l3.3-36.8c0,0,6.9-4.9,8.2-2.7s6,28.9,1.8,41.1C54.6,162.5,46.5,170.2,41.4,160.9z"/>
		<path class="st19" d="M45,164.8c0.1,1.3,0.1,2.3,0,3.1c-0.1,0.6-0.4,1.3-0.8,2.1c2.7,1.4,6.1,1.3,9,0.4c0.2-2.3,0.2-4.9,0.2-7.2
			C50.8,165.1,47.8,165.6,45,164.8z"/>
	</g>
	<g id="INSECT_x5F_leg_x5F_front_x5F_bot">
		<path class="st19" d="M32.4,172.6c3.3,2.9,6.1,2.2,8.2-0.1c0-1.3-0.1-2.9-0.1-4.8c-3-0.2-6-1.3-8.6-2.8
			C32.1,167.7,32.2,170.4,32.4,172.6z"/>
		<path class="st22" d="M43.8,143.6l-0.3-13.4c0,0-10.5-16.7-15.3-0.6l1.6,33.4c0,0,8.4,10.7,14,0.2L43.8,143.6z"/>
	</g>
	<path id="INSECT_x5F_hair_x5F_back" class="st23" d="M45.5,6.8l5.1,5.1l-3.3,19.6l-0.2,5.7c0,0,0.7,4,2.4,4.2s1.6,3.2,3.1,2.3
		s5.3-3.8,5.2-5.1s-2.1-5.3-0.7-6.8c1.3-1.5,4.7-4.3,4.3-6.5s-3.3-6.4-3.2-7.9s-0.1-6.1-2.9-8.6C52.4,6.4,45.5,6.8,45.5,6.8z"/>
	<path id="INSECT_x5F_top" class="st18" d="M40.8,35.9c0,0-4.9,0.1-6.3,2.1c-1.3,2-4.7,9.6-4.9,12.2c-0.4,2.7,2,6.8,2,13.7
		s-2.7,21.5-2.4,22.8s3.9,7.5,9,7.4c5.1-0.2,8.5-6.1,11.8-7.2s14,7.4,14,7.4c4.5-12.9-4.4-17.5-5.3-19.8S49.6,68,50.2,65
		c0.7-3,3.3-9.3,6.3-13s1.5-16.7,0-11.4c-1.5-2.6-2.9-2.5-2.9-2.5s-1.5,0.8-3.4,2.1s-4.2,3.9-9.3,1.9C38.1,41,40.8,35.9,40.8,35.9z"
		/>
	<g id="INSECT_x5F_arm_x5F_front_x5F_bot">
		<path class="st19" d="M24.5,76.3c0.6,6.5,1.3,14.6,1.2,15.4c-0.2,1.4-0.3,6.3,0.6,8.3s4.6,3.7,5.3,3.4c0.7-0.3-0.2-1.7-0.5-2.8
			c-0.3-1.2-0.5-3.8,0.2-4.1c0.6-0.3,1.2,2.4,2,2.1s0.2-4.7-0.4-5.8c-0.6-1.1-2.2-1.9-2.3-2.7c-0.1-0.5,0.1-7.5,0.3-13.6
			C28.7,76.6,26.6,76.6,24.5,76.3z"/>
		<path class="st20" d="M26.2,66.7c-1.1,0.4-2.3,1.5-3.1,2.9c0.2,3.1,0.8,8.2,0.8,8.2c4.4,1.3,7.5-0.9,7.5-0.9s0.1-3.9,0.2-6.6
			C30.3,67.3,29,63.9,26.2,66.7z"/>
	</g>
	<path id="INSECT_x5F_arm_x5F_front_x5F_top" class="st20" d="M23.2,48.3c0.5-3.2,2-5.1,6-4.9c4,0.2,5.3,5.4,4.6,9.6
		s-1.6,12.1-1.6,12.7c0.1,0.6-1,7.3-1,7.3s-3.3,8.3-6.8,0.6c0,0-0.5-4.9-0.7-6.5S22.3,54.3,23.2,48.3z"/>
	<g id="INSECT_x5F_wings">
		<path class="st24" d="M39.9,46.6c0,0-17.3-17.5-38-11.1c0,0,0.3,10.9,39,25.3L39.9,46.6z"/>
		<path class="st25" d="M39,58c0,0-23.9-7.7-39,7.2c0,0,5.6,9.5,46.8,4.8L39,58z"/>
		<path class="st26" d="M49.3,42.3c0,0,14.8-19.5,36.2-15.7c0,0,1.2,10.9-35.3,29.9L49.3,42.3z"/>
		<path class="st27" d="M51.7,53.5c0,0,22.6-10.6,39.7,2.4c0,0-4.3,10.1-45.8,10.6L51.7,53.5z"/>
	</g>
	<path id="INSECT_x5F_hair_x5F_front" class="st28" d="M49.6,7.9C49,0.1,71.1,18.8,59.7,24.7c0,0,0.4,3.5-1.1,5.4s-5.7,3.5-1.6,5.8
		l-7.8,6.4c0,0-0.7-1.6-3.8,1.6S39,44.5,39,44.5s-1-2.4-3.7-3.2s0.7-3.5-2.6-1.5s-1.2-1.7-3.7,0.7s-7-1.5-5.4-2.9s0.5-2.6-0.7-3.4
		c-1.2-0.8-4.5-5.7-3.6-7.2s-0.6-7.9,0-9.6c0.6-1.8,0.6-1.8,0.6-1.8s3.8-6,4.9-6.2s5-0.4,5-1.6s5.8-3.5,7.2-2.4S43.2-2.6,49.6,7.9z"
		/>
	<g id="INSECT_x5F_antennas">
		<path class="st19" d="M40.9,11.2c0,0-5.5-19.5-18.2-2.7c-0.5,0.8,10.4-13.9,17.6,4L40.9,11.2z"/>
		<ellipse class="st19" cx="23.1" cy="8.1" rx="1.7" ry="1.6"/>
		<path class="st19" d="M66.9,10C58.1-1.6,52.8,4.3,50.4,8.9c0.5,0.1,0.9,0.4,1.1,0.8C58.4-1.1,67.1,10.2,66.9,10z"/>
		<ellipse class="st19" cx="66.4" cy="9.5" rx="1.7" ry="1.6"/>
	</g>
</g>
</svg>
