<svg xmlns="http://www.w3.org/2000/svg" viewBox="0 0 102 197.6"><title>charAnimation</title><g id="Layer_1" data-name="Layer 1"><g id="_00" data-name="00"><circle id="tail" cx="38.7" cy="102.7" r="6.5" fill="#281406"/></g></g><g id="arm_back_bot" data-name="arm back bot"><path id="arm_back_bot-2" data-name="arm_back_bot" d="M66.7,84.93s-.42-8,5.48-2.49,5.38,24.14,5.38,24.14S76.31,109.6,66.7,84.93Z" fill="#d68a69"/></g><g id="arm_back_top" data-name="arm back top"><path id="arm_back_top-2" data-name="arm_back_top" d="M57.4,48.5c5.7-2.1,8.3,6.9,10.2,12.2.3.8,3.8,15.5,4.6,17.7,1.2,3.3,2.14,10.12-.46,9.42-6.9-1.9-8-9.92-11.14-16S50.6,51,57.4,48.5Z" fill="#d68a69"/></g><g id="foot_back" data-name="foot back"><path id="foot_back-2" data-name="foot_back" d="M61.4,166.7a47,47,0,0,0-8.4-1c-1.8-3.2-.3,6.9-.2,8.2.2,1.1,0,.3,0,.3.3.7.8.4,1.1.3.6-.7-.9.6.9,1.4s3.5,5,7,5.1,5.1,2.6,8.8-.3C74.5,177.6,64.8,167.9,61.4,166.7Z" fill="#171d49"/></g><g id="leg_back_bot" data-name="leg back bot"><path id="leg_back_bot-2" data-name="leg_back_bot" d="M53.17,135.25s-2.57-.35-5.49,29.83c0,0,5.24,11.42,16.28,4.42l-.05-38.75S56.68,122.15,53.17,135.25Z" fill="#333"/></g><g id="leg_back_top" data-name="leg back top"><path id="leg_back_top-2" data-name="leg_back_top" d="M52.3,93.3c-1.1,9.3-1.8,14.4-1.7,24.5s.3,9.43.4,18.13,13.56,8.69,13-2.61S66.4,109.8,65.6,98.5C64.9,87.4,56.9,94.8,52.3,93.3Z" fill="#333"/></g><g id="leg_front_top" data-name="leg front top"><path id="leg_front_top-2" data-name="leg_front_top" d="M34.71,94.43A139.82,139.82,0,0,0,35.14,114c.38,4.76,4.37,9.13,6.06,13.4,2.73,6.88,3,9.88,3,9.88S55,139.84,52.71,126c-1.58-9.64,2-21.84-.41-31.7C51.24,90,34.71,94.43,34.71,94.43Z" fill="#333"/></g><g id="foot_front" data-name="foot front"><g id="foot_front-2" data-name="foot_front"><path d="M31.1,162.1c2.4,4.6,4.1,9.2,8.5,12.7,1.4,1.1,5.3,1.1,6.8-.8s3.6-1.7,2.8-5.6-6.8-10.3-10.8-12.9C35.9,157.6,33.6,159.9,31.1,162.1Z" fill="#171d49"/></g></g><g id="leg_front_bot" data-name="leg front bot"><path id="leg_front_bot-2" data-name="leg_front_bot" d="M52.71,131.26l-8.19-3.76s-6.27,7.5-15,25.75L26.93,161A6.29,6.29,0,0,0,33,163.5c4.23-.5,9.55-4.57,9.55-4.57Z" fill="#333"/></g><g id="Chest"><path id="chest-2" data-name="chest" d="M43.6,38.8v6.7l-5.3,3.6c-1.8,3.5,14.9,11.2,19.9,10.5,3.2-.4,3.9-11.6-1.6-13.5-2.4-.8-1.8-3.7-1.8-5.7C54.8,40.5,47,34.9,43.6,38.8Z" fill="#d68a69"/><path id="top" d="M34.8,95.7A37.31,37.31,0,0,0,51,99.5c9.3,0,14.4-3.8,14.4-3.8-.9-10.7,1.3-17.5.1-22.4-1-4,3.7-9.5,1.7-12.6s-4.6-7.6-4.6-7.6c-2.8,6.6-3.1,7.7-3.1,7.7C55.6,55,44,55.2,44,55.2c.6,6.2-3.2,11.7-5.1,13s-3.8.7-1.9,7.4C37.8,80.3,37.9,86.3,34.8,95.7Z" fill="#fff"/><path id="neck" d="M51.1,48.7c1.7.7,5.8.9,5.4-2a5.38,5.38,0,0,0-.9-2.5c-.8-1.4-3.1-2.1-3.8-3.5-.3-.6.7-.9,1-.3a14.83,14.83,0,0,0,1.9,2.7c.2-.2.5-.3.7,0l.2.2c-.2-1.1-.2-2.3-.3-3.3,0,0-8.5-5.2-11.8-.9a18.86,18.86,0,0,0,2.8,6.5C47.4,47.1,49.1,47.9,51.1,48.7Z" fill="#e8b9a0" opacity="0.3" style="isolation:isolate"/></g><g id="arm_front_top" data-name="arm front top"><path id="arm_front_top-2" data-name="arm_front_top" d="M39,50.1c6.1,1.6,4.3,11.5,3.3,16.3s-5.5,13.3-7.2,17.3c-.47,1.14-6.17,11-7.77,7.67C26,88.5,28.6,72.59,28.8,71.3,29.8,65.4,31.8,48.3,39,50.1Z" fill="#d68a69"/></g><g id="arm_front_bottom" data-name="arm front bottom"><path id="arm_front_bot" d="M27.83,85.67s7.05-19.78,7.86-5.44c.36,6.44-5.17,26.27-7,30.77-1.18,2.86-1.74,0-1.74,0S24.33,90.67,27.83,85.67Z" fill="#d68a69"/></g><g id="Head"><path id="hair_back" d="M62.4,33.3S61.2,49.9,66.3,59a3.18,3.18,0,0,1-2.6,3c-2.5.4-.9-11.7-7.2-16C56.5,46,55.8,29.9,62.4,33.3Z" fill="#562809"/><path id="head-2" data-name="head" d="M62.1,16.6c-5.8-7.6-17.5-7-22.8.1s.2,14.9,2.8,19.3,1.1,2.6,3.8,5.4a11.09,11.09,0,0,0,2.3,1.9,11.58,11.58,0,0,0,9.3,0c2.1-1.8,3.6-5.1,4.7-7.9.1-3.2.5-4.8.8-8.1S64.7,20.1,62.1,16.6Z" fill="#d68a69"/><path id="hair_front" d="M44.4,30.2s-.9-3.3-2.9-2.7.1,3.9.5,5.3.8,3.1,1.9,2.2c0,0,.9,1.4-.3,3.8,0,0-.7,5.8,3.1,9.8s5.1,12,5.2,14.6a2.81,2.81,0,0,1-2.5,2.3c-2,.1-3-1-4.2,0,0,0-1-18.2-8.4-15.6,0,0-1.5-12.1-3.4-20.7s4-12.1,4-12.1-.2-7.5,8.8-9S64.1,10,65.3,17.2s1.9,9.2,3.1,9.4c0,0-10.5,4.9-22.1-6.2C46.2,20.4,49.6,27.3,44.4,30.2Z" fill="#281406"/><g id="Ear"><polyline id="ear-2" data-name="ear" points="36.2 12.2 36.2 21.2 41.2 17.2" fill="#d68a69"/></g><g id="Whiskers"><line id="whisker_left_top" x1="51.2" y1="34.2" x2="37.2" y2="33.2" fill="none" stroke="#331908" stroke-miterlimit="10" stroke-width="0.5"/><line id="whisker_left_mid" x1="51.2" y1="35.1" x2="37.2" y2="36.2" fill="none" stroke="#231307" stroke-miterlimit="10" stroke-width="0.5"/><line id="whisker_left_bot" x1="51" y1="35.9" x2="37.4" y2="39.4" fill="none" stroke="#231307" stroke-miterlimit="10" stroke-width="0.5"/><line id="whisker_right_bot" x1="61" y1="35.3" x2="70.4" y2="38.8" fill="none" stroke="#231307" stroke-miterlimit="10" stroke-width="0.5"/><line id="whisker_right_mid" x1="61.2" y1="34.6" x2="71" y2="36.6" fill="none" stroke="#231307" stroke-miterlimit="10" stroke-width="0.5"/><line id="whisker_right_top" x1="61.5" y1="34" x2="71.5" y2="34.3" fill="none" stroke="#231307" stroke-miterlimit="10" stroke-width="0.5"/></g><g id="Nose"><polygon id="nose-2" data-name="nose" points="54.7 35.7 57.7 35.6 55.7 37.7 54.7 35.7" fill="#4f2508" stroke="#5e2b08" stroke-miterlimit="10" stroke-width="0.5"/></g></g></svg>