<?xml version="1.0" encoding="utf-8"?>
<!-- Generator: Adobe Illustrator 22.0.1, SVG Export Plug-In . SVG Version: 6.00 Build 0)  -->
<svg version="1.1" id="Layer_1" xmlns="http://www.w3.org/2000/svg" xmlns:xlink="http://www.w3.org/1999/xlink" x="0px" y="0px"
	 viewBox="0 0 85.5 196.8" style="enable-background:new 0 0 85.5 196.8;" xml:space="preserve">
<style type="text/css">
	.st0{fill:#D68A69;}
	.st1{fill:#171D49;}
	.st2{fill:#333333;}
	.st3{fill:#48626B;}
	.st4{fill:#506A75;}
	.st5{fill:#FFFFFF;}
	.st6{fill:#3A4D57;}
	.st7{fill:#281406;}
	.st8{fill:#E29E4B;}
</style>
<g id="Layer_1_1_">
	<g id="left">
		<g id="_x30_0_2_">
			<polyline id="ear_x5F_front" class="st0" points="44.8,20.2 49.8,24.2 49.8,15.2 			"/>
			<polyline id="ear_x5F_back" class="st0" points="20.7,22.1 26.5,19.4 18.4,15.4 			"/>
			<polygon id="CAT_x5F_chest" class="st0" points="37.8,64 38.4,71 43.2,71 49.6,48.6 37.8,50 			"/>
			<path id="arm_x5F_back_x5F_top" class="st0" d="M22.7,84.9c1,1.3,2.1-0.2,3.5-2.1c0-0.5,0.1-0.8,0.1-1c0.2-3,1.7-14.4,1.7-15.2
				c-0.2-5.3,0-13.8-5.5-13.9c-6.5-0.1-4.9,13.9-4.1,20.1c0.5,2.7,0.2,2.7,0.4,8.3C19.4,83.7,20.5,84.2,22.7,84.9z"/>
			<path id="arm_x5F_back_x5F_bot" class="st0" d="M22,112.1c3.6,3.2,4.1-24.3,4.3-30.3c-0.7-1.7-2.3-2.8-3.3-4
				c-2.2-0.8-3.5,0.5-4.2,2.3C18.9,91.5,19,109.6,22,112.1z"/>
			<path id="foot_x5F_front" class="st1" d="M38.9,181.6c5.4-0.4,15.9-4,19-7.1c3.2-3.1,0.9-3.7,0.4-6.2s-3.9-4.3-6-3.9
				c-6.5,1.2-11.8,4.5-17,8.2C36.6,175.6,37.7,178.7,38.9,181.6z"/>
			<path id="foot_x5F_back" class="st1" d="M41.4,175c1.2-5.2-3.4-6.9-6.8-8.9c-3.3-1.9-6.4,2-8.3,3c-1.8,1-0.4,1.4-1.6,1.6
				c-0.5,0.1-0.8-0.4-1.1,0.3c0.1-0.4-0.1-0.1-0.1,0.5c-0.1,0.5-0.4,6.1,0.6,6.2c2.6,0.3,5.2-0.2,7.9-0.6
				C35.5,176.7,40.3,180.2,41.4,175z"/>
			<path id="leg_x5F_back_x5F_top" class="st2" d="M22.9,93.5c-4.8,1.9-2.7,13.5-2.7,13.5l5.5,31.5C37.9,153.1,38,136,38,136
				l-0.3-31.1C37.7,104.9,27.6,91.5,22.9,93.5z"/>
			<path id="leg_x5F_back_x5F_bot" class="st2" d="M34.9,138.3c-4.8-8.6-9.6-7.9-9.6-7.9s-5.7,39.9-0.8,42.8c5,3,12.2-1.5,12.2-1.5
				l0.3-13.8C37,157.9,39.7,147,34.9,138.3z"/>
			<path id="CAT_x5F_leg_x5F_back_x5F_bot" class="st3" d="M36.7,169.9l-3.3-36.8c0,0-6.9-4.9-8.2-2.7s-6,28.9-1.8,41.1
				C23.5,171.5,31.6,179.2,36.7,169.9z"/>
			<path id="CAT_x5F_leg_x5F_back_x5F_top" class="st3" d="M37.7,104.9c0,0-8.3-12.7-14.3-8.6c-6,4.2-6,12.8-6,12.8l8.3,29.4
				c0,0,8,12.9,12,0.5C41.7,126.7,37.7,104.9,37.7,104.9z"/>
			<path id="CAT_x5F_hip_x5F_back" class="st3" d="M18.8,81.1l4.7,10.6c0,0,1.8,1.8-1,3.2c-2.8,1.4-5.2,5.5-5.2,5.5
				s-2,8.8,0,11.2c0,0,5.8,9.7,16-0.5l0.9-22.1l-2.5-7.5L18.8,81.1z"/>
			<path id="leg_x5F_front_x5F_bot" class="st2" d="M34.6,139.2c-0.4,8-0.3,33-0.3,33s1.1,3.8,6.7,4s7.3-4.2,7.3-4.2
				c0.2-1.9,0.9-18.4,1.6-33.4c-1.3-4.2-5.2-6.9-10-4.8C37.5,135.2,35.9,137.1,34.6,139.2z"/>
			<path id="leg_x5F_front_x5F_top" class="st2" d="M34.7,138c-0.1,0.4-0.1,0.8-0.1,1.2c0.5,5.1,5.5,11,7.9,9.6
				c4.8-2.1,8.5-3.5,7.4-10.2c0.5-11.5,1-22.1,1.1-24.6c0.3-5.8-1.6-15.1-1.6-15.1c-3.8-4.5-27.7-7.5-28.8,2.2
				C31.4,110.4,35.9,119.3,34.7,138z"/>
			<path id="CAT_x5F_leg_x5F_front_x5F_bot" class="st4" d="M34.3,152.6l0.3-13.4c0,0,10.5-16.7,15.3-0.6L48.3,172
				c0,0-8.4,10.7-14,0.2L34.3,152.6z"/>
			<path id="CAT_x5F_leg_x5F_front_x5F_top" class="st4" d="M38.1,95c0,0-13.8-3.1-10.1,12.8s7.3,34.3,7.3,34.3
				s7.6,17.5,13.5-1.6s-4-44.1-4-44.1L38.1,95z"/>
			<path id="CAT_x5F_hip_x5F_front" class="st4" d="M28.9,82.7c0,0,5,7.8,0,14.2c-5,6.3,1.5,15.5,1.5,15.5s7.4,8.3,19.5,0
				c0,0-3.3-25.2-8-28.9S28.9,82.7,28.9,82.7z"/>
			<path id="top" class="st5" d="M49,78.5c1.9-6.7,0-6.1-1.9-7.4s-5.7-6.8-5.1-13c0,0-11.6-0.2-15.5,5.6c0,0-0.3-1.1-3.1-7.7
				c0,0-1.9,16.3-2.9,20.3c-1.2,4.9,1,11.7,0.1,22.4c0,0,5.1,3.8,14.4,3.8c9.2,0,16.2-3.8,16.2-3.8C48.1,89.3,48.2,83.3,49,78.5z"/>
			<path id="arm_x5F_front_x5F_bot" class="st0" d="M46.6,86.9c-0.2,9.5,1.3,20.5,4.8,22.8c5.1,3.4,0.3-18.3,2.4-23
				c-0.8-3,0.1-6.1-2.7-6.8C46.5,78.1,48.9,84,46.6,86.9z"/>
			<path id="arm_x5F_front_x5F_top" class="st0" d="M43.5,76c-0.1,2.5,1.1,6.6,3,11c0.2,0.3,0.3,0.7,0.5,1c1.4,1.1,0,3.1,4.9,2.8
				c2.7-0.5,1.1-9.9,1.5-6c0.1-0.2,0.1-0.3,0.1-0.5c1.1-4.3,0.4-12.5,0.5-16.9c0-4.5-0.9-14.7-7-14.2C39.8,53.8,43.6,68.8,43.5,76z"
				/>
			<path id="CAT_x5F_top" class="st6" d="M15.3,64c0,0,16,5.9,38.8,0l1.6,10l-12.2,2l2.1,15l-26.7-1.2l0.8-14.5l-1,2.1
				C18.7,77.5,15.3,72.3,15.3,64z"/>
			<path id="hair" class="st7" d="M19.8,60.2c-3.5-7.5-2.2-31.6-2.2-31.6c1.2-0.2,1.9-2.2,3.1-9.4s10-10.6,19-9.1s8.8,9,8.8,9
				s5.9,3.5,4,12.1s-3.4,20.7-3.4,20.7c-7.4-2.6-8.4,15.6-8.4,15.6c-1.2-1.1,0.1,0.8-1.9,0.7s-4,1-4,1
				C30.6,75.1,24.4,70.1,19.8,60.2z"/>
			<path id="CAT_x5F_hair" class="st8" d="M19.4,65.3c-3.4-8.5-1.6-35.6-1.6-35.6c1.2-0.2,1.9-2.4,3.3-10.5
				c1.3-8.1,10.2-11.8,19.2-9.9s8.6,10.3,8.6,10.3s5.8,4,3.8,13.7c-2.1,9.7-3.8,23.3-3.8,23.3c-7.3-3.1-8.7,17.4-8.7,17.4
				c-1.2-1.3,0.1,0.9-1.9,0.8c-2-0.1-4,1.1-4,1.1C29.9,82.3,23.8,76.5,19.4,65.3z"/>
			<path id="CAT_x5F_tail" class="st8" d="M24.4,105.2c0,0-12.5,0.6-8.8,18.2s-7.3,26.4-7.3,26.4s-7.6,4.8-1.4-2.7
				c6.1-7.6,7.4-11,6.2-22.7s-0.4-24.6,9.7-26.1S24.4,105.2,24.4,105.2z"/>
			<circle id="tail" class="st7" cx="25.3" cy="104.7" r="6.5"/>
		</g>
	</g>
</g>
</svg>
