<?xml version="1.0" encoding="utf-8"?>
<!-- Generator: Adobe Illustrator 22.1.0, SVG Export Plug-In . SVG Version: 6.00 Build 0)  -->
<svg version="1.1" id="Layer_1" xmlns="http://www.w3.org/2000/svg" xmlns:xlink="http://www.w3.org/1999/xlink" x="0px" y="0px"
	 viewBox="0 0 250 250" style="enable-background:new 0 0 250 250;" xml:space="preserve">
<style type="text/css">
	.st0{display:none;}
	.st1{display:inline;opacity:0.3;}
	.st2{opacity:0.1;}
	.st3{opacity:0.1429;}
	.st4{opacity:0.1857;}
	.st5{opacity:0.2286;}
	.st6{opacity:0.2714;}
	.st7{opacity:0.3143;}
	.st8{opacity:0.3571;}
	.st9{opacity:0.4;}
	.st10{opacity:0.4429;}
	.st11{opacity:0.4857;}
	.st12{opacity:0.5286;}
	.st13{opacity:0.5714;}
	.st14{opacity:0.6143;}
	.st15{opacity:0.6571;}
	.st16{opacity:0.7;}
	.st17{opacity:0.7429;}
	.st18{opacity:0.7857;}
	.st19{opacity:0.8286;}
	.st20{opacity:0.8714;}
	.st21{opacity:0.9143;}
	.st22{opacity:0.9571;}
	.st23{display:inline;}
	.st24{enable-background:new    ;}
	.st25{clip-path:url(#SVGID_1_);fill:#1D718D;}
	.st26{clip-path:url(#SVGID_2_);fill:#348F92;}
	.st27{fill:#69CCD2;}
	.st28{clip-path:url(#SVGID_3_);fill:#567532;}
	.st29{clip-path:url(#SVGID_4_);fill:#8BA831;}
	.st30{fill:#A0C738;}
	.st31{clip-path:url(#SVGID_5_);fill:#D8952C;}
	.st32{clip-path:url(#SVGID_6_);fill:#DC942E;}
	.st33{fill:#F7DD48;}
	.st34{clip-path:url(#SVGID_7_);fill:#992818;}
	.st35{clip-path:url(#SVGID_8_);fill:#D14233;}
	.st36{fill:#F95D47;}
	.st37{fill:#666666;}
	.st38{display:none;opacity:0.3;}
	.st39{display:inline;opacity:0.1;}
	.st40{display:inline;opacity:0.1429;}
	.st41{display:inline;opacity:0.1857;}
	.st42{display:inline;opacity:0.2286;}
	.st43{display:inline;opacity:0.2714;}
	.st44{display:inline;opacity:0.3143;}
	.st45{display:inline;opacity:0.3571;}
	.st46{display:inline;opacity:0.4;}
	.st47{display:inline;opacity:0.4429;}
	.st48{display:inline;opacity:0.4857;}
	.st49{display:inline;opacity:0.5286;}
	.st50{display:inline;opacity:0.5714;}
	.st51{display:inline;opacity:0.6143;}
	.st52{display:inline;opacity:0.6571;}
	.st53{display:inline;opacity:0.7;}
	.st54{display:inline;opacity:0.7429;}
	.st55{display:inline;opacity:0.7857;}
	.st56{display:inline;opacity:0.8286;}
	.st57{display:inline;opacity:0.8714;}
	.st58{display:inline;opacity:0.9143;}
	.st59{display:inline;opacity:0.9571;}
	.st60{fill:#D14233;}
	.st61{fill:#992818;}
	.st62{clip-path:url(#SVGID_10_);fill:#E2C329;}
	.st63{fill:#D8952C;}
	.st64{fill:#348F92;}
	.st65{clip-path:url(#SVGID_14_);enable-background:new    ;}
	.st66{fill:#1D718D;}
	.st67{clip-path:url(#SVGID_18_);fill:#8BA831;}
	.st68{display:inline;opacity:0.4;clip-path:url(#SVGID_20_);}
	.st69{display:inline;opacity:0.4;clip-path:url(#SVGID_22_);}
	.st70{display:none;fill:#333333;}
	.st71{display:inline;fill:#333333;}
	.st72{display:inline;fill:#666666;}
	.st73{display:none;opacity:0.2;}
	.st74{fill:#E2C329;}
	.st75{fill:#567532;}
	.st76{fill:#8BA831;}
	.st77{opacity:0.3;}
	.st78{opacity:0.3;clip-path:url(#SVGID_24_);}
	.st79{opacity:0.3;clip-path:url(#SVGID_26_);}
	.st80{fill:#333333;}
	.st81{clip-path:url(#SVGID_28_);fill:#348F92;}
	.st82{clip-path:url(#SVGID_30_);fill:#8BA831;}
	.st83{clip-path:url(#SVGID_32_);fill:#DC942E;}
	.st84{clip-path:url(#SVGID_34_);fill:#D14233;}
</style>
<g>
	<g class="st0">
		<g class="st1">
			<g class="st2">
				<g>
					<path d="M592.8,208.5c27.2-11.5,27.3-30.2,0.3-41.8c-27-11.5-71-11.5-98.2,0c-27.2,11.5-27.4,30.2-0.3,41.8
						C521.6,220.1,565.6,220.1,592.8,208.5 M606.9,160.9c34.6,14.8,34.4,38.7-0.4,53.5c-34.8,14.8-91.1,14.8-125.8,0
						c-34.6-14.8-34.4-38.7,0.4-53.5C516,146.1,572.3,146.1,606.9,160.9z"/>
				</g>
			</g>
			<g class="st3">
				<g>
					<path d="M595.3,208.3c27.2-11.5,27.3-30.2,0.3-41.8c-27-11.5-71-11.5-98.2,0c-27.2,11.5-27.4,30.2-0.3,41.8
						C524.1,219.8,568.1,219.8,595.3,208.3 M609.4,160.7c34.6,14.8,34.4,38.7-0.4,53.5c-34.8,14.8-91.1,14.8-125.8,0
						c-34.6-14.8-34.4-38.7,0.4-53.5C518.5,145.9,574.8,145.9,609.4,160.7z"/>
				</g>
			</g>
			<g class="st4">
				<g>
					<path d="M597.8,208.1c27.2-11.5,27.3-30.2,0.3-41.8c-27-11.5-71-11.5-98.2,0c-27.2,11.5-27.4,30.2-0.3,41.8
						C526.6,219.6,570.5,219.6,597.8,208.1 M611.9,160.5c34.6,14.8,34.4,38.7-0.4,53.5c-34.8,14.8-91.1,14.8-125.8,0
						c-34.6-14.8-34.4-38.7,0.4-53.5C521,145.7,577.3,145.7,611.9,160.5z"/>
				</g>
			</g>
			<g class="st5">
				<g>
					<path d="M600.3,207.9c27.2-11.5,27.3-30.2,0.3-41.8c-27-11.5-71-11.5-98.2,0c-27.2,11.5-27.4,30.2-0.3,41.8
						C529.1,219.4,573,219.4,600.3,207.9 M614.4,160.2c34.6,14.8,34.4,38.7-0.4,53.5c-34.8,14.8-91.1,14.8-125.8,0
						c-34.6-14.8-34.4-38.7,0.4-53.5C523.5,145.5,579.8,145.5,614.4,160.2z"/>
				</g>
			</g>
			<g class="st6">
				<g>
					<path d="M602.8,207.6c27.2-11.5,27.3-30.2,0.3-41.8c-27-11.5-71-11.5-98.2,0c-27.2,11.5-27.4,30.2-0.3,41.8
						C531.6,219.2,575.5,219.2,602.8,207.6 M616.9,160c34.6,14.8,34.4,38.7-0.4,53.5c-34.8,14.8-91.1,14.8-125.8,0
						c-34.6-14.8-34.4-38.7,0.4-53.5C526,145.3,582.3,145.3,616.9,160z"/>
				</g>
			</g>
			<g class="st7">
				<g>
					<path d="M605.3,207.4c27.2-11.5,27.3-30.2,0.3-41.8c-27-11.5-71-11.5-98.2,0c-27.2,11.5-27.4,30.2-0.3,41.8
						C534.1,218.9,578,218.9,605.3,207.4 M619.4,159.8c34.6,14.8,34.4,38.7-0.4,53.5c-34.8,14.8-91.1,14.8-125.8,0
						c-34.6-14.8-34.4-38.7,0.4-53.5C528.5,145,584.8,145,619.4,159.8z"/>
				</g>
			</g>
			<g class="st8">
				<g>
					<path d="M607.8,207.2c27.2-11.5,27.3-30.2,0.3-41.8c-27-11.5-71-11.5-98.2,0c-27.2,11.5-27.4,30.2-0.3,41.8
						C536.6,218.7,580.5,218.7,607.8,207.2 M621.9,159.6c34.6,14.8,34.4,38.7-0.4,53.5c-34.8,14.8-91.1,14.8-125.8,0
						c-34.6-14.8-34.4-38.7,0.4-53.5C531,144.8,587.3,144.8,621.9,159.6z"/>
				</g>
			</g>
			<g class="st9">
				<g>
					<path d="M610.3,207c27.2-11.5,27.3-30.2,0.3-41.8s-71-11.5-98.2,0c-27.2,11.5-27.4,30.2-0.3,41.8
						C539.1,218.5,583,218.5,610.3,207 M624.4,159.3c34.6,14.8,34.4,38.7-0.4,53.5c-34.8,14.8-91.1,14.8-125.8,0
						c-34.6-14.8-34.4-38.7,0.4-53.5C533.5,144.6,589.8,144.6,624.4,159.3z"/>
				</g>
			</g>
			<g class="st10">
				<g>
					<path d="M612.8,206.7c27.2-11.5,27.3-30.2,0.3-41.8c-27-11.5-71-11.5-98.2,0c-27.2,11.5-27.4,30.2-0.3,41.8
						C541.6,218.3,585.5,218.3,612.8,206.7 M626.9,159.1c34.6,14.8,34.4,38.7-0.4,53.5c-34.8,14.8-91.1,14.8-125.8,0
						c-34.6-14.8-34.4-38.7,0.4-53.5C536,144.4,592.3,144.4,626.9,159.1z"/>
				</g>
			</g>
			<g class="st11">
				<g>
					<path d="M615.3,206.5c27.2-11.5,27.3-30.2,0.3-41.8c-27-11.5-71-11.5-98.2,0c-27.2,11.5-27.4,30.2-0.3,41.8
						C544.1,218.1,588,218.1,615.3,206.5 M629.4,158.9c34.6,14.8,34.4,38.7-0.4,53.5c-34.8,14.8-91.1,14.8-125.8,0
						c-34.6-14.8-34.4-38.7,0.4-53.5C538.5,144.1,594.8,144.1,629.4,158.9z"/>
				</g>
			</g>
			<g class="st12">
				<g>
					<path d="M617.8,206.3c27.2-11.5,27.3-30.2,0.3-41.8c-27-11.5-71-11.5-98.2,0c-27.2,11.5-27.4,30.2-0.3,41.8
						C546.6,217.8,590.5,217.8,617.8,206.3 M631.9,158.7c34.6,14.8,34.4,38.7-0.4,53.5c-34.8,14.8-91.1,14.8-125.8,0
						c-34.6-14.8-34.4-38.7,0.4-53.5C541,143.9,597.3,143.9,631.9,158.7z"/>
				</g>
			</g>
			<g class="st13">
				<g>
					<path d="M620.3,206.1c27.2-11.5,27.3-30.2,0.3-41.8c-27-11.5-71-11.5-98.2,0c-27.2,11.5-27.4,30.2-0.3,41.8
						C549.1,217.6,593,217.6,620.3,206.1 M634.4,158.5c34.6,14.8,34.4,38.7-0.4,53.5c-34.8,14.8-91.1,14.8-125.8,0
						c-34.6-14.8-34.4-38.7,0.4-53.5C543.5,143.7,599.8,143.7,634.4,158.5z"/>
				</g>
			</g>
			<g class="st14">
				<g>
					<path d="M622.8,205.9c27.2-11.5,27.3-30.2,0.3-41.8c-27-11.5-71-11.5-98.2,0c-27.2,11.5-27.4,30.2-0.3,41.8
						C551.6,217.4,595.5,217.4,622.8,205.9 M636.9,158.2c34.6,14.8,34.4,38.7-0.4,53.5c-34.8,14.8-91.1,14.8-125.8,0
						c-34.6-14.8-34.4-38.7,0.4-53.5C546,143.5,602.3,143.5,636.9,158.2z"/>
				</g>
			</g>
			<g class="st15">
				<g>
					<path d="M625.3,205.6c27.2-11.5,27.3-30.2,0.3-41.8c-27-11.5-71-11.5-98.2,0c-27.2,11.5-27.4,30.2-0.3,41.8
						C554.1,217.2,598,217.2,625.3,205.6 M639.4,158c34.6,14.8,34.4,38.7-0.4,53.5c-34.8,14.8-91.1,14.8-125.8,0
						c-34.6-14.8-34.4-38.7,0.4-53.5C548.5,143.3,604.8,143.2,639.4,158z"/>
				</g>
			</g>
			<g class="st16">
				<g>
					<path d="M627.8,205.4c27.2-11.5,27.3-30.2,0.3-41.8c-27-11.5-71-11.5-98.2,0c-27.2,11.5-27.4,30.2-0.3,41.8
						C556.6,216.9,600.5,216.9,627.8,205.4 M641.9,157.8c34.6,14.8,34.4,38.7-0.4,53.5c-34.8,14.8-91.1,14.8-125.8,0
						c-34.6-14.8-34.4-38.7,0.4-53.5C551,143,607.3,143,641.9,157.8z"/>
				</g>
			</g>
			<g class="st17">
				<g>
					<path d="M630.3,205.2c27.2-11.5,27.3-30.2,0.3-41.8c-27-11.5-71-11.5-98.2,0c-27.2,11.5-27.4,30.2-0.3,41.8
						C559.1,216.7,603,216.7,630.3,205.2 M644.4,157.6c34.6,14.8,34.4,38.7-0.4,53.5c-34.8,14.8-91.1,14.8-125.8,0
						c-34.6-14.8-34.4-38.7,0.4-53.5C553.5,142.8,609.8,142.8,644.4,157.6z"/>
				</g>
			</g>
			<g class="st18">
				<g>
					<path d="M632.8,205c27.2-11.5,27.3-30.2,0.3-41.8c-27-11.5-71-11.5-98.2,0c-27.2,11.5-27.4,30.2-0.3,41.8
						C561.6,216.5,605.5,216.5,632.8,205 M646.9,157.3c34.6,14.8,34.4,38.7-0.4,53.5c-34.8,14.8-91.1,14.8-125.8,0
						c-34.6-14.8-34.4-38.7,0.4-53.5C556,142.6,612.3,142.6,646.9,157.3z"/>
				</g>
			</g>
			<g class="st19">
				<g>
					<path d="M635.3,204.7c27.2-11.5,27.3-30.2,0.3-41.8c-27-11.5-71-11.5-98.2,0c-27.2,11.5-27.4,30.2-0.3,41.8
						C564.1,216.3,608,216.3,635.3,204.7 M649.4,157.1c34.6,14.8,34.4,38.7-0.4,53.5c-34.8,14.8-91.1,14.8-125.8,0
						c-34.6-14.8-34.4-38.7,0.4-53.5C558.5,142.4,614.8,142.4,649.4,157.1z"/>
				</g>
			</g>
			<g class="st20">
				<g>
					<path d="M637.7,204.5c27.2-11.5,27.3-30.2,0.3-41.8c-27-11.5-71-11.5-98.2,0c-27.2,11.5-27.4,30.2-0.3,41.8
						C566.6,216,610.5,216,637.7,204.5 M651.9,156.9c34.6,14.8,34.4,38.7-0.4,53.5c-34.8,14.8-91.1,14.8-125.8,0
						c-34.6-14.8-34.4-38.7,0.4-53.5C561,142.1,617.3,142.1,651.9,156.9z"/>
				</g>
			</g>
			<g class="st21">
				<g>
					<path d="M640.2,204.3c27.2-11.5,27.3-30.2,0.3-41.8c-27-11.5-71-11.5-98.2,0c-27.2,11.5-27.4,30.2-0.3,41.8
						C569.1,215.8,613,215.8,640.2,204.3 M654.4,156.7c34.6,14.8,34.4,38.7-0.4,53.5c-34.8,14.8-91.1,14.8-125.8,0
						c-34.6-14.8-34.4-38.7,0.4-53.5C563.5,141.9,619.8,141.9,654.4,156.7z"/>
				</g>
			</g>
			<g class="st22">
				<g>
					<path d="M642.7,204.1c27.2-11.5,27.3-30.2,0.3-41.8c-27-11.5-71-11.5-98.2,0c-27.2,11.5-27.4,30.2-0.3,41.8
						C571.6,215.6,615.5,215.6,642.7,204.1 M656.9,156.5c34.6,14.8,34.4,38.7-0.4,53.5c-34.8,14.8-91.1,14.8-125.8,0
						c-34.6-14.8-34.4-38.7,0.4-53.5C566,141.7,622.3,141.7,656.9,156.5z"/>
				</g>
			</g>
			<g>
				<g>
					<path d="M645.2,203.9c27.2-11.5,27.3-30.2,0.3-41.8c-27-11.5-71-11.5-98.2,0c-27.2,11.5-27.4,30.2-0.3,41.8
						C574.1,215.4,618,215.4,645.2,203.9 M659.4,156.2c34.6,14.8,34.4,38.7-0.4,53.5c-34.8,14.8-91.1,14.8-125.8,0
						c-34.6-14.8-34.4-38.7,0.4-53.5C568.5,141.5,624.8,141.5,659.4,156.2z"/>
				</g>
			</g>
		</g>
		<g class="st23">
			<g class="st24">
				<g class="st24">
					<defs>
						<path id="SVGID_97_" class="st24" d="M526.8,167l0.1,16c0-7.6,6.8-15.2,20.5-21c27.2-11.5,71.2-11.5,98.2,0
							c13.4,5.7,20.2,13.2,20.2,20.7l-0.1-16c0-7.5-6.8-15-20.2-20.7c-27-11.5-71-11.5-98.2,0C533.7,151.8,526.8,159.4,526.8,167z"
							/>
					</defs>
					<clipPath id="SVGID_1_">
						<use xlink:href="#SVGID_97_"  style="overflow:visible;"/>
					</clipPath>
					<path class="st25" d="M547.3,146c3.1-1.3,6.5-2.5,10-3.5c2.7-0.8,5.5-1.5,8.4-2.1c2.4-0.5,4.8-0.9,7.2-1.3
						c2.3-0.3,4.6-0.6,6.9-0.9c2.2-0.2,4.5-0.4,6.8-0.6c2.3-0.1,4.6-0.2,6.8-0.3c2.4,0,4.7,0,7.1,0c2.6,0.1,5.2,0.2,7.7,0.4
						c3,0.2,5.9,0.5,8.9,0.9c4.5,0.6,8.9,1.4,13.1,2.4c5.5,1.3,10.6,2.9,15.2,4.9c0.3,0.1,0.6,0.2,0.8,0.4c3.4,1.5,6.3,3.1,8.8,4.8
						c1.6,1.1,3.1,2.2,4.3,3.4c1.1,1,2,2,2.8,3c0.7,1,1.4,1.9,1.9,2.9c0.5,0.9,0.9,1.9,1.1,2.9c0.3,1,0.4,1.9,0.5,2.9
						c0,0.1,0,0.3,0,0.4l0.1,16c0-0.1,0-0.3,0-0.4c0-1-0.2-2-0.5-2.9c-0.3-1-0.6-1.9-1.1-2.9c-0.5-1-1.1-1.9-1.9-2.9
						c-0.8-1-1.7-2-2.8-3c-1.2-1.2-2.7-2.3-4.3-3.4c-2.5-1.7-5.4-3.3-8.8-4.8c-0.3-0.1-0.6-0.2-0.8-0.4c-4.6-2-9.8-3.6-15.2-4.9
						c-4.2-1-8.6-1.8-13.1-2.4c-2.9-0.4-5.9-0.7-8.9-0.9c-2.6-0.2-5.1-0.3-7.7-0.4c-2.4-0.1-4.7-0.1-7.1,0c-2.3,0-4.6,0.1-6.8,0.3
						c-2.3,0.1-4.5,0.3-6.8,0.6c-2.3,0.2-4.6,0.5-6.9,0.9c-2.5,0.4-4.9,0.8-7.2,1.3c-2.9,0.6-5.7,1.3-8.4,2.1c-3.5,1-6.9,2.2-10,3.5
						c-13.7,5.8-20.5,13.4-20.5,21l-0.1-16C526.8,159.4,533.7,151.8,547.3,146z"/>
				</g>
				<g class="st24">
					<defs>
						<path id="SVGID_99_" class="st24" d="M507.4,167.1l0.1,16c0,9.6,8.6,19.2,25.8,26.5c34.6,14.8,90.9,14.8,125.8,0
							c17.5-7.4,26.3-17.2,26.2-26.9l-0.1-16c0,9.7-8.7,19.5-26.2,26.9c-34.8,14.8-91.1,14.8-125.8,0
							C516,186.3,507.4,176.7,507.4,167.1z"/>
					</defs>
					<clipPath id="SVGID_2_">
						<use xlink:href="#SVGID_99_"  style="overflow:visible;"/>
					</clipPath>
					<path class="st26" d="M507.4,167.6c0,1.3,0.2,2.5,0.6,3.7c0.3,1.2,0.8,2.5,1.4,3.7c0.6,1.2,1.4,2.5,2.4,3.7
						c1,1.3,2.2,2.6,3.6,3.9c1.6,1.5,3.4,2.9,5.5,4.4c3.2,2.2,6.9,4.2,11.3,6.1c0.4,0.2,0.7,0.3,1.1,0.5c5.9,2.5,12.5,4.6,19.5,6.3
						c5.4,1.3,11,2.3,16.8,3.1c3.7,0.5,7.5,0.9,11.3,1.2c3.3,0.2,6.6,0.4,9.9,0.5c3,0.1,6.1,0.1,9.1,0c2.9-0.1,5.9-0.2,8.8-0.3
						c2.9-0.2,5.8-0.4,8.6-0.7c3-0.3,5.9-0.7,8.8-1.1c3.1-0.5,6.2-1,9.3-1.7c3.7-0.8,7.3-1.7,10.8-2.7c4.5-1.3,8.8-2.8,12.8-4.5
						c17.5-7.4,26.3-17.2,26.2-26.9l0.1,16c0,9.7-8.7,19.5-26.2,26.9c-4,1.7-8.3,3.2-12.8,4.5c-3.5,1-7.1,1.9-10.8,2.7
						c-3,0.6-6.1,1.2-9.3,1.7c-2.9,0.4-5.8,0.8-8.8,1.1c-2.9,0.3-5.7,0.5-8.6,0.7c-2.9,0.2-5.8,0.3-8.8,0.3c-3,0.1-6.1,0-9.1,0
						c-3.3-0.1-6.6-0.2-9.9-0.5c-3.8-0.3-7.6-0.7-11.3-1.2c-5.8-0.8-11.4-1.8-16.8-3.1c-7-1.7-13.6-3.8-19.5-6.3
						c-0.4-0.2-0.7-0.3-1.1-0.5c-4.3-1.9-8.1-4-11.3-6.1c-2.1-1.4-3.9-2.9-5.5-4.4c-1.4-1.3-2.6-2.6-3.6-3.9
						c-0.9-1.2-1.7-2.5-2.4-3.7c-0.6-1.2-1.1-2.4-1.4-3.7c-0.3-1.2-0.5-2.5-0.6-3.7c0-0.2,0-0.4,0-0.6l-0.1-16
						C507.4,167.2,507.4,167.4,507.4,167.6z"/>
				</g>
				<g>
					<g>
						<path class="st27" d="M659.4,140.1c34.6,14.8,34.4,38.7-0.4,53.5c-34.8,14.8-91.1,14.8-125.8,0c-34.6-14.8-34.4-38.7,0.4-53.5
							C568.5,125.4,624.8,125.4,659.4,140.1z M645.2,187.7c27.2-11.5,27.3-30.2,0.3-41.8c-27-11.5-71-11.5-98.2,0
							c-27.2,11.5-27.4,30.2-0.3,41.8S618,199.3,645.2,187.7"/>
					</g>
				</g>
			</g>
		</g>
		<g class="st23">
			<g class="st24">
				<g class="st24">
					<defs>
						<path id="SVGID_101_" class="st24" d="M526.8,133.3l0.1,16c0-7.6,6.8-15.2,20.5-21c27.2-11.5,71.2-11.5,98.2,0
							c13.4,5.7,20.1,13.2,20.2,20.7l-0.1-16c0-7.5-6.8-15-20.2-20.7c-27-11.5-71-11.5-98.2,0C533.7,118.1,526.8,125.7,526.8,133.3z
							"/>
					</defs>
					<clipPath id="SVGID_3_">
						<use xlink:href="#SVGID_101_"  style="overflow:visible;"/>
					</clipPath>
					<path class="st28" d="M547.4,112.3c3.1-1.3,6.5-2.5,10-3.5c2.7-0.8,5.5-1.5,8.4-2.1c2.4-0.5,4.8-0.9,7.2-1.3
						c2.3-0.3,4.6-0.6,6.9-0.9c2.2-0.2,4.5-0.4,6.8-0.6c2.3-0.1,4.6-0.2,6.8-0.3c2.4,0,4.7,0,7.1,0c2.6,0.1,5.2,0.2,7.7,0.4
						c3,0.2,5.9,0.5,8.9,0.9c4.5,0.6,8.9,1.4,13.1,2.4c5.5,1.3,10.6,2.9,15.2,4.9c0.3,0.1,0.6,0.2,0.8,0.4c3.4,1.5,6.3,3.1,8.8,4.8
						c1.6,1.1,3.1,2.2,4.3,3.4c1.1,1,2,2,2.8,3c0.7,1,1.4,1.9,1.8,2.9c0.5,0.9,0.9,1.9,1.1,2.9c0.3,1,0.4,1.9,0.5,2.9
						c0,0.1,0,0.3,0,0.4l0.1,16c0-0.1,0-0.3,0-0.4c0-1-0.2-2-0.5-2.9c-0.3-1-0.6-1.9-1.1-2.9c-0.5-1-1.1-1.9-1.8-2.9
						c-0.8-1-1.7-2-2.8-3c-1.2-1.2-2.7-2.3-4.3-3.4c-2.5-1.7-5.4-3.3-8.8-4.8c-0.3-0.1-0.6-0.2-0.8-0.4c-4.6-2-9.8-3.6-15.2-4.9
						c-4.2-1-8.6-1.8-13.1-2.4c-2.9-0.4-5.9-0.7-8.9-0.9c-2.6-0.2-5.1-0.3-7.7-0.4c-2.4-0.1-4.7-0.1-7.1,0c-2.3,0-4.6,0.1-6.8,0.3
						c-2.3,0.1-4.5,0.3-6.8,0.6c-2.3,0.2-4.6,0.5-6.9,0.9c-2.5,0.4-4.9,0.8-7.2,1.3c-2.9,0.6-5.7,1.3-8.4,2.1c-3.5,1-6.9,2.2-10,3.5
						c-13.7,5.8-20.5,13.4-20.5,21l-0.1-16C526.8,125.7,533.7,118.1,547.4,112.3z"/>
				</g>
				<g class="st24">
					<defs>
						<path id="SVGID_103_" class="st24" d="M507.4,133.4l0.1,16c0,9.6,8.6,19.2,25.8,26.6c34.6,14.8,90.9,14.8,125.8,0
							c17.5-7.4,26.3-17.2,26.2-26.9l-0.1-16c0,9.7-8.7,19.5-26.2,26.9c-34.8,14.8-91.1,14.8-125.8,0
							C516,152.6,507.4,143,507.4,133.4z"/>
					</defs>
					<clipPath id="SVGID_4_">
						<use xlink:href="#SVGID_103_"  style="overflow:visible;"/>
					</clipPath>
					<path class="st29" d="M507.4,133.9c0,1.3,0.2,2.5,0.6,3.7c0.3,1.2,0.8,2.5,1.4,3.7c0.6,1.3,1.4,2.5,2.4,3.7
						c1,1.3,2.2,2.6,3.6,3.9c1.6,1.5,3.4,2.9,5.5,4.4c3.2,2.2,6.9,4.2,11.3,6.1c0.4,0.2,0.7,0.3,1.1,0.5c5.9,2.5,12.5,4.6,19.5,6.3
						c5.4,1.3,11,2.3,16.8,3.1c3.7,0.5,7.5,0.9,11.3,1.2c3.3,0.2,6.6,0.4,9.9,0.5c3,0.1,6.1,0.1,9.1,0c2.9-0.1,5.9-0.2,8.8-0.3
						c2.9-0.2,5.8-0.4,8.6-0.7c3-0.3,5.9-0.7,8.8-1.1c3.1-0.5,6.2-1,9.3-1.7c3.7-0.8,7.3-1.7,10.8-2.7c4.5-1.3,8.8-2.8,12.8-4.5
						c17.5-7.4,26.3-17.2,26.2-26.9l0.1,16c0,9.7-8.7,19.5-26.2,26.9c-4,1.7-8.3,3.2-12.8,4.5c-3.5,1-7.1,1.9-10.8,2.7
						c-3,0.6-6.1,1.2-9.3,1.7c-2.9,0.4-5.8,0.8-8.8,1.1c-2.9,0.3-5.7,0.5-8.6,0.7c-2.9,0.2-5.8,0.3-8.8,0.3c-3,0.1-6.1,0-9.1,0
						c-3.3-0.1-6.6-0.2-9.9-0.5c-3.8-0.3-7.6-0.7-11.3-1.2c-5.8-0.8-11.4-1.8-16.8-3.1c-7-1.7-13.6-3.8-19.5-6.3
						c-0.4-0.2-0.7-0.3-1.1-0.5c-4.3-1.9-8.1-4-11.3-6.1c-2.1-1.4-3.9-2.9-5.5-4.4c-1.4-1.3-2.6-2.6-3.6-3.9
						c-0.9-1.2-1.7-2.5-2.4-3.7c-0.6-1.2-1.1-2.4-1.4-3.7c-0.3-1.2-0.5-2.5-0.6-3.7c0-0.2,0-0.4,0-0.6l-0.1-16
						C507.4,133.6,507.4,133.7,507.4,133.9z"/>
				</g>
				<g>
					<g>
						<path class="st30" d="M659.4,106.4c34.6,14.8,34.4,38.7-0.4,53.5c-34.8,14.8-91.1,14.8-125.8,0c-34.6-14.8-34.4-38.7,0.4-53.5
							C568.5,91.7,624.8,91.7,659.4,106.4z M645.2,154.1c27.2-11.5,27.4-30.2,0.3-41.8s-71-11.5-98.2,0
							c-27.2,11.5-27.4,30.2-0.3,41.8C574.1,165.6,618,165.6,645.2,154.1"/>
					</g>
				</g>
			</g>
		</g>
		<g class="st23">
			<g class="st24">
				<g class="st24">
					<defs>
						<path id="SVGID_105_" class="st24" d="M526.8,99.6l0.1,16c0-7.6,6.8-15.2,20.5-21c27.2-11.5,71.2-11.5,98.2,0
							c13.4,5.7,20.2,13.2,20.2,20.7l-0.1-16c0-7.5-6.8-15-20.2-20.7c-27-11.5-71-11.5-98.2,0C533.7,84.4,526.8,92,526.8,99.6z"/>
					</defs>
					<clipPath id="SVGID_5_">
						<use xlink:href="#SVGID_105_"  style="overflow:visible;"/>
					</clipPath>
					<path class="st31" d="M547.4,78.6c3.1-1.3,6.5-2.5,10-3.5c2.7-0.8,5.5-1.5,8.4-2.1c2.4-0.5,4.8-0.9,7.2-1.3
						c2.3-0.3,4.6-0.6,6.9-0.9c2.2-0.2,4.5-0.4,6.8-0.6c2.3-0.1,4.6-0.2,6.8-0.3c2.4,0,4.7,0,7.1,0c2.6,0.1,5.2,0.2,7.7,0.4
						c3,0.2,5.9,0.5,8.9,0.9c4.5,0.6,8.9,1.4,13.1,2.4c5.5,1.3,10.6,2.9,15.2,4.9c0.3,0.1,0.6,0.2,0.8,0.4c3.4,1.5,6.3,3.1,8.8,4.8
						c1.6,1.1,3.1,2.2,4.3,3.4c1.1,1,2,2,2.8,3c0.7,1,1.4,1.9,1.9,2.9c0.5,0.9,0.9,1.9,1.1,2.9c0.3,1,0.4,1.9,0.5,2.9
						c0,0.1,0,0.3,0,0.4l0.1,16c0-0.1,0-0.3,0-0.4c0-1-0.2-2-0.5-2.9c-0.3-1-0.6-1.9-1.1-2.9c-0.5-1-1.1-1.9-1.9-2.9
						c-0.8-1-1.7-2-2.8-3c-1.2-1.2-2.7-2.3-4.3-3.4c-2.5-1.7-5.4-3.3-8.8-4.8c-0.3-0.1-0.6-0.2-0.8-0.4c-4.6-2-9.8-3.6-15.2-4.9
						c-4.2-1-8.6-1.8-13.1-2.4c-2.9-0.4-5.9-0.7-8.9-0.9c-2.6-0.2-5.1-0.3-7.7-0.4c-2.4-0.1-4.7-0.1-7.1,0c-2.3,0-4.6,0.1-6.8,0.3
						c-2.3,0.1-4.5,0.3-6.8,0.6c-2.3,0.2-4.6,0.5-6.9,0.9c-2.5,0.4-4.9,0.8-7.2,1.3c-2.9,0.6-5.7,1.3-8.4,2.1c-3.5,1-6.9,2.2-10,3.5
						c-13.7,5.8-20.5,13.4-20.5,21l-0.1-16C526.8,92,533.7,84.4,547.4,78.6z"/>
				</g>
				<g class="st24">
					<defs>
						<path id="SVGID_107_" class="st24" d="M507.4,99.7l0.1,16c0,9.6,8.6,19.2,25.8,26.5c34.6,14.8,90.9,14.8,125.8,0
							c17.5-7.4,26.3-17.2,26.2-26.9l-0.1-16c0,9.7-8.7,19.5-26.2,26.9c-34.8,14.8-91.1,14.8-125.8,0
							C516,118.9,507.4,109.3,507.4,99.7z"/>
					</defs>
					<clipPath id="SVGID_6_">
						<use xlink:href="#SVGID_107_"  style="overflow:visible;"/>
					</clipPath>
					<path class="st32" d="M507.4,100.3c0,1.3,0.2,2.5,0.6,3.7c0.3,1.2,0.8,2.5,1.4,3.7c0.6,1.2,1.4,2.5,2.4,3.7
						c1,1.3,2.2,2.6,3.6,3.9c1.6,1.5,3.4,2.9,5.5,4.4c3.2,2.2,6.9,4.2,11.3,6.1c0.4,0.2,0.7,0.3,1.1,0.5c5.9,2.5,12.5,4.6,19.5,6.3
						c5.4,1.3,11,2.3,16.8,3.1c3.7,0.5,7.5,0.9,11.3,1.2c3.3,0.2,6.6,0.4,9.9,0.5c3,0.1,6.1,0.1,9.1,0c2.9-0.1,5.9-0.2,8.8-0.3
						c2.9-0.2,5.8-0.4,8.6-0.7c3-0.3,5.9-0.7,8.8-1.1c3.1-0.5,6.2-1,9.3-1.7c3.7-0.8,7.3-1.7,10.8-2.7c4.5-1.3,8.8-2.8,12.8-4.5
						c17.5-7.4,26.3-17.2,26.2-26.9l0.1,16c0,9.7-8.7,19.5-26.2,26.9c-4,1.7-8.3,3.2-12.8,4.5c-3.5,1-7.1,1.9-10.8,2.7
						c-3,0.6-6.1,1.2-9.3,1.7c-2.9,0.4-5.8,0.8-8.8,1.1c-2.9,0.3-5.7,0.5-8.6,0.7c-2.9,0.2-5.8,0.3-8.8,0.3c-3,0.1-6.1,0-9.1,0
						c-3.3-0.1-6.6-0.2-9.9-0.5c-3.8-0.3-7.6-0.7-11.3-1.2c-5.8-0.8-11.4-1.8-16.8-3.1c-7-1.7-13.6-3.8-19.5-6.3
						c-0.4-0.2-0.7-0.3-1.1-0.5c-4.3-1.9-8.1-4-11.3-6.1c-2.1-1.4-3.9-2.9-5.5-4.4c-1.4-1.3-2.6-2.6-3.6-3.9
						c-0.9-1.2-1.7-2.5-2.4-3.7c-0.6-1.2-1.1-2.4-1.4-3.7c-0.3-1.2-0.5-2.5-0.6-3.7c0-0.2,0-0.4,0-0.6l-0.1-16
						C507.4,99.9,507.4,100.1,507.4,100.3z"/>
				</g>
				<g>
					<g>
						<path class="st33" d="M659.4,72.8c34.6,14.8,34.4,38.7-0.4,53.5c-34.8,14.8-91.1,14.8-125.8,0c-34.6-14.8-34.4-38.7,0.4-53.5
							C568.5,58,624.8,58,659.4,72.8z M645.2,120.4c27.2-11.5,27.3-30.2,0.3-41.8c-27-11.5-71-11.5-98.2,0
							c-27.2,11.5-27.4,30.2-0.3,41.8C574.1,131.9,618,131.9,645.2,120.4"/>
					</g>
				</g>
			</g>
		</g>
		<g class="st23">
			<g class="st24">
				<g class="st24">
					<defs>
						<path id="SVGID_109_" class="st24" d="M526.8,66l0.1,16c0-7.6,6.8-15.2,20.5-21c27.2-11.5,71.2-11.5,98.2,0
							c13.4,5.7,20.2,13.2,20.2,20.7l-0.1-16c0-7.5-6.8-15-20.2-20.7c-27-11.5-71-11.5-98.2,0C533.7,50.7,526.8,58.3,526.8,66z"/>
					</defs>
					<clipPath id="SVGID_7_">
						<use xlink:href="#SVGID_109_"  style="overflow:visible;"/>
					</clipPath>
					<path class="st34" d="M547.3,44.9c3.1-1.3,6.5-2.5,10-3.5c2.7-0.8,5.5-1.5,8.4-2.1c2.4-0.5,4.8-0.9,7.2-1.3
						c2.3-0.3,4.6-0.6,6.9-0.9c2.2-0.2,4.5-0.4,6.8-0.6c2.3-0.1,4.6-0.2,6.8-0.3c2.4,0,4.7,0,7.1,0c2.6,0.1,5.2,0.2,7.7,0.4
						c3,0.2,5.9,0.5,8.9,0.9c4.5,0.6,8.9,1.4,13.1,2.4c5.5,1.3,10.6,2.9,15.2,4.9c0.3,0.1,0.6,0.2,0.8,0.4c3.4,1.5,6.3,3.1,8.8,4.8
						c1.6,1.1,3.1,2.2,4.3,3.4c1.1,1,2,2,2.8,3c0.7,1,1.4,1.9,1.9,2.9c0.5,0.9,0.9,1.9,1.1,2.9c0.3,1,0.4,1.9,0.5,2.9
						c0,0.1,0,0.3,0,0.4l0.1,16c0-0.1,0-0.3,0-0.4c0-1-0.2-2-0.5-2.9c-0.3-1-0.6-1.9-1.1-2.9c-0.5-1-1.1-1.9-1.9-2.9
						c-0.8-1-1.7-2-2.8-3c-1.2-1.2-2.7-2.3-4.3-3.4c-2.5-1.7-5.4-3.3-8.8-4.8c-0.3-0.1-0.6-0.2-0.8-0.4c-4.6-2-9.8-3.6-15.2-4.9
						c-4.2-1-8.6-1.8-13.1-2.4c-2.9-0.4-5.9-0.7-8.9-0.9c-2.6-0.2-5.1-0.3-7.7-0.4c-2.4-0.1-4.7-0.1-7.1,0c-2.3,0-4.6,0.1-6.8,0.3
						c-2.3,0.1-4.5,0.3-6.8,0.6c-2.3,0.2-4.6,0.5-6.9,0.9c-2.5,0.4-4.9,0.8-7.2,1.3c-2.9,0.6-5.7,1.3-8.4,2.1c-3.5,1-6.9,2.2-10,3.5
						c-13.7,5.8-20.5,13.4-20.5,21l-0.1-16C526.8,58.3,533.7,50.7,547.3,44.9z"/>
				</g>
				<g class="st24">
					<defs>
						<path id="SVGID_111_" class="st24" d="M507.4,66l0.1,16c0,9.6,8.6,19.2,25.8,26.5c34.6,14.8,90.9,14.8,125.8,0
							c17.5-7.4,26.3-17.2,26.2-26.9l-0.1-16c0,9.7-8.7,19.5-26.2,26.9c-34.8,14.8-91.1,14.8-125.8,0C516,85.2,507.4,75.6,507.4,66z
							"/>
					</defs>
					<clipPath id="SVGID_8_">
						<use xlink:href="#SVGID_111_"  style="overflow:visible;"/>
					</clipPath>
					<path class="st35" d="M507.4,66.6c0,1.3,0.2,2.5,0.6,3.7c0.3,1.2,0.8,2.5,1.4,3.7c0.6,1.2,1.4,2.5,2.4,3.7
						c1,1.3,2.2,2.6,3.6,3.9c1.6,1.5,3.4,2.9,5.5,4.4c3.2,2.2,6.9,4.2,11.3,6.1c0.4,0.2,0.7,0.3,1.1,0.5c5.9,2.5,12.5,4.6,19.5,6.3
						c5.4,1.3,11,2.3,16.8,3.1c3.7,0.5,7.5,0.9,11.3,1.2c3.3,0.2,6.6,0.4,9.9,0.5c3,0.1,6.1,0.1,9.1,0c2.9-0.1,5.9-0.2,8.8-0.3
						c2.9-0.2,5.8-0.4,8.6-0.7c3-0.3,5.9-0.7,8.8-1.1c3.1-0.5,6.2-1,9.3-1.7c3.7-0.8,7.3-1.7,10.8-2.7c4.5-1.3,8.8-2.8,12.8-4.5
						c17.5-7.4,26.3-17.2,26.2-26.9l0.1,16c0,9.7-8.7,19.5-26.2,26.9c-4,1.7-8.3,3.2-12.8,4.5c-3.5,1-7.1,1.9-10.8,2.7
						c-3,0.6-6.1,1.2-9.3,1.7c-2.9,0.4-5.8,0.8-8.8,1.1c-2.9,0.3-5.7,0.5-8.6,0.7c-2.9,0.2-5.8,0.3-8.8,0.3c-3,0.1-6.1,0-9.1,0
						c-3.3-0.1-6.6-0.2-9.9-0.5c-3.8-0.3-7.6-0.7-11.3-1.2c-5.8-0.8-11.4-1.8-16.8-3.1c-7-1.7-13.6-3.8-19.5-6.3
						c-0.4-0.2-0.7-0.3-1.1-0.5c-4.3-1.9-8.1-4-11.3-6.1c-2.1-1.4-3.9-2.9-5.5-4.4c-1.4-1.3-2.6-2.6-3.6-3.9
						c-0.9-1.2-1.7-2.5-2.4-3.7c-0.6-1.2-1.1-2.4-1.4-3.7c-0.3-1.2-0.5-2.5-0.6-3.7c0-0.2,0-0.4,0-0.6l-0.1-16
						C507.4,66.2,507.4,66.4,507.4,66.6z"/>
				</g>
				<g>
					<g>
						<path class="st36" d="M659.4,39.1c34.6,14.8,34.4,38.7-0.4,53.5c-34.8,14.8-91.1,14.8-125.8,0c-34.6-14.8-34.4-38.7,0.4-53.5
							C568.5,24.3,624.8,24.3,659.4,39.1z M645.2,86.7c27.2-11.5,27.3-30.2,0.3-41.8s-71-11.5-98.2,0C520.1,56.5,520,75.2,547,86.7
							S618,98.2,645.2,86.7"/>
					</g>
				</g>
			</g>
		</g>
		<g class="st23">
			<g>
				<rect x="406.3" y="83.7" class="st37" width="104.8" height="0.8"/>
			</g>
			<g>
				<ellipse class="st37" cx="406.3" cy="84.3" rx="3" ry="2.2"/>
			</g>
			<g>
				<ellipse class="st37" cx="511.1" cy="84.3" rx="1.4" ry="1.1"/>
			</g>
		</g>
		<g class="st23">
			<g>
				<rect x="406.3" y="118.2" class="st37" width="104.8" height="0.8"/>
			</g>
			<g>
				<path class="st37" d="M403.3,118.7c0,1.2,1.3,2.2,3,2.2c1.7,0,3-1,3-2.2c0-1.2-1.3-2.2-3-2.2
					C404.7,116.5,403.3,117.5,403.3,118.7z"/>
			</g>
			<g>
				<path class="st37" d="M509.7,118.7c0,0.6,0.6,1.1,1.4,1.1s1.4-0.5,1.4-1.1c0-0.6-0.6-1.1-1.4-1.1S509.7,118.1,509.7,118.7z"/>
			</g>
		</g>
		<g class="st23">
			<g>
				<rect x="406.3" y="152.6" class="st37" width="104.8" height="0.8"/>
			</g>
			<g>
				<ellipse class="st37" cx="406.3" cy="153.1" rx="3" ry="2.2"/>
			</g>
			<g>
				<ellipse class="st37" cx="511.1" cy="153.1" rx="1.4" ry="1.1"/>
			</g>
		</g>
		<g class="st23">
			<g>
				<rect x="406.3" y="187.2" class="st37" width="104.8" height="0.8"/>
			</g>
			<g>
				<path class="st37" d="M403.3,187.8c0,1.2,1.3,2.2,3,2.2c1.7,0,3-1,3-2.2c0-1.2-1.3-2.2-3-2.2
					C404.7,185.6,403.3,186.6,403.3,187.8z"/>
			</g>
			<g>
				<path class="st37" d="M509.7,187.8c0,0.6,0.6,1.1,1.4,1.1s1.4-0.5,1.4-1.1c0-0.6-0.6-1.1-1.4-1.1S509.7,187.2,509.7,187.8z"/>
			</g>
		</g>
	</g>
	<g>
		<g>
			<g>
				<g class="st38">
					<g class="st39">
						<g>
							<path d="M143.6,182.9c37.8,16,38,42,0.5,58c-37.5,16-98.5,16-136.3,0c-37.8-16-38-41.9-0.4-58
								C44.8,166.9,105.9,166.9,143.6,182.9z"/>
						</g>
					</g>
					<g class="st40">
						<g>
							<path d="M146,182.7c37.8,16,38,42,0.5,58c-37.5,16-98.5,16-136.3,0c-37.8-16-38-41.9-0.4-58
								C47.2,166.7,108.2,166.7,146,182.7z"/>
						</g>
					</g>
					<g class="st41">
						<g>
							<path d="M148.3,182.4c37.8,16,38,42,0.5,58c-37.5,16-98.5,16-136.3,0c-37.8-16-38-41.9-0.4-58
								C49.6,166.4,110.6,166.4,148.3,182.4z"/>
						</g>
					</g>
					<g class="st42">
						<g>
							<path d="M150.7,182.2c37.8,16,38,42,0.5,58c-37.5,16-98.5,16-136.3,0c-37.8-16-38-41.9-0.4-58
								C51.9,166.2,112.9,166.2,150.7,182.2z"/>
						</g>
					</g>
					<g class="st43">
						<g>
							<path d="M153.1,181.9c37.8,16,38,42,0.5,58c-37.5,16-98.5,16-136.3,0c-37.8-16-38-41.9-0.4-58
								C54.3,165.9,115.3,165.9,153.1,181.9z"/>
						</g>
					</g>
					<g class="st44">
						<g>
							<path d="M155.4,181.7c37.8,16,38,42,0.5,58c-37.5,16-98.5,16-136.3,0c-37.8-16-38-41.9-0.4-58
								C56.6,165.7,117.7,165.7,155.4,181.7z"/>
						</g>
					</g>
					<g class="st45">
						<g>
							<path d="M157.8,181.5c37.8,16,38,42,0.5,58c-37.5,16-98.5,16-136.3,0c-37.8-16-38-41.9-0.4-58
								C59,165.5,120,165.5,157.8,181.5z"/>
						</g>
					</g>
					<g class="st46">
						<g>
							<path d="M160.1,181.2c37.8,16,38,42,0.5,58c-37.5,16-98.5,16-136.3,0c-37.8-16-38-41.9-0.4-58
								C61.4,165.2,122.4,165.2,160.1,181.2z"/>
						</g>
					</g>
					<g class="st47">
						<g>
							<path d="M162.5,181c37.8,16,38,42,0.5,58c-37.5,16-98.5,16-136.3,0c-37.8-16-38-41.9-0.4-58C63.7,165,124.8,165,162.5,181z"
								/>
						</g>
					</g>
					<g class="st48">
						<g>
							<path d="M164.9,180.7c37.8,16,38,42,0.5,58c-37.5,16-98.5,16-136.3,0c-37.8-16-38-41.9-0.4-58
								C66.1,164.7,127.1,164.7,164.9,180.7z"/>
						</g>
					</g>
					<g class="st49">
						<g>
							<path d="M167.2,180.5c37.8,16,38,42,0.5,58c-37.5,16-98.5,16-136.3,0c-37.8-16-38-41.9-0.4-58
								C68.5,164.5,129.5,164.5,167.2,180.5z"/>
						</g>
					</g>
					<g class="st50">
						<g>
							<path d="M169.6,180.3c37.8,16,38,42,0.5,58c-37.5,16-98.5,16-136.3,0c-37.8-16-38-41.9-0.4-58
								C70.8,164.3,131.8,164.3,169.6,180.3z"/>
						</g>
					</g>
					<g class="st51">
						<g>
							<path d="M172,180c37.8,16,38,42,0.5,58c-37.5,16-98.5,16-136.3,0c-37.8-16-38-41.9-0.4-58C73.2,164,134.2,164,172,180z"/>
						</g>
					</g>
					<g class="st52">
						<g>
							<path d="M174.3,179.8c37.8,16,38,42,0.5,58c-37.5,16-98.5,16-136.3,0c-37.8-16-38-41.9-0.4-58
								C75.5,163.8,136.6,163.8,174.3,179.8z"/>
						</g>
					</g>
					<g class="st53">
						<g>
							<path d="M176.7,179.5c37.8,16,38,42,0.5,58c-37.5,16-98.5,16-136.3,0c-37.8-16-38-41.9-0.4-58
								C77.9,163.5,138.9,163.5,176.7,179.5z"/>
						</g>
					</g>
					<g class="st54">
						<g>
							<path d="M179,179.3c37.8,16,38,42,0.5,58c-37.5,16-98.5,16-136.3,0c-37.8-16-38-41.9-0.4-58
								C80.3,163.3,141.3,163.3,179,179.3z"/>
						</g>
					</g>
					<g class="st55">
						<g>
							<path d="M181.4,179.1c37.8,16,38,42,0.5,58c-37.5,16-98.5,16-136.3,0c-37.8-16-38-41.9-0.4-58
								C82.6,163,143.7,163.1,181.4,179.1z"/>
						</g>
					</g>
					<g class="st56">
						<g>
							<path d="M183.8,178.8c37.8,16,38,42,0.5,58c-37.5,16-98.5,16-136.3,0c-37.8-16-38-41.9-0.4-58
								C85,162.8,146,162.8,183.8,178.8z"/>
						</g>
					</g>
					<g class="st57">
						<g>
							<path d="M186.1,178.6c37.8,16,38,42,0.5,58c-37.5,16-98.5,16-136.3,0c-37.8-16-38-41.9-0.4-58
								C87.4,162.6,148.4,162.6,186.1,178.6z"/>
						</g>
					</g>
					<g class="st58">
						<g>
							<path d="M188.5,178.3c37.8,16,38,42,0.5,58c-37.5,16-98.5,16-136.3,0c-37.8-16-38-41.9-0.4-58
								C89.7,162.3,150.7,162.3,188.5,178.3z"/>
						</g>
					</g>
					<g class="st59">
						<g>
							<path d="M190.9,178.1c37.8,16,38,42,0.5,58c-37.5,16-98.5,16-136.3,0c-37.8-16-38-41.9-0.4-58
								C92.1,162.1,153.1,162.1,190.9,178.1z"/>
						</g>
					</g>
					<g class="st23">
						<g>
							<path d="M193.2,177.8c37.8,16,38,42,0.5,58c-37.5,16-98.5,16-136.3,0c-37.8-16-38-41.9-0.4-58
								C94.4,161.8,155.5,161.8,193.2,177.8z"/>
						</g>
					</g>
				</g>
				<g>
					<g>
						<g class="st24">
							<g>
								<polygon class="st60" points="193.5,67.7 193.1,176.6 123.7,206.2 124.1,97.3 								"/>
							</g>
							<g>
								<polygon class="st61" points="124.1,97.3 123.7,206.2 53.8,176.6 54.2,67.7 								"/>
							</g>
							<g>
								<path class="st36" d="M193.5,67.7l-69.4,29.6L54.2,67.7C92.5,51.3,154.9,51.3,193.5,67.7z"/>
							</g>
						</g>
					</g>
					<g>
						<g class="st24">
							<g class="st24">
								<defs>
									<path id="SVGID_9_" class="st24" d="M222.5,124.3l-0.3,82.1c0,10.7-9.6,21.3-28.6,29.4l0.3-82.1
										C212.9,145.6,222.5,135,222.5,124.3z"/>
								</defs>
								<clipPath id="SVGID_10_">
									<use xlink:href="#SVGID_9_"  style="overflow:visible;"/>
								</clipPath>
								<path class="st62" d="M222.5,124.9c-0.1,1.4-0.3,2.8-0.6,4.1c-0.4,1.4-0.9,2.7-1.6,4.1c-0.7,1.4-1.6,2.8-2.6,4.1
									c-1.1,1.5-2.4,2.9-4,4.3c-1.8,1.7-3.8,3.3-6.1,4.8c-3.5,2.4-7.7,4.7-12.5,6.8c-0.4,0.2-0.8,0.3-1.2,0.5l-0.3,82.1
									c0.4-0.2,0.8-0.3,1.2-0.5c4.8-2.1,8.9-4.4,12.5-6.8c2.3-1.6,4.3-3.2,6.1-4.8c1.5-1.4,2.8-2.9,4-4.3c1-1.4,1.9-2.7,2.6-4.1
									c0.7-1.3,1.2-2.7,1.6-4.1c0.4-1.4,0.6-2.8,0.6-4.1c0-0.2,0-0.4,0-0.6l0.3-82.1C222.5,124.5,222.5,124.7,222.5,124.9z"/>
							</g>
							<g>
								<polygon class="st63" points="193.9,153.7 193.6,235.8 123.7,206.2 124,124.1 								"/>
							</g>
							<g>
								<path class="st33" d="M193.4,94.5c38.6,16.4,38.8,42.9,0.5,59.2L124,124.1L193.4,94.5z"/>
							</g>
						</g>
					</g>
					<g>
						<g class="st24">
							<g>
								<g>
									<polygon class="st64" points="123.9,151.5 123.7,206.2 54.2,235.8 54.4,181.1 									"/>
								</g>
							</g>
							<g>
								<g>
									<defs>
										<path id="SVGID_11_" d="M25.1,206l0.2-54.7c0,10.8,9.7,21.6,29.1,29.8l-0.2,54.7C34.8,227.6,25.1,216.8,25.1,206z"/>
									</defs>
									<clipPath id="SVGID_12_">
										<use xlink:href="#SVGID_11_"  style="overflow:visible;"/>
									</clipPath>
								</g>
								<g>
									<defs>
										<path id="SVGID_13_" d="M25.1,206l0.2-54.7c0,10.8,9.7,21.6,29.1,29.8l-0.2,54.7C34.8,227.6,25.1,216.8,25.1,206z"/>
									</defs>
									<use xlink:href="#SVGID_13_"  style="overflow:visible;fill:#1D718D;"/>
									<clipPath id="SVGID_14_">
										<use xlink:href="#SVGID_13_"  style="overflow:visible;"/>
									</clipPath>
									<g class="st65">
										<path class="st66" d="M54.4,181.1l-0.2,54.7c-19.4-8.2-29.1-19-29.1-29.8l0.2-54.7C25.3,162,35,172.8,54.4,181.1"/>
									</g>
								</g>
								<g>
									<defs>
										<path id="SVGID_15_" d="M25.1,206l0.2-54.7c0,10.8,9.7,21.6,29.1,29.8l-0.2,54.7C34.8,227.6,25.1,216.8,25.1,206z"/>
									</defs>
									<clipPath id="SVGID_16_">
										<use xlink:href="#SVGID_15_"  style="overflow:visible;"/>
									</clipPath>
								</g>
							</g>
							<g>
								<path class="st27" d="M123.9,151.5l-69.4,29.6c-38.6-16.4-38.8-42.9-0.5-59.2L123.9,151.5z"/>
							</g>
						</g>
					</g>
					<g>
						<g class="st24">
							<g class="st24">
								<defs>
									<path id="SVGID_17_" class="st24" d="M193.7,208.4l-0.1,27.4c-38.4,16.4-100.7,16.4-139.3,0l0.1-27.4
										C92.9,224.8,155.3,224.8,193.7,208.4z"/>
								</defs>
								<clipPath id="SVGID_18_">
									<use xlink:href="#SVGID_17_"  style="overflow:visible;"/>
								</clipPath>
								<path class="st67" d="M172.1,215.4c-6,1.4-12.2,2.6-18.7,3.4c-4.1,0.5-8.3,1-12.6,1.3c-3.6,0.3-7.3,0.4-10.9,0.5
									c-3.4,0.1-6.7,0.1-10.1,0c-3.2-0.1-6.5-0.2-9.7-0.4c-3.2-0.2-6.4-0.5-9.6-0.8c-3.3-0.3-6.6-0.8-9.8-1.2
									c-3.5-0.5-6.9-1.1-10.3-1.8c-4.1-0.9-8.1-1.8-12-3c-5-1.5-9.8-3.1-14.2-5l-0.1,27.4c4.4,1.9,9.2,3.6,14.2,5
									c3.9,1.1,7.9,2.1,12,3c3.4,0.7,6.8,1.3,10.3,1.8c3.2,0.5,6.5,0.9,9.8,1.2c3.2,0.3,6.4,0.6,9.6,0.8c3.2,0.2,6.5,0.3,9.7,0.4
									c3.4,0.1,6.7,0,10.1,0c3.7-0.1,7.3-0.3,10.9-0.5c4.2-0.3,8.4-0.7,12.6-1.3c6.4-0.8,12.7-2,18.7-3.4c7.7-1.8,15-4.2,21.6-7
									l0.1-27.4C187.1,211.2,179.8,213.5,172.1,215.4z"/>
							</g>
							<g>
								<path class="st30" d="M123.8,178.8l69.9,29.6c-38.4,16.4-100.7,16.4-139.3,0L123.8,178.8z"/>
							</g>
						</g>
					</g>
					<g class="st0">
						<defs>
							<path id="SVGID_19_" d="M123.9,151.5l-69.4,29.6c-38.6-16.4-38.8-42.9-0.5-59.2L123.9,151.5z"/>
						</defs>
						<clipPath id="SVGID_20_" class="st23">
							<use xlink:href="#SVGID_19_"  style="overflow:visible;"/>
						</clipPath>
						<g class="st68">
							<g>
								<g class="st2">
									<path d="M163.9,135.6l-74.7,31.9L14,135.6C55.2,118,122.3,118,163.9,135.6z"/>
								</g>
								<g class="st3">
									<path d="M165.3,135l-74.4,31.8L15.9,135C57,117.4,123.9,117.4,165.3,135z"/>
								</g>
								<g class="st4">
									<path d="M166.7,134.3L92.5,166l-74.7-31.6C58.8,116.8,125.4,116.8,166.7,134.3z"/>
								</g>
								<g class="st5">
									<path d="M168.1,133.7l-73.9,31.5l-74.4-31.5C60.6,116.2,127,116.2,168.1,133.7z"/>
								</g>
								<g class="st6">
									<path d="M169.5,133l-73.7,31.4L21.7,133C62.3,115.6,128.5,115.6,169.5,133z"/>
								</g>
								<g class="st7">
									<path d="M170.9,132.3l-73.4,31.3l-73.9-31.3C64.1,115,130.1,115,170.9,132.3z"/>
								</g>
								<g class="st8">
									<path d="M172.3,131.7l-73.2,31.2l-73.7-31.2C65.9,114.4,131.6,114.5,172.3,131.7z"/>
								</g>
								<g class="st9">
									<path d="M173.7,131l-72.9,31.1L27.4,131C67.7,113.9,133.2,113.9,173.7,131z"/>
								</g>
								<g class="st10">
									<path d="M175.2,130.4l-72.7,31l-73.2-31C69.4,113.3,134.8,113.3,175.2,130.4z"/>
								</g>
								<g class="st11">
									<path d="M176.6,129.7l-72.4,30.9l-72.9-30.9C71.2,112.7,136.3,112.7,176.6,129.7z"/>
								</g>
								<g class="st12">
									<path d="M178,129.1l-72.2,30.8l-72.7-30.8C73,112.1,137.9,112.1,178,129.1z"/>
								</g>
								<g class="st13">
									<path d="M179.4,128.4l-71.9,30.7L35,128.4C74.8,111.5,139.4,111.5,179.4,128.4z"/>
								</g>
								<g class="st14">
									<path d="M180.8,127.8l-71.7,30.6L37,127.8C76.6,110.9,141,110.9,180.8,127.8z"/>
								</g>
								<g class="st15">
									<path d="M182.2,127.1l-71.4,30.5l-71.9-30.5C78.3,110.3,142.5,110.3,182.2,127.1z"/>
								</g>
								<g class="st16">
									<path d="M183.6,126.5l-71.2,30.4l-71.7-30.4C80.1,109.7,144.1,109.7,183.6,126.5z"/>
								</g>
								<g class="st17">
									<path d="M185,125.8l-70.9,30.3l-71.4-30.3C81.9,109.1,145.6,109.1,185,125.8z"/>
								</g>
								<g class="st18">
									<path d="M186.5,125.1l-70.7,30.2l-71.2-30.2C83.7,108.5,147.2,108.5,186.5,125.1z"/>
								</g>
								<g class="st19">
									<path d="M187.9,124.5l-70.4,30l-70.9-30C85.4,107.9,148.7,107.9,187.9,124.5z"/>
								</g>
								<g class="st20">
									<path d="M189.3,123.8l-70.2,29.9l-70.7-29.9C87.2,107.3,150.3,107.3,189.3,123.8z"/>
								</g>
								<g class="st21">
									<path d="M190.7,123.2L120.8,153l-70.4-29.8C89,106.7,151.8,106.7,190.7,123.2z"/>
								</g>
								<g class="st22">
									<path d="M192.1,122.5l-69.7,29.7l-70.2-29.7C90.8,106.1,153.4,106.1,192.1,122.5z"/>
								</g>
								<path d="M193.5,121.9l-69.4,29.6l-69.9-29.6C92.5,105.5,154.9,105.5,193.5,121.9z"/>
							</g>
						</g>
					</g>
					<g class="st0">
						<defs>
							<path id="SVGID_21_" d="M123.8,178.8l69.9,29.6c-38.4,16.4-100.7,16.4-139.3,0L123.8,178.8z"/>
						</defs>
						<clipPath id="SVGID_22_" class="st23">
							<use xlink:href="#SVGID_21_"  style="overflow:visible;"/>
						</clipPath>
						<g class="st69">
							<g>
								<g class="st2">
									<path d="M231.1,193.2L156.4,225l-75.2-31.9C122.4,175.6,189.5,175.6,231.1,193.2z"/>
								</g>
								<g class="st3">
									<path d="M232.5,192.5L158,224.3l-74.9-31.8C124.2,175,191.1,175,232.5,192.5z"/>
								</g>
								<g class="st4">
									<path d="M233.9,191.9l-74.2,31.6L85,191.9C126,174.4,192.6,174.4,233.9,191.9z"/>
								</g>
								<g class="st5">
									<path d="M235.3,191.2l-73.9,31.5l-74.4-31.5C127.8,173.8,194.2,173.8,235.3,191.2z"/>
								</g>
								<g class="st6">
									<path d="M236.7,190.6L163,222l-74.2-31.4C129.6,173.2,195.8,173.2,236.7,190.6z"/>
								</g>
								<g class="st7">
									<path d="M238.1,189.9l-73.4,31.3l-73.9-31.3C131.3,172.6,197.3,172.6,238.1,189.9z"/>
								</g>
								<g class="st8">
									<path d="M239.5,189.2l-73.2,31.2l-73.7-31.2C133.1,172,198.9,172,239.5,189.2z"/>
								</g>
								<g class="st9">
									<path d="M240.9,188.6L168,219.7l-73.4-31.1C134.9,171.4,200.4,171.4,240.9,188.6z"/>
								</g>
								<g class="st10">
									<path d="M242.4,187.9l-72.7,31l-73.2-31C136.7,170.8,202,170.8,242.4,187.9z"/>
								</g>
								<g class="st11">
									<path d="M243.8,187.3l-72.4,30.9l-72.9-30.9C138.4,170.2,203.5,170.2,243.8,187.3z"/>
								</g>
								<g class="st12">
									<path d="M245.2,186.6L173,217.4l-72.7-30.8C140.2,169.6,205.1,169.6,245.2,186.6z"/>
								</g>
								<g class="st13">
									<path d="M246.6,186l-71.9,30.7L102.3,186C142,169,206.6,169,246.6,186z"/>
								</g>
								<g class="st14">
									<path d="M248,185.3l-71.7,30.6l-72.2-30.6C143.8,168.4,208.2,168.4,248,185.3z"/>
								</g>
								<g class="st15">
									<path d="M249.4,184.7L178,215.1l-71.9-30.5C145.5,167.8,209.7,167.8,249.4,184.7z"/>
								</g>
								<g class="st16">
									<path d="M250.8,184l-71.2,30.4L108,184C147.3,167.2,211.3,167.2,250.8,184z"/>
								</g>
								<g class="st17">
									<path d="M252.3,183.4l-70.9,30.3l-71.4-30.3C149.1,166.6,212.8,166.6,252.3,183.4z"/>
								</g>
								<g class="st18">
									<path d="M253.7,182.7L183,212.9l-71.2-30.2C150.9,166,214.4,166,253.7,182.7z"/>
								</g>
								<g class="st19">
									<path d="M255.1,182l-70.4,30l-70.9-30C152.6,165.5,215.9,165.5,255.1,182z"/>
								</g>
								<g class="st20">
									<path d="M256.5,181.4l-70.2,29.9l-70.7-29.9C154.4,164.9,217.5,164.9,256.5,181.4z"/>
								</g>
								<g class="st21">
									<path d="M257.9,180.7L188,210.6l-70.4-29.8C156.2,164.3,219,164.3,257.9,180.7z"/>
								</g>
								<g class="st22">
									<path d="M259.3,180.1l-69.7,29.7l-70.2-29.7C158,163.7,220.6,163.7,259.3,180.1z"/>
								</g>
								<path d="M260.7,179.4l-69.4,29.6l-69.9-29.6C159.7,163.1,222.1,163.1,260.7,179.4z"/>
							</g>
						</g>
					</g>
				</g>
			</g>
			<path class="st70" d="M126,205.8c-1.1,0.5-3,0.5-4.1,0c-1.1-0.5-1.1-1.3,0-1.7c1.1-0.5,3-0.5,4.1,0
				C127.2,204.6,127.2,205.3,126,205.8z"/>
			<path class="st70" d="M181.1,123.9c-1.1,0.5-3,0.5-4.1,0c-1.1-0.5-1.1-1.3,0-1.7c1.1-0.5,3-0.5,4.1,0
				C182.2,122.7,182.2,123.4,181.1,123.9z"/>
			<g class="st0">
				<path class="st71" d="M66.3,153.6c-1.1,0.5-3,0.5-4.1,0c-1.1-0.5-1.1-1.3,0-1.7c1.1-0.5,3-0.5,4.1,0
					C67.4,152.3,67.4,153.1,66.3,153.6z"/>
			</g>
			<ellipse class="st70" cx="123.7" cy="72" rx="2.9" ry="1.2"/>
			<g class="st0">
				<polygon class="st72" points="124.2,72 123.2,72 123.2,46.3 272.2,46.3 272.2,47.1 124.2,47.1 				"/>
			</g>
			<g class="st0">
				<polygon class="st72" points="179.5,123.1 178.5,123.1 178.5,101.7 271.5,101.7 271.5,102.5 179.5,102.5 				"/>
			</g>
			<g class="st0">
				<g class="st23">
					<polygon class="st37" points="124.6,204.9 123.6,204.9 123.6,188.2 271,188.2 271,189 124.6,189 					"/>
				</g>
			</g>
			<g class="st0">
				<polygon class="st72" points="64.8,152.7 63.7,152.7 63.7,141.7 271,141.7 271,142.4 64.8,142.4 				"/>
			</g>
		</g>
		<g class="st0">
			<ellipse class="st72" cx="271" cy="46.7" rx="3.2" ry="2.3"/>
		</g>
		<g class="st0">
			<ellipse class="st72" cx="271" cy="102.1" rx="3.2" ry="2.3"/>
		</g>
		<g class="st0">
			<path class="st72" d="M274.1,188.6c0,1.3-1.4,2.3-3.2,2.3c-1.7,0-3.2-1-3.2-2.3c0-1.3,1.4-2.3,3.2-2.3
				C272.7,186.3,274.1,187.3,274.1,188.6z"/>
		</g>
		<g class="st0">
			<path class="st72" d="M274.1,142.1c0,1.3-1.4,2.3-3.2,2.3c-1.7,0-3.2-1-3.2-2.3c0-1.3,1.4-2.3,3.2-2.3
				C272.7,139.7,274.1,140.8,274.1,142.1z"/>
		</g>
	</g>
	<g class="st73">
		<path class="st39" d="M487.1,543l77-32.8l77.5,32.8l-77,32.8L487.1,543z M390.9,575.9L313.5,543l77-32.8l77.5,32.8L390.9,575.9z
			 M660.7,543l-96.7-41L477.5,539l-87.1-36.9L303.8,539l-87.1-36.9L130.2,539l-87.1-36.9L-53,543l96.7,41l86.5-36.9l87.1,36.9
			l86.5-36.9L391,584l86.5-36.9l87.1,36.9L660.7,543z M43.7,575.9L-33.8,543l77-32.8l77.5,32.8L43.7,575.9z M217.3,575.9L139.8,543
			l77-32.8l77.5,32.8L217.3,575.9z"/>
		<path class="st40" d="M488.3,542.6l77-32.8l77.5,32.8l-77,32.8L488.3,542.6z M392.2,575.5l-77.5-32.8l77-32.8l77.5,32.8
			L392.2,575.5z M661.9,542.6l-96.7-41l-86.5,36.9l-87.1-36.9l-86.5,36.9L218,501.7l-86.5,36.9l-87.1-36.9l-96.1,41l96.7,41
			l86.5-36.9l87.1,36.9l86.5-36.9l87.1,36.9l86.5-36.9l87.1,36.9L661.9,542.6z M44.9,575.5l-77.5-32.8l77-32.8l77.5,32.8L44.9,575.5
			z M218.5,575.5l-77.5-32.8l77-32.8l77.5,32.8L218.5,575.5z"/>
		<path class="st41" d="M489.6,542.2l77-32.8l77.5,32.8L567,575L489.6,542.2z M393.4,575L316,542.2l77-32.8l77.5,32.8L393.4,575z
			 M663.2,542.2l-96.7-41L480,538.1l-87.1-36.9l-86.5,36.9l-87.1-36.9l-86.5,36.9l-87.1-36.9l-96.1,41l96.7,41l86.5-36.9l87.1,36.9
			l86.5-36.9l87.1,36.9l86.5-36.9l87.1,36.9L663.2,542.2z M46.2,575l-77.5-32.8l77-32.8l77.5,32.8L46.2,575z M219.8,575l-77.5-32.8
			l77-32.8l77.5,32.8L219.8,575z"/>
		<path class="st42" d="M490.8,541.8l77-32.8l77.5,32.8l-77,32.8L490.8,541.8z M394.7,574.6l-77.5-32.8l77-32.8l77.5,32.8
			L394.7,574.6z M664.4,541.8l-96.7-41l-86.5,36.9l-87.1-36.9l-86.5,36.9l-87.1-36.9l-86.5,36.9l-87.1-36.9l-96.1,41l96.7,41
			l86.5-36.9l87.1,36.9l86.5-36.9l87.1,36.9l86.5-36.9l87.1,36.9L664.4,541.8z M47.4,574.6L-30,541.8l77-32.8l77.5,32.8L47.4,574.6z
			 M221,574.6l-77.5-32.8l77-32.8l77.5,32.8L221,574.6z"/>
		<path class="st43" d="M492.1,541.4l77-32.8l77.5,32.8l-77,32.8L492.1,541.4z M395.9,574.2l-77.5-32.8l77-32.8l77.5,32.8
			L395.9,574.2z M665.7,541.4l-96.7-41l-86.5,36.9l-87.1-36.9l-86.5,36.9l-87.1-36.9l-86.5,36.9l-87.1-36.9l-96.1,41l96.7,41
			l86.5-36.9l87.1,36.9l86.5-36.9l87.1,36.9l86.5-36.9l87.1,36.9L665.7,541.4z M48.7,574.2l-77.5-32.8l77-32.8l77.5,32.8L48.7,574.2
			z M222.3,574.2l-77.5-32.8l77-32.8l77.5,32.8L222.3,574.2z"/>
		<path class="st44" d="M493.3,541l77-32.8l77.5,32.8l-77,32.8L493.3,541z M397.2,573.8L319.7,541l77-32.8l77.5,32.8L397.2,573.8z
			 M666.9,541l-96.7-41l-86.5,36.9L396.6,500l-86.5,36.9L223,500l-86.5,36.9L49.3,500l-96.1,41l96.7,41l86.5-36.9l87.1,36.9
			l86.5-36.9l87.1,36.9l86.5-36.9l87.1,36.9L666.9,541z M49.9,573.8L-27.6,541l77-32.8l77.5,32.8L49.9,573.8z M223.5,573.8
			L146.1,541l77-32.8l77.5,32.8L223.5,573.8z"/>
		<path class="st45" d="M494.6,540.5l77-32.8l77.5,32.8l-77,32.8L494.6,540.5z M398.4,573.4l-77.5-32.8l77-32.8l77.5,32.8
			L398.4,573.4z M668.2,540.5l-96.7-41l-86.5,36.9l-87.1-36.9l-86.5,36.9l-87.1-36.9l-86.5,36.9l-87.1-36.9l-96.1,41l96.7,41
			l86.5-36.9l87.1,36.9l86.5-36.9l87.1,36.9l86.5-36.9l87.1,36.9L668.2,540.5z M51.2,573.4l-77.5-32.8l77-32.8l77.5,32.8L51.2,573.4
			z M224.8,573.4l-77.5-32.8l77-32.8l77.5,32.8L224.8,573.4z"/>
		<path class="st46" d="M495.8,540.1l77-32.8l77.5,32.8l-77,32.8L495.8,540.1z M399.7,573l-77.5-32.8l77-32.8l77.5,32.8L399.7,573z
			 M669.4,540.1l-96.7-41l-86.5,36.9l-87.1-36.9l-86.5,36.9l-87.1-36.9l-86.5,36.9l-87.1-36.9l-96.1,41l96.7,41l86.5-36.9l87.1,36.9
			l86.5-36.9l87.1,36.9l86.5-36.9l87.1,36.9L669.4,540.1z M52.4,573l-77.5-32.8l77-32.8l77.5,32.8L52.4,573z M226,573l-77.5-32.8
			l77-32.8l77.5,32.8L226,573z"/>
		<path class="st47" d="M497.1,539.7l77-32.8l77.5,32.8l-77,32.8L497.1,539.7z M400.9,572.5l-77.5-32.8l77-32.8l77.5,32.8
			L400.9,572.5z M670.7,539.7l-96.7-41l-86.5,36.9l-87.1-36.9l-86.5,36.9l-87.1-36.9l-86.5,36.9l-87.1-36.9l-96.1,41l96.7,41
			l86.5-36.9l87.1,36.9l86.5-36.9l87.1,36.9l86.5-36.9l87.1,36.9L670.7,539.7z M53.6,572.5l-77.5-32.8l77-32.8l77.5,32.8L53.6,572.5
			z M227.3,572.5l-77.5-32.8l77-32.8l77.5,32.8L227.3,572.5z"/>
		<path class="st48" d="M498.3,539.3l77-32.8l77.5,32.8l-77,32.8L498.3,539.3z M402.2,572.1l-77.5-32.8l77-32.8l77.5,32.8
			L402.2,572.1z M671.9,539.3l-96.7-41l-86.5,36.9l-87.1-36.9l-86.5,36.9L228,498.3l-86.5,36.9l-87.1-36.9l-96.1,41l96.7,41
			l86.5-36.9l87.1,36.9l86.5-36.9l87.1,36.9l86.5-36.9l87.1,36.9L671.9,539.3z M54.9,572.1l-77.5-32.8l77-32.8l77.5,32.8L54.9,572.1
			z M228.5,572.1l-77.5-32.8l77-32.8l77.5,32.8L228.5,572.1z"/>
		<path class="st49" d="M499.6,538.9l77-32.8l77.5,32.8l-77,32.8L499.6,538.9z M403.4,571.7l-77.5-32.8l77-32.8l77.5,32.8
			L403.4,571.7z M673.2,538.9l-96.7-41l-86.5,36.9l-87.1-36.9l-86.5,36.9l-87.1-36.9l-86.5,36.9l-87.1-36.9l-96.1,41l96.7,41
			l86.5-36.9l87.1,36.9l86.5-36.9l87.1,36.9l86.5-36.9l87.1,36.9L673.2,538.9z M56.1,571.7l-77.5-32.8l77-32.8l77.5,32.8L56.1,571.7
			z M229.8,571.7l-77.5-32.8l77-32.8l77.5,32.8L229.8,571.7z"/>
		<path class="st50" d="M500.8,538.5l77-32.8l77.5,32.8l-77,32.8L500.8,538.5z M404.6,571.3l-77.5-32.8l77-32.8l77.5,32.8
			L404.6,571.3z M674.4,538.5l-96.7-41l-86.5,36.9l-87.1-36.9l-86.5,36.9l-87.1-36.9l-86.5,36.9l-87.1-36.9l-96.1,41l96.7,41
			l86.5-36.9l87.1,36.9l86.5-36.9l87.1,36.9l86.5-36.9l87.1,36.9L674.4,538.5z M57.4,571.3l-77.5-32.8l77-32.8l77.5,32.8L57.4,571.3
			z M231,571.3l-77.5-32.8l77-32.8l77.5,32.8L231,571.3z"/>
		<path class="st51" d="M502.1,538l77-32.8l77.5,32.8l-77,32.8L502.1,538z M405.9,570.9L328.4,538l77-32.8l77.5,32.8L405.9,570.9z
			 M675.6,538l-96.7-41L492.4,534l-87.1-36.9L318.8,534l-87.1-36.9L145.2,534l-87.1-36.9L-38,538l96.7,41l86.5-36.9l87.1,36.9
			l86.5-36.9L406,579l86.5-36.9l87.1,36.9L675.6,538z M58.6,570.9L-18.8,538l77-32.8l77.5,32.8L58.6,570.9z M232.3,570.9L154.8,538
			l77-32.8l77.5,32.8L232.3,570.9z"/>
		<path class="st52" d="M503.3,537.6l77-32.8l77.5,32.8l-77,32.8L503.3,537.6z M407.1,570.4l-77.5-32.8l77-32.8l77.5,32.8
			L407.1,570.4z M676.9,537.6l-96.7-41l-86.5,36.9l-87.1-36.9l-86.5,36.9L233,496.6l-86.5,36.9l-87.1-36.9l-96.1,41l96.7,41
			l86.5-36.9l87.1,36.9l86.5-36.9l87.1,36.9l86.5-36.9l87.1,36.9L676.9,537.6z M59.9,570.4l-77.5-32.8l77-32.8l77.5,32.8L59.9,570.4
			z M233.5,570.4l-77.5-32.8l77-32.8l77.5,32.8L233.5,570.4z"/>
		<path class="st53" d="M504.6,537.2l77-32.8l77.5,32.8L582,570L504.6,537.2z M408.4,570l-77.5-32.8l77-32.8l77.5,32.8L408.4,570z
			 M678.1,537.2l-96.7-41l-86.5,36.9l-87.1-36.9l-86.5,36.9l-87.1-36.9l-86.5,36.9l-87.1-36.9l-96.1,41l96.7,41l86.5-36.9l87.1,36.9
			l86.5-36.9l87.1,36.9l86.5-36.9l87.1,36.9L678.1,537.2z M61.1,570l-77.5-32.8l77-32.8l77.5,32.8L61.1,570z M234.8,570l-77.5-32.8
			l77-32.8l77.5,32.8L234.8,570z"/>
		<path class="st54" d="M505.8,536.8l77-32.8l77.5,32.8l-77,32.8L505.8,536.8z M409.6,569.6l-77.5-32.8l77-32.8l77.5,32.8
			L409.6,569.6z M679.4,536.8l-96.7-41l-86.5,36.9l-87.1-36.9l-86.5,36.9l-87.1-36.9l-86.5,36.9l-87.1-36.9l-96.1,41l96.7,41
			l86.5-36.9l87.1,36.9l86.5-36.9l87.1,36.9l86.5-36.9l87.1,36.9L679.4,536.8z M62.4,569.6l-77.5-32.8l77-32.8l77.5,32.8L62.4,569.6
			z M236,569.6l-77.5-32.8l77-32.8l77.5,32.8L236,569.6z"/>
		<path class="st55" d="M507,536.4l77-32.8l77.5,32.8l-77,32.8L507,536.4z M410.9,569.2l-77.5-32.8l77-32.8l77.5,32.8L410.9,569.2z
			 M680.6,536.4l-96.7-41l-86.5,36.9l-87.1-36.9l-86.5,36.9l-87.1-36.9l-86.5,36.9l-87.1-36.9l-96.1,41l96.7,41l86.5-36.9l87.1,36.9
			l86.5-36.9l87.1,36.9l86.5-36.9l87.1,36.9L680.6,536.4z M63.6,569.2l-77.5-32.8l77-32.8l77.5,32.8L63.6,569.2z M237.3,569.2
			l-77.5-32.8l77-32.8l77.5,32.8L237.3,569.2z"/>
		<path class="st56" d="M508.3,535.9l77-32.8l77.5,32.8l-77,32.8L508.3,535.9z M412.1,568.8l-77.5-32.8l77-32.8l77.5,32.8
			L412.1,568.8z M681.9,535.9l-96.7-41l-86.5,36.9L411.6,495L325,531.9L237.9,495l-86.5,36.9L64.3,495l-96.1,41l96.7,41l86.5-36.9
			l87.1,36.9l86.5-36.9l87.1,36.9l86.5-36.9l87.1,36.9L681.9,535.9z M64.9,568.8l-77.5-32.8l77-32.8l77.5,32.8L64.9,568.8z
			 M238.5,568.8l-77.5-32.8l77-32.8l77.5,32.8L238.5,568.8z"/>
		<path class="st57" d="M509.5,535.5l77-32.8l77.5,32.8l-77,32.8L509.5,535.5z M413.4,568.4l-77.5-32.8l77-32.8l77.5,32.8
			L413.4,568.4z M683.1,535.5l-96.7-41l-86.5,36.9l-87.1-36.9l-86.5,36.9l-87.1-36.9l-86.5,36.9l-87.1-36.9l-96.1,41l96.7,41
			l86.5-36.9l87.1,36.9l86.5-36.9l87.1,36.9l86.5-36.9l87.1,36.9L683.1,535.5z M66.1,568.4l-77.5-32.8l77-32.8l77.5,32.8L66.1,568.4
			z M239.8,568.4l-77.5-32.8l77-32.8l77.5,32.8L239.8,568.4z"/>
		<path class="st58" d="M510.8,535.1l77-32.8l77.5,32.8l-77,32.8L510.8,535.1z M414.6,567.9l-77.5-32.8l77-32.8l77.5,32.8
			L414.6,567.9z M684.4,535.1l-96.7-41L501.2,531l-87.1-36.9L327.5,531l-87.1-36.9L153.9,531l-87.1-36.9l-96.1,41l96.7,41l86.5-36.9
			l87.1,36.9l86.5-36.9l87.1,36.9l86.5-36.9l87.1,36.9L684.4,535.1z M67.4,567.9l-77.5-32.8l77-32.8l77.5,32.8L67.4,567.9z
			 M241,567.9l-77.5-32.8l77-32.8l77.5,32.8L241,567.9z"/>
		<path class="st59" d="M512,534.7l77-32.8l77.5,32.8l-77,32.8L512,534.7z M415.9,567.5l-77.5-32.8l77-32.8l77.5,32.8L415.9,567.5z
			 M685.6,534.7l-96.7-41l-86.5,36.9l-87.1-36.9l-86.5,36.9l-87.1-36.9l-86.5,36.9l-87.1-36.9l-96.1,41l96.7,41l86.5-36.9l87.1,36.9
			l86.5-36.9l87.1,36.9l86.5-36.9l87.1,36.9L685.6,534.7z M68.6,567.5l-77.5-32.8l77-32.8l77.5,32.8L68.6,567.5z M242.2,567.5
			l-77.5-32.8l77-32.8l77.5,32.8L242.2,567.5z"/>
		<path class="st23" d="M513.3,534.3l77-32.8l77.5,32.8l-77,32.8L513.3,534.3z M417.1,567.1l-77.5-32.8l77-32.8l77.5,32.8
			L417.1,567.1z M686.9,534.3l-96.7-41l-86.5,36.9l-87.1-36.9L330,530.2l-87.1-36.9l-86.5,36.9l-87.1-36.9l-96.1,41l96.7,41
			l86.5-36.9l87.1,36.9l86.5-36.9l87.1,36.9l86.5-36.9l87.1,36.9L686.9,534.3z M69.9,567.1l-77.5-32.8l77-32.8l77.5,32.8L69.9,567.1
			z M243.5,567.1L166,534.3l77-32.8l77.5,32.8L243.5,567.1z"/>
	</g>
	<g class="st0">
		<g class="st23">
			<g>
				<g>
					<g class="st24">
						<g>
							<g>
								<polygon class="st61" points="152.7,522.7 152.7,534.3 75.2,501.4 75.3,489.9 								"/>
							</g>
						</g>
						<g>
							<polygon class="st60" points="75.3,489.9 75.2,501.4 -1.8,534.3 -1.7,522.7 							"/>
						</g>
						<g>
							<g>
								<polygon class="st61" points="75.8,563.7 75.8,575.3 -20.9,534.3 -20.9,522.7 								"/>
							</g>
						</g>
						<g>
							<polygon class="st60" points="171.9,522.7 171.8,534.3 75.8,575.3 75.8,563.7 							"/>
						</g>
						<g>
							<path class="st36" d="M75.2,481.7l96.7,41l-96.1,41l-96.7-41L75.2,481.7z M75.8,555.5l77-32.8l-77.5-32.8l-77,32.8
								L75.8,555.5"/>
						</g>
					</g>
				</g>
				<g>
					<g class="st24">
						<g>
							<g>
								<polygon class="st63" points="326.3,522.7 326.3,534.3 248.8,501.4 248.9,489.9 								"/>
							</g>
						</g>
						<g>
							<polygon class="st74" points="248.9,489.9 248.8,501.4 171.9,534.3 171.9,522.7 							"/>
						</g>
						<g>
							<g>
								<polygon class="st63" points="249.4,563.7 249.4,575.3 162.2,538.4 162.3,526.8 								"/>
							</g>
						</g>
						<g>
							<polygon class="st74" points="345.5,522.7 345.5,534.3 249.4,575.3 249.4,563.7 							"/>
						</g>
						<g>
							<path class="st33" d="M248.8,481.7l96.7,41l-96.1,41l-96.7-41L248.8,481.7z M249.4,555.5l77-32.8l-77.5-32.8l-77,32.8
								L249.4,555.5"/>
						</g>
					</g>
				</g>
				<g>
					<g class="st24">
						<g>
							<g>
								<polygon class="st75" points="500,522.7 499.9,534.3 422.5,501.4 422.5,489.9 								"/>
							</g>
						</g>
						<g>
							<polygon class="st76" points="422.5,489.9 422.5,501.4 345.5,534.3 345.5,522.7 							"/>
						</g>
						<g>
							<g>
								<polygon class="st75" points="423.1,563.7 423,575.3 335.9,538.3 336,526.7 								"/>
							</g>
						</g>
						<g>
							<polygon class="st76" points="519.1,522.7 519.1,534.3 423,575.3 423.1,563.7 							"/>
						</g>
						<g>
							<path class="st30" d="M422.5,481.7l96.7,41l-96.1,41l-96.7-41L422.5,481.7z M423,555.5l77-32.8l-77.5-32.8l-77,32.8
								L423,555.5"/>
						</g>
					</g>
				</g>
				<g>
					<g class="st24">
						<g>
							<polygon class="st66" points="673.6,522.7 673.6,534.3 596.1,501.4 596.1,489.9 							"/>
						</g>
						<g>
							<g>
								<polygon class="st64" points="596.1,489.9 596.1,501.4 519.1,534.3 519.2,522.7 								"/>
							</g>
						</g>
						<g>
							<g>
								<polygon class="st66" points="596.7,563.7 596.7,575.3 509.6,538.3 509.6,526.7 								"/>
							</g>
						</g>
						<g>
							<polygon class="st64" points="692.8,522.7 692.7,534.3 596.7,575.3 596.7,563.7 							"/>
						</g>
						<g>
							<path class="st27" d="M596.1,481.7l96.7,41l-96.1,41l-96.7-41L596.1,481.7z M596.6,555.5l77-32.8l-77.5-32.8l-77,32.8
								L596.6,555.5"/>
						</g>
					</g>
				</g>
			</g>
		</g>
		<g class="st23">
			
				<text transform="matrix(0.9207 0.3902 -0.9207 0.3902 98.5653 576.4321)" style="fill:#9DAAC4; font-family:'BebasNeueBook'; font-size:78.6539px;">01</text>
			<text transform="matrix(0.9207 0.3902 -0.9207 0.3902 177.3979 586.8081)"><tspan x="0" y="0" style="fill:#9DAAC4; font-family:'BebasNeueBold'; font-size:38.2165px;">Loren</tspan><tspan x="0" y="29.5" style="fill:#9DAAC4; font-family:'BebasNeueBold'; font-size:38.2165px;">ipsum</tspan></text>
		</g>
		<g class="st23">
			
				<text transform="matrix(0.9207 0.3902 -0.9207 0.3902 272.9411 571.2438)" style="fill:#9DAAC4; font-family:'BebasNeueBook'; font-size:78.6539px;">02</text>
			<text transform="matrix(0.9207 0.3902 -0.9207 0.3902 354.1555 582.6888)"><tspan x="0" y="0" style="fill:#9DAAC4; font-family:'BebasNeueBold'; font-size:38.2165px;">Loren</tspan><tspan x="0" y="29.5" style="fill:#9DAAC4; font-family:'BebasNeueBold'; font-size:38.2165px;">ipsum</tspan></text>
		</g>
		<g class="st23">
			
				<text transform="matrix(0.9207 0.3902 -0.9207 0.3902 448.0237 571.245)" style="fill:#9DAAC4; font-family:'BebasNeueBook'; font-size:78.6539px;">03</text>
			<text transform="matrix(0.9207 0.3902 -0.9207 0.3902 528.971 582.6888)"><tspan x="0" y="0" style="fill:#9DAAC4; font-family:'BebasNeueBold'; font-size:38.2165px;">Loren</tspan><tspan x="0" y="29.5" style="fill:#9DAAC4; font-family:'BebasNeueBold'; font-size:38.2165px;">ipsum</tspan></text>
		</g>
		<g class="st23">
			
				<text transform="matrix(0.9207 0.3902 -0.9207 0.3902 632.2819 571.2442)" style="fill:#9DAAC4; font-family:'BebasNeueBook'; font-size:78.6539px;">04</text>
			<text transform="matrix(0.9207 0.3902 -0.9207 0.3902 713.7607 582.6891)"><tspan x="0" y="0" style="fill:#9DAAC4; font-family:'BebasNeueBold'; font-size:38.2165px;">Loren</tspan><tspan x="0" y="29.5" style="fill:#9DAAC4; font-family:'BebasNeueBold'; font-size:38.2165px;">ipsum</tspan></text>
		</g>
	</g>
	<g class="st0">
		<g class="st23">
			<g class="st77">
				<g>
					<g class="st2">
						<polygon points="672.6,430.8 563.9,478.1 456.1,431.5 564.9,384.2 						"/>
					</g>
					<g class="st3">
						<polygon points="673.3,430.5 565.4,477.4 458.5,431.3 566.4,384.4 						"/>
					</g>
					<g class="st4">
						<polygon points="673.9,430.3 566.9,476.8 460.9,431 567.9,384.5 						"/>
					</g>
					<g class="st5">
						<polygon points="674.6,430 568.4,476.1 463.2,430.7 569.4,384.6 						"/>
					</g>
					<g class="st6">
						<polygon points="675.2,429.7 569.9,475.4 465.6,430.4 570.9,384.8 						"/>
					</g>
					<g class="st7">
						<polygon points="675.9,429.4 571.5,474.7 468,430.1 572.4,384.9 						"/>
					</g>
					<g class="st8">
						<polygon points="676.5,429.2 573,474 470.3,429.9 573.9,385 						"/>
					</g>
					<g class="st9">
						<polygon points="677.2,428.9 574.5,473.3 472.7,429.6 575.4,385.2 						"/>
					</g>
					<g class="st10">
						<polygon points="677.9,428.6 576,472.7 475,429.3 576.9,385.3 						"/>
					</g>
					<g class="st11">
						<polygon points="678.5,428.4 577.5,472 477.4,429 578.4,385.4 						"/>
					</g>
					<g class="st12">
						<polygon points="679.2,428.1 579,471.3 479.8,428.8 579.9,385.6 						"/>
					</g>
					<g class="st13">
						<polygon points="679.8,427.8 580.5,470.6 482.1,428.5 581.4,385.7 						"/>
					</g>
					<g class="st14">
						<polygon points="680.5,427.5 582,469.9 484.5,428.2 582.9,385.8 						"/>
					</g>
					<g class="st15">
						<polygon points="681.1,427.3 583.6,469.3 486.9,427.9 584.4,385.9 						"/>
					</g>
					<g class="st16">
						<polygon points="681.8,427 585.1,468.6 489.2,427.6 585.9,386.1 						"/>
					</g>
					<g class="st17">
						<polygon points="682.4,426.7 586.6,467.9 491.6,427.4 587.5,386.2 						"/>
					</g>
					<g class="st18">
						<polygon points="683.1,426.5 588.1,467.2 494,427.1 589,386.3 						"/>
					</g>
					<g class="st19">
						<polygon points="683.8,426.2 589.6,466.5 496.3,426.8 590.5,386.5 						"/>
					</g>
					<g class="st20">
						<polygon points="684.4,425.9 591.1,465.8 498.7,426.5 592,386.6 						"/>
					</g>
					<g class="st21">
						<polygon points="685.1,425.6 592.6,465.2 501.1,426.3 593.5,386.7 						"/>
					</g>
					<g class="st22">
						<polygon points="685.7,425.4 594.2,464.5 503.4,426 595,386.9 						"/>
					</g>
					<polygon points="686.4,425.1 595.7,463.8 505.8,425.7 596.5,387 					"/>
				</g>
			</g>
			<g>
				<g>
					<g>
						<g class="st24">
							<g>
								<polygon class="st60" points="640.3,268.2 639.8,406.2 593.2,426 593.8,288 								"/>
							</g>
							<g>
								<polygon class="st61" points="593.8,288 593.2,426 547.1,406.5 547.6,268.5 								"/>
							</g>
							<g>
								<polygon class="st36" points="640.3,268.2 593.8,288 547.6,268.5 594.2,248.6 								"/>
							</g>
						</g>
					</g>
					<g>
						<g class="st24">
							<g>
								<polygon class="st64" points="593.5,343.2 593.2,426 548.1,445.3 548.4,362.5 								"/>
							</g>
							<g>
								<polygon class="st66" points="548.4,362.5 548.1,445.3 502,425.7 502.3,342.9 								"/>
							</g>
							<g>
								<polygon class="st27" points="593.5,343.2 548.4,362.5 502.3,342.9 547.4,323.7 								"/>
							</g>
						</g>
					</g>
					<g>
						<g class="st24">
							<g>
								<polygon class="st74" points="686.4,315.3 685.9,425.7 639.4,445.5 639.8,335.1 								"/>
							</g>
							<g>
								<polygon class="st63" points="639.8,335.1 639.4,445.5 593.2,426 593.7,315.6 								"/>
							</g>
							<g>
								<polygon class="st33" points="686.4,315.3 639.8,335.1 593.7,315.6 640.2,295.7 								"/>
							</g>
						</g>
					</g>
					<g>
						<g class="st24">
							<g>
								<polygon class="st76" points="639.5,406.4 639.4,445.6 594.3,464.8 594.4,425.7 								"/>
							</g>
							<g>
								<polygon class="st75" points="594.4,425.7 594.3,464.8 548.1,445.3 548.2,406.1 								"/>
							</g>
							<g>
								<polygon class="st30" points="639.5,406.4 594.4,425.7 548.2,406.1 593.4,386.9 								"/>
							</g>
						</g>
					</g>
				</g>
				<g>
					<defs>
						<polygon id="SVGID_23_" points="593.5,343.2 548.4,362.5 502.3,342.9 547.4,323.7 						"/>
					</defs>
					<clipPath id="SVGID_24_">
						<use xlink:href="#SVGID_23_"  style="overflow:visible;"/>
					</clipPath>
					<g class="st78">
						<g>
							<g class="st2">
								<polygon points="604.8,338.3 558.3,358.2 512.1,338.6 558.7,318.8 								"/>
							</g>
							<g class="st3">
								<polygon points="605.9,337.9 559.3,357.7 513.2,338.2 559.7,318.3 								"/>
							</g>
							<g class="st4">
								<polygon points="606.9,337.4 560.4,357.3 514.2,337.7 560.8,317.9 								"/>
							</g>
							<g class="st5">
								<polygon points="608,337 561.4,356.9 515.3,337.3 561.8,317.4 								"/>
							</g>
							<g class="st6">
								<polygon points="609,336.5 562.5,356.4 516.3,336.9 562.9,317 								"/>
							</g>
							<g class="st7">
								<polygon points="610.1,336.1 563.5,356 517.4,336.4 563.9,316.5 								"/>
							</g>
							<g class="st8">
								<polygon points="611.1,335.7 564.6,355.5 518.4,336 565,316.1 								"/>
							</g>
							<g class="st9">
								<polygon points="612.2,335.2 565.6,355.1 519.5,335.5 566,315.7 								"/>
							</g>
							<g class="st10">
								<polygon points="613.2,334.8 566.7,354.6 520.5,335.1 567.1,315.2 								"/>
							</g>
							<g class="st11">
								<polygon points="614.3,334.3 567.7,354.2 521.6,334.6 568.1,314.8 								"/>
							</g>
							<g class="st12">
								<polygon points="615.3,333.9 568.8,353.8 522.6,334.2 569.2,314.3 								"/>
							</g>
							<g class="st13">
								<polygon points="616.4,333.5 569.8,353.3 523.7,333.8 570.2,313.9 								"/>
							</g>
							<g class="st14">
								<polygon points="617.4,333 570.9,352.9 524.7,333.3 571.3,313.5 								"/>
							</g>
							<g class="st15">
								<polygon points="618.5,332.6 571.9,352.4 525.8,332.9 572.3,313 								"/>
							</g>
							<g class="st16">
								<polygon points="619.5,332.1 573,352 526.8,332.4 573.4,312.6 								"/>
							</g>
							<g class="st17">
								<polygon points="620.6,331.7 574,351.5 527.9,332 574.4,312.1 								"/>
							</g>
							<g class="st18">
								<polygon points="621.6,331.2 575.1,351.1 528.9,331.6 575.5,311.7 								"/>
							</g>
							<g class="st19">
								<polygon points="622.7,330.8 576.1,350.7 530,331.1 576.5,311.2 								"/>
							</g>
							<g class="st20">
								<polygon points="623.7,330.4 577.2,350.2 531,330.7 577.6,310.8 								"/>
							</g>
							<g class="st21">
								<polygon points="624.8,329.9 578.2,349.8 532.1,330.2 578.6,310.4 								"/>
							</g>
							<g class="st22">
								<polygon points="625.8,329.5 579.2,349.3 533.1,329.8 579.7,309.9 								"/>
							</g>
							<polygon points="626.9,329 580.3,348.9 534.2,329.3 580.7,309.5 							"/>
						</g>
					</g>
				</g>
				<g>
					<defs>
						<polygon id="SVGID_25_" points="639.4,406.6 594.3,425.8 548.1,406.3 593.3,387 						"/>
					</defs>
					<clipPath id="SVGID_26_">
						<use xlink:href="#SVGID_25_"  style="overflow:visible;"/>
					</clipPath>
					<g class="st79">
						<g>
							<g class="st2">
								<polygon points="650.7,401.6 604.1,421.5 558,402 604.5,382.1 								"/>
							</g>
							<g class="st3">
								<polygon points="651.7,401.2 605.2,421.1 559,401.5 605.6,381.7 								"/>
							</g>
							<g class="st4">
								<polygon points="652.8,400.8 606.2,420.6 560.1,401.1 606.6,381.2 								"/>
							</g>
							<g class="st5">
								<polygon points="653.8,400.3 607.3,420.2 561.1,400.6 607.7,380.8 								"/>
							</g>
							<g class="st6">
								<polygon points="654.9,399.9 608.3,419.7 562.2,400.2 608.7,380.3 								"/>
							</g>
							<g class="st7">
								<polygon points="655.9,399.4 609.4,419.3 563.2,399.7 609.8,379.9 								"/>
							</g>
							<g class="st8">
								<polygon points="657,399 610.4,418.9 564.3,399.3 610.8,379.4 								"/>
							</g>
							<g class="st9">
								<polygon points="658,398.6 611.5,418.4 565.3,398.9 611.9,379 								"/>
							</g>
							<g class="st10">
								<polygon points="659.1,398.1 612.5,418 566.4,398.4 612.9,378.6 								"/>
							</g>
							<g class="st11">
								<polygon points="660.1,397.7 613.6,417.5 567.4,398 614,378.1 								"/>
							</g>
							<g class="st12">
								<polygon points="661.2,397.2 614.6,417.1 568.5,397.5 615,377.7 								"/>
							</g>
							<g class="st13">
								<polygon points="662.2,396.8 615.7,416.6 569.5,397.1 616.1,377.2 								"/>
							</g>
							<g class="st14">
								<polygon points="663.3,396.3 616.7,416.2 570.6,396.7 617.1,376.8 								"/>
							</g>
							<g class="st15">
								<polygon points="664.3,395.9 617.8,415.8 571.6,396.2 618.2,376.3 								"/>
							</g>
							<g class="st16">
								<polygon points="665.4,395.5 618.8,415.3 572.7,395.8 619.2,375.9 								"/>
							</g>
							<g class="st17">
								<polygon points="666.4,395 619.9,414.9 573.7,395.3 620.3,375.5 								"/>
							</g>
							<g class="st18">
								<polygon points="667.5,394.6 620.9,414.4 574.8,394.9 621.3,375 								"/>
							</g>
							<g class="st19">
								<polygon points="668.5,394.1 622,414 575.8,394.4 622.4,374.6 								"/>
							</g>
							<g class="st20">
								<polygon points="669.6,393.7 623,413.6 576.9,394 623.4,374.1 								"/>
							</g>
							<g class="st21">
								<polygon points="670.6,393.2 624,413.1 577.9,393.6 624.5,373.7 								"/>
							</g>
							<g class="st22">
								<polygon points="671.7,392.8 625.1,412.7 579,393.1 625.5,373.3 								"/>
							</g>
							<polygon points="672.7,392.4 626.1,412.2 580,392.7 626.6,372.8 							"/>
						</g>
					</g>
				</g>
			</g>
		</g>
		<g class="st23">
			<path class="st80" d="M590.7,408.4c1.1,0.5,3,0.5,4.1,0c1.1-0.5,1.1-1.3,0-1.7c-1.1-0.5-3-0.5-4.1,0S589.5,407.9,590.7,408.4z"/>
			<g>
				<g>
					<polygon class="st37" points="593.1,407.5 592.1,407.5 592.1,391.6 419.1,391.6 419.1,390.8 593.1,390.8 					"/>
				</g>
			</g>
			<g>
				<path class="st37" d="M415.9,391.2c0,1.3,1.4,2.3,3.2,2.3c1.7,0,3.2-1,3.2-2.3c0-1.3-1.4-2.3-3.2-2.3
					C417.3,388.9,415.9,389.9,415.9,391.2z"/>
			</g>
		</g>
		<g class="st23">
			<path class="st80" d="M637.6,318.2c1.1,0.5,3,0.5,4.1,0c1.1-0.5,1.1-1.3,0-1.7c-1.1-0.5-3-0.5-4.1,0
				C636.5,316.9,636.5,317.7,637.6,318.2z"/>
			<g>
				<g>
					<polygon class="st37" points="640.1,317.3 639,317.3 639,301.3 419.2,301.3 419.2,300.6 640.1,300.6 					"/>
				</g>
			</g>
			<g>
				<path class="st37" d="M416,301c0,1.3,1.4,2.3,3.2,2.3c1.7,0,3.2-1,3.2-2.3s-1.4-2.3-3.2-2.3C417.4,298.6,416,299.7,416,301z"/>
			</g>
		</g>
		<g class="st23">
			<path class="st80" d="M545.7,344.7c1.1,0.5,3,0.5,4.1,0c1.1-0.5,1.1-1.3,0-1.7c-1.1-0.5-3-0.5-4.1,0
				C544.5,343.5,544.5,344.2,545.7,344.7z"/>
			<g>
				<g>
					<g>
						<polygon class="st37" points="548.1,343.7 547.1,343.7 547.1,331.7 419.1,331.7 419.1,331 548.1,331 						"/>
					</g>
				</g>
				<g>
					<path class="st37" d="M415.9,331.3c0,1.3,1.4,2.3,3.2,2.3c1.7,0,3.2-1,3.2-2.3c0-1.3-1.4-2.3-3.2-2.3
						C417.3,329,415.9,330,415.9,331.3z"/>
				</g>
			</g>
		</g>
		<g class="st23">
			<path class="st80" d="M590.8,269.2c1.1,0.5,3,0.5,4.1,0c1.1-0.5,1.1-1.3,0-1.7c-1.1-0.5-3-0.5-4.1,0
				C589.6,267.9,589.6,268.7,590.8,269.2z"/>
			<g>
				<g>
					<polygon class="st37" points="593.2,268.3 592.2,268.3 592.2,252.4 419.2,252.4 419.2,251.6 593.2,251.6 					"/>
				</g>
			</g>
			<g>
				<path class="st37" d="M416,252c0,1.3,1.4,2.3,3.2,2.3c1.7,0,3.2-1,3.2-2.3c0-1.3-1.4-2.3-3.2-2.3C417.4,249.7,416,250.7,416,252
					z"/>
			</g>
		</g>
	</g>
	<g class="st0">
		<g class="st23">
			<g>
				<g class="st77">
					<g class="st2">
						<g>
							<path d="M167.2,378.2c47.1,20.8,47.3,54.6,0.6,75.4C121,474.4,45,474.4-2.1,453.6c-47.1-20.8-47.3-54.6-0.6-75.4
								C44.1,357.4,120.2,357.4,167.2,378.2z"/>
						</g>
					</g>
					<g class="st3">
						<g>
							<path d="M169.9,377.8c47.1,20.8,47.3,54.6,0.6,75.4C123.7,474,47.6,474,0.6,453.2c-47.1-20.8-47.3-54.6-0.6-75.4
								C46.8,357,122.8,357,169.9,377.8z"/>
						</g>
					</g>
					<g class="st4">
						<g>
							<path d="M172.5,377.4c47.1,20.8,47.3,54.6,0.6,75.4c-46.8,20.8-122.8,20.8-169.9,0c-47.1-20.8-47.3-54.6-0.6-75.4
								C49.4,356.6,125.5,356.6,172.5,377.4z"/>
						</g>
					</g>
					<g class="st5">
						<g>
							<path d="M175.2,377c47.1,20.8,47.3,54.6,0.6,75.4C129,473.2,53,473.2,5.9,452.4c-47.1-20.8-47.3-54.6-0.6-75.4
								C52.1,356.2,128.1,356.2,175.2,377z"/>
						</g>
					</g>
					<g class="st6">
						<g>
							<path d="M177.9,376.6c47.1,20.8,47.3,54.6,0.6,75.4c-46.8,20.8-122.8,20.8-169.9,0c-47.1-20.8-47.3-54.6-0.6-75.4
								C54.8,355.8,130.8,355.8,177.9,376.6z"/>
						</g>
					</g>
					<g class="st7">
						<g>
							<path d="M180.5,376.2c47.1,20.8,47.3,54.6,0.6,75.4c-46.8,20.8-122.8,20.8-169.9,0c-47.1-20.8-47.3-54.6-0.6-75.4
								C57.4,355.3,133.5,355.4,180.5,376.2z"/>
						</g>
					</g>
					<g class="st8">
						<g>
							<path d="M183.2,375.8c47.1,20.8,47.3,54.6,0.6,75.4C137,472,60.9,472,13.9,451.1c-47.1-20.8-47.3-54.6-0.6-75.4
								C60.1,354.9,136.1,354.9,183.2,375.8z"/>
						</g>
					</g>
					<g class="st9">
						<g>
							<path d="M185.8,375.3c47.1,20.8,47.3,54.6,0.6,75.4c-46.8,20.8-122.8,20.8-169.9,0c-47.1-20.8-47.3-54.6-0.6-75.4
								C62.7,354.5,138.8,354.5,185.8,375.3z"/>
						</g>
					</g>
					<g class="st10">
						<g>
							<path d="M188.5,374.9c47.1,20.8,47.3,54.6,0.6,75.4c-46.8,20.8-122.8,20.8-169.9,0c-47.1-20.8-47.3-54.6-0.6-75.4
								C65.4,354.1,141.4,354.1,188.5,374.9z"/>
						</g>
					</g>
					<g class="st11">
						<g>
							<path d="M191.2,374.5c47.1,20.8,47.3,54.6,0.6,75.4c-46.8,20.8-122.8,20.8-169.9,0c-47.1-20.8-47.3-54.6-0.6-75.4
								C68.1,353.7,144.1,353.7,191.2,374.5z"/>
						</g>
					</g>
					<g class="st12">
						<g>
							<path d="M193.8,374.1c47.1,20.8,47.3,54.6,0.6,75.4c-46.8,20.8-122.8,20.8-169.9,0c-47.1-20.8-47.3-54.6-0.6-75.4
								C70.7,353.3,146.8,353.3,193.8,374.1z"/>
						</g>
					</g>
					<g class="st13">
						<g>
							<path d="M196.5,373.7c47.1,20.8,47.3,54.6,0.6,75.4c-46.8,20.8-122.8,20.8-169.9,0c-47.1-20.8-47.3-54.6-0.6-75.4
								C73.4,352.9,149.4,352.9,196.5,373.7z"/>
						</g>
					</g>
					<g class="st14">
						<g>
							<path d="M199.1,373.3c47.1,20.8,47.3,54.6,0.6,75.4c-46.8,20.8-122.8,20.8-169.9,0c-47.1-20.8-47.3-54.6-0.6-75.4
								C76,352.5,152.1,352.5,199.1,373.3z"/>
						</g>
					</g>
					<g class="st15">
						<g>
							<path d="M201.8,372.9c47.1,20.8,47.3,54.6,0.6,75.4c-46.8,20.8-122.8,20.8-169.9,0c-47.1-20.8-47.3-54.6-0.6-75.4
								C78.7,352.1,154.7,352.1,201.8,372.9z"/>
						</g>
					</g>
					<g class="st16">
						<g>
							<path d="M204.4,372.5c47.1,20.8,47.3,54.6,0.6,75.4c-46.8,20.8-122.8,20.8-169.9,0c-47.1-20.8-47.3-54.6-0.6-75.4
								C81.4,351.7,157.4,351.7,204.4,372.5z"/>
						</g>
					</g>
					<g class="st17">
						<g>
							<path d="M207.1,372.1c47.1,20.8,47.3,54.6,0.6,75.4c-46.8,20.8-122.8,20.8-169.9,0c-47.1-20.8-47.3-54.6-0.6-75.4
								C84,351.3,160.1,351.3,207.1,372.1z"/>
						</g>
					</g>
					<g class="st18">
						<g>
							<path d="M209.8,371.7c47.1,20.8,47.3,54.6,0.6,75.4c-46.8,20.8-122.8,20.8-169.9,0c-47.1-20.8-47.3-54.6-0.6-75.4
								C86.7,350.9,162.7,350.9,209.8,371.7z"/>
						</g>
					</g>
					<g class="st19">
						<g>
							<path d="M212.4,371.3c47.1,20.8,47.3,54.6,0.6,75.4c-46.8,20.8-122.8,20.8-169.9,0c-47.1-20.8-47.3-54.6-0.6-75.4
								C89.3,350.4,165.4,350.4,212.4,371.3z"/>
						</g>
					</g>
					<g class="st20">
						<g>
							<path d="M215.1,370.9c47.1,20.8,47.3,54.6,0.6,75.4c-46.8,20.8-122.8,20.8-169.9,0c-47.1-20.8-47.3-54.6-0.6-75.4
								C92,350,168,350,215.1,370.9z"/>
						</g>
					</g>
					<g class="st21">
						<g>
							<path d="M217.7,370.4c47.1,20.8,47.3,54.6,0.6,75.4c-46.8,20.8-122.8,20.8-169.9,0C1.4,425,1.1,391.3,47.9,370.4
								C94.7,349.6,170.7,349.6,217.7,370.4z"/>
						</g>
					</g>
					<g class="st22">
						<g>
							<path d="M220.4,370c47.1,20.8,47.3,54.6,0.6,75.4c-46.8,20.8-122.8,20.8-169.9,0C4.1,424.6,3.8,390.9,50.6,370
								C97.3,349.2,173.4,349.2,220.4,370z"/>
						</g>
					</g>
					<g>
						<g>
							<path d="M223.1,369.6c47.1,20.8,47.3,54.6,0.6,75.4c-46.8,20.8-122.8,20.8-169.9,0c-47.1-20.8-47.3-54.6-0.6-75.4
								C100,348.8,176,348.8,223.1,369.6z"/>
						</g>
					</g>
				</g>
				<g>
					<g class="st24">
						<g class="st24">
							<defs>
								<path id="SVGID_27_" class="st24" d="M261.2,387.1l-0.1,21.6c-0.1,13.6-12.2,27.1-36.5,37.5c-48.9,20.9-128.4,20.9-177.7,0
									c-24.8-10.5-37.1-24.3-37.1-38l0.1-21.6c-0.1,13.8,12.3,27.5,37.1,38c49.2,20.9,128.8,20.9,177.7,0
									C248.9,414.3,261.1,400.7,261.2,387.1z"/>
							</defs>
							<clipPath id="SVGID_28_">
								<use xlink:href="#SVGID_27_"  style="overflow:visible;"/>
							</clipPath>
							<path class="st81" d="M261.1,388c-0.1,1.8-0.3,3.5-0.8,5.3c-0.5,1.7-1.2,3.5-2,5.2c-0.9,1.8-2,3.5-3.3,5.2
								c-1.4,1.9-3.1,3.7-5.1,5.5c-2.3,2.1-4.9,4.2-7.8,6.2c-4.5,3.1-9.8,6-15.9,8.6c-0.5,0.2-1,0.4-1.5,0.7
								c-8.4,3.6-17.7,6.5-27.5,8.9c-7.6,1.8-15.6,3.3-23.8,4.3c-5.3,0.7-10.6,1.2-16,1.6c-4.6,0.3-9.3,0.6-13.9,0.7
								c-4.3,0.1-8.6,0.1-12.9,0c-4.1-0.1-8.3-0.2-12.4-0.5c-4.1-0.2-8.2-0.6-12.2-1c-4.2-0.4-8.4-1-12.5-1.6
								c-4.4-0.7-8.8-1.5-13.1-2.4c-5.2-1.1-10.3-2.4-15.3-3.8c-6.4-1.8-12.5-4-18.1-6.4c-24.8-10.5-37.1-24.3-37.1-38l-0.1,21.6
								c-0.1,13.8,12.3,27.5,37.1,38c5.7,2.4,11.7,4.5,18.1,6.4c4.9,1.4,10,2.7,15.3,3.8c4.3,0.9,8.7,1.7,13.1,2.4
								c4.1,0.6,8.3,1.2,12.5,1.6c4,0.4,8.1,0.8,12.2,1c4.1,0.2,8.2,0.4,12.4,0.5c4.3,0.1,8.6,0.1,12.9,0c4.7-0.1,9.3-0.3,13.9-0.7
								c5.4-0.4,10.8-0.9,16-1.6c8.2-1.1,16.2-2.5,23.8-4.3c9.9-2.3,19.2-5.3,27.5-8.9c0.5-0.2,1-0.4,1.5-0.7
								c6.1-2.7,11.4-5.6,15.9-8.6c2.9-2,5.5-4,7.8-6.2c1.9-1.8,3.6-3.6,5.1-5.5c1.3-1.7,2.4-3.5,3.3-5.2c0.9-1.7,1.6-3.5,2-5.2
								c0.5-1.8,0.8-3.5,0.8-5.3c0-0.3,0-0.5,0-0.8l0.1-21.6C261.2,387.4,261.1,387.7,261.1,388z"/>
						</g>
						<g>
							
								<ellipse transform="matrix(1.687954e-03 -1 1 1.687954e-03 -251.5927 521.7553)" class="st27" cx="135.5" cy="386.9" rx="53.4" ry="125.6"/>
						</g>
					</g>
				</g>
			</g>
			<g>
				<g class="st77">
					<g class="st2">
						<g>
							<path d="M161.9,356.6c37.6,16.7,37.9,43.7,0.5,60.3c-37.4,16.7-98.2,16.7-135.9,0c-37.6-16.7-37.8-43.7-0.4-60.3
								C63.4,340,124.2,340,161.9,356.6z"/>
						</g>
					</g>
					<g class="st3">
						<g>
							<path d="M164,356.3c37.6,16.7,37.9,43.7,0.5,60.3c-37.4,16.7-98.2,16.7-135.9,0C-9.1,400-9.3,373,28.1,356.3
								C65.5,339.6,126.4,339.6,164,356.3z"/>
						</g>
					</g>
					<g class="st4">
						<g>
							<path d="M166.1,356c37.6,16.7,37.9,43.7,0.5,60.3c-37.4,16.7-98.2,16.7-135.9,0c-37.6-16.7-37.8-43.7-0.4-60.3
								C67.7,339.3,128.5,339.3,166.1,356z"/>
						</g>
					</g>
					<g class="st5">
						<g>
							<path d="M168.3,355.6c37.6,16.7,37.9,43.7,0.5,60.3c-37.4,16.7-98.2,16.7-135.9,0c-37.6-16.7-37.8-43.7-0.4-60.3
								C69.8,339,130.6,339,168.3,355.6z"/>
						</g>
					</g>
					<g class="st6">
						<g>
							<path d="M170.4,355.3c37.6,16.7,37.9,43.7,0.5,60.3c-37.4,16.7-98.2,16.7-135.9,0C-2.7,399-2.9,372,34.5,355.3
								C71.9,338.7,132.8,338.7,170.4,355.3z"/>
						</g>
					</g>
					<g class="st7">
						<g>
							<path d="M172.5,355c37.6,16.7,37.9,43.7,0.5,60.3c-37.4,16.7-98.2,16.7-135.9,0c-37.6-16.7-37.8-43.7-0.4-60.3
								C74,338.3,134.9,338.3,172.5,355z"/>
						</g>
					</g>
					<g class="st8">
						<g>
							<path d="M174.7,354.7c37.6,16.7,37.9,43.7,0.5,60.3c-37.4,16.7-98.2,16.7-135.9,0c-37.6-16.7-37.8-43.7-0.4-60.3
								C76.2,338,137,338,174.7,354.7z"/>
						</g>
					</g>
					<g class="st9">
						<g>
							<path d="M176.8,354.3c37.6,16.7,37.9,43.7,0.5,60.3c-37.4,16.7-98.2,16.7-135.9,0C3.7,398,3.5,371,40.9,354.3
								C78.3,337.7,139.1,337.7,176.8,354.3z"/>
						</g>
					</g>
					<g class="st10">
						<g>
							<path d="M178.9,354c37.6,16.7,37.9,43.7,0.5,60.3C142,431,81.1,431,43.5,414.3C5.8,397.7,5.6,370.7,43,354
								C80.4,337.4,141.3,337.4,178.9,354z"/>
						</g>
					</g>
					<g class="st11">
						<g>
							<path d="M181,353.7c37.6,16.7,37.9,43.7,0.5,60.3c-37.4,16.7-98.2,16.7-135.9,0C8,397.3,7.7,370.3,45.2,353.7
								C82.6,337,143.4,337,181,353.7z"/>
						</g>
					</g>
					<g class="st12">
						<g>
							<path d="M183.2,353.4c37.6,16.7,37.9,43.7,0.5,60.3c-37.4,16.7-98.2,16.7-135.9,0C10.1,397,9.9,370,47.3,353.4
								C84.7,336.7,145.5,336.7,183.2,353.4z"/>
						</g>
					</g>
					<g class="st13">
						<g>
							<path d="M185.3,353c37.6,16.7,37.9,43.7,0.5,60.3c-37.4,16.7-98.2,16.7-135.9,0C12.2,396.7,12,369.7,49.4,353
								C86.8,336.4,147.6,336.4,185.3,353z"/>
						</g>
					</g>
					<g class="st14">
						<g>
							<path d="M187.4,352.7c37.6,16.7,37.9,43.7,0.5,60.3c-37.4,16.7-98.2,16.7-135.9,0c-37.6-16.7-37.8-43.7-0.4-60.3
								C88.9,336,149.8,336.1,187.4,352.7z"/>
						</g>
					</g>
					<g class="st15">
						<g>
							<path d="M189.5,352.4c37.6,16.7,37.9,43.7,0.5,60.3c-37.4,16.7-98.2,16.7-135.9,0C16.5,396,16.3,369,53.7,352.4
								C91.1,335.7,151.9,335.7,189.5,352.4z"/>
						</g>
					</g>
					<g class="st16">
						<g>
							<path d="M191.7,352c37.6,16.7,37.9,43.7,0.5,60.3c-37.4,16.7-98.2,16.7-135.9,0c-37.6-16.7-37.8-43.7-0.4-60.3
								C93.2,335.4,154,335.4,191.7,352z"/>
						</g>
					</g>
					<g class="st17">
						<g>
							<path d="M193.8,351.7c37.6,16.7,37.9,43.7,0.5,60.3c-37.4,16.7-98.2,16.7-135.9,0c-37.6-16.7-37.8-43.7-0.4-60.3
								C95.3,335.1,156.2,335.1,193.8,351.7z"/>
						</g>
					</g>
					<g class="st18">
						<g>
							<path d="M195.9,351.4c37.6,16.7,37.9,43.7,0.5,60.3c-37.4,16.7-98.2,16.7-135.9,0C22.8,395,22.6,368,60,351.4
								C97.4,334.7,158.3,334.7,195.9,351.4z"/>
						</g>
					</g>
					<g class="st19">
						<g>
							<path d="M198.1,351.1c37.6,16.7,37.9,43.7,0.5,60.3c-37.4,16.7-98.2,16.7-135.9,0c-37.6-16.7-37.8-43.7-0.4-60.3
								C99.6,334.4,160.4,334.4,198.1,351.1z"/>
						</g>
					</g>
					<g class="st20">
						<g>
							<path d="M200.2,350.7c37.6,16.7,37.9,43.7,0.5,60.3c-37.4,16.7-98.2,16.7-135.9,0c-37.6-16.7-37.8-43.7-0.4-60.3
								C101.7,334.1,162.5,334.1,200.2,350.7z"/>
						</g>
					</g>
					<g class="st21">
						<g>
							<path d="M202.3,350.4c37.6,16.7,37.9,43.7,0.5,60.3c-37.4,16.7-98.2,16.7-135.9,0c-37.6-16.7-37.8-43.7-0.4-60.3
								C103.8,333.8,164.7,333.8,202.3,350.4z"/>
						</g>
					</g>
					<g class="st22">
						<g>
							<path d="M204.4,350.1c37.6,16.7,37.9,43.7,0.5,60.3c-37.4,16.7-98.2,16.7-135.9,0c-37.6-16.7-37.8-43.7-0.4-60.3
								C106,333.4,166.8,333.4,204.4,350.1z"/>
						</g>
					</g>
					<g>
						<g>
							<path d="M206.6,349.8c37.6,16.7,37.9,43.7,0.5,60.3c-37.4,16.7-98.2,16.7-135.9,0c-37.6-16.7-37.8-43.7-0.4-60.3
								C108.1,333.1,168.9,333.1,206.6,349.8z"/>
						</g>
					</g>
				</g>
				<g>
					<g class="st24">
						<g class="st24">
							<defs>
								<path id="SVGID_29_" class="st24" d="M237,363.8l-0.1,17.3c0,10.9-9.8,21.7-29.2,30c-39.1,16.7-102.8,16.7-142.1,0
									c-19.8-8.4-29.7-19.4-29.7-30.4l0.1-17.3c0,11,9.9,22,29.7,30.4c39.4,16.7,103,16.7,142.1,0
									C227.3,385.5,237,374.6,237,363.8z"/>
							</defs>
							<clipPath id="SVGID_30_">
								<use xlink:href="#SVGID_29_"  style="overflow:visible;"/>
							</clipPath>
							<path class="st82" d="M237,364.4c-0.1,1.4-0.3,2.8-0.7,4.2c-0.4,1.4-0.9,2.8-1.6,4.2c-0.7,1.4-1.6,2.8-2.7,4.2
								c-1.1,1.5-2.5,3-4,4.4c-1.8,1.7-3.9,3.3-6.2,4.9c-3.6,2.4-7.8,4.8-12.7,6.9c-0.4,0.2-0.8,0.4-1.2,0.5
								c-6.7,2.9-14.1,5.2-22,7.1c-6.1,1.5-12.5,2.6-19,3.5c-4.2,0.6-8.5,1-12.8,1.3c-3.7,0.3-7.4,0.5-11.1,0.5
								c-3.4,0.1-6.9,0.1-10.3,0c-3.3-0.1-6.6-0.2-9.9-0.4c-3.3-0.2-6.5-0.5-9.8-0.8c-3.4-0.3-6.7-0.8-10-1.3
								c-3.6-0.5-7.1-1.2-10.5-1.9c-4.2-0.9-8.3-1.9-12.2-3c-5.1-1.5-10-3.2-14.5-5.1C45.9,385.4,36,374.4,36,363.4L36,380.7
								c0,11,9.9,22,29.7,30.4c4.5,1.9,9.4,3.6,14.5,5.1c3.9,1.1,8,2.1,12.2,3c3.4,0.7,6.9,1.3,10.5,1.9c3.3,0.5,6.6,0.9,10,1.3
								c3.2,0.3,6.5,0.6,9.8,0.8c3.3,0.2,6.6,0.3,9.9,0.4c3.4,0.1,6.9,0.1,10.3,0c3.7-0.1,7.5-0.3,11.1-0.5
								c4.3-0.3,8.6-0.8,12.8-1.3c6.5-0.9,12.9-2,19-3.5c7.9-1.9,15.3-4.2,22-7.1c0.4-0.2,0.8-0.4,1.2-0.5c4.9-2.2,9.1-4.5,12.7-6.9
								c2.3-1.6,4.4-3.2,6.2-4.9c1.5-1.4,2.9-2.9,4-4.4c1.1-1.4,2-2.8,2.7-4.2c0.7-1.4,1.2-2.8,1.6-4.2c0.4-1.4,0.6-2.8,0.7-4.2
								c0-0.2,0-0.4,0-0.6l0.1-17.3C237,364,237,364.2,237,364.4z"/>
						</g>
						<g>
							
								<ellipse transform="matrix(1.688054e-03 -1 1 1.688054e-03 -227.2685 499.4835)" class="st30" cx="136.5" cy="363.6" rx="42.7" ry="100.5"/>
						</g>
					</g>
				</g>
			</g>
			<g>
				<g class="st77">
					<g class="st2">
						<g>
							<path d="M155.9,336.9c30.1,13.3,30.3,34.9,0.4,48.2s-78.6,13.3-108.7,0c-30.1-13.3-30.3-34.9-0.4-48.2
								C77.2,323.6,125.8,323.6,155.9,336.9z"/>
						</g>
					</g>
					<g class="st3">
						<g>
							<path d="M157.6,336.7c30.1,13.3,30.3,34.9,0.4,48.2s-78.6,13.3-108.7,0C19.2,371.6,19,350,48.9,336.7
								C78.9,323.3,127.5,323.3,157.6,336.7z"/>
						</g>
					</g>
					<g class="st4">
						<g>
							<path d="M159.3,336.4c30.1,13.3,30.3,34.9,0.4,48.2S81.1,398,51,384.6c-30.1-13.3-30.3-34.9-0.4-48.2
								C80.6,323.1,129.2,323.1,159.3,336.4z"/>
						</g>
					</g>
					<g class="st5">
						<g>
							<path d="M161,336.1c30.1,13.3,30.3,34.9,0.4,48.2c-29.9,13.3-78.6,13.3-108.7,0c-30.1-13.3-30.3-34.9-0.4-48.2
								C82.3,322.8,130.9,322.8,161,336.1z"/>
						</g>
					</g>
					<g class="st6">
						<g>
							<path d="M162.7,335.9c30.1,13.3,30.3,34.9,0.4,48.2c-29.9,13.3-78.6,13.3-108.7,0c-30.1-13.3-30.3-34.9-0.4-48.2
								C84,322.6,132.6,322.6,162.7,335.9z"/>
						</g>
					</g>
					<g class="st7">
						<g>
							<path d="M164.5,335.6c30.1,13.3,30.3,34.9,0.4,48.2c-29.9,13.3-78.6,13.3-108.7,0c-30.1-13.3-30.3-34.9-0.4-48.2
								C85.7,322.3,134.3,322.3,164.5,335.6z"/>
						</g>
					</g>
					<g class="st8">
						<g>
							<path d="M166.2,335.4c30.1,13.3,30.3,34.9,0.4,48.2c-29.9,13.3-78.6,13.3-108.7,0c-30.1-13.3-30.3-34.9-0.4-48.2
								C87.4,322,136,322,166.2,335.4z"/>
						</g>
					</g>
					<g class="st9">
						<g>
							<path d="M167.9,335.1c30.1,13.3,30.3,34.9,0.4,48.2c-29.9,13.3-78.6,13.3-108.7,0c-30.1-13.3-30.3-34.9-0.4-48.2
								C89.1,321.8,137.7,321.8,167.9,335.1z"/>
						</g>
					</g>
					<g class="st10">
						<g>
							<path d="M169.6,334.8c30.1,13.3,30.3,34.9,0.4,48.2c-29.9,13.3-78.6,13.3-108.7,0c-30.1-13.3-30.3-34.9-0.4-48.2
								C90.8,321.5,139.4,321.5,169.6,334.8z"/>
						</g>
					</g>
					<g class="st11">
						<g>
							<path d="M171.3,334.6c30.1,13.3,30.3,34.9,0.4,48.2c-29.9,13.3-78.6,13.3-108.7,0c-30.1-13.3-30.3-34.9-0.4-48.2
								C92.5,321.2,141.1,321.2,171.3,334.6z"/>
						</g>
					</g>
					<g class="st12">
						<g>
							<path d="M173,334.3c30.1,13.3,30.3,34.9,0.4,48.2c-29.9,13.3-78.6,13.3-108.7,0c-30.1-13.3-30.3-34.9-0.4-48.2
								C94.2,321,142.8,321,173,334.3z"/>
						</g>
					</g>
					<g class="st13">
						<g>
							<path d="M174.7,334c30.1,13.3,30.3,34.9,0.4,48.2c-29.9,13.3-78.6,13.3-108.7,0C36.2,369,36,347.4,66,334
								C95.9,320.7,144.6,320.7,174.7,334z"/>
						</g>
					</g>
					<g class="st14">
						<g>
							<path d="M176.4,333.8c30.1,13.3,30.3,34.9,0.4,48.2c-29.9,13.3-78.6,13.3-108.7,0c-30.1-13.3-30.3-34.9-0.4-48.2
								C97.6,320.5,146.3,320.5,176.4,333.8z"/>
						</g>
					</g>
					<g class="st15">
						<g>
							<path d="M178.1,333.5c30.1,13.3,30.3,34.9,0.4,48.2c-29.9,13.3-78.6,13.3-108.7,0c-30.1-13.3-30.3-34.9-0.4-48.2
								C99.3,320.2,148,320.2,178.1,333.5z"/>
						</g>
					</g>
					<g class="st16">
						<g>
							<path d="M179.8,333.3c30.1,13.3,30.3,34.9,0.4,48.2c-29.9,13.3-78.6,13.3-108.7,0c-30.1-13.3-30.3-34.9-0.4-48.2
								C101,319.9,149.7,319.9,179.8,333.3z"/>
						</g>
					</g>
					<g class="st17">
						<g>
							<path d="M181.5,333c30.1,13.3,30.3,34.9,0.4,48.2c-29.9,13.3-78.6,13.3-108.7,0C43,367.9,42.8,346.3,72.8,333
								C102.7,319.7,151.4,319.7,181.5,333z"/>
						</g>
					</g>
					<g class="st18">
						<g>
							<path d="M183.2,332.7c30.1,13.3,30.3,34.9,0.4,48.2c-29.9,13.3-78.6,13.3-108.7,0c-30.1-13.3-30.3-34.9-0.4-48.2
								C104.4,319.4,153.1,319.4,183.2,332.7z"/>
						</g>
					</g>
					<g class="st19">
						<g>
							<path d="M184.9,332.5c30.1,13.3,30.3,34.9,0.4,48.2c-29.9,13.3-78.6,13.3-108.7,0c-30.1-13.3-30.3-34.9-0.4-48.2
								C106.1,319.2,154.8,319.2,184.9,332.5z"/>
						</g>
					</g>
					<g class="st20">
						<g>
							<path d="M186.6,332.2c30.1,13.3,30.3,34.9,0.4,48.2c-29.9,13.3-78.6,13.3-108.7,0c-30.1-13.3-30.3-34.9-0.4-48.2
								C107.8,318.9,156.5,318.9,186.6,332.2z"/>
						</g>
					</g>
					<g class="st21">
						<g>
							<path d="M188.3,332c30.1,13.3,30.3,34.9,0.4,48.2c-29.9,13.3-78.6,13.3-108.7,0c-30.1-13.3-30.3-34.9-0.4-48.2
								C109.5,318.6,158.2,318.6,188.3,332z"/>
						</g>
					</g>
					<g class="st22">
						<g>
							<path d="M190,331.7c30.1,13.3,30.3,34.9,0.4,48.2c-29.9,13.3-78.6,13.3-108.7,0c-30.1-13.3-30.3-34.9-0.4-48.2
								C111.2,318.4,159.9,318.4,190,331.7z"/>
						</g>
					</g>
					<g>
						<g>
							<path d="M191.7,331.4c30.1,13.3,30.3,34.9,0.4,48.2c-29.9,13.3-78.6,13.3-108.7,0c-30.1-13.3-30.3-34.9-0.4-48.2
								C112.9,318.1,161.6,318.1,191.7,331.4z"/>
						</g>
					</g>
				</g>
				<g>
					<g class="st24">
						<g class="st24">
							<defs>
								<path id="SVGID_31_" class="st24" d="M216.1,342.6l-0.1,13.8c0,8.7-7.8,17.4-23.4,24c-31.3,13.4-82.2,13.4-113.7,0
									c-15.9-6.7-23.8-15.5-23.7-24.3l0.1-13.8c0,8.8,7.9,17.6,23.7,24.3c31.5,13.4,82.4,13.4,113.7,0
									C208.2,360,216,351.3,216.1,342.6z"/>
							</defs>
							<clipPath id="SVGID_32_">
								<use xlink:href="#SVGID_31_"  style="overflow:visible;"/>
							</clipPath>
							<path class="st83" d="M216.1,343.2c0,1.1-0.2,2.3-0.5,3.4c-0.3,1.1-0.7,2.2-1.3,3.3c-0.6,1.1-1.3,2.3-2.1,3.4
								c-0.9,1.2-2,2.4-3.2,3.5c-1.4,1.3-3.1,2.7-5,3.9c-2.9,2-6.3,3.8-10.2,5.5c-0.3,0.1-0.7,0.3-1,0.4c-5.4,2.3-11.3,4.2-17.6,5.7
								c-4.9,1.2-10,2.1-15.2,2.8c-3.4,0.4-6.8,0.8-10.3,1c-3,0.2-5.9,0.4-8.9,0.4c-2.7,0.1-5.5,0.1-8.2,0c-2.6,0-5.3-0.2-7.9-0.3
								c-2.6-0.2-5.2-0.4-7.8-0.6c-2.7-0.3-5.3-0.6-8-1c-2.8-0.4-5.6-0.9-8.4-1.5c-3.4-0.7-6.6-1.5-9.8-2.4c-4.1-1.2-8-2.5-11.6-4.1
								c-15.9-6.7-23.8-15.5-23.7-24.3l-0.1,13.8c0,8.8,7.9,17.6,23.7,24.3c3.6,1.5,7.5,2.9,11.6,4.1c3.1,0.9,6.4,1.7,9.8,2.4
								c2.7,0.6,5.5,1.1,8.4,1.5c2.6,0.4,5.3,0.7,8,1c2.6,0.3,5.2,0.5,7.8,0.6c2.6,0.2,5.3,0.3,7.9,0.3c2.7,0.1,5.5,0,8.2,0
								c3-0.1,6-0.2,8.9-0.4c3.5-0.3,6.9-0.6,10.3-1c5.2-0.7,10.3-1.6,15.2-2.8c6.3-1.5,12.3-3.4,17.6-5.7c0.3-0.1,0.7-0.3,1-0.4
								c3.9-1.7,7.3-3.6,10.2-5.5c1.9-1.3,3.5-2.6,5-3.9c1.2-1.2,2.3-2.3,3.2-3.5c0.9-1.1,1.6-2.2,2.1-3.4c0.6-1.1,1-2.2,1.3-3.3
								c0.3-1.1,0.5-2.3,0.5-3.4c0-0.2,0-0.3,0-0.5l0.1-13.8C216.1,342.8,216.1,343,216.1,343.2z"/>
						</g>
						<g>
							
								<ellipse transform="matrix(1.689079e-03 -1 1 1.689079e-03 -207.0491 477.5557)" class="st33" cx="135.7" cy="342.5" rx="34.2" ry="80.4"/>
						</g>
					</g>
				</g>
			</g>
			<g>
				<g class="st77">
					<g class="st2">
						<g>
							<path d="M149.5,318.1c24.1,10.7,24.2,27.9,0.3,38.6c-23.9,10.7-62.9,10.7-87,0c-24.1-10.7-24.2-27.9-0.3-38.6
								C86.5,307.5,125.4,307.5,149.5,318.1z"/>
						</g>
					</g>
					<g class="st3">
						<g>
							<path d="M150.9,317.9c24.1,10.7,24.2,27.9,0.3,38.6c-23.9,10.7-62.9,10.7-87,0c-24.1-10.7-24.2-27.9-0.3-38.6
								C87.9,307.3,126.8,307.3,150.9,317.9z"/>
						</g>
					</g>
					<g class="st4">
						<g>
							<path d="M152.2,317.7c24.1,10.7,24.2,27.9,0.3,38.6c-23.9,10.7-62.9,10.7-87,0c-24.1-10.7-24.2-27.9-0.3-38.6
								C89.2,307,128.2,307,152.2,317.7z"/>
						</g>
					</g>
					<g class="st5">
						<g>
							<path d="M153.6,317.5c24.1,10.7,24.2,27.9,0.3,38.6c-23.9,10.7-62.9,10.7-87,0c-24.1-10.7-24.2-27.9-0.3-38.6
								C90.6,306.8,129.5,306.8,153.6,317.5z"/>
						</g>
					</g>
					<g class="st6">
						<g>
							<path d="M155,317.3c24.1,10.7,24.2,27.9,0.3,38.6c-23.9,10.7-62.9,10.7-87,0c-24.1-10.7-24.2-27.9-0.3-38.6
								C91.9,306.6,130.9,306.6,155,317.3z"/>
						</g>
					</g>
					<g class="st7">
						<g>
							<path d="M156.3,317.1c24.1,10.7,24.2,27.9,0.3,38.6c-23.9,10.7-62.9,10.7-87,0c-24.1-10.7-24.2-27.9-0.3-38.6
								C93.3,306.4,132.2,306.4,156.3,317.1z"/>
						</g>
					</g>
					<g class="st8">
						<g>
							<path d="M157.7,316.9c24.1,10.7,24.2,27.9,0.3,38.6c-23.9,10.7-62.9,10.7-87,0c-24.1-10.7-24.2-27.9-0.3-38.6
								C94.7,306.2,133.6,306.2,157.7,316.9z"/>
						</g>
					</g>
					<g class="st9">
						<g>
							<path d="M159.1,316.7c24.1,10.7,24.2,27.9,0.3,38.6c-23.9,10.7-62.9,10.7-87,0c-24.1-10.7-24.2-27.9-0.3-38.6
								C96,306,135,306,159.1,316.7z"/>
						</g>
					</g>
					<g class="st10">
						<g>
							<path d="M160.4,316.4c24.1,10.7,24.2,27.9,0.3,38.6c-23.9,10.7-62.9,10.7-87,0c-24.1-10.7-24.2-27.9-0.3-38.6
								C97.4,305.8,136.3,305.8,160.4,316.4z"/>
						</g>
					</g>
					<g class="st11">
						<g>
							<path d="M161.8,316.2c24.1,10.7,24.2,27.9,0.3,38.6c-23.9,10.7-62.9,10.7-87,0c-24.1-10.7-24.2-27.9-0.3-38.6
								C98.8,305.6,137.7,305.6,161.8,316.2z"/>
						</g>
					</g>
					<g class="st12">
						<g>
							<path d="M163.1,316c24.1,10.7,24.2,27.9,0.3,38.6c-23.9,10.7-62.9,10.7-87,0C52.4,344,52.2,326.7,76.2,316
								C100.1,305.4,139,305.4,163.1,316z"/>
						</g>
					</g>
					<g class="st13">
						<g>
							<path d="M164.5,315.8c24.1,10.7,24.2,27.9,0.3,38.6c-23.9,10.7-62.9,10.7-87,0c-24.1-10.7-24.2-27.9-0.3-38.6
								C101.5,305.2,140.4,305.2,164.5,315.8z"/>
						</g>
					</g>
					<g class="st14">
						<g>
							<path d="M165.9,315.6c24.1,10.7,24.2,27.9,0.3,38.6c-23.9,10.7-62.9,10.7-87,0c-24.1-10.7-24.2-27.9-0.3-38.6
								C102.8,304.9,141.8,305,165.9,315.6z"/>
						</g>
					</g>
					<g class="st15">
						<g>
							<path d="M167.2,315.4c24.1,10.7,24.2,27.9,0.3,38.6c-23.9,10.7-62.9,10.7-87,0c-24.1-10.7-24.2-27.9-0.3-38.6
								C104.2,304.7,143.1,304.7,167.2,315.4z"/>
						</g>
					</g>
					<g class="st16">
						<g>
							<path d="M168.6,315.2c24.1,10.7,24.2,27.9,0.3,38.6c-23.9,10.7-62.9,10.7-87,0c-24.1-10.7-24.2-27.9-0.3-38.6
								C105.6,304.5,144.5,304.5,168.6,315.2z"/>
						</g>
					</g>
					<g class="st17">
						<g>
							<path d="M169.9,315c24.1,10.7,24.2,27.9,0.3,38.6c-23.9,10.7-62.9,10.7-87,0C59.2,342.9,59,325.6,83,315
								C106.9,304.3,145.9,304.3,169.9,315z"/>
						</g>
					</g>
					<g class="st18">
						<g>
							<path d="M171.3,314.8c24.1,10.7,24.2,27.9,0.3,38.6c-23.9,10.7-62.9,10.7-87,0c-24.1-10.7-24.2-27.9-0.3-38.6
								C108.3,304.1,147.2,304.1,171.3,314.8z"/>
						</g>
					</g>
					<g class="st19">
						<g>
							<path d="M172.7,314.6c24.1,10.7,24.2,27.9,0.3,38.6c-23.9,10.7-62.9,10.7-87,0c-24.1-10.7-24.2-27.9-0.3-38.6
								C109.6,303.9,148.6,303.9,172.7,314.6z"/>
						</g>
					</g>
					<g class="st20">
						<g>
							<path d="M174,314.4c24.1,10.7,24.2,27.9,0.3,38.6c-23.9,10.7-62.9,10.7-87,0c-24.1-10.7-24.2-27.9-0.3-38.6
								C111,303.7,149.9,303.7,174,314.4z"/>
						</g>
					</g>
					<g class="st21">
						<g>
							<path d="M175.4,314.1c24.1,10.7,24.2,27.9,0.3,38.6c-23.9,10.7-62.9,10.7-87,0c-24.1-10.7-24.2-27.9-0.3-38.6
								C112.4,303.5,151.3,303.5,175.4,314.1z"/>
						</g>
					</g>
					<g class="st22">
						<g>
							<path d="M176.8,313.9c24.1,10.7,24.2,27.9,0.3,38.6c-23.9,10.7-62.9,10.7-87,0c-24.1-10.7-24.2-27.9-0.3-38.6
								C113.7,303.3,152.7,303.3,176.8,313.9z"/>
						</g>
					</g>
					<g>
						<g>
							<path d="M178.1,313.7c24.1,10.7,24.2,27.9,0.3,38.6c-23.9,10.7-62.9,10.7-87,0c-24.1-10.7-24.2-27.9-0.3-38.6
								C115.1,303.1,154,303.1,178.1,313.7z"/>
						</g>
					</g>
				</g>
				<g>
					<g class="st24">
						<g class="st24">
							<defs>
								<path id="SVGID_33_" class="st24" d="M197.6,322.7l0,11.1c0,7-6.3,13.9-18.7,19.2c-25,10.7-65.8,10.7-91,0
									c-12.7-5.4-19-12.4-19-19.5l0-11.1c0,7,6.3,14.1,19,19.5c25.2,10.7,65.9,10.7,91,0C191.4,336.6,197.6,329.6,197.6,322.7z"/>
							</defs>
							<clipPath id="SVGID_34_">
								<use xlink:href="#SVGID_33_"  style="overflow:visible;"/>
							</clipPath>
							<path class="st84" d="M197.6,323.1c0,0.9-0.2,1.8-0.4,2.7c-0.2,0.9-0.6,1.8-1,2.7c-0.5,0.9-1,1.8-1.7,2.7
								c-0.7,1-1.6,1.9-2.6,2.8c-1.2,1.1-2.5,2.1-4,3.1c-2.3,1.6-5,3-8.1,4.4c-0.3,0.1-0.5,0.2-0.8,0.3c-4.3,1.8-9,3.3-14.1,4.6
								c-3.9,0.9-8,1.7-12.2,2.2c-2.7,0.4-5.4,0.6-8.2,0.8c-2.4,0.2-4.7,0.3-7.1,0.3c-2.2,0.1-4.4,0.1-6.6,0c-2.1,0-4.2-0.1-6.3-0.2
								c-2.1-0.1-4.2-0.3-6.3-0.5c-2.2-0.2-4.3-0.5-6.4-0.8c-2.3-0.3-4.5-0.7-6.7-1.2c-2.7-0.6-5.3-1.2-7.8-1.9
								c-3.3-0.9-6.4-2-9.3-3.3c-12.7-5.4-19-12.4-19-19.5l0,11.1c0,7,6.3,14.1,19,19.5c2.9,1.2,6,2.3,9.3,3.3
								c2.5,0.7,5.1,1.4,7.8,1.9c2.2,0.5,4.4,0.9,6.7,1.2c2.1,0.3,4.2,0.6,6.4,0.8c2.1,0.2,4.2,0.4,6.3,0.5c2.1,0.1,4.2,0.2,6.3,0.2
								c2.2,0,4.4,0,6.6,0c2.4-0.1,4.8-0.2,7.1-0.3c2.8-0.2,5.5-0.5,8.2-0.8c4.2-0.6,8.3-1.3,12.2-2.2c5.1-1.2,9.8-2.7,14.1-4.6
								c0.3-0.1,0.5-0.2,0.8-0.3c3.1-1.4,5.8-2.9,8.1-4.4c1.5-1,2.8-2.1,4-3.1c1-0.9,1.9-1.9,2.6-2.8c0.7-0.9,1.3-1.8,1.7-2.7
								c0.4-0.9,0.8-1.8,1-2.7c0.2-0.9,0.4-1.8,0.4-2.7c0-0.1,0-0.3,0-0.4l0-11.1C197.6,322.8,197.6,323,197.6,323.1z"/>
						</g>
						<g>
							
								<ellipse transform="matrix(1.688272e-03 -1 1 1.688272e-03 -189.4919 455.3103)" class="st36" cx="133.3" cy="322.6" rx="27.3" ry="64.3"/>
						</g>
					</g>
				</g>
			</g>
		</g>
		<g class="st23">
			<path class="st80" d="M132.3,322.7c-1.1,0.5-3,0.5-4.1,0c-1.1-0.5-1.1-1.3,0-1.7c1.1-0.5,3-0.5,4.1,0
				C133.4,321.5,133.4,322.3,132.3,322.7z"/>
			<g>
				<g>
					<polygon class="st37" points="130.8,321.9 129.8,321.9 129.8,305.2 303.9,305.2 303.9,305.9 130.8,305.9 					"/>
				</g>
			</g>
			<g>
				<ellipse class="st37" cx="303.9" cy="305.5" rx="3.2" ry="2.3"/>
			</g>
		</g>
		<g class="st23">
			<path class="st80" d="M235.5,413c-1.1,0.5-3,0.5-4.1,0c-1.1-0.5-1.1-1.3,0-1.7s3-0.5,4.1,0S236.7,412.5,235.5,413z"/>
			<g>
				<g>
					<polygon class="st37" points="234.1,412.1 233.1,412.1 233.1,395.4 303.9,395.4 303.9,396.2 234.1,396.2 					"/>
				</g>
			</g>
			<g>
				<path class="st37" d="M307,395.8c0,1.3-1.4,2.3-3.2,2.3c-1.7,0-3.2-1-3.2-2.3c0-1.3,1.4-2.3,3.2-2.3
					C305.6,393.5,307,394.5,307,395.8z"/>
			</g>
		</g>
		<g class="st23">
			<ellipse class="st80" cx="217.3" cy="376.9" rx="2.9" ry="1.2"/>
			<g>
				<g>
					<polygon class="st37" points="217.9,376.9 216.9,376.9 216.9,360.2 303.9,360.2 303.9,361 217.9,361 					"/>
				</g>
			</g>
			<g>
				<path class="st37" d="M307,360.6c0,1.3-1.4,2.3-3.2,2.3c-1.7,0-3.2-1-3.2-2.3c0-1.3,1.4-2.3,3.2-2.3
					C305.6,358.3,307,359.3,307,360.6z"/>
			</g>
		</g>
		<g class="st23">
			<path class="st80" d="M202.5,349.6c-1.1,0.5-3,0.5-4.1,0c-1.1-0.5-1.1-1.3,0-1.7c1.1-0.5,3-0.5,4.1,0
				C203.6,348.3,203.6,349.1,202.5,349.6z"/>
			<g>
				<g>
					<polygon class="st37" points="201,348.7 200,348.7 200,332 303.9,332 303.9,332.7 201,332.7 					"/>
				</g>
			</g>
			<g>
				<ellipse class="st37" cx="303.9" cy="332.4" rx="3.2" ry="2.3"/>
			</g>
		</g>
	</g>
</g>
</svg>
