<?xml version="1.0" encoding="utf-8"?>
<!-- Generator: Adobe Illustrator 22.1.0, SVG Export Plug-In . SVG Version: 6.00 Build 0)  -->
<svg version="1.1" id="Layer_1" xmlns="http://www.w3.org/2000/svg" xmlns:xlink="http://www.w3.org/1999/xlink" x="0px" y="0px"
	 viewBox="0 0 315.8 184.8" style="enable-background:new 0 0 315.8 184.8;" xml:space="preserve">
<style type="text/css">
	.st0{clip-path:url(#SVGID_2_);fill:#FFFFFF;}
	.st1{clip-path:url(#SVGID_4_);fill:#BD0034;}
	.st2{clip-path:url(#SVGID_6_);fill:#BD0034;}
	.st3{clip-path:url(#SVGID_8_);fill:#BD0034;}
	.st4{clip-path:url(#SVGID_10_);fill:#BD0034;}
	.st5{clip-path:url(#SVGID_12_);fill:#1A237B;}
	.st6{clip-path:url(#SVGID_14_);fill:#1A237B;}
	.st7{clip-path:url(#SVGID_16_);fill:#1A237B;}
	.st8{clip-path:url(#SVGID_18_);fill:#1A237B;}
	.st9{clip-path:url(#SVGID_20_);fill:#1A237B;}
	.st10{clip-path:url(#SVGID_22_);fill:#1A237B;}
	.st11{clip-path:url(#SVGID_24_);fill:#1A237B;}
	.st12{clip-path:url(#SVGID_26_);fill:#1A237B;}
	.st13{clip-path:url(#SVGID_28_);fill:#BD0034;}
</style>
<g id="UNITED_KINGDOM_2_">
	<g>
		<g>
			<g>
				<defs>
					<rect id="SVGID_1_" width="315.8" height="184.8"/>
				</defs>
				<clipPath id="SVGID_2_">
					<use xlink:href="#SVGID_1_"  style="overflow:visible;"/>
				</clipPath>
				<rect class="st0" width="315.8" height="184.8"/>
			</g>
			<g>
				<defs>
					<rect id="SVGID_3_" width="315.8" height="184.8"/>
				</defs>
				<clipPath id="SVGID_4_">
					<use xlink:href="#SVGID_3_"  style="overflow:visible;"/>
				</clipPath>
				<polygon class="st1" points="211.4,66.8 315.8,8.3 315.8,0 308.6,0 189.6,66.8 				"/>
			</g>
			<g>
				<defs>
					<rect id="SVGID_5_" width="315.8" height="184.8"/>
				</defs>
				<clipPath id="SVGID_6_">
					<use xlink:href="#SVGID_5_"  style="overflow:visible;"/>
				</clipPath>
				<polygon class="st2" points="206.5,121.7 315.8,183 315.8,170.8 228.3,121.7 				"/>
			</g>
			<g>
				<defs>
					<rect id="SVGID_7_" width="315.8" height="184.8"/>
				</defs>
				<clipPath id="SVGID_8_">
					<use xlink:href="#SVGID_7_"  style="overflow:visible;"/>
				</clipPath>
				<polygon class="st3" points="0,14.1 93.5,66.8 115.3,66.8 0,1.8 				"/>
			</g>
			<g>
				<defs>
					<rect id="SVGID_9_" width="315.8" height="184.8"/>
				</defs>
				<clipPath id="SVGID_10_">
					<use xlink:href="#SVGID_9_"  style="overflow:visible;"/>
				</clipPath>
				<polygon class="st4" points="110.3,121.7 0,183.7 0,184.8 19.9,184.8 132.2,121.7 				"/>
			</g>
			<g>
				<defs>
					<rect id="SVGID_11_" width="315.8" height="184.8"/>
				</defs>
				<clipPath id="SVGID_12_">
					<use xlink:href="#SVGID_11_"  style="overflow:visible;"/>
				</clipPath>
				<polygon class="st5" points="294.2,0 183.6,0 183.6,62.2 				"/>
			</g>
			<g>
				<defs>
					<rect id="SVGID_13_" width="315.8" height="184.8"/>
				</defs>
				<clipPath id="SVGID_14_">
					<use xlink:href="#SVGID_13_"  style="overflow:visible;"/>
				</clipPath>
				<polygon class="st6" points="134.8,0 24.6,0 134.8,62.2 				"/>
			</g>
			<g>
				<defs>
					<rect id="SVGID_15_" width="315.8" height="184.8"/>
				</defs>
				<clipPath id="SVGID_16_">
					<use xlink:href="#SVGID_15_"  style="overflow:visible;"/>
				</clipPath>
				<polygon class="st7" points="315.8,66.8 315.8,24.5 240.8,66.8 				"/>
			</g>
			<g>
				<defs>
					<rect id="SVGID_17_" width="315.8" height="184.8"/>
				</defs>
				<clipPath id="SVGID_18_">
					<use xlink:href="#SVGID_17_"  style="overflow:visible;"/>
				</clipPath>
				<polygon class="st8" points="315.8,163.6 315.8,121.7 240.8,121.7 				"/>
			</g>
			<g>
				<defs>
					<rect id="SVGID_19_" width="315.8" height="184.8"/>
				</defs>
				<clipPath id="SVGID_20_">
					<use xlink:href="#SVGID_19_"  style="overflow:visible;"/>
				</clipPath>
				<polygon class="st9" points="30.9,184.8 134.8,184.8 134.8,126.4 				"/>
			</g>
			<g>
				<defs>
					<rect id="SVGID_21_" width="315.8" height="184.8"/>
				</defs>
				<clipPath id="SVGID_22_">
					<use xlink:href="#SVGID_21_"  style="overflow:visible;"/>
				</clipPath>
				<polygon class="st10" points="183.6,184.8 287.8,184.8 183.6,126.4 				"/>
			</g>
			<g>
				<defs>
					<rect id="SVGID_23_" width="315.8" height="184.8"/>
				</defs>
				<clipPath id="SVGID_24_">
					<use xlink:href="#SVGID_23_"  style="overflow:visible;"/>
				</clipPath>
				<polygon class="st11" points="0,121.7 0,165.5 77.6,121.7 				"/>
			</g>
			<g>
				<defs>
					<rect id="SVGID_25_" width="315.8" height="184.8"/>
				</defs>
				<clipPath id="SVGID_26_">
					<use xlink:href="#SVGID_25_"  style="overflow:visible;"/>
				</clipPath>
				<polygon class="st12" points="0,66.8 77.6,66.8 0,23 				"/>
			</g>
			<g>
				<defs>
					<rect id="SVGID_27_" width="315.8" height="184.8"/>
				</defs>
				<clipPath id="SVGID_28_">
					<use xlink:href="#SVGID_27_"  style="overflow:visible;"/>
				</clipPath>
				<polygon class="st13" points="144.5,0 144.5,77.8 0,77.8 0,110.8 144.5,110.8 144.5,184.8 173.8,184.8 173.8,110.8 315.8,110.8 
					315.8,77.8 173.8,77.8 173.8,0 				"/>
			</g>
		</g>
	</g>
</g>
</svg>
