<?xml version="1.0" encoding="utf-8"?>
<!-- Generator: Adobe Illustrator 22.1.0, SVG Export Plug-In . SVG Version: 6.00 Build 0)  -->
<svg version="1.1" id="Layer_2" xmlns="http://www.w3.org/2000/svg" xmlns:xlink="http://www.w3.org/1999/xlink" x="0px" y="0px"
	 viewBox="0 0 250 250"  pointer-events="none" style="enable-background:new 0 0 250 250;" xml:space="preserve">

<g id="Layer_1_1_">
	<g class="st0">
		<path cursor="pointer" pointer-events="visible" class="st1" d="M126.6,1.6L250,63.3v123.6l-123.4,61.8L3.2,186.9V63.3L126.6,1.6 M126.6,0.1L1.8,62.6v124.9L126.6,250
			l124.8-62.5V62.6L126.6,0.1L126.6,0.1z"/>
	</g>
	<polygon cursor="pointer" pointer-events="visible" class="st2" points="125.2,125 0.4,187.5 126.3,250.6 250,187.5 	"/>
	<path cursor="pointer" pointer-events="visible" class="st3" d="M97.9,157.2c0-2.7-5.7-4.9-9.5-4"/>
	<path cursor="pointer" pointer-events="visible" class="st3" d="M127.2,220c0-1.9-4-3.5-6.8-2.9c-1.8,0.4-2.8,1.8-2.6,3c0.3,1.4,2.4,2.8,5.1,2.6
		C125.4,222.6,127.2,221.2,127.2,220z"/>
	<path cursor="pointer" pointer-events="visible" class="st3" d="M148.9,209.6c1.7-0.1,3-1.1,3-1.9c0-1.3-2.9-2.5-4.8-2"/>
	<path cursor="pointer" pointer-events="visible" class="st3" d="M148.6,216.7c0-3.3-7-6-11.7-4.9c-3.2,0.7-4.9,3.1-4.4,5.1c0.5,2.4,4.2,4.8,8.9,4.6
		C145.6,221.3,148.6,218.9,148.6,216.7z"/>
	<g>
		<path cursor="pointer" pointer-events="visible" class="st3" d="M133.6,153.7c0-5.8-12.3-10.6-20.6-8.7c-5.6,1.3-8.6,5.4-7.8,9c1,4.2,7.5,8.5,15.6,8
			C128.3,161.7,133.6,157.5,133.6,153.7z"/>
	</g>
	<path cursor="pointer" pointer-events="visible" class="st3" d="M194.6,176.4c0-2.8-6-5.2-10.1-4.3c-2.7,0.6-4.2,2.7-3.8,4.4"/>
	<path cursor="pointer" pointer-events="visible" class="st3" d="M191.4,165.9c0-1-2.1-1.8-3.5-1.5c-1,0.2-1.5,0.9-1.3,1.5"/>
	<path cursor="pointer" pointer-events="visible" class="st3" d="M203.9,177c0-1-2.1-1.8-3.5-1.5c-1,0.2-1.5,0.9-1.3,1.5"/>
	<path cursor="pointer" pointer-events="visible" class="st3" d="M48.2,190.6c0.5,2.1,3.6,4.1,7.6,3.9c3.7-0.2,6.3-2.2,6.3-4.1"/>
	<path cursor="pointer" pointer-events="visible" class="st3" d="M62.1,190.4c0-2.8-6-5.2-10.1-4.3"/>
	<path cursor="pointer" pointer-events="visible" class="st3" d="M72.5,186.8c0.2,1,1.7,1.9,3.6,1.8c1.7-0.1,2.9-1,2.9-1.9"/>
	<path cursor="pointer" pointer-events="visible" class="st3" d="M37,185.5c1.7-0.1,2.9-1,2.9-1.9c0-1.3-2.8-2.4-4.7-2"/>
	<path cursor="pointer" pointer-events="visible" class="st4" d="M138.4,212.6c-1,0.2-1.5,1-1.4,1.6c0.2,0.7,1.3,1.5,2.7,1.4c1.3-0.1,2.2-0.8,2.3-1.5"/>
	<path cursor="pointer" pointer-events="visible" class="st4" d="M113.9,148.3c0.2,0.7,1.3,1.5,2.7,1.4c1.3-0.1,2.2-0.8,2.3-1.5"/>
	<g class="st0">
		<path cursor="pointer" pointer-events="visible" class="st1" d="M250.7-61.2L374.1,0.5v123.6l-123.4,61.8l-123.4-61.8V0.5L250.7-61.2 M250.7-62.7L125.9-0.2v124.9l124.8,62.5
			l124.8-62.5V-0.2L250.7-62.7L250.7-62.7z"/>
	</g>
</g>
<g id="Layer_2_1_">
	<path cursor="pointer" pointer-events="visible" class="st5" d="M-16,183c0.1,0.1,0.2,0.1,0.2,0.1l0,0L-16,183z M126.3,242.7c31,44.7-134.2-47-125-61.3
		c64.6,20.1,49.6-33.7,83.1,22.2c15.4,25.7,16.4,27,29.8,33.9L126.3,242.7z"/>
</g>
</svg>
