<?xml version="1.0" encoding="utf-8"?>
<!-- Generator: Adobe Illustrator 22.1.0, SVG Export Plug-In . SVG Version: 6.00 Build 0)  -->
<svg version="1.1" id="Layer_1" xmlns="http://www.w3.org/2000/svg" xmlns:xlink="http://www.w3.org/1999/xlink" x="0px" y="0px"
	 viewBox="0 0 250 250" pointer-events="none"  style="enable-background:new 0 0 250 250;" xml:space="preserve">

<g class="st0">
	<path cursor="pointer" pointer-events="visible" class="st1" d="M126.6,1.6L250,63.3v123.6l-123.4,61.8L3.2,186.9V63.3L126.6,1.6 M126.6,0.1L1.8,62.6v124.9L126.6,250
		l124.8-62.5V62.6L126.6,0.1L126.6,0.1z"/>
</g>
<polygon cursor="pointer" pointer-events="visible" class="st2" points="125.2,125 0.4,187.5 126.3,250.6 250,187.5 "/>
<path cursor="pointer" pointer-events="visible" class="st3" d="M97.9,157.2c0-2.7-5.7-4.9-9.5-4"/>
<path cursor="pointer" pointer-events="visible" class="st3" d="M127.2,220c0-1.9-4-3.5-6.8-2.9c-1.8,0.4-2.8,1.8-2.6,3c0.3,1.4,2.4,2.8,5.1,2.6
	C125.4,222.6,127.2,221.2,127.2,220z"/>
<path cursor="pointer" pointer-events="visible" class="st3" d="M148.9,209.6c1.7-0.1,3-1.1,3-1.9c0-1.3-2.9-2.5-4.8-2"/>
<path cursor="pointer" pointer-events="visible" class="st3" d="M148.6,216.7c0-3.3-7-6-11.7-4.9c-3.2,0.7-4.9,3.1-4.4,5.1c0.5,2.4,4.2,4.8,8.9,4.6
	C145.6,221.3,148.6,218.9,148.6,216.7z"/>
<g>
	<path cursor="pointer" pointer-events="visible" class="st3" d="M133.6,153.7c0-5.8-12.3-10.6-20.6-8.7c-5.6,1.3-8.6,5.4-7.8,9c1,4.2,7.5,8.5,15.6,8
		C128.3,161.7,133.6,157.5,133.6,153.7z"/>
</g>
<path cursor="pointer" pointer-events="visible" class="st3" d="M194.6,176.4c0-2.8-6-5.2-10.1-4.3c-2.7,0.6-4.2,2.7-3.8,4.4"/>
<path cursor="pointer" pointer-events="visible" class="st3" d="M191.4,165.9c0-1-2.1-1.8-3.5-1.5c-1,0.2-1.5,0.9-1.3,1.5"/>
<path cursor="pointer" pointer-events="visible" class="st3" d="M203.9,177c0-1-2.1-1.8-3.5-1.5c-1,0.2-1.5,0.9-1.3,1.5"/>
<path cursor="pointer" pointer-events="visible" class="st3" d="M48.2,190.6c0.5,2.1,3.6,4.1,7.6,3.9c3.7-0.2,6.3-2.2,6.3-4.1"/>
<path cursor="pointer" pointer-events="visible" class="st3" d="M62.1,190.4c0-2.8-6-5.2-10.1-4.3"/>
<path cursor="pointer" pointer-events="visible" class="st3" d="M72.5,186.8c0.2,1,1.7,1.9,3.6,1.8c1.7-0.1,2.9-1,2.9-1.9"/>
<path cursor="pointer" pointer-events="visible" class="st3" d="M37,185.5c1.7-0.1,2.9-1,2.9-1.9c0-1.3-2.8-2.4-4.7-2"/>
<path cursor="pointer" pointer-events="visible" class="st4" d="M138.4,212.6c-1,0.2-1.5,1-1.4,1.6c0.2,0.7,1.3,1.5,2.7,1.4c1.3-0.1,2.2-0.8,2.3-1.5"/>
<path cursor="pointer" pointer-events="visible" class="st4" d="M113.9,148.3c0.2,0.7,1.3,1.5,2.7,1.4c1.3-0.1,2.2-0.8,2.3-1.5"/>
<path cursor="pointer" pointer-events="visible" class="st2" d="M2.5,181.3c-0.3-0.3,0.1-1.1,0.3-1.1c0.5,0-0.7,5.6,1.4,6.9c1.3,0.8,4,0.2,5-1.9c0.9-2.1-0.3-4.4-1.8-5
	C5.6,179.4,3.1,181.9,2.5,181.3z"/>
<path cursor="pointer" pointer-events="visible" class="st2" d="M12.2,183c-1.2-1.2-2.3-3.5-1.4-5c1-1.7,3.9-1.4,4.3-1.4c3.1,0,4.1,2.3,5.5,1.8c1.6-0.7,0.7-3.8,2.9-6
	c1.2-1.1,2.6-1.4,3.9-1.6c3.8-0.7,5,1.2,8.2,0.6c2.3-0.4,3.8-1.7,5.5-3.2c3-2.6,2.6-4.1,4.5-6c4.1-3.9,8.8,0,14.5-3.4
	c4.7-2.8,3-6.2,7.4-8.4c5.5-2.7,10.2,1.7,14.2-1.4c2.5-2,1.2-4.2,4-6.8c3.1-2.8,5.5-1.1,9.8-3.2c6.5-3.1,5.8-9,10.6-10
	c4.6-0.9,8.6,3.7,10.1,2.3c1.1-1.1-1.2-3.6,0.2-6.3c1.2-2.4,4.7-3.3,6.8-3.4c2-0.1,2,0.6,5.2,0.8c3.2,0.2,4-0.5,5.5,0.2
	c1.8,0.8,1.7,2.4,3.4,4.5c1.1,1.4,2.2,2.1,9.8,5.6c4.8,2.2,7.2,3.3,7.6,3.4c6.3,1.1,9.1-2.6,13-0.5c1.2,0.7,0.6,0.8,4.3,4.5
	c2.8,2.7,4.2,4.1,5.6,4.7c3.6,1.4,5.9-0.3,7.4,1.4c1.3,1.5,0,3.2,1.3,4.5c1.9,2,6-1,8.9,1c2,1.4,0.7,3.4,2.6,5.5
	c3.2,3.4,8.8-0.3,13.4,3.4c1.6,1.3,1,1.8,3.2,3.7c1.9,1.6,3.6,2.5,6.9,4c3.6,1.7,4.2,1.6,5.8,2.9c2.2,1.8,1.7,2.5,3.2,3.4
	c3.5,2,6.9-1.2,9.3,0.8c1.6,1.3,0.6,3.1,2.6,4.5c1.2,0.9,1.9,0.4,4.3,1.4c1.5,0.7,3.3,1.4,3.6,2.7c0.3,1.8-2.3,3.6-2.5,3.7
	c-5,3.4-17.5-5.9-26.7-12.1c0,0-18.7-12.5-43.3-23c-22.4-9.6-24.7-6.2-35.3-13.8c-3.2-2.3-8.2-6.4-15.5-6.6c-2.3-0.1-4.5,0.3-14,4.2
	c-11.7,4.8-20.2,9-20.9,9.3c-7.6,3.8-6.7,3.6-16.9,8.9c-14,7.2-16.7,8.1-25.6,13.2c-5.2,3-7.8,4.5-11.1,6.6
	c-8.5,5.5-14.9,10.6-21.4,10.3C14.2,184.7,12.9,183.7,12.2,183z"/>
</svg>
