<?xml version="1.0" encoding="utf-8"?>
<!-- Generator: Adobe Illustrator 22.1.0, SVG Export Plug-In . SVG Version: 6.00 Build 0)  -->
<svg version="1.1" xmlns="http://www.w3.org/2000/svg" xmlns:xlink="http://www.w3.org/1999/xlink" x="0px" y="0px"
	 viewBox="0 0 250 250" pointer-events="none" style="enable-background:new 0 0 250 250;" xml:space="preserve">

<g id="Layer_1">
	<polygon class="st0" cursor="pointer" pointer-events="visible" points="250,187.5 126.6,250 0.4,187.5 125.2,125 	"/>
	<g>
		<g class="st1">
			<polygon class="st2" cursor="pointer" pointer-events="visible" points="105.4,147.2 124,156.6 105.4,165.9 86.8,156.5 			"/>
			<polygon class="st2" cursor="pointer" pointer-events="visible" points="61,176.1 72.1,181.6 60.9,187.3 49.8,181.6 			"/>
			<polygon class="st2" cursor="pointer" pointer-events="visible" points="145.9,156.4 157,162 145.9,167.5 134.8,162 			"/>
			<polygon class="st2" cursor="pointer" pointer-events="visible" points="212.8,180.2 224.1,185.7 212.8,191.3 201.7,185.7 			"/>
			<polygon class="st2" cursor="pointer" pointer-events="visible" points="130.8,226.3 141.8,231.9 130.6,237.4 119.5,231.9 			"/>
			<polygon class="st3" cursor="pointer" pointer-events="visible" points="127.7,196.9 135.9,201 127.7,205 119.5,201 			"/>
		</g>
	</g>
	<g class="st4">
		<path class="st5" cursor="pointer" pointer-events="visible" d="M126.6,1.6L250,63.3v123.6l-123.4,61.8L3.2,186.9V63.3L126.6,1.6 M126.6,0.1L1.8,62.6v124.9L126.6,250
			l124.8-62.5V62.6L126.6,0.1L126.6,0.1z"/>
	</g>
	<path class="st0" cursor="pointer" pointer-events="visible" d="M9,164.5"/>
	<path class="st0" cursor="pointer" pointer-events="visible" d="M8,184.7c-6.2-3.6-4.5-16.9-1.9-17.5c3-0.7,11.1,14.5,7.9,17.9C12.6,186.3,9.7,185.6,8,184.7z"/>
	<path class="st0" cursor="pointer" pointer-events="visible" d="M21,179.3c-5.8-2.9-3.1-18.9-1-19.2c2.2-0.2,5.5,16.1,6.1,15.9c0.6-0.1-3.6-12.7-1.3-13.8
		c1.9-0.9,9.2,4.9,7.9,10.8c-0.7,3.1-3.6,5.3-6.1,6.1C25.8,179.5,23.1,180.4,21,179.3z"/>
	<path class="st0" cursor="pointer" pointer-events="visible" d="M40,169.4c-3.9-2.5-1-12.8,0.6-12.9c1.7-0.1,3.7,10.3,4.5,10.1c0.6-0.1-1.2-6.1,0.6-7.1
		c1.5-0.8,5.2,1.5,5.3,3.9C51.3,166.9,43.5,171.6,40,169.4z"/>
	<path class="st0" cursor="pointer" pointer-events="visible" d="M57.1,161c-2.9-1.6-4.5-5.7-3.5-6.8c0.6-0.7,2.3,0.2,2.7-0.5c0.9-1.3-3.6-6.1-3.5-6.1c0.1-0.1,4.1,5.4,6,4.7
		c1.2-0.5,0.7-3.1,1.9-3.5c1.3-0.4,2.5,2.2,4,1.9c1.7-0.3,1.6-3.8,3.2-4c1.3-0.2,2.7,2,2.9,2.4c1,1.7,1.2,3.6,1,5
		C70.8,159.3,62,163.7,57.1,161z"/>
	<path class="st0" cursor="pointer" pointer-events="visible" d="M75.3,144.6c-1,0.3-1.8,4.9,0.2,6.6c3,2.6,13.3-1.3,13.5-6.1c0.1-2.8-3.3-5-3.5-5.2c-3-1.9-6.9-1.6-7.1-0.8
		c-0.3,1,6.4,3.6,6.1,4.2c-0.2,0.5-3.8-1.2-5.3,0.3c-1,1-0.4,2.7-1.1,2.9C77.1,146.8,76.1,144.4,75.3,144.6z"/>
	<path class="st0" cursor="pointer" pointer-events="visible" d="M93.3,143.1c-2.8-0.3-5-9.3-3.5-10.1c1.4-0.8,7.4,4.5,6.1,8C95.5,142.1,94.4,143.2,93.3,143.1z"/>
	<path class="st0" cursor="pointer" pointer-events="visible" d="M99.9,138.9c-3.9-1-4.9-11-3.1-11.9c1.9-0.9,8.8,6.3,7.1,10C103.3,138.4,101.4,139.3,99.9,138.9z"/>
	<path class="st0" cursor="pointer" pointer-events="visible" d="M109.1,134.1c-3.1-2.8-3.7-7.7-2.7-8.2c1.4-0.8,6.8,6.6,7.7,6c0.7-0.5-2.7-5.4-1.1-7.1c0.9-1,2.6,0,3.7-1.1
		c1.5-1.5,0.1-4.8,0.6-5c0.5-0.2,1.5,3.4,2.9,3.4c1.7,0,2.3-5.4,4.2-5.5c1.1,0,2,1.7,2.3,2.1c1.2,2.1,0.5,4.2,1,4.3
		c0.7,0.2,1.9-4,2.6-3.9c0.5,0.1,0.4,2.6,0,4.7c-0.1,0.4-0.3,1.2-1.3,4.2c-0.7,1.9-1.1,3.1-1.3,3.5
		C125.7,135.7,114.5,139,109.1,134.1z"/>
	<path class="st0" cursor="pointer" pointer-events="visible" d="M130.2,130.2c2.8-5.6,8.1-10.5,9.7-9.5c0.7,0.4,0.5,1.9,0.3,2.7c-0.8,5.2-6,8.5-5.8,8.7
		c0.2,0.2,6.8-5.8,8.4-4.7c0.9,0.6-0.1,3.3-0.6,4.5c-0.2,0.5-1.1,2.2-2.9,3.4c-3.4,2.2-8.9,1.5-10-1
		C129,134.1,128.7,133.1,130.2,130.2z"/>
	<path class="st0" cursor="pointer" pointer-events="visible" d="M144.3,136.8c1.8-4.2,4.6-6.5,5.3-7.1c3.3-2.7,7.6-4.1,8-3.4c0.8,1.2-10.8,6.9-9.8,12.2c0.6,3.2,5.7,5.8,9,4.8
		c1.2-0.4,2.4-1.7,4.7-4.3c3.1-3.6,3.3-4.8,5.5-6.1c2.3-1.4,5-1.9,5.3-1.3c0.6,1-5.1,4.9-4.5,5.8c0.5,0.9,5.8-1.6,6.1-1
		c0.4,0.7-5.8,4.4-5.3,5.3c0.4,0.9,6.6-2,7.6-0.5c0.5,0.8-0.8,2.6-1.8,3.9c-3,4-5.9,5-5.6,5.6c0.4,1,8.1,1.2,14.5-3.2
		c4.5-3.1,6.6-7.4,8-6.8c0.9,0.4,0.9,2.4,0.6,3.7c-0.6,3-3.3,4.6-3.1,5c0.4,0.5,4.8-2.3,5.2-1.8c0.3,0.4-2.2,2.1-4.2,5.5
		c-0.9,1.4-2.7,4.4-1.8,5.5c0.9,1.1,4.3-0.3,10.8-3.1c4.5-1.9,7.3-3.3,7.6-2.9c0.5,0.8-9.7,6.2-8.7,10.3c0.5,2.1,4,3.9,6.6,3.2
		c3.4-0.8,3.5-5.4,7.2-6.3c2.1-0.5,4.5,0.4,4.7,1.3c0.2,1-2.2,1.5-4.3,4.2c-1.6,2.1-2.7,5-1.9,5.6c0.7,0.6,2.8-1.3,8.5-3.9
		c4-1.8,4.7-1.6,5-1.3c0.7,0.8-1.2,3.5-1.4,3.9c-2.4,3.5-5.3,4.2-5.2,4.8c0.3,1,8.6,1.5,14.8-3.2c4.4-3.3,5.9-7.8,6.9-7.4
		c0.9,0.4,0.4,4.2-0.6,7.1c-0.7,1.9-1.6,3.4-1.4,3.5c0.2,0.2,1.5-2.2,4.2-3.7c1.4-0.8,3.4-1.5,3.9-1c0.4,0.6-1.2,1.8-1.9,4.7
		c-0.5,1.9-0.5,4,0,4.2c0.5,0.2,1.1-1.8,3.4-3.4c1.3-0.9,3.3-1.9,3.9-1.3c0.6,0.6-1.2,2.1-1.5,5.2c-0.3,3.1,1.3,4.6,0.3,6.3
		c-0.7,1.1-2,1.5-2.6,1.6c-12.3,3.2-39.1-10.8-39.1-10.8c-34.4-18-62.2-15.6-64.2-27.7C141.9,142.5,144.3,136.8,144.3,136.8z"/>
</g>
<g id="Layer_2">
</g>
</svg>
