<?xml version="1.0" encoding="utf-8"?>
<!-- Generator: Adobe Illustrator 22.0.1, SVG Export Plug-In . SVG Version: 6.00 Build 0)  -->
<svg version="1.1" id="Layer_1" xmlns="http://www.w3.org/2000/svg" xmlns:xlink="http://www.w3.org/1999/xlink" x="0px" y="0px"
	 viewBox="0 0 180.3 208" style="enable-background:new 0 0 180.3 208;" xml:space="preserve">
<style type="text/css">
	.st0{fill:#87AE32;stroke:#87AE32;stroke-miterlimit:10;}
	.st1{opacity:0.5;}
	.st2{fill:#63AA34;}
	.st3{fill:#63AA34;stroke:#63AA34;stroke-miterlimit:10;}
	.st4{display:none;}
	.st5{display:inline;fill:#808080;}
</style>
<polygon class="st0" points="180.3,156 91.3,208 0.3,156 90.3,104 "/>
<g>
	<g class="st1">
		<polygon class="st2" points="76,122.5 89.4,130.3 76,138 62.6,130.2 		"/>
		<polygon class="st2" points="44,146.5 52,151.1 43.9,155.8 35.9,151.1 		"/>
		<polygon class="st2" points="105.2,130.1 113.2,134.8 105.2,139.4 97.2,134.8 		"/>
		<polygon class="st2" points="153.5,149.9 161.6,154.5 153.5,159.2 145.5,154.5 		"/>
		<polygon class="st2" points="94.3,188.3 102.3,192.9 94.2,197.5 86.2,192.9 		"/>
		<polygon class="st3" points="92.1,163.8 98,167.2 92.1,170.6 86.2,167.2 		"/>
	</g>
</g>
<g class="st4">
	<path class="st5" d="M91.3,1.3l89,51.4v102.8l-89,51.4l-89-51.4V52.7L91.3,1.3 M91.3,0.1l-90,52V156l90,52l90-52V52.1L91.3,0.1
		L91.3,0.1z"/>
</g>
</svg>
