<?xml version="1.0" encoding="utf-8"?>
<!-- Generator: Adobe Illustrator 22.1.0, SVG Export Plug-In . SVG Version: 6.00 Build 0)  -->
<svg version="1.1" id="Layer_1" xmlns="http://www.w3.org/2000/svg" xmlns:xlink="http://www.w3.org/1999/xlink" x="0px" y="0px"
	 viewBox="0 0 250 250" style="enable-background:new 0 0 250 250;" xml:space="preserve">
<style type="text/css">
	.st0{display:none;}
	.st1{display:inline;fill:#87AE32;stroke:#87AE32;stroke-miterlimit:10;}
	.st2{display:inline;}
	.st3{opacity:0.5;}
	.st4{fill:#63AA34;}
	.st5{fill:#63AA34;stroke:#63AA34;stroke-miterlimit:10;}
	.st6{display:inline;fill:#808080;}
	.st7{enable-background:new    ;}
	.st8{fill:#6DAD48;}
	.st9{fill:#5DA73C;}
	.st10{fill:#579934;}
	.st11{fill:#97C17E;}
	.st12{fill:#005B23;}
	.st13{fill:#00892E;}
	.st14{fill:#007229;}
	.st15{fill:#5BA7DC;}
	.st16{fill:#C4DAF1;}
	.st17{fill:#0083CA;}
	.st18{fill:#FBAD18;}
	.st19{fill:#AA9F88;}
	.st20{fill:#FEC465;}
	.st21{fill:#D82435;}
	.st22{fill:#B11A29;}
	.st23{fill:#4F2D37;}
	.st24{fill:#891122;}
	.st25{fill:#DF584F;}
	.st26{fill:#FFCF01;}
	.st27{fill:#FFE18B;}
	.st28{fill:#D1A900;}
	.st29{clip-path:url(#SVGID_2_);}
	.st30{fill:#BC833F;}
	.st31{fill:#E2A44F;}
	.st32{fill:#C5A400;}
	.st33{fill:#E7AF65;}
	.st34{fill:#EAB877;}
	.st35{fill:#BCB596;}
	.st36{fill:#E5DFBA;}
	.st37{fill:#F6F0C5;}
	.st38{fill:#FCF7D9;}
	.st39{fill:#D6C20B;}
	.st40{fill:#EAD907;}
	.st41{fill:#FFF34D;}
	.st42{fill:#FFF8A1;}
</style>
<g id="Layer_1_1_" class="st0">
	<polygon class="st1" points="250,187.5 126.6,250 0.4,187.5 125.2,125 	"/>
	<g class="st2">
		<g class="st3">
			<polygon class="st4" points="105.4,147.2 124,156.6 105.4,165.9 86.8,156.5 			"/>
			<polygon class="st4" points="61,176.1 72.1,181.6 60.9,187.3 49.8,181.6 			"/>
			<polygon class="st4" points="145.9,156.4 157,162 145.9,167.5 134.8,162 			"/>
			<polygon class="st4" points="212.8,180.2 224.1,185.7 212.8,191.3 201.7,185.7 			"/>
			<polygon class="st4" points="130.8,226.3 141.8,231.9 130.6,237.4 119.5,231.9 			"/>
			<polygon class="st5" points="127.7,196.9 135.9,201 127.7,205 119.5,201 			"/>
		</g>
	</g>
	<g>
		<path class="st6" d="M126.6,1.6L250,63.3v123.6l-123.4,61.8L3.2,186.9V63.3L126.6,1.6 M126.6,0.1L1.8,62.6v124.9L126.6,250
			l124.8-62.5V62.6L126.6,0.1L126.6,0.1z"/>
	</g>
	<path class="st1" d="M9,164.5"/>
	<path class="st1" d="M8,184.7c-6.2-3.6-4.5-16.9-1.9-17.5c3-0.7,11.1,14.5,7.9,17.9C12.6,186.3,9.7,185.6,8,184.7z"/>
	<path class="st1" d="M21,179.3c-5.8-2.9-3.1-18.9-1-19.2c2.2-0.2,5.5,16.1,6.1,15.9c0.6-0.1-3.6-12.7-1.3-13.8
		c1.9-0.9,9.2,4.9,7.9,10.8c-0.7,3.1-3.6,5.3-6.1,6.1C25.8,179.5,23.1,180.4,21,179.3z"/>
	<path class="st1" d="M40,169.4c-3.9-2.5-1-12.8,0.6-12.9c1.7-0.1,3.7,10.3,4.5,10.1c0.6-0.1-1.2-6.1,0.6-7.1
		c1.5-0.8,5.2,1.5,5.3,3.9C51.3,166.9,43.5,171.6,40,169.4z"/>
	<path class="st1" d="M57.1,161c-2.9-1.6-4.5-5.7-3.5-6.8c0.6-0.7,2.3,0.2,2.7-0.5c0.9-1.3-3.6-6.1-3.5-6.1c0.1-0.1,4.1,5.4,6,4.7
		c1.2-0.5,0.7-3.1,1.9-3.5c1.3-0.4,2.5,2.2,4,1.9c1.7-0.3,1.6-3.8,3.2-4c1.3-0.2,2.7,2,2.9,2.4c1,1.7,1.2,3.6,1,5
		C70.8,159.3,62,163.7,57.1,161z"/>
	<path class="st1" d="M75.3,144.6c-1,0.3-1.8,4.9,0.2,6.6c3,2.6,13.3-1.3,13.5-6.1c0.1-2.8-3.3-5-3.5-5.2c-3-1.9-6.9-1.6-7.1-0.8
		c-0.3,1,6.4,3.6,6.1,4.2c-0.2,0.5-3.8-1.2-5.3,0.3c-1,1-0.4,2.7-1.1,2.9C77.1,146.8,76.1,144.4,75.3,144.6z"/>
	<path class="st1" d="M93.3,143.1c-2.8-0.3-5-9.3-3.5-10.1c1.4-0.8,7.4,4.5,6.1,8C95.5,142.1,94.4,143.2,93.3,143.1z"/>
	<path class="st1" d="M99.9,138.9c-3.9-1-4.9-11-3.1-11.9c1.9-0.9,8.8,6.3,7.1,10C103.3,138.4,101.4,139.3,99.9,138.9z"/>
	<path class="st1" d="M109.1,134.1c-3.1-2.8-3.7-7.7-2.7-8.2c1.4-0.8,6.8,6.6,7.7,6c0.7-0.5-2.7-5.4-1.1-7.1c0.9-1,2.6,0,3.7-1.1
		c1.5-1.5,0.1-4.8,0.6-5s1.5,3.4,2.9,3.4c1.7,0,2.3-5.4,4.2-5.5c1.1,0,2,1.7,2.3,2.1c1.2,2.1,0.5,4.2,1,4.3c0.7,0.2,1.9-4,2.6-3.9
		c0.5,0.1,0.4,2.6,0,4.7c-0.1,0.4-0.3,1.2-1.3,4.2c-0.7,1.9-1.1,3.1-1.3,3.5C125.7,135.7,114.5,139,109.1,134.1z"/>
	<path class="st1" d="M130.2,130.2c2.8-5.6,8.1-10.5,9.7-9.5c0.7,0.4,0.5,1.9,0.3,2.7c-0.8,5.2-6,8.5-5.8,8.7s6.8-5.8,8.4-4.7
		c0.9,0.6-0.1,3.3-0.6,4.5c-0.2,0.5-1.1,2.2-2.9,3.4c-3.4,2.2-8.9,1.5-10-1C129,134.1,128.7,133.1,130.2,130.2z"/>
	<path class="st1" d="M144.3,136.8c1.8-4.2,4.6-6.5,5.3-7.1c3.3-2.7,7.6-4.1,8-3.4c0.8,1.2-10.8,6.9-9.8,12.2c0.6,3.2,5.7,5.8,9,4.8
		c1.2-0.4,2.4-1.7,4.7-4.3c3.1-3.6,3.3-4.8,5.5-6.1c2.3-1.4,5-1.9,5.3-1.3c0.6,1-5.1,4.9-4.5,5.8c0.5,0.9,5.8-1.6,6.1-1
		c0.4,0.7-5.8,4.4-5.3,5.3c0.4,0.9,6.6-2,7.6-0.5c0.5,0.8-0.8,2.6-1.8,3.9c-3,4-5.9,5-5.6,5.6c0.4,1,8.1,1.2,14.5-3.2
		c4.5-3.1,6.6-7.4,8-6.8c0.9,0.4,0.9,2.4,0.6,3.7c-0.6,3-3.3,4.6-3.1,5c0.4,0.5,4.8-2.3,5.2-1.8c0.3,0.4-2.2,2.1-4.2,5.5
		c-0.9,1.4-2.7,4.4-1.8,5.5s4.3-0.3,10.8-3.1c4.5-1.9,7.3-3.3,7.6-2.9c0.5,0.8-9.7,6.2-8.7,10.3c0.5,2.1,4,3.9,6.6,3.2
		c3.4-0.8,3.5-5.4,7.2-6.3c2.1-0.5,4.5,0.4,4.7,1.3c0.2,1-2.2,1.5-4.3,4.2c-1.6,2.1-2.7,5-1.9,5.6c0.7,0.6,2.8-1.3,8.5-3.9
		c4-1.8,4.7-1.6,5-1.3c0.7,0.8-1.2,3.5-1.4,3.9c-2.4,3.5-5.3,4.2-5.2,4.8c0.3,1,8.6,1.5,14.8-3.2c4.4-3.3,5.9-7.8,6.9-7.4
		c0.9,0.4,0.4,4.2-0.6,7.1c-0.7,1.9-1.6,3.4-1.4,3.5c0.2,0.2,1.5-2.2,4.2-3.7c1.4-0.8,3.4-1.5,3.9-1c0.4,0.6-1.2,1.8-1.9,4.7
		c-0.5,1.9-0.5,4,0,4.2s1.1-1.8,3.4-3.4c1.3-0.9,3.3-1.9,3.9-1.3c0.6,0.6-1.2,2.1-1.5,5.2c-0.3,3.1,1.3,4.6,0.3,6.3
		c-0.7,1.1-2,1.5-2.6,1.6c-12.3,3.2-39.1-10.8-39.1-10.8c-34.4-18-62.2-15.6-64.2-27.7C141.9,142.5,144.3,136.8,144.3,136.8z"/>
</g>
<g id="Layer_2_1_">
</g>
<g>
	<g>
		<g>
			<g>
				<g class="st7">
					<g>
						<polygon class="st8" points="205.9,202.4 205.6,212.1 221.7,202.9 222,193.3 						"/>
					</g>
					<g>
						<polygon class="st9" points="193,217.2 192.7,226.8 205.6,212.1 205.9,202.4 						"/>
					</g>
					<g>
						<polygon class="st10" points="172.1,215.5 171.8,225.1 192.7,226.8 193,217.2 						"/>
					</g>
					<g>
						<polygon class="st8" points="150.4,217.9 150.1,227.5 171.8,225.1 172.1,215.5 						"/>
					</g>
					<g>
						<polygon class="st9" points="134.4,228.8 134.4,237.5 150.1,227.5 150.4,217.9 						"/>
					</g>
					<g>
						<polygon class="st8" points="93.7,225.2 93.4,234.9 134.4,237.5 134.4,228.8 						"/>
					</g>
					<g>
						<polygon class="st10" points="66.5,198.6 66.2,208.2 93.4,234.9 93.7,225.2 						"/>
					</g>
					<g>
						<polygon class="st11" points="66.5,198.6 93.7,225.2 134.4,228.8 150.4,217.9 172.1,215.5 193,217.2 205.9,202.4 222,193.3 
							221.6,175.8 209.8,170.4 144.2,184 84,186.7 						"/>
					</g>
				</g>
			</g>
			<g>
				<g class="st7">
					<g>
						<polygon class="st8" points="204.8,189.5 204.5,196.5 216.2,185.4 216.5,178.4 						"/>
					</g>
					<g>
						<polygon class="st9" points="192.4,205.4 192.2,212.4 204.5,196.5 204.8,189.5 						"/>
					</g>
					<g>
						<polygon class="st10" points="180.1,203.2 179.8,210.2 192.2,212.4 192.4,205.4 						"/>
					</g>
					<g>
						<polygon class="st8" points="146.8,208.4 146.5,215.4 179.8,210.2 180.1,203.2 						"/>
					</g>
					<g>
						<polygon class="st9" points="130.5,217.4 130.3,224.4 146.5,215.4 146.8,208.4 						"/>
					</g>
					<g>
						<polygon class="st8" points="94,215 93.7,222 130.3,224.4 130.5,217.4 						"/>
					</g>
					<g>
						<polygon class="st10" points="72.3,193.8 72,200.8 93.7,222 94,215 						"/>
					</g>
					<g>
						<polygon class="st11" points="72.3,193.8 94,215 130.5,217.4 146.8,208.4 180.1,203.2 192.4,205.4 204.8,189.5 216.5,178.4 
							214.3,164 163.4,159.6 136.4,171.2 86.5,178.4 						"/>
					</g>
				</g>
			</g>
		</g>
		<g>
			<path class="st12" d="M180.3,164.1c0.2,0,0.4-0.1,0.5-0.1c0,0,0,0,0,0c0.2,0,0.4-0.1,0.5-0.1c0,0,0,0,0,0c0.2,0,0.4,0,0.5,0h0
				c0.2,0,0.3,0,0.4,0c0,0,0.1,0,0.1,0c0.1,0,0.3,0,0.4,0c0.1,0,0.1,0,0.2,0c0.1,0,0.2,0,0.3,0c0.2,0,0.3,0.1,0.5,0.1l-4.4-1.4
				c-0.1,0-0.3-0.1-0.5-0.1c0,0,0,0,0,0c-0.1,0-0.2,0-0.2,0c-0.1,0-0.1,0-0.2,0c0,0,0,0,0,0c-0.1,0-0.2,0-0.3,0c0,0,0,0-0.1,0
				c0,0-0.1,0-0.1,0c-0.1,0-0.1,0-0.2,0c-0.1,0-0.2,0-0.3,0h0h0c-0.1,0-0.2,0-0.3,0c-0.1,0-0.2,0-0.3,0l0,0c0,0,0,0,0,0
				c-0.1,0-0.2,0-0.2,0c-0.1,0-0.2,0-0.2,0c0,0,0,0,0,0c0,0,0,0,0,0c-0.1,0-0.1,0-0.2,0c-0.1,0-0.2,0-0.2,0c0,0-0.1,0-0.1,0
				c0,0,0,0,0,0c0,0,0,0-0.1,0c-0.1,0-0.2,0-0.2,0.1c-0.1,0-0.2,0-0.2,0.1c0,0,0,0,0,0l4.4,1.4C179.9,164.2,180.1,164.2,180.3,164.1
				C180.3,164.1,180.3,164.1,180.3,164.1z"/>
			<path class="st13" d="M154.4,168.4c0.1-0.2,0.2-0.4,0.4-0.6c0,0,0,0,0-0.1c0.1-0.2,0.3-0.4,0.4-0.6c0,0,0,0,0-0.1
				c0.2-0.2,0.3-0.4,0.5-0.6c0,0,0-0.1,0.1-0.1c0.2-0.2,0.4-0.4,0.5-0.6c0,0,0.1-0.1,0.1-0.1c0.1-0.2,0.3-0.3,0.5-0.5
				c0.1-0.1,0.2-0.2,0.3-0.2c0.1-0.1,0.2-0.2,0.3-0.3c0.2-0.2,0.5-0.4,0.8-0.6c0.1-0.1,0.2-0.2,0.3-0.2c0.1-0.1,0.3-0.2,0.4-0.3
				c0.2-0.1,0.3-0.2,0.5-0.4c0.1,0,0.1-0.1,0.2-0.1c0.3-0.2,0.5-0.3,0.8-0.5c0,0,0.1,0,0.1-0.1c0.3-0.2,0.6-0.4,0.9-0.5c0,0,0,0,0,0
				c0.3-0.2,0.6-0.3,0.9-0.5c0,0,0.1,0,0.1-0.1c0.3-0.2,0.6-0.3,0.9-0.4c0.1,0,0.1-0.1,0.2-0.1c0.3-0.1,0.6-0.3,0.9-0.4
				c0.1,0,0.1,0,0.2-0.1c0.3-0.1,0.6-0.2,0.9-0.4c0,0,0.1,0,0.1,0c0.3-0.1,0.7-0.2,1-0.3c0.2-0.1,0.4-0.1,0.6-0.2
				c0.1,0,0.1,0,0.2-0.1c0.1,0,0.3-0.1,0.4-0.1c0.1,0,0.1,0,0.2,0c0.2,0,0.4-0.1,0.6-0.1l0,0l0,0c0.2,0,0.4-0.1,0.6-0.1
				c0.1,0,0.1,0,0.2,0c0.1,0,0.3,0,0.4-0.1c0.1,0,0.2,0,0.2,0c0.1,0,0.2,0,0.4,0c0.1,0,0.2,0,0.2,0c0.1,0,0.2,0,0.3,0
				c0.1,0,0.2,0,0.3,0c0.1,0,0.2,0,0.3,0c0.1,0,0.2,0,0.3,0c0.1,0,0.2,0,0.3,0c0.1,0,0.2,0,0.3,0c0.1,0,0.2,0,0.2,0
				c0.1,0,0.3,0,0.4,0c0.1,0,0.1,0,0.2,0c0.2,0,0.4,0,0.6,0c0,0,0,0,0.1,0c0.3,0,0.6,0.1,0.8,0.1c0,0,0.1,0,0.1,0
				c0.1,0,0.2,0,0.3,0.1c0.1,0,0.1,0,0.2,0c0.2,0,0.3,0.1,0.5,0.1l-9.2-2.8c-0.2,0-0.3-0.1-0.5-0.1c-0.1,0-0.1,0-0.2,0
				c-0.1,0-0.2-0.1-0.3-0.1c0,0,0,0-0.1,0c0,0-0.1,0-0.1,0c-0.3,0-0.5-0.1-0.8-0.1c0,0,0,0,0,0c0,0,0,0-0.1,0c-0.2,0-0.4,0-0.6,0
				c0,0-0.1,0-0.1,0c0,0-0.1,0-0.1,0c-0.1,0-0.3,0-0.4,0c0,0-0.1,0-0.1,0c0,0-0.1,0-0.1,0c-0.1,0-0.2,0-0.3,0c-0.1,0-0.1,0-0.2,0
				c0,0-0.1,0-0.1,0c-0.1,0-0.2,0-0.3,0c-0.1,0-0.1,0-0.2,0c0,0-0.1,0-0.1,0c-0.1,0-0.2,0-0.3,0c-0.1,0-0.1,0-0.2,0c0,0-0.1,0-0.1,0
				c-0.1,0-0.2,0-0.2,0c-0.1,0-0.1,0-0.2,0c-0.1,0-0.1,0-0.2,0c-0.1,0-0.2,0-0.2,0c0,0-0.1,0-0.1,0c-0.1,0-0.2,0-0.3,0
				c-0.1,0-0.1,0-0.2,0c0,0,0,0-0.1,0c-0.2,0-0.4,0.1-0.5,0.1c0,0,0,0,0,0c-0.2,0-0.3,0.1-0.5,0.1c0,0-0.1,0-0.1,0
				c-0.1,0-0.1,0-0.2,0c-0.1,0-0.2,0-0.3,0.1c-0.1,0-0.1,0-0.2,0c-0.1,0-0.1,0-0.2,0.1c-0.1,0-0.1,0-0.2,0c-0.1,0-0.3,0.1-0.4,0.1
				c0,0-0.1,0-0.1,0c-0.2,0.1-0.4,0.1-0.6,0.2c-0.1,0-0.2,0.1-0.3,0.1c0,0-0.1,0-0.1,0c0,0-0.1,0-0.1,0c-0.2,0.1-0.4,0.1-0.6,0.2
				c-0.1,0-0.2,0.1-0.3,0.1c-0.1,0-0.1,0-0.2,0.1c-0.1,0-0.1,0-0.2,0.1c-0.2,0.1-0.4,0.2-0.6,0.3c-0.1,0-0.1,0.1-0.2,0.1
				c-0.1,0-0.1,0.1-0.2,0.1c-0.1,0-0.2,0.1-0.3,0.1c-0.2,0.1-0.4,0.2-0.6,0.3c0,0,0,0-0.1,0c0,0-0.1,0-0.1,0.1
				c-0.1,0.1-0.3,0.1-0.4,0.2c-0.2,0.1-0.3,0.2-0.5,0.3c0,0,0,0,0,0c0,0,0,0,0,0c-0.2,0.1-0.3,0.2-0.5,0.3c-0.1,0.1-0.2,0.1-0.3,0.2
				c0,0-0.1,0-0.1,0.1c0,0,0,0-0.1,0c-0.2,0.1-0.3,0.2-0.5,0.3c-0.1,0-0.1,0.1-0.2,0.1c-0.1,0-0.1,0.1-0.2,0.1
				c-0.1,0-0.1,0.1-0.2,0.1c-0.1,0.1-0.2,0.2-0.3,0.2c-0.1,0.1-0.3,0.2-0.4,0.3c0,0-0.1,0.1-0.1,0.1c-0.1,0-0.1,0.1-0.2,0.1
				c-0.3,0.2-0.5,0.4-0.8,0.6c-0.1,0-0.1,0.1-0.2,0.1c0,0-0.1,0.1-0.1,0.1c-0.1,0.1-0.2,0.2-0.3,0.3c-0.1,0.1-0.2,0.1-0.2,0.2
				c-0.1,0.1-0.2,0.2-0.2,0.2c0,0-0.1,0.1-0.1,0.1c0,0,0,0-0.1,0.1c-0.1,0.1-0.2,0.2-0.3,0.4c-0.1,0.1-0.1,0.1-0.2,0.2
				c0,0,0,0-0.1,0.1c0,0,0,0.1-0.1,0.1c-0.1,0.1-0.2,0.2-0.3,0.3c-0.1,0.1-0.1,0.1-0.2,0.2c0,0,0,0,0,0.1c0,0,0,0,0,0.1
				c-0.1,0.1-0.2,0.2-0.2,0.3c-0.1,0.1-0.1,0.2-0.2,0.3c0,0,0,0,0,0.1c0,0,0,0,0,0c-0.1,0.1-0.1,0.2-0.2,0.4c0,0.1-0.1,0.2-0.1,0.2
				c0,0,0,0,0,0.1c0,0,0,0,0,0.1c-0.1,0.1-0.1,0.2-0.2,0.4c0,0.1-0.1,0.2-0.1,0.3l9.2,2.8C154.2,168.9,154.3,168.7,154.4,168.4
				C154.4,168.4,154.4,168.4,154.4,168.4z"/>
			<path class="st12" d="M146.5,176.1c0-0.2,0.1-0.3,0.1-0.5c0,0,0,0,0,0c0-0.2,0.1-0.3,0.2-0.5l0,0c0.1-0.2,0.2-0.3,0.2-0.5
				c0,0,0,0,0,0c0.1-0.2,0.2-0.3,0.3-0.5c0,0,0,0,0,0c0.1-0.2,0.2-0.3,0.3-0.5c0,0,0,0,0,0c0.1-0.2,0.3-0.3,0.4-0.5c0,0,0,0,0,0
				c0.1-0.2,0.3-0.3,0.4-0.5c0,0,0.1-0.1,0.1-0.1c0.1-0.1,0.2-0.2,0.3-0.3c0.1-0.1,0.3-0.2,0.4-0.4c0.1-0.1,0.1-0.1,0.2-0.2
				c0.1,0,0.1-0.1,0.2-0.1c0.1-0.1,0.3-0.2,0.4-0.3c0,0,0.1-0.1,0.1-0.1c0.2-0.1,0.4-0.3,0.6-0.4c0,0,0.1,0,0.1,0
				c0.2-0.1,0.4-0.2,0.6-0.4c0,0,0.1,0,0.1,0c0.2-0.1,0.4-0.2,0.6-0.3c0,0,0.1,0,0.1,0c0.2-0.1,0.4-0.2,0.7-0.3c0,0,0.1,0,0.1,0
				c0.2-0.1,0.5-0.2,0.8-0.3l-9.2-2.8c-0.1,0-0.2,0.1-0.3,0.1c-0.1,0-0.2,0.1-0.4,0.2c0,0-0.1,0-0.1,0c0,0-0.1,0-0.1,0
				c-0.1,0-0.1,0.1-0.2,0.1c-0.1,0.1-0.3,0.1-0.4,0.2c0,0-0.1,0-0.1,0.1c0,0-0.1,0-0.1,0c-0.1,0-0.1,0.1-0.2,0.1
				c-0.1,0.1-0.2,0.1-0.4,0.2c0,0-0.1,0-0.1,0.1c0,0-0.1,0-0.1,0c-0.1,0-0.1,0.1-0.2,0.1c-0.1,0.1-0.2,0.1-0.3,0.2
				c0,0-0.1,0.1-0.1,0.1c0,0-0.1,0-0.1,0c0,0-0.1,0.1-0.1,0.1c-0.1,0.1-0.2,0.1-0.3,0.2c0,0-0.1,0.1-0.1,0.1c0,0-0.1,0-0.1,0.1
				c0,0-0.1,0.1-0.1,0.1c-0.1,0.1-0.2,0.1-0.3,0.2c-0.1,0-0.1,0.1-0.2,0.1c0,0,0,0-0.1,0c-0.1,0-0.1,0.1-0.2,0.1
				c-0.1,0.1-0.3,0.2-0.4,0.4c0,0-0.1,0-0.1,0.1c-0.1,0.1-0.2,0.2-0.3,0.2c0,0-0.1,0.1-0.1,0.1c0,0,0,0,0,0
				c-0.1,0.1-0.2,0.2-0.3,0.3c-0.1,0.1-0.1,0.1-0.2,0.2c0,0,0,0,0,0c0,0,0,0,0,0c-0.1,0.1-0.1,0.1-0.2,0.2c-0.1,0.1-0.1,0.1-0.2,0.2
				c0,0,0,0,0,0c0,0,0,0,0,0c0,0.1-0.1,0.1-0.1,0.2c-0.1,0.1-0.1,0.2-0.2,0.2c0,0,0,0.1-0.1,0.1c0,0,0,0,0,0c0,0,0,0.1-0.1,0.1
				c0,0.1-0.1,0.2-0.1,0.2c0,0.1-0.1,0.1-0.1,0.2c0,0,0,0,0,0c0,0,0,0,0,0c0,0.1-0.1,0.2-0.1,0.2c0,0.1-0.1,0.2-0.1,0.2l0,0l0,0
				c0,0.1-0.1,0.2-0.1,0.2c0,0.1-0.1,0.2-0.1,0.2c0,0,0,0,0,0c0,0,0,0,0,0c0,0,0,0.1,0,0.1c0,0.1,0,0.1,0,0.2c0,0,0,0.1,0,0.1
				c0,0,0,0,0,0c0,0,0,0,0,0.1c0,0.1,0,0.1,0,0.2c0,0.1,0,0.1,0,0.2c0,0,0,0,0,0c0,0.1,0,0.2,0,0.2c0,0.1,0,0.1,0,0.2c0,0,0,0,0,0.1
				c0,0,0,0,0,0c0,0,0,0.1,0,0.1c0,0.1,0,0.1,0.1,0.2c0,0,0,0.1,0,0.1c0,0,0,0,0,0.1c0,0,0,0.1,0,0.1c0,0.1,0.1,0.2,0.1,0.2
				c0,0,0,0,0,0.1c0,0,0,0,0,0.1c0,0,0,0.1,0.1,0.1c0.1,0.1,0.1,0.1,0.2,0.2c0,0,0,0,0,0c0,0,0,0,0,0c0.1,0.1,0.2,0.2,0.3,0.3
				c0,0,0,0,0,0c0,0,0,0,0.1,0c0.1,0.1,0.2,0.2,0.3,0.2c0,0,0.1,0.1,0.1,0.1c0.1,0.1,0.2,0.1,0.3,0.2c0,0,0.1,0,0.1,0.1
				c0.2,0.1,0.3,0.1,0.5,0.2l9.2,2.8c-0.2-0.1-0.3-0.1-0.5-0.2c0,0-0.1,0-0.1-0.1c-0.1-0.1-0.2-0.1-0.3-0.2c0,0-0.1-0.1-0.1-0.1
				c-0.1-0.1-0.2-0.1-0.3-0.2c0,0,0,0-0.1,0c-0.1-0.1-0.2-0.2-0.3-0.3c0,0,0,0,0,0c-0.1-0.1-0.2-0.2-0.2-0.3c0,0,0,0,0-0.1
				c-0.1-0.1-0.1-0.2-0.2-0.4c0,0,0,0,0-0.1c0-0.1-0.1-0.3-0.1-0.4c0,0,0,0,0,0c0-0.2,0-0.3,0-0.5
				C146.5,176.5,146.5,176.3,146.5,176.1C146.5,176.1,146.5,176.1,146.5,176.1z"/>
			<g>
				<path class="st14" d="M166.6,159.6c-5.9,1.8-10.9,5.8-12.5,9.6c-4.3,1.6-7.6,4.8-7.6,7.5c0,2.9,3.8,4,8.5,2.6
					c1.9-0.6,22.5-6.9,24.6-7.6c3.3-1,6-3.5,6-5.5c0-2-2.6-2.8-5.8-1.9c0-0.2,0-0.5,0-0.7C179.8,159.1,173.8,157.3,166.6,159.6z"/>
			</g>
		</g>
		<g>
			<path class="st12" d="M113.7,186.3c0.1,0,0.2,0,0.3-0.1c0,0,0,0,0,0c0.1,0,0.2,0,0.3,0c0,0,0,0,0,0c0.1,0,0.2,0,0.3,0h0
				c0.1,0,0.2,0,0.3,0c0,0,0,0,0,0c0.1,0,0.2,0,0.2,0c0,0,0.1,0,0.1,0c0.1,0,0.1,0,0.2,0c0.1,0,0.2,0,0.3,0.1l-2.5-0.8
				c-0.1,0-0.2,0-0.3-0.1c0,0,0,0,0,0c0,0-0.1,0-0.1,0c0,0-0.1,0-0.1,0c0,0,0,0,0,0c-0.1,0-0.1,0-0.2,0c0,0,0,0,0,0c0,0,0,0,0,0
				c0,0-0.1,0-0.1,0c-0.1,0-0.1,0-0.2,0h0h0c0,0-0.1,0-0.2,0c0,0-0.1,0-0.1,0l0,0c0,0,0,0,0,0c0,0-0.1,0-0.1,0c0,0-0.1,0-0.1,0
				c0,0,0,0,0,0c0,0,0,0,0,0c0,0-0.1,0-0.1,0c0,0-0.1,0-0.1,0c0,0,0,0-0.1,0c0,0,0,0,0,0c0,0,0,0,0,0c0,0-0.1,0-0.1,0
				c0,0-0.1,0-0.1,0c0,0,0,0,0,0l2.5,0.8C113.4,186.4,113.5,186.4,113.7,186.3C113.6,186.3,113.7,186.3,113.7,186.3z"/>
			<path class="st13" d="M98.9,188.7c0.1-0.1,0.1-0.2,0.2-0.4c0,0,0,0,0,0c0.1-0.1,0.2-0.2,0.3-0.4c0,0,0,0,0,0
				c0.1-0.1,0.2-0.2,0.3-0.4c0,0,0,0,0,0c0.1-0.1,0.2-0.2,0.3-0.3c0,0,0,0,0.1-0.1c0.1-0.1,0.2-0.2,0.3-0.3c0,0,0.1-0.1,0.1-0.1
				c0.1,0,0.1-0.1,0.2-0.1c0.1-0.1,0.3-0.2,0.4-0.4c0.1,0,0.1-0.1,0.2-0.1c0.1-0.1,0.1-0.1,0.2-0.2c0.1-0.1,0.2-0.1,0.3-0.2
				c0,0,0.1,0,0.1-0.1c0.1-0.1,0.3-0.2,0.4-0.3c0,0,0,0,0.1,0c0.2-0.1,0.3-0.2,0.5-0.3c0,0,0,0,0,0c0.2-0.1,0.3-0.2,0.5-0.3
				c0,0,0,0,0.1,0c0.2-0.1,0.3-0.2,0.5-0.2c0,0,0.1,0,0.1,0c0.2-0.1,0.3-0.2,0.5-0.2c0,0,0.1,0,0.1,0c0.2-0.1,0.4-0.1,0.5-0.2
				c0,0,0,0,0.1,0c0.2-0.1,0.4-0.1,0.6-0.2c0.1,0,0.2-0.1,0.3-0.1c0,0,0.1,0,0.1,0c0.1,0,0.2,0,0.2-0.1c0,0,0.1,0,0.1,0
				c0.1,0,0.2-0.1,0.3-0.1l0,0l0,0c0.1,0,0.2,0,0.3-0.1c0,0,0.1,0,0.1,0c0.1,0,0.2,0,0.2,0c0,0,0.1,0,0.1,0c0.1,0,0.1,0,0.2,0
				c0,0,0.1,0,0.1,0c0.1,0,0.1,0,0.2,0c0.1,0,0.1,0,0.2,0c0.1,0,0.1,0,0.2,0c0.1,0,0.1,0,0.2,0c0.1,0,0.1,0,0.2,0c0.1,0,0.1,0,0.2,0
				c0,0,0.1,0,0.1,0c0.1,0,0.2,0,0.2,0c0,0,0.1,0,0.1,0c0.1,0,0.2,0,0.4,0c0,0,0,0,0,0c0.2,0,0.3,0,0.5,0.1c0,0,0.1,0,0.1,0
				c0.1,0,0.1,0,0.2,0c0,0,0.1,0,0.1,0c0.1,0,0.2,0,0.3,0.1l-5.2-1.6c-0.1,0-0.2-0.1-0.3-0.1c0,0-0.1,0-0.1,0c-0.1,0-0.1,0-0.2,0
				c0,0,0,0,0,0c0,0,0,0,0,0c-0.2,0-0.3-0.1-0.5-0.1c0,0,0,0,0,0c0,0,0,0,0,0c-0.1,0-0.2,0-0.4,0c0,0,0,0-0.1,0c0,0,0,0-0.1,0
				c-0.1,0-0.2,0-0.2,0c0,0-0.1,0-0.1,0c0,0,0,0-0.1,0c-0.1,0-0.1,0-0.2,0c0,0-0.1,0-0.1,0c0,0,0,0,0,0c-0.1,0-0.1,0-0.2,0
				c0,0-0.1,0-0.1,0c0,0,0,0-0.1,0c-0.1,0-0.1,0-0.2,0c0,0-0.1,0-0.1,0c0,0,0,0-0.1,0c0,0-0.1,0-0.1,0c0,0-0.1,0-0.1,0
				c0,0-0.1,0-0.1,0c0,0-0.1,0-0.1,0c0,0,0,0-0.1,0c-0.1,0-0.1,0-0.2,0c0,0-0.1,0-0.1,0c0,0,0,0,0,0c-0.1,0-0.2,0-0.3,0.1
				c0,0,0,0,0,0c-0.1,0-0.2,0-0.3,0.1c0,0,0,0,0,0c0,0-0.1,0-0.1,0c0,0-0.1,0-0.1,0c0,0-0.1,0-0.1,0c0,0-0.1,0-0.1,0
				c0,0-0.1,0-0.1,0c-0.1,0-0.2,0-0.2,0.1c0,0,0,0-0.1,0c-0.1,0-0.2,0.1-0.3,0.1c-0.1,0-0.1,0-0.2,0.1c0,0,0,0-0.1,0c0,0,0,0-0.1,0
				c-0.1,0-0.2,0.1-0.3,0.1c-0.1,0-0.1,0-0.2,0.1c0,0-0.1,0-0.1,0c0,0-0.1,0-0.1,0c-0.1,0-0.2,0.1-0.3,0.1c0,0-0.1,0-0.1,0
				c0,0-0.1,0-0.1,0c0,0-0.1,0-0.1,0.1c-0.1,0.1-0.2,0.1-0.3,0.2c0,0,0,0,0,0c0,0,0,0-0.1,0c-0.1,0-0.2,0.1-0.2,0.1
				c-0.1,0.1-0.2,0.1-0.3,0.2c0,0,0,0,0,0c0,0,0,0,0,0c-0.1,0.1-0.2,0.1-0.3,0.2c-0.1,0-0.1,0.1-0.2,0.1c0,0,0,0-0.1,0c0,0,0,0,0,0
				c-0.1,0.1-0.2,0.1-0.3,0.2c0,0-0.1,0.1-0.1,0.1c0,0-0.1,0-0.1,0.1c0,0-0.1,0-0.1,0.1c-0.1,0-0.1,0.1-0.2,0.1
				c-0.1,0.1-0.1,0.1-0.2,0.2c0,0,0,0-0.1,0.1c0,0-0.1,0.1-0.1,0.1c-0.1,0.1-0.3,0.2-0.4,0.4c0,0-0.1,0.1-0.1,0.1c0,0,0,0-0.1,0.1
				c-0.1,0-0.1,0.1-0.2,0.1c0,0-0.1,0.1-0.1,0.1c0,0-0.1,0.1-0.1,0.1c0,0,0,0-0.1,0.1c0,0,0,0,0,0c-0.1,0.1-0.1,0.1-0.2,0.2
				c0,0-0.1,0.1-0.1,0.1c0,0,0,0,0,0c0,0,0,0,0,0c-0.1,0.1-0.1,0.1-0.2,0.2c0,0-0.1,0.1-0.1,0.1c0,0,0,0,0,0c0,0,0,0,0,0
				c0,0.1-0.1,0.1-0.1,0.2c0,0-0.1,0.1-0.1,0.1c0,0,0,0,0,0c0,0,0,0,0,0c0,0.1-0.1,0.1-0.1,0.2c0,0-0.1,0.1-0.1,0.1c0,0,0,0,0,0
				c0,0,0,0,0,0c0,0.1-0.1,0.1-0.1,0.2c0,0,0,0.1-0.1,0.1l5.2,1.6C98.7,189,98.8,188.9,98.9,188.7C98.8,188.8,98.9,188.8,98.9,188.7
				z"/>
			<path class="st12" d="M94.3,193.2c0-0.1,0-0.2,0.1-0.3c0,0,0,0,0,0c0-0.1,0.1-0.2,0.1-0.3l0,0c0-0.1,0.1-0.2,0.1-0.3c0,0,0,0,0,0
				c0-0.1,0.1-0.2,0.2-0.3c0,0,0,0,0,0c0.1-0.1,0.1-0.2,0.2-0.3c0,0,0,0,0,0c0.1-0.1,0.2-0.2,0.2-0.3c0,0,0,0,0,0
				c0.1-0.1,0.2-0.2,0.3-0.3c0,0,0,0,0.1-0.1c0.1-0.1,0.1-0.1,0.2-0.2c0.1-0.1,0.2-0.1,0.3-0.2c0,0,0.1-0.1,0.1-0.1
				c0,0,0.1-0.1,0.1-0.1c0.1-0.1,0.2-0.1,0.2-0.2c0,0,0,0,0.1,0c0.1-0.1,0.2-0.1,0.3-0.2c0,0,0,0,0,0c0.1-0.1,0.2-0.1,0.4-0.2
				c0,0,0,0,0,0c0.1-0.1,0.2-0.1,0.4-0.2c0,0,0,0,0.1,0c0.1-0.1,0.3-0.1,0.4-0.2c0,0,0,0,0.1,0c0.1-0.1,0.3-0.1,0.4-0.2l-5.2-1.6
				c-0.1,0-0.1,0-0.2,0.1c-0.1,0-0.1,0.1-0.2,0.1c0,0,0,0-0.1,0c0,0,0,0,0,0c0,0-0.1,0-0.1,0c-0.1,0-0.1,0.1-0.2,0.1c0,0,0,0-0.1,0
				c0,0,0,0-0.1,0c0,0-0.1,0-0.1,0.1c-0.1,0-0.1,0.1-0.2,0.1c0,0,0,0-0.1,0c0,0,0,0,0,0c0,0-0.1,0-0.1,0.1c-0.1,0-0.1,0.1-0.2,0.1
				c0,0,0,0-0.1,0c0,0,0,0,0,0c0,0,0,0-0.1,0c-0.1,0-0.1,0.1-0.2,0.1c0,0,0,0-0.1,0.1c0,0,0,0-0.1,0c0,0-0.1,0-0.1,0.1
				c-0.1,0-0.1,0.1-0.2,0.1c0,0-0.1,0.1-0.1,0.1c0,0,0,0,0,0c0,0-0.1,0-0.1,0.1c-0.1,0.1-0.2,0.1-0.2,0.2c0,0,0,0,0,0
				c-0.1,0-0.1,0.1-0.1,0.1c0,0,0,0-0.1,0.1c0,0,0,0,0,0c0,0-0.1,0.1-0.1,0.1c0,0-0.1,0.1-0.1,0.1c0,0,0,0,0,0c0,0,0,0,0,0
				c0,0-0.1,0.1-0.1,0.1c0,0-0.1,0.1-0.1,0.1c0,0,0,0,0,0c0,0,0,0,0,0c0,0,0,0.1-0.1,0.1c0,0-0.1,0.1-0.1,0.1c0,0,0,0,0,0.1
				c0,0,0,0,0,0c0,0,0,0,0,0c0,0-0.1,0.1-0.1,0.1c0,0,0,0.1-0.1,0.1c0,0,0,0,0,0c0,0,0,0,0,0c0,0,0,0.1-0.1,0.1c0,0,0,0.1-0.1,0.1
				l0,0l0,0c0,0,0,0.1-0.1,0.1c0,0,0,0.1,0,0.1c0,0,0,0,0,0c0,0,0,0,0,0c0,0,0,0.1,0,0.1c0,0,0,0.1,0,0.1c0,0,0,0,0,0.1c0,0,0,0,0,0
				c0,0,0,0,0,0c0,0,0,0.1,0,0.1c0,0,0,0.1,0,0.1c0,0,0,0,0,0c0,0,0,0.1,0,0.1c0,0,0,0.1,0,0.1c0,0,0,0,0,0c0,0,0,0,0,0
				c0,0,0,0,0,0.1c0,0,0,0.1,0,0.1c0,0,0,0,0,0c0,0,0,0,0,0c0,0,0,0,0,0c0,0,0,0.1,0.1,0.1c0,0,0,0,0,0c0,0,0,0,0,0c0,0,0,0,0,0.1
				c0,0,0.1,0.1,0.1,0.1c0,0,0,0,0,0c0,0,0,0,0,0c0.1,0.1,0.1,0.1,0.2,0.2c0,0,0,0,0,0c0,0,0,0,0,0c0.1,0,0.1,0.1,0.2,0.1
				c0,0,0,0,0.1,0c0.1,0,0.1,0.1,0.2,0.1c0,0,0.1,0,0.1,0c0.1,0,0.2,0.1,0.3,0.1l5.2,1.6c-0.1,0-0.2-0.1-0.3-0.1c0,0-0.1,0-0.1,0
				c-0.1,0-0.1-0.1-0.2-0.1c0,0-0.1,0-0.1,0c-0.1,0-0.1-0.1-0.2-0.1c0,0,0,0,0,0c-0.1-0.1-0.1-0.1-0.2-0.2c0,0,0,0,0,0
				c-0.1-0.1-0.1-0.1-0.1-0.2c0,0,0,0,0,0c0-0.1-0.1-0.1-0.1-0.2c0,0,0,0,0,0c0-0.1-0.1-0.2-0.1-0.2c0,0,0,0,0,0c0-0.1,0-0.2,0-0.3
				C94.3,193.4,94.3,193.3,94.3,193.2C94.3,193.2,94.3,193.2,94.3,193.2z"/>
			<g>
				<path class="st14" d="M105.8,183.7c-3.4,1-6.2,3.3-7.2,5.5c-2.4,0.9-4.3,2.8-4.3,4.3c0,1.6,2.2,2.3,4.9,1.5
					c1.1-0.3,12.9-4,14-4.3c1.9-0.6,3.4-2,3.4-3.2c0-1.1-1.5-1.6-3.3-1.1c0-0.1,0-0.3,0-0.4C113.3,183.5,110,182.4,105.8,183.7z"/>
			</g>
		</g>
		<g>
			<g>
				<polygon class="st15" points="140.7,192.7 169.7,183.9 169.7,186.2 140.7,195 				"/>
				<polygon class="st16" points="123.5,187.3 152.5,178.5 169.7,183.9 140.7,192.7 				"/>
				<polygon class="st17" points="140.7,192.7 140.7,195 123.5,189.6 123.5,187.3 				"/>
			</g>
			<g>
				<g class="st7">
					<g>
						<polygon class="st18" points="145.7,188.5 137.1,185.7 138.2,129 146.8,131.7 						"/>
					</g>
					<g>
						<polygon class="st19" points="146.8,131.7 138.2,129 147,126.3 155.6,129.1 						"/>
					</g>
					<g>
						<polygon class="st20" points="155.6,129.1 154.5,185.8 145.7,188.5 146.8,131.7 						"/>
					</g>
				</g>
			</g>
		</g>
		<g>
			<path class="st12" d="M202.5,170c0.1,0,0.2,0,0.3-0.1c0,0,0,0,0,0c0.1,0,0.2,0,0.4,0c0,0,0,0,0,0c0.1,0,0.2,0,0.3,0h0
				c0.1,0,0.2,0,0.3,0c0,0,0,0,0.1,0c0.1,0,0.2,0,0.3,0c0,0,0.1,0,0.1,0c0.1,0,0.1,0,0.2,0c0.1,0,0.2,0,0.3,0.1l-2.9-0.9
				c-0.1,0-0.2-0.1-0.3-0.1c0,0,0,0,0,0c0,0-0.1,0-0.2,0c0,0-0.1,0-0.1,0c0,0,0,0,0,0c-0.1,0-0.1,0-0.2,0c0,0,0,0,0,0c0,0,0,0-0.1,0
				c0,0-0.1,0-0.1,0c-0.1,0-0.1,0-0.2,0h0h0c-0.1,0-0.1,0-0.2,0c-0.1,0-0.1,0-0.2,0l0,0c0,0,0,0,0,0c-0.1,0-0.1,0-0.2,0
				c-0.1,0-0.1,0-0.2,0c0,0,0,0,0,0c0,0,0,0,0,0c0,0-0.1,0-0.1,0c-0.1,0-0.1,0-0.2,0c0,0-0.1,0-0.1,0c0,0,0,0,0,0c0,0,0,0,0,0
				c-0.1,0-0.1,0-0.2,0c-0.1,0-0.1,0-0.2,0c0,0,0,0,0,0l2.9,0.9C202.2,170.1,202.3,170,202.5,170C202.5,170,202.5,170,202.5,170z"/>
			<path class="st13" d="M185.4,172.8c0.1-0.1,0.2-0.3,0.2-0.4c0,0,0,0,0,0c0.1-0.1,0.2-0.3,0.3-0.4c0,0,0,0,0,0
				c0.1-0.1,0.2-0.3,0.3-0.4c0,0,0,0,0-0.1c0.1-0.1,0.2-0.3,0.4-0.4c0,0,0,0,0.1-0.1c0.1-0.1,0.2-0.2,0.3-0.3
				c0.1-0.1,0.1-0.1,0.2-0.2c0.1-0.1,0.1-0.1,0.2-0.2c0.2-0.1,0.3-0.3,0.5-0.4c0.1-0.1,0.1-0.1,0.2-0.2c0.1-0.1,0.2-0.1,0.3-0.2
				c0.1-0.1,0.2-0.2,0.3-0.2c0,0,0.1-0.1,0.1-0.1c0.2-0.1,0.3-0.2,0.5-0.3c0,0,0,0,0.1,0c0.2-0.1,0.4-0.2,0.6-0.3c0,0,0,0,0,0
				c0.2-0.1,0.4-0.2,0.6-0.3c0,0,0,0,0.1,0c0.2-0.1,0.4-0.2,0.6-0.3c0,0,0.1,0,0.1,0c0.2-0.1,0.4-0.2,0.6-0.3c0,0,0.1,0,0.1,0
				c0.2-0.1,0.4-0.2,0.6-0.2c0,0,0.1,0,0.1,0c0.2-0.1,0.4-0.2,0.7-0.2c0.1,0,0.3-0.1,0.4-0.1c0,0,0.1,0,0.1,0c0.1,0,0.2,0,0.3-0.1
				c0,0,0.1,0,0.1,0c0.1,0,0.3-0.1,0.4-0.1l0,0l0,0c0.1,0,0.3-0.1,0.4-0.1c0,0,0.1,0,0.1,0c0.1,0,0.2,0,0.3,0c0.1,0,0.1,0,0.2,0
				c0.1,0,0.2,0,0.2,0c0.1,0,0.1,0,0.2,0c0.1,0,0.1,0,0.2,0c0.1,0,0.1,0,0.2,0c0.1,0,0.1,0,0.2,0c0.1,0,0.1,0,0.2,0
				c0.1,0,0.1,0,0.2,0c0.1,0,0.1,0,0.2,0c0.1,0,0.1,0,0.2,0c0.1,0,0.2,0,0.3,0c0,0,0.1,0,0.1,0c0.1,0,0.3,0,0.4,0c0,0,0,0,0,0
				c0.2,0,0.4,0,0.5,0.1c0,0,0.1,0,0.1,0c0.1,0,0.2,0,0.2,0c0,0,0.1,0,0.1,0c0.1,0,0.2,0.1,0.3,0.1l-6-1.9c-0.1,0-0.2-0.1-0.3-0.1
				c0,0-0.1,0-0.1,0c-0.1,0-0.2,0-0.2,0c0,0,0,0,0,0c0,0,0,0,0,0c-0.2,0-0.4-0.1-0.5-0.1c0,0,0,0,0,0c0,0,0,0,0,0
				c-0.1,0-0.3,0-0.4,0c0,0,0,0-0.1,0c0,0-0.1,0-0.1,0c-0.1,0-0.2,0-0.3,0c0,0-0.1,0-0.1,0c0,0,0,0-0.1,0c-0.1,0-0.1,0-0.2,0
				c0,0-0.1,0-0.1,0c0,0,0,0-0.1,0c-0.1,0-0.1,0-0.2,0c0,0-0.1,0-0.1,0c0,0,0,0-0.1,0c-0.1,0-0.1,0-0.2,0c0,0-0.1,0-0.1,0
				c0,0-0.1,0-0.1,0c-0.1,0-0.1,0-0.2,0c0,0-0.1,0-0.1,0c0,0-0.1,0-0.1,0c-0.1,0-0.1,0-0.2,0c0,0-0.1,0-0.1,0c-0.1,0-0.1,0-0.2,0
				c0,0-0.1,0-0.1,0c0,0,0,0,0,0c-0.1,0-0.2,0-0.3,0.1c0,0,0,0,0,0c-0.1,0-0.2,0.1-0.3,0.1c0,0,0,0-0.1,0c0,0-0.1,0-0.1,0
				c-0.1,0-0.1,0-0.2,0c0,0-0.1,0-0.1,0c0,0-0.1,0-0.1,0c0,0-0.1,0-0.1,0c-0.1,0-0.2,0.1-0.3,0.1c0,0-0.1,0-0.1,0
				c-0.1,0-0.2,0.1-0.4,0.1c-0.1,0-0.2,0.1-0.2,0.1c0,0-0.1,0-0.1,0c0,0,0,0-0.1,0c-0.1,0-0.2,0.1-0.4,0.1c-0.1,0-0.1,0-0.2,0.1
				c0,0-0.1,0-0.1,0c0,0-0.1,0-0.1,0c-0.1,0.1-0.3,0.1-0.4,0.2c0,0-0.1,0-0.1,0.1c0,0-0.1,0-0.1,0c-0.1,0-0.1,0.1-0.2,0.1
				c-0.1,0.1-0.3,0.1-0.4,0.2c0,0,0,0,0,0c0,0,0,0-0.1,0c-0.1,0-0.2,0.1-0.3,0.1c-0.1,0.1-0.2,0.1-0.3,0.2c0,0,0,0,0,0c0,0,0,0,0,0
				c-0.1,0.1-0.2,0.1-0.3,0.2c-0.1,0-0.1,0.1-0.2,0.1c0,0,0,0-0.1,0c0,0,0,0,0,0c-0.1,0.1-0.2,0.1-0.3,0.2c0,0-0.1,0.1-0.1,0.1
				c0,0-0.1,0.1-0.1,0.1c0,0-0.1,0.1-0.1,0.1c-0.1,0-0.1,0.1-0.2,0.1c-0.1,0.1-0.2,0.1-0.3,0.2c0,0-0.1,0-0.1,0.1
				c0,0-0.1,0.1-0.1,0.1c-0.2,0.1-0.3,0.3-0.5,0.4c0,0-0.1,0.1-0.1,0.1c0,0-0.1,0.1-0.1,0.1c-0.1,0.1-0.1,0.1-0.2,0.2
				c0,0-0.1,0.1-0.1,0.1c-0.1,0.1-0.1,0.1-0.2,0.2c0,0,0,0-0.1,0.1c0,0,0,0,0,0c-0.1,0.1-0.1,0.2-0.2,0.2c0,0-0.1,0.1-0.1,0.1
				c0,0,0,0,0,0c0,0,0,0,0,0.1c-0.1,0.1-0.1,0.1-0.2,0.2c0,0-0.1,0.1-0.1,0.1c0,0,0,0,0,0c0,0,0,0,0,0c-0.1,0.1-0.1,0.1-0.2,0.2
				c0,0.1-0.1,0.1-0.1,0.2c0,0,0,0,0,0c0,0,0,0,0,0c0,0.1-0.1,0.2-0.1,0.2c0,0.1-0.1,0.1-0.1,0.2c0,0,0,0,0,0c0,0,0,0,0,0
				c0,0.1-0.1,0.2-0.1,0.2c0,0.1-0.1,0.1-0.1,0.2l6,1.9C185.3,173.2,185.3,173,185.4,172.8C185.4,172.8,185.4,172.8,185.4,172.8z"/>
			<path class="st12" d="M180.2,177.9c0-0.1,0-0.2,0.1-0.3c0,0,0,0,0,0c0-0.1,0.1-0.2,0.1-0.3l0,0c0-0.1,0.1-0.2,0.2-0.3
				c0,0,0,0,0,0c0.1-0.1,0.1-0.2,0.2-0.3c0,0,0,0,0,0c0.1-0.1,0.1-0.2,0.2-0.3c0,0,0,0,0,0c0.1-0.1,0.2-0.2,0.3-0.3c0,0,0,0,0,0
				c0.1-0.1,0.2-0.2,0.3-0.3c0,0,0.1,0,0.1-0.1c0.1-0.1,0.1-0.1,0.2-0.2c0.1-0.1,0.2-0.2,0.3-0.2c0,0,0.1-0.1,0.1-0.1
				c0,0,0.1-0.1,0.1-0.1c0.1-0.1,0.2-0.1,0.3-0.2c0,0,0,0,0.1,0c0.1-0.1,0.2-0.2,0.4-0.2c0,0,0,0,0.1,0c0.1-0.1,0.3-0.2,0.4-0.2
				c0,0,0,0,0.1,0c0.1-0.1,0.3-0.2,0.4-0.2c0,0,0,0,0.1,0c0.1-0.1,0.3-0.1,0.4-0.2c0,0,0,0,0.1,0c0.2-0.1,0.3-0.1,0.5-0.2l-6-1.9
				c-0.1,0-0.1,0-0.2,0.1c-0.1,0-0.2,0.1-0.2,0.1c0,0,0,0-0.1,0c0,0,0,0-0.1,0c0,0-0.1,0-0.1,0.1c-0.1,0-0.2,0.1-0.2,0.1
				c0,0,0,0-0.1,0c0,0,0,0-0.1,0c0,0-0.1,0-0.1,0.1c-0.1,0-0.2,0.1-0.2,0.1c0,0,0,0-0.1,0c0,0,0,0-0.1,0c0,0-0.1,0-0.1,0.1
				c-0.1,0-0.1,0.1-0.2,0.1c0,0-0.1,0-0.1,0.1c0,0,0,0-0.1,0c0,0-0.1,0-0.1,0c-0.1,0-0.1,0.1-0.2,0.1c0,0-0.1,0-0.1,0.1
				c0,0,0,0-0.1,0c0,0-0.1,0-0.1,0.1c-0.1,0-0.1,0.1-0.2,0.1c0,0-0.1,0.1-0.1,0.1c0,0,0,0,0,0c0,0-0.1,0.1-0.1,0.1
				c-0.1,0.1-0.2,0.2-0.3,0.2c0,0,0,0-0.1,0c-0.1,0.1-0.1,0.1-0.2,0.2c0,0-0.1,0-0.1,0.1c0,0,0,0,0,0c-0.1,0.1-0.1,0.1-0.2,0.2
				c0,0-0.1,0.1-0.1,0.1c0,0,0,0,0,0c0,0,0,0,0,0c0,0-0.1,0.1-0.1,0.1c0,0-0.1,0.1-0.1,0.1c0,0,0,0,0,0c0,0,0,0,0,0
				c0,0-0.1,0.1-0.1,0.1c0,0-0.1,0.1-0.1,0.1c0,0,0,0,0,0.1c0,0,0,0,0,0c0,0,0,0,0,0.1c0,0.1-0.1,0.1-0.1,0.2c0,0,0,0.1-0.1,0.1
				c0,0,0,0,0,0c0,0,0,0,0,0c0,0.1-0.1,0.1-0.1,0.2c0,0.1,0,0.1-0.1,0.2l0,0l0,0c0,0.1,0,0.1-0.1,0.2c0,0.1,0,0.1,0,0.2c0,0,0,0,0,0
				c0,0,0,0,0,0c0,0,0,0.1,0,0.1c0,0,0,0.1,0,0.1c0,0,0,0,0,0.1c0,0,0,0,0,0c0,0,0,0,0,0c0,0,0,0.1,0,0.1c0,0,0,0.1,0,0.1
				c0,0,0,0,0,0c0,0.1,0,0.1,0,0.1c0,0,0,0.1,0,0.1c0,0,0,0,0,0c0,0,0,0,0,0c0,0,0,0.1,0,0.1c0,0,0,0.1,0,0.1c0,0,0,0,0,0.1
				c0,0,0,0,0,0c0,0,0,0,0,0.1c0,0.1,0,0.1,0.1,0.2c0,0,0,0,0,0c0,0,0,0,0,0c0,0,0,0.1,0,0.1c0,0,0.1,0.1,0.1,0.1c0,0,0,0,0,0
				c0,0,0,0,0,0c0.1,0.1,0.1,0.1,0.2,0.2c0,0,0,0,0,0c0,0,0,0,0,0c0.1,0.1,0.1,0.1,0.2,0.2c0,0,0.1,0,0.1,0.1c0.1,0,0.1,0.1,0.2,0.1
				c0,0,0.1,0,0.1,0c0.1,0,0.2,0.1,0.3,0.1l6,1.9c-0.1,0-0.2-0.1-0.3-0.1c0,0-0.1,0-0.1,0c-0.1,0-0.1-0.1-0.2-0.1c0,0-0.1,0-0.1-0.1
				c-0.1,0-0.1-0.1-0.2-0.2c0,0,0,0,0,0c-0.1-0.1-0.2-0.1-0.2-0.2c0,0,0,0,0,0c-0.1-0.1-0.1-0.1-0.2-0.2c0,0,0,0,0,0
				c0-0.1-0.1-0.2-0.1-0.2c0,0,0,0,0,0c0-0.1-0.1-0.2-0.1-0.3c0,0,0,0,0,0c0-0.1,0-0.2,0-0.3C180.2,178.2,180.2,178,180.2,177.9
				C180.2,177.9,180.2,177.9,180.2,177.9z"/>
			<g>
				<path class="st14" d="M193.4,167c-3.9,1.2-7.2,3.8-8.3,6.3c-2.8,1-5,3.2-5,5c0,1.9,2.5,2.7,5.6,1.7c1.3-0.4,14.8-4.6,16.2-5
					c2.2-0.7,3.9-2.3,3.9-3.6c0-1.3-1.7-1.9-3.8-1.2c0-0.2,0-0.3,0-0.5C202.1,166.7,198.2,165.5,193.4,167z"/>
			</g>
		</g>
		<g>
			<path class="st12" d="M159,194.8c0.1,0,0.3-0.1,0.4-0.1c0,0,0,0,0,0c0.1,0,0.3,0,0.4-0.1c0,0,0,0,0,0c0.1,0,0.3,0,0.4,0h0
				c0.1,0,0.2,0,0.3,0c0,0,0,0,0.1,0c0.1,0,0.2,0,0.3,0c0,0,0.1,0,0.1,0c0.1,0,0.1,0,0.2,0c0.1,0,0.2,0.1,0.4,0.1l-3.4-1.1
				c-0.1,0-0.2-0.1-0.4-0.1c0,0,0,0,0,0c-0.1,0-0.1,0-0.2,0c0,0-0.1,0-0.1,0c0,0,0,0,0,0c-0.1,0-0.2,0-0.3,0c0,0,0,0,0,0
				c0,0,0,0-0.1,0c0,0-0.1,0-0.1,0c-0.1,0-0.1,0-0.2,0h0h0c-0.1,0-0.1,0-0.2,0c-0.1,0-0.1,0-0.2,0l0,0c0,0,0,0,0,0
				c-0.1,0-0.1,0-0.2,0c-0.1,0-0.1,0-0.2,0c0,0,0,0,0,0c0,0,0,0,0,0c0,0-0.1,0-0.1,0c-0.1,0-0.1,0-0.2,0c0,0-0.1,0-0.1,0
				c0,0,0,0,0,0c0,0,0,0-0.1,0c-0.1,0-0.1,0-0.2,0c-0.1,0-0.1,0-0.2,0.1c0,0,0,0,0,0l3.4,1.1C158.7,194.9,158.8,194.9,159,194.8
				C159,194.8,159,194.8,159,194.8z"/>
			<path class="st13" d="M139,198.1c0.1-0.2,0.2-0.3,0.3-0.5c0,0,0,0,0,0c0.1-0.2,0.2-0.3,0.3-0.5c0,0,0,0,0,0
				c0.1-0.2,0.3-0.3,0.4-0.5c0,0,0,0,0.1-0.1c0.1-0.2,0.3-0.3,0.4-0.5c0,0,0.1-0.1,0.1-0.1c0.1-0.1,0.2-0.2,0.4-0.4
				c0.1-0.1,0.1-0.1,0.2-0.2c0.1-0.1,0.1-0.1,0.2-0.2c0.2-0.2,0.4-0.3,0.6-0.5c0.1-0.1,0.1-0.1,0.2-0.2c0.1-0.1,0.2-0.2,0.3-0.2
				c0.1-0.1,0.2-0.2,0.4-0.3c0,0,0.1-0.1,0.1-0.1c0.2-0.1,0.4-0.3,0.6-0.4c0,0,0.1,0,0.1,0c0.2-0.1,0.4-0.3,0.7-0.4c0,0,0,0,0,0
				c0.2-0.1,0.5-0.3,0.7-0.4c0,0,0.1,0,0.1,0c0.2-0.1,0.5-0.2,0.7-0.3c0,0,0.1,0,0.1-0.1c0.2-0.1,0.5-0.2,0.7-0.3c0,0,0.1,0,0.1,0
				c0.2-0.1,0.5-0.2,0.7-0.3c0,0,0.1,0,0.1,0c0.3-0.1,0.5-0.2,0.8-0.3c0.1,0,0.3-0.1,0.4-0.1c0.1,0,0.1,0,0.2,0
				c0.1,0,0.2-0.1,0.3-0.1c0,0,0.1,0,0.1,0c0.2,0,0.3-0.1,0.5-0.1l0,0l0,0c0.2,0,0.3-0.1,0.5-0.1c0,0,0.1,0,0.1,0
				c0.1,0,0.2,0,0.3-0.1c0.1,0,0.1,0,0.2,0c0.1,0,0.2,0,0.3,0c0.1,0,0.1,0,0.2,0c0.1,0,0.2,0,0.3,0c0.1,0,0.1,0,0.2,0
				c0.1,0,0.2,0,0.2,0c0.1,0,0.1,0,0.2,0c0.1,0,0.1,0,0.2,0c0.1,0,0.2,0,0.3,0c0.1,0,0.1,0,0.2,0c0.1,0,0.2,0,0.3,0
				c0.1,0,0.1,0,0.2,0c0.2,0,0.3,0,0.5,0c0,0,0,0,0,0c0.2,0,0.4,0.1,0.6,0.1c0,0,0.1,0,0.1,0c0.1,0,0.2,0,0.3,0.1c0,0,0.1,0,0.1,0
				c0.1,0,0.3,0.1,0.4,0.1l-7.1-2.2c-0.1,0-0.3-0.1-0.4-0.1c0,0-0.1,0-0.1,0c-0.1,0-0.2,0-0.3-0.1c0,0,0,0,0,0c0,0,0,0-0.1,0
				c-0.2,0-0.4-0.1-0.6-0.1c0,0,0,0,0,0c0,0,0,0,0,0c-0.2,0-0.3,0-0.5,0c0,0,0,0-0.1,0c0,0-0.1,0-0.1,0c-0.1,0-0.2,0-0.3,0
				c0,0-0.1,0-0.1,0c0,0,0,0-0.1,0c-0.1,0-0.2,0-0.3,0c0,0-0.1,0-0.1,0c0,0,0,0-0.1,0c-0.1,0-0.1,0-0.2,0c-0.1,0-0.1,0-0.2,0
				c0,0,0,0-0.1,0c-0.1,0-0.1,0-0.2,0c-0.1,0-0.1,0-0.2,0c0,0-0.1,0-0.1,0c-0.1,0-0.1,0-0.2,0c0,0-0.1,0-0.1,0c0,0-0.1,0-0.1,0
				c-0.1,0-0.1,0-0.2,0c0,0-0.1,0-0.1,0c-0.1,0-0.1,0-0.2,0c0,0-0.1,0-0.1,0c0,0,0,0-0.1,0c-0.1,0-0.3,0.1-0.4,0.1c0,0,0,0,0,0
				c-0.1,0-0.3,0.1-0.4,0.1c0,0,0,0-0.1,0c0,0-0.1,0-0.1,0c-0.1,0-0.1,0-0.2,0.1c0,0-0.1,0-0.1,0c-0.1,0-0.1,0-0.2,0
				c0,0-0.1,0-0.1,0c-0.1,0-0.2,0.1-0.3,0.1c0,0-0.1,0-0.1,0c-0.1,0-0.3,0.1-0.4,0.1c-0.1,0-0.2,0.1-0.3,0.1c0,0-0.1,0-0.1,0
				c0,0-0.1,0-0.1,0c-0.1,0.1-0.3,0.1-0.4,0.2c-0.1,0-0.1,0.1-0.2,0.1c0,0-0.1,0-0.1,0c0,0-0.1,0-0.1,0c-0.2,0.1-0.3,0.1-0.5,0.2
				c0,0-0.1,0-0.1,0.1c0,0-0.1,0-0.1,0.1c-0.1,0-0.1,0.1-0.2,0.1c-0.2,0.1-0.3,0.1-0.4,0.2c0,0,0,0,0,0c0,0-0.1,0-0.1,0
				c-0.1,0.1-0.2,0.1-0.3,0.2c-0.1,0.1-0.3,0.1-0.4,0.2c0,0,0,0,0,0c0,0,0,0,0,0c-0.1,0.1-0.3,0.2-0.4,0.2c-0.1,0.1-0.2,0.1-0.3,0.2
				c0,0-0.1,0-0.1,0c0,0,0,0-0.1,0c-0.1,0.1-0.3,0.2-0.4,0.3c0,0-0.1,0.1-0.1,0.1c0,0-0.1,0.1-0.1,0.1c0,0-0.1,0.1-0.1,0.1
				c-0.1,0.1-0.2,0.1-0.2,0.2c-0.1,0.1-0.2,0.1-0.3,0.2c0,0-0.1,0-0.1,0.1c0,0-0.1,0.1-0.1,0.1c-0.2,0.2-0.4,0.3-0.6,0.5
				c0,0-0.1,0.1-0.1,0.1c0,0-0.1,0.1-0.1,0.1c-0.1,0.1-0.1,0.1-0.2,0.2c-0.1,0.1-0.1,0.1-0.2,0.2c-0.1,0.1-0.1,0.1-0.2,0.2
				c0,0-0.1,0.1-0.1,0.1c0,0,0,0-0.1,0.1c-0.1,0.1-0.2,0.2-0.2,0.3c0,0-0.1,0.1-0.1,0.1c0,0,0,0,0,0.1c0,0,0,0-0.1,0.1
				c-0.1,0.1-0.1,0.2-0.2,0.3c0,0.1-0.1,0.1-0.1,0.2c0,0,0,0,0,0c0,0,0,0,0,0c-0.1,0.1-0.1,0.2-0.2,0.3c0,0.1-0.1,0.1-0.1,0.2
				c0,0,0,0,0,0c0,0,0,0,0,0c-0.1,0.1-0.1,0.2-0.2,0.3c0,0.1-0.1,0.1-0.1,0.2c0,0,0,0,0,0.1c0,0,0,0,0,0c0,0.1-0.1,0.2-0.1,0.3
				c0,0.1-0.1,0.1-0.1,0.2l7.1,2.2C138.8,198.5,138.8,198.3,139,198.1C138.9,198.2,139,198.1,139,198.1z"/>
			<path class="st12" d="M132.8,204.1c0-0.1,0-0.2,0.1-0.4c0,0,0,0,0,0c0-0.1,0.1-0.3,0.1-0.4l0,0c0.1-0.1,0.1-0.3,0.2-0.4
				c0,0,0,0,0,0c0.1-0.1,0.1-0.2,0.2-0.4c0,0,0,0,0,0c0.1-0.1,0.2-0.2,0.3-0.4c0,0,0,0,0,0c0.1-0.1,0.2-0.3,0.3-0.4c0,0,0,0,0,0
				c0.1-0.1,0.2-0.2,0.3-0.4c0,0,0.1-0.1,0.1-0.1c0.1-0.1,0.2-0.2,0.3-0.2c0.1-0.1,0.2-0.2,0.3-0.3c0.1,0,0.1-0.1,0.2-0.1
				c0,0,0.1-0.1,0.1-0.1c0.1-0.1,0.2-0.2,0.3-0.2c0,0,0.1,0,0.1-0.1c0.1-0.1,0.3-0.2,0.4-0.3c0,0,0,0,0.1,0c0.2-0.1,0.3-0.2,0.5-0.3
				c0,0,0,0,0.1,0c0.2-0.1,0.3-0.2,0.5-0.3c0,0,0,0,0.1,0c0.2-0.1,0.3-0.2,0.5-0.2c0,0,0,0,0.1,0c0.2-0.1,0.4-0.2,0.6-0.2l-7.1-2.2
				c-0.1,0-0.1,0.1-0.2,0.1c-0.1,0-0.2,0.1-0.3,0.1c0,0-0.1,0-0.1,0c0,0,0,0-0.1,0c0,0-0.1,0-0.1,0.1c-0.1,0-0.2,0.1-0.3,0.1
				c0,0-0.1,0-0.1,0c0,0,0,0-0.1,0c0,0-0.1,0-0.1,0.1c-0.1,0-0.2,0.1-0.3,0.1c0,0-0.1,0-0.1,0c0,0,0,0-0.1,0c0,0-0.1,0-0.1,0.1
				c-0.1,0-0.2,0.1-0.3,0.2c0,0-0.1,0-0.1,0.1c0,0,0,0-0.1,0c0,0-0.1,0-0.1,0.1c-0.1,0.1-0.2,0.1-0.3,0.2c0,0-0.1,0-0.1,0.1
				c0,0-0.1,0-0.1,0.1c0,0-0.1,0-0.1,0.1c-0.1,0.1-0.1,0.1-0.2,0.2c0,0-0.1,0.1-0.1,0.1c0,0,0,0,0,0c0,0-0.1,0.1-0.1,0.1
				c-0.1,0.1-0.2,0.2-0.3,0.3c0,0,0,0-0.1,0.1c-0.1,0.1-0.1,0.1-0.2,0.2c0,0-0.1,0.1-0.1,0.1c0,0,0,0,0,0c-0.1,0.1-0.1,0.1-0.2,0.2
				c0,0-0.1,0.1-0.1,0.1c0,0,0,0,0,0c0,0,0,0,0,0c-0.1,0.1-0.1,0.1-0.1,0.2c0,0.1-0.1,0.1-0.1,0.2c0,0,0,0,0,0c0,0,0,0,0,0
				c0,0-0.1,0.1-0.1,0.1c0,0.1-0.1,0.1-0.1,0.2c0,0,0,0.1,0,0.1c0,0,0,0,0,0c0,0,0,0,0,0.1c0,0.1-0.1,0.1-0.1,0.2c0,0,0,0.1-0.1,0.1
				c0,0,0,0,0,0c0,0,0,0,0,0c0,0.1-0.1,0.1-0.1,0.2c0,0.1-0.1,0.1-0.1,0.2l0,0l0,0c0,0.1,0,0.1-0.1,0.2c0,0.1,0,0.1-0.1,0.2
				c0,0,0,0,0,0c0,0,0,0,0,0c0,0,0,0.1,0,0.1c0,0.1,0,0.1,0,0.2c0,0,0,0.1,0,0.1c0,0,0,0,0,0c0,0,0,0,0,0.1c0,0.1,0,0.1,0,0.2
				c0,0.1,0,0.1,0,0.2c0,0,0,0,0,0c0,0.1,0,0.1,0,0.2c0,0.1,0,0.1,0,0.2c0,0,0,0,0,0c0,0,0,0,0,0c0,0,0,0.1,0,0.1c0,0.1,0,0.1,0,0.2
				c0,0,0,0,0,0.1c0,0,0,0,0,0c0,0,0,0,0,0.1c0,0.1,0.1,0.1,0.1,0.2c0,0,0,0,0,0c0,0,0,0,0,0.1c0,0,0,0.1,0.1,0.1
				c0,0.1,0.1,0.1,0.1,0.2c0,0,0,0,0,0c0,0,0,0,0,0c0.1,0.1,0.2,0.2,0.2,0.2c0,0,0,0,0,0c0,0,0,0,0,0c0.1,0.1,0.2,0.1,0.3,0.2
				c0,0,0.1,0,0.1,0.1c0.1,0,0.2,0.1,0.2,0.1c0,0,0.1,0,0.1,0c0.1,0.1,0.2,0.1,0.4,0.1l7.1,2.2c-0.1,0-0.3-0.1-0.4-0.1
				c0,0-0.1,0-0.1,0c-0.1,0-0.2-0.1-0.2-0.1c0,0-0.1,0-0.1-0.1c-0.1-0.1-0.2-0.1-0.3-0.2c0,0,0,0,0,0c-0.1-0.1-0.2-0.2-0.3-0.3
				c0,0,0,0,0,0c-0.1-0.1-0.1-0.2-0.2-0.3c0,0,0,0,0-0.1c-0.1-0.1-0.1-0.2-0.1-0.3c0,0,0,0,0,0c0-0.1-0.1-0.2-0.1-0.3c0,0,0,0,0,0
				c0-0.1,0-0.3,0-0.4C132.8,204.4,132.8,204.3,132.8,204.1C132.8,204.1,132.8,204.1,132.8,204.1z"/>
			<g>
				<path class="st14" d="M148.4,191.3c-4.6,1.4-8.4,4.5-9.7,7.4c-3.3,1.2-5.9,3.7-5.9,5.8c0,2.2,3,3.1,6.6,2
					c1.5-0.5,17.4-5.4,19-5.9c2.6-0.8,4.6-2.7,4.6-4.3c0-1.5-2-2.2-4.5-1.5c0-0.2,0-0.4,0-0.6C158.5,191,154,189.6,148.4,191.3z"/>
			</g>
		</g>
	</g>
	<g>
		<g>
			<path class="st21" d="M55,123.1c13.4-4.1,24.2-0.8,24.3,7.4l0.1,23.2L31,168.5l-0.1-23.2C30.9,137.1,41.7,127.2,55,123.1z"/>
			<path class="st22" d="M26.3,143.2c1.7-7.4,6.5-14.3,18.2-19.6c5.5-2.5,14-5,21.4-3.3c0.1,0,0.2,0,0.3,0.1
				c0.3,0.1,0.6,0.2,0.9,0.3l5.1,1.6c-0.3-0.1-0.6-0.2-0.9-0.3c-0.1,0-0.2,0-0.3-0.1c-0.2,0-0.4-0.1-0.6-0.1c-0.2,0-0.4-0.1-0.5-0.1
				c-0.1,0-0.2,0-0.3-0.1c-0.2,0-0.5-0.1-0.7-0.1c-0.1,0-0.1,0-0.2,0c-0.3,0-0.6-0.1-0.9-0.1c-0.1,0-0.2,0-0.2,0c-0.3,0-0.5,0-0.8,0
				c0,0-0.1,0-0.1,0c-0.3,0-0.6,0-0.8,0c-0.2,0-0.4,0-0.6,0c-0.2,0-0.3,0-0.5,0c-0.2,0-0.3,0-0.5,0c-0.2,0-0.4,0-0.6,0
				c-0.2,0-0.3,0-0.5,0c-0.2,0-0.4,0-0.6,0.1c-0.1,0-0.3,0-0.4,0.1c-0.2,0-0.4,0.1-0.7,0.1c-0.1,0-0.3,0-0.4,0.1
				c-0.2,0-0.5,0.1-0.7,0.1c-0.1,0-0.2,0-0.3,0.1c-0.4,0.1-0.7,0.1-1.1,0.2c-0.4,0.1-0.7,0.2-1.1,0.3c-0.1,0-0.2,0.1-0.4,0.1
				c-0.3,0.1-0.5,0.1-0.8,0.2c-0.1,0-0.3,0.1-0.4,0.1c-0.4,0.1-0.7,0.2-1.1,0.3c-0.4,0.1-0.8,0.2-1.2,0.4c0,0,0,0-0.1,0
				c-0.4,0.1-0.8,0.3-1.1,0.4c-0.1,0-0.3,0.1-0.4,0.1c-0.3,0.1-0.5,0.2-0.8,0.3c-0.2,0.1-0.3,0.1-0.5,0.2c-0.2,0.1-0.4,0.2-0.7,0.3
				c-0.2,0.1-0.3,0.1-0.5,0.2c-0.2,0.1-0.4,0.2-0.6,0.3c-0.2,0.1-0.3,0.2-0.5,0.2c-0.2,0.1-0.4,0.2-0.6,0.3
				c-0.2,0.1-0.3,0.2-0.5,0.2c-0.2,0.1-0.4,0.2-0.6,0.3c-0.2,0.1-0.3,0.2-0.5,0.2c-0.2,0.1-0.4,0.2-0.6,0.3
				c-0.1,0.1-0.3,0.2-0.4,0.2c-0.2,0.1-0.5,0.3-0.7,0.4c-0.1,0.1-0.2,0.1-0.3,0.2c-0.3,0.2-0.7,0.4-1,0.6c-0.1,0-0.1,0.1-0.2,0.1
				c-0.3,0.2-0.5,0.4-0.8,0.5c-0.3,0.2-0.7,0.5-1,0.7c0,0,0,0,0,0c-0.5,0.3-0.9,0.7-1.4,1c-0.1,0.1-0.2,0.2-0.3,0.2
				c-0.2,0.1-0.3,0.3-0.5,0.4c-0.1,0.1-0.3,0.2-0.4,0.4c-0.2,0.1-0.3,0.3-0.5,0.4c-0.1,0.1-0.2,0.2-0.4,0.3c-0.4,0.3-0.7,0.7-1,1
				c-0.1,0.1-0.2,0.2-0.4,0.4c-0.1,0.1-0.3,0.3-0.4,0.4c-0.2,0.2-0.3,0.4-0.5,0.6c-0.1,0.1-0.1,0.1-0.2,0.2
				c-0.2,0.2-0.4,0.5-0.6,0.7c-0.1,0.1-0.1,0.1-0.2,0.2c-0.1,0.2-0.3,0.4-0.4,0.5c-0.1,0.1-0.1,0.2-0.2,0.2
				c-0.1,0.2-0.3,0.3-0.4,0.5c-0.1,0.1-0.1,0.1-0.2,0.2c-0.2,0.2-0.3,0.5-0.5,0.7c0,0,0,0,0,0.1c-0.2,0.2-0.3,0.5-0.4,0.7
				c0,0.1-0.1,0.2-0.1,0.2c-0.1,0.2-0.2,0.3-0.3,0.5c0,0.1-0.1,0.2-0.1,0.3c-0.1,0.2-0.2,0.3-0.2,0.5c0,0.1-0.1,0.2-0.1,0.3
				c-0.1,0.2-0.1,0.3-0.2,0.5c0,0.1-0.1,0.2-0.1,0.3c-0.1,0.2-0.1,0.4-0.2,0.6c0,0,0,0.1,0,0.1c-0.1,0.2-0.1,0.5-0.2,0.7
				c0,0.1,0,0.1,0,0.2c0,0.2-0.1,0.3-0.1,0.5c0,0.1,0,0.2,0,0.2c0,0.2,0,0.3-0.1,0.5c0,0.1,0,0.2,0,0.2c0,0.2,0,0.5,0,0.7l0.1,23.2
				l-5.1-1.6C25.9,159.3,24.5,150.9,26.3,143.2z"/>
			<path class="st23" d="M66.9,131.7L40.1,140c-1.5,0.5-2.5,1.3-2.5,2.3l0,0.2c0,1.9,3.8,3,6.8,2.1l27.5-8.5
				c1.4-0.4,2.3-1.2,2.3-2.1C74.3,132,70.2,130.7,66.9,131.7z"/>
		</g>
		<polygon class="st21" points="127.8,145.4 127.6,168.6 202.3,145.4 202.5,122.2 		"/>
		<path class="st21" d="M88.3,121.7c0.2,0,0.4-0.1,0.5-0.1c0.1,0,0.2,0,0.3-0.1c0.2,0,0.5-0.1,0.7-0.1c0.1,0,0.1,0,0.2,0
			c0.3,0,0.6-0.1,0.9-0.1c0.1,0,0.2,0,0.2,0c0.3,0,0.5,0,0.8,0c0,0,0.1,0,0.1,0c0.3,0,0.6,0,0.8,0c0.2,0,0.4,0,0.6,0
			c0.2,0,0.3,0,0.5,0c0.2,0,0.3,0,0.5,0c0.2,0,0.4,0,0.6,0c0.2,0,0.3,0,0.5,0c0.2,0,0.4,0,0.6,0.1c0.1,0,0.3,0,0.4,0.1
			c0.2,0,0.4,0.1,0.7,0.1c0.1,0,0.3,0,0.4,0.1c0.2,0,0.5,0.1,0.7,0.1c0.1,0,0.2,0,0.3,0.1c0.4,0.1,0.7,0.1,1.1,0.2c0,0,0,0,0,0
			c0.4,0.1,0.7,0.2,1.1,0.3c0.1,0,0.2,0.1,0.4,0.1c0.3,0.1,0.5,0.1,0.8,0.2c0.1,0,0.3,0.1,0.4,0.1c0.4,0.1,0.7,0.2,1.1,0.3
			l74.7-23.1c-0.3-0.1-0.5-0.2-0.8-0.2c-0.1,0-0.2-0.1-0.3-0.1c-0.1,0-0.3-0.1-0.4-0.1c-0.1,0-0.2-0.1-0.3-0.1
			c-0.2,0-0.3-0.1-0.5-0.1c-0.1,0-0.2-0.1-0.3-0.1c0,0-0.1,0-0.1,0c-0.3-0.1-0.6-0.2-1-0.2l0,0c0,0,0,0,0,0c-0.3-0.1-0.7-0.1-1-0.2
			c0,0-0.1,0-0.1,0c-0.1,0-0.2,0-0.3-0.1c-0.2,0-0.3-0.1-0.5-0.1c-0.1,0-0.2,0-0.2,0c-0.1,0-0.3,0-0.4-0.1c-0.1,0-0.2,0-0.3,0
			c-0.1,0-0.2,0-0.3,0c-0.1,0-0.3,0-0.4-0.1c-0.1,0-0.2,0-0.2,0c-0.1,0-0.3,0-0.4,0c-0.2,0-0.3,0-0.5,0c-0.1,0-0.1,0-0.2,0
			c-0.1,0-0.3,0-0.4,0c-0.2,0-0.3,0-0.5,0c-0.1,0-0.1,0-0.2,0c-0.1,0-0.2,0-0.3,0c-0.2,0-0.4,0-0.6,0c-0.1,0-0.1,0-0.2,0
			c-0.2,0-0.4,0-0.7,0c0,0-0.1,0-0.1,0c-0.2,0-0.3,0-0.5,0c-0.1,0-0.2,0-0.3,0c-0.1,0-0.2,0-0.2,0c-0.3,0-0.6,0-0.8,0.1c0,0,0,0,0,0
			c-0.1,0-0.2,0-0.2,0c-0.2,0-0.5,0.1-0.7,0.1c-0.1,0-0.2,0-0.3,0.1c-0.1,0-0.3,0-0.4,0.1c0,0-0.1,0-0.1,0c-0.2,0-0.4,0.1-0.6,0.1
			c-0.1,0-0.2,0-0.3,0.1c-0.3,0.1-0.6,0.2-0.9,0.3l-74.7,23.1c0.3-0.1,0.6-0.2,0.9-0.3c0.1,0,0.2,0,0.3-0.1
			C87.9,121.8,88.1,121.8,88.3,121.7z"/>
		<path class="st24" d="M103.7,123.1c-13.4-4.1-24.2-0.8-24.3,7.4l-0.1,23.2l48.4,14.9l0.1-23.2C127.8,137.2,117,127.2,103.7,123.1z
			"/>
		<path class="st25" d="M106,123.9c0.1,0,0.3,0.1,0.4,0.1c0.3,0.1,0.5,0.2,0.8,0.3c0.2,0.1,0.3,0.1,0.5,0.2c0.2,0.1,0.4,0.2,0.7,0.3
			c0.2,0.1,0.3,0.1,0.5,0.2c0.2,0.1,0.4,0.2,0.6,0.3c0.2,0.1,0.3,0.2,0.5,0.2c0.2,0.1,0.4,0.2,0.6,0.3c0.2,0.1,0.3,0.2,0.5,0.2
			c0.2,0.1,0.4,0.2,0.6,0.3c0.2,0.1,0.3,0.2,0.5,0.2c0.2,0.1,0.4,0.2,0.6,0.3c0.1,0.1,0.3,0.2,0.4,0.2c0.2,0.1,0.5,0.3,0.7,0.4
			c0.1,0.1,0.2,0.1,0.3,0.2c0.3,0.2,0.7,0.4,1,0.6c0.1,0,0.1,0.1,0.2,0.1c0.3,0.2,0.5,0.4,0.8,0.5c0.3,0.2,0.7,0.5,1,0.7
			c0,0,0,0,0,0c0.5,0.3,0.9,0.7,1.4,1c0.1,0.1,0.2,0.2,0.3,0.2c0.2,0.1,0.3,0.3,0.5,0.4c0.1,0.1,0.3,0.2,0.4,0.4
			c0.2,0.1,0.3,0.3,0.5,0.4c0.1,0.1,0.2,0.2,0.4,0.3c0.4,0.3,0.7,0.7,1,1c0.1,0.1,0.2,0.2,0.4,0.4c0.1,0.1,0.3,0.3,0.4,0.4
			c0.2,0.2,0.3,0.4,0.5,0.6c0.1,0.1,0.1,0.1,0.2,0.2c0.2,0.2,0.4,0.5,0.6,0.7c0.1,0.1,0.1,0.1,0.2,0.2c0.1,0.2,0.3,0.4,0.4,0.5
			c0.1,0.1,0.1,0.2,0.2,0.2c0.1,0.2,0.3,0.3,0.4,0.5c0.1,0.1,0.1,0.1,0.2,0.2c0.2,0.2,0.3,0.5,0.5,0.7c0,0,0,0,0,0.1
			c0.2,0.2,0.3,0.5,0.4,0.7c0,0.1,0.1,0.2,0.1,0.2c0.1,0.2,0.2,0.3,0.3,0.5c0,0.1,0.1,0.2,0.1,0.3c0.1,0.2,0.2,0.3,0.2,0.5
			c0,0.1,0.1,0.2,0.1,0.3c0.1,0.2,0.1,0.3,0.2,0.5c0,0.1,0.1,0.2,0.1,0.3c0.1,0.2,0.1,0.4,0.2,0.6c0,0,0,0.1,0,0.1
			c0.1,0.2,0.1,0.5,0.2,0.7c0,0.1,0,0.1,0,0.2c0,0.2,0.1,0.3,0.1,0.5c0,0.1,0,0.2,0,0.2c0,0.2,0,0.3,0.1,0.5c0,0.1,0,0.2,0,0.2
			c0,0.2,0,0.5,0,0.7l74.7-23.1c0-0.2,0-0.4,0-0.6c0,0,0-0.1,0-0.1c0-0.1,0-0.2,0-0.2c0-0.1,0-0.2,0-0.3c0-0.1,0-0.1,0-0.2
			c0-0.1,0-0.2,0-0.2c0-0.1,0-0.1,0-0.2c0-0.1,0-0.2-0.1-0.4c0-0.1,0-0.1,0-0.2c0,0,0,0,0-0.1c-0.1-0.2-0.1-0.4-0.2-0.6c0,0,0,0,0,0
			c0,0,0-0.1,0-0.1c-0.1-0.2-0.1-0.4-0.2-0.5c0,0,0-0.1,0-0.1c0-0.1-0.1-0.2-0.1-0.3c0-0.1-0.1-0.2-0.1-0.3c0-0.1-0.1-0.1-0.1-0.2
			c0-0.1-0.1-0.2-0.1-0.3c0-0.1-0.1-0.1-0.1-0.2c0-0.1-0.1-0.2-0.1-0.3c0-0.1-0.1-0.2-0.1-0.3c0,0,0-0.1-0.1-0.1
			c-0.1-0.1-0.1-0.2-0.2-0.4c0-0.1-0.1-0.2-0.1-0.2c0,0,0,0,0-0.1c-0.1-0.2-0.3-0.4-0.4-0.7c0,0,0,0,0,0c0,0,0,0,0-0.1
			c-0.1-0.2-0.3-0.4-0.4-0.6c0,0,0-0.1-0.1-0.1c-0.1-0.1-0.1-0.1-0.2-0.2c-0.1-0.1-0.1-0.2-0.2-0.3c0-0.1-0.1-0.1-0.2-0.2
			c-0.1-0.1-0.1-0.2-0.2-0.2c0-0.1-0.1-0.1-0.1-0.2c-0.1-0.1-0.2-0.2-0.3-0.4c-0.1-0.1-0.1-0.1-0.2-0.2c0,0,0,0-0.1-0.1
			c-0.2-0.2-0.3-0.4-0.5-0.6c0,0,0,0,0,0c-0.1-0.1-0.1-0.1-0.2-0.2c-0.1-0.2-0.3-0.3-0.4-0.5c0,0,0,0-0.1-0.1
			c-0.1-0.1-0.3-0.3-0.4-0.4c-0.1-0.1-0.2-0.2-0.3-0.3c0,0,0,0-0.1-0.1c-0.3-0.3-0.7-0.7-1-1c0,0-0.1-0.1-0.1-0.1
			c-0.1-0.1-0.2-0.2-0.3-0.2c-0.2-0.1-0.3-0.3-0.5-0.4c-0.1-0.1-0.3-0.2-0.4-0.4c-0.2-0.1-0.3-0.3-0.5-0.4c-0.1,0-0.1-0.1-0.2-0.1
			c-0.1,0-0.1-0.1-0.2-0.1c-0.4-0.4-0.9-0.7-1.4-1c0,0,0,0,0,0c0,0,0,0,0,0c-0.3-0.2-0.7-0.5-1-0.7c0,0,0,0,0,0
			c-0.3-0.2-0.5-0.3-0.8-0.5c-0.1,0-0.1-0.1-0.2-0.1c0,0,0,0,0,0c-0.3-0.2-0.6-0.4-0.9-0.6c0,0,0,0,0,0c-0.1-0.1-0.2-0.1-0.3-0.2
			c-0.2-0.1-0.4-0.2-0.6-0.4c0,0-0.1,0-0.1-0.1c-0.1-0.1-0.3-0.2-0.4-0.2c-0.2-0.1-0.3-0.2-0.5-0.3c-0.1,0-0.1-0.1-0.2-0.1
			c-0.2-0.1-0.3-0.2-0.5-0.2c-0.1-0.1-0.3-0.1-0.4-0.2c-0.1,0-0.2-0.1-0.2-0.1c-0.2-0.1-0.3-0.2-0.5-0.2c-0.1-0.1-0.2-0.1-0.3-0.2
			c-0.1,0-0.2-0.1-0.3-0.1c-0.2-0.1-0.3-0.2-0.5-0.2c-0.1,0-0.2-0.1-0.3-0.1c-0.1,0-0.2-0.1-0.3-0.1c-0.2-0.1-0.3-0.1-0.5-0.2
			c-0.1,0-0.2-0.1-0.3-0.1c-0.1-0.1-0.3-0.1-0.4-0.2c-0.2-0.1-0.3-0.1-0.5-0.2c-0.1,0-0.1-0.1-0.2-0.1c-0.2-0.1-0.4-0.1-0.6-0.2
			c-0.1,0-0.3-0.1-0.4-0.1c0,0-0.1,0-0.1,0c-0.3-0.1-0.7-0.2-1-0.4c0,0,0,0,0,0c0,0,0,0-0.1,0c-0.3-0.1-0.6-0.2-0.9-0.3
			c-0.1,0-0.2,0-0.2-0.1l-74.7,23.1c0.4,0.1,0.8,0.2,1.2,0.4c0,0,0,0,0.1,0C105.3,123.6,105.7,123.8,106,123.9z"/>
		<path class="st21" d="M127.8,145.4c0-2-0.6-4-1.7-6.1l-44,13.6l42.9,13.2l2.8-0.9L127.8,145.4z"/>
		<path class="st22" d="M103.7,123.1c-13.4-4.1-24.2-0.8-24.3,7.4l-0.1,23.2l48.4,14.9l0.1-23.2C127.8,137.2,117,127.2,103.7,123.1z
			 M124.9,166L82,152.8l0.1-22.4c0-4.8,4-7.7,10.7-7.7c2.9,0,6.1,0.5,9.5,1.6c12.6,3.9,22.8,13.3,22.7,21L124.9,166z"/>
		<g>
			<path class="st26" d="M165,121.7l-2.9-2c-0.4-0.3-0.5-0.7-0.3-1l3-4c0.3-0.4-0.6-0.8-1.3-0.6l-15.7,4.8l0,8.7l17-5.2
				C165.3,122.3,165.4,121.9,165,121.7z"/>
			<g>
				<g>
					<polygon class="st26" points="145.3,144.2 156.8,140.7 156.7,145.9 145.3,149.4 					"/>
					<polygon class="st27" points="138.5,142 150,138.6 156.8,140.7 145.3,144.2 					"/>
					<polygon class="st28" points="145.3,144.2 145.3,149.4 138.5,150.1 138.5,142 					"/>
				</g>
				<g>
					<g class="st7">
						<g>
							<polygon class="st17" points="147.3,142.5 143.9,141.4 144.3,119 147.7,120.1 							"/>
						</g>
						<g>
							<polygon class="st16" points="147.7,120.1 144.3,119 147.8,118 151.2,119.1 							"/>
						</g>
						<g>
							<polygon class="st15" points="151.2,119.1 150.7,141.5 147.3,142.5 147.7,120.1 							"/>
						</g>
					</g>
				</g>
			</g>
		</g>
		<g>
			<defs>
				<path id="SVGID_1_" d="M103.7,123.1c-13.4-4.1-38.4,2.7-38.5,10.9l-4.3,32l66.7,2.5l0.1-23.2C127.8,137.2,117,127.2,103.7,123.1
					z"/>
			</defs>
			<clipPath id="SVGID_2_">
				<use xlink:href="#SVGID_1_"  style="overflow:visible;"/>
			</clipPath>
			<g class="st29">
				<g>
					<path class="st30" d="M114.7,128.9C114.7,128.9,114.7,128.9,114.7,128.9c-0.1,0-0.2,0-0.2-0.1c0,0,0,0,0,0c0,0,0,0-0.1,0
						c0,0-0.1,0-0.1,0c0,0,0,0-0.1,0c0,0-0.1,0-0.1,0c0,0-0.1,0-0.1,0c0,0-0.1,0-0.1,0c0,0-0.1,0-0.1,0c0,0,0,0-0.1,0
						c0,0-0.1,0-0.1,0c0,0-0.1,0-0.1,0c0,0,0,0,0,0c-0.1,0-0.1,0-0.2,0c0,0,0,0,0,0l0,0c0,0,0,0,0,0c0,0-0.1,0-0.1,0c0,0,0,0-0.1,0
						c0,0,0,0-0.1,0c0,0-0.1,0-0.1,0c0,0,0,0-0.1,0c0,0,0,0,0,0c0,0-0.1,0-0.1,0c0,0,0,0-0.1,0c0,0-0.1,0-0.1,0c0,0,0,0-0.1,0
						c0,0-0.1,0-0.1,0c0,0,0,0-0.1,0l0,0c0,0,0,0,0,0c0,0-0.1,0-0.1,0c0,0-0.1,0-0.4,0.1l-39.5,12.2c0,0-0.1,0-0.3,0.1h0
						c-0.1,0-0.1,0.1-0.2,0.1c0,0,0,0-0.1,0c0,0-0.1,0-0.1,0.1c0,0,0,0,0,0c0,0,0,0,0,0c0,0,0,0,0,0c0,0-0.1,0-0.1,0.1
						c0,0,0,0-0.1,0c0,0-0.1,0-0.1,0.1l0,0c-0.2,0.1-0.3,0.2-0.5,0.3c0,0,0,0,0,0c-0.1,0-0.1,0.1-0.2,0.1c0,0-0.1,0.1-0.1,0.1
						c0,0,0,0,0,0c-0.1,0.1-0.2,0.1-0.3,0.2c0,0,0,0,0,0c0,0,0,0-0.1,0c-0.1,0-0.1,0.1-0.2,0.1c0,0,0,0-0.1,0.1c0,0-0.1,0-0.1,0.1
						c0,0,0,0-0.1,0.1c-0.1,0-0.1,0.1-0.2,0.1c0,0,0,0,0,0c0,0,0,0,0,0c0,0,0,0,0,0h0c0,0,0,0,0,0c0,0,0,0,0,0c0,0,0,0,0,0
						c0,0-0.1,0.1-0.1,0.1c0,0,0,0,0,0c0,0,0,0-0.1,0.1l0,0c0,0,0,0,0,0.1c0,0,0,0-0.1,0.1c0,0,0,0.1-0.1,0.1c0,0,0,0.1-0.1,0.1
						c0,0,0,0,0,0c0,0-0.1,0.1-0.1,0.1c0,0,0,0,0,0.1c0,0,0,0,0,0c0,0.1-0.1,0.2-0.1,0.2c0,0,0,0,0,0c0,0.1,0,0.1-0.1,0.2
						c0,0,0,0.1,0,0.1c0,0,0,0,0,0c0,0.1-0.1,0.2-0.1,0.3c0,0,0,0,0,0c0,0,0,0.1,0,0.1c0,0,0,0.1,0,0.1c0,0.1,0,0.2,0,0.2l0.1,12.9
						l0,0c0,0.1,0,0.2,0,0.2c0,0,0,0,0,0.1c0,0.1,0,0.1,0,0.2c0,0,0,0,0,0.1c0,0,0,0.1,0.1,0.1c0,0,0,0,0,0.1c0,0.1,0.1,0.1,0.1,0.2
						c0,0,0,0,0,0c0,0.1,0.1,0.1,0.2,0.2c0,0,0,0,0.1,0c0,0,0.1,0.1,0.1,0.1c0,0,0,0,0.1,0c0,0,0,0,0.1,0c0,0,0,0,0,0
						c0.1,0.1,0.2,0.1,0.4,0.2l4.1,1.3c-0.2-0.1-0.3-0.1-0.5-0.2c0,0,0,0-0.1,0c0,0-0.1-0.1-0.1-0.1c0,0,0,0-0.1,0
						c-0.1,0-0.1-0.1-0.2-0.2c0,0,0,0,0,0c0-0.1-0.1-0.1-0.1-0.2c0,0,0,0,0-0.1c0,0,0-0.1-0.1-0.1c0,0,0,0,0-0.1c0,0,0-0.1,0-0.2
						c0,0,0,0,0-0.1c0-0.1,0-0.2,0-0.2v0l-0.1-12.9c0-0.1,0-0.2,0-0.2c0,0,0-0.1,0-0.1c0-0.1,0-0.1,0-0.2c0-0.1,0.1-0.2,0.1-0.3
						c0,0,0-0.1,0-0.1c0,0,0-0.1,0.1-0.1c0-0.1,0.1-0.2,0.1-0.2c0,0,0,0,0-0.1c0-0.1,0.1-0.1,0.1-0.2c0,0,0-0.1,0.1-0.1
						c0-0.1,0.1-0.1,0.1-0.2c0,0,0,0,0.1-0.1c0,0,0,0,0,0c0.1-0.1,0.1-0.2,0.2-0.2c0,0,0,0,0,0c0.1-0.1,0.2-0.1,0.2-0.2
						c0,0,0.1,0,0.1-0.1c0.1-0.1,0.2-0.1,0.2-0.2c0,0,0,0,0.1,0c0.1-0.1,0.2-0.2,0.3-0.2c0,0,0.1-0.1,0.1-0.1c0.1,0,0.1-0.1,0.2-0.1
						c0.1-0.1,0.3-0.2,0.4-0.2c0.1,0,0.2-0.1,0.3-0.1c0,0,0.1,0,0.1-0.1c0,0,0,0,0,0c0.1-0.1,0.3-0.1,0.4-0.2
						c0.2-0.1,0.3-0.1,0.3-0.1l39.5-12.2c0.3-0.1,0.3-0.1,0.4-0.1c0.1,0,0.3-0.1,0.4-0.1c0,0,0,0,0,0c0.1,0,0.2,0,0.3-0.1
						c0.1,0,0.2,0,0.3,0c0,0,0.1,0,0.1,0c0,0,0.1,0,0.1,0c0.1,0,0.1,0,0.2,0c0,0,0.1,0,0.1,0c0.1,0,0.1,0,0.2,0c0,0,0.1,0,0.1,0
						c0.1,0,0.1,0,0.2,0c0,0,0.1,0,0.1,0c0.1,0,0.1,0,0.2,0c0,0,0,0,0.1,0c0.1,0,0.2,0,0.2,0.1L114.7,128.9z"/>
					<g>
						<path class="st31" d="M118.6,147C118.6,147,118.5,147,118.6,147c0,0,0.1-0.1,0.1-0.1C118.7,146.9,118.6,146.9,118.6,147
							c0.1-0.1,0.1-0.1,0.2-0.2c0,0,0,0,0,0c0,0,0,0,0,0c0,0,0,0,0,0c0.1-0.1,0.1-0.1,0.2-0.2c0,0-0.1,0.1-0.1,0.1
							c0.1-0.1,0.1-0.1,0.2-0.2c0,0,0,0,0,0c0.1-0.1,0.1-0.2,0.2-0.2c-0.1,0.1-0.1,0.1-0.2,0.2c0.1-0.1,0.1-0.1,0.2-0.2c0,0,0,0,0,0
							c0,0,0,0,0,0c0,0,0,0,0,0l0,0l0,0l0,0l0,0l0,0c0.5-0.6,0.8-1.2,0.8-1.8l-0.1-12.9c0-0.6-0.3-1-0.8-1.3l0,0l0,0v0l0,0
							c-0.1,0-0.2-0.1-0.3-0.1c0,0,0,0,0,0c0,0,0,0,0,0c0,0,0,0,0,0c0,0,0,0,0,0c0,0,0,0,0,0c-0.1,0-0.2-0.1-0.3-0.1c0,0,0,0,0,0
							c0,0,0,0,0,0c-0.6-0.2-1.5-0.2-2.5,0.1c0,0-0.1,0-0.4,0.1l-39.5,12.2c0,0-0.1,0-0.3,0.1c-1.2,0.5-2.2,1.1-2.8,1.9l0,0
							c0,0,0,0,0,0l0,0l0,0l0,0c-0.5,0.6-0.8,1.2-0.8,1.8l0.1,12.9c0,0.6,0.3,1,0.8,1.3l0,0l0,0l0,0l0,0l0,0c0,0,0,0,0,0
							c0,0,0.1,0,0.1,0c0,0,0,0,0,0c0,0,0.1,0,0.1,0c0,0,0,0,0,0c0.1,0,0.2,0.1,0.2,0.1c0,0,0,0-0.1,0c0.4,0.2,1,0.2,1.8,0.1
							c0,0,0.1,0,0.3,0c0,0,0.1,0,0.3-0.1c0,0,0.1,0,0.3-0.1c0,0,0.1,0,0.4-0.1l39.5-12.2c0,0,0.1,0,0.3-0.1c0,0,0.1,0,0.3-0.1
							c0.6-0.3,1.2-0.6,1.7-1c0,0-0.1,0-0.1,0.1c0,0,0.1-0.1,0.1-0.1C118.5,147.1,118.5,147.1,118.6,147
							C118.5,147.1,118.5,147,118.6,147z"/>
						<path class="st32" d="M118.8,146.8C118.8,146.8,118.8,146.8,118.8,146.8C118.8,146.8,118.8,146.8,118.8,146.8z"/>
						<path class="st32" d="M118.6,147C118.6,147,118.6,147,118.6,147C118.6,147,118.6,147,118.6,147z"/>
						<path class="st32" d="M73.3,160.6C73.3,160.6,73.3,160.6,73.3,160.6C73.3,160.6,73.3,160.6,73.3,160.6z"/>
						<path class="st32" d="M73.1,144.6c0.1-0.1,0.2-0.2,0.3-0.3C73.2,144.4,73.2,144.5,73.1,144.6z"/>
					</g>
					<g>
						<path class="st33" d="M104.4,142.9l14.9,3.4c-0.6,0.7-1.5,1.3-2.5,1.8c-0.2,0.1-0.3,0.1-0.3,0.1c-0.2,0.1-0.3,0.1-0.3,0.1
							l-39.5,12.2c-0.3,0.1-0.3,0.1-0.4,0.1c-0.2,0.1-0.3,0.1-0.3,0.1c-0.2,0-0.3,0.1-0.3,0.1c-0.2,0-0.3,0-0.3,0
							c-1,0.1-1.6,0-2.1-0.3L87.9,148l5.7,1.3c0.7,0.2,1.7,0.1,2.6-0.2c0.9-0.3,1.8-0.8,2.6-1.4L104.4,142.9z"/>
					</g>
					<g>
						<path class="st34" d="M115.8,130.4c0.3-0.1,0.3-0.1,0.4-0.1c1.3-0.3,2.4-0.2,3,0.1l-14.8,12.5l-5.7,4.8
							c-0.7,0.6-1.6,1.1-2.6,1.4c-0.9,0.3-1.8,0.4-2.6,0.2l-5.7-1.3l-14.9-3.4c0.7-0.8,1.7-1.5,2.8-1.9c0.2-0.1,0.3-0.1,0.3-0.1
							L115.8,130.4z"/>
					</g>
				</g>
				<g>
					<path class="st35" d="M115.1,132.9C115.1,132.9,115.1,132.9,115.1,132.9c-0.1,0-0.2,0-0.2-0.1c0,0,0,0,0,0c0,0,0,0-0.1,0
						c0,0-0.1,0-0.1,0c0,0,0,0-0.1,0c0,0-0.1,0-0.1,0c0,0-0.1,0-0.1,0c0,0-0.1,0-0.1,0c0,0-0.1,0-0.1,0c0,0,0,0-0.1,0
						c0,0-0.1,0-0.1,0c0,0-0.1,0-0.1,0c0,0,0,0,0,0c-0.1,0-0.1,0-0.2,0c0,0,0,0,0,0l0,0c0,0,0,0,0,0c0,0-0.1,0-0.1,0c0,0,0,0-0.1,0
						c0,0,0,0-0.1,0c0,0-0.1,0-0.1,0c0,0,0,0-0.1,0c0,0,0,0,0,0c0,0-0.1,0-0.1,0c0,0,0,0-0.1,0c0,0-0.1,0-0.1,0c0,0,0,0-0.1,0
						c0,0-0.1,0-0.1,0c0,0,0,0-0.1,0l0,0c0,0,0,0,0,0c0,0-0.1,0-0.1,0c0,0-0.1,0-0.4,0.1l-39.5,12.2c0,0-0.1,0-0.3,0.1l0,0
						c-0.1,0-0.1,0.1-0.2,0.1c0,0,0,0-0.1,0c0,0-0.1,0-0.1,0.1c0,0,0,0,0,0c0,0,0,0,0,0c0,0,0,0,0,0c0,0-0.1,0-0.1,0.1
						c0,0,0,0-0.1,0c0,0-0.1,0-0.1,0.1l0,0c-0.2,0.1-0.3,0.2-0.5,0.3c0,0,0,0,0,0c-0.1,0-0.1,0.1-0.2,0.1c0,0-0.1,0.1-0.1,0.1
						c0,0,0,0,0,0c-0.1,0.1-0.2,0.1-0.3,0.2c0,0,0,0,0,0c0,0,0,0-0.1,0c-0.1,0-0.1,0.1-0.2,0.1c0,0,0,0-0.1,0.1c0,0-0.1,0-0.1,0.1
						c0,0,0,0-0.1,0.1c-0.1,0-0.1,0.1-0.2,0.1c0,0,0,0,0,0c0,0,0,0,0,0c0,0,0,0,0,0l0,0c0,0,0,0,0,0c0,0,0,0,0,0c0,0,0,0,0,0
						c0,0-0.1,0.1-0.1,0.1c0,0,0,0,0,0c0,0,0,0-0.1,0.1l0,0c0,0,0,0,0,0.1c0,0,0,0-0.1,0.1c0,0,0,0.1-0.1,0.1c0,0,0,0.1-0.1,0.1
						c0,0,0,0,0,0c0,0-0.1,0.1-0.1,0.1c0,0,0,0,0,0.1c0,0,0,0,0,0c0,0.1-0.1,0.2-0.1,0.2c0,0,0,0,0,0c0,0.1,0,0.1-0.1,0.2
						c0,0,0,0.1,0,0.1c0,0,0,0,0,0c0,0.1-0.1,0.2-0.1,0.3c0,0,0,0,0,0c0,0,0,0.1,0,0.1c0,0,0,0.1,0,0.1c0,0.1,0,0.2,0,0.2l0.1,12.9
						l0,0c0,0.1,0,0.2,0,0.2c0,0,0,0,0,0.1c0,0.1,0,0.1,0,0.2c0,0,0,0,0,0.1c0,0,0,0.1,0.1,0.1c0,0,0,0,0,0.1c0,0.1,0.1,0.1,0.1,0.2
						c0,0,0,0,0,0c0,0.1,0.1,0.1,0.2,0.2c0,0,0,0,0.1,0c0,0,0.1,0.1,0.1,0.1c0,0,0,0,0.1,0c0,0,0,0,0.1,0c0,0,0,0,0,0
						c0.1,0.1,0.2,0.1,0.4,0.2l4.1,1.3c-0.2-0.1-0.3-0.1-0.5-0.2c0,0,0,0-0.1,0c0,0-0.1-0.1-0.1-0.1c0,0,0,0-0.1,0
						c-0.1,0-0.1-0.1-0.2-0.2c0,0,0,0,0,0c0-0.1-0.1-0.1-0.1-0.2c0,0,0,0,0-0.1c0,0,0-0.1-0.1-0.1c0,0,0,0,0-0.1c0,0,0-0.1,0-0.2
						c0,0,0,0,0-0.1c0-0.1,0-0.2,0-0.2v0l-0.1-12.9c0-0.1,0-0.2,0-0.2c0,0,0-0.1,0-0.1c0-0.1,0-0.1,0-0.2c0-0.1,0.1-0.2,0.1-0.3
						c0,0,0-0.1,0-0.1c0,0,0-0.1,0.1-0.1c0-0.1,0.1-0.2,0.1-0.2c0,0,0,0,0-0.1c0-0.1,0.1-0.1,0.1-0.2c0,0,0-0.1,0.1-0.1
						c0-0.1,0.1-0.1,0.1-0.2c0,0,0,0,0.1-0.1c0,0,0,0,0,0c0.1-0.1,0.1-0.2,0.2-0.2c0,0,0,0,0,0c0.1-0.1,0.2-0.1,0.2-0.2
						c0,0,0.1,0,0.1-0.1c0.1-0.1,0.2-0.1,0.2-0.2c0,0,0,0,0.1,0c0.1-0.1,0.2-0.2,0.3-0.2c0,0,0.1-0.1,0.1-0.1c0.1,0,0.1-0.1,0.2-0.1
						c0.1-0.1,0.3-0.2,0.4-0.2c0.1,0,0.2-0.1,0.3-0.1c0,0,0.1,0,0.1-0.1c0,0,0,0,0,0c0.1-0.1,0.3-0.1,0.4-0.2
						c0.2-0.1,0.3-0.1,0.3-0.1l39.5-12.2c0.3-0.1,0.3-0.1,0.4-0.1c0.1,0,0.3-0.1,0.4-0.1c0,0,0,0,0,0c0.1,0,0.2,0,0.3-0.1
						c0.1,0,0.2,0,0.3,0c0,0,0.1,0,0.1,0c0,0,0.1,0,0.1,0c0.1,0,0.1,0,0.2,0c0,0,0.1,0,0.1,0c0.1,0,0.1,0,0.2,0c0,0,0.1,0,0.1,0
						c0.1,0,0.1,0,0.2,0c0,0,0.1,0,0.1,0c0.1,0,0.1,0,0.2,0c0,0,0,0,0.1,0c0.1,0,0.2,0,0.2,0.1L115.1,132.9z"/>
					<g>
						<path class="st36" d="M119,150.9C119,150.9,119,151,119,150.9c0,0,0.1-0.1,0.1-0.1C119.1,150.8,119.1,150.9,119,150.9
							c0.1-0.1,0.1-0.1,0.2-0.2c0,0,0,0,0,0c0,0,0,0,0,0c0,0,0,0,0,0c0.1-0.1,0.1-0.1,0.2-0.2c0,0-0.1,0.1-0.1,0.1
							c0.1-0.1,0.1-0.1,0.2-0.2c0,0,0,0,0,0c0.1-0.1,0.1-0.2,0.2-0.2c-0.1,0.1-0.1,0.1-0.2,0.2c0.1-0.1,0.1-0.1,0.2-0.2c0,0,0,0,0,0
							c0,0,0,0,0,0c0,0,0,0,0,0v0l0,0l0,0l0,0l0,0c0.5-0.6,0.8-1.2,0.8-1.8l-0.1-12.9c0-0.6-0.3-1-0.8-1.3l0,0h0l0,0v0
							c-0.1,0-0.2-0.1-0.3-0.1c0,0,0,0,0,0c0,0,0,0,0,0c0,0,0,0,0,0c0,0,0,0,0,0c0,0,0,0,0,0c-0.1,0-0.2-0.1-0.3-0.1c0,0,0,0,0,0
							c0,0,0,0,0,0c-0.6-0.2-1.5-0.2-2.5,0.1c0,0-0.1,0-0.4,0.1l-39.5,12.2c0,0-0.1,0-0.3,0.1c-1.2,0.5-2.2,1.1-2.8,1.9l0,0
							c0,0,0,0,0,0l0,0l0,0l0,0c-0.5,0.6-0.8,1.2-0.8,1.8l0.1,12.9c0,0.6,0.3,1,0.8,1.3l0,0l0,0l0,0l0,0l0,0c0,0,0,0,0,0
							c0,0,0.1,0,0.1,0c0,0,0,0,0,0c0,0,0.1,0,0.1,0c0,0,0,0,0,0c0.1,0,0.2,0.1,0.2,0.1c0,0,0,0-0.1,0c0.4,0.2,1,0.2,1.8,0.1
							c0,0,0.1,0,0.3,0c0,0,0.1,0,0.3-0.1c0,0,0.1,0,0.3-0.1c0,0,0.1,0,0.4-0.1l39.5-12.2c0,0,0.1,0,0.3-0.1c0,0,0.1,0,0.3-0.1
							c0.6-0.3,1.2-0.6,1.7-1c0,0-0.1,0-0.1,0.1c0,0,0.1-0.1,0.1-0.1C118.9,151,118.9,151,119,150.9C119,151,119,151,119,150.9z"/>
						<path class="st32" d="M119.3,150.7C119.3,150.7,119.3,150.7,119.3,150.7C119.3,150.7,119.3,150.7,119.3,150.7z"/>
						<path class="st32" d="M119.1,150.9C119.1,150.9,119,150.9,119.1,150.9C119,150.9,119.1,150.9,119.1,150.9z"/>
						<path class="st32" d="M73.8,164.5C73.7,164.5,73.7,164.5,73.8,164.5C73.7,164.5,73.7,164.5,73.8,164.5z"/>
						<path class="st32" d="M73.5,148.5c0.1-0.1,0.2-0.2,0.3-0.3C73.7,148.3,73.6,148.4,73.5,148.5z"/>
					</g>
					<g>
						<path class="st37" d="M104.9,146.8l14.9,3.4c-0.6,0.7-1.5,1.3-2.5,1.8c-0.2,0.1-0.3,0.1-0.3,0.1c-0.2,0.1-0.3,0.1-0.3,0.1
							L77,164.5c-0.3,0.1-0.3,0.1-0.4,0.1c-0.2,0.1-0.3,0.1-0.3,0.1c-0.2,0-0.3,0.1-0.3,0.1c-0.2,0-0.3,0-0.3,0
							c-1,0.1-1.6,0-2.1-0.3l14.8-12.5l5.7,1.3c0.7,0.2,1.7,0.1,2.6-0.2c0.9-0.3,1.8-0.8,2.6-1.4L104.9,146.8z"/>
					</g>
					<g>
						<path class="st38" d="M116.2,134.3c0.3-0.1,0.3-0.1,0.4-0.1c1.3-0.3,2.4-0.2,3,0.1l-14.8,12.5l-5.7,4.8
							c-0.7,0.6-1.6,1.1-2.6,1.4c-0.9,0.3-1.8,0.4-2.6,0.2l-5.7-1.3l-14.9-3.4c0.7-0.8,1.7-1.5,2.8-1.9c0.2-0.1,0.3-0.1,0.3-0.1
							L116.2,134.3z"/>
					</g>
				</g>
				<g>
					<path class="st39" d="M128.9,134.1C128.9,134.1,128.8,134.1,128.9,134.1c-0.1,0-0.2,0-0.2-0.1c0,0,0,0,0,0c0,0,0,0-0.1,0
						c0,0-0.1,0-0.1,0c0,0,0,0-0.1,0c0,0-0.1,0-0.1,0c0,0-0.1,0-0.1,0c0,0-0.1,0-0.1,0c0,0-0.1,0-0.1,0c0,0,0,0-0.1,0
						c0,0-0.1,0-0.1,0c0,0-0.1,0-0.1,0c0,0,0,0,0,0c-0.1,0-0.1,0-0.2,0c0,0,0,0,0,0l0,0c0,0,0,0,0,0c0,0-0.1,0-0.1,0c0,0,0,0-0.1,0
						c0,0,0,0-0.1,0c0,0-0.1,0-0.1,0c0,0,0,0-0.1,0c0,0,0,0,0,0c0,0-0.1,0-0.1,0c0,0,0,0-0.1,0c0,0-0.1,0-0.1,0c0,0,0,0-0.1,0
						c0,0-0.1,0-0.1,0c0,0,0,0-0.1,0l0,0c0,0,0,0,0,0c0,0-0.1,0-0.1,0c0,0-0.1,0-0.4,0.1l-39.5,12.2c0,0-0.1,0-0.3,0.1h0
						c-0.1,0-0.1,0.1-0.2,0.1c0,0,0,0-0.1,0c0,0-0.1,0-0.1,0.1c0,0,0,0,0,0c0,0,0,0,0,0c0,0,0,0,0,0c0,0-0.1,0-0.1,0.1
						c0,0,0,0-0.1,0c0,0-0.1,0-0.1,0.1l0,0c-0.2,0.1-0.3,0.2-0.5,0.3c0,0,0,0,0,0c-0.1,0-0.1,0.1-0.2,0.1c0,0-0.1,0.1-0.1,0.1
						c0,0,0,0,0,0c-0.1,0.1-0.2,0.1-0.3,0.2c0,0,0,0,0,0c0,0,0,0-0.1,0c-0.1,0-0.1,0.1-0.2,0.1c0,0,0,0-0.1,0.1c0,0-0.1,0-0.1,0.1
						c0,0,0,0-0.1,0.1c-0.1,0-0.1,0.1-0.2,0.1c0,0,0,0,0,0c0,0,0,0,0,0c0,0,0,0,0,0l0,0c0,0,0,0,0,0l0,0c0,0,0,0,0,0
						c0,0-0.1,0.1-0.1,0.1c0,0,0,0,0,0c0,0,0,0-0.1,0.1l0,0c0,0,0,0,0,0.1c0,0,0,0-0.1,0.1c0,0,0,0.1-0.1,0.1c0,0,0,0.1-0.1,0.1
						c0,0,0,0,0,0c0,0-0.1,0.1-0.1,0.1c0,0,0,0,0,0.1c0,0,0,0,0,0c0,0.1-0.1,0.2-0.1,0.2c0,0,0,0,0,0c0,0.1,0,0.1-0.1,0.2
						c0,0,0,0.1,0,0.1c0,0,0,0,0,0c0,0.1-0.1,0.2-0.1,0.3c0,0,0,0,0,0c0,0,0,0.1,0,0.1c0,0,0,0.1,0,0.1c0,0.1,0,0.2,0,0.2l0.1,12.9
						l0,0c0,0.1,0,0.2,0,0.2c0,0,0,0,0,0.1c0,0.1,0,0.1,0,0.2c0,0,0,0,0,0.1c0,0,0,0.1,0.1,0.1c0,0,0,0,0,0.1c0,0.1,0.1,0.1,0.1,0.2
						c0,0,0,0,0,0c0,0.1,0.1,0.1,0.2,0.2c0,0,0,0,0.1,0c0,0,0.1,0.1,0.1,0.1c0,0,0,0,0.1,0c0,0,0,0,0.1,0c0,0,0,0,0,0
						c0.1,0.1,0.2,0.1,0.4,0.2l4.1,1.3c-0.2-0.1-0.3-0.1-0.5-0.2c0,0,0,0-0.1,0c0,0-0.1-0.1-0.1-0.1c0,0,0,0-0.1,0
						c-0.1,0-0.1-0.1-0.2-0.2c0,0,0,0,0,0c0-0.1-0.1-0.1-0.1-0.2c0,0,0,0,0-0.1c0,0,0-0.1-0.1-0.1c0,0,0,0,0-0.1c0,0,0-0.1,0-0.2
						c0,0,0,0,0-0.1c0-0.1,0-0.2,0-0.2v0l-0.1-12.9c0-0.1,0-0.2,0-0.2c0,0,0-0.1,0-0.1c0-0.1,0-0.1,0-0.2c0-0.1,0.1-0.2,0.1-0.3
						c0,0,0-0.1,0-0.1c0,0,0-0.1,0.1-0.1c0-0.1,0.1-0.2,0.1-0.2c0,0,0,0,0-0.1c0-0.1,0.1-0.1,0.1-0.2c0,0,0-0.1,0.1-0.1
						c0-0.1,0.1-0.1,0.1-0.2c0,0,0,0,0.1-0.1c0,0,0,0,0,0c0.1-0.1,0.1-0.2,0.2-0.2c0,0,0,0,0,0c0.1-0.1,0.2-0.1,0.2-0.2
						c0,0,0.1,0,0.1-0.1c0.1-0.1,0.2-0.1,0.2-0.2c0,0,0,0,0.1,0c0.1-0.1,0.2-0.2,0.3-0.2c0,0,0.1-0.1,0.1-0.1c0.1,0,0.1-0.1,0.2-0.1
						c0.1-0.1,0.3-0.2,0.4-0.2c0.1,0,0.2-0.1,0.3-0.1c0,0,0.1,0,0.1-0.1c0,0,0,0,0,0c0.1-0.1,0.3-0.1,0.4-0.2
						c0.2-0.1,0.3-0.1,0.3-0.1l39.5-12.2c0.3-0.1,0.3-0.1,0.4-0.1c0.1,0,0.3-0.1,0.4-0.1c0,0,0,0,0,0c0.1,0,0.2,0,0.3-0.1
						c0.1,0,0.2,0,0.3,0c0,0,0.1,0,0.1,0c0,0,0.1,0,0.1,0c0.1,0,0.1,0,0.2,0c0,0,0.1,0,0.1,0c0.1,0,0.1,0,0.2,0c0,0,0.1,0,0.1,0
						c0.1,0,0.1,0,0.2,0c0,0,0.1,0,0.1,0c0.1,0,0.1,0,0.2,0c0,0,0,0,0.1,0c0.1,0,0.2,0,0.2,0.1L128.9,134.1z"/>
					<g>
						<path class="st40" d="M132.7,152.1C132.7,152.1,132.7,152.2,132.7,152.1c0,0,0.1-0.1,0.1-0.1
							C132.8,152,132.8,152.1,132.7,152.1c0.1-0.1,0.1-0.1,0.2-0.2c0,0,0,0,0,0c0,0,0,0,0,0c0,0,0,0,0,0c0.1-0.1,0.1-0.1,0.2-0.2
							c0,0-0.1,0.1-0.1,0.1c0.1-0.1,0.1-0.1,0.2-0.2c0,0,0,0,0,0c0.1-0.1,0.1-0.2,0.2-0.2c-0.1,0.1-0.1,0.1-0.2,0.2
							c0.1-0.1,0.1-0.1,0.2-0.2c0,0,0,0,0,0c0,0,0,0,0,0c0,0,0,0,0,0v0l0,0l0,0l0,0l0,0c0.5-0.6,0.8-1.2,0.8-1.8l-0.1-12.9
							c0-0.6-0.3-1-0.8-1.3l0,0h0l0,0v0c-0.1,0-0.2-0.1-0.3-0.1c0,0,0,0,0,0c0,0,0,0,0,0c0,0,0,0,0,0c0,0,0,0,0,0c0,0,0,0,0,0
							c-0.1,0-0.2-0.1-0.3-0.1c0,0,0,0,0,0c0,0,0,0,0,0c-0.6-0.2-1.5-0.2-2.5,0.1c0,0-0.1,0-0.4,0.1l-39.5,12.2c0,0-0.1,0-0.3,0.1
							c-1.2,0.5-2.2,1.1-2.8,1.9c0,0,0,0,0,0c0,0,0,0,0,0l0,0l0,0l0,0c-0.5,0.6-0.8,1.2-0.8,1.8l0.1,12.9c0,0.6,0.3,1,0.8,1.3l0,0
							l0,0l0,0l0,0l0,0l0,0c0,0,0.1,0,0.1,0c0,0,0,0,0,0c0,0,0.1,0,0.1,0c0,0,0,0,0,0c0.1,0,0.2,0.1,0.2,0.1c0,0,0,0-0.1,0
							c0.4,0.2,1,0.2,1.8,0.1c0,0,0.1,0,0.3,0c0,0,0.1,0,0.3-0.1c0,0,0.1,0,0.3-0.1c0,0,0.1,0,0.4-0.1l39.5-12.2c0,0,0.1,0,0.3-0.1
							c0,0,0.1,0,0.3-0.1c0.6-0.3,1.2-0.6,1.7-1c0,0-0.1,0-0.1,0.1c0,0,0.1-0.1,0.1-0.1C132.6,152.2,132.7,152.2,132.7,152.1
							C132.7,152.2,132.7,152.2,132.7,152.1z"/>
						<path class="st32" d="M133,151.9C133,151.9,133,151.9,133,151.9C133,151.9,133,151.9,133,151.9z"/>
						<path class="st32" d="M132.8,152.1C132.8,152.1,132.8,152.1,132.8,152.1C132.8,152.1,132.8,152.1,132.8,152.1z"/>
						<path class="st32" d="M87.5,165.7C87.5,165.7,87.4,165.7,87.5,165.7C87.4,165.7,87.5,165.7,87.5,165.7z"/>
						<path class="st32" d="M87.3,149.7c0.1-0.1,0.2-0.2,0.3-0.3C87.4,149.5,87.3,149.6,87.3,149.7z"/>
					</g>
					<g>
						<path class="st41" d="M118.6,148l14.9,3.4c-0.6,0.7-1.5,1.3-2.5,1.8c-0.2,0.1-0.3,0.1-0.3,0.1c-0.2,0.1-0.3,0.1-0.3,0.1
							l-39.5,12.2c-0.3,0.1-0.3,0.1-0.4,0.1c-0.2,0.1-0.3,0.1-0.3,0.1c-0.2,0-0.3,0.1-0.3,0.1c-0.2,0-0.3,0-0.3,0
							c-1,0.1-1.6,0-2.1-0.3l14.8-12.5l5.7,1.3c0.7,0.2,1.7,0.1,2.6-0.2c0.9-0.3,1.8-0.8,2.6-1.4L118.6,148z"/>
					</g>
					<g>
						<path class="st42" d="M129.9,135.5c0.3-0.1,0.3-0.1,0.4-0.1c1.3-0.3,2.4-0.2,3,0.1L118.6,148l-5.7,4.8
							c-0.7,0.6-1.6,1.1-2.6,1.4c-0.9,0.3-1.8,0.4-2.6,0.2l-5.7-1.3l-14.9-3.4c0.7-0.8,1.7-1.5,2.8-1.9c0.2-0.1,0.3-0.1,0.3-0.1
							L129.9,135.5z"/>
					</g>
				</g>
			</g>
		</g>
		<path class="st22" d="M111.4,126.3l-2.3,0.9c9.2,4.6,15.9,12,15.9,18.2l-0.1,14.3l2.8,0.5l0.1-14.8
			C127.8,138.8,120.9,131.2,111.4,126.3z"/>
	</g>
</g>
</svg>
