<svg width="250" height="250" xmlns="http://www.w3.org/2000/svg" xmlns:svg="http://www.w3.org/2000/svg"
	xmlns:xlink="http://www.w3.org/1999/xlink" x="0px" y="0px"
		 viewBox="0 0 250 250"  pointer-events="none" style="enable-background:new 0 0 250 250;">
 <g class="layer">
  <title>Contact</title>
  <g id="Layer_2_1_"/>
  <g >
   <g >
    <g >
     <g >
      <g  class="st0">
       <g >
        <polygon cursor="pointer" pointer-events="visible"   points="205.89999389648438,182.45106129645137 205.60000610351562,197.66403513829573 221.6999969482422,183.23523602623027 222,168.17914487794042 " class="st1"/>
       </g>
       <g >
        <polygon cursor="pointer" pointer-events="visible"   points="193,205.662585550308 192.6999969482422,220.71870853033033 205.60000610351562,197.66403513829573 205.89999389648438,182.45106129645137 " class="st2"/>
       </g>
       <g >
        <polygon cursor="pointer" pointer-events="visible"   points="172.10000610351562,202.996407384926 171.8000030517578,218.05253036494832 192.6999969482422,220.71870853033033 193,205.662585550308 " class="st3"/>
       </g>
       <g >
        <polygon cursor="pointer" pointer-events="visible"   points="150.39999389648438,206.7604142561322 150.10000610351562,221.8165531520208 171.8000030517578,218.05253036494832 172.10000610351562,202.996407384926 " class="st1"/>
       </g>
       <g >
        <polygon cursor="pointer" pointer-events="visible"   points="134.39999389648438,223.85540744944592 134.39999389648438,237.5 150.10000610351562,221.8165531520208 150.39999389648438,206.7604142561322 " class="st2"/>
       </g>
       <g >
        <polygon cursor="pointer" pointer-events="visible"   points="93.69999694824219,218.20934939503786 93.4000015258789,233.42229140514974 134.39999389648438,237.5 134.39999389648438,223.85540744944592 " class="st1"/>
       </g>
       <g >
        <polygon cursor="pointer" pointer-events="visible"   points="66.5,176.49138109773048 66.19999694824219,191.54747224602033 93.4000015258789,233.42229140514974 93.69999694824219,218.20934939503786 " class="st3"/>
       </g>
       <g >
        <polygon cursor="pointer" pointer-events="visible"   points="66.5,176.49138109773048 93.69999694824219,218.20934939503786 134.39999389648438,223.85540744944592 150.39999389648438,206.7604142561322 172.10000610351562,202.996407384926 193,205.662585550308 205.89999389648438,182.45106129645137 222,168.17914487794042 221.60000610351562,140.733092999144 209.8000030517578,132.26402183339815 144.1999969482422,153.59352673578542 84,157.82805436072522 " class="st4"/>
       </g>
      </g>
     </g>
     <g >
      <g  class="st0">
       <g >
        <polygon cursor="pointer" pointer-events="visible"   points="204.8000030517578,162.2194169316208 204.5,173.19784723265911 216.1999969482422,155.7892000633001 216.5,144.810785678128 " class="st1"/>
       </g>
       <g >
        <polygon cursor="pointer" pointer-events="visible"   points="192.39999389648438,187.15610967512475 192.1999969482422,198.13452406029683 204.5,173.19784723265911 204.8000030517578,162.2194169316208 " class="st2"/>
       </g>
       <g >
        <polygon cursor="pointer" pointer-events="visible"   points="180.10000610351562,183.70575677996385 179.8000030517578,194.68417116513592 192.1999969482422,198.13452406029683 192.39999389648438,187.15610967512475 " class="st3"/>
       </g>
       <g >
        <polygon cursor="pointer" pointer-events="visible"   points="146.8000030517578,191.8611421379319 146.5,202.83955652310397 179.8000030517578,194.68417116513592 180.10000610351562,183.70575677996385 " class="st1"/>
       </g>
       <g >
        <polygon cursor="pointer" pointer-events="visible"   points="130.5,205.97625544221955 130.3000030517578,216.95466982739163 146.5,202.83955652310397 146.8000030517578,191.8611421379319 " class="st2"/>
       </g>
       <g >
        <polygon cursor="pointer" pointer-events="visible"   points="94,202.2122326551471 93.69999694824219,213.19064704031916 130.3000030517578,216.95466982739163 130.5,205.97625544221955 " class="st1"/>
       </g>
       <g >
        <polygon cursor="pointer" pointer-events="visible"   points="72.30000305175781,168.9633196077193 72,179.9417339928914 93.69999694824219,213.19064704031916 94,202.2122326551471 " class="st3"/>
       </g>
       <g >
        <polygon cursor="pointer" pointer-events="visible"   points="72.30000305175781,168.9633196077193 94,202.2122326551471 130.5,205.97625544221955 146.8000030517578,191.8611421379319 180.10000610351562,183.70575677996385 192.39999389648438,187.15610967512475 204.8000030517578,162.2194169316208 216.5,144.810785678128 214.3000030517578,122.22661712396075 163.39999389648438,115.32590337570582 136.39999389648438,133.51870140104438 86.5,144.810785678128 " class="st4"/>
       </g>
      </g>
     </g>
    </g>
    <g >
     <path cursor="pointer" pointer-events="visible"   d="m180.3,122.38345c0.2,0 0.4,-0.15683 0.5,-0.15683c0,0 0,0 0,0c0.2,0 0.4,-0.15683 0.5,-0.15683c0,0 0,0 0,0c0.2,0 0.4,0 0.5,0l0,0c0.2,0 0.3,0 0.4,0c0,0 0.1,0 0.1,0c0.1,0 0.3,0 0.4,0c0.1,0 0.1,0 0.2,0c0.1,0 0.2,0 0.3,0c0.2,0 0.3,0.15683 0.5,0.15683l-4.4,-2.19568c-0.1,0 -0.3,-0.15683 -0.5,-0.15683c0,0 0,0 0,0c-0.1,0 -0.2,0 -0.2,0c-0.1,0 -0.1,0 -0.2,0c0,0 0,0 0,0c-0.1,0 -0.2,0 -0.3,0c0,0 0,0 -0.1,0c0,0 -0.1,0 -0.1,0c-0.1,0 -0.1,0 -0.2,0c-0.1,0 -0.2,0 -0.3,0l0,0l0,0c-0.1,0 -0.2,0 -0.3,0c-0.1,0 -0.2,0 -0.3,0l0,0c0,0 0,0 0,0c-0.1,0 -0.2,0 -0.2,0c-0.1,0 -0.2,0 -0.2,0c0,0 0,0 0,0c0,0 0,0 0,0c-0.1,0 -0.1,0 -0.2,0c-0.1,0 -0.2,0 -0.2,0c0,0 -0.1,0 -0.1,0c0,0 0,0 0,0c0,0 0,0 -0.1,0c-0.1,0 -0.2,0 -0.2,0.15683c-0.1,0 -0.2,0 -0.2,0.15683c0,0 0,0 0,0l4.4,2.19568c0.1,0.15683 0.3,0.15683 0.5,0c0,0 0,0 0,0z" class="st5"/>
     <path cursor="pointer" pointer-events="visible"   d="m154.4,129.12734c0.1,-0.31367 0.2,-0.62734 0.4,-0.94101c0,0 0,0 0,-0.15683c0.1,-0.31367 0.3,-0.62734 0.4,-0.94101c0,0 0,0 0,-0.15683c0.2,-0.31367 0.3,-0.62734 0.5,-0.94101c0,0 0,-0.15683 0.1,-0.15683c0.2,-0.31367 0.4,-0.62734 0.5,-0.94101c0,0 0.1,-0.15683 0.1,-0.15683c0.1,-0.31367 0.3,-0.4705 0.5,-0.78417c0.1,-0.15683 0.2,-0.31367 0.3,-0.31367c0.1,-0.15683 0.2,-0.31367 0.3,-0.4705c0.2,-0.31367 0.5,-0.62734 0.8,-0.94101c0.1,-0.15683 0.2,-0.31367 0.3,-0.31367c0.1,-0.15683 0.3,-0.31367 0.4,-0.4705c0.2,-0.15683 0.3,-0.31367 0.5,-0.62734c0.1,0 0.1,-0.15683 0.2,-0.15683c0.3,-0.31367 0.5,-0.4705 0.8,-0.78417c0,0 0.1,0 0.1,-0.15683c0.3,-0.31367 0.6,-0.62734 0.9,-0.78417c0,0 0,0 0,0c0.3,-0.31367 0.6,-0.4705 0.9,-0.78417c0,0 0.1,0 0.1,-0.15683c0.3,-0.31367 0.6,-0.4705 0.9,-0.62734c0.1,0 0.1,-0.15683 0.2,-0.15683c0.3,-0.15683 0.6,-0.4705 0.9,-0.62734c0.1,0 0.1,0 0.2,-0.15683c0.3,-0.15683 0.6,-0.31367 0.9,-0.62734c0,0 0.1,0 0.1,0c0.3,-0.15683 0.7,-0.31367 1,-0.4705c0.2,-0.15683 0.4,-0.15683 0.6,-0.31367c0.1,0 0.1,0 0.2,-0.15683c0.1,0 0.3,-0.15683 0.4,-0.15683c0.1,0 0.1,0 0.2,0c0.2,0 0.4,-0.15683 0.6,-0.15683l0,0l0,0c0.2,0 0.4,-0.15683 0.6,-0.15683c0.1,0 0.1,0 0.2,0c0.1,0 0.3,0 0.4,-0.15683c0.1,0 0.2,0 0.2,0c0.1,0 0.2,0 0.4,0c0.1,0 0.2,0 0.2,0c0.1,0 0.2,0 0.3,0c0.1,0 0.2,0 0.3,0c0.1,0 0.2,0 0.3,0c0.1,0 0.2,0 0.3,0c0.1,0 0.2,0 0.3,0c0.1,0 0.2,0 0.3,0c0.1,0 0.2,0 0.2,0c0.1,0 0.3,0 0.4,0c0.1,0 0.1,0 0.2,0c0.2,0 0.4,0 0.6,0c0,0 0,0 0.1,0c0.3,0 0.6,0.15683 0.8,0.15683c0,0 0.1,0 0.1,0c0.1,0 0.2,0 0.3,0.15683c0.1,0 0.1,0 0.2,0c0.2,0 0.3,0.15683 0.5,0.15683l-9.2,-4.39137c-0.2,0 -0.3,-0.15683 -0.5,-0.15683c-0.1,0 -0.1,0 -0.2,0c-0.1,0 -0.2,-0.15683 -0.3,-0.15683c0,0 0,0 -0.1,0c0,0 -0.1,0 -0.1,0c-0.3,0 -0.5,-0.15683 -0.8,-0.15683c0,0 0,0 0,0c0,0 0,0 -0.1,0c-0.2,0 -0.4,0 -0.6,0c0,0 -0.1,0 -0.1,0c0,0 -0.1,0 -0.1,0c-0.1,0 -0.3,0 -0.4,0c0,0 -0.1,0 -0.1,0c0,0 -0.1,0 -0.1,0c-0.1,0 -0.2,0 -0.3,0c-0.1,0 -0.1,0 -0.2,0c0,0 -0.1,0 -0.1,0c-0.1,0 -0.2,0 -0.3,0c-0.1,0 -0.1,0 -0.2,0c0,0 -0.1,0 -0.1,0c-0.1,0 -0.2,0 -0.3,0c-0.1,0 -0.1,0 -0.2,0c0,0 -0.1,0 -0.1,0c-0.1,0 -0.2,0 -0.2,0c-0.1,0 -0.1,0 -0.2,0c-0.1,0 -0.1,0 -0.2,0c-0.1,0 -0.2,0 -0.2,0c0,0 -0.1,0 -0.1,0c-0.1,0 -0.2,0 -0.3,0c-0.1,0 -0.1,0 -0.2,0c0,0 0,0 -0.1,0c-0.2,0 -0.4,0.15683 -0.5,0.15683c0,0 0,0 0,0c-0.2,0 -0.3,0.15683 -0.5,0.15683c0,0 -0.1,0 -0.1,0c-0.1,0 -0.1,0 -0.2,0c-0.1,0 -0.2,0 -0.3,0.15683c-0.1,0 -0.1,0 -0.2,0c-0.1,0 -0.1,0 -0.2,0.15683c-0.1,0 -0.1,0 -0.2,0c-0.1,0 -0.3,0.15683 -0.4,0.15683c0,0 -0.1,0 -0.1,0c-0.2,0.15683 -0.4,0.15683 -0.6,0.31367c-0.1,0 -0.2,0.15683 -0.3,0.15683c0,0 -0.1,0 -0.1,0c0,0 -0.1,0 -0.1,0c-0.2,0.15683 -0.4,0.15683 -0.6,0.31367c-0.1,0 -0.2,0.15683 -0.3,0.15683c-0.1,0 -0.1,0 -0.2,0.15683c-0.1,0 -0.1,0 -0.2,0.15683c-0.2,0.15683 -0.4,0.31367 -0.6,0.4705c-0.1,0 -0.1,0.15683 -0.2,0.15683c-0.1,0 -0.1,0.15683 -0.2,0.15683c-0.1,0 -0.2,0.15683 -0.3,0.15683c-0.2,0.15683 -0.4,0.31367 -0.6,0.4705c0,0 0,0 -0.1,0c0,0 -0.1,0 -0.1,0.15683c-0.1,0.15683 -0.3,0.15683 -0.4,0.31367c-0.2,0.15683 -0.3,0.31367 -0.5,0.4705c0,0 0,0 0,0c0,0 0,0 0,0c-0.2,0.15683 -0.3,0.31367 -0.5,0.4705c-0.1,0.15683 -0.2,0.15683 -0.3,0.31367c0,0 -0.1,0 -0.1,0.15683c0,0 0,0 -0.1,0c-0.2,0.15683 -0.3,0.31367 -0.5,0.4705c-0.1,0 -0.1,0.15683 -0.2,0.15683c-0.1,0 -0.1,0.15683 -0.2,0.15683c-0.1,0 -0.1,0.15683 -0.2,0.15683c-0.1,0.15683 -0.2,0.31367 -0.3,0.31367c-0.1,0.15683 -0.3,0.31367 -0.4,0.4705c0,0 -0.1,0.15683 -0.1,0.15683c-0.1,0 -0.1,0.15683 -0.2,0.15683c-0.3,0.31367 -0.5,0.62734 -0.8,0.94101c-0.1,0 -0.1,0.15683 -0.2,0.15683c0,0 -0.1,0.15683 -0.1,0.15683c-0.1,0.15683 -0.2,0.31367 -0.3,0.4705c-0.1,0.15683 -0.2,0.15683 -0.2,0.31367c-0.1,0.15683 -0.2,0.31367 -0.2,0.31367c0,0 -0.1,0.15683 -0.1,0.15683c0,0 0,0 -0.1,0.15683c-0.1,0.15683 -0.2,0.31367 -0.3,0.62734c-0.1,0.15683 -0.1,0.15683 -0.2,0.31367c0,0 0,0 -0.1,0.15683c0,0 0,0.15683 -0.1,0.15683c-0.1,0.15683 -0.2,0.31367 -0.3,0.4705c-0.1,0.15683 -0.1,0.15683 -0.2,0.31367c0,0 0,0 0,0.15683c0,0 0,0 0,0.15683c-0.1,0.15683 -0.2,0.31367 -0.2,0.4705c-0.1,0.15683 -0.1,0.31367 -0.2,0.4705c0,0 0,0 0,0.15683c0,0 0,0 0,0c-0.1,0.15683 -0.1,0.31367 -0.2,0.62734c0,0.15683 -0.1,0.31367 -0.1,0.31367c0,0 0,0 0,0.15683c0,0 0,0 0,0.15683c-0.1,0.15683 -0.1,0.31367 -0.2,0.62734c0,0.15683 -0.1,0.31367 -0.1,0.4705l9.2,4.39137c0.5,-0.15683 0.6,-0.4705 0.7,-0.94101c0,0 0,0 0,0z" class="st6"/>
     <path cursor="pointer" pointer-events="visible"   d="m146.5,141.2036c0,-0.31367 0.1,-0.4705 0.1,-0.78417c0,0 0,0 0,0c0,-0.31367 0.1,-0.4705 0.2,-0.78417l0,0c0.1,-0.31367 0.2,-0.4705 0.2,-0.78417c0,0 0,0 0,0c0.1,-0.31367 0.2,-0.4705 0.3,-0.78417c0,0 0,0 0,0c0.1,-0.31367 0.2,-0.4705 0.3,-0.78417c0,0 0,0 0,0c0.1,-0.31367 0.3,-0.4705 0.4,-0.78417c0,0 0,0 0,0c0.1,-0.31367 0.3,-0.4705 0.4,-0.78417c0,0 0.1,-0.15683 0.1,-0.15683c0.1,-0.15683 0.2,-0.31367 0.3,-0.4705c0.1,-0.15683 0.3,-0.31367 0.4,-0.62734c0.1,-0.15683 0.1,-0.15683 0.2,-0.31367c0.1,0 0.1,-0.15683 0.2,-0.15683c0.1,-0.15683 0.3,-0.31367 0.4,-0.4705c0,0 0.1,-0.15683 0.1,-0.15683c0.2,-0.15683 0.4,-0.4705 0.6,-0.62734c0,0 0.1,0 0.1,0c0.2,-0.15683 0.4,-0.31367 0.6,-0.62734c0,0 0.1,0 0.1,0c0.2,-0.15683 0.4,-0.31367 0.6,-0.4705c0,0 0.1,0 0.1,0c0.2,-0.15683 0.4,-0.31367 0.7,-0.4705c0,0 0.1,0 0.1,0c0.2,-0.15683 0.5,-0.31367 0.8,-0.4705l-9.2,-4.39137c-0.1,0 -0.2,0.15683 -0.3,0.15683c-0.1,0 -0.2,0.15683 -0.4,0.31367c0,0 -0.1,0 -0.1,0c0,0 -0.1,0 -0.1,0c-0.1,0 -0.1,0.15683 -0.2,0.15683c-0.1,0.15683 -0.3,0.15683 -0.4,0.31367c0,0 -0.1,0 -0.1,0.15683c0,0 -0.1,0 -0.1,0c-0.1,0 -0.1,0.15683 -0.2,0.15683c-0.1,0.15683 -0.2,0.15683 -0.4,0.31367c0,0 -0.1,0 -0.1,0.15683c0,0 -0.1,0 -0.1,0c-0.1,0 -0.1,0.15683 -0.2,0.15683c-0.1,0.15683 -0.2,0.15683 -0.3,0.31367c0,0 -0.1,0.15683 -0.1,0.15683c0,0 -0.1,0 -0.1,0c0,0 -0.1,0.15683 -0.1,0.15683c-0.1,0.15683 -0.2,0.15683 -0.3,0.31367c0,0 -0.1,0.15683 -0.1,0.15683c0,0 -0.1,0 -0.1,0.15683c0,0 -0.1,0.15683 -0.1,0.15683c-0.1,0.15683 -0.2,0.15683 -0.3,0.31367c-0.1,0 -0.1,0.15683 -0.2,0.15683c0,0 0,0 -0.1,0c-0.1,0 -0.1,0.15683 -0.2,0.15683c-0.1,0.15683 -0.3,0.31367 -0.4,0.62734c0,0 -0.1,0 -0.1,0.15683c-0.1,0.15683 -0.2,0.31367 -0.3,0.31367c0,0 -0.1,0.15683 -0.1,0.15683c0,0 0,0 0,0c-0.1,0.15683 -0.2,0.31367 -0.3,0.4705c-0.1,0.15683 -0.1,0.15683 -0.2,0.31367c0,0 0,0 0,0c0,0 0,0 0,0c-0.1,0.15683 -0.1,0.15683 -0.2,0.31367c-0.1,0.15683 -0.1,0.15683 -0.2,0.31367c0,0 0,0 0,0c0,0 0,0 0,0c0,0.15683 -0.1,0.15683 -0.1,0.31367c-0.1,0.15683 -0.1,0.31367 -0.2,0.31367c0,0 0,0.15683 -0.1,0.15683c0,0 0,0 0,0c0,0 0,0.15683 -0.1,0.15683c0,0.15683 -0.1,0.31367 -0.1,0.31367c0,0.15683 -0.1,0.15683 -0.1,0.31367c0,0 0,0 0,0c0,0 0,0 0,0c0,0.15683 -0.1,0.31367 -0.1,0.31367c0,0.15683 -0.1,0.31367 -0.1,0.31367l0,0l0,0c0,0.15683 -0.1,0.31367 -0.1,0.31367c0,0.15683 -0.1,0.31367 -0.1,0.31367c0,0 0,0 0,0c0,0 0,0 0,0c0,0 0,0.15683 0,0.15683c0,0.15683 0,0.15683 0,0.31367c0,0 0,0.15683 0,0.15683c0,0 0,0 0,0c0,0 0,0 0,0.15683c0,0.15683 0,0.15683 0,0.31367c0,0.15683 0,0.15683 0,0.31367c0,0 0,0 0,0c0,0.15683 0,0.31367 0,0.31367c0,0.15683 0,0.15683 0,0.31367c0,0 0,0 0,0.15683c0,0 0,0 0,0c0,0 0,0.15683 0,0.15683c0,0.15683 0,0.15683 0.1,0.31367c0,0 0,0.15683 0,0.15683c0,0 0,0 0,0.15683c0,0 0,0.15683 0,0.15683c0,0.15683 0.1,0.31367 0.1,0.31367c0,0 0,0 0,0.15683c0,0 0,0 0,0.15683c0,0 0,0.15683 0.1,0.15683c0.1,0.15683 0.1,0.15683 0.2,0.31367c0,0 0,0 0,0c0,0 0,0 0,0c0.1,0.15683 0.2,0.31367 0.3,0.4705c0,0 0,0 0,0c0,0 0,0 0.1,0c0.1,0.15683 0.2,0.31367 0.3,0.31367c0,0 0.1,0.15683 0.1,0.15683c0.1,0.15683 0.2,0.15683 0.3,0.31367c0,0 0.1,0 0.1,0.15683c0.2,0.15683 0.3,0.15683 0.5,0.31367l9.2,4.39137c-0.2,-0.15683 -0.3,-0.15683 -0.5,-0.31367c0,0 -0.1,0 -0.1,-0.15683c-0.1,-0.15683 -0.2,-0.15683 -0.3,-0.31367c0,0 -0.1,-0.15683 -0.1,-0.15683c-0.1,-0.15683 -0.2,-0.15683 -0.3,-0.31367c0,0 0,0 -0.1,0c-0.1,-0.15683 -0.2,-0.31367 -0.3,-0.4705c0,0 0,0 0,0c-0.1,-0.15683 -0.2,-0.31367 -0.2,-0.4705c0,0 0,0 0,-0.15683c-0.1,-0.15683 -0.1,-0.31367 -0.2,-0.62734c0,0 0,0 0,-0.15683c0,-0.15683 -0.1,-0.4705 -0.1,-0.62734c0,0 0,0 0,0c0,-0.31367 0,-0.4705 0,-0.78417c0.3,0.31367 0.3,0 0.3,-0.31367c0,0 0,0 0,0z" class="st5"/>
     <g >
      <path cursor="pointer" pointer-events="visible"   d="m166.6,115.3259c-5.9,2.82302 -10.9,9.0964 -12.5,15.05612c-4.3,2.50935 -7.6,7.52806 -7.6,11.76259c0,4.5482 3.8,6.27338 8.5,4.0777c1.9,-0.94101 22.5,-10.82158 24.6,-11.91942c3.3,-1.56835 6,-5.48921 6,-8.6259c0,-3.13669 -2.6,-4.39137 -5.8,-2.97986c0,-0.31367 0,-0.78417 0,-1.09784c0,-7.05755 -6,-9.88058 -13.2,-6.27338z" class="st7"/>
     </g>
    </g>
    <g >
     <path cursor="pointer" pointer-events="visible"   d="m113.7,157.20072c0.1,0 0.2,0 0.3,-0.15683c0,0 0,0 0,0c0.1,0 0.2,0 0.3,0c0,0 0,0 0,0c0.1,0 0.2,0 0.3,0l0,0c0.1,0 0.2,0 0.3,0c0,0 0,0 0,0c0.1,0 0.2,0 0.2,0c0,0 0.1,0 0.1,0c0.1,0 0.1,0 0.2,0c0.1,0 0.2,0 0.3,0.15683l-2.5,-1.25468c-0.1,0 -0.2,0 -0.3,-0.15683c0,0 0,0 0,0c0,0 -0.1,0 -0.1,0c0,0 -0.1,0 -0.1,0c0,0 0,0 0,0c-0.1,0 -0.1,0 -0.2,0c0,0 0,0 0,0c0,0 0,0 0,0c0,0 -0.1,0 -0.1,0c-0.1,0 -0.1,0 -0.2,0l0,0l0,0c0,0 -0.1,0 -0.2,0c0,0 -0.1,0 -0.1,0l0,0c0,0 0,0 0,0c0,0 -0.1,0 -0.1,0c0,0 -0.1,0 -0.1,0c0,0 0,0 0,0c0,0 0,0 0,0c0,0 -0.1,0 -0.1,0c0,0 -0.1,0 -0.1,0c0,0 0,0 -0.1,0c0,0 0,0 0,0c0,0 0,0 0,0c0,0 -0.1,0 -0.1,0c0,0 -0.1,0 -0.1,0c0,0 0,0 0,0l2.5,1.25468c-0.3,0.31367 -0.2,0.31367 0,0.15683c-0.1,0 0,0 0,0z" class="st5"/>
     <path cursor="pointer" pointer-events="visible"   d="m98.9,160.96475c0.1,-0.15683 0.1,-0.31367 0.2,-0.62734c0,0 0,0 0,0c0.1,-0.15683 0.2,-0.31367 0.3,-0.62734c0,0 0,0 0,0c0.1,-0.15683 0.2,-0.31367 0.3,-0.62734c0,0 0,0 0,0c0.1,-0.15683 0.2,-0.31367 0.3,-0.4705c0,0 0,0 0.1,-0.15683c0.1,-0.15683 0.2,-0.31367 0.3,-0.4705c0,0 0.1,-0.15683 0.1,-0.15683c0.1,0 0.1,-0.15683 0.2,-0.15683c0.1,-0.15683 0.3,-0.31367 0.4,-0.62734c0.1,0 0.1,-0.15683 0.2,-0.15683c0.1,-0.15683 0.1,-0.15683 0.2,-0.31367c0.1,-0.15683 0.2,-0.15683 0.3,-0.31367c0,0 0.1,0 0.1,-0.15683c0.1,-0.15683 0.3,-0.31367 0.4,-0.4705c0,0 0,0 0.1,0c0.2,-0.15683 0.3,-0.31367 0.5,-0.4705c0,0 0,0 0,0c0.2,-0.15683 0.3,-0.31367 0.5,-0.4705c0,0 0,0 0.1,0c0.2,-0.15683 0.3,-0.31367 0.5,-0.31367c0,0 0.1,0 0.1,0c0.2,-0.15683 0.3,-0.31367 0.5,-0.31367c0,0 0.1,0 0.1,0c0.2,-0.15683 0.4,-0.15683 0.5,-0.31367c0,0 0,0 0.1,0c0.2,-0.15683 0.4,-0.15683 0.6,-0.31367c0.1,0 0.2,-0.15683 0.3,-0.15683c0,0 0.1,0 0.1,0c0.1,0 0.2,0 0.2,-0.15683c0,0 0.1,0 0.1,0c0.1,0 0.2,-0.15683 0.3,-0.15683l0,0l0,0c0.1,0 0.2,0 0.3,-0.15683c0,0 0.1,0 0.1,0c0.1,0 0.2,0 0.2,0c0,0 0.1,0 0.1,0c0.1,0 0.1,0 0.2,0c0,0 0.1,0 0.1,0c0.1,0 0.1,0 0.2,0c0.1,0 0.1,0 0.2,0c0.1,0 0.1,0 0.2,0c0.1,0 0.1,0 0.2,0c0.1,0 0.1,0 0.2,0c0.1,0 0.1,0 0.2,0c0,0 0.1,0 0.1,0c0.1,0 0.2,0 0.2,0c0,0 0.1,0 0.1,0c0.1,0 0.2,0 0.4,0c0,0 0,0 0,0c0.2,0 0.3,0 0.5,0.15683c0,0 0.1,0 0.1,0c0.1,0 0.1,0 0.2,0c0,0 0.1,0 0.1,0c0.1,0 0.2,0 0.3,0.15683l-5.2,-2.50935c-0.1,0 -0.2,-0.15683 -0.3,-0.15683c0,0 -0.1,0 -0.1,0c-0.1,0 -0.1,0 -0.2,0c0,0 0,0 0,0c0,0 0,0 0,0c-0.2,0 -0.3,-0.15683 -0.5,-0.15683c0,0 0,0 0,0c0,0 0,0 0,0c-0.1,0 -0.2,0 -0.4,0c0,0 0,0 -0.1,0c0,0 0,0 -0.1,0c-0.1,0 -0.2,0 -0.2,0c0,0 -0.1,0 -0.1,0c0,0 0,0 -0.1,0c-0.1,0 -0.1,0 -0.2,0c0,0 -0.1,0 -0.1,0c0,0 0,0 0,0c-0.1,0 -0.1,0 -0.2,0c0,0 -0.1,0 -0.1,0c0,0 0,0 -0.1,0c-0.1,0 -0.1,0 -0.2,0c0,0 -0.1,0 -0.1,0c0,0 0,0 -0.1,0c0,0 -0.1,0 -0.1,0c0,0 -0.1,0 -0.1,0c0,0 -0.1,0 -0.1,0c0,0 -0.1,0 -0.1,0c0,0 0,0 -0.1,0c-0.1,0 -0.1,0 -0.2,0c0,0 -0.1,0 -0.1,0c0,0 0,0 0,0c-0.1,0 -0.2,0 -0.3,0.15683c0,0 0,0 0,0c-0.1,0 -0.2,0 -0.3,0.15683c0,0 0,0 0,0c0,0 -0.1,0 -0.1,0c0,0 -0.1,0 -0.1,0c0,0 -0.1,0 -0.1,0c0,0 -0.1,0 -0.1,0c0,0 -0.1,0 -0.1,0c-0.1,0 -0.2,0 -0.2,0.15683c0,0 0,0 -0.1,0c-0.1,0 -0.2,0.15683 -0.3,0.15683c-0.1,0 -0.1,0 -0.2,0.15683c0,0 0,0 -0.1,0c0,0 0,0 -0.1,0c-0.1,0 -0.2,0.15683 -0.3,0.15683c-0.1,0 -0.1,0 -0.2,0.15683c0,0 -0.1,0 -0.1,0c0,0 -0.1,0 -0.1,0c-0.1,0 -0.2,0.15683 -0.3,0.15683c0,0 -0.1,0 -0.1,0c0,0 -0.1,0 -0.1,0c0,0 -0.1,0 -0.1,0.15683c-0.1,0.15683 -0.2,0.15683 -0.3,0.31367c0,0 0,0 0,0c0,0 0,0 -0.1,0c-0.1,0 -0.2,0.15683 -0.2,0.15683c-0.1,0.15683 -0.2,0.15683 -0.3,0.31367c0,0 0,0 0,0c0,0 0,0 0,0c-0.1,0.15683 -0.2,0.15683 -0.3,0.31367c-0.1,0 -0.1,0.15683 -0.2,0.15683c0,0 0,0 -0.1,0c0,0 0,0 0,0c-0.1,0.15683 -0.2,0.15683 -0.3,0.31367c0,0 -0.1,0.15683 -0.1,0.15683c0,0 -0.1,0 -0.1,0.15683c0,0 -0.1,0 -0.1,0.15683c-0.1,0 -0.1,0.15683 -0.2,0.15683c-0.1,0.15683 -0.1,0.15683 -0.2,0.31367c0,0 0,0 -0.1,0.15683c0,0 -0.1,0.15683 -0.1,0.15683c-0.1,0.15683 -0.3,0.31367 -0.4,0.62734c0,0 -0.1,0.15683 -0.1,0.15683c0,0 0,0 -0.1,0.15683c-0.1,0 -0.1,0.15683 -0.2,0.15683c0,0 -0.1,0.15683 -0.1,0.15683c0,0 -0.1,0.15683 -0.1,0.15683c0,0 0,0 -0.1,0.15683c0,0 0,0 0,0c-0.1,0.15683 -0.1,0.15683 -0.2,0.31367c0,0 -0.1,0.15683 -0.1,0.15683c0,0 0,0 0,0c0,0 0,0 0,0c-0.1,0.15683 -0.1,0.15683 -0.2,0.31367c0,0 -0.1,0.15683 -0.1,0.15683c0,0 0,0 0,0c0,0 0,0 0,0c0,0.15683 -0.1,0.15683 -0.1,0.31367c0,0 -0.1,0.15683 -0.1,0.15683c0,0 0,0 0,0c0,0 0,0 0,0c0,0.15683 -0.1,0.15683 -0.1,0.31367c0,0 -0.1,0.15683 -0.1,0.15683c0,0 0,0 0,0c0,0 0,0 0,0c0,0.15683 -0.1,0.15683 -0.1,0.31367c0,0 0,0.15683 -0.1,0.15683l5.2,2.50935c0,0.4705 0.1,0.31367 0.2,0c-0.1,0.15683 0,0.15683 0,0z" class="st6"/>
     <path cursor="pointer" pointer-events="visible"   d="m94.3,168.0223c0,-0.15683 0,-0.31367 0.1,-0.4705c0,0 0,0 0,0c0,-0.15683 0.1,-0.31367 0.1,-0.4705l0,0c0,-0.15683 0.1,-0.31367 0.1,-0.4705c0,0 0,0 0,0c0,-0.15683 0.1,-0.31367 0.2,-0.4705c0,0 0,0 0,0c0.1,-0.15683 0.1,-0.31367 0.2,-0.4705c0,0 0,0 0,0c0.1,-0.15683 0.2,-0.31367 0.2,-0.4705c0,0 0,0 0,0c0.1,-0.15683 0.2,-0.31367 0.3,-0.4705c0,0 0,0 0.1,-0.15683c0.1,-0.15683 0.1,-0.15683 0.2,-0.31367c0.1,-0.15683 0.2,-0.15683 0.3,-0.31367c0,0 0.1,-0.15683 0.1,-0.15683c0,0 0.1,-0.15683 0.1,-0.15683c0.1,-0.15683 0.2,-0.15683 0.2,-0.31367c0,0 0,0 0.1,0c0.1,-0.15683 0.2,-0.15683 0.3,-0.31367c0,0 0,0 0,0c0.1,-0.15683 0.2,-0.15683 0.4,-0.31367c0,0 0,0 0,0c0.1,-0.15683 0.2,-0.15683 0.4,-0.31367c0,0 0,0 0.1,0c0.1,-0.15683 0.3,-0.15683 0.4,-0.31367c0,0 0,0 0.1,0c0.1,-0.15683 0.3,-0.15683 0.4,-0.31367l-5.2,-2.50935c-0.1,0 -0.1,0 -0.2,0.15683c-0.1,0 -0.1,0.15683 -0.2,0.15683c0,0 0,0 -0.1,0c0,0 0,0 0,0c0,0 -0.1,0 -0.1,0c-0.1,0 -0.1,0.15683 -0.2,0.15683c0,0 0,0 -0.1,0c0,0 0,0 -0.1,0c0,0 -0.1,0 -0.1,0.15683c-0.1,0 -0.1,0.15683 -0.2,0.15683c0,0 0,0 -0.1,0c0,0 0,0 0,0c0,0 -0.1,0 -0.1,0.15683c-0.1,0 -0.1,0.15683 -0.2,0.15683c0,0 0,0 -0.1,0c0,0 0,0 0,0c0,0 0,0 -0.1,0c-0.1,0 -0.1,0.15683 -0.2,0.15683c0,0 0,0 -0.1,0.15683c0,0 0,0 -0.1,0c0,0 -0.1,0 -0.1,0.15683c-0.1,0 -0.1,0.15683 -0.2,0.15683c0,0 -0.1,0.15683 -0.1,0.15683c0,0 0,0 0,0c0,0 -0.1,0 -0.1,0.15683c-0.1,0.15683 -0.2,0.15683 -0.2,0.31367c0,0 0,0 0,0c-0.1,0 -0.1,0.15683 -0.1,0.15683c0,0 0,0 -0.1,0.15683c0,0 0,0 0,0c0,0 -0.1,0.15683 -0.1,0.15683c0,0 -0.1,0.15683 -0.1,0.15683c0,0 0,0 0,0c0,0 0,0 0,0c0,0 -0.1,0.15683 -0.1,0.15683c0,0 -0.1,0.15683 -0.1,0.15683c0,0 0,0 0,0c0,0 0,0 0,0c0,0 0,0.15683 -0.1,0.15683c0,0 -0.1,0.15683 -0.1,0.15683c0,0 0,0 0,0.15683c0,0 0,0 0,0c0,0 0,0 0,0c0,0 -0.1,0.15683 -0.1,0.15683c0,0 0,0.15683 -0.1,0.15683c0,0 0,0 0,0c0,0 0,0 0,0c0,0 0,0.15683 -0.1,0.15683c0,0 0,0.15683 -0.1,0.15683l0,0l0,0c0,0 0,0.15683 -0.1,0.15683c0,0 0,0.15683 0,0.15683c0,0 0,0 0,0c0,0 0,0 0,0c0,0 0,0.15683 0,0.15683c0,0 0,0.15683 0,0.15683c0,0 0,0 0,0.15683c0,0 0,0 0,0c0,0 0,0 0,0c0,0 0,0.15683 0,0.15683c0,0 0,0.15683 0,0.15683c0,0 0,0 0,0c0,0 0,0.15683 0,0.15683c0,0 0,0.15683 0,0.15683c0,0 0,0 0,0c0,0 0,0 0,0c0,0 0,0 0,0.15683c0,0 0,0.15683 0,0.15683c0,0 0,0 0,0c0,0 0,0 0,0c0,0 0,0 0,0c0,0 0,0.15683 0.1,0.15683c0,0 0,0 0,0c0,0 0,0 0,0c0,0 0,0 0,0.15683c0,0 0.1,0.15683 0.1,0.15683c0,0 0,0 0,0c0,0 0,0 0,0c0.1,0.15683 0.1,0.15683 0.2,0.31367c0,0 0,0 0,0c0,0 0,0 0,0c0.1,0 0.1,0.15683 0.2,0.15683c0,0 0,0 0.1,0c0.1,0 0.1,0.15683 0.2,0.15683c0,0 0.1,0 0.1,0c0.1,0 0.2,0.15683 0.3,0.15683l5.2,2.50935c-0.1,0 -0.2,-0.15683 -0.3,-0.15683c0,0 -0.1,0 -0.1,0c-0.1,0 -0.1,-0.15683 -0.2,-0.15683c0,0 -0.1,0 -0.1,0c-0.1,0 -0.1,-0.15683 -0.2,-0.15683c0,0 0,0 0,0c-0.1,-0.15683 -0.1,-0.15683 -0.2,-0.31367c0,0 0,0 0,0c-0.1,-0.15683 -0.1,-0.15683 -0.1,-0.31367c0,0 0,0 0,0c0,-0.15683 -0.1,-0.15683 -0.1,-0.31367c0,0 0,0 0,0c0,-0.15683 -0.1,-0.31367 -0.1,-0.31367c0,0 0,0 0,0c0,-0.15683 0,-0.31367 0,-0.4705c0,1.41151 0,1.25468 0,1.09784c0,0 0,0 0,0z" class="st5"/>
     <g >
      <path cursor="pointer" pointer-events="visible"   d="m105.8,153.12302c-3.4,1.56835 -6.2,5.17554 -7.2,8.6259c-2.4,1.41151 -4.3,4.39137 -4.3,6.74389c0,2.50935 2.2,3.60719 4.9,2.35252c1.1,-0.4705 12.9,-6.27338 14,-6.74389c1.9,-0.94101 3.4,-3.13669 3.4,-5.01871c0,-1.72518 -1.5,-2.50935 -3.3,-1.72518c0,-0.15683 0,-0.4705 0,-0.62734c0,-3.92086 -3.3,-5.64604 -7.5,-3.60719z" class="st7"/>
     </g>
    </g>
    <g >
     <g >
      <polygon cursor="pointer" pointer-events="visible"   points="140.6999969482422,167.2381192863395 169.6999969482422,153.4366758739634 169.6999969482422,157.04387963094632 140.6999969482422,170.84532304332242 " class="st8"/>
      <polygon cursor="pointer" pointer-events="visible"   points="123.5,158.7690640364599 152.5,144.9676206240838 169.6999969482422,153.4366758739634 140.6999969482422,167.2381192863395 " class="st9"/>
      <polygon cursor="pointer" pointer-events="visible"   points="140.6999969482422,167.2381192863395 140.6999969482422,170.84532304332242 123.5,162.37626779344282 123.5,158.7690640364599 " class="st10"/>
     </g>
     <g >
      <g  class="st0">
       <g >
        <polygon cursor="pointer" pointer-events="visible"   points="145.6999969482422,160.65108338792925 137.10000610351562,156.25970490116742 138.1999969482422,67.33452928223414 146.8000030517578,71.56905690717394 " class="st11"/>
       </g>
       <g >
        <polygon cursor="pointer" pointer-events="visible"   points="146.8000030517578,71.56905690717394 138.1999969482422,67.33452928223414 147,63.10000165729434 155.60000610351562,67.49137218612304 " class="st12"/>
       </g>
       <g >
        <polygon cursor="pointer" pointer-events="visible"   points="155.60000610351562,67.49137218612304 154.5,156.41655576298945 145.6999969482422,160.65108338792925 146.8000030517578,71.56905690717394 " class="st13"/>
       </g>
      </g>
     </g>
    </g>
    <g >
     <path cursor="pointer" pointer-events="visible"   d="m202.5,131.63669c0.1,0 0.2,0 0.3,-0.15683c0,0 0,0 0,0c0.1,0 0.2,0 0.4,0c0,0 0,0 0,0c0.1,0 0.2,0 0.3,0l0,0c0.1,0 0.2,0 0.3,0c0,0 0,0 0.1,0c0.1,0 0.2,0 0.3,0c0,0 0.1,0 0.1,0c0.1,0 0.1,0 0.2,0c0.1,0 0.2,0 0.3,0.15683l-2.9,-1.41151c-0.1,0 -0.2,-0.15683 -0.3,-0.15683c0,0 0,0 0,0c0,0 -0.1,0 -0.2,0c0,0 -0.1,0 -0.1,0c0,0 0,0 0,0c-0.1,0 -0.1,0 -0.2,0c0,0 0,0 0,0c0,0 0,0 -0.1,0c0,0 -0.1,0 -0.1,0c-0.1,0 -0.1,0 -0.2,0l0,0l0,0c-0.1,0 -0.1,0 -0.2,0c-0.1,0 -0.1,0 -0.2,0l0,0c0,0 0,0 0,0c-0.1,0 -0.1,0 -0.2,0c-0.1,0 -0.1,0 -0.2,0c0,0 0,0 0,0c0,0 0,0 0,0c0,0 -0.1,0 -0.1,0c-0.1,0 -0.1,0 -0.2,0c0,0 -0.1,0 -0.1,0c0,0 0,0 0,0c0,0 0,0 0,0c-0.1,0 -0.1,0 -0.2,0c-0.1,0 -0.1,0 -0.2,0c0,0 0,0 0,0l2.9,1.41151c0.2,0.31367 0.3,0.15683 0.5,0.15683c0,0 0,0 0,0z" class="st5"/>
     <path cursor="pointer" pointer-events="visible"   d="m185.4,136.02806c0.1,-0.15683 0.2,-0.4705 0.2,-0.62734c0,0 0,0 0,0c0.1,-0.15683 0.2,-0.4705 0.3,-0.62734c0,0 0,0 0,0c0.1,-0.15683 0.2,-0.4705 0.3,-0.62734c0,0 0,0 0,-0.15683c0.1,-0.15683 0.2,-0.4705 0.4,-0.62734c0,0 0,0 0.1,-0.15683c0.1,-0.15683 0.2,-0.31367 0.3,-0.4705c0.1,-0.15683 0.1,-0.15683 0.2,-0.31367c0.1,-0.15683 0.1,-0.15683 0.2,-0.31367c0.2,-0.15683 0.3,-0.4705 0.5,-0.62734c0.1,-0.15683 0.1,-0.15683 0.2,-0.31367c0.1,-0.15683 0.2,-0.15683 0.3,-0.31367c0.1,-0.15683 0.2,-0.31367 0.3,-0.31367c0,0 0.1,-0.15683 0.1,-0.15683c0.2,-0.15683 0.3,-0.31367 0.5,-0.4705c0,0 0,0 0.1,0c0.2,-0.15683 0.4,-0.31367 0.6,-0.4705c0,0 0,0 0,0c0.2,-0.15683 0.4,-0.31367 0.6,-0.4705c0,0 0,0 0.1,0c0.2,-0.15683 0.4,-0.31367 0.6,-0.4705c0,0 0.1,0 0.1,0c0.2,-0.15683 0.4,-0.31367 0.6,-0.4705c0,0 0.1,0 0.1,0c0.2,-0.15683 0.4,-0.31367 0.6,-0.31367c0,0 0.1,0 0.1,0c0.2,-0.15683 0.4,-0.31367 0.7,-0.31367c0.1,0 0.3,-0.15683 0.4,-0.15683c0,0 0.1,0 0.1,0c0.1,0 0.2,0 0.3,-0.15683c0,0 0.1,0 0.1,0c0.1,0 0.3,-0.15683 0.4,-0.15683l0,0l0,0c0.1,0 0.3,-0.15683 0.4,-0.15683c0,0 0.1,0 0.1,0c0.1,0 0.2,0 0.3,0c0.1,0 0.1,0 0.2,0c0.1,0 0.2,0 0.2,0c0.1,0 0.1,0 0.2,0c0.1,0 0.1,0 0.2,0c0.1,0 0.1,0 0.2,0c0.1,0 0.1,0 0.2,0c0.1,0 0.1,0 0.2,0c0.1,0 0.1,0 0.2,0c0.1,0 0.1,0 0.2,0c0.1,0 0.1,0 0.2,0c0.1,0 0.2,0 0.3,0c0,0 0.1,0 0.1,0c0.1,0 0.3,0 0.4,0c0,0 0,0 0,0c0.2,0 0.4,0 0.5,0.15683c0,0 0.1,0 0.1,0c0.1,0 0.2,0 0.2,0c0,0 0.1,0 0.1,0c0.1,0 0.2,0.15683 0.3,0.15683l-6,-2.97986c-0.1,0 -0.2,-0.15683 -0.3,-0.15683c0,0 -0.1,0 -0.1,0c-0.1,0 -0.2,0 -0.2,0c0,0 0,0 0,0c0,0 0,0 0,0c-0.2,0 -0.4,-0.15683 -0.5,-0.15683c0,0 0,0 0,0c0,0 0,0 0,0c-0.1,0 -0.3,0 -0.4,0c0,0 0,0 -0.1,0c0,0 -0.1,0 -0.1,0c-0.1,0 -0.2,0 -0.3,0c0,0 -0.1,0 -0.1,0c0,0 0,0 -0.1,0c-0.1,0 -0.1,0 -0.2,0c0,0 -0.1,0 -0.1,0c0,0 0,0 -0.1,0c-0.1,0 -0.1,0 -0.2,0c0,0 -0.1,0 -0.1,0c0,0 0,0 -0.1,0c-0.1,0 -0.1,0 -0.2,0c0,0 -0.1,0 -0.1,0c0,0 -0.1,0 -0.1,0c-0.1,0 -0.1,0 -0.2,0c0,0 -0.1,0 -0.1,0c0,0 -0.1,0 -0.1,0c-0.1,0 -0.1,0 -0.2,0c0,0 -0.1,0 -0.1,0c-0.1,0 -0.1,0 -0.2,0c0,0 -0.1,0 -0.1,0c0,0 0,0 0,0c-0.1,0 -0.2,0 -0.3,0.15683c0,0 0,0 0,0c-0.1,0 -0.2,0.15683 -0.3,0.15683c0,0 0,0 -0.1,0c0,0 -0.1,0 -0.1,0c-0.1,0 -0.1,0 -0.2,0c0,0 -0.1,0 -0.1,0c0,0 -0.1,0 -0.1,0c0,0 -0.1,0 -0.1,0c-0.1,0 -0.2,0.15683 -0.3,0.15683c0,0 -0.1,0 -0.1,0c-0.1,0 -0.2,0.15683 -0.4,0.15683c-0.1,0 -0.2,0.15683 -0.2,0.15683c0,0 -0.1,0 -0.1,0c0,0 0,0 -0.1,0c-0.1,0 -0.2,0.15683 -0.4,0.15683c-0.1,0 -0.1,0 -0.2,0.15683c0,0 -0.1,0 -0.1,0c0,0 -0.1,0 -0.1,0c-0.1,0.15683 -0.3,0.15683 -0.4,0.31367c0,0 -0.1,0 -0.1,0.15683c0,0 -0.1,0 -0.1,0c-0.1,0 -0.1,0.15683 -0.2,0.15683c-0.1,0.15683 -0.3,0.15683 -0.4,0.31367c0,0 0,0 0,0c0,0 0,0 -0.1,0c-0.1,0 -0.2,0.15683 -0.3,0.15683c-0.1,0.15683 -0.2,0.15683 -0.3,0.31367c0,0 0,0 0,0c0,0 0,0 0,0c-0.1,0.15683 -0.2,0.15683 -0.3,0.31367c-0.1,0 -0.1,0.15683 -0.2,0.15683c0,0 0,0 -0.1,0c0,0 0,0 0,0c-0.1,0.15683 -0.2,0.15683 -0.3,0.31367c0,0 -0.1,0.15683 -0.1,0.15683c0,0 -0.1,0.15683 -0.1,0.15683c0,0 -0.1,0.15683 -0.1,0.15683c-0.1,0 -0.1,0.15683 -0.2,0.15683c-0.1,0.15683 -0.2,0.15683 -0.3,0.31367c0,0 -0.1,0 -0.1,0.15683c0,0 -0.1,0.15683 -0.1,0.15683c-0.2,0.15683 -0.3,0.4705 -0.5,0.62734c0,0 -0.1,0.15683 -0.1,0.15683c0,0 -0.1,0.15683 -0.1,0.15683c-0.1,0.15683 -0.1,0.15683 -0.2,0.31367c0,0 -0.1,0.15683 -0.1,0.15683c-0.1,0.15683 -0.1,0.15683 -0.2,0.31367c0,0 0,0 -0.1,0.15683c0,0 0,0 0,0c-0.1,0.15683 -0.1,0.31367 -0.2,0.31367c0,0 -0.1,0.15683 -0.1,0.15683c0,0 0,0 0,0c0,0 0,0 0,0.15683c-0.1,0.15683 -0.1,0.15683 -0.2,0.31367c0,0 -0.1,0.15683 -0.1,0.15683c0,0 0,0 0,0c0,0 0,0 0,0c-0.1,0.15683 -0.1,0.15683 -0.2,0.31367c0,0.15683 -0.1,0.15683 -0.1,0.31367c0,0 0,0 0,0c0,0 0,0 0,0c0,0.15683 -0.1,0.31367 -0.1,0.31367c0,0.15683 -0.1,0.15683 -0.1,0.31367c0,0 0,0 0,0c0,0 0,0 0,0c0,0.15683 -0.1,0.31367 -0.1,0.31367c0,0.15683 -0.1,0.15683 -0.1,0.31367l6,2.97986c-0.2,0.4705 -0.2,0.15683 -0.1,-0.15683c0,0 0,0 0,0z" class="st6"/>
     <path cursor="pointer" pointer-events="visible"   d="m180.2,144.02662c0,-0.15683 0,-0.31367 0.1,-0.4705c0,0 0,0 0,0c0,-0.15683 0.1,-0.31367 0.1,-0.4705l0,0c0,-0.15683 0.1,-0.31367 0.2,-0.4705c0,0 0,0 0,0c0.1,-0.15683 0.1,-0.31367 0.2,-0.4705c0,0 0,0 0,0c0.1,-0.15683 0.1,-0.31367 0.2,-0.4705c0,0 0,0 0,0c0.1,-0.15683 0.2,-0.31367 0.3,-0.4705c0,0 0,0 0,0c0.1,-0.15683 0.2,-0.31367 0.3,-0.4705c0,0 0.1,0 0.1,-0.15683c0.1,-0.15683 0.1,-0.15683 0.2,-0.31367c0.1,-0.15683 0.2,-0.31367 0.3,-0.31367c0,0 0.1,-0.15683 0.1,-0.15683c0,0 0.1,-0.15683 0.1,-0.15683c0.1,-0.15683 0.2,-0.15683 0.3,-0.31367c0,0 0,0 0.1,0c0.1,-0.15683 0.2,-0.31367 0.4,-0.31367c0,0 0,0 0.1,0c0.1,-0.15683 0.3,-0.31367 0.4,-0.31367c0,0 0,0 0.1,0c0.1,-0.15683 0.3,-0.31367 0.4,-0.31367c0,0 0,0 0.1,0c0.1,-0.15683 0.3,-0.15683 0.4,-0.31367c0,0 0,0 0.1,0c0.2,-0.15683 0.3,-0.15683 0.5,-0.31367l-6,-2.97986c-0.1,0 -0.1,0 -0.2,0.15683c-0.1,0 -0.2,0.15683 -0.2,0.15683c0,0 0,0 -0.1,0c0,0 0,0 -0.1,0c0,0 -0.1,0 -0.1,0.15683c-0.1,0 -0.2,0.15683 -0.2,0.15683c0,0 0,0 -0.1,0c0,0 0,0 -0.1,0c0,0 -0.1,0 -0.1,0.15683c-0.1,0 -0.2,0.15683 -0.2,0.15683c0,0 0,0 -0.1,0c0,0 0,0 -0.1,0c0,0 -0.1,0 -0.1,0.15683c-0.1,0 -0.1,0.15683 -0.2,0.15683c0,0 -0.1,0 -0.1,0.15683c0,0 0,0 -0.1,0c0,0 -0.1,0 -0.1,0c-0.1,0 -0.1,0.15683 -0.2,0.15683c0,0 -0.1,0 -0.1,0.15683c0,0 0,0 -0.1,0c0,0 -0.1,0 -0.1,0.15683c-0.1,0 -0.1,0.15683 -0.2,0.15683c0,0 -0.1,0.15683 -0.1,0.15683c0,0 0,0 0,0c0,0 -0.1,0.15683 -0.1,0.15683c-0.1,0.15683 -0.2,0.31367 -0.3,0.31367c0,0 0,0 -0.1,0c-0.1,0.15683 -0.1,0.15683 -0.2,0.31367c0,0 -0.1,0 -0.1,0.15683c0,0 0,0 0,0c-0.1,0.15683 -0.1,0.15683 -0.2,0.31367c0,0 -0.1,0.15683 -0.1,0.15683c0,0 0,0 0,0c0,0 0,0 0,0c0,0 -0.1,0.15683 -0.1,0.15683c0,0 -0.1,0.15683 -0.1,0.15683c0,0 0,0 0,0c0,0 0,0 0,0c0,0 -0.1,0.15683 -0.1,0.15683c0,0 -0.1,0.15683 -0.1,0.15683c0,0 0,0 0,0.15683c0,0 0,0 0,0c0,0 0,0 0,0.15683c0,0.15683 -0.1,0.15683 -0.1,0.31367c0,0 0,0.15683 -0.1,0.15683c0,0 0,0 0,0c0,0 0,0 0,0c0,0.15683 -0.1,0.15683 -0.1,0.31367c0,0.15683 0,0.15683 -0.1,0.31367l0,0l0,0c0,0.15683 0,0.15683 -0.1,0.31367c0,0.15683 0,0.15683 0,0.31367c0,0 0,0 0,0c0,0 0,0 0,0c0,0 0,0.15683 0,0.15683c0,0 0,0.15683 0,0.15683c0,0 0,0 0,0.15683c0,0 0,0 0,0c0,0 0,0 0,0c0,0 0,0.15683 0,0.15683c0,0 0,0.15683 0,0.15683c0,0 0,0 0,0c0,0.15683 0,0.15683 0,0.15683c0,0 0,0.15683 0,0.15683c0,0 0,0 0,0c0,0 0,0 0,0c0,0 0,0.15683 0,0.15683c0,0 0,0.15683 0,0.15683c0,0 0,0 0,0.15683c0,0 0,0 0,0c0,0 0,0 0,0.15683c0,0.15683 0,0.15683 0.1,0.31367c0,0 0,0 0,0c0,0 0,0 0,0c0,0 0,0.15683 0,0.15683c0,0 0.1,0.15683 0.1,0.15683c0,0 0,0 0,0c0,0 0,0 0,0c0.1,0.15683 0.1,0.15683 0.2,0.31367c0,0 0,0 0,0c0,0 0,0 0,0c0.1,0.15683 0.1,0.15683 0.2,0.31367c0,0 0.1,0 0.1,0.15683c0.1,0 0.1,0.15683 0.2,0.15683c0,0 0.1,0 0.1,0c0.1,0 0.2,0.15683 0.3,0.15683l6,2.97986c-0.1,0 -0.2,-0.15683 -0.3,-0.15683c0,0 -0.1,0 -0.1,0c-0.1,0 -0.1,-0.15683 -0.2,-0.15683c0,0 -0.1,0 -0.1,-0.15683c-0.1,0 -0.1,-0.15683 -0.2,-0.31367c0,0 0,0 0,0c-0.1,-0.15683 -0.2,-0.15683 -0.2,-0.31367c0,0 0,0 0,0c-0.1,-0.15683 -0.1,-0.15683 -0.2,-0.31367c0,0 0,0 0,0c0,-0.15683 -0.1,-0.31367 -0.1,-0.31367c0,0 0,0 0,0c0,-0.15683 -0.1,-0.31367 -0.1,-0.4705c0,0 0,0 0,0c0,-0.15683 0,-0.31367 0,-0.4705c0.1,-0.31367 0.1,-0.62734 0.1,-0.78417c0,0 0,0 0,0z" class="st5"/>
     <g >
      <path cursor="pointer" pointer-events="visible"   d="m193.4,126.93165c-3.9,1.88201 -7.2,5.95971 -8.3,9.88058c-2.8,1.56835 -5,5.01871 -5,7.84173c0,2.97986 2.5,4.23453 5.6,2.66619c1.3,-0.62734 14.8,-7.21439 16.2,-7.84173c2.2,-1.09784 3.9,-3.60719 3.9,-5.64604c0,-2.03885 -1.7,-2.97986 -3.8,-1.88201c0,-0.31367 0,-0.4705 0,-0.78417c0.1,-4.70504 -3.8,-6.58705 -8.6,-4.23453z" class="st7"/>
     </g>
    </g>
    <g >
     <path cursor="pointer" pointer-events="visible"   d="m159,170.53165c0.1,0 0.3,-0.15683 0.4,-0.15683c0,0 0,0 0,0c0.1,0 0.3,0 0.4,-0.15683c0,0 0,0 0,0c0.1,0 0.3,0 0.4,0l0,0c0.1,0 0.2,0 0.3,0c0,0 0,0 0.1,0c0.1,0 0.2,0 0.3,0c0,0 0.1,0 0.1,0c0.1,0 0.1,0 0.2,0c0.1,0 0.2,0.15683 0.4,0.15683l-3.4,-1.72518c-0.1,0 -0.2,-0.15683 -0.4,-0.15683c0,0 0,0 0,0c-0.1,0 -0.1,0 -0.2,0c0,0 -0.1,0 -0.1,0c0,0 0,0 0,0c-0.1,0 -0.2,0 -0.3,0c0,0 0,0 0,0c0,0 0,0 -0.1,0c0,0 -0.1,0 -0.1,0c-0.1,0 -0.1,0 -0.2,0l0,0l0,0c-0.1,0 -0.1,0 -0.2,0c-0.1,0 -0.1,0 -0.2,0l0,0c0,0 0,0 0,0c-0.1,0 -0.1,0 -0.2,0c-0.1,0 -0.1,0 -0.2,0c0,0 0,0 0,0c0,0 0,0 0,0c0,0 -0.1,0 -0.1,0c-0.1,0 -0.1,0 -0.2,0c0,0 -0.1,0 -0.1,0c0,0 0,0 0,0c0,0 0,0 -0.1,0c-0.1,0 -0.1,0 -0.2,0c-0.1,0 -0.1,0 -0.2,0.15683c0,0 0,0 0,0l3.4,1.72518c0.2,0.31367 0.3,0.31367 0.5,0.15683c0,0 0,0 0,0z" class="st5"/>
     <path cursor="pointer" pointer-events="visible"   d="m139,175.70719c0.1,-0.31367 0.2,-0.4705 0.3,-0.78417c0,0 0,0 0,0c0.1,-0.31367 0.2,-0.4705 0.3,-0.78417c0,0 0,0 0,0c0.1,-0.31367 0.3,-0.4705 0.4,-0.78417c0,0 0,0 0.1,-0.15683c0.1,-0.31367 0.3,-0.4705 0.4,-0.78417c0,0 0.1,-0.15683 0.1,-0.15683c0.1,-0.15683 0.2,-0.31367 0.4,-0.62734c0.1,-0.15683 0.1,-0.15683 0.2,-0.31367c0.1,-0.15683 0.1,-0.15683 0.2,-0.31367c0.2,-0.31367 0.4,-0.4705 0.6,-0.78417c0.1,-0.15683 0.1,-0.15683 0.2,-0.31367c0.1,-0.15683 0.2,-0.31367 0.3,-0.31367c0.1,-0.15683 0.2,-0.31367 0.4,-0.4705c0,0 0.1,-0.15683 0.1,-0.15683c0.2,-0.15683 0.4,-0.4705 0.6,-0.62734c0,0 0.1,0 0.1,0c0.2,-0.15683 0.4,-0.4705 0.7,-0.62734c0,0 0,0 0,0c0.2,-0.15683 0.5,-0.4705 0.7,-0.62734c0,0 0.1,0 0.1,0c0.2,-0.15683 0.5,-0.31367 0.7,-0.4705c0,0 0.1,0 0.1,-0.15683c0.2,-0.15683 0.5,-0.31367 0.7,-0.4705c0,0 0.1,0 0.1,0c0.2,-0.15683 0.5,-0.31367 0.7,-0.4705c0,0 0.1,0 0.1,0c0.3,-0.15683 0.5,-0.31367 0.8,-0.4705c0.1,0 0.3,-0.15683 0.4,-0.15683c0.1,0 0.1,0 0.2,0c0.1,0 0.2,-0.15683 0.3,-0.15683c0,0 0.1,0 0.1,0c0.2,0 0.3,-0.15683 0.5,-0.15683l0,0l0,0c0.2,0 0.3,-0.15683 0.5,-0.15683c0,0 0.1,0 0.1,0c0.1,0 0.2,0 0.3,-0.15683c0.1,0 0.1,0 0.2,0c0.1,0 0.2,0 0.3,0c0.1,0 0.1,0 0.2,0c0.1,0 0.2,0 0.3,0c0.1,0 0.1,0 0.2,0c0.1,0 0.2,0 0.2,0c0.1,0 0.1,0 0.2,0c0.1,0 0.1,0 0.2,0c0.1,0 0.2,0 0.3,0c0.1,0 0.1,0 0.2,0c0.1,0 0.2,0 0.3,0c0.1,0 0.1,0 0.2,0c0.2,0 0.3,0 0.5,0c0,0 0,0 0,0c0.2,0 0.4,0.15683 0.6,0.15683c0,0 0.1,0 0.1,0c0.1,0 0.2,0 0.3,0.15683c0,0 0.1,0 0.1,0c0.1,0 0.3,0.15683 0.4,0.15683l-7.1,-3.45036c-0.1,0 -0.3,-0.15683 -0.4,-0.15683c0,0 -0.1,0 -0.1,0c-0.1,0 -0.2,0 -0.3,-0.15683c0,0 0,0 0,0c0,0 0,0 -0.1,0c-0.2,0 -0.4,-0.15683 -0.6,-0.15683c0,0 0,0 0,0c0,0 0,0 0,0c-0.2,0 -0.3,0 -0.5,0c0,0 0,0 -0.1,0c0,0 -0.1,0 -0.1,0c-0.1,0 -0.2,0 -0.3,0c0,0 -0.1,0 -0.1,0c0,0 0,0 -0.1,0c-0.1,0 -0.2,0 -0.3,0c0,0 -0.1,0 -0.1,0c0,0 0,0 -0.1,0c-0.1,0 -0.1,0 -0.2,0c-0.1,0 -0.1,0 -0.2,0c0,0 0,0 -0.1,0c-0.1,0 -0.1,0 -0.2,0c-0.1,0 -0.1,0 -0.2,0c0,0 -0.1,0 -0.1,0c-0.1,0 -0.1,0 -0.2,0c0,0 -0.1,0 -0.1,0c0,0 -0.1,0 -0.1,0c-0.1,0 -0.1,0 -0.2,0c0,0 -0.1,0 -0.1,0c-0.1,0 -0.1,0 -0.2,0c0,0 -0.1,0 -0.1,0c0,0 0,0 -0.1,0c-0.1,0 -0.3,0.15683 -0.4,0.15683c0,0 0,0 0,0c-0.1,0 -0.3,0.15683 -0.4,0.15683c0,0 0,0 -0.1,0c0,0 -0.1,0 -0.1,0c-0.1,0 -0.1,0 -0.2,0.15683c0,0 -0.1,0 -0.1,0c-0.1,0 -0.1,0 -0.2,0c0,0 -0.1,0 -0.1,0c-0.1,0 -0.2,0.15683 -0.3,0.15683c0,0 -0.1,0 -0.1,0c-0.1,0 -0.3,0.15683 -0.4,0.15683c-0.1,0 -0.2,0.15683 -0.3,0.15683c0,0 -0.1,0 -0.1,0c0,0 -0.1,0 -0.1,0c-0.1,0.15683 -0.3,0.15683 -0.4,0.31367c-0.1,0 -0.1,0.15683 -0.2,0.15683c0,0 -0.1,0 -0.1,0c0,0 -0.1,0 -0.1,0c-0.2,0.15683 -0.3,0.15683 -0.5,0.31367c0,0 -0.1,0 -0.1,0.15683c0,0 -0.1,0 -0.1,0.15683c-0.1,0 -0.1,0.15683 -0.2,0.15683c-0.2,0.15683 -0.3,0.15683 -0.4,0.31367c0,0 0,0 0,0c0,0 -0.1,0 -0.1,0c-0.1,0.15683 -0.2,0.15683 -0.3,0.31367c-0.1,0.15683 -0.3,0.15683 -0.4,0.31367c0,0 0,0 0,0c0,0 0,0 0,0c-0.1,0.15683 -0.3,0.31367 -0.4,0.31367c-0.1,0.15683 -0.2,0.15683 -0.3,0.31367c0,0 -0.1,0 -0.1,0c0,0 0,0 -0.1,0c-0.1,0.15683 -0.3,0.31367 -0.4,0.4705c0,0 -0.1,0.15683 -0.1,0.15683c0,0 -0.1,0.15683 -0.1,0.15683c0,0 -0.1,0.15683 -0.1,0.15683c-0.1,0.15683 -0.2,0.15683 -0.2,0.31367c-0.1,0.15683 -0.2,0.15683 -0.3,0.31367c0,0 -0.1,0 -0.1,0.15683c0,0 -0.1,0.15683 -0.1,0.15683c-0.2,0.31367 -0.4,0.4705 -0.6,0.78417c0,0 -0.1,0.15683 -0.1,0.15683c0,0 -0.1,0.15683 -0.1,0.15683c-0.1,0.15683 -0.1,0.15683 -0.2,0.31367c-0.1,0.15683 -0.1,0.15683 -0.2,0.31367c-0.1,0.15683 -0.1,0.15683 -0.2,0.31367c0,0 -0.1,0.15683 -0.1,0.15683c0,0 0,0 -0.1,0.15683c-0.1,0.15683 -0.2,0.31367 -0.2,0.4705c0,0 -0.1,0.15683 -0.1,0.15683c0,0 0,0 0,0.15683c0,0 0,0 -0.1,0.15683c-0.1,0.15683 -0.1,0.31367 -0.2,0.4705c0,0.15683 -0.1,0.15683 -0.1,0.31367c0,0 0,0 0,0c0,0 0,0 0,0c-0.1,0.15683 -0.1,0.31367 -0.2,0.4705c0,0.15683 -0.1,0.15683 -0.1,0.31367c0,0 0,0 0,0c0,0 0,0 0,0c-0.1,0.15683 -0.1,0.31367 -0.2,0.4705c0,0.15683 -0.1,0.15683 -0.1,0.31367c0,0 0,0 0,0.15683c0,0 0,0 0,0c0,0.15683 -0.1,0.31367 -0.1,0.4705c0,0.15683 -0.1,0.15683 -0.1,0.31367l7.1,3.45036c-0.3,-0.15683 -0.3,-0.4705 -0.1,-0.78417c-0.1,0.15683 0,0 0,0z" class="st6"/>
     <path cursor="pointer" pointer-events="visible"   d="m132.8,185.11727c0,-0.15683 0,-0.31367 0.1,-0.62734c0,0 0,0 0,0c0,-0.15683 0.1,-0.4705 0.1,-0.62734l0,0c0.1,-0.15683 0.1,-0.4705 0.2,-0.62734c0,0 0,0 0,0c0.1,-0.15683 0.1,-0.31367 0.2,-0.62734c0,0 0,0 0,0c0.1,-0.15683 0.2,-0.31367 0.3,-0.62734c0,0 0,0 0,0c0.1,-0.15683 0.2,-0.4705 0.3,-0.62734c0,0 0,0 0,0c0.1,-0.15683 0.2,-0.31367 0.3,-0.62734c0,0 0.1,-0.15683 0.1,-0.15683c0.1,-0.15683 0.2,-0.31367 0.3,-0.31367c0.1,-0.15683 0.2,-0.31367 0.3,-0.4705c0.1,0 0.1,-0.15683 0.2,-0.15683c0,0 0.1,-0.15683 0.1,-0.15683c0.1,-0.15683 0.2,-0.31367 0.3,-0.31367c0,0 0.1,0 0.1,-0.15683c0.1,-0.15683 0.3,-0.31367 0.4,-0.4705c0,0 0,0 0.1,0c0.2,-0.15683 0.3,-0.31367 0.5,-0.4705c0,0 0,0 0.1,0c0.2,-0.15683 0.3,-0.31367 0.5,-0.4705c0,0 0,0 0.1,0c0.2,-0.15683 0.3,-0.31367 0.5,-0.31367c0,0 0,0 0.1,0c0.2,-0.15683 0.4,-0.31367 0.6,-0.31367l-7.1,-3.45036c-0.1,0 -0.1,0.15683 -0.2,0.15683c-0.1,0 -0.2,0.15683 -0.3,0.15683c0,0 -0.1,0 -0.1,0c0,0 0,0 -0.1,0c0,0 -0.1,0 -0.1,0.15683c-0.1,0 -0.2,0.15683 -0.3,0.15683c0,0 -0.1,0 -0.1,0c0,0 0,0 -0.1,0c0,0 -0.1,0 -0.1,0.15683c-0.1,0 -0.2,0.15683 -0.3,0.15683c0,0 -0.1,0 -0.1,0c0,0 0,0 -0.1,0c0,0 -0.1,0 -0.1,0.15683c-0.1,0 -0.2,0.15683 -0.3,0.31367c0,0 -0.1,0 -0.1,0.15683c0,0 0,0 -0.1,0c0,0 -0.1,0 -0.1,0.15683c-0.1,0.15683 -0.2,0.15683 -0.3,0.31367c0,0 -0.1,0 -0.1,0.15683c0,0 -0.1,0 -0.1,0.15683c0,0 -0.1,0 -0.1,0.15683c-0.1,0.15683 -0.1,0.15683 -0.2,0.31367c0,0 -0.1,0.15683 -0.1,0.15683c0,0 0,0 0,0c0,0 -0.1,0.15683 -0.1,0.15683c-0.1,0.15683 -0.2,0.31367 -0.3,0.4705c0,0 0,0 -0.1,0.15683c-0.1,0.15683 -0.1,0.15683 -0.2,0.31367c0,0 -0.1,0.15683 -0.1,0.15683c0,0 0,0 0,0c-0.1,0.15683 -0.1,0.15683 -0.2,0.31367c0,0 -0.1,0.15683 -0.1,0.15683c0,0 0,0 0,0c0,0 0,0 0,0c-0.1,0.15683 -0.1,0.15683 -0.1,0.31367c0,0.15683 -0.1,0.15683 -0.1,0.31367c0,0 0,0 0,0c0,0 0,0 0,0c0,0 -0.1,0.15683 -0.1,0.15683c0,0.15683 -0.1,0.15683 -0.1,0.31367c0,0 0,0.15683 0,0.15683c0,0 0,0 0,0c0,0 0,0 0,0.15683c0,0.15683 -0.1,0.15683 -0.1,0.31367c0,0 0,0.15683 -0.1,0.15683c0,0 0,0 0,0c0,0 0,0 0,0c0,0.15683 -0.1,0.15683 -0.1,0.31367c0,0.15683 -0.1,0.15683 -0.1,0.31367l0,0l0,0c0,0.15683 0,0.15683 -0.1,0.31367c0,0.15683 0,0.15683 -0.1,0.31367c0,0 0,0 0,0c0,0 0,0 0,0c0,0 0,0.15683 0,0.15683c0,0.15683 0,0.15683 0,0.31367c0,0 0,0.15683 0,0.15683c0,0 0,0 0,0c0,0 0,0 0,0.15683c0,0.15683 0,0.15683 0,0.31367c0,0.15683 0,0.15683 0,0.31367c0,0 0,0 0,0c0,0.15683 0,0.15683 0,0.31367c0,0.15683 0,0.15683 0,0.31367c0,0 0,0 0,0c0,0 0,0 0,0c0,0 0,0.15683 0,0.15683c0,0.15683 0,0.15683 0,0.31367c0,0 0,0 0,0.15683c0,0 0,0 0,0c0,0 0,0 0,0.15683c0,0.15683 0.1,0.15683 0.1,0.31367c0,0 0,0 0,0c0,0 0,0 0,0.15683c0,0 0,0.15683 0.1,0.15683c0,0.15683 0.1,0.15683 0.1,0.31367c0,0 0,0 0,0c0,0 0,0 0,0c0.1,0.15683 0.2,0.31367 0.2,0.31367c0,0 0,0 0,0c0,0 0,0 0,0c0.1,0.15683 0.2,0.15683 0.3,0.31367c0,0 0.1,0 0.1,0.15683c0.1,0 0.2,0.15683 0.2,0.15683c0,0 0.1,0 0.1,0c0.1,0.15683 0.2,0.15683 0.4,0.15683l7.1,3.45036c-0.1,0 -0.3,-0.15683 -0.4,-0.15683c0,0 -0.1,0 -0.1,0c-0.1,0 -0.2,-0.15683 -0.2,-0.15683c0,0 -0.1,0 -0.1,-0.15683c-0.1,-0.15683 -0.2,-0.15683 -0.3,-0.31367c0,0 0,0 0,0c-0.1,-0.15683 -0.2,-0.31367 -0.3,-0.4705c0,0 0,0 0,0c-0.1,-0.15683 -0.1,-0.31367 -0.2,-0.4705c0,0 0,0 0,-0.15683c-0.1,-0.15683 -0.1,-0.31367 -0.1,-0.4705c0,0 0,0 0,0c0,-0.15683 -0.1,-0.31367 -0.1,-0.4705c0,0 0,0 0,0c0,-0.15683 0,-0.4705 0,-0.62734c0,-0.62734 0,-0.78417 0,-1.09784c0,0 0,0 0,0z" class="st5"/>
     <g >
      <path cursor="pointer" pointer-events="visible"   d="m148.4,165.04244c-4.6,2.19568 -8.4,7.05755 -9.7,11.60576c-3.3,1.88201 -5.9,5.80288 -5.9,9.0964c0,3.45036 3,4.86187 6.6,3.13669c1.5,-0.78417 17.4,-8.46906 19,-9.25324c2.6,-1.25468 4.6,-4.23453 4.6,-6.74389c0,-2.35252 -2,-3.45036 -4.5,-2.35252c0,-0.31367 0,-0.62734 0,-0.94101c0,-5.01871 -4.5,-7.21439 -10.1,-4.5482z" class="st7"/>
     </g>
    </g>
   </g>
   <g >
    <g >
     <path cursor="pointer" pointer-events="visible"   d="m55,58.08129c13.4,-6.43022 24.2,-1.25468 24.3,11.60576l0.1,36.38561l-48.4,23.21151l-0.1,-36.38561c0,-12.86043 10.8,-28.38705 24.1,-34.81727z" class="st14"/>
     <path cursor="pointer" pointer-events="visible"   d="m26.3,89.60503c1.7,-11.60576 6.5,-22.42734 18.2,-30.73957c5.5,-3.92086 14,-7.84173 21.4,-5.17554c0.1,0 0.2,0 0.3,0.15683c0.3,0.15683 0.6,0.31367 0.9,0.4705l5.1,2.50935c-0.3,-0.15683 -0.6,-0.31367 -0.9,-0.4705c-0.1,0 -0.2,0 -0.3,-0.15683c-0.2,0 -0.4,-0.15683 -0.6,-0.15683c-0.2,0 -0.4,-0.15683 -0.5,-0.15683c-0.1,0 -0.2,0 -0.3,-0.15683c-0.2,0 -0.5,-0.15683 -0.7,-0.15683c-0.1,0 -0.1,0 -0.2,0c-0.3,0 -0.6,-0.15683 -0.9,-0.15683c-0.1,0 -0.2,0 -0.2,0c-0.3,0 -0.5,0 -0.8,0c0,0 -0.1,0 -0.1,0c-0.3,0 -0.6,0 -0.8,0c-0.2,0 -0.4,0 -0.6,0c-0.2,0 -0.3,0 -0.5,0c-0.2,0 -0.3,0 -0.5,0c-0.2,0 -0.4,0 -0.6,0c-0.2,0 -0.3,0 -0.5,0c-0.2,0 -0.4,0 -0.6,0.15683c-0.1,0 -0.3,0 -0.4,0.15683c-0.2,0 -0.4,0.15683 -0.7,0.15683c-0.1,0 -0.3,0 -0.4,0.15683c-0.2,0 -0.5,0.15683 -0.7,0.15683c-0.1,0 -0.2,0 -0.3,0.15683c-0.4,0.15683 -0.7,0.15683 -1.1,0.31367c-0.4,0.15683 -0.7,0.31367 -1.1,0.4705c-0.1,0 -0.2,0.15683 -0.4,0.15683c-0.3,0.15683 -0.5,0.15683 -0.8,0.31367c-0.1,0 -0.3,0.15683 -0.4,0.15683c-0.4,0.15683 -0.7,0.31367 -1.1,0.4705c-0.4,0.15683 -0.8,0.31367 -1.2,0.62734c0,0 0,0 -0.1,0c-0.4,0.15683 -0.8,0.4705 -1.1,0.62734c-0.1,0 -0.3,0.15683 -0.4,0.15683c-0.3,0.15683 -0.5,0.31367 -0.8,0.4705c-0.2,0.15683 -0.3,0.15683 -0.5,0.31367c-0.2,0.15683 -0.4,0.31367 -0.7,0.4705c-0.2,0.15683 -0.3,0.15683 -0.5,0.31367c-0.2,0.15683 -0.4,0.31367 -0.6,0.4705c-0.2,0.15683 -0.3,0.31367 -0.5,0.31367c-0.2,0.15683 -0.4,0.31367 -0.6,0.4705c-0.2,0.15683 -0.3,0.31367 -0.5,0.31367c-0.2,0.15683 -0.4,0.31367 -0.6,0.4705c-0.2,0.15683 -0.3,0.31367 -0.5,0.31367c-0.2,0.15683 -0.4,0.31367 -0.6,0.4705c-0.1,0.15683 -0.3,0.31367 -0.4,0.31367c-0.2,0.15683 -0.5,0.4705 -0.7,0.62734c-0.1,0.15683 -0.2,0.15683 -0.3,0.31367c-0.3,0.31367 -0.7,0.62734 -1,0.94101c-0.1,0 -0.1,0.15683 -0.2,0.15683c-0.3,0.31367 -0.5,0.62734 -0.8,0.78417c-0.3,0.31367 -0.7,0.78417 -1,1.09784c0,0 0,0 0,0c-0.5,0.4705 -0.9,1.09784 -1.4,1.56835c-0.1,0.15683 -0.2,0.31367 -0.3,0.31367c-0.2,0.15683 -0.3,0.4705 -0.5,0.62734c-0.1,0.15683 -0.3,0.31367 -0.4,0.62734c-0.2,0.15683 -0.3,0.4705 -0.5,0.62734c-0.1,0.15683 -0.2,0.31367 -0.4,0.4705c-0.4,0.4705 -0.7,1.09784 -1,1.56835c-0.1,0.15683 -0.2,0.31367 -0.4,0.62734c-0.1,0.15683 -0.3,0.4705 -0.4,0.62734c-0.2,0.31367 -0.3,0.62734 -0.5,0.94101c-0.1,0.15683 -0.1,0.15683 -0.2,0.31367c-0.2,0.31367 -0.4,0.78417 -0.6,1.09784c-0.1,0.15683 -0.1,0.15683 -0.2,0.31367c-0.1,0.31367 -0.3,0.62734 -0.4,0.78417c-0.1,0.15683 -0.1,0.31367 -0.2,0.31367c-0.1,0.31367 -0.3,0.4705 -0.4,0.78417c-0.1,0.15683 -0.1,0.15683 -0.2,0.31367c-0.2,0.31367 -0.3,0.78417 -0.5,1.09784c0,0 0,0 0,0.15683c-0.2,0.31367 -0.3,0.78417 -0.4,1.09784c0,0.15683 -0.1,0.31367 -0.1,0.31367c-0.1,0.31367 -0.2,0.4705 -0.3,0.78417c0,0.15683 -0.1,0.31367 -0.1,0.4705c-0.1,0.31367 -0.2,0.4705 -0.2,0.78417c0,0.15683 -0.1,0.31367 -0.1,0.4705c-0.1,0.31367 -0.1,0.4705 -0.2,0.78417c0,0.15683 -0.1,0.31367 -0.1,0.4705c-0.1,0.31367 -0.1,0.62734 -0.2,0.94101c0,0 0,0.15683 0,0.15683c-0.1,0.31367 -0.1,0.78417 -0.2,1.09784c0,0.15683 0,0.15683 0,0.31367c0,0.31367 -0.1,0.4705 -0.1,0.78417c0,0.15683 0,0.31367 0,0.31367c0,0.31367 0,0.4705 -0.1,0.78417c0,0.15683 0,0.31367 0,0.31367c0,0.31367 0,0.78417 0,1.09784l0.1,36.38561l-5.1,-2.50935c-0.1,-11.44892 -1.5,-24.62302 0.3,-36.69928z" class="st15"/>
     <path cursor="pointer" pointer-events="visible"   d="m66.9,71.56906l-26.8,13.01727c-1.5,0.78417 -2.5,2.03885 -2.5,3.60719l0,0.31367c0,2.97986 3.8,4.70504 6.8,3.29353l27.5,-13.33094c1.4,-0.62734 2.3,-1.88201 2.3,-3.29353c0.1,-3.13669 -4,-5.17554 -7.3,-3.60719z" class="st16"/>
    </g>
    <polygon cursor="pointer" pointer-events="visible"   points="127.80000305175781,93.05538083965075 127.5999984741211,129.44100872206036 202.3000030517578,93.05538083965075 202.5,56.66977683104051 " class="st14"/>
    <path cursor="pointer" pointer-events="visible"   d="m88.3,55.88561c0.2,0 0.4,-0.15683 0.5,-0.15683c0.1,0 0.2,0 0.3,-0.15683c0.2,0 0.5,-0.15683 0.7,-0.15683c0.1,0 0.1,0 0.2,0c0.3,0 0.6,-0.15683 0.9,-0.15683c0.1,0 0.2,0 0.2,0c0.3,0 0.5,0 0.8,0c0,0 0.1,0 0.1,0c0.3,0 0.6,0 0.8,0c0.2,0 0.4,0 0.6,0c0.2,0 0.3,0 0.5,0c0.2,0 0.3,0 0.5,0c0.2,0 0.4,0 0.6,0c0.2,0 0.3,0 0.5,0c0.2,0 0.4,0 0.6,0.15683c0.1,0 0.3,0 0.4,0.15683c0.2,0 0.4,0.15683 0.7,0.15683c0.1,0 0.3,0 0.4,0.15683c0.2,0 0.5,0.15683 0.7,0.15683c0.1,0 0.2,0 0.3,0.15683c0.4,0.15683 0.7,0.15683 1.1,0.31367c0,0 0,0 0,0c0.4,0.15683 0.7,0.31367 1.1,0.4705c0.1,0 0.2,0.15683 0.4,0.15683c0.3,0.15683 0.5,0.15683 0.8,0.31367c0.1,0 0.3,0.15683 0.4,0.15683c0.4,0.15683 0.7,0.31367 1.1,0.4705l74.7,-36.22878c-0.3,-0.15683 -0.5,-0.31367 -0.8,-0.31367c-0.1,0 -0.2,-0.15683 -0.3,-0.15683c-0.1,0 -0.3,-0.15683 -0.4,-0.15683c-0.1,0 -0.2,-0.15683 -0.3,-0.15683c-0.2,0 -0.3,-0.15683 -0.5,-0.15683c-0.1,0 -0.2,-0.15683 -0.3,-0.15683c0,0 -0.1,0 -0.1,0c-0.3,-0.15683 -0.6,-0.31367 -1,-0.31367l0,0c0,0 0,0 0,0c-0.3,-0.15683 -0.7,-0.15683 -1,-0.31367c0,0 -0.1,0 -0.1,0c-0.1,0 -0.2,0 -0.3,-0.15683c-0.2,0 -0.3,-0.15683 -0.5,-0.15683c-0.1,0 -0.2,0 -0.2,0c-0.1,0 -0.3,0 -0.4,-0.15683c-0.1,0 -0.2,0 -0.3,0c-0.1,0 -0.2,0 -0.3,0c-0.1,0 -0.3,0 -0.4,-0.15683c-0.1,0 -0.2,0 -0.2,0c-0.1,0 -0.3,0 -0.4,0c-0.2,0 -0.3,0 -0.5,0c-0.1,0 -0.1,0 -0.2,0c-0.1,0 -0.3,0 -0.4,0c-0.2,0 -0.3,0 -0.5,0c-0.1,0 -0.1,0 -0.2,0c-0.1,0 -0.2,0 -0.3,0c-0.2,0 -0.4,0 -0.6,0c-0.1,0 -0.1,0 -0.2,0c-0.2,0 -0.4,0 -0.7,0c0,0 -0.1,0 -0.1,0c-0.2,0 -0.3,0 -0.5,0c-0.1,0 -0.2,0 -0.3,0c-0.1,0 -0.2,0 -0.2,0c-0.3,0 -0.6,0 -0.8,0.15683c0,0 0,0 0,0c-0.1,0 -0.2,0 -0.2,0c-0.2,0 -0.5,0.15683 -0.7,0.15683c-0.1,0 -0.2,0 -0.3,0.15683c-0.1,0 -0.3,0 -0.4,0.15683c0,0 -0.1,0 -0.1,0c-0.2,0 -0.4,0.15683 -0.6,0.15683c-0.1,0 -0.2,0 -0.3,0.15683c-0.3,0.15683 -0.6,0.31367 -0.9,0.4705l-74.7,36.22878c0.3,-0.15683 0.6,-0.31367 0.9,-0.4705c0.1,0 0.2,0 0.3,-0.15683c0,-0.4705 0.2,-0.4705 0.4,-0.62734z" class="st14"/>
    <path cursor="pointer" pointer-events="visible"   d="m103.7,58.08129c-13.4,-6.43022 -24.2,-1.25468 -24.3,11.60576l-0.1,36.38561l48.4,23.36835l0.1,-36.38561c0,-12.86043 -10.8,-28.54389 -24.1,-34.9741z" class="st17"/>
    <path cursor="pointer" pointer-events="visible"   d="m106,59.33597c0.1,0 0.3,0.15683 0.4,0.15683c0.3,0.15683 0.5,0.31367 0.8,0.4705c0.2,0.15683 0.3,0.15683 0.5,0.31367c0.2,0.15683 0.4,0.31367 0.7,0.4705c0.2,0.15683 0.3,0.15683 0.5,0.31367c0.2,0.15683 0.4,0.31367 0.6,0.4705c0.2,0.15683 0.3,0.31367 0.5,0.31367c0.2,0.15683 0.4,0.31367 0.6,0.4705c0.2,0.15683 0.3,0.31367 0.5,0.31367c0.2,0.15683 0.4,0.31367 0.6,0.4705c0.2,0.15683 0.3,0.31367 0.5,0.31367c0.2,0.15683 0.4,0.31367 0.6,0.4705c0.1,0.15683 0.3,0.31367 0.4,0.31367c0.2,0.15683 0.5,0.4705 0.7,0.62734c0.1,0.15683 0.2,0.15683 0.3,0.31367c0.3,0.31367 0.7,0.62734 1,0.94101c0.1,0 0.1,0.15683 0.2,0.15683c0.3,0.31367 0.5,0.62734 0.8,0.78417c0.3,0.31367 0.7,0.78417 1,1.09784c0,0 0,0 0,0c0.5,0.4705 0.9,1.09784 1.4,1.56835c0.1,0.15683 0.2,0.31367 0.3,0.31367c0.2,0.15683 0.3,0.4705 0.5,0.62734c0.1,0.15683 0.3,0.31367 0.4,0.62734c0.2,0.15683 0.3,0.4705 0.5,0.62734c0.1,0.15683 0.2,0.31367 0.4,0.4705c0.4,0.4705 0.7,1.09784 1,1.56835c0.1,0.15683 0.2,0.31367 0.4,0.62734c0.1,0.15683 0.3,0.4705 0.4,0.62734c0.2,0.31367 0.3,0.62734 0.5,0.94101c0.1,0.15683 0.1,0.15683 0.2,0.31367c0.2,0.31367 0.4,0.78417 0.6,1.09784c0.1,0.15683 0.1,0.15683 0.2,0.31367c0.1,0.31367 0.3,0.62734 0.4,0.78417c0.1,0.15683 0.1,0.31367 0.2,0.31367c0.1,0.31367 0.3,0.4705 0.4,0.78417c0.1,0.15683 0.1,0.15683 0.2,0.31367c0.2,0.31367 0.3,0.78417 0.5,1.09784c0,0 0,0 0,0.15683c0.2,0.31367 0.3,0.78417 0.4,1.09784c0,0.15683 0.1,0.31367 0.1,0.31367c0.1,0.31367 0.2,0.4705 0.3,0.78417c0,0.15683 0.1,0.31367 0.1,0.4705c0.1,0.31367 0.2,0.4705 0.2,0.78417c0,0.15683 0.1,0.31367 0.1,0.4705c0.1,0.31367 0.1,0.4705 0.2,0.78417c0,0.15683 0.1,0.31367 0.1,0.4705c0.1,0.31367 0.1,0.62734 0.2,0.94101c0,0 0,0.15683 0,0.15683c0.1,0.31367 0.1,0.78417 0.2,1.09784c0,0.15683 0,0.15683 0,0.31367c0,0.31367 0.1,0.4705 0.1,0.78417c0,0.15683 0,0.31367 0,0.31367c0,0.31367 0,0.4705 0.1,0.78417c0,0.15683 0,0.31367 0,0.31367c0,0.31367 0,0.78417 0,1.09784l74.7,-36.22878c0,-0.31367 0,-0.62734 0,-0.94101c0,0 0,-0.15683 0,-0.15683c0,-0.15683 0,-0.31367 0,-0.31367c0,-0.15683 0,-0.31367 0,-0.4705c0,-0.15683 0,-0.15683 0,-0.31367c0,-0.15683 0,-0.31367 0,-0.31367c0,-0.15683 0,-0.15683 0,-0.31367c0,-0.15683 0,-0.31367 -0.1,-0.62734c0,-0.15683 0,-0.15683 0,-0.31367c0,0 0,0 0,-0.15683c-0.1,-0.31367 -0.1,-0.62734 -0.2,-0.94101c0,0 0,0 0,0c0,0 0,-0.15683 0,-0.15683c-0.1,-0.31367 -0.1,-0.62734 -0.2,-0.78417c0,0 0,-0.15683 0,-0.15683c0,-0.15683 -0.1,-0.31367 -0.1,-0.4705c0,-0.15683 -0.1,-0.31367 -0.1,-0.4705c0,-0.15683 -0.1,-0.15683 -0.1,-0.31367c0,-0.15683 -0.1,-0.31367 -0.1,-0.4705c0,-0.15683 -0.1,-0.15683 -0.1,-0.31367c0,-0.15683 -0.1,-0.31367 -0.1,-0.4705c0,-0.15683 -0.1,-0.31367 -0.1,-0.4705c0,0 0,-0.15683 -0.1,-0.15683c-0.1,-0.15683 -0.1,-0.31367 -0.2,-0.62734c0,-0.15683 -0.1,-0.31367 -0.1,-0.31367c0,0 0,0 0,-0.15683c-0.1,-0.31367 -0.3,-0.62734 -0.4,-1.09784c0,0 0,0 0,0c0,0 0,0 0,-0.15683c-0.1,-0.31367 -0.3,-0.62734 -0.4,-0.94101c0,0 0,-0.15683 -0.1,-0.15683c-0.1,-0.15683 -0.1,-0.15683 -0.2,-0.31367c-0.1,-0.15683 -0.1,-0.31367 -0.2,-0.4705c0,-0.15683 -0.1,-0.15683 -0.2,-0.31367c-0.1,-0.15683 -0.1,-0.31367 -0.2,-0.31367c0,-0.15683 -0.1,-0.15683 -0.1,-0.31367c-0.1,-0.15683 -0.2,-0.31367 -0.3,-0.62734c-0.1,-0.15683 -0.1,-0.15683 -0.2,-0.31367c0,0 0,0 -0.1,-0.15683c-0.2,-0.31367 -0.3,-0.62734 -0.5,-0.94101c0,0 0,0 0,0c-0.1,-0.15683 -0.1,-0.15683 -0.2,-0.31367c-0.1,-0.31367 -0.3,-0.4705 -0.4,-0.78417c0,0 0,0 -0.1,-0.15683c-0.1,-0.15683 -0.3,-0.4705 -0.4,-0.62734c-0.1,-0.15683 -0.2,-0.31367 -0.3,-0.4705c0,0 0,0 -0.1,-0.15683c-0.3,-0.4705 -0.7,-1.09784 -1,-1.56835c0,0 -0.1,-0.15683 -0.1,-0.15683c-0.1,-0.15683 -0.2,-0.31367 -0.3,-0.31367c-0.2,-0.15683 -0.3,-0.4705 -0.5,-0.62734c-0.1,-0.15683 -0.3,-0.31367 -0.4,-0.62734c-0.2,-0.15683 -0.3,-0.4705 -0.5,-0.62734c-0.1,0 -0.1,-0.15683 -0.2,-0.15683c-0.1,0 -0.1,-0.15683 -0.2,-0.15683c-0.4,-0.62734 -0.9,-1.09784 -1.4,-1.56835c0,0 0,0 0,0c0,0 0,0 0,0c-0.3,-0.31367 -0.7,-0.78417 -1,-1.09784c0,0 0,0 0,0c-0.3,-0.31367 -0.5,-0.4705 -0.8,-0.78417c-0.1,0 -0.1,-0.15683 -0.2,-0.15683c0,0 0,0 0,0c-0.3,-0.31367 -0.6,-0.62734 -0.9,-0.94101c0,0 0,0 0,0c-0.1,-0.15683 -0.2,-0.15683 -0.3,-0.31367c-0.2,-0.15683 -0.4,-0.31367 -0.6,-0.62734c0,0 -0.1,0 -0.1,-0.15683c-0.1,-0.15683 -0.3,-0.31367 -0.4,-0.31367c-0.2,-0.15683 -0.3,-0.31367 -0.5,-0.4705c-0.1,0 -0.1,-0.15683 -0.2,-0.15683c-0.2,-0.15683 -0.3,-0.31367 -0.5,-0.31367c-0.1,-0.15683 -0.3,-0.15683 -0.4,-0.31367c-0.1,0 -0.2,-0.15683 -0.2,-0.15683c-0.2,-0.15683 -0.3,-0.31367 -0.5,-0.31367c-0.1,-0.15683 -0.2,-0.15683 -0.3,-0.31367c-0.1,0 -0.2,-0.15683 -0.3,-0.15683c-0.2,-0.15683 -0.3,-0.31367 -0.5,-0.31367c-0.1,0 -0.2,-0.15683 -0.3,-0.15683c-0.1,0 -0.2,-0.15683 -0.3,-0.15683c-0.2,-0.15683 -0.3,-0.15683 -0.5,-0.31367c-0.1,0 -0.2,-0.15683 -0.3,-0.15683c-0.1,-0.15683 -0.3,-0.15683 -0.4,-0.31367c-0.2,-0.15683 -0.3,-0.15683 -0.5,-0.31367c-0.1,0 -0.1,-0.15683 -0.2,-0.15683c-0.2,-0.15683 -0.4,-0.15683 -0.6,-0.31367c-0.1,0 -0.3,-0.15683 -0.4,-0.15683c0,0 -0.1,0 -0.1,0c-0.3,-0.15683 -0.7,-0.31367 -1,-0.62734c0,0 0,0 0,0c0,0 0,0 -0.1,0c-0.3,-0.15683 -0.6,-0.31367 -0.9,-0.4705c-0.1,0 -0.2,0 -0.2,-0.15683l-74.7,36.22878c0.4,0.15683 0.8,0.31367 1.2,0.62734c0,0 0,0 0.1,0c0.3,0.78417 0.7,1.09784 1,1.25468z" class="st18"/>
    <path cursor="pointer" pointer-events="visible"   d="m127.8,93.05539c0,-3.13669 -0.6,-6.27338 -1.7,-9.56691l-44,21.3295l42.9,20.70216l2.8,-1.41151l0,-31.05324z" class="st14"/>
    <path cursor="pointer" pointer-events="visible"   d="m103.7,58.08129c-13.4,-6.43022 -24.2,-1.25468 -24.3,11.60576l-0.1,36.38561l48.4,23.36835l0.1,-36.38561c0,-12.86043 -10.8,-28.54389 -24.1,-34.9741zm21.2,67.28202l-42.9,-20.70216l0.1,-35.13094c0,-7.52806 4,-12.07626 10.7,-12.07626c2.9,0 6.1,0.78417 9.5,2.50935c12.6,6.11655 22.8,20.85899 22.7,32.93525l-0.1,32.46475z" class="st15"/>
    <g >
     <path cursor="pointer" pointer-events="visible"   d="m165,55.88561l-2.9,-3.13669c-0.4,-0.4705 -0.5,-1.09784 -0.3,-1.56835l3,-6.27338c0.3,-0.62734 -0.6,-1.25468 -1.3,-0.94101l-15.7,7.52806l0,13.6446l17,-8.1554c0.5,-0.15683 0.6,-0.78417 0.2,-1.09784z" class="st19"/>
     <g >
      <g >
       <polygon cursor="pointer" pointer-events="visible"   points="145.3000030517578,91.17337740404764 156.8000030517578,85.68416225352848 156.6999969482422,93.83955556942965 145.3000030517578,99.32876276201569 " class="st19"/>
       <polygon cursor="pointer" pointer-events="visible"   points="138.5,87.72301655095362 150,82.39065226225648 156.8000030517578,85.68416225352848 145.3000030517578,91.17337740404764 " class="st20"/>
       <polygon cursor="pointer" pointer-events="visible"   points="145.3000030517578,91.17337740404764 145.3000030517578,99.32876276201569 138.5,100.42662329957238 138.5,87.72301655095362 " class="st21"/>
      </g>
      <g >
       <g  class="st0">
        <g >
         <polygon cursor="pointer" pointer-events="visible"   points="147.3000030517578,88.50719128073251 143.89999389648438,86.78199891728582 144.3000030517578,51.65107447632181 147.6999969482422,53.37625092390226 " class="st10"/>
        </g>
        <g >
         <polygon cursor="pointer" pointer-events="visible"   points="147.6999969482422,53.37625092390226 144.3000030517578,51.65107447632181 147.8000030517578,50.08272899573058 151.1999969482422,51.80790942227759 " class="st9"/>
        </g>
        <g >
         <polygon cursor="pointer" pointer-events="visible"   points="151.1999969482422,51.80790942227759 150.6999969482422,86.93884977910784 147.3000030517578,88.50719128073251 147.6999969482422,53.37625092390226 " class="st8"/>
        </g>
       </g>
      </g>
     </g>
    </g>
    <g >
     <defs transform="translate(25.387155532836914,237.5) scale(1,1.5035971403121948) translate(-25.387155532836914,-237.5) translate(25.387155532836914,157.9545440673828) scale(1,1.0430622100830078) translate(-25.387155532836914,-157.9545440673828) ">
      <path cursor="pointer" pointer-events="visible"  d="m103.7,123.1c-13.4,-4.1 -38.4,2.7 -38.5,10.9l-4.3,32l66.7,2.5l0.1,-23.2c0.1,-8.1 -10.7,-18.1 -24,-22.2z" id="SVGID_1_mail"/>
     </defs>
     <clipPath transform="translate(25.387155532836914,237.5) scale(1,1.5035971403121948) translate(-25.387155532836914,-237.5) translate(25.387155532836914,157.9545440673828) scale(1,1.0430622100830078) translate(-25.387155532836914,-157.9545440673828) " id="SVGID_2_mail">
      <use  xlink:href="#SVGID_1_mail"/>
     </clipPath>
     <g  class="st22">
      <g >
       <path cursor="pointer" pointer-events="visible"   d="m114.7,67.17769c0,0 0,0 0,0c-0.1,0 -0.2,0 -0.2,-0.15683c0,0 0,0 0,0c0,0 0,0 -0.1,0c0,0 -0.1,0 -0.1,0c0,0 0,0 -0.1,0c0,0 -0.1,0 -0.1,0c0,0 -0.1,0 -0.1,0c0,0 -0.1,0 -0.1,0c0,0 -0.1,0 -0.1,0c0,0 0,0 -0.1,0c0,0 -0.1,0 -0.1,0c0,0 -0.1,0 -0.1,0c0,0 0,0 0,0c-0.1,0 -0.1,0 -0.2,0c0,0 0,0 0,0l0,0c0,0 0,0 0,0c0,0 -0.1,0 -0.1,0c0,0 0,0 -0.1,0c0,0 0,0 -0.1,0c0,0 -0.1,0 -0.1,0c0,0 0,0 -0.1,0c0,0 0,0 0,0c0,0 -0.1,0 -0.1,0c0,0 0,0 -0.1,0c0,0 -0.1,0 -0.1,0c0,0 0,0 -0.1,0c0,0 -0.1,0 -0.1,0c0,0 0,0 -0.1,0l0,0c0,0 0,0 0,0c0,0 -0.1,0 -0.1,0c0,0 -0.1,0 -0.4,0.15683l-39.5,19.13381c0,0 -0.1,0 -0.3,0.15683l0,0c-0.1,0 -0.1,0.15683 -0.2,0.15683c0,0 0,0 -0.1,0c0,0 -0.1,0 -0.1,0.15683c0,0 0,0 0,0c0,0 0,0 0,0c0,0 0,0 0,0c0,0 -0.1,0 -0.1,0.15683c0,0 0,0 -0.1,0c0,0 -0.1,0 -0.1,0.15683l0,0c-0.2,0.15683 -0.3,0.31367 -0.5,0.4705c0,0 0,0 0,0c-0.1,0 -0.1,0.15683 -0.2,0.15683c0,0 -0.1,0.15683 -0.1,0.15683c0,0 0,0 0,0c-0.1,0.15683 -0.2,0.15683 -0.3,0.31367c0,0 0,0 0,0c0,0 0,0 -0.1,0c-0.1,0 -0.1,0.15683 -0.2,0.15683c0,0 0,0 -0.1,0.15683c0,0 -0.1,0 -0.1,0.15683c0,0 0,0 -0.1,0.15683c-0.1,0 -0.1,0.15683 -0.2,0.15683c0,0 0,0 0,0c0,0 0,0 0,0c0,0 0,0 0,0l0,0c0,0 0,0 0,0c0,0 0,0 0,0c0,0 0,0 0,0c0,0 -0.1,0.15683 -0.1,0.15683c0,0 0,0 0,0c0,0 0,0 -0.1,0.15683l0,0c0,0 0,0 0,0.15683c0,0 0,0 -0.1,0.15683c0,0 0,0.15683 -0.1,0.15683c0,0 0,0.15683 -0.1,0.15683c0,0 0,0 0,0c0,0 -0.1,0.15683 -0.1,0.15683c0,0 0,0 0,0.15683c0,0 0,0 0,0c0,0.15683 -0.1,0.31367 -0.1,0.31367c0,0 0,0 0,0c0,0.15683 0,0.15683 -0.1,0.31367c0,0 0,0.15683 0,0.15683c0,0 0,0 0,0c0,0.15683 -0.1,0.31367 -0.1,0.4705c0,0 0,0 0,0c0,0 0,0.15683 0,0.15683c0,0 0,0.15683 0,0.15683c0,0.15683 0,0.31367 0,0.31367l0.1,20.23166l0,0c0,0.15683 0,0.31367 0,0.31367c0,0 0,0 0,0.15683c0,0.15683 0,0.15683 0,0.31367c0,0 0,0 0,0.15683c0,0 0,0.15683 0.1,0.15683c0,0 0,0 0,0.15683c0,0.15683 0.1,0.15683 0.1,0.31367c0,0 0,0 0,0c0,0.15683 0.1,0.15683 0.2,0.31367c0,0 0,0 0.1,0c0,0 0.1,0.15683 0.1,0.15683c0,0 0,0 0.1,0c0,0 0,0 0.1,0c0,0 0,0 0,0c0.1,0.15683 0.2,0.15683 0.4,0.31367l4.1,2.03885c-0.2,-0.15683 -0.3,-0.15683 -0.5,-0.31367c0,0 0,0 -0.1,0c0,0 -0.1,-0.15683 -0.1,-0.15683c0,0 0,0 -0.1,0c-0.1,0 -0.1,-0.15683 -0.2,-0.31367c0,0 0,0 0,0c0,-0.15683 -0.1,-0.15683 -0.1,-0.31367c0,0 0,0 0,-0.15683c0,0 0,-0.15683 -0.1,-0.15683c0,0 0,0 0,-0.15683c0,0 0,-0.15683 0,-0.31367c0,0 0,0 0,-0.15683c0,-0.15683 0,-0.31367 0,-0.31367l0,0l-0.1,-20.23166c0,-0.15683 0,-0.31367 0,-0.31367c0,0 0,-0.15683 0,-0.15683c0,-0.15683 0,-0.15683 0,-0.31367c0,-0.15683 0.1,-0.31367 0.1,-0.4705c0,0 0,-0.15683 0,-0.15683c0,0 0,-0.15683 0.1,-0.15683c0,-0.15683 0.1,-0.31367 0.1,-0.31367c0,0 0,0 0,-0.15683c0,-0.15683 0.1,-0.15683 0.1,-0.31367c0,0 0,-0.15683 0.1,-0.15683c0,-0.15683 0.1,-0.15683 0.1,-0.31367c0,0 0,0 0.1,-0.15683c0,0 0,0 0,0c0.1,-0.15683 0.1,-0.31367 0.2,-0.31367c0,0 0,0 0,0c0.1,-0.15683 0.2,-0.15683 0.2,-0.31367c0,0 0.1,0 0.1,-0.15683c0.1,-0.15683 0.2,-0.15683 0.2,-0.31367c0,0 0,0 0.1,0c0.1,-0.15683 0.2,-0.31367 0.3,-0.31367c0,0 0.1,-0.15683 0.1,-0.15683c0.1,0 0.1,-0.15683 0.2,-0.15683c0.1,-0.15683 0.3,-0.31367 0.4,-0.31367c0.1,0 0.2,-0.15683 0.3,-0.15683c0,0 0.1,0 0.1,-0.15683c0,0 0,0 0,0c0.1,-0.15683 0.3,-0.15683 0.4,-0.31367c0.2,-0.15683 0.3,-0.15683 0.3,-0.15683l39.5,-19.13381c0.3,-0.15683 0.3,-0.15683 0.4,-0.15683c0.1,0 0.3,-0.15683 0.4,-0.15683c0,0 0,0 0,0c0.1,0 0.2,0 0.3,-0.15683c0.1,0 0.2,0 0.3,0c0,0 0.1,0 0.1,0c0,0 0.1,0 0.1,0c0.1,0 0.1,0 0.2,0c0,0 0.1,0 0.1,0c0.1,0 0.1,0 0.2,0c0,0 0.1,0 0.1,0c0.1,0 0.1,0 0.2,0c0,0 0.1,0 0.1,0c0.1,0 0.1,0 0.2,0c0,0 0,0 0.1,0c0.1,0 0.2,0 0.2,0.15683l-3.9,-1.72518z" class="st23"/>
       <g >
        <path cursor="pointer" pointer-events="visible"   d="m118.6,95.56475c0,0 -0.1,0 0,0c0,0 0.1,-0.15683 0.1,-0.15683c0,0 -0.1,0 -0.1,0.15683c0.1,-0.15683 0.1,-0.15683 0.2,-0.31367c0,0 0,0 0,0c0,0 0,0 0,0c0,0 0,0 0,0c0.1,-0.15683 0.1,-0.15683 0.2,-0.31367c0,0 -0.1,0.15683 -0.1,0.15683c0.1,-0.15683 0.1,-0.15683 0.2,-0.31367c0,0 0,0 0,0c0.1,-0.15683 0.1,-0.31367 0.2,-0.31367c-0.1,0.15683 -0.1,0.15683 -0.2,0.31367c0.1,-0.15683 0.1,-0.15683 0.2,-0.31367c0,0 0,0 0,0c0,0 0,0 0,0c0,0 0,0 0,0l0,0l0,0l0,0l0,0l0,0c0.5,-0.94101 0.8,-1.88201 0.8,-2.82302l-0.1,-20.23166c0,-0.94101 -0.3,-1.56835 -0.8,-2.03885l0,0l0,0l0,0l0,0c-0.1,0 -0.2,-0.15683 -0.3,-0.15683c0,0 0,0 0,0c0,0 0,0 0,0c0,0 0,0 0,0c0,0 0,0 0,0c0,0 0,0 0,0c-0.1,0 -0.2,-0.15683 -0.3,-0.15683c0,0 0,0 0,0c0,0 0,0 0,0c-0.6,-0.31367 -1.5,-0.31367 -2.5,0.15683c0,0 -0.1,0 -0.4,0.15683l-39.5,19.13381c0,0 -0.1,0 -0.3,0.15683c-1.2,0.78417 -2.2,1.72518 -2.8,2.97986l0,0c0,0 0,0 0,0l0,0l0,0l0,0c-0.5,0.94101 -0.8,1.88201 -0.8,2.82302l0.1,20.23166c0,0.94101 0.3,1.56835 0.8,2.03885l0,0l0,0l0,0l0,0l0,0c0,0 0,0 0,0c0,0 0.1,0 0.1,0c0,0 0,0 0,0c0,0 0.1,0 0.1,0c0,0 0,0 0,0c0.1,0 0.2,0.15683 0.2,0.15683c0,0 0,0 -0.1,0c0.4,0.31367 1,0.31367 1.8,0.15683c0,0 0.1,0 0.3,0c0,0 0.1,0 0.3,-0.15683c0,0 0.1,0 0.3,-0.15683c0,0 0.1,0 0.4,-0.15683l39.5,-19.13381c0,0 0.1,0 0.3,-0.15683c0,0 0.1,0 0.3,-0.15683c0.6,-0.4705 1.2,-0.94101 1.7,-1.56835c0,0 -0.1,0 -0.1,0.15683c0,0 0.1,-0.15683 0.1,-0.15683c0.1,0.15683 0.1,0.15683 0.2,0c-0.1,0.15683 -0.1,0 0,0z" class="st24"/>
        <path cursor="pointer" pointer-events="visible"   d="m118.8,95.25108c0,0 0,0 0,0c0,0 0,0 0,0z" class="st25"/>
        <path cursor="pointer" pointer-events="visible"   d="m118.6,95.56475c0,0 0,0 0,0c0,0 0,0 0,0z" class="st25"/>
        <path cursor="pointer" pointer-events="visible"   d="m73.3,116.89424c0,0 0,0 0,0c0,0 0,0 0,0z" class="st25"/>
        <path cursor="pointer" pointer-events="visible"   d="m73.1,91.80072c0.1,-0.15683 0.2,-0.31367 0.3,-0.4705c-0.2,0.15683 -0.2,0.31367 -0.3,0.4705z" class="st25"/>
       </g>
       <g >
        <path cursor="pointer" pointer-events="visible"   d="m104.4,89.13453l14.9,5.33237c-0.6,1.09784 -1.5,2.03885 -2.5,2.82302c-0.2,0.15683 -0.3,0.15683 -0.3,0.15683c-0.2,0.15683 -0.3,0.15683 -0.3,0.15683l-39.5,19.13381c-0.3,0.15683 -0.3,0.15683 -0.4,0.15683c-0.2,0.15683 -0.3,0.15683 -0.3,0.15683c-0.2,0 -0.3,0.15683 -0.3,0.15683c-0.2,0 -0.3,0 -0.3,0c-1,0.15683 -1.6,0 -2.1,-0.4705l14.6,-19.60432l5.7,2.03885c0.7,0.31367 1.7,0.15683 2.6,-0.31367c0.9,-0.4705 1.8,-1.25468 2.6,-2.19568l5.6,-7.52806z" class="st26"/>
       </g>
       <g >
        <path cursor="pointer" pointer-events="visible"   d="m115.8,69.53021c0.3,-0.15683 0.3,-0.15683 0.4,-0.15683c1.3,-0.4705 2.4,-0.31367 3,0.15683l-14.8,19.60432l-5.7,7.52806c-0.7,0.94101 -1.6,1.72518 -2.6,2.19568c-0.9,0.4705 -1.8,0.62734 -2.6,0.31367l-5.7,-2.03885l-14.9,-5.33237c0.7,-1.25468 1.7,-2.35252 2.8,-2.97986c0.2,-0.15683 0.3,-0.15683 0.3,-0.15683l39.8,-19.13381z" class="st27"/>
       </g>
      </g>
      <g >
       <path cursor="pointer" pointer-events="visible"   d="m115.1,73.45108c0,0 0,0 0,0c-0.1,0 -0.2,0 -0.2,-0.15683c0,0 0,0 0,0c0,0 0,0 -0.1,0c0,0 -0.1,0 -0.1,0c0,0 0,0 -0.1,0c0,0 -0.1,0 -0.1,0c0,0 -0.1,0 -0.1,0c0,0 -0.1,0 -0.1,0c0,0 -0.1,0 -0.1,0c0,0 0,0 -0.1,0c0,0 -0.1,0 -0.1,0c0,0 -0.1,0 -0.1,0c0,0 0,0 0,0c-0.1,0 -0.1,0 -0.2,0c0,0 0,0 0,0l0,0c0,0 0,0 0,0c0,0 -0.1,0 -0.1,0c0,0 0,0 -0.1,0c0,0 0,0 -0.1,0c0,0 -0.1,0 -0.1,0c0,0 0,0 -0.1,0c0,0 0,0 0,0c0,0 -0.1,0 -0.1,0c0,0 0,0 -0.1,0c0,0 -0.1,0 -0.1,0c0,0 0,0 -0.1,0c0,0 -0.1,0 -0.1,0c0,0 0,0 -0.1,0l0,0c0,0 0,0 0,0c0,0 -0.1,0 -0.1,0c0,0 -0.1,0 -0.4,0.15683l-39.5,19.13381c0,0 -0.1,0 -0.3,0.15683l0,0c-0.1,0 -0.1,0.15683 -0.2,0.15683c0,0 0,0 -0.1,0c0,0 -0.1,0 -0.1,0.15683c0,0 0,0 0,0c0,0 0,0 0,0c0,0 0,0 0,0c0,0 -0.1,0 -0.1,0.15683c0,0 0,0 -0.1,0c0,0 -0.1,0 -0.1,0.15683l0,0c-0.2,0.15683 -0.3,0.31367 -0.5,0.4705c0,0 0,0 0,0c-0.1,0 -0.1,0.15683 -0.2,0.15683c0,0 -0.1,0.15683 -0.1,0.15683c0,0 0,0 0,0c-0.1,0.15683 -0.2,0.15683 -0.3,0.31367c0,0 0,0 0,0c0,0 0,0 -0.1,0c-0.1,0 -0.1,0.15683 -0.2,0.15683c0,0 0,0 -0.1,0.15683c0,0 -0.1,0 -0.1,0.15683c0,0 0,0 -0.1,0.15683c-0.1,0 -0.1,0.15683 -0.2,0.15683c0,0 0,0 0,0c0,0 0,0 0,0c0,0 0,0 0,0l0,0c0,0 0,0 0,0c0,0 0,0 0,0c0,0 0,0 0,0c0,0 -0.1,0.15683 -0.1,0.15683c0,0 0,0 0,0c0,0 0,0 -0.1,0.15683l0,0c0,0 0,0 0,0.15683c0,0 0,0 -0.1,0.15683c0,0 0,0.15683 -0.1,0.15683c0,0 0,0.15683 -0.1,0.15683c0,0 0,0 0,0c0,0 -0.1,0.15683 -0.1,0.15683c0,0 0,0 0,0.15683c0,0 0,0 0,0c0,0.15683 -0.1,0.31367 -0.1,0.31367c0,0 0,0 0,0c0,0.15683 0,0.15683 -0.1,0.31367c0,0 0,0.15683 0,0.15683c0,0 0,0 0,0c0,0.15683 -0.1,0.31367 -0.1,0.4705c0,0 0,0 0,0c0,0 0,0.15683 0,0.15683c0,0 0,0.15683 0,0.15683c0,0.15683 0,0.31367 0,0.31367l0.1,20.23166l0,0c0,0.15683 0,0.31367 0,0.31367c0,0 0,0 0,0.15683c0,0.15683 0,0.15683 0,0.31367c0,0 0,0 0,0.15683c0,0 0,0.15683 0.1,0.15683c0,0 0,0 0,0.15683c0,0.15683 0.1,0.15683 0.1,0.31367c0,0 0,0 0,0c0,0.15683 0.1,0.15683 0.2,0.31367c0,0 0,0 0.1,0c0,0 0.1,0.15683 0.1,0.15683c0,0 0,0 0.1,0c0,0 0,0 0.1,0c0,0 0,0 0,0c0.1,0.15683 0.2,0.15683 0.4,0.31367l4.1,2.03885c-0.2,-0.15683 -0.3,-0.15683 -0.5,-0.31367c0,0 0,0 -0.1,0c0,0 -0.1,-0.15683 -0.1,-0.15683c0,0 0,0 -0.1,0c-0.1,0 -0.1,-0.15683 -0.2,-0.31367c0,0 0,0 0,0c0,-0.15683 -0.1,-0.15683 -0.1,-0.31367c0,0 0,0 0,-0.15683c0,0 0,-0.15683 -0.1,-0.15683c0,0 0,0 0,-0.15683c0,0 0,-0.15683 0,-0.31367c0,0 0,0 0,-0.15683c0,-0.15683 0,-0.31367 0,-0.31367l0,0l-0.1,-20.23166c0,-0.15683 0,-0.31367 0,-0.31367c0,0 0,-0.15683 0,-0.15683c0,-0.15683 0,-0.15683 0,-0.31367c0,-0.15683 0.1,-0.31367 0.1,-0.4705c0,0 0,-0.15683 0,-0.15683c0,0 0,-0.15683 0.1,-0.15683c0,-0.15683 0.1,-0.31367 0.1,-0.31367c0,0 0,0 0,-0.15683c0,-0.15683 0.1,-0.15683 0.1,-0.31367c0,0 0,-0.15683 0.1,-0.15683c0,-0.15683 0.1,-0.15683 0.1,-0.31367c0,0 0,0 0.1,-0.15683c0,0 0,0 0,0c0.1,-0.15683 0.1,-0.31367 0.2,-0.31367c0,0 0,0 0,0c0.1,-0.15683 0.2,-0.15683 0.2,-0.31367c0,0 0.1,0 0.1,-0.15683c0.1,-0.15683 0.2,-0.15683 0.2,-0.31367c0,0 0,0 0.1,0c0.1,-0.15683 0.2,-0.31367 0.3,-0.31367c0,0 0.1,-0.15683 0.1,-0.15683c0.1,0 0.1,-0.15683 0.2,-0.15683c0.1,-0.15683 0.3,-0.31367 0.4,-0.31367c0.1,0 0.2,-0.15683 0.3,-0.15683c0,0 0.1,0 0.1,-0.15683c0,0 0,0 0,0c0.1,-0.15683 0.3,-0.15683 0.4,-0.31367c0.2,-0.15683 0.3,-0.15683 0.3,-0.15683l39.5,-19.13381c0.3,-0.15683 0.3,-0.15683 0.4,-0.15683c0.1,0 0.3,-0.15683 0.4,-0.15683c0,0 0,0 0,0c0.1,0 0.2,0 0.3,-0.15683c0.1,0 0.2,0 0.3,0c0,0 0.1,0 0.1,0c0,0 0.1,0 0.1,0c0.1,0 0.1,0 0.2,0c0,0 0.1,0 0.1,0c0.1,0 0.1,0 0.2,0c0,0 0.1,0 0.1,0c0.1,0 0.1,0 0.2,0c0,0 0.1,0 0.1,0c0.1,0 0.1,0 0.2,0c0,0 0,0 0.1,0c0.1,0 0.2,0 0.2,0.15683l-3.9,-1.72518z" class="st28"/>
       <g >
        <path cursor="pointer" pointer-events="visible"   d="m119,101.68129c0,0 0,0.15683 0,0c0,0 0.1,-0.15683 0.1,-0.15683c0,0 0,0.15683 -0.1,0.15683c0.1,-0.15683 0.1,-0.15683 0.2,-0.31367c0,0 0,0 0,0c0,0 0,0 0,0c0,0 0,0 0,0c0.1,-0.15683 0.1,-0.15683 0.2,-0.31367c0,0 -0.1,0.15683 -0.1,0.15683c0.1,-0.15683 0.1,-0.15683 0.2,-0.31367c0,0 0,0 0,0c0.1,-0.15683 0.1,-0.31367 0.2,-0.31367c-0.1,0.15683 -0.1,0.15683 -0.2,0.31367c0.1,-0.15683 0.1,-0.15683 0.2,-0.31367c0,0 0,0 0,0c0,0 0,0 0,0c0,0 0,0 0,0l0,0l0,0l0,0l0,0l0,0c0.5,-0.94101 0.8,-1.88201 0.8,-2.82302l-0.1,-20.23166c0,-0.94101 -0.3,-1.56835 -0.8,-2.03885l0,0l0,0l0,0l0,0c-0.1,0 -0.2,-0.15683 -0.3,-0.15683c0,0 0,0 0,0c0,0 0,0 0,0c0,0 0,0 0,0c0,0 0,0 0,0c0,0 0,0 0,0c-0.1,0 -0.2,-0.15683 -0.3,-0.15683c0,0 0,0 0,0c0,0 0,0 0,0c-0.6,-0.31367 -1.5,-0.31367 -2.5,0.15683c0,0 -0.1,0 -0.4,0.15683l-39.5,19.13381c0,0 -0.1,0 -0.3,0.15683c-1.2,0.78417 -2.2,1.72518 -2.8,2.97986l0,0c0,0 0,0 0,0l0,0l0,0l0,0c-0.5,0.94101 -0.8,1.88201 -0.8,2.82302l0.1,20.23166c0,0.94101 0.3,1.56835 0.8,2.03885l0,0l0,0l0,0l0,0l0,0c0,0 0,0 0,0c0,0 0.1,0 0.1,0c0,0 0,0 0,0c0,0 0.1,0 0.1,0c0,0 0,0 0,0c0.1,0 0.2,0.15683 0.2,0.15683c0,0 0,0 -0.1,0c0.4,0.31367 1,0.31367 1.8,0.15683c0,0 0.1,0 0.3,0c0,0 0.1,0 0.3,-0.15683c0,0 0.1,0 0.3,-0.15683c0,0 0.1,0 0.4,-0.15683l39.5,-19.13381c0,0 0.1,0 0.3,-0.15683c0,0 0.1,0 0.3,-0.15683c0.6,-0.4705 1.2,-0.94101 1.7,-1.56835c0,0 -0.1,0 -0.1,0.15683c0,0 0.1,-0.15683 0.1,-0.15683c0.1,0.15683 0.1,0.15683 0.2,0c0,0.15683 0,0.15683 0,0z" class="st29"/>
        <path cursor="pointer" pointer-events="visible"   d="m119.3,101.36762c0,0 0,0 0,0c0,0 0,0 0,0z" class="st25"/>
        <path cursor="pointer" pointer-events="visible"   d="m119.1,101.68129c0,0 -0.1,0 0,0c-0.1,0 0,0 0,0z" class="st25"/>
        <path cursor="pointer" pointer-events="visible"   d="m73.8,123.01079c-0.1,0 -0.1,0 0,0c-0.1,0 -0.1,0 0,0z" class="st25"/>
        <path cursor="pointer" pointer-events="visible"   d="m73.5,97.91726c0.1,-0.15683 0.2,-0.31367 0.3,-0.4705c-0.1,0.15683 -0.2,0.31367 -0.3,0.4705z" class="st25"/>
       </g>
       <g >
        <path cursor="pointer" pointer-events="visible"   d="m104.9,95.25108l14.9,5.33237c-0.6,1.09784 -1.5,2.03885 -2.5,2.82302c-0.2,0.15683 -0.3,0.15683 -0.3,0.15683c-0.2,0.15683 -0.3,0.15683 -0.3,0.15683l-39.7,19.29065c-0.3,0.15683 -0.3,0.15683 -0.4,0.15683c-0.2,0.15683 -0.3,0.15683 -0.3,0.15683c-0.2,0 -0.3,0.15683 -0.3,0.15683c-0.2,0 -0.3,0 -0.3,0c-1,0.15683 -1.6,0 -2.1,-0.4705l14.8,-19.60432l5.7,2.03885c0.7,0.31367 1.7,0.15683 2.6,-0.31367c0.9,-0.4705 1.8,-1.25468 2.6,-2.19568l5.6,-7.68489z" class="st30"/>
       </g>
       <g >
        <path cursor="pointer" pointer-events="visible"   d="m116.2,75.64676c0.3,-0.15683 0.3,-0.15683 0.4,-0.15683c1.3,-0.4705 2.4,-0.31367 3,0.15683l-14.8,19.60432l-5.7,7.52806c-0.7,0.94101 -1.6,1.72518 -2.6,2.19568c-0.9,0.4705 -1.8,0.62734 -2.6,0.31367l-5.7,-2.03885l-14.9,-5.33237c0.7,-1.25468 1.7,-2.35252 2.8,-2.97986c0.2,-0.15683 0.3,-0.15683 0.3,-0.15683l39.8,-19.13381z" class="st31"/>
       </g>
      </g>
      <g >
       <path cursor="pointer" pointer-events="visible"   d="m128.9,75.33309c0,0 -0.1,0 0,0c-0.1,0 -0.2,0 -0.2,-0.15683c0,0 0,0 0,0c0,0 0,0 -0.1,0c0,0 -0.1,0 -0.1,0c0,0 0,0 -0.1,0c0,0 -0.1,0 -0.1,0c0,0 -0.1,0 -0.1,0c0,0 -0.1,0 -0.1,0c0,0 -0.1,0 -0.1,0c0,0 0,0 -0.1,0c0,0 -0.1,0 -0.1,0c0,0 -0.1,0 -0.1,0c0,0 0,0 0,0c-0.1,0 -0.1,0 -0.2,0c0,0 0,0 0,0l0,0c0,0 0,0 0,0c0,0 -0.1,0 -0.1,0c0,0 0,0 -0.1,0c0,0 0,0 -0.1,0c0,0 -0.1,0 -0.1,0c0,0 0,0 -0.1,0c0,0 0,0 0,0c0,0 -0.1,0 -0.1,0c0,0 0,0 -0.1,0c0,0 -0.1,0 -0.1,0c0,0 0,0 -0.1,0c0,0 -0.1,0 -0.1,0c0,0 0,0 -0.1,0l0,0c0,0 0,0 0,0c0,0 -0.1,0 -0.1,0c0,0 -0.1,0 -0.4,0.15683l-39.5,19.13381c0,0 -0.1,0 -0.3,0.15683l0,0c-0.1,0 -0.1,0.15683 -0.2,0.15683c0,0 0,0 -0.1,0c0,0 -0.1,0 -0.1,0.15683c0,0 0,0 0,0c0,0 0,0 0,0c0,0 0,0 0,0c0,0 -0.1,0 -0.1,0.15683c0,0 0,0 -0.1,0c0,0 -0.1,0 -0.1,0.15683l0,0c-0.2,0.15683 -0.3,0.31367 -0.5,0.4705c0,0 0,0 0,0c-0.1,0 -0.1,0.15683 -0.2,0.15683c0,0 -0.1,0.15683 -0.1,0.15683c0,0 0,0 0,0c-0.1,0.15683 -0.2,0.15683 -0.3,0.31367c0,0 0,0 0,0c0,0 0,0 -0.1,0c-0.1,0 -0.1,0.15683 -0.2,0.15683c0,0 0,0 -0.1,0.15683c0,0 -0.1,0 -0.1,0.15683c0,0 0,0 -0.1,0.15683c-0.1,0 -0.1,0.15683 -0.2,0.15683c0,0 0,0 0,0c0,0 0,0 0,0c0,0 0,0 0,0l0,0c0,0 0,0 0,0l0,0c0,0 0,0 0,0c0,0 -0.1,0.15683 -0.1,0.15683c0,0 0,0 0,0c0,0 0,0 -0.1,0.15683l0,0c0,0 0,0 0,0.15683c0,0 0,0 -0.1,0.15683c0,0 0,0.15683 -0.1,0.15683c0,0 0,0.15683 -0.1,0.15683c0,0 0,0 0,0c0,0 -0.1,0.15683 -0.1,0.15683c0,0 0,0 0,0.15683c0,0 0,0 0,0c0,0.15683 -0.1,0.31367 -0.1,0.31367c0,0 0,0 0,0c0,0.15683 0,0.15683 -0.1,0.31367c0,0 0,0.15683 0,0.15683c0,0 0,0 0,0c0,0.15683 -0.1,0.31367 -0.1,0.4705c0,0 0,0 0,0c0,0 0,0.15683 0,0.15683c0,0 0,0.15683 0,0.15683c0,0.15683 0,0.31367 0,0.31367l0.1,20.23166l0,0c0,0.15683 0,0.31367 0,0.31367c0,0 0,0 0,0.15683c0,0.15683 0,0.15683 0,0.31367c0,0 0,0 0,0.15683c0,0 0,0.15683 0.1,0.15683c0,0 0,0 0,0.15683c0,0.15683 0.1,0.15683 0.1,0.31367c0,0 0,0 0,0c0,0.15683 0.1,0.15683 0.2,0.31367c0,0 0,0 0.1,0c0,0 0.1,0.15683 0.1,0.15683c0,0 0,0 0.1,0c0,0 0,0 0.1,0c0,0 0,0 0,0c0.1,0.15683 0.2,0.15683 0.4,0.31367l4.1,2.03885c-0.2,-0.15683 -0.3,-0.15683 -0.5,-0.31367c0,0 0,0 -0.1,0c0,0 -0.1,-0.15683 -0.1,-0.15683c0,0 0,0 -0.1,0c-0.1,0 -0.1,-0.15683 -0.2,-0.31367c0,0 0,0 0,0c0,-0.15683 -0.1,-0.15683 -0.1,-0.31367c0,0 0,0 0,-0.15683c0,0 0,-0.15683 -0.1,-0.15683c0,0 0,0 0,-0.15683c0,0 0,-0.15683 0,-0.31367c0,0 0,0 0,-0.15683c0,-0.15683 0,-0.31367 0,-0.31367l0,0l-0.1,-20.23166c0,-0.15683 0,-0.31367 0,-0.31367c0,0 0,-0.15683 0,-0.15683c0,-0.15683 0,-0.15683 0,-0.31367c0,-0.15683 0.1,-0.31367 0.1,-0.4705c0,0 0,-0.15683 0,-0.15683c0,0 0,-0.15683 0.1,-0.15683c0,-0.15683 0.1,-0.31367 0.1,-0.31367c0,0 0,0 0,-0.15683c0,-0.15683 0.1,-0.15683 0.1,-0.31367c0,0 0,-0.15683 0.1,-0.15683c0,-0.15683 0.1,-0.15683 0.1,-0.31367c0,0 0,0 0.1,-0.15683c0,0 0,0 0,0c0.1,-0.15683 0.1,-0.31367 0.2,-0.31367c0,0 0,0 0,0c0.1,-0.15683 0.2,-0.15683 0.2,-0.31367c0,0 0.1,0 0.1,-0.15683c0.1,-0.15683 0.2,-0.15683 0.2,-0.31367c0,0 0,0 0.1,0c0.1,-0.15683 0.2,-0.31367 0.3,-0.31367c0,0 0.1,-0.15683 0.1,-0.15683c0.1,0 0.1,-0.15683 0.2,-0.15683c0.1,-0.15683 0.3,-0.31367 0.4,-0.31367c0.1,0 0.2,-0.15683 0.3,-0.15683c0,0 0.1,0 0.1,-0.15683c0,0 0,0 0,0c0.1,-0.15683 0.3,-0.15683 0.4,-0.31367c0.2,-0.15683 0.3,-0.15683 0.3,-0.15683l39.5,-19.13381c0.3,-0.15683 0.3,-0.15683 0.4,-0.15683c0.1,0 0.3,-0.15683 0.4,-0.15683c0,0 0,0 0,0c0.1,0 0.2,0 0.3,-0.15683c0.1,0 0.2,0 0.3,0c0,0 0.1,0 0.1,0c0,0 0.1,0 0.1,0c0.1,0 0.1,0 0.2,0c0,0 0.1,0 0.1,0c0.1,0 0.1,0 0.2,0c0,0 0.1,0 0.1,0c0.1,0 0.1,0 0.2,0c0,0 0.1,0 0.1,0c0.1,0 0.1,0 0.2,0c0,0 0,0 0.1,0c0.1,0 0.2,0 0.2,0.15683l-3.9,-1.72518z" class="st32"/>
       <g >
        <path cursor="pointer" pointer-events="visible"   d="m132.7,103.56331c0,0 0,0.15683 0,0c0,0 0.1,-0.15683 0.1,-0.15683c0,0 0,0.15683 -0.1,0.15683c0.1,-0.15683 0.1,-0.15683 0.2,-0.31367c0,0 0,0 0,0c0,0 0,0 0,0c0,0 0,0 0,0c0.1,-0.15683 0.1,-0.15683 0.2,-0.31367c0,0 -0.1,0.15683 -0.1,0.15683c0.1,-0.15683 0.1,-0.15683 0.2,-0.31367c0,0 0,0 0,0c0.1,-0.15683 0.1,-0.31367 0.2,-0.31367c-0.1,0.15683 -0.1,0.15683 -0.2,0.31367c0.1,-0.15683 0.1,-0.15683 0.2,-0.31367c0,0 0,0 0,0c0,0 0,0 0,0c0,0 0,0 0,0l0,0l0,0l0,0l0,0l0,0c0.5,-0.94101 0.8,-1.88201 0.8,-2.82302l-0.1,-20.23166c0,-0.94101 -0.3,-1.56835 -0.8,-2.03885l0,0l0,0l0,0l0,0c-0.1,0 -0.2,-0.15683 -0.3,-0.15683c0,0 0,0 0,0c0,0 0,0 0,0c0,0 0,0 0,0c0,0 0,0 0,0c0,0 0,0 0,0c-0.1,0 -0.2,-0.15683 -0.3,-0.15683c0,0 0,0 0,0c0,0 0,0 0,0c-0.6,-0.31367 -1.5,-0.31367 -2.5,0.15683c0,0 -0.1,0 -0.4,0.15683l-39.5,19.13381c0,0 -0.1,0 -0.3,0.15683c-1.2,0.78417 -2.2,1.72518 -2.8,2.97986c0,0 0,0 0,0c0,0 0,0 0,0l0,0l0,0l0,0c-0.5,0.94101 -0.8,1.88201 -0.8,2.82302l0.1,20.23166c0,0.94101 0.3,1.56835 0.8,2.03885l0,0l0,0l0,0l0,0l0,0l0,0c0,0 0.1,0 0.1,0c0,0 0,0 0,0c0,0 0.1,0 0.1,0c0,0 0,0 0,0c0.1,0 0.2,0.15683 0.2,0.15683c0,0 0,0 -0.1,0c0.4,0.31367 1,0.31367 1.8,0.15683c0,0 0.1,0 0.3,0c0,0 0.1,0 0.3,-0.15683c0,0 0.1,0 0.3,-0.15683c0,0 0.1,0 0.4,-0.15683l39.5,-19.13381c0,0 0.1,0 0.3,-0.15683c0,0 0.1,0 0.3,-0.15683c0.6,-0.4705 1.2,-0.94101 1.7,-1.56835c0,0 -0.1,0 -0.1,0.15683c0,0 0.1,-0.15683 0.1,-0.15683c0.1,0.15683 0.2,0.15683 0.2,0c0,0.15683 0,0.15683 0,0z" class="st33"/>
        <path cursor="pointer" pointer-events="visible"   d="m133,103.24964c0,0 0,0 0,0c0,0 0,0 0,0z" class="st25"/>
        <path cursor="pointer" pointer-events="visible"   d="m132.8,103.56331c0,0 0,0 0,0c0,0 0,0 0,0z" class="st25"/>
        <path cursor="pointer" pointer-events="visible"   d="m87.5,124.8928c0,0 -0.1,0 0,0c-0.1,0 0,0 0,0z" class="st25"/>
        <path cursor="pointer" pointer-events="visible"   d="m87.3,99.79928c0.1,-0.15683 0.2,-0.31367 0.3,-0.4705c-0.2,0.15683 -0.3,0.31367 -0.3,0.4705z" class="st25"/>
       </g>
       <g >
        <path cursor="pointer" pointer-events="visible"   d="m118.6,97.13309l14.9,5.33237c-0.6,1.09784 -1.5,2.03885 -2.5,2.82302c-0.2,0.15683 -0.3,0.15683 -0.3,0.15683c-0.2,0.15683 -0.3,0.15683 -0.3,0.15683l-39.5,19.13381c-0.3,0.15683 -0.3,0.15683 -0.4,0.15683c-0.2,0.15683 -0.3,0.15683 -0.3,0.15683c-0.2,0 -0.3,0.15683 -0.3,0.15683c-0.2,0 -0.3,0 -0.3,0c-1,0.15683 -1.6,0 -2.1,-0.4705l14.8,-19.60432l5.7,2.03885c0.7,0.31367 1.7,0.15683 2.6,-0.31367c0.9,-0.4705 1.8,-1.25468 2.6,-2.19568l5.4,-7.52806z" class="st34"/>
       </g>
       <g >
        <path cursor="pointer" pointer-events="visible"   d="m129.9,77.52877c0.3,-0.15683 0.3,-0.15683 0.4,-0.15683c1.3,-0.4705 2.4,-0.31367 3,0.15683l-14.7,19.60432l-5.7,7.52806c-0.7,0.94101 -1.6,1.72518 -2.6,2.19568c-0.9,0.4705 -1.8,0.62734 -2.6,0.31367l-5.7,-2.03885l-14.9,-5.33237c0.7,-1.25468 1.7,-2.35252 2.8,-2.97986c0.2,-0.15683 0.3,-0.15683 0.3,-0.15683l39.7,-19.13381z" class="st35"/>
       </g>
      </g>
     </g>
    </g>
    <path cursor="pointer" pointer-events="visible"   d="m111.4,63.1l-2.3,1.41151c9.2,7.21439 15.9,18.82014 15.9,28.54389l-0.1,22.42734l2.8,0.78417l0.1,-23.21151c0,-10.35108 -6.9,-22.2705 -16.4,-29.9554z" class="st15"/>
   </g>
  </g>
 </g>
</svg>
