<?xml version="1.0" encoding="utf-8"?>
<!-- Generator: Adobe Illustrator 22.1.0, SVG Export Plug-In . SVG Version: 6.00 Build 0)  -->
<svg version="1.1" id="Layer_1" xmlns="http://www.w3.org/2000/svg" xmlns:xlink="http://www.w3.org/1999/xlink" x="0px" y="0px"
	 viewBox="0 0 250 250" style="enable-background:new 0 0 250 250;" xml:space="preserve">
<style type="text/css">
	.st0{enable-background:new    ;}
	.st1{fill:#E8626C;}
	.st2{fill:#BE5059;}
	.st3{fill:#ED7C81;}
	.st4{fill:#A03845;}
	.st5{fill:#C2666A;}
	.st6{fill:#AF2843;}
	.st7{fill:#CE3B50;}
	.st8{fill:#DB7D83;}
	.st9{fill:#C45C66;}
	.st10{fill:#DB777C;}
	.st11{fill:#F29799;}
	.st12{fill:#CE3E50;}
	.st13{fill:#F6B5BE;}
	.st14{fill:#FFFFFF;}
</style>
<g>
	<g>
		<g class="st0">
			<g>
				<path class="st1" d="M95.4,237.9l24.8-9.2c0.3-0.1,0.8,0,1.4,0.2c0.3,0.1,0.5,0.2,0.8,0.3c0.3,0.1,0.6,0.2,0.8,0.3
					c0.6,0.2,1.2,0.4,1.6,0.3c0.1,0,0.1,0,0.2-0.1l-24.8,9.2c-0.1,0-0.1,0-0.2,0.1c-0.4,0.1-1,0-1.6-0.3c-0.3-0.1-0.5-0.2-0.8-0.3
					c-0.3-0.1-0.6-0.2-0.8-0.3C96.3,237.9,95.8,237.8,95.4,237.9z"/>
			</g>
			<g>
				<path class="st2" d="M107,233.5c6.2-2.3,12.4-4.6,18.6-6.9c2.1-0.8,4.1-1.5,6.2-2.3c-0.1,0-0.2,0.1-0.2,0.1
					c-1.7,0.8-1.5,2.7-0.5,4.7c1.4,2.5,1.8,5.4-0.1,6.6c-0.1,0.1-0.2,0.1-0.3,0.2l-24.7,9.2c0.1,0,0.2-0.1,0.3-0.2
					c1.9-1.2,1.5-4.2,0.1-6.6c-1.1-2-1.2-3.8,0.5-4.7C106.9,233.6,107,233.6,107,233.5z"/>
			</g>
			<g>
				<path class="st1" d="M120.3,234.3l24.8-9.2c-0.8,0.3-0.6,1.3-1.2,1.7c-0.1,0.1-0.2,0.1-0.2,0.1l-24.8,9.2c0.1,0,0.2-0.1,0.2-0.1
					C119.6,235.6,119.5,234.6,120.3,234.3z"/>
			</g>
			<g>
				<path class="st1" d="M96.1,214.1l24.7-9.2c1.5-0.6,3.4-0.7,5.1-0.9c1.6-0.1,3.2-0.4,4.5-0.9l-24.8,9.2c-1.4,0.5-3,0.8-4.5,0.9
					C99.4,213.4,97.6,213.5,96.1,214.1z"/>
			</g>
			<g>
				<path class="st1" d="M126.9,231.4l24.8-9.2c-0.4,0.2-0.7,0.5-0.7,1.1c-0.1,0.9,0.5,2.2-0.1,2.8c-0.1,0.1-0.3,0.2-0.5,0.3
					l-24.8,9.2c0.2-0.1,0.3-0.2,0.5-0.3c0.6-0.6,0-1.9,0.1-2.8C126.2,231.9,126.5,231.6,126.9,231.4z"/>
			</g>
			<g>
				<path class="st1" d="M145.3,213.1c-1,0.4-1.9,0.7-2.9,1.1c-4.2,1.6-8.4,3.1-12.6,4.7c-3.1,1.1-6.2,2.3-9.2,3.4
					c-0.1,0-0.1,0-0.2-0.1l24.8-9.2C145.2,213,145.2,213.1,145.3,213.1z"/>
			</g>
			<g>
				<path class="st1" d="M141.4,208.7c-1.1,1.5,1.2,3.4,3.7,4.4l-24.8,9.2c-2.5-1-4.8-2.8-3.7-4.4l0,0
					C124.9,214.8,133.1,211.7,141.4,208.7z"/>
			</g>
			<g>
				<path class="st1" d="M145.8,213.2c-8.2,3.1-16.5,6.1-24.8,9.2c-0.1,0-0.3-0.1-0.5-0.2c7.2-2.7,14.4-5.4,21.7-8
					c0.5-0.2,1-0.4,1.6-0.6c0.5-0.2,1-0.4,1.5-0.6l0,0C145.5,213.1,145.6,213.2,145.8,213.2z"/>
			</g>
			<g>
				<path class="st1" d="M145.8,213.2c0.1,0,0.2,0.1,0.3,0.1l-24.8,9.2c-0.1,0-0.2-0.1-0.3-0.1C129.3,219.4,137.5,216.3,145.8,213.2
					z"/>
			</g>
			<g>
				<path class="st1" d="M146.1,213.4c-8.2,3.1-16.5,6.1-24.7,9.2c0,0,0,0-0.1,0L146.1,213.4C146.1,213.3,146.1,213.3,146.1,213.4z"
					/>
			</g>
			<g>
				<path class="st1" d="M141.6,208.4c-0.1,0.1-0.2,0.2-0.3,0.3c-8.3,3.1-16.5,6.1-24.8,9.2c0.1-0.1,0.2-0.2,0.3-0.3
					C125.1,214.5,133.4,211.4,141.6,208.4z"/>
			</g>
			<g>
				<path class="st1" d="M143.3,206.4c-0.1,1.1-1,1.4-1.6,2c-8.2,3.1-16.5,6.1-24.7,9.2c0.7-0.7,1.5-0.9,1.6-2
					C126.8,212.5,135,209.4,143.3,206.4z"/>
			</g>
			<g>
				<path class="st1" d="M143.3,206.4c-8.2,3.1-16.5,6.1-24.8,9.2c0,0,0-0.1,0-0.1L143.3,206.4C143.3,206.3,143.3,206.3,143.3,206.4
					z"/>
			</g>
			<g>
				<path class="st1" d="M146.1,213.4c1.5,0.4,3.4,0.6,4.4,0.2l-24.8,9.2c-1,0.4-2.9,0.2-4.4-0.2
					C129.6,219.5,137.9,216.4,146.1,213.4z"/>
			</g>
			<g>
				<path class="st1" d="M140.8,202.8c1.3,1.3,2.5,2.2,2.4,3.5l-24.8,9.2c0-1.3-1.1-2.2-2.4-3.5c4.1-1.5,8.3-3.1,12.4-4.6
					c0.5-0.2,1.1-0.4,1.6-0.6c0.5-0.2,1.1-0.4,1.6-0.6c1-0.4,2.2-0.8,3.2-1.2C136.8,204.3,138.8,203.5,140.8,202.8
					C140.8,202.8,140.8,202.8,140.8,202.8z"/>
			</g>
			<g>
				<path class="st1" d="M140.8,202.8c-4.1,1.5-8.2,3.1-12.3,4.6c-4.1,1.5-8.2,3.1-12.3,4.6c0,0,0,0,0,0c-1.6-1.5-3-3.1-3-4.6
					c8.3-3.1,16.5-6.1,24.8-9.2C137.8,199.7,139.2,201.3,140.8,202.8C140.8,202.8,140.8,202.8,140.8,202.8z"/>
			</g>
			<g>
				<path class="st1" d="M137.9,197.7c0,0.2-0.1,0.4-0.1,0.5c-8.2,3.1-16.5,6.1-24.8,9.2c0-0.2,0-0.4,0.1-0.5
					C121.4,203.8,129.7,200.8,137.9,197.7z"/>
			</g>
			<g>
				<path class="st1" d="M139,196.6c-0.5,0.2-0.9,0.5-1,1.1c-8.2,3.1-16.5,6.1-24.8,9.2c0.2-0.6,0.5-0.9,1-1.1
					C121.7,203.1,131.6,199.4,139,196.6z"/>
			</g>
			<g>
				<path class="st3" d="M124.7,213l24.8-9.2c-0.6,0.2-1.1,0.6-1.3,1.3c-0.1,0.3-0.2,0.6-0.2,0.9c0,1.9,1.9,3.3,3,5.5
					c0.2,0.4,0.3,0.8,0.3,1.1c0,0.6-0.3,0.9-0.8,1.1l-24.8,9.2c0.5-0.2,0.8-0.5,0.8-1.1c0-0.3-0.1-0.6-0.3-1.1
					c-1.1-2.2-3.1-3.6-3-5.5c0-0.3,0.1-0.6,0.2-0.9C123.7,213.6,124.1,213.2,124.7,213z"/>
			</g>
			<g>
				<path class="st3" d="M114.2,205.8c8.3-3.1,16.5-6.1,24.8-9.2c0.5-0.2,1.2-0.3,2-0.3c1-0.1,2.4-0.2,3.5-0.6l-24.8,9.2
					c-1.1,0.4-2.5,0.6-3.4,0.6C115.5,205.6,114.8,205.6,114.2,205.8z"/>
			</g>
			<g>
				<path class="st1" d="M135.5,183.3c0,0.2-0.1,0.4,0,0.5c-8.3,3.1-16.5,6.1-24.8,9.2c0-0.2,0-0.4,0.1-0.5
					C119,189.4,127.3,186.4,135.5,183.3z"/>
			</g>
			<g>
				<path class="st1" d="M146,194c0,0.8-0.7,1.3-1.6,1.7l-24.8,9.2c0.9-0.3,1.6-0.9,1.6-1.7l0,0C129.5,200.2,137.8,197.1,146,194z"
					/>
			</g>
			<g>
				<path class="st1" d="M120.8,165.8c0.1,0,0.2,0.1,0.3,0.1c-8.3,3.1-16.5,6.1-24.8,9.2c-0.1,0-0.2-0.1-0.3-0.1
					C104.3,171.9,112.5,168.9,120.8,165.8z"/>
			</g>
			<g>
				<path class="st1" d="M149.5,203.8c1.6-0.6,4.1,0,6.1-0.1c-8.2,3.1-16.5,6.1-24.7,9.2c-2,0.1-4.6-0.5-6.1,0.1
					C132.2,210.2,142.1,206.6,149.5,203.8z"/>
			</g>
			<g>
				<path class="st1" d="M116.8,161c0,2,1.7,3.6,4,4.8c-8.3,3.1-16.5,6.1-24.8,9.2c-2.2-1.2-4-2.8-4-4.8
					C99.5,167.5,109.4,163.8,116.8,161z"/>
			</g>
			<g>
				<path class="st1" d="M86,166.9l24.8-9.2c0.7-0.3,1.6-0.5,2.4-0.7l-24.8,9.2C87.7,166.5,86.8,166.6,86,166.9z"/>
			</g>
			<g>
				<path class="st1" d="M145.3,192.4c0.5,0.6,0.7,1.2,0.7,1.6c-8.3,3.1-16.5,6.1-24.8,9.2c0-0.4-0.2-1-0.7-1.6
					c-2.5-3.1-9.8-5-9.8-8.6c8.2-3.1,16.5-6.1,24.8-9.2C135.5,187.4,142.8,189.3,145.3,192.4z"/>
			</g>
			<g>
				<path class="st1" d="M123.2,166.9c-8.3,3.1-16.5,6.1-24.8,9.2c-0.7-0.3-1.5-0.6-2.1-0.9c8.3-3.1,16.5-6.1,24.8-9.2
					C121.8,166.3,122.5,166.6,123.2,166.9z"/>
			</g>
			<g>
				<path class="st1" d="M123.4,167c0,0,0.1,0,0.1,0c-8.2,3.1-16.5,6.1-24.8,9.2c0,0-0.1,0-0.1,0c-0.1,0-0.1,0-0.2-0.1
					c8.2-3.1,16.5-6.1,24.8-9.2C123.3,166.9,123.3,166.9,123.4,167z"/>
			</g>
			<g>
				<path class="st1" d="M155.6,203.7c0.7,0,1.2-0.1,1.6-0.3l-24.8,9.2c-0.4,0.2-1,0.3-1.6,0.3c4.1-1.5,8.2-3.1,12.4-4.6
					c0.5-0.2,1.1-0.4,1.6-0.6c0.5-0.2,1.1-0.4,1.6-0.6c0.5-0.2,1.1-0.4,1.6-0.6c0.5-0.2,1.1-0.4,1.6-0.6c0.5-0.2,1.1-0.4,1.6-0.6
					c0.5-0.2,1.1-0.4,1.5-0.6C153.6,204.4,154.6,203.9,155.6,203.7z"/>
			</g>
			<g>
				<path class="st1" d="M137.4,181.2c-0.7,0.7-1.7,1-1.9,2.1c-8.2,3.1-16.5,6.1-24.8,9.2c0.2-1.1,1.1-1.4,1.9-2.1
					C120.9,187.3,129.2,184.3,137.4,181.2z"/>
			</g>
			<g>
				<path class="st1" d="M118.1,159.6c-0.7,0.3-1.1,0.7-1.2,1.4l-24.7,9.2c0.1-0.8,0.5-1.2,1.2-1.4
					C100.7,166,110.6,162.3,118.1,159.6z"/>
			</g>
			<g>
				<path class="st3" d="M127.5,207.3l24.7-9.2c0.6,0.2,1.1,0.3,1.6,0.3l-24.7,9.2C128.5,207.5,128,207.5,127.5,207.3z"/>
			</g>
			<g>
				<path class="st3" d="M154.5,198.2l-24.8,9.2c-0.2,0.1-0.4,0.1-0.7,0.1l24.7-9.2C154.1,198.3,154.3,198.3,154.5,198.2z"/>
			</g>
			<g>
				<path class="st1" d="M123.5,167c1.9,0.7,3.7,1.1,5,1.4c-8.2,3.1-16.5,6.1-24.7,9.2c-1.3-0.2-3.1-0.7-5-1.4
					C107,173.1,115.2,170.1,123.5,167z"/>
			</g>
			<g>
				<path class="st3" d="M123.7,198.9l24.8-9.2c0,0.1,0.1,0.2,0.1,0.3c0.8,2.1,0.6,6.9,3.6,8.1l-24.7,9.2c-3-1.2-2.8-6-3.6-8.1
					C123.8,199,123.8,199,123.7,198.9z"/>
			</g>
			<g>
				<path class="st1" d="M129.4,168.5c-6.3,2.3-12.5,4.7-18.8,7c-2,0.7-4,1.5-6,2.2c-0.3,0-0.6-0.1-0.9-0.1
					c8.3-3.1,16.5-6.1,24.7-9.2C128.8,168.4,129.1,168.5,129.4,168.5z"/>
			</g>
			<g>
				<path class="st1" d="M129.4,168.5c0.4,0.1,0.6,0.1,0.7,0.1c-8.2,3.1-16.5,6.1-24.8,9.2c-0.1,0-0.3,0-0.7-0.1
					C112.1,174.9,120.9,169.3,129.4,168.5z"/>
			</g>
			<g>
				<path class="st1" d="M130.1,168.6c0.2,0,0.4,0,0.6,0.1c-8.2,3.1-16.5,6.1-24.8,9.2c-0.2,0-0.4,0-0.6-0.1
					c4.1-1.5,8.2-3.1,12.4-4.6c1-0.4,2.3-0.8,3.2-1.2c0.5-0.2,1.1-0.4,1.6-0.6c0.5-0.2,1.1-0.4,1.6-0.6c0.5-0.2,1.1-0.4,1.6-0.6
					c0.5-0.2,1.1-0.4,1.5-0.6C128.1,169.3,129.1,168.7,130.1,168.6z"/>
			</g>
			<g>
				<path class="st4" d="M138.6,212.6l24.8-9.2c-0.8,0.3-1.4,0.7-1.8,1.4c-3.1,4.7,4.7,12.6,4.7,18.2c0,1.1-0.5,1.9-1.5,2.3
					c-8.3,3.1-16.5,6.1-24.8,9.2c1.1-0.4,1.5-1.2,1.5-2.3c0-5.6-7.8-13.5-4.7-18.2C137.2,213.3,137.8,212.9,138.6,212.6z"/>
			</g>
			<g>
				<path class="st1" d="M139.5,176.4c0,2-1,3.7-2.1,4.8c-8.2,3.1-16.5,6.1-24.8,9.2c1.1-1.1,2.1-2.8,2.1-4.8
					C123,182.5,131.3,179.5,139.5,176.4z"/>
			</g>
			<g>
				<path class="st1" d="M133.5,169.1C133.5,169.1,133.5,169.1,133.5,169.1c-8.2,3.1-16.4,6.1-24.7,9.2c0,0,0,0-0.1,0
					c-0.9-0.2-1.7-0.3-2.7-0.4c8.3-3.1,16.5-6.1,24.8-9.2C131.7,168.8,132.6,168.9,133.5,169.1z"/>
			</g>
			<g>
				<path class="st1" d="M133.5,169.1c0.1,0,0.1,0,0.2,0c-8.2,3.1-16.5,6.1-24.8,9.2c-0.1,0-0.1,0-0.2,0
					C117,175.2,125.3,172.1,133.5,169.1z"/>
			</g>
			<g>
				<path class="st3" d="M93.3,168.8l24.7-9.2c1.7-0.6,4.8-0.1,6.6-0.8L99.9,168C98.1,168.6,95,168.1,93.3,168.8z"/>
			</g>
			<g>
				<path class="st1" d="M133.7,169.1c0.2,0.1,0.4,0.1,0.6,0.2l-24.8,9.2c-0.2-0.1-0.3-0.1-0.6-0.2
					C117.2,175.2,125.5,172.2,133.7,169.1z"/>
			</g>
			<g>
				<path class="st1" d="M134.3,169.3C134.3,169.3,134.3,169.3,134.3,169.3c-8.3,3.1-16.5,6.1-24.8,9.2c0,0,0,0,0,0L134.3,169.3
					C134.3,169.3,134.3,169.3,134.3,169.3z"/>
			</g>
			<g>
				<path class="st1" d="M154.5,198.2l-24.8,9.2c0.6-0.2,0.8-0.8,0.8-1.5c0-2.3-2.2-6.4-2.4-8l24.7-9.2c0.2,1.6,2.4,5.7,2.4,8
					C155.3,197.5,155.1,198,154.5,198.2z"/>
			</g>
			<g>
				<path class="st1" d="M137.8,171.9c1.3,1.7,1.7,3.1,1.7,4.5c-8.3,3.1-16.5,6.1-24.8,9.2c0-1.3-0.4-2.8-1.7-4.5
					C120.5,178.4,130.4,174.7,137.8,171.9z"/>
			</g>
			<g>
				<path class="st1" d="M134.3,169.3c1.3,0.5,2.4,1.3,3.5,2.6l-24.8,9.2c-1.1-1.4-2.1-2.1-3.5-2.6c0.4-0.2,1-0.4,1.4-0.5
					c7.7-2.9,15.4-5.7,23.1-8.6C134.1,169.4,134.2,169.3,134.3,169.3z"/>
			</g>
			<g>
				<path class="st3" d="M122,189.7l24.8-9.2c-0.7,0.3-1.3,0.6-1.5,1.3c-0.1,0.3-0.2,0.7-0.2,1c0,2.1,2.2,4.5,3.4,6.9l-24.8,9.2
					c-1.2-2.4-3.4-4.7-3.4-6.9c0-0.4,0.1-0.7,0.2-1C120.8,190.3,121.3,189.9,122,189.7z"/>
			</g>
			<g>
				<path class="st1" d="M126,157.6c-0.2,0.6-0.7,1-1.3,1.2L99.9,168c0.6-0.2,1.1-0.6,1.3-1.2C108.6,164,118.5,160.3,126,157.6z"/>
			</g>
			<g>
				<path class="st3" d="M157.2,203.4l-24.7,9.2c1.6-0.6,1.9-2.1,1.9-4.1c0-0.1,0-0.2,0-0.2c0-1.3-0.7-3.1-0.7-4.5
					c0-0.7,0.2-1.4,0.8-1.7l24.7-9.2c-0.6,0.4-0.8,1-0.8,1.7c0,1.4,0.7,3.2,0.7,4.5c0,0.1,0,0.2,0,0.2
					C159.2,201.3,158.9,202.8,157.2,203.4z"/>
			</g>
			<g>
				<path class="st3" d="M134.9,201.9l24.8-9.2c-0.1,0-0.2,0.1-0.3,0.2l-24.7,9.2C134.7,202,134.8,201.9,134.9,201.9z"/>
			</g>
			<g>
				<path class="st1" d="M89.9,151.7l24.7-9.2c-0.8,0.4-1.1,1-1.1,1.6c0,1.3,1.3,3,3,4.5l-24.7,9.2c-1.7-1.5-3-3.2-3-4.5
					C88.8,152.6,89.1,152.1,89.9,151.7z"/>
			</g>
			<g>
				<path class="st1" d="M122,189.7l24.8-9.2c0.6-0.2,1.4-0.4,2.1-0.6l-24.7,9.2C123.4,189.3,122.7,189.4,122,189.7z"/>
			</g>
			<g>
				<path class="st1" d="M159.6,192.7c0.6-0.2,1.3-0.1,2,0.1l-24.8,9.2c-0.7-0.2-1.4-0.3-2-0.1C142.3,199.1,152.2,195.5,159.6,192.7
					z"/>
			</g>
			<g>
				<path class="st1" d="M91.8,157.8l24.7-9.2c2.9,2.4,9.7,5,9.6,8.2c0,0.3-0.1,0.5-0.2,0.8l-24.8,9.2c0.1-0.3,0.2-0.6,0.2-0.8
					C101.4,162.7,94.7,160.1,91.8,157.8z"/>
			</g>
			<g>
				<path class="st3" d="M148.8,179.8l-24.7,9.2c0.4-0.1,0.8-0.3,1.1-0.6l24.8-9.2C149.6,179.5,149.2,179.7,148.8,179.8z"/>
			</g>
			<g>
				<path class="st1" d="M161.6,192.8c0.7,0.3,0.9,0.3,1.1,0.4c-8.3,3.1-16.5,6.1-24.8,9.2c-0.2-0.1-0.3-0.1-1.1-0.4
					C144.3,199.2,154.2,195.5,161.6,192.8z"/>
			</g>
			<g>
				<path class="st1" d="M162.7,193.2c0.7,0.3,1.3,0.6,2,0.9l-24.8,9.2c-0.7-0.3-1.3-0.6-2-0.9C146.2,199.3,154.4,196.3,162.7,193.2
					z"/>
			</g>
			<g>
				<path class="st1" d="M80.9,147.6c8.3-3.1,16.5-6.1,24.8-9.2c2.4-0.9,7,1.6,9.2,0.8l0,0c-8.3,3.1-16.5,6.1-24.8,9.2
					C87.9,149.2,83.3,146.7,80.9,147.6z"/>
			</g>
			<g>
				<path class="st1" d="M164.7,194.1c0.7,0.3,1.1,0.4,1.5,0.5c-8.3,3.1-16.5,6.1-24.8,9.2c-0.4-0.1-0.7-0.2-1.5-0.5
					C147.3,200.5,157.2,196.8,164.7,194.1z"/>
			</g>
			<g>
				<path class="st3" d="M119.5,141.9c-8.2,3.1-16.5,6.1-24.8,9.2c-1.3,0.5-3.5,0.1-4.9,0.6l24.7-9.2
					C116.1,141.9,118.2,142.4,119.5,141.9z"/>
			</g>
			<g>
				<path class="st1" d="M166.1,194.6c0.7,0.2,1.5,0.3,2.2,0.4c-8.2,3.1-16.5,6.1-24.7,9.2c-0.7-0.1-1.5-0.2-2.2-0.4
					C149.6,200.7,157.9,197.6,166.1,194.6z"/>
			</g>
			<g>
				<path class="st1" d="M119.5,141.9c-8.2,3.1-16.5,6.1-24.8,9.2c0.5-0.2,0.8-0.5,1.1-0.9l24.8-9.2
					C120.4,141.4,120,141.7,119.5,141.9z"/>
			</g>
			<g>
				<path class="st1" d="M168.3,195c0.9,0.1,1.7,0.1,2.5,0.1c-8.2,3.1-16.5,6.1-24.8,9.2c-0.8,0-1.6,0-2.5-0.1
					c0.4-0.2,1-0.4,1.4-0.5c4.2-1.6,8.4-3.1,12.6-4.7c1.6-0.6,3.2-1.2,4.8-1.8c0.5-0.2,1.1-0.4,1.6-0.6c0.5-0.2,1.1-0.4,1.5-0.6
					C166.3,195.7,167.4,195.1,168.3,195z"/>
			</g>
			<g>
				<path class="st3" d="M113.1,167.5l24.8-9.2c3.9,2.7,4.2,4,4.2,5.5c0,0.3,0,0.5,0,0.8c0,1.1,0.1,2.3,1.4,4.3
					c2,3.1,7.8,5.8,7.8,8.3c0,0.7-0.4,1.3-1.3,1.9l-24.8,9.2c0.9-0.6,1.3-1.3,1.3-1.9c0-2.6-5.7-5.3-7.8-8.3c-1.3-2-1.4-3.2-1.4-4.3
					c0-0.3,0-0.6,0-0.8C117.3,171.5,117,170.2,113.1,167.5z"/>
			</g>
			<g>
				<path class="st1" d="M171.4,195.1c0.6,0,1.1-0.1,1.5-0.3l-24.8,9.2c-0.4,0.2-0.9,0.3-1.5,0.3
					C154.8,201.2,163.1,198.1,171.4,195.1c-8.3,3.1-16.5,6.1-24.7,9.2h0c-0.2,0-0.3,0-0.5,0c8.2-3.1,16.5-6.1,24.8-9.2
					C171,195.1,171.2,195.1,171.4,195.1z"/>
			</g>
			<g>
				<path class="st3" d="M108.7,160.2c8.3-3.1,16.5-6.1,24.8-9.2c-1,0.4-1.4,0.9-1.4,1.5c0,1.5,2.9,3.7,5.8,5.8l-24.8,9.2
					c-2.9-2.1-5.8-4.3-5.8-5.8C107.3,161.1,107.7,160.6,108.7,160.2z"/>
			</g>
			<g>
				<path class="st1" d="M134.3,187l24.7-9.2c1.1,1.6,1.6,2.7,1.6,3.6c0,3.7-7.7,3-7.7,7.3l-24.7,9.2c0-4.3,7.7-3.6,7.7-7.3
					C135.9,189.7,135.4,188.5,134.3,187z"/>
			</g>
			<g>
				<path class="st1" d="M108.7,160.2c8.3-3.1,16.5-6.1,24.8-9.2c0.1-0.1,0.3-0.1,0.5-0.2c1-0.3,1.9-0.5,2.6-0.8
					c-8.3,3.1-16.5,6.1-24.8,9.2c-0.7,0.3-1.5,0.5-2.6,0.8C109,160.1,108.9,160.2,108.7,160.2z"/>
			</g>
			<g>
				<path class="st1" d="M84.2,132.3l24.8-9.2c0.8-0.3,2-0.4,3.3-0.2L87.5,132C86.2,131.9,85,132,84.2,132.3z"/>
			</g>
			<g>
				<path class="st1" d="M87.5,132l24.7-9.2c0.6,0.5,1.2,1.1,1.7,1.6c1.4,1.5,2.6,3.4,4.8,4.8L94,138.5c-2.2-1.4-3.4-3.3-4.8-4.8
					C88.7,133.1,88.2,132.6,87.5,132z"/>
			</g>
			<g>
				<path class="st1" d="M94,138.5l24.7-9.2c-0.3,0.3-0.4,0.8-0.4,1.3c0,2.5,2.4,6.6,2.4,9.1c0,0.5-0.1,0.9-0.3,1.2l-24.8,9.2
					c0.2-0.3,0.3-0.8,0.3-1.2c0-2.5-2.4-6.6-2.4-9.1C93.7,139.3,93.8,138.8,94,138.5z"/>
			</g>
			<g>
				<path class="st1" d="M131.4,177.6c8.3-3.1,16.5-6.1,24.7-9.2c-0.4,0.2-0.8,0.4-1.1,0.7c-0.5,0.7-0.7,1.3-0.7,1.8
					c0,2.2,2.8,4.1,4.7,6.8l-24.7,9.2c-1.8-2.7-4.7-4.6-4.7-6.8c0-0.6,0.2-1.2,0.7-1.8C130.6,178,131,177.7,131.4,177.6z"/>
			</g>
			<g>
				<path class="st3" d="M131.4,177.6l24.7-9.2c1.2-0.4,2.8-0.4,3.9-0.8c-8.3,3.1-16.5,6.1-24.8,9.2
					C134.2,177.2,132.6,177.2,131.4,177.6z"/>
			</g>
			<g>
				<path class="st3" d="M148.2,189.4l24.8-9.2c-1.3,0.5-1.8,1.4-1.8,2.4c0,1.7,1.3,4,2.5,6.1c0.7,1.2,1,2.4,1,3.4
					c0,1.2-0.5,2.2-1.7,2.7l-24.7,9.2c1.2-0.4,1.7-1.4,1.7-2.7c0-1.1-0.4-2.3-1-3.4c-1.2-2.1-2.5-4.3-2.5-6.1
					C146.3,190.8,146.8,189.9,148.2,189.4z"/>
			</g>
			<g>
				<path class="st1" d="M172.9,180.2C172.9,180.2,173,180.2,172.9,180.2c-8.2,3-16.4,6.1-24.7,9.2c0,0,0,0-0.1,0
					C155.6,186.6,165.5,183,172.9,180.2z"/>
			</g>
			<g>
				<path class="st2" d="M153.3,194.2c8.3-3.1,16.5-6.1,24.8-9.2c-0.1,0-0.1,0.1-0.2,0.1c-1.9,1.2-1.3,4.4,0,6.9
					c1.2,2.3,1.9,5,2.1,7.1c0.2,1.5-0.1,2.9-1.3,3.7c-0.3,0.2-0.6,0.3-0.9,0.4l-24.7,9.2c0.3-0.1,0.6-0.3,0.9-0.4
					c1.2-0.8,1.4-2.2,1.3-3.7c-0.2-2.1-0.9-4.8-2.1-7.1c-1.3-2.4-1.8-5.7,0-6.9C153.2,194.3,153.2,194.2,153.3,194.2z"/>
			</g>
			<g>
				<path class="st3" d="M94,138.5l24.7-9.2c0.6,0.3,1.2,0.7,1.9,0.9c0.8,0.3,1.6,0.5,2.6,0.6c3,0.4,5,0.7,6.9,1.4l-24.7,9.2
					c-1.9-0.7-3.9-0.9-6.9-1.4c-1-0.1-1.8-0.4-2.6-0.6C95.2,139.1,94.6,138.8,94,138.5z"/>
			</g>
			<g>
				<path class="st3" d="M105.4,141.4l24.7-9.2c1.6,0.6,3,1.5,4.9,3.1l-24.8,9.2C108.5,142.9,107,142,105.4,141.4z"/>
			</g>
			<g>
				<path class="st1" d="M173,180.2c1.3-0.5,2.9-0.1,4.6,0.3c-8.3,3.1-16.5,6.1-24.8,9.2c-1.6-0.4-3.3-0.8-4.6-0.3
					c4.1-1.5,8.2-3.1,12.4-4.6c1.6-0.6,3.2-1.2,4.8-1.8c0.5-0.2,1.1-0.4,1.6-0.6c0.9-0.3,2.1-0.8,3.1-1.1
					C171,180.9,172.1,180.5,173,180.2z"/>
			</g>
			<g>
				<path class="st2" d="M177.5,180.5c0.4,0.1,0.8,0.2,1.3,0.3c-8.3,3.1-16.5,6.1-24.8,9.2c-0.4-0.1-0.9-0.2-1.3-0.3
					C161,186.6,169.3,183.6,177.5,180.5z"/>
			</g>
			<g>
				<path class="st2" d="M178.8,180.8c0.4,0.1,0.8,0.2,1.2,0.1c-8.3,3.1-16.5,6.1-24.8,9.2c-0.3,0-0.7,0-1.2-0.1
					C162.3,186.9,170.6,183.9,178.8,180.8z"/>
			</g>
			<g>
				<path class="st2" d="M180,181c0.1,0,0.2,0,0.3-0.1l-24.7,9.2c-0.1,0-0.2,0.1-0.3,0.1c4.1-1.5,8.2-3.1,12.4-4.6
					c1-0.4,2.3-0.8,3.2-1.2c0.5-0.2,1.1-0.4,1.6-0.6c1.5-0.6,3.1-1.1,4.6-1.7C178,181.7,179,181.2,180,181z"/>
			</g>
			<g>
				<path class="st1" d="M160,167.6c-8.3,3.1-16.5,6.1-24.8,9.2c0.4-0.1,0.7-0.3,0.9-0.6c0.5-0.6,0.6-1.1,0.6-1.7
					c0-3.8-8.2-8.1-8.2-11.5c0-0.7,0.4-1.4,1.3-2.1l24.7-9.2c-0.9,0.7-1.3,1.4-1.3,2.1c0,3.5,8.2,7.8,8.2,11.5
					c0,0.6-0.2,1.2-0.6,1.7C160.7,167.3,160.4,167.5,160,167.6z"/>
			</g>
			<g>
				<path class="st1" d="M131.5,160c8.3-3.1,16.5-6.1,24.8-9.2c-0.6,0.2-1.1,0.5-1.5,0.8l-24.7,9.2
					C130.4,160.5,130.9,160.2,131.5,160z"/>
			</g>
			<g>
				<path class="st3" d="M131.5,160c8.3-3.1,16.5-6.1,24.8-9.2c1.8-0.7,4-0.7,5.7-1.4c-8.3,3.1-16.5,6.1-24.8,9.2
					C135.5,159.3,133.2,159.4,131.5,160z"/>
			</g>
			<g>
				<path class="st1" d="M162,149.5c-8.3,3.1-16.5,6.1-24.8,9.2c1-0.4,1.8-0.9,2.3-1.8c0.1-0.1,0.1-0.2,0.2-0.3l24.7-9.2
					c-0.1,0.1-0.1,0.2-0.2,0.4C163.8,148.6,162.9,149.1,162,149.5z"/>
			</g>
			<g>
				<path class="st5" d="M151.3,169.8c8.3-3.1,16.5-6.1,24.8-9.2c-1.2,0.4-2.2,1-2.2,2.1c0,0.2,0,0.5,0.2,0.8
					c0.6,1.7,3.3,2.7,4.8,3.9c1.3,1.1,2.2,2.2,2.2,3.2c0,0.4-0.1,0.7-0.4,1c-0.9,1-3.6,1.7-3.6,3.4c0,0.3,0.1,0.7,0.3,1.1
					c0.6,1.2,3.5,2.6,3.5,3.9c0,0.2-0.1,0.4-0.3,0.6c-0.1,0.1-0.2,0.1-0.2,0.2l-24.7,9.2c0.1,0,0.2-0.1,0.2-0.2
					c0.2-0.2,0.3-0.4,0.3-0.6c0-1.2-2.8-2.7-3.5-3.9c-0.2-0.4-0.3-0.8-0.3-1.1c0-1.7,2.6-2.4,3.6-3.4c0.3-0.3,0.4-0.7,0.4-1
					c0-1-0.9-2.1-2.2-3.2c-1.5-1.2-4.3-2.3-4.8-3.9c-0.1-0.3-0.1-0.6-0.1-0.8C149.1,170.8,150.1,170.2,151.3,169.8z"/>
			</g>
			<g>
				<path class="st1" d="M176.1,160.6c0.5-0.2,1-0.3,1.5-0.5l-24.8,9.2c-0.5,0.2-1,0.3-1.5,0.5C158.7,167.1,168.6,163.4,176.1,160.6
					z"/>
			</g>
			<g>
				<path class="st3" d="M177.5,160.1l-24.8,9.2c0.8-0.3,1.4-0.6,1.8-1.1c0.5-0.7,0.7-1.5,0.7-2.3c0-1.7-0.8-3.7-2.4-5.5l24.8-9.2
					c1.5,1.9,2.4,3.8,2.4,5.5c0,0.9-0.2,1.7-0.7,2.3C178.9,159.5,178.3,159.8,177.5,160.1z"/>
			</g>
			<g>
				<path class="st3" d="M105.4,141.4c1.6,0.6,3,1.5,4.8,3.1c-0.2,0.4-0.4,0.8-0.4,1.3c0,1.5,0.8,3.5,1.6,5.1
					c1.5,3.1,2.5,4.9,2.4,6.1c0,1.5-1.4,2-4.8,3c-1.4,0.4-1.9,0.9-1.9,1.6c0,1.5,2.9,3.7,5.8,5.8c3.9,2.7,4.2,4,4.2,5.5
					c0,0.3,0,0.5,0,0.8c0,1.1,0.1,2.3,1.4,4.3c2,3.1,7.8,5.8,7.8,8.3c0,0.7-0.4,1.3-1.3,1.9c-1.4,1.2-4,0.8-4.7,2.6
					c-0.1,0.3-0.2,0.7-0.2,1c0,2.1,2.2,4.5,3.4,6.9c0,0.1,0.1,0.2,0.1,0.3c0.8,2.1,0.6,6.9,3.6,8.1c0.6,0.2,1,0.3,1.6,0.3
					c1.1,0,1.5-0.6,1.5-1.6c0-2.3-2.2-6.4-2.4-8c0-4.3,7.7-3.6,7.7-7.3c0-0.9-0.5-2.1-1.6-3.6c-1.8-2.7-4.7-4.6-4.7-6.8
					c0-0.6,0.2-1.2,0.7-1.8c1.2-1.6,4.7-0.7,5.9-2.1c0.5-0.6,0.6-1.1,0.6-1.7c0-3.8-8.2-8.1-8.2-11.5c0-0.7,0.4-1.4,1.3-2.1
					c2.6-2.1,7.7-0.9,9.6-4c0.1-0.1,0.1-0.2,0.2-0.3c1.7,1.1,3.5,2,5.2,2.6c3,1.1,5.9,1.5,8,1.3c1.5,1.9,2.4,3.8,2.4,5.5
					c0,0.9-0.2,1.7-0.7,2.3c-1.2,1.5-5.5,1.4-5.5,3.7c0,0.2,0,0.5,0.1,0.8c0.6,1.7,3.3,2.7,4.8,3.9c1.3,1.1,2.2,2.2,2.2,3.2
					c0,0.4-0.1,0.7-0.4,1c-0.9,1-3.6,1.7-3.6,3.4c0,0.3,0.1,0.7,0.3,1.1c0.7,1.2,3.5,2.6,3.5,3.9c0,0.2-0.1,0.4-0.3,0.6
					c-0.5,0.5-2,0-3-0.2c-1.6-0.4-3.3-0.8-4.6-0.3c-1.4,0.5-1.9,1.4-1.9,2.4c0,1.7,1.3,4,2.5,6.1c0.7,1.1,1,2.4,1,3.4
					c0,1.6-0.8,2.8-2.8,2.9c-0.1,0-0.2,0-0.2,0c-0.4,0-0.6,0-0.7,0c-1.5,0-3.1-0.1-4.7-0.5c-0.4-0.1-0.7-0.2-1.1-0.4
					c-0.2-0.1-0.3-0.1-0.4-0.1c-0.7-0.3-1.3-0.6-2-0.9c-0.2-0.1-0.3-0.1-0.5-0.2c-0.1,0-0.2-0.1-0.3-0.1c-0.1,0-0.2-0.1-0.3-0.1
					c-0.9-0.3-1.7-0.3-2.3,0.1c-0.6,0.4-0.8,1-0.8,1.7c0,1.4,0.7,3.2,0.7,4.5c0,0.1,0,0.2,0,0.2c0,2.5-0.5,4.2-3.6,4.4
					c-2.8,0.1-6.6-1-7.4,1.4c-0.1,0.3-0.2,0.6-0.2,0.9c0,1.9,1.9,3.3,3,5.5c0.2,0.4,0.3,0.8,0.3,1.1c0,1.7-3.1,1.4-5.1,0.9
					c-0.4-0.1-0.7-0.2-1-0.3c-2.7-1-5-2.9-3.9-4.4c0.1-0.1,0.2-0.2,0.3-0.3c0.7-0.7,1.6-0.9,1.6-2c0-1.4-1.1-2.4-2.4-3.6
					c-1.6-1.5-3-3.1-3-4.6c0-0.2,0-0.4,0.1-0.5c0.3-1.2,1.6-1.3,3-1.4c1.8-0.1,5.1-0.5,5.1-2.3c0-0.4-0.2-1-0.7-1.6
					c-2.5-3.1-9.8-5-9.8-8.6c0-0.2,0-0.4,0.1-0.5c0.2-1.1,1.1-1.4,1.9-2.1c1.1-1.1,2.1-2.8,2.1-4.8c0-1.3-0.4-2.8-1.5-4.2
					c-0.1-0.1-0.1-0.2-0.2-0.2c-1.1-1.4-2.2-2.1-3.2-2.5c-0.5-0.2-0.7-0.2-1-0.3c-0.9-0.2-1.8-0.3-2.8-0.4c-0.2,0-0.4,0-0.6-0.1
					c-0.1,0-0.3,0-0.4-0.1c-0.1,0-0.2,0-0.3,0c-0.3,0-0.6-0.1-0.9-0.1c-1.3-0.2-3.2-0.7-5-1.3c-3.5-1.3-6.8-3.3-6.8-5.8
					c0-0.1,0-0.2,0-0.2c0.4-3.3,8.1-0.4,9.1-3.5c0.1-0.3,0.2-0.6,0.2-0.8c0.1-3.2-6.7-5.8-9.6-8.2c-1.7-1.5-3-3.2-3-4.5
					c0-0.7,0.3-1.2,1.1-1.6c1.9-0.7,5.1,0.3,6-1.5c0.2-0.3,0.3-0.8,0.3-1.2c0-2.5-2.4-6.6-2.4-9.1c0-0.5,0.1-1,0.4-1.3
					c0.6,0.3,1.2,0.7,1.9,0.9c0.8,0.3,1.6,0.5,2.6,0.6C101.5,140.5,103.5,140.7,105.4,141.4z"/>
			</g>
			<g>
				<path class="st3" d="M136.5,150.1c-8.3,3.1-16.5,6.1-24.8,9.2c1.6-0.6,2.2-1.2,2.3-2.2c0-1.2-0.9-3-2.4-6.1
					c-0.8-1.6-1.6-3.7-1.6-5.1c0-0.5,0.1-1,0.4-1.3l24.8-9.2c-0.2,0.4-0.4,0.8-0.4,1.4c0,1.5,0.8,3.5,1.6,5.1
					c1.5,3.1,2.5,4.9,2.4,6.1C138.7,148.9,138,149.5,136.5,150.1z"/>
			</g>
			<g>
				<path class="st2" d="M159.7,191.2c8.3-3.1,16.5-6.1,24.8-9.2c-0.1,0-0.2,0.1-0.3,0.1c-1.4,0.8,0,2.3-0.5,3.5
					c-0.1,0.2-0.2,0.3-0.4,0.4l-24.8,9.2c0.2-0.1,0.3-0.2,0.4-0.4c0.5-1.2-1-2.8,0.5-3.5C159.5,191.2,159.6,191.2,159.7,191.2z"/>
			</g>
			<g>
				<path class="st1" d="M110.3,144.5l24.8-9.2c2.9,2.6,4.9,4.2,7.8,5.3c1.4,0.5,2.9,0.9,4.9,1.2c3.6,0.6,6.9,0.4,10.4,1.7
					l-24.8,9.2c-3.5-1.3-6.8-1.2-10.4-1.7c-1.9-0.3-3.5-0.7-4.9-1.2C115.2,148.7,113.2,147.1,110.3,144.5z"/>
			</g>
			<g>
				<path class="st1" d="M133.4,152.7l24.8-9.2c1.4,0.5,2.9,1.3,4.5,2.5c0.6,0.5,1.2,0.9,1.9,1.3l-24.7,9.2
					c-0.6-0.4-1.3-0.8-1.9-1.3C136.3,154,134.9,153.3,133.4,152.7z"/>
			</g>
			<g>
				<path class="st1" d="M133.4,152.7c1.4,0.5,2.9,1.3,4.5,2.5c0.6,0.5,1.2,0.9,1.9,1.3c-0.1,0.1-0.1,0.2-0.2,0.3
					c-1.9,3.1-7,1.9-9.6,4c-0.9,0.7-1.3,1.4-1.3,2.1c0,3.5,8.2,7.8,8.2,11.5c0,0.6-0.2,1.2-0.6,1.7c-1.2,1.5-4.7,0.5-5.9,2.1
					c-0.5,0.6-0.7,1.3-0.7,1.8c0,2.2,2.8,4.1,4.7,6.8c1.1,1.6,1.6,2.7,1.6,3.6c0,3.7-7.7,3.1-7.7,7.3c0.2,1.6,2.4,5.7,2.4,8
					c0,1-0.4,1.6-1.5,1.6c-0.5,0-1-0.1-1.4-0.2c-3.2-1.2-2.9-6.1-3.8-8.2c0-0.1-0.1-0.2-0.1-0.3c-1.2-2.4-3.4-4.7-3.4-6.9
					c0-0.4,0.1-0.7,0.2-1c0.7-1.8,3.3-1.4,4.7-2.6c0.9-0.6,1.3-1.3,1.3-1.9c0-2.6-5.7-5.3-7.8-8.3c-1.3-2-1.4-3.2-1.4-4.3
					c0-0.3,0-0.6,0-0.8c0-1.5-0.3-2.8-4.2-5.5c-2.9-2.1-5.8-4.3-5.8-5.8c0-0.7,0.5-1.2,1.9-1.6c3.4-0.9,4.8-1.5,4.8-3
					c0-1.2-0.9-3-2.4-6.1c-0.8-1.6-1.6-3.7-1.6-5.1c0-0.5,0.1-1,0.4-1.3c2.9,2.6,4.9,4.2,7.8,5.3c1.4,0.5,3,0.9,4.9,1.2
					C126.6,151.6,129.9,151.4,133.4,152.7z"/>
			</g>
			<g>
				<path class="st4" d="M158.9,172c8.2-3.1,16.5-6.1,24.8-9.2c-0.8,0.3-1.4,0.9-1.3,2c0.1,2.4,2.5,5.2,4.8,7.4
					c2.7,2.6,5.9,6.2,4.7,8.7c-0.2,0.5-0.6,0.8-1.1,0.9l-24.8,9.2c0.5-0.2,0.8-0.5,1.1-0.9c1.2-2.4-2.1-6-4.7-8.7
					c-2.3-2.2-4.6-5-4.8-7.4C157.6,172.8,158.1,172.3,158.9,172z"/>
			</g>
			<g>
				<path class="st3" d="M139.8,156.5l24.7-9.2c1.7,1.1,3.5,2,5.2,2.6c3,1.1,5.9,1.5,8,1.3l-24.8,9.2c-2.1,0.3-4.9-0.2-8-1.3
					C143.2,158.5,141.5,157.6,139.8,156.5z"/>
			</g>
			<g>
				<path class="st1" d="M87.5,132c0.6,0.5,1.2,1.1,1.7,1.6c1.4,1.5,2.6,3.4,4.8,4.8c-0.3,0.3-0.4,0.8-0.4,1.3
					c0,2.5,2.4,6.6,2.4,9.1c0,0.5-0.1,0.9-0.3,1.2c-0.9,1.9-4,0.8-6,1.5c-0.8,0.4-1.1,1-1.1,1.6c0,1.3,1.3,3,3,4.5
					c2.9,2.4,9.7,5,9.6,8.2c0,0.3-0.1,0.5-0.2,0.8c-1.1,3.1-8.8,0.1-9.1,3.5c0,2.7,3.2,4.7,6.6,5.9c2,0.7,3.8,1.2,5.1,1.4
					c0.3,0.1,0.6,0.1,0.9,0.1c0.4,0.1,0.6,0.1,0.7,0.1c0.2,0,0.4,0,0.6,0.1c1,0.1,1.9,0.2,2.7,0.4c0.3,0.1,0.5,0.1,0.8,0.2
					c1.4,0.5,2.4,1.3,3.5,2.6c1.3,1.7,1.7,3.1,1.7,4.5c0,2-1,3.7-2.1,4.8c-0.7,0.7-1.7,1-1.9,2.1c0,0.2-0.1,0.4-0.1,0.5
					c0,3.6,7.4,5.4,9.8,8.6c0.5,0.6,0.7,1.2,0.7,1.6c0,1.8-3.3,2.2-5.1,2.3c-1.4,0.1-2.7,0.2-3,1.4c0,0.2-0.1,0.4-0.1,0.5
					c0,1.5,1.4,3.1,3,4.6c1.3,1.3,2.5,2.2,2.4,3.5c-0.1,1.2-1,1.4-1.6,2.1c-0.1,0.1-0.2,0.2-0.3,0.3c-1.1,1.5,1.2,3.4,3.7,4.4
					c0.5,0.2,0.7,0.3,1,0.3c2.3,0.6,5.3,0.9,5.3-0.8c0-0.3-0.1-0.6-0.3-1.1c-1.1-2.2-3.1-3.6-3-5.5c0-0.3,0.1-0.6,0.2-0.9
					c0.8-2.4,4.6-1.3,7.4-1.4c3.1-0.1,3.6-1.9,3.6-4.4c0-1.5-0.7-3.3-0.7-4.7c0-0.7,0.2-1.4,0.8-1.7c0.7-0.4,1.5-0.4,2.3-0.1
					c0.7,0.3,0.9,0.3,1.1,0.4c0.6,0.3,1.3,0.6,2,0.9c0.7,0.3,1.1,0.4,1.5,0.5c1.6,0.4,3.2,0.5,4.7,0.5c0.2,0,0.3,0,0.5,0
					c2.4-0.1,3.2-1.3,3.2-2.9c0-1.1-0.4-2.3-1-3.4c-1.2-2.1-2.5-4.3-2.5-6.1c0-1.1,0.5-2,1.9-2.4c1.3-0.5,2.9-0.1,4.6,0.3
					c1,0.2,2.5,0.8,3,0.2c0.2-0.2,0.3-0.4,0.3-0.6c0-1.2-2.8-2.7-3.5-3.9c-0.2-0.4-0.3-0.8-0.3-1.1c0-1.7,2.6-2.4,3.6-3.4
					c0.3-0.3,0.4-0.7,0.4-1c0-1-0.9-2.1-2.2-3.2c-1.5-1.2-4.3-2.3-4.8-3.9c-0.1-0.3-0.1-0.6-0.1-0.8c0-2.3,4.3-2.2,5.5-3.7
					c0.5-0.7,0.7-1.5,0.7-2.3c0-1.7-0.8-3.7-2.2-5.5c2.8-0.4,4.2-1.2,8.2,0.2c0.3,0.1,0.6,0.2,0.9,0.4c-0.9,0.5-1.1,1.8-0.9,2.6
					c0.5,2.3,4.6,6,2.2,7.3c-2,1.1-6.1,0-5.9,3.1c0.1,2.4,2.5,5.2,4.8,7.4c2.7,2.6,5.9,6.2,4.7,8.7c-1.2,2.4-5.5,0.1-7.7,1.3
					c-1.4,0.8,0,2.3-0.5,3.5c-0.6,1.5-4.5-1.4-5.9-0.5c-1.9,1.2-1.3,4.4,0,6.9c1.2,2.3,1.9,5,2.1,7.1c0.2,1.5-0.1,2.9-1.3,3.7
					c-4.2,2.7-14.3-2.3-17.2,2c-3.1,4.7,4.7,12.6,4.7,18.2c0,1.2-0.5,2-1.7,2.4c-1.2,0.4-3-0.1-4.8-0.8c-1.3-0.5-2.5-1-3.6-1.4
					c-0.3-0.1-0.5-0.2-0.8-0.3c-2-0.7-4.2-1.3-4.4,0.5c-0.1,0.9,0.5,2.2-0.1,2.8c-0.5,0.5-1.2,0.4-1.9,0.2c-0.4-0.1-0.8-0.3-1.2-0.5
					c-0.4-0.2-0.8-0.4-1.2-0.5c-0.5-0.2-0.9-0.3-1.3-0.2c-1,0.2-0.8,1.3-1.4,1.8c-0.6,0.5-2.2,0.1-3.8-0.5c-0.8-0.3-1.6-0.7-2.4-1
					c-0.8-0.3-1.4-0.6-1.9-0.8c-1.6-0.6-3.1-0.6-4.2-0.1c-1.7,0.8-1.5,2.7-0.5,4.7c1.4,2.5,1.8,5.4-0.1,6.6
					c-0.9,0.6-2.5,0.3-4.1-0.3c-1.6-0.6-3.2-1.5-4.4-2.4c-1.3-1-3.2-3.1-2.6-4.1c0.3-0.5,0.9-0.3,1.7,0c0.3,0.1,0.5,0.2,0.8,0.3
					c0.3,0.1,0.6,0.2,0.8,0.3c0.6,0.2,1.2,0.4,1.6,0.3c2.3-0.6-1.7-4.4-1.7-5.8c0-0.9,1.1-1.2,1.5-1.9c1.2-2-3-5.7-4.6-8.1
					c-1.4-2.2-2.4-4.5-2.1-6.4c0.6-3,4.4-3.4,7.9-3.7c3.4-0.3,7-1.2,7.9-3.9c0.8-2.5-0.8-5.8-2.7-8.8c-1.6-2.6-3.9-5.6-3.8-8
					c0.1-2.2,2.5-2.7,3.6-4.3c1.9-2.8-2.8-6.8-7-8.7c-4.4-2.1-15.8-5.6-14.9-10.9c0.4-2.3,4.3-1.7,5.5-3.3c1.8-2.4-2.6-6-5.4-8.6
					c-3.1-3.1-7.3-6.9-3.8-9c2.5-1.3,7.7,1.8,9.8,0.5c3.3-2.1-3-6.6-5.4-9.1C80.7,134.7,82.1,131.4,87.5,132z"/>
			</g>
			<g>
				<path class="st1" d="M153.1,160.3l24.8-9.2c2.8-0.4,4.2-1.2,8.2,0.2c0.3,0.1,0.6,0.2,0.9,0.4l-24.8,9.2
					c-0.3-0.1-0.6-0.3-0.9-0.4C157.3,159.1,155.9,160,153.1,160.3z"/>
			</g>
			<g>
				<path class="st2" d="M187.8,162l-24.8,9.2c0.2-0.1,0.3-0.1,0.5-0.2c2.4-1.4-1.7-5.1-2.2-7.3c-0.2-0.8,0.1-2.2,0.9-2.6l24.8-9.2
					c-0.9,0.5-1.1,1.8-0.9,2.6c0.5,2.3,4.6,6,2.2,7.3C188.1,161.8,188,161.9,187.8,162z"/>
			</g>
		</g>
	</g>
	<g>
		<g class="st0">
			<g>
				<path class="st6" d="M55.5,160c1.7-0.6,3.3-1.2,5-1.8c-3.4,1.2-2.7,3.8-1.9,5.4c0.6,1.2,0.5,1.9,0.1,2c-0.1,0-0.2,0.1-0.2,0.1
					c-1.6,0.6-3.1,1.2-4.7,1.7c0.4-0.1,0.5-0.8-0.1-2C52.8,163.8,52.2,161.3,55.5,160z"/>
			</g>
			<g>
				<path class="st7" d="M97.7,206.8c1.7-0.6,3.3-1.2,4.9-1.8c0.7-0.2,2.2-0.2,3.8-0.8l0,0c-1.6,0.6-3.3,1.2-4.9,1.8
					C99.8,206.6,98.3,206.5,97.7,206.8z"/>
			</g>
			<g>
				<path class="st7" d="M53.5,158.7c1.7-0.6,3.3-1.2,5-1.8c0.5-0.2,1-0.3,1.5-0.4c1.1-0.2,2.2-0.4,3.1-0.7c-1.7,0.6-3.3,1.2-5,1.8
					c-0.9,0.3-2,0.5-3.1,0.7C54.4,158.4,53.9,158.6,53.5,158.7z"/>
			</g>
			<g>
				<path class="st6" d="M62.2,132c1.7-0.6,3.3-1.2,5-1.8c-1,0.4-1.9,1-2.5,1.8c-3.4,4.8-0.3,11.3,2.3,16.8c2.1,4.5,1.7,6.9-1.9,8.3
					c-1.7,0.6-3.3,1.2-5,1.8c3.6-1.3,3.9-3.7,1.9-8.3c-2.5-5.5-5.7-12.1-2.3-16.8C60.3,132.9,61.1,132.4,62.2,132z"/>
			</g>
			<g>
				<path class="st6" d="M82.8,152.9l4.9-1.8c-0.6,0.2-1.2,0.5-1.8,0.9c-8.5,5.3-5.9,12.8-2.3,18.1c3.7,5.4,11,12.7,10.3,19
					c-0.3,2.5-1.7,3.8-3,4.3l0,0c-1.7,0.6-3.3,1.2-4.9,1.8c1.3-0.5,2.7-1.8,3-4.3c0.7-6.3-6.6-13.7-10.3-19
					c-3.7-5.4-6.2-12.8,2.3-18.1C81.5,153.5,82.1,153.2,82.8,152.9z"/>
			</g>
			<g>
				<path class="st7" d="M60.4,129.4l5-1.8c2.4-0.9,5.7-1.1,9.5-0.4c7.2,1.2,12.1,1.9,15.1,0.8l-5,1.8c-3,1.1-7.9,0.4-15.1-0.8
					C66.1,128.3,62.8,128.5,60.4,129.4z"/>
			</g>
			<g>
				<path class="st6" d="M109,155.6l4.9-1.8c-6.4,2.4-11.6,6-10.4,14c1.6,10.7,12.9,21.7,10.7,30.5c-1.1,4.3-3.8,6.6-6.4,7.6
					c-1.7,0.6-3.3,1.2-5,1.8c2.6-1,5.3-3.2,6.4-7.6c2.2-8.9-9.1-19.9-10.7-30.5C97.4,161.6,102.6,158,109,155.6z"/>
			</g>
			<g>
				<path class="st7" d="M81.1,150.8c1.7-0.6,3.3-1.2,4.9-1.8c2-0.8,4.3-1.2,6.6-1.2c4,0,12.2-0.1,17.2-2l0,0
					c-1.6,0.6-3.3,1.2-4.9,1.8c-4.9,1.8-13.1,1.9-17.2,2C85.4,149.7,83.1,150.1,81.1,150.8z"/>
			</g>
			<g>
				<path class="st7" d="M90.6,124.2c0.2,4.5-2.8,6.9-6.6,7.6c-6.2,1.1-20.7-3.1-24.3,1.9c-3.4,4.8-0.3,11.3,2.3,16.8
					c2.5,5.5,1.4,7.9-4.7,9c-5.3,0.9-4.5,4-3.6,5.8c0.8,1.6,0.4,2.3-0.4,2c-0.4-0.2-1-0.6-1.5-1.3c-2.3-3.2-1.4-6.9,3.3-7.7
					c4.7-0.8,8.6-1.5,2.7-13.5c-5.9-11.9,0.1-18,12.2-15.9c12.1,2.1,17.8,2.6,18.5-4.3c0-0.4,0.1-0.9,0-1.3L90.6,124.2z"/>
			</g>
			<g>
				<polygon class="st7" points="88.5,123.4 93.4,121.6 95.5,122.3 90.6,124.2 				"/>
			</g>
			<g>
				<path class="st6" d="M90.8,129.5c-1.7,0.6-3.3,1.2-5,1.8c2.9-1.1,4.9-3.3,4.7-7.1l5-1.8C95.7,126.1,93.7,128.4,90.8,129.5z"/>
			</g>
			<g>
				<path class="st7" d="M105,154.7c1.7-0.6,3.3-1.2,4.9-1.8c2.4-0.9,5.3-1.7,8.8-2.7c0.7-0.2,1.3-0.4,1.9-0.6l-5,1.8
					c-0.6,0.2-1.2,0.4-1.9,0.6C110.3,152.9,107.4,153.8,105,154.7z"/>
			</g>
			<g>
				<polygon class="st7" points="107,130.2 111.9,128.4 114.7,129.4 109.7,131.2 				"/>
			</g>
			<g>
				<path class="st6" d="M111.5,148.1l-5,1.8c2.5-0.9,4.3-2.5,4.8-5.2c0.9-5.2-0.2-10-1.7-13.5l5-1.8c1.4,3.5,2.6,8.3,1.7,13.5
					C115.9,145.6,114,147.2,111.5,148.1z"/>
			</g>
			<g>
				<path class="st7" d="M109.7,131.2c1.4,3.5,2.6,8.3,1.7,13.5c-1.9,10.3-22.7,4.2-30.4,9.1c-8.5,5.3-5.9,12.8-2.3,18.1
					c3.7,5.4,11,12.7,10.3,19c-0.4,3.8-3.5,4.9-5,4.4c-1-0.4-1.2-1.4,0.4-2.9c4.1-3.7,1.5-8.3-3-14.2c-4.5-5.9-9.3-11.9-8.7-17.7
					c0.7-6.9,7.5-10.9,14.9-10.9c5.7,0,19.8-0.2,21.1-5.3c1.3-5.1-0.1-10.2-1.8-14.1L109.7,131.2z"/>
			</g>
			<g>
				<polygon class="st7" points="121.3,135.5 126.2,133.7 127.9,134.3 122.9,136.1 				"/>
			</g>
			<g>
				<path class="st6" d="M122.3,151.1c-1.7,0.6-3.3,1.2-4.9,1.8c7.3-2.7,7.4-7.4,6.6-12.4c-0.2-1.6-0.7-3.1-1.1-4.4l4.9-1.8
					c0.4,1.3,0.9,2.8,1.1,4.4C129.7,143.8,129.6,148.4,122.3,151.1z"/>
			</g>
			<g>
				<path class="st7" d="M122.9,136.1c0.4,1.3,0.9,2.8,1.1,4.4c0.8,5.5,0.6,10.4-8.3,13c-9,2.6-18.7,5.4-17,16.1
					c1.6,10.7,12.9,21.7,10.7,30.5c-1.8,7.5-8.6,8.8-11.1,7.9c-0.5-0.2-0.8-0.4-0.9-0.7c-0.7-1.9,6.7,1.5,9.5-8.2
					c2.6-9-10.8-20.7-11.4-31.1c-0.5-9.9,4.3-12.4,18.4-16.1c10.6-2.8,8.9-10.3,7.4-16.5L122.9,136.1z"/>
			</g>
			<g>
				<path class="st6" d="M136.2,230.7c-1.7,0.6-3.3,1.2-5,1.8c1.3-0.5,2.7-1.7,3.2-4c1.3-5.7-1-15.4-4.2-22.6
					c-3.2-7.2-0.3-16,6.1-23.8c6.4-7.9,5.4-21.1,0.4-31c-2.5-4.9-2.9-8.5-2.7-10.9l5-1.8c-0.2,2.4,0.2,6,2.7,10.9
					c5,9.9,6,23.1-0.4,31c-6.4,7.9-9.2,16.7-6.1,23.8c3.2,7.2,5.4,16.9,4.2,22.6C138.8,228.9,137.5,230.2,136.2,230.7z"/>
			</g>
			<g>
				<path class="st7" d="M134,140.2c-0.2,2.4,0.2,6,2.7,10.9c5,9.9,6,23.1-0.4,31c-6.4,7.9-9.2,16.7-6.1,23.8
					c3.2,7.2,5.4,16.9,4.2,22.6c-0.8,3.6-3.8,4.6-5.2,4.1c-0.8-0.3-1.1-1.1,0-2.3c4.3-4.9,2.6-12.8-1.8-25.3
					c-4.4-12.5,2.1-17.8,8.1-27.1c6-9.3,1.5-22.1-2.1-30.4c-1.6-3.6-1.9-6.2-1.7-8.1L134,140.2z"/>
			</g>
			<g>
				<polygon class="st7" points="131.7,139.3 136.6,137.5 138.9,138.3 134,140.2 				"/>
			</g>
		</g>
		<g class="st0">
			<g>
				<path class="st7" d="M156.1,148.8c-2,5.4-10.3,10.1,0.9,24.3c11.8,14.9,15.5,21,12.7,29.4c-3,8.9-17.8,8.4-17.6,18.7
					c0.2,11,7.6,13.9,6.6,15.1c-0.1,0.2-0.4,0.2-0.7,0c-2.3-0.8-8.5-7.8-8.3-16.3c0.2-9.7,13.6-10,17.6-18.2c4-8.2-4.3-19.3-11.7-29
					c-7.4-9.6-6.9-14.1-4.9-18.3c1.3-2.8,3.4-4.1,3.9-6.2c0.2,0.1,0.4,0.2,0.6,0.2C155.5,148.6,155.8,148.7,156.1,148.8z"/>
			</g>
			<g>
				<path class="st6" d="M163.6,234.5c0,0-0.1,0.1-0.1,0.1c-0.1,0.1-0.3,0.1-0.5,0.2c-0.1,0-0.2,0.1-0.2,0.1
					c-0.4,0.2-0.8,0.3-1.2,0.5c-0.7,0.2-1.3,0.5-2,0.7c-0.1,0-0.2,0.1-0.2,0.1c-0.2,0.1-0.5,0.2-0.7,0.3c0.1,0,0.1-0.1,0.1-0.1
					c1.1-1.2-6.4-4.1-6.6-15.1c-0.2-10.2,14.6-9.8,17.6-18.7c2.9-8.5-0.9-14.6-12.7-29.4c-11.2-14.2-2.8-18.9-0.9-24.3l4.9-1.8
					c-2,5.4-10.3,10.1,0.9,24.3c11.8,14.9,15.5,21,12.7,29.4c-3,8.9-17.8,8.4-17.6,18.7C157.2,230.4,164.7,233.3,163.6,234.5z"/>
			</g>
			<g>
				<path class="st7" d="M154.6,148.3l5-1.8c0.2,0.1,0.4,0.2,0.6,0.2c0.3,0.1,0.7,0.2,1,0.3l-4.9,1.8c-0.3-0.1-0.7-0.2-1-0.3
					C155,148.4,154.8,148.4,154.6,148.3z"/>
			</g>
			<g>
				<polygon class="st7" points="161.8,150.5 166.8,148.6 169.5,149.6 164.5,151.4 				"/>
			</g>
			<g>
				<path class="st6" d="M189.6,226.5c1.2,2.1,1.3,3,0.8,3.2l-4.9,1.8c0.5-0.2,0.4-1.1-0.8-3.2c-3.9-6.8-1.1-9.3,3.6-11.7
					c4.7-2.4,9.7-4.8,9.4-10.9c-0.4-7.3-6.8-16.3-14.2-21.9c-5.6-4.3-19.5-15.1-20.5-21.1c-0.9-5.1,0.2-8.8,1.7-11.3l4.9-1.8
					c-1.5,2.5-2.5,6.2-1.7,11.3c1,5.9,14.9,16.7,20.5,21.1c7.3,5.7,13.8,14.7,14.2,21.9c0.3,6.1-4.7,8.5-9.4,10.9
					C188.5,217.2,185.7,219.8,189.6,226.5z"/>
			</g>
			<g>
				<path class="st7" d="M164.5,151.4c-1.5,2.5-2.5,6.2-1.7,11.3c1,5.9,14.9,16.7,20.5,21.1c7.3,5.7,13.8,14.7,14.2,21.9
					c0.3,6.1-4.7,8.5-9.4,10.9c-4.7,2.4-7.5,4.9-3.6,11.7c1.5,2.7,1.2,3.5,0.3,3.2c-1.5-0.5-4.5-4-4.7-8.1c-0.4-6.8,7.1-8.5,11-11
					c3.8-2.5,6.7-8-1.4-19.5c-7.4-10.6-28.1-20.2-29.5-31.7c-0.6-4.9,0.3-8.4,1.5-10.7L164.5,151.4z"/>
			</g>
			<g>
				<polygon class="st7" points="171.4,154 176.3,152.1 178.6,153 173.6,154.8 				"/>
			</g>
			<g>
				<path class="st6" d="M234.2,222.7c-1.7,0.6-3.3,1.2-5,1.8c1.2-0.4,2.2-1.7,1.7-4.4c-1-6.2-9.6-8.5-7.5-16.1
					c2.1-7.6,0.4-13.1-12-18.3c-15.8-6.7-37.4-15.8-37.8-30.9l4.9-1.8c0.4,15.2,22,24.2,37.8,30.9c12.5,5.3,14.1,10.7,12,18.3
					c-2.1,7.6,6.5,9.9,7.5,16.1C236.3,221,235.3,222.3,234.2,222.7z"/>
			</g>
			<g>
				<path class="st7" d="M173.6,154.8c0.4,15.2,22,24.2,37.8,30.9c12.4,5.3,14.1,10.7,12,18.3c-2.1,7.6,6.5,9.9,7.5,16.1
					c0.7,4.2-2.3,5-3.8,4.4c-0.9-0.3-1.4-1.2-0.2-1.9c4.8-3.3-2.9-8.1-5-11.4c-4.1-6.6,2.5-11.1-1.2-16.6
					c-5.9-8.6-20.3-9.3-35.3-20.2c-10.2-7.4-13.5-14.7-14-20.5L173.6,154.8z"/>
			</g>
		</g>
	</g>
	<g>
		<g>
			<g class="st0">
				<g>
					<path class="st8" d="M33.4,123.8c16.5-6.1,33-12.2,49.5-18.4c0.2-0.1,0.4-0.1,0.7-0.1c1.7,0.1,3.5,0.1,4.7-0.3l-49.5,18.4
						c-1.2,0.4-2.9,0.4-4.7,0.3C33.8,123.7,33.6,123.8,33.4,123.8z"/>
				</g>
				<g>
					<path class="st9" d="M199.1,149c-16.5,6.1-33,12.2-49.5,18.4c0.5-0.2,0.3-0.6-0.7-1.3c-5-3.3-10.1-7.6-1.2-10.9l49.5-18.4
						c-9,3.3-3.8,7.5,1.2,10.8C199.4,148.4,199.6,148.8,199.1,149z"/>
				</g>
				<g>
					<path class="st10" d="M41.5,81.1L91,62.7c9-3.4,23.7-2.9,45.8,5.3c1.5,0.5,3,1.1,4.5,1.7L91.8,88.1c-1.5-0.6-3-1.2-4.5-1.7
						C65.2,78.3,50.5,77.8,41.5,81.1z"/>
				</g>
				<g>
					<path class="st10" d="M91.8,88.1l49.5-18.4c1.5,0.5,3,1.1,4.5,1.6L96.3,89.7C94.8,89.2,93.3,88.7,91.8,88.1z"/>
				</g>
				<g>
					<path class="st11" d="M96.3,89.7c60.5,22.3,64.8,60.6,51.5,65.5c-9,3.3-3.8,7.5,1.2,10.9c2.5,1.7-0.3,1.9-5.2,0.1
						c-1.5-0.5-3.1-1.3-4.9-2.2c-1.6-0.9-3-1.5-4.1-1.9c-4.1-1.5-5.5-0.5-8.4-0.2c-2.1,0.3-4.9-0.2-8-1.3c-2.3-0.9-4.8-2.2-7.1-3.9
						c-1.6-1.2-3-2-4.5-2.5c-3.5-1.3-6.8-1.2-10.4-1.7c-1.6-0.2-3.2-0.7-4.8-1.3c-2.1-0.8-4-1.7-5.1-2.3c-3.6-2.1-6.9-4.7-10.4-6
						c-1.4-0.5-2.9-0.8-4.5-0.8c-2.3,0-4.7-0.5-7.1-1.3c-3-1.1-5.9-2.8-8-4.6c-2.9-2.5-4.3-4.5-8.4-6c-1.1-0.4-2.5-0.8-4.1-1.1
						c-1.8-0.4-3.4-0.9-4.9-1.4c-4.8-1.8-7.7-4.1-5.2-3.9c5,0.4,10.2-0.1,1.3-9.9c-13.3-14.7-8.7-49.7,51.9-27.4
						c1.5,0.5,3,1.1,4.5,1.7C93.3,88.7,94.8,89.2,96.3,89.7z"/>
				</g>
				<g>
					<path class="st10" d="M96.3,89.7l49.5-18.4c60.5,22.3,64.8,60.6,51.5,65.5l-49.5,18.4C161.1,150.4,156.8,112.1,96.3,89.7z"/>
				</g>
			</g>
		</g>
		<g>
			<path class="st12" d="M76.1,132.7c0,0,0.1,0.4,0.3,1.1c0.2,0.7,0.6,1.8,1.3,3.1c0.7,1.3,1.7,2.8,3.2,4.2c0.7,0.7,1.6,1.4,2.5,1.9
				c0.9,0.6,1.9,1.1,2.9,1.4l0.2,0.1l0,0c0,0,0,0,0,0l0.1,0l0.4,0.1l0.8,0.2c0.1,0,0.3,0.1,0.4,0.1l0.4,0.1l0.7,0.1
				c0.1,0,0.2,0.1,0.4,0.1l0.3,0c0.2,0,0.5,0,0.7,0.1c0.4,0,0.8,0,1.3,0c0.4-0.1,0.7-0.1,1.1-0.2c0.3-0.1,0.7-0.2,0.9-0.4
				c0.6-0.3,1-0.6,1.4-1c0.2-0.2,0.4-0.4,0.5-0.5c0.1-0.2,0.3-0.4,0.4-0.5c0.2-0.3,0.4-0.7,0.5-1c0.2-0.6,0.3-0.9,0.3-0.9
				s0,0.4-0.2,1c-0.1,0.3-0.2,0.6-0.4,1c-0.2,0.4-0.4,0.8-0.8,1.2c-0.3,0.4-0.8,0.8-1.3,1.1c-0.3,0.2-0.6,0.3-0.9,0.4
				c-0.4,0.1-0.7,0.2-1.1,0.3c-0.4,0-0.9,0.1-1.3,0.1c-0.2,0-0.5,0-0.7-0.1l-0.4,0c-0.1,0-0.3,0-0.4-0.1l-0.8-0.2l-0.4-0.1
				c-0.1,0-0.3-0.1-0.4-0.1l-0.8-0.2l-0.4-0.1l-0.1,0l-0.1,0l0,0l-0.2-0.1c-1.1-0.4-2.1-0.9-3.1-1.6c-1-0.6-1.9-1.4-2.7-2.1
				c-1.6-1.5-2.5-3.1-3.2-4.4c-0.6-1.3-0.9-2.4-1.1-3.1C76.1,133.1,76.1,132.7,76.1,132.7z"/>
			<g>
				<g>
					<g>
						<path d="M107.8,123.1c0,3.9-2.1,6.3-4.7,5.3c-2.6-1-4.7-4.9-4.7-8.8c0-3.9,2.1-6.3,4.7-5.3
							C105.7,115.3,107.8,119.2,107.8,123.1z"/>
					</g>
					<path class="st13" d="M109.6,137.3c0,1.1-2.9,0.9-6.5-0.4c-3.6-1.3-6.5-3.3-6.5-4.4c0-1.1,2.9-0.9,6.5,0.4
						C106.7,134.2,109.6,136.2,109.6,137.3z"/>
				</g>
				<path class="st14" d="M102.4,118.2c0,1-0.5,1.6-1.2,1.4c-0.7-0.2-1.2-1.3-1.2-2.3c0-1,0.5-1.6,1.2-1.4
					C101.8,116.2,102.4,117.2,102.4,118.2z"/>
			</g>
			<g>
				<g>
					<g>
						<path d="M74.4,110.8c0,3.9-2.1,6.3-4.7,5.3c-2.6-1-4.7-4.9-4.7-8.8c0-3.9,2.1-6.3,4.7-5.3C72.2,102.9,74.4,106.9,74.4,110.8z"
							/>
					</g>
					<path class="st13" d="M76.1,125c0,1.1-2.9,0.9-6.5-0.4c-3.6-1.3-6.5-3.3-6.5-4.4c0-1.1,2.9-0.9,6.5,0.4
						C73.2,121.9,76.1,123.9,76.1,125z"/>
				</g>
				<path class="st14" d="M68.9,105.9c0,1-0.5,1.6-1.2,1.4c-0.7-0.2-1.2-1.3-1.2-2.3c0-1,0.5-1.6,1.2-1.4
					C68.4,103.9,68.9,104.9,68.9,105.9z"/>
			</g>
		</g>
	</g>
</g>
</svg>
