<?xml version="1.0" encoding="utf-8"?>
<!-- Generator: Adobe Illustrator 22.1.0, SVG Export Plug-In . SVG Version: 6.00 Build 0)  -->
<svg version="1.1" id="Layer_1" xmlns="http://www.w3.org/2000/svg" xmlns:xlink="http://www.w3.org/1999/xlink" x="0px" y="0px"
	 viewBox="0 0 250 250"  pointer-events="none"  style="enable-background:new 0 0 250 250;" xml:space="preserve">
 <g class="layer">
  <title>Cute pink animal standing on the beach doing nothing.</title>
  <g >
   <g >
    <g  class="st0">
     <g >
      <path cursor="pointer" pointer-events="visible"   d="m91.23167,235.50631l23.24146,-12.08734c0.28115,-0.13138 0.74972,0 1.31202,0.26277c0.28115,0.13138 0.46858,0.26277 0.74972,0.39415c0.28115,0.13138 0.56229,0.26277 0.74972,0.39415c0.56229,0.26277 1.12459,0.52554 1.49945,0.39415c0.09372,0 0.09372,0 0.18743,-0.13138l-23.24146,12.08734c-0.09372,0 -0.09372,0 -0.18743,0.13138c-0.37486,0.13138 -0.93716,0 -1.49945,-0.39415c-0.28115,-0.13138 -0.46858,-0.26277 -0.74972,-0.39415c-0.28115,-0.13138 -0.56229,-0.26277 -0.74972,-0.39415c-0.46858,-0.26277 -0.93716,-0.39415 -1.31202,-0.26277z" class="st1"/>
     </g>
     <g >
      <path cursor="pointer" pointer-events="visible"   d="m102.10268,229.72541c5.81036,-3.02183 11.62073,-6.04367 17.43109,-9.0655c1.96803,-1.05107 3.84234,-1.97076 5.81036,-3.02183c-0.09372,0 -0.18743,0.13138 -0.18743,0.13138c-1.59316,1.05107 -1.40573,3.54737 -0.46858,6.17505c1.31202,3.2846 1.68688,7.09474 -0.09372,8.67135c-0.09372,0.13138 -0.18743,0.13138 -0.28115,0.26277l-23.14774,12.08734c0.09372,0 0.18743,-0.13138 0.28115,-0.26277c1.7806,-1.57661 1.40573,-5.51813 0.09372,-8.67135c-1.03087,-2.62768 -1.12459,-4.9926 0.46858,-6.17505c0,0 0.09372,0 0.09372,-0.13138z" class="st2"/>
     </g>
     <g >
      <path cursor="pointer" pointer-events="visible"   d="m114.56685,230.77648l23.24146,-12.08734c-0.74972,0.39415 -0.56229,1.70799 -1.12459,2.23353c-0.09372,0.13138 -0.18743,0.13138 -0.18743,0.13138l-23.24146,12.08734c0.09372,0 0.18743,-0.13138 0.18743,-0.13138c0.46858,-0.52554 0.37486,-1.83938 1.12459,-2.23353z" class="st1"/>
     </g>
     <g >
      <path cursor="pointer" pointer-events="visible"   d="m91.88768,204.23689l23.14774,-12.08734c1.40573,-0.7883 3.18633,-0.91969 4.77949,-1.18246c1.49945,-0.13138 2.9989,-0.52554 4.2172,-1.18246l-23.24146,12.08734c-1.31202,0.65692 -2.81147,1.05107 -4.2172,1.18246c-1.59316,0.26277 -3.28004,0.39415 -4.68578,1.18246z" class="st1"/>
     </g>
     <g >
      <path cursor="pointer" pointer-events="visible"   d="m120.75208,226.96634l23.24146,-12.08734c-0.37486,0.26277 -0.65601,0.65692 -0.65601,1.44523c-0.09372,1.18246 0.46858,2.89045 -0.09372,3.67876c-0.09372,0.13138 -0.28115,0.26277 -0.46858,0.39415l-23.24146,12.08734c0.18743,-0.13138 0.28115,-0.26277 0.46858,-0.39415c0.56229,-0.7883 0,-2.4963 0.09372,-3.67876c0,-0.7883 0.28115,-1.18246 0.65601,-1.44523z" class="st1"/>
     </g>
     <g >
      <path cursor="pointer" pointer-events="visible"   d="m137.99574,202.92305c-0.93716,0.52554 -1.7806,0.91969 -2.71775,1.44523c-3.93605,2.10215 -7.87211,4.07291 -11.80816,6.17505c-2.90518,1.44523 -5.81036,3.02183 -8.62183,4.46706c-0.09372,0 -0.09372,0 -0.18743,-0.13138l23.24146,-12.08734c0,0 0,0.13138 0.09372,0.13138z" class="st1"/>
     </g>
     <g >
      <path cursor="pointer" pointer-events="visible"   d="m134.34083,197.14215c-1.03087,1.97076 1.12459,4.46706 3.46748,5.7809l-23.24146,12.08734c-2.34289,-1.31384 -4.49835,-3.67876 -3.46748,-5.7809l0,0c7.77839,-4.07291 15.46307,-8.14582 23.24146,-12.08734z" class="st1"/>
     </g>
     <g >
      <path cursor="pointer" pointer-events="visible"   d="m138.46432,203.05443c-7.68468,4.07291 -15.46307,8.01443 -23.24146,12.08734c-0.09372,0 -0.28115,-0.13138 -0.46858,-0.26277c6.74752,-3.54737 13.49504,-7.09474 20.33628,-10.51073c0.46858,-0.26277 0.93716,-0.52554 1.49945,-0.7883c0.46858,-0.26277 0.93716,-0.52554 1.40573,-0.7883l0,0c0.18743,0.13138 0.28115,0.26277 0.46858,0.26277z" class="st1"/>
     </g>
     <g >
      <path cursor="pointer" pointer-events="visible"   d="m138.46432,203.05443c0.09372,0 0.18743,0.13138 0.28115,0.13138l-23.24146,12.08734c-0.09372,0 -0.18743,-0.13138 -0.28115,-0.13138c7.77839,-3.94152 15.46307,-8.01443 23.24146,-12.08734z" class="st1"/>
     </g>
     <g >
      <path cursor="pointer" pointer-events="visible"   d="m138.74546,203.3172c-7.68468,4.07291 -15.46307,8.01443 -23.14774,12.08734c0,0 0,0 -0.09372,0l23.24146,-12.08734c0,-0.13138 0,-0.13138 0,0z" class="st1"/>
     </g>
     <g >
      <path cursor="pointer" pointer-events="visible"   d="m134.52826,196.748c-0.09372,0.13138 -0.18743,0.26277 -0.28115,0.39415c-7.77839,4.07291 -15.46307,8.01443 -23.24146,12.08734c0.09372,-0.13138 0.18743,-0.26277 0.28115,-0.39415c7.77839,-4.07291 15.55678,-8.14582 23.24146,-12.08734z" class="st1"/>
     </g>
     <g >
      <path cursor="pointer" pointer-events="visible"   d="m136.12143,194.12031c-0.09372,1.44523 -0.93716,1.83938 -1.49945,2.62768c-7.68468,4.07291 -15.46307,8.01443 -23.14774,12.08734c0.65601,-0.91969 1.40573,-1.18246 1.49945,-2.62768c7.68468,-4.07291 15.36935,-8.14582 23.14774,-12.08734z" class="st1"/>
     </g>
     <g >
      <path cursor="pointer" pointer-events="visible"   d="m136.12143,194.12031c-7.68468,4.07291 -15.46307,8.01443 -23.24146,12.08734c0,0 0,-0.13138 0,-0.13138l23.24146,-11.95596c0,-0.13138 0,-0.13138 0,0z" class="st1"/>
     </g>
     <g >
      <path cursor="pointer" pointer-events="visible"   d="m138.74546,203.3172c1.40573,0.52554 3.18633,0.7883 4.12348,0.26277l-23.24146,12.08734c-0.93716,0.52554 -2.71775,0.26277 -4.12348,-0.26277c7.77839,-4.07291 15.55678,-8.14582 23.24146,-12.08734z" class="st1"/>
     </g>
     <g >
      <path cursor="pointer" pointer-events="visible"   d="m133.77854,189.39048c1.2183,1.70799 2.34289,2.89045 2.24917,4.59844l-23.24146,12.08734c0,-1.70799 -1.03087,-2.89045 -2.24917,-4.59844c3.84234,-1.97076 7.77839,-4.07291 11.62073,-6.04367c0.46858,-0.26277 1.03087,-0.52554 1.49945,-0.7883c0.46858,-0.26277 1.03087,-0.52554 1.49945,-0.7883c0.93716,-0.52554 2.06174,-1.05107 2.9989,-1.57661c1.87431,-0.91969 3.74862,-1.97076 5.62293,-2.89045c0,0 0,0 0,0z" class="st1"/>
     </g>
     <g >
      <path cursor="pointer" pointer-events="visible"   d="m133.77854,189.39048c-3.84234,1.97076 -7.68468,4.07291 -11.52701,6.04367c-3.84234,1.97076 -7.68468,4.07291 -11.52701,6.04367c0,0 0,0 0,0c-1.49945,-1.97076 -2.81147,-4.07291 -2.81147,-6.04367c7.77839,-4.07291 15.46307,-8.01443 23.24146,-12.08734c-0.18743,1.97076 1.12459,4.07291 2.62404,6.04367c0,0 0,0 0,0z" class="st1"/>
     </g>
     <g >
      <path cursor="pointer" pointer-events="visible"   d="m131.06079,182.68989c0,0.26277 -0.09372,0.52554 -0.09372,0.65692c-7.68468,4.07291 -15.46307,8.01443 -23.24146,12.08734c0,-0.26277 0,-0.52554 0.09372,-0.65692c7.77839,-4.07291 15.55678,-8.01443 23.24146,-12.08734z" class="st1"/>
     </g>
     <g >
      <path cursor="pointer" pointer-events="visible"   d="m132.09166,181.24467c-0.46858,0.26277 -0.84344,0.65692 -0.93716,1.44523c-7.68468,4.07291 -15.46307,8.01443 -23.24146,12.08734c0.18743,-0.7883 0.46858,-1.18246 0.93716,-1.44523c7.02867,-3.54737 16.30651,-8.40858 23.24146,-12.08734z" class="st1"/>
     </g>
     <g >
      <path cursor="pointer" pointer-events="visible"   d="m118.69033,202.79166l23.24146,-12.08734c-0.56229,0.26277 -1.03087,0.7883 -1.2183,1.70799c-0.09372,0.39415 -0.18743,0.7883 -0.18743,1.18246c0,2.4963 1.7806,4.33568 2.81147,7.22613c0.18743,0.52554 0.28115,1.05107 0.28115,1.44523c0,0.7883 -0.28115,1.18246 -0.74972,1.44523l-23.24146,12.08734c0.46858,-0.26277 0.74972,-0.65692 0.74972,-1.44523c0,-0.39415 -0.09372,-0.7883 -0.28115,-1.44523c-1.03087,-2.89045 -2.90518,-4.72983 -2.81147,-7.22613c0,-0.39415 0.09372,-0.7883 0.18743,-1.18246c0.28115,-0.91969 0.65601,-1.44523 1.2183,-1.70799z" class="st3"/>
     </g>
     <g >
      <path cursor="pointer" pointer-events="visible"   d="m108.8502,193.33201c7.77839,-4.07291 15.46307,-8.01443 23.24146,-12.08734c0.46858,-0.26277 1.12459,-0.39415 1.87431,-0.39415c0.93716,-0.13138 2.24917,-0.26277 3.28004,-0.7883l-23.24146,12.08734c-1.03087,0.52554 -2.34289,0.7883 -3.18633,0.7883c-0.74972,0.13138 -1.40573,0.13138 -1.96803,0.39415z" class="st3"/>
     </g>
     <g >
      <path cursor="pointer" pointer-events="visible"   d="m128.81161,163.77058c0,0.26277 -0.09372,0.52554 0,0.65692c-7.77839,4.07291 -15.46307,8.01443 -23.24146,12.08734c0,-0.26277 0,-0.52554 0.09372,-0.65692c7.68468,-4.07291 15.46307,-8.01443 23.14774,-12.08734z" class="st1"/>
     </g>
     <g >
      <path cursor="pointer" pointer-events="visible"   d="m138.65175,177.82868c0,1.05107 -0.65601,1.70799 -1.49945,2.23353l-23.24146,12.08734c0.84344,-0.39415 1.49945,-1.18246 1.49945,-2.23353l0,0c7.77839,-3.94152 15.55678,-8.01443 23.24146,-12.08734z" class="st1"/>
     </g>
     <g >
      <path cursor="pointer" pointer-events="visible"   d="m115.03543,140.77836c0.09372,0 0.18743,0.13138 0.28115,0.13138c-7.77839,4.07291 -15.46307,8.01443 -23.24146,12.08734c-0.09372,0 -0.18743,-0.13138 -0.28115,-0.13138c7.77839,-4.07291 15.46307,-8.01443 23.24146,-12.08734z" class="st1"/>
     </g>
     <g >
      <path cursor="pointer" pointer-events="visible"   d="m141.93179,190.70433c1.49945,-0.7883 3.84234,0 5.71665,-0.13138c-7.68468,4.07291 -15.46307,8.01443 -23.14774,12.08734c-1.87431,0.13138 -4.31092,-0.65692 -5.71665,0.13138c6.93495,-3.67876 16.21279,-8.40858 23.14774,-12.08734z" class="st1"/>
     </g>
     <g >
      <path cursor="pointer" pointer-events="visible"   d="m111.2868,134.47192c0,2.62768 1.59316,4.72983 3.74862,6.30644c-7.77839,4.07291 -15.46307,8.01443 -23.24146,12.08734c-2.06174,-1.57661 -3.74862,-3.67876 -3.74862,-6.30644c7.02867,-3.54737 16.30651,-8.40858 23.24146,-12.08734z" class="st1"/>
     </g>
     <g >
      <path cursor="pointer" pointer-events="visible"   d="m82.42241,142.22358l23.24146,-12.08734c0.65601,-0.39415 1.49945,-0.65692 2.24917,-0.91969l-23.24146,12.08734c-0.65601,0.39415 -1.49945,0.52554 -2.24917,0.91969z" class="st1"/>
     </g>
     <g >
      <path cursor="pointer" pointer-events="visible"   d="m137.99574,175.72654c0.46858,0.7883 0.65601,1.57661 0.65601,2.10215c-7.77839,4.07291 -15.46307,8.01443 -23.24146,12.08734c0,-0.52554 -0.18743,-1.31384 -0.65601,-2.10215c-2.34289,-4.07291 -9.18412,-6.56921 -9.18412,-11.29903c7.68468,-4.07291 15.46307,-8.01443 23.24146,-12.08734c0,4.72983 6.84124,7.22613 9.18412,11.29903z" class="st1"/>
     </g>
     <g >
      <path cursor="pointer" pointer-events="visible"   d="m117.2846,142.22358c-7.77839,4.07291 -15.46307,8.01443 -23.24146,12.08734c-0.65601,-0.39415 -1.40573,-0.7883 -1.96803,-1.18246c7.77839,-4.07291 15.46307,-8.01443 23.24146,-12.08734c0.65601,0.39415 1.31202,0.7883 1.96803,1.18246z" class="st1"/>
     </g>
     <g >
      <path cursor="pointer" pointer-events="visible"   d="m117.47203,142.35497c0,0 0.09372,0 0.09372,0c-7.68468,4.07291 -15.46307,8.01443 -23.24146,12.08734c0,0 -0.09372,0 -0.09372,0c-0.09372,0 -0.09372,0 -0.18743,-0.13138c7.68468,-4.07291 15.46307,-8.01443 23.24146,-12.08734c0.09372,0 0.09372,0 0.18743,0.13138z" class="st1"/>
     </g>
     <g >
      <path cursor="pointer" pointer-events="visible"   d="m147.64844,190.57294c0.65601,0 1.12459,-0.13138 1.49945,-0.39415l-23.24146,12.08734c-0.37486,0.26277 -0.93716,0.39415 -1.49945,0.39415c3.84234,-1.97076 7.68468,-4.07291 11.62073,-6.04367c0.46858,-0.26277 1.03087,-0.52554 1.49945,-0.7883c0.46858,-0.26277 1.03087,-0.52554 1.49945,-0.7883c0.46858,-0.26277 1.03087,-0.52554 1.49945,-0.7883c0.46858,-0.26277 1.03087,-0.52554 1.49945,-0.7883c0.46858,-0.26277 1.03087,-0.52554 1.49945,-0.7883c0.46858,-0.26277 1.03087,-0.52554 1.40573,-0.7883c0.84344,-0.39415 1.7806,-1.05107 2.71775,-1.31384z" class="st1"/>
     </g>
     <g >
      <path cursor="pointer" pointer-events="visible"   d="m130.59221,161.01151c-0.65601,0.91969 -1.59316,1.31384 -1.7806,2.75907c-7.68468,4.07291 -15.46307,8.01443 -23.24146,12.08734c0.18743,-1.44523 1.03087,-1.83938 1.7806,-2.75907c7.77839,-4.07291 15.55678,-8.01443 23.24146,-12.08734z" class="st1"/>
     </g>
     <g >
      <path cursor="pointer" pointer-events="visible"   d="m112.50511,132.63254c-0.65601,0.39415 -1.03087,0.91969 -1.12459,1.83938l-23.14774,12.08734c0.09372,-1.05107 0.46858,-1.57661 1.12459,-1.83938c6.84124,-3.67876 16.11908,-8.53997 23.14774,-12.08734z" class="st1"/>
     </g>
     <g >
      <path cursor="pointer" pointer-events="visible"   d="m121.31437,195.30277l23.14774,-12.08734c0.56229,0.26277 1.03087,0.39415 1.49945,0.39415l-23.14774,12.08734c-0.56229,-0.13138 -1.03087,-0.13138 -1.49945,-0.39415z" class="st3"/>
     </g>
     <g >
      <path cursor="pointer" pointer-events="visible"   d="m146.61757,183.34681l-23.24146,12.08734c-0.18743,0.13138 -0.37486,0.13138 -0.65601,0.13138l23.14774,-12.08734c0.37486,0 0.56229,0 0.74972,-0.13138z" class="st3"/>
     </g>
     <g >
      <path cursor="pointer" pointer-events="visible"   d="m117.56575,142.35497c1.7806,0.91969 3.46748,1.44523 4.68578,1.83938c-7.68468,4.07291 -15.46307,8.01443 -23.14774,12.08734c-1.2183,-0.26277 -2.90518,-0.91969 -4.68578,-1.83938c7.68468,-4.07291 15.36935,-8.01443 23.14774,-12.08734z" class="st1"/>
     </g>
     <g >
      <path cursor="pointer" pointer-events="visible"   d="m117.75318,184.2665l23.24146,-12.08734c0,0.13138 0.09372,0.26277 0.09372,0.39415c0.74972,2.75907 0.56229,9.0655 3.37376,10.64211l-23.14774,12.08734c-2.81147,-1.57661 -2.62404,-7.88305 -3.37376,-10.64211c-0.09372,-0.26277 -0.09372,-0.26277 -0.18743,-0.39415z" class="st3"/>
     </g>
     <g >
      <path cursor="pointer" pointer-events="visible"   d="m123.09496,144.32573c-5.90408,3.02183 -11.71445,6.17505 -17.61853,9.19689c-1.87431,0.91969 -3.74862,1.97076 -5.62293,2.89045c-0.28115,0 -0.56229,-0.13138 -0.84344,-0.13138c7.77839,-4.07291 15.46307,-8.01443 23.14774,-12.08734c0.37486,0 0.65601,0.13138 0.93716,0.13138z" class="st1"/>
     </g>
     <g >
      <path cursor="pointer" pointer-events="visible"   d="m123.09496,144.32573c0.37486,0.13138 0.56229,0.13138 0.65601,0.13138c-7.68468,4.07291 -15.46307,8.01443 -23.24146,12.08734c-0.09372,0 -0.28115,0 -0.65601,-0.13138c7.02867,-3.67876 15.27564,-11.03627 23.24146,-12.08734z" class="st1"/>
     </g>
     <g >
      <path cursor="pointer" pointer-events="visible"   d="m123.75097,144.45711c0.18743,0 0.37486,0 0.56229,0.13138c-7.68468,4.07291 -15.46307,8.01443 -23.24146,12.08734c-0.18743,0 -0.37486,0 -0.56229,-0.13138c3.84234,-1.97076 7.68468,-4.07291 11.62073,-6.04367c0.93716,-0.52554 2.15546,-1.05107 2.9989,-1.57661c0.46858,-0.26277 1.03087,-0.52554 1.49945,-0.7883c0.46858,-0.26277 1.03087,-0.52554 1.49945,-0.7883c0.46858,-0.26277 1.03087,-0.52554 1.49945,-0.7883c0.46858,-0.26277 1.03087,-0.52554 1.40573,-0.7883c0.84344,-0.39415 1.7806,-1.18246 2.71775,-1.31384z" class="st1"/>
     </g>
     <g >
      <path cursor="pointer" pointer-events="visible"   d="m131.7168,202.26613l23.24146,-12.08734c-0.74972,0.39415 -1.31202,0.91969 -1.68688,1.83938c-2.90518,6.17505 4.40463,16.5544 4.40463,23.91191c0,1.44523 -0.46858,2.4963 -1.40573,3.02183c-7.77839,4.07291 -15.46307,8.01443 -23.24146,12.08734c1.03087,-0.52554 1.40573,-1.57661 1.40573,-3.02183c0,-7.35751 -7.30981,-17.73686 -4.40463,-23.91191c0.37486,-0.91969 0.93716,-1.44523 1.68688,-1.83938z" class="st4"/>
     </g>
     <g >
      <path cursor="pointer" pointer-events="visible"   d="m132.56024,154.70508c0,2.62768 -0.93716,4.86121 -1.96803,6.30644c-7.68468,4.07291 -15.46307,8.01443 -23.24146,12.08734c1.03087,-1.44523 1.96803,-3.67876 1.96803,-6.30644c7.77839,-4.07291 15.55678,-8.01443 23.24146,-12.08734z" class="st1"/>
     </g>
     <g >
      <path cursor="pointer" pointer-events="visible"   d="m126.9373,145.11404c0,0 0,0 0,0c-7.68468,4.07291 -15.36935,8.01443 -23.14774,12.08734c0,0 0,0 -0.09372,0c-0.84344,-0.26277 -1.59316,-0.39415 -2.53032,-0.52554c7.77839,-4.07291 15.46307,-8.01443 23.24146,-12.08734c0.84344,0.13138 1.68688,0.26277 2.53032,0.52554z" class="st1"/>
     </g>
     <g >
      <path cursor="pointer" pointer-events="visible"   d="m126.9373,145.11404c0.09372,0 0.09372,0 0.18743,0c-7.68468,4.07291 -15.46307,8.01443 -23.24146,12.08734c-0.09372,0 -0.09372,0 -0.18743,0c7.77839,-4.07291 15.55678,-8.14582 23.24146,-12.08734z" class="st1"/>
     </g>
     <g >
      <path cursor="pointer" pointer-events="visible"   d="m89.26365,144.71988l23.14774,-12.08734c1.59316,-0.7883 4.49835,-0.13138 6.18523,-1.05107l-23.14774,12.08734c-1.68688,0.7883 -4.59206,0.13138 -6.18523,1.05107z" class="st3"/>
     </g>
     <g >
      <path cursor="pointer" pointer-events="visible"   d="m127.12473,145.11404c0.18743,0.13138 0.37486,0.13138 0.56229,0.26277l-23.24146,12.08734c-0.18743,-0.13138 -0.28115,-0.13138 -0.56229,-0.26277c7.77839,-4.07291 15.55678,-8.01443 23.24146,-12.08734z" class="st1"/>
     </g>
     <g >
      <path cursor="pointer" pointer-events="visible"   d="m127.68703,145.3768c0,0 0,0 0,0c-7.77839,4.07291 -15.46307,8.01443 -23.24146,12.08734c0,0 0,0 0,0l23.24146,-12.08734c0,0 0,0 0,0z" class="st1"/>
     </g>
     <g >
      <path cursor="pointer" pointer-events="visible"   d="m146.61757,183.34681l-23.24146,12.08734c0.56229,-0.26277 0.74972,-1.05107 0.74972,-1.97076c0,-3.02183 -2.06174,-8.40858 -2.24917,-10.51073l23.14774,-12.08734c0.18743,2.10215 2.24917,7.48889 2.24917,10.51073c0.09372,1.05107 -0.09372,1.70799 -0.65601,1.97076z" class="st1"/>
     </g>
     <g >
      <path cursor="pointer" pointer-events="visible"   d="m130.96707,148.79279c1.2183,2.23353 1.59316,4.07291 1.59316,5.91229c-7.77839,4.07291 -15.46307,8.01443 -23.24146,12.08734c0,-1.70799 -0.37486,-3.67876 -1.59316,-5.91229c7.02867,-3.54737 16.30651,-8.40858 23.24146,-12.08734z" class="st1"/>
     </g>
     <g >
      <path cursor="pointer" pointer-events="visible"   d="m127.68703,145.3768c1.2183,0.65692 2.24917,1.70799 3.28004,3.41599l-23.24146,12.08734c-1.03087,-1.83938 -1.96803,-2.75907 -3.28004,-3.41599c0.37486,-0.26277 0.93716,-0.52554 1.31202,-0.65692c7.2161,-3.81014 14.4322,-7.48889 21.64829,-11.29903c0.09372,0 0.18743,-0.13138 0.28115,-0.13138z" class="st1"/>
     </g>
     <g >
      <path cursor="pointer" pointer-events="visible"   d="m116.16001,172.17916l23.24146,-12.08734c-0.65601,0.39415 -1.2183,0.7883 -1.40573,1.70799c-0.09372,0.39415 -0.18743,0.91969 -0.18743,1.31384c0,2.75907 2.06174,5.91229 3.18633,9.0655l-23.24146,12.08734c-1.12459,-3.15322 -3.18633,-6.17505 -3.18633,-9.0655c0,-0.52554 0.09372,-0.91969 0.18743,-1.31384c0.28115,-0.91969 0.74972,-1.44523 1.40573,-1.70799z" class="st3"/>
     </g>
     <g >
      <path cursor="pointer" pointer-events="visible"   d="m119.90864,130.00486c-0.18743,0.7883 -0.65601,1.31384 -1.2183,1.57661l-23.24146,12.08734c0.56229,-0.26277 1.03087,-0.7883 1.2183,-1.57661c6.93495,-3.67876 16.21279,-8.53997 23.24146,-12.08734z" class="st1"/>
     </g>
     <g >
      <path cursor="pointer" pointer-events="visible"   d="m149.14789,190.17879l-23.14774,12.08734c1.49945,-0.7883 1.7806,-2.75907 1.7806,-5.38675c0,-0.13138 0,-0.26277 0,-0.26277c0,-1.70799 -0.65601,-4.07291 -0.65601,-5.91229c0,-0.91969 0.18743,-1.83938 0.74972,-2.23353l23.14774,-12.08734c-0.56229,0.52554 -0.74972,1.31384 -0.74972,2.23353c0,1.83938 0.65601,4.20429 0.65601,5.91229c0,0.13138 0,0.26277 0,0.26277c0.09372,2.62768 -0.18743,4.59844 -1.7806,5.38675z" class="st3"/>
     </g>
     <g >
      <path cursor="pointer" pointer-events="visible"   d="m128.24932,188.20803l23.24146,-12.08734c-0.09372,0 -0.18743,0.13138 -0.28115,0.26277l-23.14774,12.08734c0,-0.13138 0.09372,-0.26277 0.18743,-0.26277z" class="st3"/>
     </g>
     <g >
      <path cursor="pointer" pointer-events="visible"   d="m86.07732,122.2532l23.14774,-12.08734c-0.74972,0.52554 -1.03087,1.31384 -1.03087,2.10215c0,1.70799 1.2183,3.94152 2.81147,5.91229l-23.14774,12.08734c-1.59316,-1.97076 -2.81147,-4.20429 -2.81147,-5.91229c0,-0.91969 0.28115,-1.57661 1.03087,-2.10215z" class="st1"/>
     </g>
     <g >
      <path cursor="pointer" pointer-events="visible"   d="m116.16001,172.17916l23.24146,-12.08734c0.56229,-0.26277 1.31202,-0.52554 1.96803,-0.7883l-23.14774,12.08734c-0.74972,0.26277 -1.40573,0.39415 -2.06174,0.7883z" class="st1"/>
     </g>
     <g >
      <path cursor="pointer" pointer-events="visible"   d="m151.39706,176.12069c0.56229,-0.26277 1.2183,-0.13138 1.87431,0.13138l-23.24146,12.08734c-0.65601,-0.26277 -1.31202,-0.39415 -1.87431,-0.13138c7.02867,-3.67876 16.30651,-8.40858 23.24146,-12.08734z" class="st1"/>
     </g>
     <g >
      <path cursor="pointer" pointer-events="visible"   d="m87.85791,130.26763l23.14774,-12.08734c2.71775,3.15322 9.09041,6.56921 8.99669,10.7735c0,0.39415 -0.09372,0.65692 -0.18743,1.05107l-23.24146,12.08734c0.09372,-0.39415 0.18743,-0.7883 0.18743,-1.05107c0.09372,-4.33568 -6.18523,-7.75166 -8.90298,-10.7735z" class="st1"/>
     </g>
     <g >
      <path cursor="pointer" pointer-events="visible"   d="m141.27578,159.17214l-23.14774,12.08734c0.37486,-0.13138 0.74972,-0.39415 1.03087,-0.7883l23.24146,-12.08734c-0.37486,0.39415 -0.74972,0.65692 -1.12459,0.7883z" class="st3"/>
     </g>
     <g >
      <path cursor="pointer" pointer-events="visible"   d="m153.27137,176.25207c0.65601,0.39415 0.84344,0.39415 1.03087,0.52554c-7.77839,4.07291 -15.46307,8.01443 -23.24146,12.08734c-0.18743,-0.13138 -0.28115,-0.13138 -1.03087,-0.52554c7.02867,-3.67876 16.30651,-8.53997 23.24146,-12.08734z" class="st1"/>
     </g>
     <g >
      <path cursor="pointer" pointer-events="visible"   d="m154.30225,176.77761c0.65601,0.39415 1.2183,0.7883 1.87431,1.18246l-23.24146,12.08734c-0.65601,-0.39415 -1.2183,-0.7883 -1.87431,-1.18246c7.77839,-4.07291 15.46307,-8.01443 23.24146,-12.08734z" class="st1"/>
     </g>
     <g >
      <path cursor="pointer" pointer-events="visible"   d="m77.64292,116.86645c7.77839,-4.07291 15.46307,-8.01443 23.24146,-12.08734c2.24917,-1.18246 6.56009,2.10215 8.62183,1.05107l0,0c-7.77839,4.07291 -15.46307,8.01443 -23.24146,12.08734c-2.06174,1.05107 -6.37266,-2.23353 -8.62183,-1.05107z" class="st1"/>
     </g>
     <g >
      <path cursor="pointer" pointer-events="visible"   d="m156.17656,177.96007c0.65601,0.39415 1.03087,0.52554 1.40573,0.65692c-7.77839,4.07291 -15.46307,8.01443 -23.24146,12.08734c-0.37486,-0.13138 -0.65601,-0.26277 -1.40573,-0.65692c6.93495,-3.67876 16.21279,-8.53997 23.24146,-12.08734z" class="st1"/>
     </g>
     <g >
      <path cursor="pointer" pointer-events="visible"   d="m113.81712,109.37755c-7.68468,4.07291 -15.46307,8.01443 -23.24146,12.08734c-1.2183,0.65692 -3.28004,0.13138 -4.59206,0.7883l23.14774,-12.08734c1.49945,-0.7883 3.46748,-0.13138 4.68578,-0.7883z" class="st3"/>
     </g>
     <g >
      <path cursor="pointer" pointer-events="visible"   d="m157.48857,178.61699c0.65601,0.26277 1.40573,0.39415 2.06174,0.52554c-7.68468,4.07291 -15.46307,8.01443 -23.14774,12.08734c-0.65601,-0.13138 -1.40573,-0.26277 -2.06174,-0.52554c7.68468,-4.07291 15.46307,-8.14582 23.14774,-12.08734z" class="st1"/>
     </g>
     <g >
      <path cursor="pointer" pointer-events="visible"   d="m113.81712,109.37755c-7.68468,4.07291 -15.46307,8.01443 -23.24146,12.08734c0.46858,-0.26277 0.74972,-0.65692 1.03087,-1.18246l23.24146,-12.08734c-0.18743,0.52554 -0.56229,0.91969 -1.03087,1.18246z" class="st1"/>
     </g>
     <g >
      <path cursor="pointer" pointer-events="visible"   d="m159.55032,179.14252c0.84344,0.13138 1.59316,0.13138 2.34289,0.13138c-7.68468,4.07291 -15.46307,8.01443 -23.24146,12.08734c-0.74972,0 -1.49945,0 -2.34289,-0.13138c0.37486,-0.26277 0.93716,-0.52554 1.31202,-0.65692c3.93605,-2.10215 7.87211,-4.07291 11.80816,-6.17505c1.49945,-0.7883 2.9989,-1.57661 4.49835,-2.36491c0.46858,-0.26277 1.03087,-0.52554 1.49945,-0.7883c0.46858,-0.26277 1.03087,-0.52554 1.40573,-0.7883c0.84344,-0.39415 1.87431,-1.18246 2.71775,-1.31384z" class="st1"/>
     </g>
     <g >
      <path cursor="pointer" pointer-events="visible"   d="m107.81933,143.01189l23.24146,-12.08734c3.65491,3.54737 3.93605,5.25536 3.93605,7.22613c0,0.39415 0,0.65692 0,1.05107c0,1.44523 0.09372,3.02183 1.31202,5.64952c1.87431,4.07291 7.30981,7.62028 7.30981,10.90488c0,0.91969 -0.37486,1.70799 -1.2183,2.4963l-23.24146,12.08734c0.84344,-0.7883 1.2183,-1.70799 1.2183,-2.4963c0,-3.41599 -5.34179,-6.96336 -7.30981,-10.90488c-1.2183,-2.62768 -1.31202,-4.20429 -1.31202,-5.64952c0,-0.39415 0,-0.7883 0,-1.05107c0,-1.97076 -0.28115,-3.67876 -3.93605,-7.22613z" class="st3"/>
     </g>
     <g >
      <path cursor="pointer" pointer-events="visible"   d="m162.4555,179.27391c0.56229,0 1.03087,-0.13138 1.40573,-0.39415l-23.24146,12.08734c-0.37486,0.26277 -0.84344,0.39415 -1.40573,0.39415c7.68468,-4.07291 15.46307,-8.14582 23.24146,-12.08734c-7.77839,4.07291 -15.46307,8.01443 -23.14774,12.08734l0,0c-0.18743,0 -0.28115,0 -0.46858,0c7.68468,-4.07291 15.46307,-8.01443 23.24146,-12.08734c0,0 0.18743,0 0.37486,0z" class="st1"/>
     </g>
     <g >
      <path cursor="pointer" pointer-events="visible"   d="m103.69584,133.42085c7.77839,-4.07291 15.46307,-8.01443 23.24146,-12.08734c-0.93716,0.52554 -1.31202,1.18246 -1.31202,1.97076c0,1.97076 2.71775,4.86121 5.4355,7.62028l-23.24146,12.08734c-2.71775,-2.75907 -5.4355,-5.64952 -5.4355,-7.62028c0,-0.7883 0.37486,-1.44523 1.31202,-1.97076z" class="st3"/>
     </g>
     <g >
      <path cursor="pointer" pointer-events="visible"   d="m127.68703,168.63179l23.14774,-12.08734c1.03087,2.10215 1.49945,3.54737 1.49945,4.72983c0,4.86121 -7.2161,3.94152 -7.2161,9.59104l-23.14774,12.08734c0,-5.64952 7.2161,-4.72983 7.2161,-9.59104c0,-1.18246 -0.46858,-2.75907 -1.49945,-4.72983z" class="st1"/>
     </g>
     <g >
      <path cursor="pointer" pointer-events="visible"   d="m103.69584,133.42085c7.77839,-4.07291 15.46307,-8.01443 23.24146,-12.08734c0.09372,-0.13138 0.28115,-0.13138 0.46858,-0.26277c0.93716,-0.39415 1.7806,-0.65692 2.4366,-1.05107c-7.77839,4.07291 -15.46307,8.01443 -23.24146,12.08734c-0.65601,0.39415 -1.40573,0.65692 -2.4366,1.05107c-0.18743,0.13138 -0.28115,0.26277 -0.46858,0.26277z" class="st1"/>
     </g>
     <g >
      <path cursor="pointer" pointer-events="visible"   d="m80.73553,96.76468l23.24146,-12.08734c0.74972,-0.39415 1.87431,-0.52554 3.09261,-0.26277l-23.24146,11.95596c-1.2183,-0.13138 -2.34289,0 -3.09261,0.39415z" class="st1"/>
     </g>
     <g >
      <path cursor="pointer" pointer-events="visible"   d="m83.82814,96.37053l23.14774,-12.08734c0.56229,0.65692 1.12459,1.44523 1.59316,2.10215c1.31202,1.97076 2.4366,4.46706 4.49835,6.30644l-23.14774,12.21872c-2.06174,-1.83938 -3.18633,-4.33568 -4.49835,-6.30644c-0.46858,-0.7883 -0.93716,-1.44523 -1.59316,-2.23353z" class="st1"/>
     </g>
     <g >
      <path cursor="pointer" pointer-events="visible"   d="m89.91966,104.91049l23.14774,-12.08734c-0.28115,0.39415 -0.37486,1.05107 -0.37486,1.70799c0,3.2846 2.24917,8.67135 2.24917,11.95596c0,0.65692 -0.09372,1.18246 -0.28115,1.57661l-23.24146,12.08734c0.18743,-0.39415 0.28115,-1.05107 0.28115,-1.57661c0,-3.2846 -2.24917,-8.67135 -2.24917,-11.95596c0.18743,-0.65692 0.28115,-1.31384 0.46858,-1.70799z" class="st1"/>
     </g>
     <g >
      <path cursor="pointer" pointer-events="visible"   d="m124.96928,156.28169c7.77839,-4.07291 15.46307,-8.01443 23.14774,-12.08734c-0.37486,0.26277 -0.74972,0.52554 -1.03087,0.91969c-0.46858,0.91969 -0.65601,1.70799 -0.65601,2.36491c0,2.89045 2.62404,5.38675 4.40463,8.93412l-23.14774,12.08734c-1.68688,-3.54737 -4.40463,-6.04367 -4.40463,-8.93412c0,-0.7883 0.18743,-1.57661 0.65601,-2.36491c0.28115,-0.39415 0.65601,-0.7883 1.03087,-0.91969z" class="st1"/>
     </g>
     <g >
      <path cursor="pointer" pointer-events="visible"   d="m124.96928,156.28169l23.14774,-12.08734c1.12459,-0.52554 2.62404,-0.52554 3.65491,-1.05107c-7.77839,4.07291 -15.46307,8.01443 -23.24146,12.08734c-0.93716,0.52554 -2.4366,0.52554 -3.56119,1.05107z" class="st3"/>
     </g>
     <g >
      <path cursor="pointer" pointer-events="visible"   d="m140.71349,171.78501l23.24146,-12.08734c-1.2183,0.65692 -1.68688,1.83938 -1.68688,3.15322c0,2.23353 1.2183,5.25536 2.34289,8.01443c0.65601,1.57661 0.93716,3.15322 0.93716,4.46706c0,1.57661 -0.46858,2.89045 -1.59316,3.54737l-23.14774,12.08734c1.12459,-0.52554 1.59316,-1.83938 1.59316,-3.54737c0,-1.44523 -0.37486,-3.02183 -0.93716,-4.46706c-1.12459,-2.75907 -2.34289,-5.64952 -2.34289,-8.01443c-0.18743,-1.31384 0.28115,-2.4963 1.59316,-3.15322z" class="st3"/>
     </g>
     <g >
      <path cursor="pointer" pointer-events="visible"   d="m163.86123,159.69767c0,0 0.09372,0 0,0c-7.68468,3.94152 -15.36935,8.01443 -23.14774,12.08734c0,0 0,0 -0.09372,0c7.02867,-3.67876 16.30651,-8.40858 23.24146,-12.08734z" class="st1"/>
     </g>
     <g >
      <path cursor="pointer" pointer-events="visible"   d="m145.49298,178.09145c7.77839,-4.07291 15.46307,-8.01443 23.24146,-12.08734c-0.09372,0 -0.09372,0.13138 -0.18743,0.13138c-1.7806,1.57661 -1.2183,5.7809 0,9.0655c1.12459,3.02183 1.7806,6.56921 1.96803,9.32827c0.18743,1.97076 -0.09372,3.81014 -1.2183,4.86121c-0.28115,0.26277 -0.56229,0.39415 -0.84344,0.52554l-23.14774,12.08734c0.28115,-0.13138 0.56229,-0.39415 0.84344,-0.52554c1.12459,-1.05107 1.31202,-2.89045 1.2183,-4.86121c-0.18743,-2.75907 -0.84344,-6.30644 -1.96803,-9.32827c-1.2183,-3.15322 -1.68688,-7.48889 0,-9.0655c0,0 0,-0.13138 0.09372,-0.13138z" class="st2"/>
     </g>
     <g >
      <path cursor="pointer" pointer-events="visible"   d="m89.91966,104.91049l23.14774,-12.08734c0.56229,0.39415 1.12459,0.91969 1.7806,1.18246c0.74972,0.39415 1.49945,0.65692 2.4366,0.7883c2.81147,0.52554 4.68578,0.91969 6.46637,1.83938l-23.14774,12.08734c-1.7806,-0.91969 -3.65491,-1.18246 -6.46637,-1.83938c-0.93716,-0.13138 -1.68688,-0.52554 -2.4366,-0.7883c-0.65601,-0.39415 -1.2183,-0.7883 -1.7806,-1.18246z" class="st3"/>
     </g>
     <g >
      <path cursor="pointer" pointer-events="visible"   d="m100.60323,108.72063l23.14774,-12.08734c1.49945,0.7883 2.81147,1.97076 4.59206,4.07291l-23.24146,12.08734c-1.59316,-2.10215 -2.9989,-3.2846 -4.49835,-4.07291z" class="st3"/>
     </g>
     <g >
      <path cursor="pointer" pointer-events="visible"   d="m163.95495,159.69767c1.2183,-0.65692 2.71775,-0.13138 4.31092,0.39415c-7.77839,4.07291 -15.46307,8.01443 -23.24146,12.08734c-1.49945,-0.52554 -3.09261,-1.05107 -4.31092,-0.39415c3.84234,-1.97076 7.68468,-4.07291 11.62073,-6.04367c1.49945,-0.7883 2.9989,-1.57661 4.49835,-2.36491c0.46858,-0.26277 1.03087,-0.52554 1.49945,-0.7883c0.84344,-0.39415 1.96803,-1.05107 2.90518,-1.44523c0.84344,-0.52554 1.87431,-1.05107 2.71775,-1.44523z" class="st1"/>
     </g>
     <g >
      <path cursor="pointer" pointer-events="visible"   d="m168.17215,160.09183c0.37486,0.13138 0.74972,0.26277 1.2183,0.39415c-7.77839,4.07291 -15.46307,8.01443 -23.24146,12.08734c-0.37486,-0.13138 -0.84344,-0.26277 -1.2183,-0.39415c7.77839,-4.07291 15.55678,-8.01443 23.24146,-12.08734z" class="st2"/>
     </g>
     <g >
      <path cursor="pointer" pointer-events="visible"   d="m169.39045,160.48598c0.37486,0.13138 0.74972,0.26277 1.12459,0.13138c-7.77839,4.07291 -15.46307,8.01443 -23.24146,12.08734c-0.28115,0 -0.65601,0 -1.12459,-0.13138c7.77839,-4.07291 15.55678,-8.01443 23.24146,-12.08734z" class="st2"/>
     </g>
     <g >
      <path cursor="pointer" pointer-events="visible"   d="m170.51504,160.74875c0.09372,0 0.18743,0 0.28115,-0.13138l-23.14774,12.08734c-0.09372,0 -0.18743,0.13138 -0.28115,0.13138c3.84234,-1.97076 7.68468,-4.07291 11.62073,-6.04367c0.93716,-0.52554 2.15546,-1.05107 2.9989,-1.57661c0.46858,-0.26277 1.03087,-0.52554 1.49945,-0.7883c1.40573,-0.7883 2.90518,-1.44523 4.31092,-2.23353c0.84344,-0.52554 1.7806,-1.18246 2.71775,-1.44523z" class="st2"/>
     </g>
     <g >
      <path cursor="pointer" pointer-events="visible"   d="m151.77193,143.14327c-7.77839,4.07291 -15.46307,8.01443 -23.24146,12.08734c0.37486,-0.13138 0.65601,-0.39415 0.84344,-0.7883c0.46858,-0.7883 0.56229,-1.44523 0.56229,-2.23353c0,-4.9926 -7.68468,-10.64211 -7.68468,-15.10917c0,-0.91969 0.37486,-1.83938 1.2183,-2.75907l23.14774,-12.08734c-0.84344,0.91969 -1.2183,1.83938 -1.2183,2.75907c0,4.59844 7.68468,10.24796 7.68468,15.10917c0,0.7883 -0.18743,1.57661 -0.56229,2.23353c-0.09372,0.39415 -0.37486,0.65692 -0.74972,0.7883z" class="st1"/>
     </g>
     <g >
      <path cursor="pointer" pointer-events="visible"   d="m125.06299,133.15808c7.77839,-4.07291 15.46307,-8.01443 23.24146,-12.08734c-0.56229,0.26277 -1.03087,0.65692 -1.40573,1.05107l-23.14774,12.08734c0.28115,-0.39415 0.74972,-0.7883 1.31202,-1.05107z" class="st1"/>
     </g>
     <g >
      <path cursor="pointer" pointer-events="visible"   d="m125.06299,133.15808c7.77839,-4.07291 15.46307,-8.01443 23.24146,-12.08734c1.68688,-0.91969 3.74862,-0.91969 5.34179,-1.83938c-7.77839,4.07291 -15.46307,8.01443 -23.24146,12.08734c-1.59316,0.91969 -3.74862,1.05107 -5.34179,1.83938z" class="st3"/>
     </g>
     <g >
      <path cursor="pointer" pointer-events="visible"   d="m153.64624,119.36275c-7.77839,4.07291 -15.46307,8.01443 -23.24146,12.08734c0.93716,-0.52554 1.68688,-1.18246 2.15546,-2.36491c0.09372,-0.13138 0.09372,-0.26277 0.18743,-0.39415l23.14774,-12.08734c-0.09372,0.13138 -0.09372,0.26277 -0.18743,0.52554c-0.37486,1.05107 -1.2183,1.70799 -2.06174,2.23353z" class="st1"/>
     </g>
     <g >
      <path cursor="pointer" pointer-events="visible"   d="m143.61867,146.03372c7.77839,-4.07291 15.46307,-8.01443 23.24146,-12.08734c-1.12459,0.52554 -2.06174,1.31384 -2.06174,2.75907c0,0.26277 0,0.65692 0.18743,1.05107c0.56229,2.23353 3.09261,3.54737 4.49835,5.12398c1.2183,1.44523 2.06174,2.89045 2.06174,4.20429c0,0.52554 -0.09372,0.91969 -0.37486,1.31384c-0.84344,1.31384 -3.37376,2.23353 -3.37376,4.46706c0,0.39415 0.09372,0.91969 0.28115,1.44523c0.56229,1.57661 3.28004,3.41599 3.28004,5.12398c0,0.26277 -0.09372,0.52554 -0.28115,0.7883c-0.09372,0.13138 -0.18743,0.13138 -0.18743,0.26277l-23.14774,12.08734c0.09372,0 0.18743,-0.13138 0.18743,-0.26277c0.18743,-0.26277 0.28115,-0.52554 0.28115,-0.7883c0,-1.57661 -2.62404,-3.54737 -3.28004,-5.12398c-0.18743,-0.52554 -0.28115,-1.05107 -0.28115,-1.44523c0,-2.23353 2.4366,-3.15322 3.37376,-4.46706c0.28115,-0.39415 0.37486,-0.91969 0.37486,-1.31384c0,-1.31384 -0.84344,-2.75907 -2.06174,-4.20429c-1.40573,-1.57661 -4.02977,-3.02183 -4.49835,-5.12398c-0.09372,-0.39415 -0.09372,-0.7883 -0.09372,-1.05107c-0.18743,-1.44523 0.74972,-2.23353 1.87431,-2.75907z" class="st5"/>
     </g>
     <g >
      <path cursor="pointer" pointer-events="visible"   d="m166.86013,133.94638c0.46858,-0.26277 0.93716,-0.39415 1.40573,-0.65692l-23.24146,12.08734c-0.46858,0.26277 -0.93716,0.39415 -1.40573,0.65692c6.93495,-3.54737 16.21279,-8.40858 23.24146,-12.08734z" class="st1"/>
     </g>
     <g >
      <path cursor="pointer" pointer-events="visible"   d="m168.17215,133.28946l-23.24146,12.08734c0.74972,-0.39415 1.31202,-0.7883 1.68688,-1.44523c0.46858,-0.91969 0.65601,-1.97076 0.65601,-3.02183c0,-2.23353 -0.74972,-4.86121 -2.24917,-7.22613l23.24146,-12.08734c1.40573,2.4963 2.24917,4.9926 2.24917,7.22613c0,1.18246 -0.18743,2.23353 -0.65601,3.02183c-0.37486,0.65692 -0.93716,1.05107 -1.68688,1.44523z" class="st3"/>
     </g>
     <g >
      <path cursor="pointer" pointer-events="visible"   d="m100.60323,108.72063c1.49945,0.7883 2.81147,1.97076 4.49835,4.07291c-0.18743,0.52554 -0.37486,1.05107 -0.37486,1.70799c0,1.97076 0.74972,4.59844 1.49945,6.70059c1.40573,4.07291 2.34289,6.43782 2.24917,8.01443c0,1.97076 -1.31202,2.62768 -4.49835,3.94152c-1.31202,0.52554 -1.7806,1.18246 -1.7806,2.10215c0,1.97076 2.71775,4.86121 5.4355,7.62028c3.65491,3.54737 3.93605,5.25536 3.93605,7.22613c0,0.39415 0,0.65692 0,1.05107c0,1.44523 0.09372,3.02183 1.31202,5.64952c1.87431,4.07291 7.30981,7.62028 7.30981,10.90488c0,0.91969 -0.37486,1.70799 -1.2183,2.4963c-1.31202,1.57661 -3.74862,1.05107 -4.40463,3.41599c-0.09372,0.39415 -0.18743,0.91969 -0.18743,1.31384c0,2.75907 2.06174,5.91229 3.18633,9.0655c0,0.13138 0.09372,0.26277 0.09372,0.39415c0.74972,2.75907 0.56229,9.0655 3.37376,10.64211c0.56229,0.26277 0.93716,0.39415 1.49945,0.39415c1.03087,0 1.40573,-0.7883 1.40573,-2.10215c0,-3.02183 -2.06174,-8.40858 -2.24917,-10.51073c0,-5.64952 7.2161,-4.72983 7.2161,-9.59104c0,-1.18246 -0.46858,-2.75907 -1.49945,-4.72983c-1.68688,-3.54737 -4.40463,-6.04367 -4.40463,-8.93412c0,-0.7883 0.18743,-1.57661 0.65601,-2.36491c1.12459,-2.10215 4.40463,-0.91969 5.52922,-2.75907c0.46858,-0.7883 0.56229,-1.44523 0.56229,-2.23353c0,-4.9926 -7.68468,-10.64211 -7.68468,-15.10917c0,-0.91969 0.37486,-1.83938 1.2183,-2.75907c2.4366,-2.75907 7.2161,-1.18246 8.99669,-5.25536c0.09372,-0.13138 0.09372,-0.26277 0.18743,-0.39415c1.59316,1.44523 3.28004,2.62768 4.87321,3.41599c2.81147,1.44523 5.52922,1.97076 7.49724,1.70799c1.40573,2.4963 2.24917,4.9926 2.24917,7.22613c0,1.18246 -0.18743,2.23353 -0.65601,3.02183c-1.12459,1.97076 -5.15436,1.83938 -5.15436,4.86121c0,0.26277 0,0.65692 0.09372,1.05107c0.56229,2.23353 3.09261,3.54737 4.49835,5.12398c1.2183,1.44523 2.06174,2.89045 2.06174,4.20429c0,0.52554 -0.09372,0.91969 -0.37486,1.31384c-0.84344,1.31384 -3.37376,2.23353 -3.37376,4.46706c0,0.39415 0.09372,0.91969 0.28115,1.44523c0.65601,1.57661 3.28004,3.41599 3.28004,5.12398c0,0.26277 -0.09372,0.52554 -0.28115,0.7883c-0.46858,0.65692 -1.87431,0 -2.81147,-0.26277c-1.49945,-0.52554 -3.09261,-1.05107 -4.31092,-0.39415c-1.31202,0.65692 -1.7806,1.83938 -1.7806,3.15322c0,2.23353 1.2183,5.25536 2.34289,8.01443c0.65601,1.44523 0.93716,3.15322 0.93716,4.46706c0,2.10215 -0.74972,3.67876 -2.62404,3.81014c-0.09372,0 -0.18743,0 -0.18743,0c-0.37486,0 -0.56229,0 -0.65601,0c-1.40573,0 -2.90518,-0.13138 -4.40463,-0.65692c-0.37486,-0.13138 -0.65601,-0.26277 -1.03087,-0.52554c-0.18743,-0.13138 -0.28115,-0.13138 -0.37486,-0.13138c-0.65601,-0.39415 -1.2183,-0.7883 -1.87431,-1.18246c-0.18743,-0.13138 -0.28115,-0.13138 -0.46858,-0.26277c-0.09372,0 -0.18743,-0.13138 -0.28115,-0.13138c-0.09372,0 -0.18743,-0.13138 -0.28115,-0.13138c-0.84344,-0.39415 -1.59316,-0.39415 -2.15546,0.13138c-0.56229,0.52554 -0.74972,1.31384 -0.74972,2.23353c0,1.83938 0.65601,4.20429 0.65601,5.91229c0,0.13138 0,0.26277 0,0.26277c0,3.2846 -0.46858,5.51813 -3.37376,5.7809c-2.62404,0.13138 -6.18523,-1.31384 -6.93495,1.83938c-0.09372,0.39415 -0.18743,0.7883 -0.18743,1.18246c0,2.4963 1.7806,4.33568 2.81147,7.22613c0.18743,0.52554 0.28115,1.05107 0.28115,1.44523c0,2.23353 -2.90518,1.83938 -4.77949,1.18246c-0.37486,-0.13138 -0.65601,-0.26277 -0.93716,-0.39415c-2.53032,-1.31384 -4.68578,-3.81014 -3.65491,-5.7809c0.09372,-0.13138 0.18743,-0.26277 0.28115,-0.39415c0.65601,-0.91969 1.49945,-1.18246 1.49945,-2.62768c0,-1.83938 -1.03087,-3.15322 -2.24917,-4.72983c-1.49945,-1.97076 -2.81147,-4.07291 -2.81147,-6.04367c0,-0.26277 0,-0.52554 0.09372,-0.65692c0.28115,-1.57661 1.49945,-1.70799 2.81147,-1.83938c1.68688,-0.13138 4.77949,-0.65692 4.77949,-3.02183c0,-0.52554 -0.18743,-1.31384 -0.65601,-2.10215c-2.34289,-4.07291 -9.18412,-6.56921 -9.18412,-11.29903c0,-0.26277 0,-0.52554 0.09372,-0.65692c0.18743,-1.44523 1.03087,-1.83938 1.7806,-2.75907c1.03087,-1.44523 1.96803,-3.67876 1.96803,-6.30644c0,-1.70799 -0.37486,-3.67876 -1.40573,-5.51813c-0.09372,-0.13138 -0.09372,-0.26277 -0.18743,-0.26277c-1.03087,-1.83938 -2.06174,-2.75907 -2.9989,-3.2846c-0.46858,-0.26277 -0.65601,-0.26277 -0.93716,-0.39415c-0.84344,-0.26277 -1.68688,-0.39415 -2.62404,-0.52554c-0.18743,0 -0.37486,0 -0.56229,-0.13138c-0.09372,0 -0.28115,0 -0.37486,-0.13138c-0.09372,0 -0.18743,0 -0.28115,0c-0.28115,0 -0.56229,-0.13138 -0.84344,-0.13138c-1.2183,-0.26277 -2.9989,-0.91969 -4.68578,-1.70799c-3.28004,-1.70799 -6.37266,-4.33568 -6.37266,-7.62028c0,-0.13138 0,-0.26277 0,-0.26277c0.37486,-4.33568 7.59096,-0.52554 8.52812,-4.59844c0.09372,-0.39415 0.18743,-0.7883 0.18743,-1.05107c0.09372,-4.20429 -6.27894,-7.62028 -8.99669,-10.7735c-1.59316,-1.97076 -2.81147,-4.20429 -2.81147,-5.91229c0,-0.91969 0.28115,-1.57661 1.03087,-2.10215c1.7806,-0.91969 4.77949,0.39415 5.62293,-1.97076c0.18743,-0.39415 0.28115,-1.05107 0.28115,-1.57661c0,-3.2846 -2.24917,-8.67135 -2.24917,-11.95596c0,-0.65692 0.09372,-1.31384 0.37486,-1.70799c0.56229,0.39415 1.12459,0.91969 1.7806,1.18246c0.74972,0.39415 1.49945,0.65692 2.4366,0.7883c2.9989,0.39415 4.87321,0.65692 6.6538,1.57661z" class="st3"/>
     </g>
     <g >
      <path cursor="pointer" pointer-events="visible"   d="m129.74877,120.15105c-7.77839,4.07291 -15.46307,8.01443 -23.24146,12.08734c1.49945,-0.7883 2.06174,-1.57661 2.15546,-2.89045c0,-1.57661 -0.84344,-3.94152 -2.24917,-8.01443c-0.74972,-2.10215 -1.49945,-4.86121 -1.49945,-6.70059c0,-0.65692 0.09372,-1.31384 0.37486,-1.70799l23.24146,-12.08734c-0.18743,0.52554 -0.37486,1.05107 -0.37486,1.83938c0,1.97076 0.74972,4.59844 1.49945,6.70059c1.40573,4.07291 2.34289,6.43782 2.24917,8.01443c-0.09372,1.18246 -0.74972,1.97076 -2.15546,2.75907z" class="st3"/>
     </g>
     <g >
      <path cursor="pointer" pointer-events="visible"   d="m151.49078,174.14993c7.77839,-4.07291 15.46307,-8.01443 23.24146,-12.08734c-0.09372,0 -0.18743,0.13138 -0.28115,0.13138c-1.31202,1.05107 0,3.02183 -0.46858,4.59844c-0.09372,0.26277 -0.18743,0.39415 -0.37486,0.52554l-23.24146,12.08734c0.18743,-0.13138 0.28115,-0.26277 0.37486,-0.52554c0.46858,-1.57661 -0.93716,-3.67876 0.46858,-4.59844c0.09372,-0.13138 0.18743,-0.13138 0.28115,-0.13138z" class="st2"/>
     </g>
     <g >
      <path cursor="pointer" pointer-events="visible"   d="m105.19529,112.79354l23.24146,-12.08734c2.71775,3.41599 4.59206,5.51813 7.30981,6.96336c1.31202,0.65692 2.71775,1.18246 4.59206,1.57661c3.37376,0.7883 6.46637,0.52554 9.74642,2.23353l-23.24146,12.08734c-3.28004,-1.70799 -6.37266,-1.57661 -9.74642,-2.23353c-1.7806,-0.39415 -3.28004,-0.91969 -4.59206,-1.57661c-2.71775,-1.44523 -4.59206,-3.54737 -7.30981,-6.96336z" class="st1"/>
     </g>
     <g >
      <path cursor="pointer" pointer-events="visible"   d="m126.84359,123.56704l23.24146,-12.08734c1.31202,0.65692 2.71775,1.70799 4.2172,3.2846c0.56229,0.65692 1.12459,1.18246 1.7806,1.70799l-23.14774,12.08734c-0.56229,-0.52554 -1.2183,-1.05107 -1.7806,-1.70799c-1.59316,-1.57661 -2.90518,-2.4963 -4.31092,-3.2846z" class="st1"/>
     </g>
     <g >
      <path cursor="pointer" pointer-events="visible"   d="m126.84359,123.56704c1.31202,0.65692 2.71775,1.70799 4.2172,3.2846c0.56229,0.65692 1.12459,1.18246 1.7806,1.70799c-0.09372,0.13138 -0.09372,0.26277 -0.18743,0.39415c-1.7806,4.07291 -6.56009,2.4963 -8.99669,5.25536c-0.84344,0.91969 -1.2183,1.83938 -1.2183,2.75907c0,4.59844 7.68468,10.24796 7.68468,15.10917c0,0.7883 -0.18743,1.57661 -0.56229,2.23353c-1.12459,1.97076 -4.40463,0.65692 -5.52922,2.75907c-0.46858,0.7883 -0.65601,1.70799 -0.65601,2.36491c0,2.89045 2.62404,5.38675 4.40463,8.93412c1.03087,2.10215 1.49945,3.54737 1.49945,4.72983c0,4.86121 -7.2161,4.07291 -7.2161,9.59104c0.18743,2.10215 2.24917,7.48889 2.24917,10.51073c0,1.31384 -0.37486,2.10215 -1.40573,2.10215c-0.46858,0 -0.93716,-0.13138 -1.31202,-0.26277c-2.9989,-1.57661 -2.71775,-8.01443 -3.56119,-10.7735c0,-0.13138 -0.09372,-0.26277 -0.09372,-0.39415c-1.12459,-3.15322 -3.18633,-6.17505 -3.18633,-9.0655c0,-0.52554 0.09372,-0.91969 0.18743,-1.31384c0.65601,-2.36491 3.09261,-1.83938 4.40463,-3.41599c0.84344,-0.7883 1.2183,-1.70799 1.2183,-2.4963c0,-3.41599 -5.34179,-6.96336 -7.30981,-10.90488c-1.2183,-2.62768 -1.31202,-4.20429 -1.31202,-5.64952c0,-0.39415 0,-0.7883 0,-1.05107c0,-1.97076 -0.28115,-3.67876 -3.93605,-7.22613c-2.71775,-2.75907 -5.4355,-5.64952 -5.4355,-7.62028c0,-0.91969 0.46858,-1.57661 1.7806,-2.10215c3.18633,-1.18246 4.49835,-1.97076 4.49835,-3.94152c0,-1.57661 -0.84344,-3.94152 -2.24917,-8.01443c-0.74972,-2.10215 -1.49945,-4.86121 -1.49945,-6.70059c0,-0.65692 0.09372,-1.31384 0.37486,-1.70799c2.71775,3.41599 4.59206,5.51813 7.30981,6.96336c1.31202,0.65692 2.81147,1.18246 4.59206,1.57661c3.09261,0.91969 6.18523,0.65692 9.46527,2.36491z" class="st1"/>
     </g>
     <g >
      <path cursor="pointer" pointer-events="visible"   d="m150.74105,148.92417c7.68468,-4.07291 15.46307,-8.01443 23.24146,-12.08734c-0.74972,0.39415 -1.31202,1.18246 -1.2183,2.62768c0.09372,3.15322 2.34289,6.83197 4.49835,9.72243c2.53032,3.41599 5.52922,8.14582 4.40463,11.43042c-0.18743,0.65692 -0.56229,1.05107 -1.03087,1.18246l-23.24146,12.08734c0.46858,-0.26277 0.74972,-0.65692 1.03087,-1.18246c1.12459,-3.15322 -1.96803,-7.88305 -4.40463,-11.43042c-2.15546,-2.89045 -4.31092,-6.56921 -4.49835,-9.72243c0,-1.57661 0.46858,-2.23353 1.2183,-2.62768z" class="st4"/>
     </g>
     <g >
      <path cursor="pointer" pointer-events="visible"   d="m132.84138,128.55964l23.14774,-12.08734c1.59316,1.44523 3.28004,2.62768 4.87321,3.41599c2.81147,1.44523 5.52922,1.97076 7.49724,1.70799l-23.24146,12.08734c-1.96803,0.39415 -4.59206,-0.26277 -7.49724,-1.70799c-1.59316,-0.7883 -3.18633,-1.97076 -4.77949,-3.41599z" class="st3"/>
     </g>
     <g >
      <path cursor="pointer" pointer-events="visible"   d="m83.82814,96.37053c0.56229,0.65692 1.12459,1.44523 1.59316,2.10215c1.31202,1.97076 2.4366,4.46706 4.49835,6.30644c-0.28115,0.39415 -0.37486,1.05107 -0.37486,1.70799c0,3.2846 2.24917,8.67135 2.24917,11.95596c0,0.65692 -0.09372,1.18246 -0.28115,1.57661c-0.84344,2.4963 -3.74862,1.05107 -5.62293,1.97076c-0.74972,0.52554 -1.03087,1.31384 -1.03087,2.10215c0,1.70799 1.2183,3.94152 2.81147,5.91229c2.71775,3.15322 9.09041,6.56921 8.99669,10.7735c0,0.39415 -0.09372,0.65692 -0.18743,1.05107c-1.03087,4.07291 -8.24697,0.13138 -8.52812,4.59844c0,3.54737 2.9989,6.17505 6.18523,7.75166c1.87431,0.91969 3.56119,1.57661 4.77949,1.83938c0.28115,0.13138 0.56229,0.13138 0.84344,0.13138c0.37486,0.13138 0.56229,0.13138 0.65601,0.13138c0.18743,0 0.37486,0 0.56229,0.13138c0.93716,0.13138 1.7806,0.26277 2.53032,0.52554c0.28115,0.13138 0.46858,0.13138 0.74972,0.26277c1.31202,0.65692 2.24917,1.70799 3.28004,3.41599c1.2183,2.23353 1.59316,4.07291 1.59316,5.91229c0,2.62768 -0.93716,4.86121 -1.96803,6.30644c-0.65601,0.91969 -1.59316,1.31384 -1.7806,2.75907c0,0.26277 -0.09372,0.52554 -0.09372,0.65692c0,4.72983 6.93495,7.09474 9.18412,11.29903c0.46858,0.7883 0.65601,1.57661 0.65601,2.10215c0,2.36491 -3.09261,2.89045 -4.77949,3.02183c-1.31202,0.13138 -2.53032,0.26277 -2.81147,1.83938c0,0.26277 -0.09372,0.52554 -0.09372,0.65692c0,1.97076 1.31202,4.07291 2.81147,6.04367c1.2183,1.70799 2.34289,2.89045 2.24917,4.59844c-0.09372,1.57661 -0.93716,1.83938 -1.49945,2.75907c-0.09372,0.13138 -0.18743,0.26277 -0.28115,0.39415c-1.03087,1.97076 1.12459,4.46706 3.46748,5.7809c0.46858,0.26277 0.65601,0.39415 0.93716,0.39415c2.15546,0.7883 4.96692,1.18246 4.96692,-1.05107c0,-0.39415 -0.09372,-0.7883 -0.28115,-1.44523c-1.03087,-2.89045 -2.90518,-4.72983 -2.81147,-7.22613c0,-0.39415 0.09372,-0.7883 0.18743,-1.18246c0.74972,-3.15322 4.31092,-1.70799 6.93495,-1.83938c2.90518,-0.13138 3.37376,-2.4963 3.37376,-5.7809c0,-1.97076 -0.65601,-4.33568 -0.65601,-6.17505c0,-0.91969 0.18743,-1.83938 0.74972,-2.23353c0.65601,-0.52554 1.40573,-0.52554 2.15546,-0.13138c0.65601,0.39415 0.84344,0.39415 1.03087,0.52554c0.56229,0.39415 1.2183,0.7883 1.87431,1.18246c0.65601,0.39415 1.03087,0.52554 1.40573,0.65692c1.49945,0.52554 2.9989,0.65692 4.40463,0.65692c0.18743,0 0.28115,0 0.46858,0c2.24917,-0.13138 2.9989,-1.70799 2.9989,-3.81014c0,-1.44523 -0.37486,-3.02183 -0.93716,-4.46706c-1.12459,-2.75907 -2.34289,-5.64952 -2.34289,-8.01443c0,-1.44523 0.46858,-2.62768 1.7806,-3.15322c1.2183,-0.65692 2.71775,-0.13138 4.31092,0.39415c0.93716,0.26277 2.34289,1.05107 2.81147,0.26277c0.18743,-0.26277 0.28115,-0.52554 0.28115,-0.7883c0,-1.57661 -2.62404,-3.54737 -3.28004,-5.12398c-0.18743,-0.52554 -0.28115,-1.05107 -0.28115,-1.44523c0,-2.23353 2.4366,-3.15322 3.37376,-4.46706c0.28115,-0.39415 0.37486,-0.91969 0.37486,-1.31384c0,-1.31384 -0.84344,-2.75907 -2.06174,-4.20429c-1.40573,-1.57661 -4.02977,-3.02183 -4.49835,-5.12398c-0.09372,-0.39415 -0.09372,-0.7883 -0.09372,-1.05107c0,-3.02183 4.02977,-2.89045 5.15436,-4.86121c0.46858,-0.91969 0.65601,-1.97076 0.65601,-3.02183c0,-2.23353 -0.74972,-4.86121 -2.06174,-7.22613c2.62404,-0.52554 3.93605,-1.57661 7.68468,0.26277c0.28115,0.13138 0.56229,0.26277 0.84344,0.52554c-0.84344,0.65692 -1.03087,2.36491 -0.84344,3.41599c0.46858,3.02183 4.31092,7.88305 2.06174,9.59104c-1.87431,1.44523 -5.71665,0 -5.52922,4.07291c0.09372,3.15322 2.34289,6.83197 4.49835,9.72243c2.53032,3.41599 5.52922,8.14582 4.40463,11.43042c-1.12459,3.15322 -5.15436,0.13138 -7.2161,1.70799c-1.31202,1.05107 0,3.02183 -0.46858,4.59844c-0.56229,1.97076 -4.2172,-1.83938 -5.52922,-0.65692c-1.7806,1.57661 -1.2183,5.7809 0,9.0655c1.12459,3.02183 1.7806,6.56921 1.96803,9.32827c0.18743,1.97076 -0.09372,3.81014 -1.2183,4.86121c-3.93605,3.54737 -13.40133,-3.02183 -16.11908,2.62768c-2.90518,6.17505 4.40463,16.5544 4.40463,23.91191c0,1.57661 -0.46858,2.62768 -1.59316,3.15322c-1.12459,0.52554 -2.81147,-0.13138 -4.49835,-1.05107c-1.2183,-0.65692 -2.34289,-1.31384 -3.37376,-1.83938c-0.28115,-0.13138 -0.46858,-0.26277 -0.74972,-0.39415c-1.87431,-0.91969 -3.93605,-1.70799 -4.12348,0.65692c-0.09372,1.18246 0.46858,2.89045 -0.09372,3.67876c-0.46858,0.65692 -1.12459,0.52554 -1.7806,0.26277c-0.37486,-0.13138 -0.74972,-0.39415 -1.12459,-0.65692c-0.37486,-0.26277 -0.74972,-0.52554 -1.12459,-0.65692c-0.46858,-0.26277 -0.84344,-0.39415 -1.2183,-0.26277c-0.93716,0.26277 -0.74972,1.70799 -1.31202,2.36491c-0.56229,0.65692 -2.06174,0.13138 -3.56119,-0.65692c-0.74972,-0.39415 -1.49945,-0.91969 -2.24917,-1.31384c-0.74972,-0.39415 -1.31202,-0.7883 -1.7806,-1.05107c-1.49945,-0.7883 -2.90518,-0.7883 -3.93605,-0.13138c-1.59316,1.05107 -1.40573,3.54737 -0.46858,6.17505c1.31202,3.2846 1.68688,7.09474 -0.09372,8.67135c-0.84344,0.7883 -2.34289,0.39415 -3.84234,-0.39415c-1.49945,-0.7883 -2.9989,-1.97076 -4.12348,-3.15322c-1.2183,-1.31384 -2.9989,-4.07291 -2.4366,-5.38675c0.28115,-0.65692 0.84344,-0.39415 1.59316,0c0.28115,0.13138 0.46858,0.26277 0.74972,0.39415c0.28115,0.13138 0.56229,0.26277 0.74972,0.39415c0.56229,0.26277 1.12459,0.52554 1.49945,0.39415c2.15546,-0.7883 -1.59316,-5.7809 -1.59316,-7.62028c0,-1.18246 1.03087,-1.57661 1.40573,-2.4963c1.12459,-2.62768 -2.81147,-7.48889 -4.31092,-10.64211c-1.31202,-2.89045 -2.24917,-5.91229 -1.96803,-8.40858c0.56229,-3.94152 4.12348,-4.46706 7.40353,-4.86121c3.18633,-0.39415 6.56009,-1.57661 7.40353,-5.12398c0.74972,-3.2846 -0.74972,-7.62028 -2.53032,-11.5618c-1.49945,-3.41599 -3.65491,-7.35751 -3.56119,-10.51073c0.09372,-2.89045 2.34289,-3.54737 3.37376,-5.64952c1.7806,-3.67876 -2.62404,-8.93412 -6.56009,-11.43042c-4.12348,-2.75907 -14.80706,-7.35751 -13.96362,-14.32087c0.37486,-3.02183 4.02977,-2.23353 5.15436,-4.33568c1.68688,-3.15322 -2.4366,-7.88305 -5.06064,-11.29903c-2.90518,-4.07291 -6.84124,-9.0655 -3.56119,-11.82457c2.34289,-1.70799 7.2161,2.36491 9.18412,0.65692c3.09261,-2.75907 -2.81147,-8.67135 -5.06064,-11.95596c-3.46748,-6.04367 -2.15546,-10.37935 2.90518,-9.59104z" class="st1"/>
     </g>
     <g >
      <path cursor="pointer" pointer-events="visible"   d="m145.30555,133.55223l23.24146,-12.08734c2.62404,-0.52554 3.93605,-1.57661 7.68468,0.26277c0.28115,0.13138 0.56229,0.26277 0.84344,0.52554l-23.24146,12.08734c-0.28115,-0.13138 -0.56229,-0.39415 -0.84344,-0.52554c-3.74862,-1.83938 -5.06064,-0.65692 -7.68468,-0.26277z" class="st1"/>
     </g>
     <g >
      <path cursor="pointer" pointer-events="visible"   d="m177.82485,135.78576l-23.24146,12.08734c0.18743,-0.13138 0.28115,-0.13138 0.46858,-0.26277c2.24917,-1.83938 -1.59316,-6.70059 -2.06174,-9.59104c-0.18743,-1.05107 0.09372,-2.89045 0.84344,-3.41599l23.24146,-12.08734c-0.84344,0.65692 -1.03087,2.36491 -0.84344,3.41599c0.46858,3.02183 4.31092,7.88305 2.06174,9.59104c-0.18743,0 -0.28115,0.13138 -0.46858,0.26277z" class="st2"/>
     </g>
    </g>
   </g>
   <g >
    <g  class="st0">
     <g >
      <path cursor="pointer" pointer-events="visible"   d="m53.83917,133.15808c1.59316,-0.7883 3.09261,-1.57661 4.68578,-2.36491c-3.18633,1.57661 -2.53032,4.9926 -1.7806,7.09474c0.56229,1.57661 0.46858,2.4963 0.09372,2.62768c-0.09372,0 -0.18743,0.13138 -0.18743,0.13138c-1.49945,0.7883 -2.90518,1.57661 -4.40463,2.23353c0.37486,-0.13138 0.46858,-1.05107 -0.09372,-2.62768c-0.84344,-2.10215 -1.40573,-5.38675 1.68688,-7.09474z" class="st6"/>
     </g>
     <g >
      <path cursor="pointer" pointer-events="visible"   d="m93.38713,194.64585c1.59316,-0.7883 3.09261,-1.57661 4.59206,-2.36491c0.65601,-0.26277 2.06174,-0.26277 3.56119,-1.05107l0,0c-1.49945,0.7883 -3.09261,1.57661 -4.59206,2.36491c-1.59316,0.7883 -2.9989,0.65692 -3.56119,1.05107z" class="st7"/>
     </g>
     <g >
      <path cursor="pointer" pointer-events="visible"   d="m51.96485,131.45009c1.59316,-0.7883 3.09261,-1.57661 4.68578,-2.36491c0.46858,-0.26277 0.93716,-0.39415 1.40573,-0.52554c1.03087,-0.26277 2.06174,-0.52554 2.90518,-0.91969c-1.59316,0.7883 -3.09261,1.57661 -4.68578,2.36491c-0.84344,0.39415 -1.87431,0.65692 -2.90518,0.91969c-0.56229,0.13138 -1.03087,0.39415 -1.40573,0.52554z" class="st7"/>
     </g>
     <g >
      <path cursor="pointer" pointer-events="visible"   d="m60.11811,96.37053c1.59316,-0.7883 3.09261,-1.57661 4.68578,-2.36491c-0.93716,0.52554 -1.7806,1.31384 -2.34289,2.36491c-3.18633,6.30644 -0.28115,14.84641 2.15546,22.07253c1.96803,5.91229 1.59316,9.0655 -1.7806,10.90488c-1.59316,0.7883 -3.09261,1.57661 -4.68578,2.36491c3.37376,-1.70799 3.65491,-4.86121 1.7806,-10.90488c-2.34289,-7.22613 -5.34179,-15.89748 -2.15546,-22.07253c0.56229,-1.18246 1.31202,-1.83938 2.34289,-2.36491z" class="st6"/>
     </g>
     <g >
      <path cursor="pointer" pointer-events="visible"   d="m79.42351,123.82981l4.59206,-2.36491c-0.56229,0.26277 -1.12459,0.65692 -1.68688,1.18246c-7.96582,6.96336 -5.52922,16.81717 -2.15546,23.78053c3.46748,7.09474 10.30871,16.68578 9.6527,24.96298c-0.28115,3.2846 -1.59316,4.9926 -2.81147,5.64952l0,0c-1.59316,0.7883 -3.09261,1.57661 -4.59206,2.36491c1.2183,-0.65692 2.53032,-2.36491 2.81147,-5.64952c0.65601,-8.2772 -6.18523,-17.99962 -9.6527,-24.96298c-3.46748,-7.09474 -5.81036,-16.81717 2.15546,-23.78053c0.46858,-0.39415 1.03087,-0.7883 1.68688,-1.18246z" class="st6"/>
     </g>
     <g >
      <path cursor="pointer" pointer-events="visible"   d="m58.43123,92.95454l4.68578,-2.36491c2.24917,-1.18246 5.34179,-1.44523 8.90298,-0.52554c6.74752,1.57661 11.33958,2.4963 14.15105,1.05107l-4.68578,2.36491c-2.81147,1.44523 -7.40353,0.52554 -14.15105,-1.05107c-3.56119,-0.91969 -6.6538,-0.65692 -8.90298,0.52554z" class="st7"/>
     </g>
     <g >
      <path cursor="pointer" pointer-events="visible"   d="m103.97699,127.37718l4.59206,-2.36491c-5.9978,3.15322 -10.87101,7.88305 -9.74642,18.39378c1.49945,14.0581 12.08931,28.51035 10.02756,40.07216c-1.03087,5.64952 -3.56119,8.67135 -5.9978,9.98519c-1.59316,0.7883 -3.09261,1.57661 -4.68578,2.36491c2.4366,-1.31384 4.96692,-4.20429 5.9978,-9.98519c2.06174,-11.69319 -8.52812,-26.14544 -10.02756,-40.07216c-1.03087,-10.51073 3.84234,-15.24056 9.84013,-18.39378z" class="st6"/>
     </g>
     <g >
      <path cursor="pointer" pointer-events="visible"   d="m77.83035,121.07074c1.59316,-0.7883 3.09261,-1.57661 4.59206,-2.36491c1.87431,-1.05107 4.02977,-1.57661 6.18523,-1.57661c3.74862,0 11.4333,-0.13138 16.11908,-2.62768l0,0c-1.49945,0.7883 -3.09261,1.57661 -4.59206,2.36491c-4.59206,2.36491 -12.27674,2.4963 -16.11908,2.62768c-2.15546,0.13138 -4.31092,0.65692 -6.18523,1.57661z" class="st7"/>
     </g>
     <g >
      <path cursor="pointer" pointer-events="visible"   d="m86.73333,86.12256c0.18743,5.91229 -2.62404,9.0655 -6.18523,9.98519c-5.81036,1.44523 -19.39912,-4.07291 -22.77288,2.4963c-3.18633,6.30644 -0.28115,14.84641 2.15546,22.07253c2.34289,7.22613 1.31202,10.37935 -4.40463,11.82457c-4.96692,1.18246 -4.2172,5.25536 -3.37376,7.62028c0.74972,2.10215 0.37486,3.02183 -0.37486,2.62768c-0.37486,-0.26277 -0.93716,-0.7883 -1.40573,-1.70799c-2.15546,-4.20429 -1.31202,-9.0655 3.09261,-10.11658c4.40463,-1.05107 8.05954,-1.97076 2.53032,-17.73686c-5.52922,-15.63471 0.09372,-23.64914 11.4333,-20.89008c11.33958,2.75907 16.68137,3.41599 17.33738,-5.64952c0,-0.52554 0.09372,-1.18246 0,-1.70799l1.96803,1.18246z" class="st7"/>
     </g>
     <g >
      <polygon  points="84.76529994909652,85.07149505615234 89.35736384045867,82.70657348632812 91.32538917963393,83.62626647949219 86.73332528827177,86.12255859375 " class="st7"/>
     </g>
     <g >
      <path cursor="pointer" pointer-events="visible"   d="m86.92076,93.08592c-1.59316,0.7883 -3.09261,1.57661 -4.68578,2.36491c2.71775,-1.44523 4.59206,-4.33568 4.40463,-9.32827l4.68578,-2.36491c0.18743,4.86121 -1.68688,7.88305 -4.40463,9.32827z" class="st6"/>
     </g>
     <g >
      <path cursor="pointer" pointer-events="visible"   d="m100.22837,126.19472c1.59316,-0.7883 3.09261,-1.57661 4.59206,-2.36491c2.24917,-1.18246 4.96692,-2.23353 8.24697,-3.54737c0.65601,-0.26277 1.2183,-0.52554 1.7806,-0.7883l-4.68578,2.36491c-0.56229,0.26277 -1.12459,0.52554 -1.7806,0.7883c-3.18633,1.18246 -5.90408,2.36491 -8.15325,3.54737z" class="st7"/>
     </g>
     <g >
      <polygon  points="102.10267862980254,94.00560760498047 106.6947425211647,91.64068603515625 109.31877392342176,92.95452880859375 104.63299590160932,95.31945037841797 " class="st7"/>
     </g>
     <g >
      <path cursor="pointer" pointer-events="visible"   d="m106.31988,117.52337l-4.68578,2.36491c2.34289,-1.18246 4.02977,-3.2846 4.49835,-6.83197c0.84344,-6.83197 -0.18743,-13.13841 -1.59316,-17.73686l4.68578,-2.36491c1.31202,4.59844 2.4366,10.90488 1.59316,17.73686c-0.37486,3.54737 -2.15546,5.64952 -4.49835,6.83197z" class="st6"/>
     </g>
     <g >
      <path cursor="pointer" pointer-events="visible"   d="m104.633,95.31945c1.31202,4.59844 2.4366,10.90488 1.59316,17.73686c-1.7806,13.53256 -21.27343,5.51813 -28.48953,11.95596c-7.96582,6.96336 -5.52922,16.81717 -2.15546,23.78053c3.46748,7.09474 10.30871,16.68578 9.6527,24.96298c-0.37486,4.9926 -3.28004,6.43782 -4.68578,5.7809c-0.93716,-0.52554 -1.12459,-1.83938 0.37486,-3.81014c3.84234,-4.86121 1.40573,-10.90488 -2.81147,-18.65655c-4.2172,-7.75166 -8.71555,-15.63471 -8.15325,-23.25499c0.65601,-9.0655 7.02867,-14.32087 13.96362,-14.32087c5.34179,0 18.55568,-0.26277 19.77398,-6.96336c1.2183,-6.70059 -0.09372,-13.40118 -1.68688,-18.52516l2.62404,1.31384z" class="st7"/>
     </g>
     <g >
      <polygon  points="115.50400663215805,100.9689712524414 120.09606337359037,98.60404968261719 121.6892321909645,99.39236450195312 117.00345416915206,101.75728607177734 " class="st7"/>
     </g>
     <g >
      <path cursor="pointer" pointer-events="visible"   d="m116.44116,121.46489c-1.59316,0.7883 -3.09261,1.57661 -4.59206,2.36491c6.84124,-3.54737 6.93495,-9.72243 6.18523,-16.29163c-0.18743,-2.10215 -0.65601,-4.07291 -1.03087,-5.7809l4.59206,-2.36491c0.37486,1.70799 0.84344,3.67876 1.03087,5.7809c0.74972,6.70059 0.65601,12.74426 -6.18523,16.29163z" class="st6"/>
     </g>
     <g >
      <path cursor="pointer" pointer-events="visible"   d="m117.00345,101.75727c0.37486,1.70799 0.84344,3.67876 1.03087,5.7809c0.74972,7.22613 0.56229,13.66395 -7.77839,17.07994c-8.4344,3.41599 -17.52481,7.09474 -15.93165,21.15284c1.49945,14.0581 12.08931,28.51035 10.02756,40.07216c-1.68688,9.85381 -8.05954,11.5618 -10.40243,10.37935c-0.46858,-0.26277 -0.74972,-0.52554 -0.84344,-0.91969c-0.65601,-2.4963 6.27894,1.97076 8.90298,-10.7735c2.4366,-11.82457 -10.12128,-27.19651 -10.68357,-40.86046c-0.46858,-13.00703 4.02977,-16.29163 17.24366,-21.15284c9.93385,-3.67876 8.34068,-13.53256 6.93495,-21.67838l1.49945,0.91969z" class="st7"/>
     </g>
     <g >
      <path cursor="pointer" pointer-events="visible"   d="m129.46762,226.04665c-1.59316,0.7883 -3.09261,1.57661 -4.68578,2.36491c1.2183,-0.65692 2.53032,-2.23353 2.9989,-5.25536c1.2183,-7.48889 -0.93716,-20.23315 -3.93605,-29.69281c-2.9989,-9.45966 -0.28115,-21.02146 5.71665,-31.26942c5.9978,-10.37935 5.06064,-27.72205 0.37486,-40.72908c-2.34289,-6.43782 -2.71775,-11.16765 -2.53032,-14.32087l4.68578,-2.36491c-0.18743,3.15322 0.18743,7.88305 2.53032,14.32087c4.68578,13.00703 5.62293,30.34973 -0.37486,40.72908c-5.9978,10.37935 -8.62183,21.94115 -5.71665,31.26942c2.9989,9.45966 5.06064,22.20392 3.93605,29.69281c-0.56229,2.89045 -1.7806,4.59844 -2.9989,5.25536z" class="st6"/>
     </g>
     <g >
      <path cursor="pointer" pointer-events="visible"   d="m127.40588,107.14402c-0.18743,3.15322 0.18743,7.88305 2.53032,14.32087c4.68578,13.00703 5.62293,30.34973 -0.37486,40.72908c-5.9978,10.37935 -8.62183,21.94115 -5.71665,31.26942c2.9989,9.45966 5.06064,22.20392 3.93605,29.69281c-0.74972,4.72983 -3.56119,6.04367 -4.87321,5.38675c-0.74972,-0.39415 -1.03087,-1.44523 0,-3.02183c4.02977,-6.43782 2.4366,-16.81717 -1.68688,-33.24018c-4.12348,-16.42302 1.96803,-23.38637 7.59096,-35.6051c5.62293,-12.21872 1.40573,-29.03589 -1.96803,-39.94077c-1.49945,-4.72983 -1.7806,-8.14582 -1.59316,-10.64211l2.15546,1.05107z" class="st7"/>
     </g>
     <g >
      <polygon  points="125.25041919758405,105.9615707397461 129.84249023887605,103.59664916992188 131.99793668902203,104.6477279663086 127.40587994758971,107.1440200805664 " class="st7"/>
     </g>
    </g>
    <g  class="st0">
     <g >
      <path cursor="pointer" pointer-events="visible"   d="m148.11702,118.44306c-1.87431,7.09474 -9.6527,13.2698 0.84344,31.92634c11.05844,19.57623 14.52591,27.59067 11.90188,38.62693c-2.81147,11.69319 -16.68137,11.03627 -16.49394,24.56883c0.18743,14.45225 7.12238,18.26239 6.18523,19.839c-0.09372,0.26277 -0.37486,0.26277 -0.65601,0c-2.15546,-1.05107 -7.96582,-10.24796 -7.77839,-21.41561c0.18743,-12.74426 12.74532,-13.13841 16.49394,-23.91191c3.74862,-10.7735 -4.02977,-25.35714 -10.96472,-38.1014c-6.93495,-12.61288 -6.46637,-18.52516 -4.59206,-24.04329c1.2183,-3.67876 3.18633,-5.38675 3.65491,-8.14582c0.18743,0.13138 0.37486,0.26277 0.56229,0.26277c0.28115,0.13138 0.56229,0.26277 0.84344,0.39415z" class="st7"/>
     </g>
     <g >
      <path cursor="pointer" pointer-events="visible"   d="m155.14569,231.03925c0,0 -0.09372,0.13138 -0.09372,0.13138c-0.09372,0.13138 -0.28115,0.13138 -0.46858,0.26277c-0.09372,0 -0.18743,0.13138 -0.18743,0.13138c-0.37486,0.26277 -0.74972,0.39415 -1.12459,0.65692c-0.65601,0.26277 -1.2183,0.65692 -1.87431,0.91969c-0.09372,0 -0.18743,0.13138 -0.18743,0.13138c-0.18743,0.13138 -0.46858,0.26277 -0.65601,0.39415c0.09372,0 0.09372,-0.13138 0.09372,-0.13138c1.03087,-1.57661 -5.9978,-5.38675 -6.18523,-19.839c-0.18743,-13.40118 13.68247,-12.87564 16.49394,-24.56883c2.71775,-11.16765 -0.84344,-19.18208 -11.90188,-38.62693c-10.49614,-18.65655 -2.62404,-24.8316 -0.84344,-31.92634l4.59206,-2.36491c-1.87431,7.09474 -9.6527,13.2698 0.84344,31.92634c11.05844,19.57623 14.52591,27.59067 11.90188,38.62693c-2.81147,11.69319 -16.68137,11.03627 -16.49394,24.56883c0.09372,14.32087 7.12238,18.13101 6.09151,19.70762z" class="st6"/>
     </g>
     <g >
      <path cursor="pointer" pointer-events="visible"   d="m146.71129,117.78614l4.68578,-2.36491c0.18743,0.13138 0.37486,0.26277 0.56229,0.26277c0.28115,0.13138 0.65601,0.26277 0.93716,0.39415l-4.59206,2.36491c-0.28115,-0.13138 -0.65601,-0.26277 -0.93716,-0.39415c-0.28115,-0.13138 -0.46858,-0.13138 -0.65601,-0.26277z" class="st7"/>
     </g>
     <g >
      <polygon  points="153.4588086088388,120.67658996582031 158.14458663065125,118.1802978515625 160.67490390245803,119.494140625 155.9891258806456,121.85903930664062 " class="st7"/>
     </g>
     <g >
      <path cursor="pointer" pointer-events="visible"   d="m179.51173,220.52852c1.12459,2.75907 1.2183,3.94152 0.74972,4.20429l-4.59206,2.36491c0.46858,-0.26277 0.37486,-1.44523 -0.74972,-4.20429c-3.65491,-8.93412 -1.03087,-12.21872 3.37376,-15.37194c4.40463,-3.15322 9.09041,-6.30644 8.80926,-14.32087c-0.37486,-9.59104 -6.37266,-21.41561 -13.30761,-28.77312c-5.24807,-5.64952 -18.27453,-19.839 -19.21169,-27.72205c-0.84344,-6.70059 0.18743,-11.5618 1.59316,-14.84641l4.59206,-2.36491c-1.40573,3.2846 -2.34289,8.14582 -1.59316,14.84641c0.93716,7.75166 13.96362,21.94115 19.21169,27.72205c6.84124,7.48889 12.93275,19.31347 13.30761,28.77312c0.28115,8.01443 -4.40463,11.16765 -8.80926,14.32087c-4.40463,3.15322 -7.02867,6.56921 -3.37376,15.37194z" class="st6"/>
     </g>
     <g >
      <path cursor="pointer" pointer-events="visible"   d="m155.98913,121.85905c-1.40573,3.2846 -2.34289,8.14582 -1.59316,14.84641c0.93716,7.75166 13.96362,21.94115 19.21169,27.72205c6.84124,7.48889 12.93275,19.31347 13.30761,28.77312c0.28115,8.01443 -4.40463,11.16765 -8.80926,14.32087c-4.40463,3.15322 -7.02867,6.43782 -3.37376,15.37194c1.40573,3.54737 1.12459,4.59844 0.28115,4.20429c-1.40573,-0.65692 -4.2172,-5.25536 -4.40463,-10.64211c-0.37486,-8.93412 6.6538,-11.16765 10.30871,-14.45225c3.56119,-3.2846 6.27894,-10.51073 -1.31202,-25.6199c-6.93495,-13.92672 -26.33407,-26.53959 -27.64609,-41.64877c-0.56229,-6.43782 0.28115,-11.03627 1.40573,-14.0581l2.62404,1.18246z" class="st7"/>
     </g>
     <g >
      <polygon  points="162.45549383080288,125.27503204345703 167.04756487209488,122.77873992919922 169.20302562210054,123.96118927001953 164.5172476002881,126.32611083984375 " class="st7"/>
     </g>
     <g >
      <path cursor="pointer" pointer-events="visible"   d="m221.30887,215.53592c-1.59316,0.7883 -3.09261,1.57661 -4.68578,2.36491c1.12459,-0.52554 2.06174,-2.23353 1.59316,-5.7809c-0.93716,-8.14582 -8.99669,-11.16765 -7.02867,-21.15284c1.96803,-9.98519 0.37486,-17.21132 -11.24587,-24.04329c-14.80706,-8.80274 -35.04962,-20.75869 -35.42448,-40.59769l4.59206,-2.36491c0.37486,19.97039 20.61742,31.79496 35.42448,40.59769c11.71445,6.96336 13.21389,14.0581 11.24587,24.04329c-1.96803,9.98519 6.09151,13.00703 7.02867,21.15284c0.46858,3.54737 -0.46858,5.25536 -1.49945,5.7809z" class="st6"/>
     </g>
     <g >
      <path cursor="pointer" pointer-events="visible"   d="m164.51724,126.32611c0.37486,19.97039 20.61742,31.79496 35.42448,40.59769c11.62073,6.96336 13.21389,14.0581 11.24587,24.04329c-1.96803,9.98519 6.09151,13.00703 7.02867,21.15284c0.65601,5.51813 -2.15546,6.56921 -3.56119,5.7809c-0.84344,-0.39415 -1.31202,-1.57661 -0.18743,-2.4963c4.49835,-4.33568 -2.71775,-10.64211 -4.68578,-14.97779c-3.84234,-8.67135 2.34289,-14.58364 -1.12459,-21.80976c-5.52922,-11.29903 -19.02426,-12.21872 -33.08159,-26.53959c-9.55899,-9.72243 -12.6516,-19.31347 -13.12018,-26.93375l2.06174,1.18246z" class="st7"/>
     </g>
    </g>
   </g>
   <g >
    <g >
     <g  class="st0">
      <g >
       <path cursor="pointer" pointer-events="visible"   d="m33.12803,85.59703c15.46307,-8.01443 30.92613,-16.02886 46.3892,-24.17468c0.18743,-0.13138 0.37486,-0.13138 0.65601,-0.13138c1.59316,0.13138 3.28004,0.13138 4.40463,-0.39415l-46.3892,24.17468c-1.12459,0.52554 -2.71775,0.52554 -4.40463,0.39415c-0.28115,0 -0.46858,0.13138 -0.65601,0.13138z" class="st8"/>
      </g>
      <g >
       <path cursor="pointer" pointer-events="visible"   d="m188.41471,118.70583c-15.46307,8.01443 -30.92613,16.02886 -46.3892,24.17468c0.46858,-0.26277 0.28115,-0.7883 -0.65601,-1.70799c-4.68578,-4.33568 -9.46527,-9.98519 -1.12459,-14.32087l46.3892,-24.17468c-8.4344,4.33568 -3.56119,9.85381 1.12459,14.18949c0.93716,1.05107 1.12459,1.57661 0.65601,1.83938z" class="st9"/>
      </g>
      <g >
       <path cursor="pointer" pointer-events="visible"   d="m40.71899,29.49601l46.3892,-24.17468c8.4344,-4.46706 22.21059,-3.81014 42.92173,6.96336c1.40573,0.65692 2.81147,1.44523 4.2172,2.23353l-46.3892,24.17468c-1.40573,-0.7883 -2.81147,-1.57661 -4.2172,-2.23353c-20.71114,-10.64211 -34.48733,-11.29903 -42.92173,-6.96336z" class="st10"/>
      </g>
      <g >
       <path cursor="pointer" pointer-events="visible"   d="m87.85791,38.6929l46.3892,-24.17468c1.40573,0.65692 2.81147,1.44523 4.2172,2.10215l-46.3892,24.17468c-1.40573,-0.65692 -2.81147,-1.31384 -4.2172,-2.10215z" class="st10"/>
      </g>
      <g >
       <path cursor="pointer" pointer-events="visible"   d="m92.07511,40.79504c56.69791,29.29866 60.72768,79.61878 48.26351,86.0566c-8.4344,4.33568 -3.56119,9.85381 1.12459,14.32087c2.34289,2.23353 -0.28115,2.4963 -4.87321,0.13138c-1.40573,-0.65692 -2.90518,-1.70799 -4.59206,-2.89045c-1.49945,-1.18246 -2.81147,-1.97076 -3.84234,-2.4963c-3.84234,-1.97076 -5.15436,-0.65692 -7.87211,-0.26277c-1.96803,0.39415 -4.59206,-0.26277 -7.49724,-1.70799c-2.15546,-1.18246 -4.49835,-2.89045 -6.6538,-5.12398c-1.49945,-1.57661 -2.81147,-2.62768 -4.2172,-3.2846c-3.28004,-1.70799 -6.37266,-1.57661 -9.74642,-2.23353c-1.49945,-0.26277 -2.9989,-0.91969 -4.49835,-1.70799c-1.96803,-1.05107 -3.74862,-2.23353 -4.77949,-3.02183c-3.37376,-2.75907 -6.46637,-6.17505 -9.74642,-7.88305c-1.31202,-0.65692 -2.71775,-1.05107 -4.2172,-1.05107c-2.15546,0 -4.40463,-0.65692 -6.6538,-1.70799c-2.81147,-1.44523 -5.52922,-3.67876 -7.49724,-6.04367c-2.71775,-3.2846 -4.02977,-5.91229 -7.87211,-7.88305c-1.03087,-0.52554 -2.34289,-1.05107 -3.84234,-1.44523c-1.68688,-0.52554 -3.18633,-1.18246 -4.59206,-1.83938c-4.49835,-2.36491 -7.2161,-5.38675 -4.87321,-5.12398c4.68578,0.52554 9.55899,-0.13138 1.2183,-13.00703c-12.46417,-19.31347 -8.15325,-65.29791 48.63838,-35.99925c1.40573,0.65692 2.81147,1.44523 4.2172,2.23353c1.59316,0.65692 2.9989,1.31384 4.40463,1.97076z" class="st11"/>
      </g>
      <g >
       <path cursor="pointer" pointer-events="visible"   d="m92.07511,40.79504l46.3892,-24.17468c56.69791,29.29866 60.72768,79.61878 48.26351,86.0566l-46.3892,24.17468c12.46417,-6.30644 8.4344,-56.62656 -48.26351,-86.0566z" class="st10"/>
      </g>
     </g>
    </g>
    <g >
     <path cursor="pointer" pointer-events="visible"   d="m73.14457,97.29021c0,0 0.09372,0.52554 0.28115,1.44523c0.18743,0.91969 0.56229,2.36491 1.2183,4.07291c0.65601,1.70799 1.59316,3.67876 2.9989,5.51813c0.65601,0.91969 1.49945,1.83938 2.34289,2.4963c0.84344,0.7883 1.7806,1.44523 2.71775,1.83938l0.18743,0.13138l0,0c0,0 0,0 0,0l0.09372,0l0.37486,0.13138l0.74972,0.26277c0.09372,0 0.28115,0.13138 0.37486,0.13138l0.37486,0.13138l0.65601,0.13138c0.09372,0 0.18743,0.13138 0.37486,0.13138l0.28115,0c0.18743,0 0.46858,0 0.65601,0.13138c0.37486,0 0.74972,0 1.2183,0c0.37486,-0.13138 0.65601,-0.13138 1.03087,-0.26277c0.28115,-0.13138 0.65601,-0.26277 0.84344,-0.52554c0.56229,-0.39415 0.93716,-0.7883 1.31202,-1.31384c0.18743,-0.26277 0.37486,-0.52554 0.46858,-0.65692c0.09372,-0.26277 0.28115,-0.52554 0.37486,-0.65692c0.18743,-0.39415 0.37486,-0.91969 0.46858,-1.31384c0.18743,-0.7883 0.28115,-1.18246 0.28115,-1.18246s0,0.52554 -0.18743,1.31384c-0.09372,0.39415 -0.18743,0.7883 -0.37486,1.31384c-0.18743,0.52554 -0.37486,1.05107 -0.74972,1.57661c-0.28115,0.52554 -0.74972,1.05107 -1.2183,1.44523c-0.28115,0.26277 -0.56229,0.39415 -0.84344,0.52554c-0.37486,0.13138 -0.65601,0.26277 -1.03087,0.39415c-0.37486,0 -0.84344,0.13138 -1.2183,0.13138c-0.18743,0 -0.46858,0 -0.65601,-0.13138l-0.37486,0c-0.09372,0 -0.28115,0 -0.37486,-0.13138l-0.74972,-0.26277l-0.37486,-0.13138c-0.09372,0 -0.28115,-0.13138 -0.37486,-0.13138l-0.74972,-0.26277l-0.37486,-0.13138l-0.09372,0l-0.09372,0l0,0l-0.18743,-0.13138c-1.03087,-0.52554 -1.96803,-1.18246 -2.90518,-2.10215c-0.93716,-0.7883 -1.7806,-1.83938 -2.53032,-2.75907c-1.49945,-1.97076 -2.34289,-4.07291 -2.9989,-5.7809c-0.56229,-1.70799 -0.84344,-3.15322 -1.03087,-4.07291c-0.18743,-0.7883 -0.18743,-1.31384 -0.18743,-1.31384z" class="st12"/>
     <g >
      <g >
       <g >
        <path cursor="pointer" pointer-events="visible"   d="m102.8524,84.67734c0,5.12398 -1.96803,8.2772 -4.40463,6.96336c-2.4366,-1.31384 -4.40463,-6.43782 -4.40463,-11.5618c0,-5.12398 1.96803,-8.2772 4.40463,-6.96336c2.4366,1.31384 4.40463,6.43782 4.40463,11.5618z"/>
       </g>
       <path cursor="pointer" pointer-events="visible"   d="m104.53928,103.33388c0,1.44523 -2.71775,1.18246 -6.09151,-0.52554c-3.37376,-1.70799 -6.09151,-4.33568 -6.09151,-5.7809c0,-1.44523 2.71775,-1.18246 6.09151,0.52554c3.37376,1.70799 6.09151,4.33568 6.09151,5.7809z" class="st13"/>
      </g>
      <path cursor="pointer" pointer-events="visible"   d="m97.79176,78.23952c0,1.31384 -0.46858,2.10215 -1.12459,1.83938c-0.65601,-0.26277 -1.12459,-1.70799 -1.12459,-3.02183c0,-1.31384 0.46858,-2.10215 1.12459,-1.83938c0.56229,0.39415 1.12459,1.70799 1.12459,3.02183z" class="st14"/>
     </g>
     <g >
      <g >
       <g >
        <path cursor="pointer" pointer-events="visible"   d="m71.55141,68.51709c0,5.12398 -1.96803,8.2772 -4.40463,6.96336c-2.4366,-1.31384 -4.40463,-6.43782 -4.40463,-11.5618c0,-5.12398 1.96803,-8.2772 4.40463,-6.96336c2.34289,1.18246 4.40463,6.43782 4.40463,11.5618z"/>
       </g>
       <path cursor="pointer" pointer-events="visible"   d="m73.14457,87.17364c0,1.44523 -2.71775,1.18246 -6.09151,-0.52554c-3.37376,-1.70799 -6.09151,-4.33568 -6.09151,-5.7809c0,-1.44523 2.71775,-1.18246 6.09151,0.52554c3.37376,1.70799 6.09151,4.33568 6.09151,5.7809z" class="st13"/>
      </g>
      <path cursor="pointer" pointer-events="visible"   d="m66.39705,62.07927c0,1.31384 -0.46858,2.10215 -1.12459,1.83938c-0.65601,-0.26277 -1.12459,-1.70799 -1.12459,-3.02183c0,-1.31384 0.46858,-2.10215 1.12459,-1.83938c0.65601,0.39415 1.12459,1.70799 1.12459,3.02183z" class="st14"/>
     </g>
    </g>
   </g>
  </g>
 </g>
</svg>
