<?xml version="1.0" encoding="utf-8"?>
<!-- Generator: Adobe Illustrator 22.1.0, SVG Export Plug-In . SVG Version: 6.00 Build 0)  -->
<svg version="1.1" id="Layer_1" xmlns="http://www.w3.org/2000/svg" xmlns:xlink="http://www.w3.org/1999/xlink" x="0px" y="0px"
	 viewBox="0 0 250 250" style="enable-background:new 0 0 250 250;" xml:space="preserve">
 <g class="layer">
  <title>Layer 1</title>
  <g >
   <g class="st0" id="Layer_1_1_">
    <polygon  points="250,188.43348034977316 126.5999984741211,263.99997232974783 0.4000000059604645,188.43348034977316 125.19999694824219,112.86699622284686 " class="st1"/>
    <g  class="st2">
     <g  class="st3">
      <polygon  points="105.4000015258789,139.70820511485726 124,151.0734194305296 105.4000015258789,162.31769680125217 86.80000305175781,150.95251389777331 " class="st4"/>
      <polygon  points="61,174.65017108507163 72.0999984741211,181.30002250495818 60.900001525878906,188.19166928426057 49.79999923706055,181.30002250495818 " class="st4"/>
      <polygon  points="145.89999389648438,150.83159265892027 157,157.60236531765986 145.89999389648438,164.2522167375464 134.8000030517578,157.60236531765986 " class="st4"/>
      <polygon  points="212.8000030517578,179.60731363417653 224.10000610351562,186.25716505406308 212.8000030517578,193.02793771280267 201.6999969482422,186.25716505406308 " class="st4"/>
      <polygon  points="130.8000030517578,235.34515688724787 141.8000030517578,242.1159138398907 130.60000610351562,248.76576525977725 119.5,242.1159138398907 " class="st4"/>
      <polygon  points="127.69999694824219,199.79867895934876 135.89999389648438,204.75585292064716 127.69999694824219,209.5921056430925 119.5,204.75585292064716 " class="st5"/>
     </g>
    </g>
    <g >
     <path  d="m126.6,-36.33147l123.4,74.59924l0,149.44028l-123.4,74.72014l-123.4,-74.72014l0,-149.44028l123.4,-74.59924m0,-1.8136l-124.8,75.56649l0,151.01207l124.8,75.56649l124.8,-75.56649l0,-151.01207l-124.8,-75.56649l0,0z" class="st6"/>
    </g>
    <path  d="m9,160.62502" class="st1"/>
    <path  d="m8,185.04811c-6.2,-4.35263 -4.5,-20.43318 -1.9,-21.15862c3,-0.84634 11.1,17.53143 7.9,21.64224c-1.4,1.45088 -4.3,0.60453 -6,-0.48363z" class="st1"/>
    <path  d="m21,178.51916c-5.8,-3.50629 -3.1,-22.85131 -1,-23.21402c2.2,-0.24181 5.5,19.46593 6.1,19.22411c0.6,-0.12091 -3.6,-15.35511 -1.3,-16.68508c1.9,-1.08816 9.2,5.92441 7.9,13.05789c-0.7,3.7481 -3.6,6.40804 -6.1,7.37529c-0.8,0.48363 -3.5,1.57178 -5.6,0.24181z" class="st1"/>
    <path  d="m40,166.54943c-3.9,-3.02266 -1,-15.47602 0.6,-15.59692c1.7,-0.12091 3.7,12.45336 4.5,12.21154c0.6,-0.12091 -1.2,-7.37529 0.6,-8.58435c1.5,-0.96725 5.2,1.8136 5.3,4.71535c0.3,4.23172 -7.5,9.91432 -11,7.25438z" class="st1"/>
    <path  d="m57.1,156.39329c-2.9,-1.9345 -4.5,-6.89166 -3.5,-8.22163c0.6,-0.84634 2.3,0.24181 2.7,-0.60453c0.9,-1.57178 -3.6,-7.37529 -3.5,-7.37529c0.1,-0.12091 4.1,6.52894 6,5.6826c1.2,-0.60453 0.7,-3.7481 1.9,-4.23172c1.3,-0.48363 2.5,2.65994 4,2.29722c1.7,-0.36272 1.6,-4.59444 3.2,-4.83626c1.3,-0.24181 2.7,2.41813 2.9,2.90175c1,2.05541 1.2,4.35263 1,6.04532c-1,6.28713 -9.8,11.60701 -14.7,8.34254z" class="st1"/>
    <path  d="m75.3,136.56465c-1,0.36272 -1.8,5.92441 0.2,7.97982c3,3.14357 13.3,-1.57178 13.5,-7.37529c0.1,-3.38538 -3.3,-6.04532 -3.5,-6.28713c-3,-2.29722 -6.9,-1.9345 -7.1,-0.96725c-0.3,1.20906 6.4,4.35263 6.1,5.07807c-0.2,0.60453 -3.8,-1.45088 -5.3,0.36272c-1,1.20906 -0.4,3.26447 -1.1,3.50629c-1,0.36272 -2,-2.53903 -2.8,-2.29722z" class="st1"/>
    <path  d="m93.3,134.75105c-2.8,-0.36272 -5,-11.24429 -3.5,-12.21154c1.4,-0.96725 7.4,5.44079 6.1,9.67251c-0.4,1.32997 -1.5,2.65994 -2.6,2.53903z" class="st1"/>
    <path  d="m99.9,129.67298c-3.9,-1.20906 -4.9,-13.2997 -3.1,-14.38786c1.9,-1.08816 8.8,7.6171 7.1,12.09064c-0.6,1.69269 -2.5,2.78085 -4,2.29722z" class="st1"/>
    <path  d="m109.1,123.86948c-3.1,-3.38538 -3.7,-9.30979 -2.7,-9.91432c1.4,-0.96725 6.8,7.97982 7.7,7.25438c0.7,-0.60453 -2.7,-6.52894 -1.1,-8.58435c0.9,-1.20906 2.6,0 3.7,-1.32997c1.5,-1.8136 0.1,-5.80351 0.6,-6.04532s1.5,4.11082 2.9,4.11082c1.7,0 2.3,-6.52894 4.2,-6.64985c1.1,0 2,2.05541 2.3,2.53903c1.2,2.53903 0.5,5.07807 1,5.19897c0.7,0.24181 1.9,-4.83626 2.6,-4.71535c0.5,0.12091 0.4,3.14357 0,5.6826c-0.1,0.48363 -0.3,1.45088 -1.3,5.07807c-0.7,2.29722 -1.1,3.7481 -1.3,4.23172c-2,5.07807 -13.2,9.06798 -18.6,3.14357z" class="st1"/>
    <path  d="m130.2,119.15413c2.8,-6.77076 8.1,-12.69517 9.7,-11.48611c0.7,0.48363 0.5,2.29722 0.3,3.26447c-0.8,6.28713 -6,10.27704 -5.8,10.51886s6.8,-7.01257 8.4,-5.6826c0.9,0.72544 -0.1,3.98991 -0.6,5.44079c-0.2,0.60453 -1.1,2.65994 -2.9,4.11082c-3.4,2.65994 -8.9,1.8136 -10,-1.20906c-0.3,-0.24181 -0.6,-1.45088 0.9,-4.95716z" class="st1"/>
    <path  d="m144.3,127.13395c1.8,-5.07807 4.6,-7.85891 5.3,-8.58435c3.3,-3.26447 7.6,-4.95716 8,-4.11082c0.8,1.45088 -10.8,8.34254 -9.8,14.75058c0.6,3.869 5.7,7.01257 9,5.80351c1.2,-0.48363 2.4,-2.05541 4.7,-5.19897c3.1,-4.35263 3.3,-5.80351 5.5,-7.37529c2.3,-1.69269 5,-2.29722 5.3,-1.57178c0.6,1.20906 -5.1,5.92441 -4.5,7.01257c0.5,1.08816 5.8,-1.9345 6.1,-1.20906c0.4,0.84634 -5.8,5.31988 -5.3,6.40804c0.4,1.08816 6.6,-2.41813 7.6,-0.60453c0.5,0.96725 -0.8,3.14357 -1.8,4.71535c-3,4.83626 -5.9,6.04532 -5.6,6.77076c0.4,1.20906 8.1,1.45088 14.5,-3.869c4.5,-3.7481 6.6,-8.94707 8,-8.22163c0.9,0.48363 0.9,2.90175 0.6,4.47354c-0.6,3.62719 -3.3,5.56169 -3.1,6.04532c0.4,0.60453 4.8,-2.78085 5.2,-2.17631c0.3,0.48363 -2.2,2.53903 -4.2,6.64985c-0.9,1.69269 -2.7,5.31988 -1.8,6.64985s4.3,-0.36272 10.8,-3.7481c4.5,-2.29722 7.3,-3.98991 7.6,-3.50629c0.5,0.96725 -9.7,7.4962 -8.7,12.45336c0.5,2.53903 4,4.71535 6.6,3.869c3.4,-0.96725 3.5,-6.52894 7.2,-7.6171c2.1,-0.60453 4.5,0.48363 4.7,1.57178c0.2,1.20906 -2.2,1.8136 -4.3,5.07807c-1.6,2.53903 -2.7,6.04532 -1.9,6.77076c0.7,0.72544 2.8,-1.57178 8.5,-4.71535c4,-2.17631 4.7,-1.9345 5,-1.57178c0.7,0.96725 -1.2,4.23172 -1.4,4.71535c-2.4,4.23172 -5.3,5.07807 -5.2,5.80351c0.3,1.20906 8.6,1.8136 14.8,-3.869c4.4,-3.98991 5.9,-9.4307 6.9,-8.94707c0.9,0.48363 0.4,5.07807 -0.6,8.58435c-0.7,2.29722 -1.6,4.11082 -1.4,4.23172c0.2,0.24181 1.5,-2.65994 4.2,-4.47354c1.4,-0.96725 3.4,-1.8136 3.9,-1.20906c0.4,0.72544 -1.2,2.17631 -1.9,5.6826c-0.5,2.29722 -0.5,4.83626 0,5.07807s1.1,-2.17631 3.4,-4.11082c1.3,-1.08816 3.3,-2.29722 3.9,-1.57178c0.6,0.72544 -1.2,2.53903 -1.5,6.28713c-0.3,3.7481 1.3,5.56169 0.3,7.6171c-0.7,1.32997 -2,1.8136 -2.6,1.9345c-12.3,3.869 -39.1,-13.05789 -39.1,-13.05789c-34.4,-21.76315 -62.2,-18.8614 -64.2,-33.49107c-1.1,-7.25438 1.3,-14.14605 1.3,-14.14605z" class="st1"/>
   </g>
   <g id="Layer_2_1_"/>
   <radialGradient transform="translate(-23.799999237060547,-156.57424926757812) scale(1) translate(23.799999237060547,156.57424926757812) translate(-23.799999237060547,250) scale(1,1.174629807472229) translate(23.799999237060547,-250) translate(-23.799999237060547,-193.74124145507812) scale(1,1.0293147563934326) translate(23.799999237060547,193.74124145507812) " gradientUnits="userSpaceOnUse" gradientTransform="matrix(1 0 0 0.6656 0 75.2076)" r="67.4061" cy="114.9274" cx="77.9553" id="SVGID_1_slug">
    <stop stop-color="#E0B6A5" offset="0"/>
    <stop stop-color="#DFB5A2" offset="0.2686"/>
    <stop stop-color="#DEB197" offset="0.4925"/>
    <stop stop-color="#DAAB86" offset="0.7004"/>
    <stop stop-color="#D6A36E" offset="0.8974"/>
    <stop stop-color="#D39D5E" offset="1"/>
   </radialGradient>
   <path  d="m80.7,82.76131c0,0 24.1,20.55408 0,38.08551s-75.2,20.31227 -45.9,67.58667s0,0 0,0l5.7,-29.98478l26.5,-14.50877l43,-20.55408l19.9,-26.23668l-6.6,-16.32236l-42.6,1.9345z" class="st7"/>
   <radialGradient transform="translate(-23.799999237060547,-156.57424926757812) scale(1) translate(23.799999237060547,156.57424926757812) translate(-23.799999237060547,250) scale(1,1.174629807472229) translate(23.799999237060547,-250) translate(-23.799999237060547,-193.74124145507812) scale(1,1.0293147563934326) translate(23.799999237060547,193.74124145507812) " gradientUnits="userSpaceOnUse" gradientTransform="matrix(1 0 0 3.9936 0 -245.55)" r="109.6189" cy="96.3826" cx="115.5221" id="SVGID_2_slug">
    <stop stop-color="#A37182" offset="0"/>
    <stop stop-color="#9E6882" offset="0.1103"/>
    <stop stop-color="#914E82" offset="0.2932"/>
    <stop stop-color="#873A82" offset="0.4136"/>
    <stop stop-color="#873A5F" offset="0.9944"/>
   </radialGradient>
   <path  d="m29.9,185.65264c0,0 -13.2,-34.70013 54.9,-54.04515c0,0 36.2,-6.28713 37.4,-44.49355c0,0 -27.7,18.8614 -49,-8.58435c0,0 -12.3,-20.19137 4.7,-36.15101c0,0 37.4,-27.44575 71.9,-9.5516c0,0 9.5,3.02266 14.9,13.54151c0,0 30.7,39.53639 -36,80.64456c0,0 -70.5,30.46841 -13.7,61.29953c13.5,3.62719 30.5,-0.60453 30.5,-0.60453c25.5,-11.00248 11.8,-19.82865 11.8,-19.82865c-6.6,-2.29722 -12.3,2.65994 -12.3,2.65994c-8.5,6.04532 -1.4,16.32236 -0.5,19.82865c0.9,3.38538 -2.1,6.89166 -2.1,6.89166l-5,-17.16871c0,-12.93698 17.5,-15.95964 17.5,-15.95964c36.4,-3.02266 40.7,12.93698 40.7,12.93698c17,20.55408 -4.5,31.43566 -4.5,31.43566s-7.6,3.7481 1.9,10.27704s-13.7,5.6826 -13.7,5.6826s-15.1,-4.95716 -20.8,3.02266c-5.7,7.97982 -27.4,0 -27.4,0s-7.6,-5.6826 -25.1,3.38538c-17.5,9.18888 -27,-8.34254 -27,-8.34254s-1.4,-10.63976 -23.2,-7.97982c0,0 -15.4,4.35263 -13.5,-12.69517c0,0 1.7,-4.83626 -3.2,-6.77076c0.1,0 -9,-2.29722 -9.2,-9.4307z" class="st8"/>
   <radialGradient transform="translate(-23.799999237060547,-156.57424926757812) scale(1) translate(23.799999237060547,156.57424926757812) translate(-23.799999237060547,250) scale(1,1.174629807472229) translate(23.799999237060547,-250) translate(-23.799999237060547,-193.74124145507812) scale(1,1.0293147563934326) translate(23.799999237060547,193.74124145507812) " gradientUnits="userSpaceOnUse" gradientTransform="matrix(1 0 0 0.6656 0 75.2076)" r="51.5023" cy="160.5388" cx="166.852" id="SVGID_3_slug">
    <stop stop-color="#CC9A88" offset="0"/>
    <stop stop-color="#CB9986" offset="0.4087"/>
    <stop stop-color="#C9967E" offset="0.6099"/>
    <stop stop-color="#C59171" offset="0.7657"/>
    <stop stop-color="#C08B5F" offset="0.8974"/>
    <stop stop-color="#BA834A" offset="1"/>
   </radialGradient>
   <path  d="m189.5,208.38304l5.7,-4.23172c1.4,-0.36272 3.8,-4.23172 3.8,-4.23172c7.6,-15.2342 -6,-23.45584 -6,-23.45584c-20.7,-17.41052 -42.7,-9.67251 -42.7,-9.67251c-17.5,5.31988 -9.5,18.61958 -9.5,18.61958s5.2,12.57426 0,12.57426c-5.2,0 -12.8,-4.23172 -12.8,-4.23172c-7.6,-8.34254 -19.9,-24.78581 -8.5,-29.25934c11.4,-4.59444 10.4,-11.84883 10.4,-11.84883s1.4,-12.93698 12.8,-5.31988c11.4,7.6171 23.7,-6.52894 23.7,-6.52894s16.6,-2.29722 18.9,8.34254c2.4,10.63976 13.2,6.89166 13.2,6.89166c27.9,-1.57178 18.9,5.31988 18.9,5.31988s-9,7.25438 -3.8,12.93698c5.2,5.6826 3.3,12.21154 3.3,12.21154s-0.9,10.27704 -25.1,25.14853c0,0 -4.3,2.65994 0.9,5.6826c0,0 5.2,3.62719 1.4,5.44079c0,0 2.9,-2.78085 -2.3,-4.35263c0.1,0.24181 -7.5,-2.41813 -2.3,-10.03523z" class="st9"/>
   <linearGradient transform="translate(-23.799999237060547,-156.57424926757812) scale(1) translate(23.799999237060547,156.57424926757812) translate(-23.799999237060547,250) scale(1,1.174629807472229) translate(23.799999237060547,-250) translate(-23.799999237060547,-193.74124145507812) scale(1,1.0293147563934326) translate(23.799999237060547,193.74124145507812) " gradientTransform="matrix(0.4474 -0.5951 0.5727 0.4305 -123.3268 -135.4377)" y2="173.559" x2="64.3022" y1="145.2102" x1="139.6714" gradientUnits="userSpaceOnUse" id="SVGID_4_slug">
    <stop stop-color="#FFFFFF" offset="0"/>
    <stop stop-color="#FFDCE9" stop-opacity="0.9169" offset="0.08311"/>
    <stop stop-color="#FFBED6" stop-opacity="0.8273" offset="0.1727"/>
    <stop stop-color="#FFA5C7" stop-opacity="0.7278" offset="0.2722"/>
    <stop stop-color="#FF92BB" stop-opacity="0.6165" offset="0.3835"/>
    <stop stop-color="#FF85B2" stop-opacity="0.4868" offset="0.5132"/>
    <stop stop-color="#FF7DAD" stop-opacity="0.3214" offset="0.6786"/>
    <stop stop-color="#FF7BAC" stop-opacity="0" offset="1"/>
   </linearGradient>
   <path  d="m49.7,-188.55261c0,-11.3652 -10.5,-28.53391 -10.5,-28.53391c-23.2,-23.09312 -51,-0.84634 -51,-0.84634c-2,1.69269 -12,10.88157 -12,10.88157c21.7,-11.3652 22.9,-10.88157 22.9,-10.88157s20.4,-8.34254 34.8,18.13596c0,0 8,16.20145 7.9,54.40787c0,-0.12091 10.9,-29.50116 7.9,-43.16358z" class="st10"/>
   <path  d="m164.4,49.63296c-8.6,-13.1788 -18.3,-20.55408 -39.7,-20.55408s-50.1,12.81608 -50.1,27.80847c0,0 -4.3,33.12835 29.8,33.49107l38.3,-13.78333c0,0 8,13.66242 -3.3,30.46841c-11.4,16.80599 11.8,0 11.8,0s27.9,-34.94194 13.2,-57.43053z" class="st11"/>
   <linearGradient transform="translate(-23.799999237060547,-156.57424926757812) scale(1) translate(23.799999237060547,156.57424926757812) translate(-23.799999237060547,250) scale(1,1.174629807472229) translate(23.799999237060547,-250) translate(-23.799999237060547,-193.74124145507812) scale(1,1.0293147563934326) translate(23.799999237060547,193.74124145507812) " y2="-74.4693" x2="33.9983" y1="-112.3149" x1="-3.8473" gradientUnits="userSpaceOnUse" id="SVGID_5_slug">
    <stop stop-color="#000000" offset="0"/>
    <stop stop-color="#391B26" stop-opacity="0.798" offset="0.202"/>
    <stop stop-color="#A24E6D" stop-opacity="0.4024" offset="0.5976"/>
    <stop stop-color="#E56E9A" stop-opacity="0.1281" offset="0.8719"/>
    <stop stop-color="#FF7BAC" stop-opacity="0" offset="1"/>
   </linearGradient>
   <path  d="m-17.8,-157.23785c0,0 7.1,13.1788 30.4,-1.8136c0,0 30.7,-16.80599 33.7,-35.30466c0,0 13.1,31.67747 -16.5,71.09295c0,0 -49.5,35.78829 -45.3,9.91432l0.7,-6.77076c0,0 9,-20.7959 -3,-37.11826z" class="st12"/>
   <linearGradient transform="translate(-23.799999237060547,-156.57424926757812) scale(1) translate(23.799999237060547,156.57424926757812) translate(-23.799999237060547,250) scale(1,1.174629807472229) translate(23.799999237060547,-250) translate(-23.799999237060547,-193.74124145507812) scale(1,1.0293147563934326) translate(23.799999237060547,193.74124145507812) " y2="58.258" x2="175.7954" y1="58.258" x1="123.3345" gradientUnits="userSpaceOnUse" id="SVGID_6_slug">
    <stop stop-color="#943777" offset="0.00049"/>
    <stop stop-color="#9A4E7B" offset="0.319"/>
    <stop stop-color="#A16880" offset="0.7437"/>
    <stop stop-color="#A37182" offset="1"/>
   </linearGradient>
   <path  d="m142.4,38.63048c8.7,-2.29722 17.5,-8.58435 18.8,-9.5516c0.1,-0.12091 0.2,-0.12091 0.2,-0.24181c0.4,-0.36272 2.7,-2.17631 8.5,-3.14357c2.2,-0.36272 6.5,-1.69269 5.8,-3.14357l-4.3,-2.65994c-0.6,-1.20906 -2.7,-1.9345 -4.6,-1.69269l-6.4,-0.12091c-1.8,0.36272 -2.1,2.41813 -2,3.62719c0.2,2.29722 -0.3,6.28713 -4,9.30979c-5.1,4.11082 -21.5,8.46345 -25.5,9.4307c-0.5,0.12091 -1.1,0.24181 -1.7,0.12091c-1.6,-0.12091 -5,0.12091 -3.5,2.78085c0.1,0.24181 0.3,0.48363 0.6,0.72544c1,0.84634 4.2,3.02266 8.9,0.84634c0.4,-0.24181 0.7,-0.36272 1,-0.72544c1.1,-0.96725 4.8,-4.59444 8.2,-5.56169z" class="st13"/>
   <linearGradient transform="translate(-23.799999237060547,-156.57424926757812) scale(1) translate(23.799999237060547,156.57424926757812) translate(-23.799999237060547,250) scale(1,1.174629807472229) translate(23.799999237060547,-250) translate(-23.799999237060547,-193.74124145507812) scale(1,1.0293147563934326) translate(23.799999237060547,193.74124145507812) " y2="57.0693" x2="93.7697" y1="57.0693" x1="53.4726" gradientUnits="userSpaceOnUse" id="SVGID_7_slug">
    <stop stop-color="#A37182" offset="0"/>
    <stop stop-color="#A16880" offset="0.2563"/>
    <stop stop-color="#9A4E7B" offset="0.681"/>
    <stop stop-color="#943777" offset="0.9995"/>
   </linearGradient>
   <path  d="m54.2,23.27537c-1.1,0.36272 -1,1.45088 0.2,1.69269c4.8,0.84634 6.6,2.53903 6.9,2.78085c0,0 0,0 0.1,0.12091c0.4,0.60453 4.3,5.92441 12.3,8.46345c6,1.9345 11.1,5.6826 11.6,7.13348c0.1,0.36272 0.6,0.60453 1.2,0.72544c12.4,0.48363 5.7,-4.23172 4.3,-5.07807c-0.1,-0.12091 -0.3,-0.12091 -0.5,-0.24181c-2.3,-0.48363 -19.1,-3.869 -23.8,-7.97982c-3.2,-2.78085 -2.5,-9.4307 -2.1,-11.96973c0.1,-0.84634 -1.1,-2.05541 -2,-1.57178l-2,1.08816l-6.2,4.83626z" class="st14"/>
   <linearGradient transform="translate(-23.799999237060547,-156.57424926757812) scale(1) translate(23.799999237060547,156.57424926757812) translate(-23.799999237060547,250) scale(1,1.174629807472229) translate(23.799999237060547,-250) translate(-23.799999237060547,-193.74124145507812) scale(1,1.0293147563934326) translate(23.799999237060547,193.74124145507812) " y2="94.9142" x2="94.5606" y1="94.9142" x1="62.7392" gradientUnits="userSpaceOnUse" id="SVGID_8_slug">
    <stop stop-color="#A37182" offset="0"/>
    <stop stop-color="#9B6882" offset="0.4538"/>
    <stop stop-color="#8D5682" offset="0.9995"/>
   </linearGradient>
   <path  d="m87.5,69.3407c0,0 -14.1,2.90175 -20.8,8.58435c0,0 -7.8,2.17631 -1.5,5.80351c0,0 5.6,2.90175 8.9,-2.17631c0,0 0.7,-2.53903 -0.4,-3.62719c0,0 -3.7,-8.34254 17.5,-2.53903c0,0 3.3,1.08816 3.3,-3.26447c0.1,0.12091 -0.7,-6.04532 -7,-2.78085z" class="st15"/>
   <linearGradient transform="translate(-23.799999237060547,-156.57424926757812) scale(1) translate(23.799999237060547,156.57424926757812) translate(-23.799999237060547,250) scale(1,1.174629807472229) translate(23.799999237060547,-250) translate(-23.799999237060547,-193.74124145507812) scale(1,1.0293147563934326) translate(23.799999237060547,193.74124145507812) " y2="94.991" x2="149.3053" y1="94.991" x1="118.2835" gradientUnits="userSpaceOnUse" id="SVGID_9_slug">
    <stop stop-color="#8D5682" offset="0.00049"/>
    <stop stop-color="#9B6882" offset="0.5462"/>
    <stop stop-color="#A37182" offset="1"/>
   </linearGradient>
   <path  d="m124.2,77.56234c0,0 11.1,-3.62719 18.2,2.65994c0,0 -1.2,3.869 3.7,3.02266c0,0 4.6,0 2.8,-4.23172c0,0 -1.5,-1.20906 -4,0c0,0 -9.9,-8.94707 -20.7,-9.30979s-4.3,10.88157 0,7.85891z" class="st16"/>
   <radialGradient transform="translate(-23.799999237060547,-156.57424926757812) scale(1) translate(23.799999237060547,156.57424926757812) translate(-23.799999237060547,250) scale(1,1.174629807472229) translate(23.799999237060547,-250) translate(-23.799999237060547,-193.74124145507812) scale(1,1.0293147563934326) translate(23.799999237060547,193.74124145507812) " gradientUnits="userSpaceOnUse" gradientTransform="matrix(1 0 0 0.6656 0 75.2076)" r="8.0455" cy="-43.9723" cx="53.7514" id="SVGID_10_slug">
    <stop stop-color="#CC9A88" offset="0"/>
    <stop stop-color="#CB9986" offset="0.4087"/>
    <stop stop-color="#C9967E" offset="0.6099"/>
    <stop stop-color="#C59171" offset="0.7657"/>
    <stop stop-color="#C08B5F" offset="0.8974"/>
    <stop stop-color="#BA834A" offset="1"/>
   </radialGradient>
   <ellipse  ry="6.04532" rx="8.5" cy="17.23005" cx="53.8" class="st17"/>
   <radialGradient transform="translate(-23.799999237060547,-156.57424926757812) scale(1) translate(23.799999237060547,156.57424926757812) translate(-23.799999237060547,250) scale(1,1.174629807472229) translate(23.799999237060547,-250) translate(-23.799999237060547,-193.74124145507812) scale(1,1.0293147563934326) translate(23.799999237060547,193.74124145507812) " gradientUnits="userSpaceOnUse" gradientTransform="matrix(1 0 0 0.6656 0 75.2076)" r="8.3205" cy="-43.2843" cx="169.3548" id="SVGID_11_slug">
    <stop stop-color="#CC9A88" offset="0"/>
    <stop stop-color="#CB9986" offset="0.4087"/>
    <stop stop-color="#C9967E" offset="0.6099"/>
    <stop stop-color="#C59171" offset="0.7657"/>
    <stop stop-color="#C08B5F" offset="0.8974"/>
    <stop stop-color="#BA834A" offset="1"/>
   </radialGradient>
   <ellipse  ry="6.28713" rx="8.8" cy="17.83458" cx="169.4" class="st18"/>
   <ellipse  ry="2.05541" rx="2.5" cy="14.57011" cx="51.7" class="st19"/>
   <ellipse  ry="2.29722" rx="2.8" cy="15.41646" cx="166.6" class="st20"/>
   <linearGradient transform="translate(-23.799999237060547,-156.57424926757812) scale(1) translate(23.799999237060547,156.57424926757812) translate(-23.799999237060547,250) scale(1,1.174629807472229) translate(23.799999237060547,-250) translate(-23.799999237060547,-193.74124145507812) scale(1,1.0293147563934326) translate(23.799999237060547,193.74124145507812) " y2="190.1273" x2="49.2576" y1="181.9412" x1="49.2576" gradientUnits="userSpaceOnUse" id="SVGID_12_slug">
    <stop stop-color="#A37182" offset="0"/>
    <stop stop-color="#A06C82" offset="0.06401"/>
    <stop stop-color="#955881" offset="0.3673"/>
    <stop stop-color="#8E4D80" offset="0.6757"/>
    <stop stop-color="#8C4980" offset="0.9944"/>
   </linearGradient>
   <ellipse  ry="4.95716" rx="7.3" cy="186.61989" cx="49.3" class="st21"/>
   <linearGradient transform="translate(-23.799999237060547,-156.57424926757812) scale(1) translate(23.799999237060547,156.57424926757812) translate(-23.799999237060547,250) scale(1,1.174629807472229) translate(23.799999237060547,-250) translate(-23.799999237060547,-193.74124145507812) scale(1,1.0293147563934326) translate(23.799999237060547,193.74124145507812) " y2="201.4619" x2="65.3409" y1="194.2204" x1="65.3409" gradientUnits="userSpaceOnUse" id="SVGID_13_slug">
    <stop stop-color="#A37182" offset="0"/>
    <stop stop-color="#A06C82" offset="0.06401"/>
    <stop stop-color="#955881" offset="0.3673"/>
    <stop stop-color="#8E4D80" offset="0.6757"/>
    <stop stop-color="#8C4980" offset="0.9944"/>
   </linearGradient>
   <ellipse  ry="4.35263" rx="5.4" cy="200.88684" cx="65.3" class="st22"/>
   <linearGradient transform="translate(-23.799999237060547,-156.57424926757812) scale(1) translate(23.799999237060547,156.57424926757812) translate(-23.799999237060547,250) scale(1,1.174629807472229) translate(23.799999237060547,-250) translate(-23.799999237060547,-193.74124145507812) scale(1,1.0293147563934326) translate(23.799999237060547,193.74124145507812) " y2="181.6263" x2="71.0173" y1="176.2738" x1="71.0173" gradientUnits="userSpaceOnUse" id="SVGID_14_slug">
    <stop stop-color="#A37182" offset="0"/>
    <stop stop-color="#A06C82" offset="0.06401"/>
    <stop stop-color="#955881" offset="0.3673"/>
    <stop stop-color="#8E4D80" offset="0.6757"/>
    <stop stop-color="#8C4980" offset="0.9944"/>
   </linearGradient>
   <ellipse  ry="3.26447" rx="4" cy="178.15644" cx="71" class="st23"/>
   <linearGradient transform="translate(-23.799999237060547,-156.57424926757812) scale(1) translate(23.799999237060547,156.57424926757812) translate(-23.799999237060547,250) scale(1,1.174629807472229) translate(23.799999237060547,-250) translate(-23.799999237060547,-193.74124145507812) scale(1,1.0293147563934326) translate(23.799999237060547,193.74124145507812) " y2="170.6065" x2="57.2992" y1="165.6352" x1="57.2992" gradientUnits="userSpaceOnUse" id="SVGID_15_slug">
    <stop stop-color="#A37182" offset="0"/>
    <stop stop-color="#A06C82" offset="0.06401"/>
    <stop stop-color="#955881" offset="0.3673"/>
    <stop stop-color="#8E4D80" offset="0.6757"/>
    <stop stop-color="#8C4980" offset="0.9944"/>
   </linearGradient>
   <ellipse  ry="3.02266" rx="3.5" cy="164.97765" cx="57.3" class="st24"/>
   <linearGradient transform="translate(-23.799999237060547,-156.57424926757812) scale(1) translate(23.799999237060547,156.57424926757812) translate(-23.799999237060547,250) scale(1,1.174629807472229) translate(23.799999237060547,-250) translate(-23.799999237060547,-193.74124145507812) scale(1,1.0293147563934326) translate(23.799999237060547,193.74124145507812) " y2="215.9451" x2="105.0761" y1="210.2777" x1="105.0761" gradientUnits="userSpaceOnUse" id="SVGID_16_slug">
    <stop stop-color="#A37182" offset="0"/>
    <stop stop-color="#A06C82" offset="0.06401"/>
    <stop stop-color="#955881" offset="0.3673"/>
    <stop stop-color="#8E4D80" offset="0.6757"/>
    <stop stop-color="#8C4980" offset="0.9944"/>
   </linearGradient>
   <ellipse  ry="3.38538" rx="5.9" cy="219.38552" cx="105.1" class="st25"/>
   <linearGradient transform="translate(-23.799999237060547,-156.57424926757812) scale(1) translate(23.799999237060547,156.57424926757812) translate(-23.799999237060547,250) scale(1,1.174629807472229) translate(23.799999237060547,-250) translate(-23.799999237060547,-193.74124145507812) scale(1,1.0293147563934326) translate(23.799999237060547,193.74124145507812) " y2="202.7213" x2="98.6901" y1="198.9431" x1="98.6901" gradientUnits="userSpaceOnUse" id="SVGID_17_slug">
    <stop stop-color="#A37182" offset="0"/>
    <stop stop-color="#A06C82" offset="0.06401"/>
    <stop stop-color="#955881" offset="0.3673"/>
    <stop stop-color="#8E4D80" offset="0.6757"/>
    <stop stop-color="#8C4980" offset="0.9944"/>
   </linearGradient>
   <ellipse  ry="2.29722" rx="2.8" cy="204.51403" cx="98.7" class="st26"/>
   <linearGradient transform="translate(-23.799999237060547,-156.57424926757812) scale(1) translate(23.799999237060547,156.57424926757812) translate(-23.799999237060547,250) scale(1,1.174629807472229) translate(23.799999237060547,-250) translate(-23.799999237060547,-193.74124145507812) scale(1,1.0293147563934326) translate(23.799999237060547,193.74124145507812) " y2="189.1827" x2="83.7894" y1="185.7194" x1="83.7894" gradientUnits="userSpaceOnUse" id="SVGID_18_slug">
    <stop stop-color="#A37182" offset="0"/>
    <stop stop-color="#A06C82" offset="0.06401"/>
    <stop stop-color="#955881" offset="0.3673"/>
    <stop stop-color="#8E4D80" offset="0.6757"/>
    <stop stop-color="#8C4980" offset="0.9944"/>
   </linearGradient>
   <ellipse  ry="2.05541" rx="2.6" cy="188.43349" cx="83.8" class="st27"/>
   <linearGradient transform="translate(-23.799999237060547,-156.57424926757812) scale(1) translate(23.799999237060547,156.57424926757812) translate(-23.799999237060547,250) scale(1,1.174629807472229) translate(23.799999237060547,-250) translate(-23.799999237060547,-193.74124145507812) scale(1,1.0293147563934326) translate(23.799999237060547,193.74124145507812) " y2="207.4441" x2="86.1546" y1="204.6104" x1="86.1546" gradientUnits="userSpaceOnUse" id="SVGID_19_slug">
    <stop stop-color="#A37182" offset="0"/>
    <stop stop-color="#A06C82" offset="0.06401"/>
    <stop stop-color="#955881" offset="0.3673"/>
    <stop stop-color="#8E4D80" offset="0.6757"/>
    <stop stop-color="#8C4980" offset="0.9944"/>
   </linearGradient>
   <ellipse  ry="1.69269" rx="2.1" cy="210.80117" cx="86.2" class="st28"/>
   <linearGradient transform="translate(-23.799999237060547,-156.57424926757812) scale(1) translate(23.799999237060547,156.57424926757812) translate(-23.799999237060547,250) scale(1,1.174629807472229) translate(23.799999237060547,-250) translate(-23.799999237060547,-193.74124145507812) scale(1,1.0293147563934326) translate(23.799999237060547,193.74124145507812) " y2="168.0877" x2="84.499" y1="165.2541" x1="84.499" gradientUnits="userSpaceOnUse" id="SVGID_20_slug">
    <stop stop-color="#A37182" offset="0"/>
    <stop stop-color="#A06C82" offset="0.06401"/>
    <stop stop-color="#955881" offset="0.3673"/>
    <stop stop-color="#8E4D80" offset="0.6757"/>
    <stop stop-color="#8C4980" offset="0.9944"/>
   </linearGradient>
   <ellipse  ry="1.69269" rx="1.9" cy="163.28496" cx="84.5" class="st29"/>
   <linearGradient transform="translate(-23.799999237060547,-156.57424926757812) scale(1) translate(23.799999237060547,156.57424926757812) translate(-23.799999237060547,250) scale(1,1.174629807472229) translate(23.799999237060547,-250) translate(-23.799999237060547,-193.74124145507812) scale(1,1.0293147563934326) translate(23.799999237060547,193.74124145507812) " y2="157.6976" x2="72.9095" y1="154.5491" x1="72.9095" gradientUnits="userSpaceOnUse" id="SVGID_21_slug">
    <stop stop-color="#A37182" offset="0"/>
    <stop stop-color="#A06C82" offset="0.06401"/>
    <stop stop-color="#955881" offset="0.3673"/>
    <stop stop-color="#8E4D80" offset="0.6757"/>
    <stop stop-color="#8C4980" offset="0.9944"/>
   </linearGradient>
   <ellipse  ry="1.9345" rx="2.1" cy="150.46888" cx="72.9" class="st30"/>
   <linearGradient transform="translate(-23.799999237060547,-156.57424926757812) scale(1) translate(23.799999237060547,156.57424926757812) translate(-23.799999237060547,250) scale(1,1.174629807472229) translate(23.799999237060547,-250) translate(-23.799999237060547,-193.74124145507812) scale(1,1.0293147563934326) translate(23.799999237060547,193.74124145507812) " y2="207.4441" x2="127.782" y1="207.4441" x1="127.782" gradientUnits="userSpaceOnUse" id="SVGID_22_slug">
    <stop stop-color="#A37182" offset="0"/>
    <stop stop-color="#A06C82" offset="0.06401"/>
    <stop stop-color="#955881" offset="0.3673"/>
    <stop stop-color="#8E4D80" offset="0.6757"/>
    <stop stop-color="#8C4980" offset="0.9944"/>
   </linearGradient>
   <path  d="m129.9,212.49385c0,0 -1,0 -2.1,0s-2.1,0 -2.1,0s1,0 2.1,0s2.1,0 2.1,0z" class="st31"/>
   <linearGradient transform="translate(-23.799999237060547,-156.57424926757812) scale(1) translate(23.799999237060547,156.57424926757812) translate(-23.799999237060547,250) scale(1,1.174629807472229) translate(23.799999237060547,-250) translate(-23.799999237060547,-193.74124145507812) scale(1,1.0293147563934326) translate(23.799999237060547,193.74124145507812) " y2="215.9451" x2="145.7575" y1="213.1114" x1="145.7575" gradientUnits="userSpaceOnUse" id="SVGID_23_slug">
    <stop stop-color="#A37182" offset="0"/>
    <stop stop-color="#A06C82" offset="0.06401"/>
    <stop stop-color="#955881" offset="0.3673"/>
    <stop stop-color="#8E4D80" offset="0.6757"/>
    <stop stop-color="#8C4980" offset="0.9944"/>
   </linearGradient>
   <ellipse  ry="1.69269" rx="2.1" cy="221.07821" cx="145.8" class="st32"/>
   <linearGradient transform="translate(-23.799999237060547,-156.57424926757812) scale(1) translate(23.799999237060547,156.57424926757812) translate(-23.799999237060547,250) scale(1,1.174629807472229) translate(23.799999237060547,-250) translate(-23.799999237060547,-193.74124145507812) scale(1,1.0293147563934326) translate(23.799999237060547,193.74124145507812) " y2="103.2285" x2="111.9352" y1="98.1908" x1="111.9352" gradientUnits="userSpaceOnUse" id="SVGID_24_slug">
    <stop stop-color="#A37182" offset="0"/>
    <stop stop-color="#A06C82" offset="0.06401"/>
    <stop stop-color="#955881" offset="0.3673"/>
    <stop stop-color="#8E4D80" offset="0.6757"/>
    <stop stop-color="#8C4980" offset="0.9944"/>
   </linearGradient>
   <ellipse  ry="3.02266" rx="3.8" cy="83.48675" cx="111.9" class="st33"/>
   <linearGradient transform="translate(-23.799999237060547,-156.57424926757812) scale(1) translate(23.799999237060547,156.57424926757812) translate(-23.799999237060547,250) scale(1,1.174629807472229) translate(23.799999237060547,-250) translate(-23.799999237060547,-193.74124145507812) scale(1,1.0293147563934326) translate(23.799999237060547,193.74124145507812) " y2="101.0245" x2="88.7563" y1="95.9869" x1="88.7563" gradientUnits="userSpaceOnUse" id="SVGID_25_slug">
    <stop stop-color="#A37182" offset="0"/>
    <stop stop-color="#A06C82" offset="0.06401"/>
    <stop stop-color="#955881" offset="0.3673"/>
    <stop stop-color="#8E4D80" offset="0.6757"/>
    <stop stop-color="#8C4980" offset="0.9944"/>
   </linearGradient>
   <ellipse  ry="3.02266" rx="3.8" cy="80.82681" cx="88.8" class="st34"/>
   <linearGradient transform="translate(-23.799999237060547,-156.57424926757812) scale(1) translate(23.799999237060547,156.57424926757812) translate(-23.799999237060547,250) scale(1,1.174629807472229) translate(23.799999237060547,-250) translate(-23.799999237060547,-193.74124145507812) scale(1,1.0293147563934326) translate(23.799999237060547,193.74124145507812) " y2="94.4126" x2="104.3666" y1="91.8938" x1="104.3666" gradientUnits="userSpaceOnUse" id="SVGID_26_slug">
    <stop stop-color="#A37182" offset="0"/>
    <stop stop-color="#A06C82" offset="0.06401"/>
    <stop stop-color="#955881" offset="0.3673"/>
    <stop stop-color="#8E4D80" offset="0.6757"/>
    <stop stop-color="#8C4980" offset="0.9944"/>
   </linearGradient>
   <ellipse  ry="1.57178" rx="1.9" cy="74.41877" cx="104.4" class="st35"/>
   <linearGradient transform="translate(-23.799999237060547,-156.57424926757812) scale(1) translate(23.799999237060547,156.57424926757812) translate(-23.799999237060547,250) scale(1,1.174629807472229) translate(23.799999237060547,-250) translate(-23.799999237060547,-193.74124145507812) scale(1,1.0293147563934326) translate(23.799999237060547,193.74124145507812) " y2="87.1711" x2="85.6815" y1="84.9671" x1="85.6815" gradientUnits="userSpaceOnUse" id="SVGID_27_slug">
    <stop stop-color="#A37182" offset="0"/>
    <stop stop-color="#A06C82" offset="0.06401"/>
    <stop stop-color="#955881" offset="0.3673"/>
    <stop stop-color="#8E4D80" offset="0.6757"/>
    <stop stop-color="#8C4980" offset="0.9944"/>
   </linearGradient>
   <ellipse  ry="1.32997" rx="1.7" cy="65.83442" cx="85.7" class="st36"/>
   <linearGradient transform="translate(-23.799999237060547,-156.57424926757812) scale(1) translate(23.799999237060547,156.57424926757812) translate(-23.799999237060547,250) scale(1,1.174629807472229) translate(23.799999237060547,-250) translate(-23.799999237060547,-193.74124145507812) scale(1,1.0293147563934326) translate(23.799999237060547,193.74124145507812) " y2="75.8364" x2="112.4082" y1="73.9473" x1="112.4082" gradientUnits="userSpaceOnUse" id="SVGID_28_slug">
    <stop stop-color="#A37182" offset="0"/>
    <stop stop-color="#A06C82" offset="0.06401"/>
    <stop stop-color="#955881" offset="0.3673"/>
    <stop stop-color="#8E4D80" offset="0.6757"/>
    <stop stop-color="#8C4980" offset="0.9944"/>
   </linearGradient>
   <ellipse  ry="1.08816" rx="1.4" cy="52.2929" cx="112.4" class="st37"/>
   <linearGradient transform="translate(-23.799999237060547,-156.57424926757812) scale(1) translate(23.799999237060547,156.57424926757812) translate(-23.799999237060547,250) scale(1,1.174629807472229) translate(23.799999237060547,-250) translate(-23.799999237060547,-193.74124145507812) scale(1,1.0293147563934326) translate(23.799999237060547,193.74124145507812) " y2="83.3929" x2="124.4707" y1="81.8186" x1="124.4707" gradientUnits="userSpaceOnUse" id="SVGID_29_slug">
    <stop stop-color="#A37182" offset="0"/>
    <stop stop-color="#A06C82" offset="0.06401"/>
    <stop stop-color="#955881" offset="0.3673"/>
    <stop stop-color="#8E4D80" offset="0.6757"/>
    <stop stop-color="#8C4980" offset="0.9944"/>
   </linearGradient>
   <ellipse  ry="0.96725" rx="1.2" cy="61.60269" cx="124.5" class="st38"/>
   <linearGradient transform="translate(-23.799999237060547,-156.57424926757812) scale(1) translate(23.799999237060547,156.57424926757812) translate(-23.799999237060547,250) scale(1,1.174629807472229) translate(23.799999237060547,-250) translate(-23.799999237060547,-193.74124145507812) scale(1,1.0293147563934326) translate(23.799999237060547,193.74124145507812) " y2="105.7473" x2="99.3997" y1="99.1354" x1="99.3997" gradientUnits="userSpaceOnUse" id="SVGID_30_slug">
    <stop stop-color="#A37182" offset="0"/>
    <stop stop-color="#A06C82" offset="0.06401"/>
    <stop stop-color="#955881" offset="0.3673"/>
    <stop stop-color="#8E4D80" offset="0.6757"/>
    <stop stop-color="#8C4980" offset="0.9944"/>
   </linearGradient>
   <ellipse  ry="3.98991" rx="5" cy="85.54216" cx="99.4" class="st39"/>
  </g>
 </g>
</svg>
