<?xml version="1.0" encoding="utf-8"?>
<!-- Generator: Adobe Illustrator 22.1.0, SVG Export Plug-In . SVG Version: 6.00 Build 0)  -->
<svg version="1.1" id="Layer_1" xmlns="http://www.w3.org/2000/svg" xmlns:xlink="http://www.w3.org/1999/xlink" x="0px" y="0px"
	 viewBox="0 0 250 250" style="enable-background:new 0 0 250 250;" xml:space="preserve">
<style type="text/css">
	.st0{display:none;}
	.st1{display:inline;fill:#87AE32;stroke:#87AE32;stroke-miterlimit:10;}
	.st2{display:inline;}
	.st3{opacity:0.5;}
	.st4{fill:#63AA34;}
	.st5{fill:#63AA34;stroke:#63AA34;stroke-miterlimit:10;}
	.st6{display:inline;fill:#808080;}
	.st7{fill:url(#SVGID_1_);}
	.st8{fill:url(#SVGID_2_);}
	.st9{fill:url(#SVGID_3_);}
	.st10{display:none;opacity:0.54;fill:url(#SVGID_4_);}
	.st11{fill:#97459B;}
	.st12{display:none;opacity:0.66;fill:url(#SVGID_5_);}
	.st13{fill:url(#SVGID_6_);}
	.st14{fill:url(#SVGID_7_);}
	.st15{fill:url(#SVGID_8_);}
	.st16{fill:url(#SVGID_9_);}
	.st17{fill:url(#SVGID_10_);}
	.st18{fill:url(#SVGID_11_);}
	.st19{fill:#F7EBF6;}
	.st20{fill:#EDC3E9;}
	.st21{opacity:0.71;fill:url(#SVGID_12_);}
	.st22{fill:url(#SVGID_13_);}
	.st23{opacity:0.25;fill:url(#SVGID_14_);}
	.st24{opacity:0.5;fill:url(#SVGID_15_);}
	.st25{fill:url(#SVGID_16_);}
	.st26{fill:url(#SVGID_17_);}
	.st27{fill:url(#SVGID_18_);}
	.st28{fill:url(#SVGID_19_);}
	.st29{fill:url(#SVGID_20_);}
	.st30{fill:url(#SVGID_21_);}
	.st31{fill:url(#SVGID_22_);}
	.st32{fill:url(#SVGID_23_);}
	.st33{fill:url(#SVGID_24_);}
	.st34{fill:url(#SVGID_25_);}
	.st35{fill:url(#SVGID_26_);}
	.st36{fill:url(#SVGID_27_);}
	.st37{fill:url(#SVGID_28_);}
	.st38{fill:url(#SVGID_29_);}
	.st39{opacity:0.76;fill:url(#SVGID_30_);}
</style>
<g id="Layer_1_1_" class="st0">
	<polygon class="st1" points="250,187.5 126.6,250 0.4,187.5 125.2,125 	"/>
	<g class="st2">
		<g class="st3">
			<polygon class="st4" points="105.4,147.2 124,156.6 105.4,165.9 86.8,156.5 			"/>
			<polygon class="st4" points="61,176.1 72.1,181.6 60.9,187.3 49.8,181.6 			"/>
			<polygon class="st4" points="145.9,156.4 157,162 145.9,167.5 134.8,162 			"/>
			<polygon class="st4" points="212.8,180.2 224.1,185.7 212.8,191.3 201.7,185.7 			"/>
			<polygon class="st4" points="130.8,226.3 141.8,231.9 130.6,237.4 119.5,231.9 			"/>
			<polygon class="st5" points="127.7,196.9 135.9,201 127.7,205 119.5,201 			"/>
		</g>
	</g>
	<g>
		<path class="st6" d="M126.6,1.6L250,63.3v123.6l-123.4,61.8L3.2,186.9V63.3L126.6,1.6 M126.6,0.1L1.8,62.6v124.9L126.6,250
			l124.8-62.5V62.6L126.6,0.1L126.6,0.1z"/>
	</g>
	<path class="st1" d="M9,164.5"/>
	<path class="st1" d="M8,184.7c-6.2-3.6-4.5-16.9-1.9-17.5c3-0.7,11.1,14.5,7.9,17.9C12.6,186.3,9.7,185.6,8,184.7z"/>
	<path class="st1" d="M21,179.3c-5.8-2.9-3.1-18.9-1-19.2c2.2-0.2,5.5,16.1,6.1,15.9c0.6-0.1-3.6-12.7-1.3-13.8
		c1.9-0.9,9.2,4.9,7.9,10.8c-0.7,3.1-3.6,5.3-6.1,6.1C25.8,179.5,23.1,180.4,21,179.3z"/>
	<path class="st1" d="M40,169.4c-3.9-2.5-1-12.8,0.6-12.9c1.7-0.1,3.7,10.3,4.5,10.1c0.6-0.1-1.2-6.1,0.6-7.1
		c1.5-0.8,5.2,1.5,5.3,3.9C51.3,166.9,43.5,171.6,40,169.4z"/>
	<path class="st1" d="M57.1,161c-2.9-1.6-4.5-5.7-3.5-6.8c0.6-0.7,2.3,0.2,2.7-0.5c0.9-1.3-3.6-6.1-3.5-6.1c0.1-0.1,4.1,5.4,6,4.7
		c1.2-0.5,0.7-3.1,1.9-3.5c1.3-0.4,2.5,2.2,4,1.9c1.7-0.3,1.6-3.8,3.2-4c1.3-0.2,2.7,2,2.9,2.4c1,1.7,1.2,3.6,1,5
		C70.8,159.3,62,163.7,57.1,161z"/>
	<path class="st1" d="M75.3,144.6c-1,0.3-1.8,4.9,0.2,6.6c3,2.6,13.3-1.3,13.5-6.1c0.1-2.8-3.3-5-3.5-5.2c-3-1.9-6.9-1.6-7.1-0.8
		c-0.3,1,6.4,3.6,6.1,4.2c-0.2,0.5-3.8-1.2-5.3,0.3c-1,1-0.4,2.7-1.1,2.9C77.1,146.8,76.1,144.4,75.3,144.6z"/>
	<path class="st1" d="M93.3,143.1c-2.8-0.3-5-9.3-3.5-10.1c1.4-0.8,7.4,4.5,6.1,8C95.5,142.1,94.4,143.2,93.3,143.1z"/>
	<path class="st1" d="M99.9,138.9c-3.9-1-4.9-11-3.1-11.9c1.9-0.9,8.8,6.3,7.1,10C103.3,138.4,101.4,139.3,99.9,138.9z"/>
	<path class="st1" d="M109.1,134.1c-3.1-2.8-3.7-7.7-2.7-8.2c1.4-0.8,6.8,6.6,7.7,6c0.7-0.5-2.7-5.4-1.1-7.1c0.9-1,2.6,0,3.7-1.1
		c1.5-1.5,0.1-4.8,0.6-5s1.5,3.4,2.9,3.4c1.7,0,2.3-5.4,4.2-5.5c1.1,0,2,1.7,2.3,2.1c1.2,2.1,0.5,4.2,1,4.3c0.7,0.2,1.9-4,2.6-3.9
		c0.5,0.1,0.4,2.6,0,4.7c-0.1,0.4-0.3,1.2-1.3,4.2c-0.7,1.9-1.1,3.1-1.3,3.5C125.7,135.7,114.5,139,109.1,134.1z"/>
	<path class="st1" d="M130.2,130.2c2.8-5.6,8.1-10.5,9.7-9.5c0.7,0.4,0.5,1.9,0.3,2.7c-0.8,5.2-6,8.5-5.8,8.7s6.8-5.8,8.4-4.7
		c0.9,0.6-0.1,3.3-0.6,4.5c-0.2,0.5-1.1,2.2-2.9,3.4c-3.4,2.2-8.9,1.5-10-1C129,134.1,128.7,133.1,130.2,130.2z"/>
	<path class="st1" d="M144.3,136.8c1.8-4.2,4.6-6.5,5.3-7.1c3.3-2.7,7.6-4.1,8-3.4c0.8,1.2-10.8,6.9-9.8,12.2c0.6,3.2,5.7,5.8,9,4.8
		c1.2-0.4,2.4-1.7,4.7-4.3c3.1-3.6,3.3-4.8,5.5-6.1c2.3-1.4,5-1.9,5.3-1.3c0.6,1-5.1,4.9-4.5,5.8c0.5,0.9,5.8-1.6,6.1-1
		c0.4,0.7-5.8,4.4-5.3,5.3c0.4,0.9,6.6-2,7.6-0.5c0.5,0.8-0.8,2.6-1.8,3.9c-3,4-5.9,5-5.6,5.6c0.4,1,8.1,1.2,14.5-3.2
		c4.5-3.1,6.6-7.4,8-6.8c0.9,0.4,0.9,2.4,0.6,3.7c-0.6,3-3.3,4.6-3.1,5c0.4,0.5,4.8-2.3,5.2-1.8c0.3,0.4-2.2,2.1-4.2,5.5
		c-0.9,1.4-2.7,4.4-1.8,5.5s4.3-0.3,10.8-3.1c4.5-1.9,7.3-3.3,7.6-2.9c0.5,0.8-9.7,6.2-8.7,10.3c0.5,2.1,4,3.9,6.6,3.2
		c3.4-0.8,3.5-5.4,7.2-6.3c2.1-0.5,4.5,0.4,4.7,1.3c0.2,1-2.2,1.5-4.3,4.2c-1.6,2.1-2.7,5-1.9,5.6c0.7,0.6,2.8-1.3,8.5-3.9
		c4-1.8,4.7-1.6,5-1.3c0.7,0.8-1.2,3.5-1.4,3.9c-2.4,3.5-5.3,4.2-5.2,4.8c0.3,1,8.6,1.5,14.8-3.2c4.4-3.3,5.9-7.8,6.9-7.4
		c0.9,0.4,0.4,4.2-0.6,7.1c-0.7,1.9-1.6,3.4-1.4,3.5c0.2,0.2,1.5-2.2,4.2-3.7c1.4-0.8,3.4-1.5,3.9-1c0.4,0.6-1.2,1.8-1.9,4.7
		c-0.5,1.9-0.5,4,0,4.2s1.1-1.8,3.4-3.4c1.3-0.9,3.3-1.9,3.9-1.3c0.6,0.6-1.2,2.1-1.5,5.2c-0.3,3.1,1.3,4.6,0.3,6.3
		c-0.7,1.1-2,1.5-2.6,1.6c-12.3,3.2-39.1-10.8-39.1-10.8c-34.4-18-62.2-15.6-64.2-27.7C141.9,142.5,144.3,136.8,144.3,136.8z"/>
</g>
<g id="Layer_2_1_">
</g>
<radialGradient id="SVGID_1_" cx="77.9553" cy="114.9274" r="67.4061" gradientTransform="matrix(1 0 0 0.6656 0 75.2076)" gradientUnits="userSpaceOnUse">
	<stop  offset="0" style="stop-color:#E0B6A5"/>
	<stop  offset="0.2686" style="stop-color:#DFB5A2"/>
	<stop  offset="0.4925" style="stop-color:#DEB197"/>
	<stop  offset="0.7004" style="stop-color:#DAAB86"/>
	<stop  offset="0.8974" style="stop-color:#D6A36E"/>
	<stop  offset="1" style="stop-color:#D39D5E"/>
</radialGradient>
<path class="st7" d="M80.7,100.1c0,0,24.1,17,0,31.5s-75.2,16.8-45.9,55.9s0,0,0,0l5.7-24.8l26.5-12l43-17l19.9-21.7l-6.6-13.5
	L80.7,100.1z"/>
<radialGradient id="SVGID_2_" cx="115.5221" cy="96.3826" r="109.6189" gradientTransform="matrix(1 0 0 3.9936 0 -245.55)" gradientUnits="userSpaceOnUse">
	<stop  offset="0" style="stop-color:#A37182"/>
	<stop  offset="0.1103" style="stop-color:#9E6882"/>
	<stop  offset="0.2932" style="stop-color:#914E82"/>
	<stop  offset="0.4136" style="stop-color:#873A82"/>
	<stop  offset="0.9944" style="stop-color:#873A5F"/>
</radialGradient>
<path class="st8" d="M29.9,185.2c0,0-13.2-28.7,54.9-44.7c0,0,36.2-5.2,37.4-36.8c0,0-27.7,15.6-49-7.1c0,0-12.3-16.7,4.7-29.9
	c0,0,37.4-22.7,71.9-7.9c0,0,9.5,2.5,14.9,11.2c0,0,30.7,32.7-36,66.7c0,0-70.5,25.2-13.7,50.7c13.5,3,30.5-0.5,30.5-0.5
	c25.5-9.1,11.8-16.4,11.8-16.4c-6.6-1.9-12.3,2.2-12.3,2.2c-8.5,5-1.4,13.5-0.5,16.4c0.9,2.8-2.1,5.7-2.1,5.7l-5-14.2
	c0-10.7,17.5-13.2,17.5-13.2c36.4-2.5,40.7,10.7,40.7,10.7c17,17-4.5,26-4.5,26s-7.6,3.1,1.9,8.5s-13.7,4.7-13.7,4.7
	s-15.1-4.1-20.8,2.5c-5.7,6.6-27.4,0-27.4,0s-7.6-4.7-25.1,2.8c-17.5,7.6-27-6.9-27-6.9s-1.4-8.8-23.2-6.6c0,0-15.4,3.6-13.5-10.5
	c0,0,1.7-4-3.2-5.6C39.2,193,30.1,191.1,29.9,185.2z"/>
<radialGradient id="SVGID_3_" cx="166.852" cy="160.5388" r="51.5023" gradientTransform="matrix(1 0 0 0.6656 0 75.2076)" gradientUnits="userSpaceOnUse">
	<stop  offset="0" style="stop-color:#CC9A88"/>
	<stop  offset="0.4087" style="stop-color:#CB9986"/>
	<stop  offset="0.6099" style="stop-color:#C9967E"/>
	<stop  offset="0.7657" style="stop-color:#C59171"/>
	<stop  offset="0.8974" style="stop-color:#C08B5F"/>
	<stop  offset="1" style="stop-color:#BA834A"/>
</radialGradient>
<path class="st9" d="M189.5,204l5.7-3.5c1.4-0.3,3.8-3.5,3.8-3.5c7.6-12.6-6-19.4-6-19.4c-20.7-14.4-42.7-8-42.7-8
	c-17.5,4.4-9.5,15.4-9.5,15.4s5.2,10.4,0,10.4c-5.2,0-12.8-3.5-12.8-3.5c-7.6-6.9-19.9-20.5-8.5-24.2c11.4-3.8,10.4-9.8,10.4-9.8
	s1.4-10.7,12.8-4.4c11.4,6.3,23.7-5.4,23.7-5.4s16.6-1.9,18.9,6.9c2.4,8.8,13.2,5.7,13.2,5.7c27.9-1.3,18.9,4.4,18.9,4.4
	s-9,6-3.8,10.7c5.2,4.7,3.3,10.1,3.3,10.1s-0.9,8.5-25.1,20.8c0,0-4.3,2.2,0.9,4.7c0,0,5.2,3,1.4,4.5c0,0,2.9-2.3-2.3-3.6
	C191.9,212.5,184.3,210.3,189.5,204z"/>
<linearGradient id="SVGID_4_" gradientUnits="userSpaceOnUse" x1="139.6714" y1="145.2102" x2="64.3022" y2="173.559" gradientTransform="matrix(0.4474 -0.5951 0.5727 0.4305 -123.3268 -135.4377)">
	<stop  offset="0" style="stop-color:#FFFFFF"/>
	<stop  offset="8.310568e-02" style="stop-color:#FFDCE9;stop-opacity:0.9169"/>
	<stop  offset="0.1727" style="stop-color:#FFBED6;stop-opacity:0.8273"/>
	<stop  offset="0.2722" style="stop-color:#FFA5C7;stop-opacity:0.7278"/>
	<stop  offset="0.3835" style="stop-color:#FF92BB;stop-opacity:0.6165"/>
	<stop  offset="0.5132" style="stop-color:#FF85B2;stop-opacity:0.4868"/>
	<stop  offset="0.6786" style="stop-color:#FF7DAD;stop-opacity:0.3214"/>
	<stop  offset="1" style="stop-color:#FF7BAC;stop-opacity:0"/>
</linearGradient>
<path class="st10" d="M49.7-124.3c0-9.4-10.5-23.6-10.5-23.6c-23.2-19.1-51-0.7-51-0.7c-2,1.4-12,9-12,9c21.7-9.4,22.9-9,22.9-9
	s20.4-6.9,34.8,15c0,0,8,13.4,7.9,45C41.8-88.7,52.7-113,49.7-124.3z"/>
<path class="st11" d="M164.4,72.7c-8.6-10.9-18.3-17-39.7-17s-50.1,10.6-50.1,23c0,0-4.3,27.4,29.8,27.7L142.7,95
	c0,0,8,11.3-3.3,25.2c-11.4,13.9,11.8,0,11.8,0S179.1,91.3,164.4,72.7z"/>
<linearGradient id="SVGID_5_" gradientUnits="userSpaceOnUse" x1="-3.8473" y1="-112.3149" x2="33.9983" y2="-74.4693">
	<stop  offset="0" style="stop-color:#000000"/>
	<stop  offset="0.202" style="stop-color:#391B26;stop-opacity:0.798"/>
	<stop  offset="0.5976" style="stop-color:#A24E6D;stop-opacity:0.4024"/>
	<stop  offset="0.8719" style="stop-color:#E56E9A;stop-opacity:0.1281"/>
	<stop  offset="1" style="stop-color:#FF7BAC;stop-opacity:0"/>
</linearGradient>
<path class="st12" d="M-17.8-98.4c0,0,7.1,10.9,30.4-1.5c0,0,30.7-13.9,33.7-29.2c0,0,13.1,26.2-16.5,58.8c0,0-49.5,29.6-45.3,8.2
	l0.7-5.6C-14.8-67.7-5.8-84.9-17.8-98.4z"/>
<linearGradient id="SVGID_6_" gradientUnits="userSpaceOnUse" x1="123.3345" y1="58.258" x2="175.7954" y2="58.258">
	<stop  offset="4.897680e-04" style="stop-color:#943777"/>
	<stop  offset="0.319" style="stop-color:#9A4E7B"/>
	<stop  offset="0.7437" style="stop-color:#A16880"/>
	<stop  offset="1" style="stop-color:#A37182"/>
</linearGradient>
<path class="st13" d="M142.4,63.6c8.7-1.9,17.5-7.1,18.8-7.9c0.1-0.1,0.2-0.1,0.2-0.2c0.4-0.3,2.7-1.8,8.5-2.6
	c2.2-0.3,6.5-1.4,5.8-2.6l-4.3-2.2c-0.6-1-2.7-1.6-4.6-1.4l-6.4-0.1c-1.8,0.3-2.1,2-2,3c0.2,1.9-0.3,5.2-4,7.7
	c-5.1,3.4-21.5,7-25.5,7.8c-0.5,0.1-1.1,0.2-1.7,0.1c-1.6-0.1-5,0.1-3.5,2.3c0.1,0.2,0.3,0.4,0.6,0.6c1,0.7,4.2,2.5,8.9,0.7
	c0.4-0.2,0.7-0.3,1-0.6C135.3,67.4,139,64.4,142.4,63.6z"/>
<linearGradient id="SVGID_7_" gradientUnits="userSpaceOnUse" x1="53.4726" y1="57.0693" x2="93.7697" y2="57.0693">
	<stop  offset="0" style="stop-color:#A37182"/>
	<stop  offset="0.2563" style="stop-color:#A16880"/>
	<stop  offset="0.681" style="stop-color:#9A4E7B"/>
	<stop  offset="0.9995" style="stop-color:#943777"/>
</linearGradient>
<path class="st14" d="M54.2,50.9c-1.1,0.3-1,1.2,0.2,1.4c4.8,0.7,6.6,2.1,6.9,2.3c0,0,0,0,0.1,0.1c0.4,0.5,4.3,4.9,12.3,7
	c6,1.6,11.1,4.7,11.6,5.9c0.1,0.3,0.6,0.5,1.2,0.6c12.4,0.4,5.7-3.5,4.3-4.2c-0.1-0.1-0.3-0.1-0.5-0.2c-2.3-0.4-19.1-3.2-23.8-6.6
	c-3.2-2.3-2.5-7.8-2.1-9.9c0.1-0.7-1.1-1.7-2-1.3l-2,0.9L54.2,50.9z"/>
<linearGradient id="SVGID_8_" gradientUnits="userSpaceOnUse" x1="62.7392" y1="94.9142" x2="94.5606" y2="94.9142">
	<stop  offset="0" style="stop-color:#A37182"/>
	<stop  offset="0.4538" style="stop-color:#9B6882"/>
	<stop  offset="0.9995" style="stop-color:#8D5682"/>
</linearGradient>
<path class="st15" d="M87.5,89c0,0-14.1,2.4-20.8,7.1c0,0-7.8,1.8-1.5,4.8c0,0,5.6,2.4,8.9-1.8c0,0,0.7-2.1-0.4-3
	c0,0-3.7-6.9,17.5-2.1c0,0,3.3,0.9,3.3-2.7C94.6,91.4,93.8,86.3,87.5,89z"/>
<linearGradient id="SVGID_9_" gradientUnits="userSpaceOnUse" x1="118.2835" y1="94.991" x2="149.3053" y2="94.991">
	<stop  offset="4.897680e-04" style="stop-color:#8D5682"/>
	<stop  offset="0.5462" style="stop-color:#9B6882"/>
	<stop  offset="1" style="stop-color:#A37182"/>
</linearGradient>
<path class="st16" d="M124.2,95.8c0,0,11.1-3,18.2,2.2c0,0-1.2,3.2,3.7,2.5c0,0,4.6,0,2.8-3.5c0,0-1.5-1-4,0c0,0-9.9-7.4-20.7-7.7
	S119.9,98.3,124.2,95.8z"/>
<radialGradient id="SVGID_10_" cx="53.7514" cy="-43.9723" r="8.0455" gradientTransform="matrix(1 0 0 0.6656 0 75.2076)" gradientUnits="userSpaceOnUse">
	<stop  offset="0" style="stop-color:#CC9A88"/>
	<stop  offset="0.4087" style="stop-color:#CB9986"/>
	<stop  offset="0.6099" style="stop-color:#C9967E"/>
	<stop  offset="0.7657" style="stop-color:#C59171"/>
	<stop  offset="0.8974" style="stop-color:#C08B5F"/>
	<stop  offset="1" style="stop-color:#BA834A"/>
</radialGradient>
<ellipse class="st17" cx="53.8" cy="45.9" rx="8.5" ry="5"/>
<radialGradient id="SVGID_11_" cx="169.3548" cy="-43.2843" r="8.3205" gradientTransform="matrix(1 0 0 0.6656 0 75.2076)" gradientUnits="userSpaceOnUse">
	<stop  offset="0" style="stop-color:#CC9A88"/>
	<stop  offset="0.4087" style="stop-color:#CB9986"/>
	<stop  offset="0.6099" style="stop-color:#C9967E"/>
	<stop  offset="0.7657" style="stop-color:#C59171"/>
	<stop  offset="0.8974" style="stop-color:#C08B5F"/>
	<stop  offset="1" style="stop-color:#BA834A"/>
</radialGradient>
<ellipse class="st18" cx="169.4" cy="46.4" rx="8.8" ry="5.2"/>
<ellipse class="st19" cx="51.7" cy="43.7" rx="2.5" ry="1.7"/>
<ellipse class="st20" cx="166.6" cy="44.4" rx="2.8" ry="1.9"/>
<linearGradient id="SVGID_12_" gradientUnits="userSpaceOnUse" x1="49.2576" y1="181.9412" x2="49.2576" y2="190.1273">
	<stop  offset="0" style="stop-color:#A37182"/>
	<stop  offset="6.400995e-02" style="stop-color:#A06C82"/>
	<stop  offset="0.3673" style="stop-color:#955881"/>
	<stop  offset="0.6757" style="stop-color:#8E4D80"/>
	<stop  offset="0.9944" style="stop-color:#8C4980"/>
</linearGradient>
<ellipse class="st21" cx="49.3" cy="186" rx="7.3" ry="4.1"/>
<linearGradient id="SVGID_13_" gradientUnits="userSpaceOnUse" x1="65.3409" y1="194.2204" x2="65.3409" y2="201.4619">
	<stop  offset="0" style="stop-color:#A37182"/>
	<stop  offset="6.400995e-02" style="stop-color:#A06C82"/>
	<stop  offset="0.3673" style="stop-color:#955881"/>
	<stop  offset="0.6757" style="stop-color:#8E4D80"/>
	<stop  offset="0.9944" style="stop-color:#8C4980"/>
</linearGradient>
<ellipse class="st22" cx="65.3" cy="197.8" rx="5.4" ry="3.6"/>
<linearGradient id="SVGID_14_" gradientUnits="userSpaceOnUse" x1="71.0173" y1="176.2738" x2="71.0173" y2="181.6263">
	<stop  offset="0" style="stop-color:#A37182"/>
	<stop  offset="6.400995e-02" style="stop-color:#A06C82"/>
	<stop  offset="0.3673" style="stop-color:#955881"/>
	<stop  offset="0.6757" style="stop-color:#8E4D80"/>
	<stop  offset="0.9944" style="stop-color:#8C4980"/>
</linearGradient>
<ellipse class="st23" cx="71" cy="179" rx="4" ry="2.7"/>
<linearGradient id="SVGID_15_" gradientUnits="userSpaceOnUse" x1="57.2992" y1="165.6352" x2="57.2992" y2="170.6065">
	<stop  offset="0" style="stop-color:#A37182"/>
	<stop  offset="6.400995e-02" style="stop-color:#A06C82"/>
	<stop  offset="0.3673" style="stop-color:#955881"/>
	<stop  offset="0.6757" style="stop-color:#8E4D80"/>
	<stop  offset="0.9944" style="stop-color:#8C4980"/>
</linearGradient>
<ellipse class="st24" cx="57.3" cy="168.1" rx="3.5" ry="2.5"/>
<linearGradient id="SVGID_16_" gradientUnits="userSpaceOnUse" x1="105.0761" y1="210.2777" x2="105.0761" y2="215.9451">
	<stop  offset="0" style="stop-color:#A37182"/>
	<stop  offset="6.400995e-02" style="stop-color:#A06C82"/>
	<stop  offset="0.3673" style="stop-color:#955881"/>
	<stop  offset="0.6757" style="stop-color:#8E4D80"/>
	<stop  offset="0.9944" style="stop-color:#8C4980"/>
</linearGradient>
<ellipse class="st25" cx="105.1" cy="213.1" rx="5.9" ry="2.8"/>
<linearGradient id="SVGID_17_" gradientUnits="userSpaceOnUse" x1="98.6901" y1="198.9431" x2="98.6901" y2="202.7213">
	<stop  offset="0" style="stop-color:#A37182"/>
	<stop  offset="6.400995e-02" style="stop-color:#A06C82"/>
	<stop  offset="0.3673" style="stop-color:#955881"/>
	<stop  offset="0.6757" style="stop-color:#8E4D80"/>
	<stop  offset="0.9944" style="stop-color:#8C4980"/>
</linearGradient>
<ellipse class="st26" cx="98.7" cy="200.8" rx="2.8" ry="1.9"/>
<linearGradient id="SVGID_18_" gradientUnits="userSpaceOnUse" x1="83.7894" y1="185.7194" x2="83.7894" y2="189.1827">
	<stop  offset="0" style="stop-color:#A37182"/>
	<stop  offset="6.400995e-02" style="stop-color:#A06C82"/>
	<stop  offset="0.3673" style="stop-color:#955881"/>
	<stop  offset="0.6757" style="stop-color:#8E4D80"/>
	<stop  offset="0.9944" style="stop-color:#8C4980"/>
</linearGradient>
<ellipse class="st27" cx="83.8" cy="187.5" rx="2.6" ry="1.7"/>
<linearGradient id="SVGID_19_" gradientUnits="userSpaceOnUse" x1="86.1546" y1="204.6104" x2="86.1546" y2="207.4441">
	<stop  offset="0" style="stop-color:#A37182"/>
	<stop  offset="6.400995e-02" style="stop-color:#A06C82"/>
	<stop  offset="0.3673" style="stop-color:#955881"/>
	<stop  offset="0.6757" style="stop-color:#8E4D80"/>
	<stop  offset="0.9944" style="stop-color:#8C4980"/>
</linearGradient>
<ellipse class="st28" cx="86.2" cy="206" rx="2.1" ry="1.4"/>
<linearGradient id="SVGID_20_" gradientUnits="userSpaceOnUse" x1="84.499" y1="165.2541" x2="84.499" y2="168.0877">
	<stop  offset="0" style="stop-color:#A37182"/>
	<stop  offset="6.400995e-02" style="stop-color:#A06C82"/>
	<stop  offset="0.3673" style="stop-color:#955881"/>
	<stop  offset="0.6757" style="stop-color:#8E4D80"/>
	<stop  offset="0.9944" style="stop-color:#8C4980"/>
</linearGradient>
<ellipse class="st29" cx="84.5" cy="166.7" rx="1.9" ry="1.4"/>
<linearGradient id="SVGID_21_" gradientUnits="userSpaceOnUse" x1="72.9095" y1="154.5491" x2="72.9095" y2="157.6976">
	<stop  offset="0" style="stop-color:#A37182"/>
	<stop  offset="6.400995e-02" style="stop-color:#A06C82"/>
	<stop  offset="0.3673" style="stop-color:#955881"/>
	<stop  offset="0.6757" style="stop-color:#8E4D80"/>
	<stop  offset="0.9944" style="stop-color:#8C4980"/>
</linearGradient>
<ellipse class="st30" cx="72.9" cy="156.1" rx="2.1" ry="1.6"/>
<linearGradient id="SVGID_22_" gradientUnits="userSpaceOnUse" x1="127.782" y1="207.4441" x2="127.782" y2="207.4441">
	<stop  offset="0" style="stop-color:#A37182"/>
	<stop  offset="6.400995e-02" style="stop-color:#A06C82"/>
	<stop  offset="0.3673" style="stop-color:#955881"/>
	<stop  offset="0.6757" style="stop-color:#8E4D80"/>
	<stop  offset="0.9944" style="stop-color:#8C4980"/>
</linearGradient>
<path class="st31" d="M129.9,207.4c0,0-1,0-2.1,0s-2.1,0-2.1,0s1,0,2.1,0S129.9,207.4,129.9,207.4z"/>
<linearGradient id="SVGID_23_" gradientUnits="userSpaceOnUse" x1="145.7575" y1="213.1114" x2="145.7575" y2="215.9451">
	<stop  offset="0" style="stop-color:#A37182"/>
	<stop  offset="6.400995e-02" style="stop-color:#A06C82"/>
	<stop  offset="0.3673" style="stop-color:#955881"/>
	<stop  offset="0.6757" style="stop-color:#8E4D80"/>
	<stop  offset="0.9944" style="stop-color:#8C4980"/>
</linearGradient>
<ellipse class="st32" cx="145.8" cy="214.5" rx="2.1" ry="1.4"/>
<linearGradient id="SVGID_24_" gradientUnits="userSpaceOnUse" x1="111.9352" y1="98.1908" x2="111.9352" y2="103.2285">
	<stop  offset="0" style="stop-color:#A37182"/>
	<stop  offset="6.400995e-02" style="stop-color:#A06C82"/>
	<stop  offset="0.3673" style="stop-color:#955881"/>
	<stop  offset="0.6757" style="stop-color:#8E4D80"/>
	<stop  offset="0.9944" style="stop-color:#8C4980"/>
</linearGradient>
<ellipse class="st33" cx="111.9" cy="100.7" rx="3.8" ry="2.5"/>
<linearGradient id="SVGID_25_" gradientUnits="userSpaceOnUse" x1="88.7563" y1="95.9869" x2="88.7563" y2="101.0245">
	<stop  offset="0" style="stop-color:#A37182"/>
	<stop  offset="6.400995e-02" style="stop-color:#A06C82"/>
	<stop  offset="0.3673" style="stop-color:#955881"/>
	<stop  offset="0.6757" style="stop-color:#8E4D80"/>
	<stop  offset="0.9944" style="stop-color:#8C4980"/>
</linearGradient>
<ellipse class="st34" cx="88.8" cy="98.5" rx="3.8" ry="2.5"/>
<linearGradient id="SVGID_26_" gradientUnits="userSpaceOnUse" x1="104.3666" y1="91.8938" x2="104.3666" y2="94.4126">
	<stop  offset="0" style="stop-color:#A37182"/>
	<stop  offset="6.400995e-02" style="stop-color:#A06C82"/>
	<stop  offset="0.3673" style="stop-color:#955881"/>
	<stop  offset="0.6757" style="stop-color:#8E4D80"/>
	<stop  offset="0.9944" style="stop-color:#8C4980"/>
</linearGradient>
<ellipse class="st35" cx="104.4" cy="93.2" rx="1.9" ry="1.3"/>
<linearGradient id="SVGID_27_" gradientUnits="userSpaceOnUse" x1="85.6815" y1="84.9671" x2="85.6815" y2="87.1711">
	<stop  offset="0" style="stop-color:#A37182"/>
	<stop  offset="6.400995e-02" style="stop-color:#A06C82"/>
	<stop  offset="0.3673" style="stop-color:#955881"/>
	<stop  offset="0.6757" style="stop-color:#8E4D80"/>
	<stop  offset="0.9944" style="stop-color:#8C4980"/>
</linearGradient>
<ellipse class="st36" cx="85.7" cy="86.1" rx="1.7" ry="1.1"/>
<linearGradient id="SVGID_28_" gradientUnits="userSpaceOnUse" x1="112.4082" y1="73.9473" x2="112.4082" y2="75.8364">
	<stop  offset="0" style="stop-color:#A37182"/>
	<stop  offset="6.400995e-02" style="stop-color:#A06C82"/>
	<stop  offset="0.3673" style="stop-color:#955881"/>
	<stop  offset="0.6757" style="stop-color:#8E4D80"/>
	<stop  offset="0.9944" style="stop-color:#8C4980"/>
</linearGradient>
<ellipse class="st37" cx="112.4" cy="74.9" rx="1.4" ry="0.9"/>
<linearGradient id="SVGID_29_" gradientUnits="userSpaceOnUse" x1="124.4707" y1="81.8186" x2="124.4707" y2="83.3929">
	<stop  offset="0" style="stop-color:#A37182"/>
	<stop  offset="6.400995e-02" style="stop-color:#A06C82"/>
	<stop  offset="0.3673" style="stop-color:#955881"/>
	<stop  offset="0.6757" style="stop-color:#8E4D80"/>
	<stop  offset="0.9944" style="stop-color:#8C4980"/>
</linearGradient>
<ellipse class="st38" cx="124.5" cy="82.6" rx="1.2" ry="0.8"/>
<linearGradient id="SVGID_30_" gradientUnits="userSpaceOnUse" x1="99.3997" y1="99.1354" x2="99.3997" y2="105.7473">
	<stop  offset="0" style="stop-color:#A37182"/>
	<stop  offset="6.400995e-02" style="stop-color:#A06C82"/>
	<stop  offset="0.3673" style="stop-color:#955881"/>
	<stop  offset="0.6757" style="stop-color:#8E4D80"/>
	<stop  offset="0.9944" style="stop-color:#8C4980"/>
</linearGradient>
<ellipse class="st39" cx="99.4" cy="102.4" rx="5" ry="3.3"/>
</svg>
