<?xml version="1.0" encoding="utf-8"?>
<!-- Generator: Adobe Illustrator 22.0.1, SVG Export Plug-In . SVG Version: 6.00 Build 0)  -->
<svg version="1.1" id="Objects" xmlns="http://www.w3.org/2000/svg" xmlns:xlink="http://www.w3.org/1999/xlink" x="0px" y="0px"
	 viewBox="0 0 178.2 158" enable-background="new 0 0 178.2 158" xml:space="preserve">
<g>
	<g>
		<path opacity="0.36" fill="#727272" d="M166.9,114.8c0.3-0.3,0.5-0.6,0.8-0.9c0.1-0.1,0.2-0.2,0.2-0.3c0.2-0.3,0.5-0.6,0.7-1
			c0.1-0.1,0.1-0.2,0.2-0.3c0.2-0.4,0.5-0.7,0.7-1.1c0-0.1,0.1-0.2,0.1-0.2c0.6-0.9,1.1-1.9,1.5-2.8c0,0,0-0.1,0-0.1
			c0.2-0.4,0.4-0.9,0.6-1.4c0.1-0.1,0.1-0.3,0.2-0.4c0.1-0.4,0.3-0.7,0.4-1.1c0.1-0.2,0.1-0.4,0.2-0.5c0.1-0.3,0.2-0.7,0.3-1
			c0.1-0.2,0.1-0.4,0.2-0.6c0.1-0.3,0.2-0.6,0.2-1c0.1-0.2,0.1-0.4,0.1-0.6c0.1-0.3,0.1-0.6,0.2-1c0-0.2,0.1-0.4,0.1-0.6
			c0.1-0.3,0.1-0.7,0.1-1c0-0.2,0.1-0.4,0.1-0.6c0-0.4,0.1-0.7,0.1-1.1c0-0.2,0-0.4,0-0.5c0-0.6,0-1.1,0-1.7V37.6
			c0-16.8-13.7-30.5-30.5-30.5H59.5c-0.5,0-1,0-1.5,0c-0.2,0-0.3,0-0.5,0c-0.3,0-0.7,0-1,0.1c-0.2,0-0.4,0.1-0.6,0.1
			c-0.3,0-0.6,0.1-0.9,0.1c-0.2,0-0.4,0.1-0.7,0.1c-0.3,0-0.5,0.1-0.8,0.1c-0.2,0-0.5,0.1-0.7,0.2C52.6,7.9,52.3,8,52.1,8
			c-0.2,0.1-0.5,0.1-0.7,0.2c-0.2,0.1-0.5,0.1-0.7,0.2c-0.2,0.1-0.5,0.2-0.7,0.2c-0.2,0.1-0.4,0.1-0.6,0.2c-0.2,0.1-0.5,0.2-0.7,0.3
			c-0.2,0.1-0.4,0.2-0.6,0.2c-0.3,0.1-0.5,0.2-0.7,0.3C47,9.8,46.8,9.9,46.7,10c-0.3,0.1-0.5,0.2-0.8,0.4c-0.2,0.1-0.3,0.2-0.5,0.3
			c-0.3,0.1-0.5,0.3-0.8,0.4c-0.2,0.1-0.3,0.2-0.5,0.3c-0.3,0.2-0.5,0.3-0.8,0.5c-0.1,0.1-0.3,0.2-0.4,0.3c-0.3,0.2-0.5,0.3-0.8,0.5
			c-0.1,0.1-0.2,0.2-0.4,0.3c-0.3,0.2-0.5,0.4-0.8,0.6c-0.1,0.1-0.2,0.2-0.3,0.2c-0.3,0.2-0.6,0.4-0.8,0.7c-0.1,0.1-0.1,0.1-0.2,0.2
			C33.2,20,29,28.3,29,37.6V95c0,9,3.9,17,10,22.6l8.9,5.6c3.6,1.5,7.5,2.3,11.6,2.3h84.3c8,0,15.3-3.1,20.7-8.1
			c0.1-0.1,0.1-0.1,0.2-0.2c0.3-0.3,0.6-0.6,1-0.9c0.1-0.1,0.2-0.2,0.2-0.2c0.3-0.3,0.6-0.6,0.8-0.9
			C166.8,115,166.8,114.9,166.9,114.8z"/>
	</g>
	<g>
		<linearGradient id="SVGID_1_" gradientUnits="userSpaceOnUse" x1="45.8687" y1="147.5145" x2="144.2555" y2="4.2119">
			<stop  offset="0" style="stop-color:#FFFFFF"/>
			<stop  offset="1" style="stop-color:#C9C7C7"/>
		</linearGradient>
		<path fill="url(#SVGID_1_)" d="M143.7,7.1H59.5C42.6,7.1,29,20.8,29,37.6V95c0,9,3.9,17,10,22.6l-21.1,28.2l29.9-22.5
			c3.6,1.5,7.5,2.3,11.6,2.3h84.3c16.8,0,30.5-13.7,30.5-30.5V37.6C174.3,20.8,160.6,7.1,143.7,7.1z"/>
		<path fill="#FFFFFF" d="M143.7,7.1H59.5c-8,0-15.2,3-20.6,8c5.3-4.4,12.1-7.1,19.5-7.1h84.3c16.8,0,30.5,13.7,30.5,30.5v57.4
			c0,8.9-3.8,16.9-9.9,22.5c6.7-5.6,11-14,11-23.4V37.6C174.3,20.8,160.6,7.1,143.7,7.1z"/>
	</g>
	<g opacity="0.3">
		<path fill="#6E6B6B" d="M107.5,67.6c0,2.2-1.8,4-3.9,4h-0.1c-2.2,0-4-1.8-4-4v-0.1c0-2.2,1.8-4,4-4h0.1c2.2,0,3.9,1.8,3.9,4V67.6z
			"/>
		<path fill="#6E6B6B" d="M125.9,67.6c0,2.2-1.8,4-4,4h-0.1c-2.2,0-3.9-1.8-3.9-4v-0.1c0-2.2,1.8-4,3.9-4h0.1c2.2,0,4,1.8,4,4V67.6z
			"/>
		<path fill="#6E6B6B" d="M89.1,67.6c0,2.2-1.8,4-4,4H85c-2.2,0-4-1.8-4-4v-0.1c0-2.2,1.8-4,4-4h0.1c2.2,0,4,1.8,4,4V67.6z"/>
	</g>
</g>
</svg>
