<?xml version="1.0" encoding="utf-8"?>
<!-- Generator: Adobe Illustrator 22.1.0, SVG Export Plug-In . SVG Version: 6.00 Build 0)  -->
<svg version="1.1" id="Layer_1" xmlns="http://www.w3.org/2000/svg" xmlns:xlink="http://www.w3.org/1999/xlink" x="0px" y="0px"
	 viewBox="0 0 250 250" style="enable-background:new 0 0 250 250;" xml:space="preserve">
<style type="text/css">
	.st0{fill:#87AE32;stroke:#87AE32;stroke-miterlimit:10;}
	.st1{opacity:0.5;}
	.st2{fill:#63AA34;}
	.st3{fill:#63AA34;stroke:#63AA34;stroke-miterlimit:10;}
	.st4{display:none;}
	.st5{display:inline;fill:#808080;}
	.st6{fill:#A6A8AB;}
	.st7{fill:#4E5E1B;}
	.st8{fill:#938787;}
	.st9{fill:#C6B8A3;}
	.st10{fill:#AA9E91;}
	.st11{fill:#B7A68A;}
	.st12{fill:#A08D70;}
	.st13{fill:#9B9494;}
	.st14{fill:#7F7574;}
	.st15{fill:#D6C8B4;}
	.st16{fill:#E2D4C3;}
	.st17{fill:#776A68;}
</style>
<polygon class="st0" points="250,187.5 126.6,250 0.4,187.5 125.2,125 "/>
<g>
	<g class="st1">
		<polygon class="st2" points="105.4,147.2 124,156.6 105.4,165.9 86.8,156.5 		"/>
		<polygon class="st2" points="61,176.1 72.1,181.6 60.9,187.3 49.8,181.6 		"/>
		<polygon class="st2" points="145.9,156.4 157,162 145.9,167.5 134.8,162 		"/>
		<polygon class="st2" points="212.8,180.2 224.1,185.7 212.8,191.3 201.7,185.7 		"/>
		<polygon class="st2" points="130.8,226.3 141.8,231.9 130.6,237.4 119.5,231.9 		"/>
		<polygon class="st3" points="127.7,196.9 135.9,201 127.7,205 119.5,201 		"/>
	</g>
</g>
<g class="st4">
	<path class="st5" d="M126.6,1.6L250,63.3v123.6l-123.4,61.8L3.2,186.9V63.3L126.6,1.6 M126.6,0.1L1.8,62.6v124.9L126.6,250
		l124.8-62.5V62.6L126.6,0.1L126.6,0.1z"/>
</g>
<g id="XMLID_468_">
	<g id="XMLID_306_">
		<polygon id="XMLID_307_" class="st6" points="124.3,203.7 93.5,203.7 62.7,216.6 124.3,216.6 		"/>
		<path id="XMLID_308_" class="st7" d="M215.4,156.2c-21.6-24-43.2-48-64.8-72l50.6,91.9l-162.8-2.6L7.2,193.7h175l-25.2,23.2
			l-32.6,20.5c19.1-5,38.3-10,57.4-15c22.8-11.8,45.5-23.6,68.3-35.4C238.5,176.7,226.9,166.4,215.4,156.2z"/>
	</g>
	<polygon id="XMLID_282_" class="st8" points="212.7,44.2 215,93.9 190.9,134 162.9,153.2 135.7,233 190.3,206.8 210.7,180.6 
		227.1,189.1 244.8,180.6 244.8,134 232.1,116.3 232.1,67.6 	"/>
	<polygon id="XMLID_283_" class="st9" points="7.2,193.7 36.6,156.8 82.3,131 126.4,75.7 152.9,63.9 179.2,37.8 212.7,44.2 
		215,93.9 190.9,134 162.9,153.2 135.7,233 95.6,213.7 62.7,216.6 82.3,190.7 51.8,192.7 41,187.1 	"/>
	<polygon id="XMLID_284_" class="st10" points="212.7,44.2 221,69.5 232.1,116.3 232.1,142.1 244.8,180.6 244.8,134 232.1,116.3 
		232.1,67.6 	"/>
	<polygon id="XMLID_285_" class="st11" points="7.2,193.7 77.9,169.5 91.9,143.9 127.6,112.4 144,122.4 82.3,190.7 51.8,192.7 
		41,187.1 	"/>
	<polygon id="XMLID_286_" class="st12" points="62.7,216.6 107.9,189.3 144,122.4 121.4,193.7 95.6,213.7 	"/>
	<polygon id="XMLID_287_" class="st13" points="190.9,134 164.7,183.5 175.3,214 135.7,233 162.9,153.2 	"/>
	<polygon id="XMLID_288_" class="st14" points="190.3,206.8 210.7,158.3 210.7,180.6 	"/>
	<polygon id="XMLID_275_" class="st14" points="244.8,180.6 232.1,142.1 224.6,156 227.1,189.1 	"/>
	<polygon id="XMLID_291_" class="st11" points="86.5,183.5 91.9,143.9 144,122.4 107.9,189.3 	"/>
	<polygon id="XMLID_290_" class="st15" points="82.3,131 36.6,156.8 91.9,143.9 127.6,112.4 126.4,75.7 	"/>
	<polygon id="XMLID_292_" class="st12" points="77.9,169.5 82.3,190.7 86.5,186.1 91.9,143.9 	"/>
	<polygon id="XMLID_293_" class="st9" points="121.4,193.7 145.5,204.3 135.7,233 124.3,237.4 95.6,213.7 	"/>
	<polygon id="XMLID_289_" class="st11" points="162.9,153.2 136.5,146.1 121.4,193.7 133.6,199.1 124.3,237.4 135.7,233 	"/>
	<polygon id="XMLID_294_" class="st12" points="150.6,189.3 133.6,199.1 124.3,237.4 135.7,233 	"/>
	<polygon id="XMLID_69_" class="st9" points="152.9,63.9 193.2,68.7 205.5,40.7 179.2,37.8 	"/>
	<polygon id="XMLID_298_" class="st16" points="126.4,75.7 137.5,109.7 158.2,128.1 144,122.4 127.6,112.4 	"/>
	<polygon id="XMLID_295_" class="st16" points="158.2,128.1 142.2,147.6 121.4,193.7 144,122.4 	"/>
	<polygon id="XMLID_300_" class="st16" points="127.6,112.4 91.9,143.9 62.7,150.7 95.1,134 127.1,96.4 	"/>
	<polygon id="XMLID_299_" class="st17" points="164.7,183.5 167.6,191.7 175.3,214 180.2,211.6 174.1,178.1 186.1,153 210.7,123.6 
		215,93.9 190.9,134 	"/>
	<polygon id="XMLID_311_" class="st17" points="135.7,233 145.5,228.3 158.2,197.8 162.9,153.2 	"/>
	<polygon id="XMLID_296_" class="st13" points="193.2,68.7 205.1,42.7 212.7,44.2 215,93.9 205.5,123.6 190.9,134 162.9,153.2 
		170.9,142.1 171.5,132.3 197.1,106.5 196.1,74.5 	"/>
	<polygon id="XMLID_297_" class="st12" points="155,99.7 161.3,75.7 193.2,68.7 	"/>
	<polygon id="XMLID_301_" class="st16" points="193.2,34.8 186,59.9 161.3,75.7 193.2,68.7 205.5,40.7 	"/>
	<polygon id="XMLID_302_" class="st17" points="155,99.7 190.9,87.4 200.5,63.8 205.5,40.7 193.2,68.7 	"/>
	<polygon id="XMLID_312_" class="st11" points="197.1,106.5 164.7,128.1 162.9,153.2 170.9,142.1 185.9,128.1 	"/>
	<polygon id="XMLID_316_" class="st16" points="196.1,74.5 197.1,106.5 164.7,128.1 189.8,101.9 190.9,87.4 	"/>
	<polygon id="XMLID_317_" class="st10" points="215,93.9 190.9,134 205.5,123.6 	"/>
</g>
</svg>
