<?xml version="1.0" encoding="utf-8"?>
<!-- Generator: Adobe Illustrator 22.1.0, SVG Export Plug-In . SVG Version: 6.00 Build 0)  -->
<svg version="1.1" id="Layer_1" xmlns="http://www.w3.org/2000/svg" xmlns:xlink="http://www.w3.org/1999/xlink" x="0px" y="0px"
	 viewBox="0 0 250 250" style="enable-background:new 0 0 250 250;" xml:space="preserve">
<style type="text/css">
	.st0{fill:#87AE32;stroke:#87AE32;stroke-miterlimit:10;}
	.st1{opacity:0.5;}
	.st2{fill:#63AA34;}
	.st3{fill:#63AA34;stroke:#63AA34;stroke-miterlimit:10;}
	.st4{display:none;}
	.st5{display:inline;fill:#808080;}
	.st6{fill:#929497;}
	.st7{fill:#C6B8A3;}
	.st8{fill:#938787;}
	.st9{fill:#7F7574;}
	.st10{fill:#B7A68A;}
	.st11{fill:#A08D70;}
	.st12{fill:#B2A79A;}
	.st13{fill:#9B9494;}
	.st14{fill:#D6C8B4;}
	.st15{fill:#AA9E91;}
	.st16{fill:#E2D4C3;}
	.st17{fill:#776A68;}
</style>
<polygon class="st0" points="250,187.5 126.6,250 0.4,187.5 125.2,125 "/>
<g>
	<g class="st1">
		<polygon class="st2" points="105.4,147.2 124,156.6 105.4,165.9 86.8,156.5 		"/>
		<polygon class="st2" points="61,176.1 72.1,181.6 60.9,187.3 49.8,181.6 		"/>
		<polygon class="st2" points="145.9,156.4 157,162 145.9,167.5 134.8,162 		"/>
		<polygon class="st2" points="212.8,180.2 224.1,185.7 212.8,191.3 201.7,185.7 		"/>
		<polygon class="st2" points="130.8,226.3 141.8,231.9 130.6,237.4 119.5,231.9 		"/>
		<polygon class="st3" points="127.7,196.9 135.9,201 127.7,205 119.5,201 		"/>
	</g>
</g>
<g class="st4">
	<path class="st5" d="M126.6,1.6L250,63.3v123.6l-123.4,61.8L3.2,186.9V63.3L126.6,1.6 M126.6,0.1L1.8,62.6v124.9L126.6,250
		l124.8-62.5V62.6L126.6,0.1L126.6,0.1z"/>
</g>
<g id="XMLID_277_">
	<polygon id="XMLID_70_" class="st6" points="118.5,243.8 67.2,220 38.9,192.4 3.2,177.7 118.5,111.5 233.8,177.7 212.6,189.8 
		176.6,197.5 163.4,229 	"/>
	<polygon id="XMLID_71_" class="st7" points="104,134.3 85.1,139.4 33.6,109.9 11.8,97.3 42.2,79.8 62.6,78 113.5,38.9 142.3,43.9 
		192.1,90.1 215.2,97.3 198.3,115.6 132.4,144.8 	"/>
	<polygon id="XMLID_110_" class="st8" points="132.4,144.8 118.5,243.8 163.4,229 176.6,197.5 198.3,115.6 	"/>
	<polygon id="XMLID_228_" class="st9" points="215.2,97.3 212.6,189.8 176.6,197.5 198.3,115.6 	"/>
	<polygon id="XMLID_240_" class="st8" points="215.2,97.3 233.8,177.7 212.6,189.8 	"/>
	<polygon id="XMLID_238_" class="st10" points="104,134.3 67.2,220 118.5,243.8 122.4,215.7 135.5,189.1 127.5,179.7 132.4,144.8 	
		"/>
	<polygon id="XMLID_242_" class="st11" points="85.1,139.4 67.2,220 75.1,223.7 83.1,183.1 104,134.3 	"/>
	<polygon id="XMLID_241_" class="st10" points="67.2,220 38.9,192.4 28.6,107 85.1,139.4 	"/>
	<polygon id="XMLID_243_" class="st11" points="11.8,97.3 27.2,151.3 21,185 38.9,192.4 28.6,107 	"/>
	<polygon id="XMLID_245_" class="st10" points="11.8,97.3 4.2,168.5 3.2,186.9 36.3,191.3 27.2,151.3 	"/>
	<polygon id="XMLID_246_" class="st12" points="142.3,43.9 158.4,90.6 132.4,129.1 187.5,107.8 193.5,84.9 	"/>
	<polygon id="XMLID_252_" class="st13" points="142.3,43.9 158.4,90.6 187.5,107.8 193.5,84.9 	"/>
	<polygon id="XMLID_244_" class="st12" points="198.3,115.6 202.3,91.9 215.2,97.3 	"/>
	<polygon id="XMLID_109_" class="st14" points="62.6,78 64.7,97.3 132.4,129.1 140.7,86.5 118.5,66.7 113.5,38.9 	"/>
	<polygon id="XMLID_248_" class="st15" points="140.7,86.5 158.4,90.6 132.4,129.1 	"/>
	<polygon id="XMLID_249_" class="st9" points="127.5,179.7 113.5,204.5 118.5,243.8 122.4,215.7 140.7,181.3 132.4,144.8 	"/>
	<polygon id="XMLID_250_" class="st16" points="140.7,86.5 118.5,66.7 113.5,38.9 97.7,51 109.5,77.8 	"/>
	<polygon id="XMLID_247_" class="st16" points="85.1,139.4 104,134.3 132.4,144.8 108.7,125.1 80.5,129.1 25.3,97.3 42.2,79.8 
		11.8,97.3 	"/>
	<polygon id="XMLID_251_" class="st17" points="192.1,90.1 187.5,107.8 132.4,129.1 168.4,129.1 198.3,115.6 202.3,91.9 	"/>
</g>
</svg>
