<svg width="94" height="122" xmlns="http://www.w3.org/2000/svg">
 <defs>
  <radialGradient gradientUnits="userSpaceOnUse" r="26.4974" cy="568.3694" cx="944.4848" id="SVGID_1_">
   <stop stop-color="#E0B6A5" offset="0"/>
   <stop stop-color="#DFB5A2" offset="0.2686"/>
   <stop stop-color="#DEB197" offset="0.4925"/>
   <stop stop-color="#DAAB86" offset="0.7004"/>
   <stop stop-color="#D6A36E" offset="0.8974"/>
   <stop stop-color="#D39D5E" offset="1"/>
  </radialGradient>
  <radialGradient gradientUnits="userSpaceOnUse" gradientTransform="matrix(1 0 0 6 0 -2805.397)" r="43.0912" cy="561.0794" cx="959.2523" id="SVGID_2_">
   <stop stop-color="#A37182" offset="0"/>
   <stop stop-color="#9E6882" offset="0.1103"/>
   <stop stop-color="#914E82" offset="0.2932"/>
   <stop stop-color="#873A82" offset="0.4136"/>
   <stop stop-color="#873A5F" offset="0.9944"/>
  </radialGradient>
  <radialGradient gradientUnits="userSpaceOnUse" r="20.2456" cy="586.2992" cx="979.4301" id="SVGID_3_">
   <stop stop-color="#CC9A88" offset="0"/>
   <stop stop-color="#CB9986" offset="0.4087"/>
   <stop stop-color="#C9967E" offset="0.6099"/>
   <stop stop-color="#C59171" offset="0.7657"/>
   <stop stop-color="#C08B5F" offset="0.8974"/>
   <stop stop-color="#BA834A" offset="1"/>
  </radialGradient>
  <linearGradient y2="0.742758" x2="0.217501" y1="0.143151" x1="0.895265" id="SVGID_5_">
   <stop stop-color="#FFFFFF" offset="0"/>
   <stop stop-color="#FFDDEA" stop-opacity="0.918" offset="0.082006"/>
   <stop stop-color="#FFBFD7" stop-opacity="0.8256" offset="0.1744"/>
   <stop stop-color="#FFA6C7" stop-opacity="0.7235" offset="0.2765"/>
   <stop stop-color="#FF93BB" stop-opacity="0.6098" offset="0.3902"/>
   <stop stop-color="#FF85B2" stop-opacity="0.4779" offset="0.5221"/>
   <stop stop-color="#FF7DAD" stop-opacity="0.3119" offset="0.6881"/>
   <stop stop-color="#FF7BAC" stop-opacity="0" offset="1"/>
  </linearGradient>
  <linearGradient y2="0.497731" x2="1.000515" y1="0.497731" x1="0.003367" id="SVGID_7_">
   <stop stop-color="#943777" offset="0.00049"/>
   <stop stop-color="#9A4E7B" offset="0.319"/>
   <stop stop-color="#A16880" offset="0.7437"/>
   <stop stop-color="#A37182" offset="1"/>
  </linearGradient>
  <linearGradient y2="0.50697" x2="0.994326" y1="0.50697" x1="-0.003201" id="SVGID_8_">
   <stop stop-color="#A37182" offset="0"/>
   <stop stop-color="#A16880" offset="0.2563"/>
   <stop stop-color="#9A4E7B" offset="0.681"/>
   <stop stop-color="#943777" offset="0.9995"/>
  </linearGradient>
  <linearGradient y2="0.506456" x2="1.000978" y1="0.506456" x1="0.006175" id="SVGID_9_">
   <stop stop-color="#A37182" offset="0"/>
   <stop stop-color="#9B6882" offset="0.4538"/>
   <stop stop-color="#8D5682" offset="0.9995"/>
  </linearGradient>
  <linearGradient y2="0.484526" x2="0.989413" y1="0.484526" x1="-0.009946" id="SVGID_10_">
   <stop stop-color="#8D5682" offset="0.00049"/>
   <stop stop-color="#9B6882" offset="0.5462"/>
   <stop stop-color="#A37182" offset="1"/>
  </linearGradient>
  <radialGradient gradientUnits="userSpaceOnUse" r="3.1627" cy="505.9058" cx="934.9702" id="SVGID_11_">
   <stop stop-color="#CC9A88" offset="0"/>
   <stop stop-color="#CB9986" offset="0.4087"/>
   <stop stop-color="#C9967E" offset="0.6099"/>
   <stop stop-color="#C59171" offset="0.7657"/>
   <stop stop-color="#C08B5F" offset="0.8974"/>
   <stop stop-color="#BA834A" offset="1"/>
  </radialGradient>
  <radialGradient gradientUnits="userSpaceOnUse" r="3.2708" cy="506.1763" cx="980.4139" id="SVGID_12_">
   <stop stop-color="#CC9A88" offset="0"/>
   <stop stop-color="#CB9986" offset="0.4087"/>
   <stop stop-color="#C9967E" offset="0.6099"/>
   <stop stop-color="#C59171" offset="0.7657"/>
   <stop stop-color="#C08B5F" offset="0.8974"/>
   <stop stop-color="#BA834A" offset="1"/>
  </radialGradient>
  <linearGradient y2="1.013177" x2="0.50064" y1="0.005948" x1="0.50064" id="SVGID_13_">
   <stop stop-color="#A37182" offset="0"/>
   <stop stop-color="#A06C82" offset="0.06401"/>
   <stop stop-color="#955881" offset="0.3673"/>
   <stop stop-color="#8E4D80" offset="0.6757"/>
   <stop stop-color="#8C4980" offset="0.9944"/>
  </linearGradient>
  <linearGradient y2="1.013667" x2="0.506208" y1="-0.004619" x1="0.506208" id="SVGID_14_">
   <stop stop-color="#A37182" offset="0"/>
   <stop stop-color="#A06C82" offset="0.06401"/>
   <stop stop-color="#955881" offset="0.3673"/>
   <stop stop-color="#8E4D80" offset="0.6757"/>
   <stop stop-color="#8C4980" offset="0.9944"/>
  </linearGradient>
  <linearGradient y2="0.982024" x2="0.486684" y1="-0.005851" x1="0.486684" id="SVGID_15_">
   <stop stop-color="#A37182" offset="0"/>
   <stop stop-color="#A06C82" offset="0.06401"/>
   <stop stop-color="#955881" offset="0.3673"/>
   <stop stop-color="#8E4D80" offset="0.6757"/>
   <stop stop-color="#8C4980" offset="0.9944"/>
  </linearGradient>
  <linearGradient y2="0.978075" x2="0.487464" y1="-0.000625" x1="0.487464" id="SVGID_16_">
   <stop stop-color="#A37182" offset="0"/>
   <stop stop-color="#A06C82" offset="0.06401"/>
   <stop stop-color="#955881" offset="0.3673"/>
   <stop stop-color="#8E4D80" offset="0.6757"/>
   <stop stop-color="#8C4980" offset="0.9944"/>
  </linearGradient>
  <linearGradient y2="1.003305" x2="0.510003" y1="0.018864" x1="0.510003" id="SVGID_17_">
   <stop stop-color="#A37182" offset="0"/>
   <stop stop-color="#A06C82" offset="0.06401"/>
   <stop stop-color="#955881" offset="0.3673"/>
   <stop stop-color="#8E4D80" offset="0.6757"/>
   <stop stop-color="#8C4980" offset="0.9944"/>
  </linearGradient>
  <linearGradient y2="1.000569" x2="0.516182" y1="-0.013749" x1="0.516182" id="SVGID_18_">
   <stop stop-color="#A37182" offset="0"/>
   <stop stop-color="#A06C82" offset="0.06401"/>
   <stop stop-color="#955881" offset="0.3673"/>
   <stop stop-color="#8E4D80" offset="0.6757"/>
   <stop stop-color="#8C4980" offset="0.9944"/>
  </linearGradient>
  <linearGradient y2="1.0027" x2="0.489056" y1="-0.02005" x1="0.489056" id="SVGID_19_">
   <stop stop-color="#A37182" offset="0"/>
   <stop stop-color="#A06C82" offset="0.06401"/>
   <stop stop-color="#955881" offset="0.3673"/>
   <stop stop-color="#8E4D80" offset="0.6757"/>
   <stop stop-color="#8C4980" offset="0.9944"/>
  </linearGradient>
  <linearGradient y2="0.994055" x2="0.504922" y1="-0.051883" x1="0.504922" id="SVGID_20_">
   <stop stop-color="#A37182" offset="0"/>
   <stop stop-color="#A06C82" offset="0.06401"/>
   <stop stop-color="#955881" offset="0.3673"/>
   <stop stop-color="#8E4D80" offset="0.6757"/>
   <stop stop-color="#8C4980" offset="0.9944"/>
  </linearGradient>
  <linearGradient y2="1.02911" x2="0.469383" y1="-0.01689" x1="0.469383" id="SVGID_21_">
   <stop stop-color="#A37182" offset="0"/>
   <stop stop-color="#A06C82" offset="0.06401"/>
   <stop stop-color="#955881" offset="0.3673"/>
   <stop stop-color="#8E4D80" offset="0.6757"/>
   <stop stop-color="#8C4980" offset="0.9944"/>
  </linearGradient>
  <linearGradient y2="1.00568" x2="0.500805" y1="-0.027375" x1="0.500805" id="SVGID_22_">
   <stop stop-color="#A37182" offset="0"/>
   <stop stop-color="#A06C82" offset="0.06401"/>
   <stop stop-color="#955881" offset="0.3673"/>
   <stop stop-color="#8E4D80" offset="0.6757"/>
   <stop stop-color="#8C4980" offset="0.9944"/>
  </linearGradient>
  <linearGradient y2="-Infinity" x2="0.482309" y1="-Infinity" x1="0.482309" id="SVGID_23_">
   <stop stop-color="#A37182" offset="0"/>
   <stop stop-color="#A06C82" offset="0.06401"/>
   <stop stop-color="#955881" offset="0.3673"/>
   <stop stop-color="#8E4D80" offset="0.6757"/>
   <stop stop-color="#8C4980" offset="0.9944"/>
  </linearGradient>
  <linearGradient y2="1.006992" x2="0.523633" y1="-0.038945" x1="0.523633" id="SVGID_24_">
   <stop stop-color="#A37182" offset="0"/>
   <stop stop-color="#A06C82" offset="0.06401"/>
   <stop stop-color="#955881" offset="0.3673"/>
   <stop stop-color="#8E4D80" offset="0.6757"/>
   <stop stop-color="#8C4980" offset="0.9944"/>
  </linearGradient>
  <linearGradient y2="0.980171" x2="0.514104" y1="-0.011563" x1="0.514104" id="SVGID_25_">
   <stop stop-color="#A37182" offset="0"/>
   <stop stop-color="#A06C82" offset="0.06401"/>
   <stop stop-color="#955881" offset="0.3673"/>
   <stop stop-color="#8E4D80" offset="0.6757"/>
   <stop stop-color="#8C4980" offset="0.9944"/>
  </linearGradient>
  <linearGradient y2="0.979633" x2="0.510229" y1="-0.0121" x1="0.510229" id="SVGID_26_">
   <stop stop-color="#A37182" offset="0"/>
   <stop stop-color="#A06C82" offset="0.06401"/>
   <stop stop-color="#955881" offset="0.3673"/>
   <stop stop-color="#8E4D80" offset="0.6757"/>
   <stop stop-color="#8C4980" offset="0.9944"/>
  </linearGradient>
  <linearGradient y2="1.024232" x2="0.476491" y1="-0.03834" x1="0.476491" id="SVGID_27_">
   <stop stop-color="#A37182" offset="0"/>
   <stop stop-color="#A06C82" offset="0.06401"/>
   <stop stop-color="#955881" offset="0.3673"/>
   <stop stop-color="#8E4D80" offset="0.6757"/>
   <stop stop-color="#8C4980" offset="0.9944"/>
  </linearGradient>
  <linearGradient y2="0.969312" x2="0.515723" y1="0.039598" x1="0.515723" id="SVGID_28_">
   <stop stop-color="#A37182" offset="0"/>
   <stop stop-color="#A06C82" offset="0.06401"/>
   <stop stop-color="#955881" offset="0.3673"/>
   <stop stop-color="#8E4D80" offset="0.6757"/>
   <stop stop-color="#8C4980" offset="0.9944"/>
  </linearGradient>
  <linearGradient y2="0.96898" x2="0.52348" y1="0.03923" x1="0.52348" id="SVGID_29_">
   <stop stop-color="#A37182" offset="0"/>
   <stop stop-color="#A06C82" offset="0.06401"/>
   <stop stop-color="#955881" offset="0.3673"/>
   <stop stop-color="#8E4D80" offset="0.6757"/>
   <stop stop-color="#8C4980" offset="0.9944"/>
  </linearGradient>
  <linearGradient y2="0.925624" x2="0.470012" y1="-0.004076" x1="0.470012" id="SVGID_30_">
   <stop stop-color="#A37182" offset="0"/>
   <stop stop-color="#A06C82" offset="0.06401"/>
   <stop stop-color="#955881" offset="0.3673"/>
   <stop stop-color="#8E4D80" offset="0.6757"/>
   <stop stop-color="#8C4980" offset="0.9944"/>
  </linearGradient>
  <linearGradient y2="0.982053" x2="0.503644" y1="0.005803" x1="0.503644" id="SVGID_31_">
   <stop stop-color="#A37182" offset="0"/>
   <stop stop-color="#A06C82" offset="0.06401"/>
   <stop stop-color="#955881" offset="0.3673"/>
   <stop stop-color="#8E4D80" offset="0.6757"/>
   <stop stop-color="#8C4980" offset="0.9944"/>
  </linearGradient>
  <radialGradient gradientUnits="userSpaceOnUse" r="25.1098" cy="549.4117" cx="954.0196" id="SVGID_32_">
   <stop stop-color="#FFFFFF" offset="0"/>
   <stop stop-color="#F9F9F9" offset="0.2278"/>
   <stop stop-color="#E9E9E9" offset="0.5227"/>
   <stop stop-color="#CFCFCF" offset="0.853"/>
   <stop stop-color="#C1C1C1" offset="0.9944"/>
  </radialGradient>
 </defs>
 <g>
  <title>background</title>
  <rect fill="none" id="canvas_background" height="124" width="96" y="-1" x="-1"/>
 </g>
 <g>
  <title>Layer 1</title>
  <path id="svg_1" d="m30.6,42.9c0,0 9.5,10 0,18.6s-29.6,9.9 -18,33s0,0 0,0l2.2,-14.6l10.4,-7.1l16.9,-10l7.8,-12.8l-2.6,-8l-16.7,0.9z" fill="url(#SVGID_1_)"/>
  <path id="svg_2" d="m10.6,93.2c0,0 -5.2,-16.9 21.6,-26.4c0,0 14.2,-3.1 14.7,-21.8c0,0 -10.9,9.2 -19.2,-4.2c0,0 -4.8,-9.9 1.9,-17.7c0,0 14.7,-13.4 28.3,-4.6c0,0 3.7,1.5 5.9,6.6c0,0 12.1,19.3 -14.1,39.4c0,0 -27.7,14.9 -5.4,29.9c5.3,1.8 12,-0.3 12,-0.3c10,-5.4 4.6,-9.7 4.6,-9.7c-2.6,-1.1 -4.8,1.3 -4.8,1.3c-3.3,3 -0.6,8 -0.2,9.7c0.4,1.7 -0.8,3.4 -0.8,3.4l-2,-8.4c0,-6.3 6.9,-7.8 6.9,-7.8c14.3,-1.5 16,6.3 16,6.3c6.7,10 -1.8,15.3 -1.8,15.3s-3,1.9 0.7,5s-5.4,2.8 -5.4,2.8s-6,-2.4 -8.2,1.5c-2.2,3.9 -10.8,0 -10.8,0s-3,-2.8 -9.9,1.7c-6.9,4.5 -10.6,-4.1 -10.6,-4.1s-0.6,-5.2 -9.1,-3.9c0,0 -6,2.1 -5.3,-6.2c0,0 0.7,-2.3 -1.3,-3.3c0,0.1 -3.6,-1.1 -3.7,-4.5z" fill="url(#SVGID_2_)"/>
  <path id="svg_3" d="m73.3,104.2l2.2,-2c0.6,-0.2 1.5,-2 1.5,-2c3,-7.4 -2.4,-11.5 -2.4,-11.5c-8.1,-8.5 -16.8,-4.7 -16.8,-4.7c-6.9,2.6 -3.7,9.1 -3.7,9.1s2,6.1 0,6.1s-5,-2 -5,-2c-3,-4.1 -7.8,-12.1 -3.3,-14.3c4.5,-2.2 4.1,-5.8 4.1,-5.8s0.6,-6.3 5,-2.6c4.5,3.7 9.3,-3.2 9.3,-3.2s6.5,-1.1 7.4,4.1c0.9,5.2 5.2,3.3 5.2,3.3c11,-0.7 7.4,2.6 7.4,2.6s-3.5,3.5 -1.5,6.3c2,2.8 1.3,6 1.3,6s-0.4,5 -9.9,12.3c0,0 -1.7,1.3 0.4,2.8c0,0 2,1.8 0.5,2.7c0,0 1.1,-1.4 -0.9,-2.1c0.2,0 -2.8,-1.3 -0.8,-5.1z" fill="url(#SVGID_3_)"/>
  <path id="svg_5" d="m63.5,26.7c-3.4,-6.5 -7.2,-10 -15.6,-10s-19.7,6.3 -19.7,13.6c0,0 -1.7,16.2 11.7,16.4l15.1,-6.7c0,0 3.2,6.7 -1.3,14.9c-4.5,8.2 4.6,0 4.6,0s10.9,-17.2 5.2,-28.2z" fill="url(#SVGID_5_)" opacity="0.69"/>
  <path id="svg_7" d="m54.8,21.4c3.4,-1.1 6.9,-4.2 7.4,-4.7c0,0 0.1,-0.1 0.1,-0.1c0.2,-0.2 1.1,-1.1 3.3,-1.5c0.9,-0.2 2.6,-0.8 2.3,-1.5l-1.7,-1.3c-0.3,-0.6 -1,-1 -1.8,-0.8l-2.5,0c-0.7,0.1 -0.8,1.2 -0.8,1.8c0.1,1.1 -0.1,3 -1.6,4.5c-2,2 -8.4,4.1 -10,4.6c-0.2,0.1 -0.4,0.1 -0.7,0.1c-0.6,0 -2,0 -1.4,1.3c0.1,0.1 0.1,0.2 0.2,0.3c0.4,0.4 1.6,1.5 3.5,0.4c0.2,-0.1 0.3,-0.2 0.4,-0.3c0.5,-0.6 2,-2.4 3.3,-2.8z" fill="url(#SVGID_7_)"/>
  <path id="svg_8" d="m20.2,13.8c-0.4,0.2 -0.4,0.7 0.1,0.8c1.9,0.4 2.6,1.2 2.7,1.4c0,0 0,0 0,0c0.2,0.3 1.7,2.9 4.8,4.2c2.4,1 4.4,2.8 4.6,3.5c0.1,0.2 0.2,0.3 0.5,0.3c4.9,0.2 2.2,-2 1.7,-2.5c-0.1,0 -0.1,-0.1 -0.2,-0.1c-0.9,-0.2 -7.5,-1.9 -9.4,-3.9c-1.2,-1.3 -1,-4.6 -0.8,-5.9c0.1,-0.4 -0.4,-1 -0.8,-0.8l-0.8,0.5l-2.4,2.5z" fill="url(#SVGID_8_)"/>
  <path id="svg_9" d="m33.2,36.3c0,0 -5.6,1.4 -8.2,4.2c0,0 -3.1,1.1 -0.6,2.8c0,0 2.2,1.4 3.5,-1.1c0,0 0.3,-1.2 -0.1,-1.8c0,0 -1.5,-4 6.9,-1.2c0,0 1.3,0.5 1.3,-1.6c0,0.1 -0.3,-2.8 -2.8,-1.3z" fill="url(#SVGID_9_)"/>
  <path id="svg_10" d="m47.7,40.4c0,0 4.4,-1.8 7.2,1.3c0,0 -0.5,1.9 1.5,1.5c0,0 1.8,0 1.1,-2c0,0 -0.6,-0.6 -1.6,0c0,0 -3.9,-4.4 -8.1,-4.5s-1.8,5.1 -0.1,3.7z" fill="url(#SVGID_10_)"/>
  <ellipse id="svg_11" ry="3" rx="3.3" cy="10.9" cx="20" fill="url(#SVGID_11_)"/>
  <ellipse id="svg_12" ry="3.1" rx="3.5" cy="11.2" cx="65.4" fill="url(#SVGID_12_)"/>
  <circle id="svg_13" r="1" cy="9.6" cx="19.2" fill="#F7EBF6"/>
  <circle id="svg_14" r="1.1" cy="10" cx="64.3" fill="#EDC3E9"/>
  <ellipse id="svg_15" ry="2.4" rx="2.9" cy="93.6" cx="18.2" fill="url(#SVGID_13_)" opacity="0.71"/>
  <circle id="svg_16" r="2.1" cy="100.6" cx="24.5" fill="url(#SVGID_14_)"/>
  <circle id="svg_17" r="1.6" cy="89.5" cx="26.8" fill="url(#SVGID_15_)" opacity="0.25"/>
  <ellipse id="svg_18" ry="1.5" rx="1.4" cy="83.1" cx="21.4" fill="url(#SVGID_16_)" opacity="0.5"/>
  <ellipse id="svg_19" ry="1.7" rx="2.3" cy="109.6" cx="40.1" fill="url(#SVGID_17_)"/>
  <circle id="svg_20" r="1.1" cy="102.4" cx="37.6" fill="url(#SVGID_18_)"/>
  <circle id="svg_21" r="1" cy="94.5" cx="31.8" fill="url(#SVGID_19_)"/>
  <circle id="svg_22" r="0.8" cy="105.5" cx="32.7" fill="url(#SVGID_20_)"/>
  <ellipse id="svg_23" ry="0.8" rx="0.7" cy="82.2" cx="32.1" fill="url(#SVGID_21_)"/>
  <ellipse id="svg_24" ry="0.9" rx="0.8" cy="76" cx="27.5" fill="url(#SVGID_22_)"/>
  <path id="svg_25" d="m49.9,106.3c0,0 -0.4,0 -0.8,0s-0.8,0 -0.8,0s0.4,0 0.8,0s0.8,0 0.8,0z" fill="url(#SVGID_23_)"/>
  <circle id="svg_26" r="0.8" cy="110.5" cx="56.1" fill="url(#SVGID_24_)"/>
  <circle id="svg_27" r="1.5" cy="43.3" cx="42.8" fill="url(#SVGID_25_)"/>
  <circle id="svg_28" r="1.5" cy="42" cx="33.7" fill="url(#SVGID_26_)"/>
  <circle id="svg_29" r="0.7" cy="38.8" cx="39.9" fill="url(#SVGID_27_)"/>
  <circle id="svg_30" r="0.7" cy="34.6" cx="32.5" fill="url(#SVGID_28_)"/>
  <circle id="svg_31" r="0.6" cy="28" cx="43" fill="url(#SVGID_29_)"/>
  <circle id="svg_32" r="0.5" cy="32.6" cx="47.8" fill="url(#SVGID_30_)"/>
  <circle id="svg_33" r="2" cy="44.3" cx="37.9" fill="url(#SVGID_31_)" opacity="0.76"/>
  <path id="svg_34" d="m26.1,35.4l0.7,3.4l-1.8,1.6c0,0 -3.6,1.5 0.2,3.3c0,0 2.9,0.4 2.9,-1.9c0,0 4.5,5.6 8.2,6.1c0,0 6.9,1.1 10.3,-2.7l5.5,-5.3l2.9,1.5c0,0 -1,2 1,2c0,0 2.2,-0.9 1.1,-2.4c0,0 -0.9,-0.5 -1.5,0l-2.6,-2.5l3,-3l13,0l0,38l-60,0l0,-38l17.1,0l0,-0.1z" fill="url(#SVGID_32_)"/>
  <g id="svg_35">
   <path id="svg_36" d="m25.8,57.1c-1.1,0.6 -1.1,1.4 0.1,1.8l3.4,1.3c1.2,0.4 2.9,0.2 3.9,-0.5l14.8,-11.2c1,-0.7 1.1,-0.6 0.2,0.2l-11.7,12c-0.8,0.9 -0.6,1.9 0.6,2.4l0.4,0.2c1.2,0.4 3,1.2 4.2,1.6l3.8,1.5c1.1,0.4 2.1,0.8 2.1,0.8c0,0 0,0 0,0c0,0 0.3,-0.9 0.6,-2.1l5.8,-20.3c0.3,-1.1 -0.3,-1.6 -1.4,-1.1l-26.8,13.4z" fill="#494949"/>
   <path id="svg_37" d="m35.2,70.4c-0.1,0.2 2.3,-3.3 2.3,-3.3c0.7,-1 0.3,-2.2 -0.9,-2.6l-2.6,-1c-1.1,-0.5 -1.7,0.1 -1.2,1.2c0,-0.1 2.4,5.5 2.4,5.7z" fill="#494949"/>
   <path id="svg_38" d="m25.8,57.1c-1.1,0.6 -1.1,1.4 0.1,1.8l3.4,1.3c1.2,0.4 2.9,0.2 3.9,-0.5l14.8,-11.2c1,-0.7 1.1,-0.6 0.2,0.2l-11.7,12c-0.8,0.9 -0.6,1.9 0.6,2.4l0.4,0.2c1.2,0.4 3,1.2 4.2,1.6l3.8,1.5c1.1,0.4 2.1,0.8 2.1,0.8c0,0 0,0 0,0c0,0 0.3,-0.9 0.6,-2.1l5.8,-20.3c0.3,-1.1 -0.3,-1.6 -1.4,-1.1l-26.8,13.4z" fill="#494949"/>
   <path id="svg_39" d="m35.2,70.4c-0.1,0.2 2.3,-3.3 2.3,-3.3c0.7,-1 0.3,-2.2 -0.9,-2.6l-2.6,-1c-1.1,-0.5 -1.7,0.1 -1.2,1.2c0,-0.1 2.4,5.5 2.4,5.7z" fill="#494949"/>
  </g>
 </g>
</svg>