<?xml version="1.0" encoding="utf-8"?>
<!-- Generator: Adobe Illustrator 22.1.0, SVG Export Plug-In . SVG Version: 6.00 Build 0)  -->
<svg version="1.1" id="Layer_1" xmlns="http://www.w3.org/2000/svg" xmlns:xlink="http://www.w3.org/1999/xlink" x="0px" y="0px"
	 viewBox="0 0 250 250" style="enable-background:new 0 0 250 250;" xml:space="preserve">
<style type="text/css">
	.st0{clip-path:url(#XMLID_4_);}
	.st1{display:none;opacity:0.1;}
	.st2{opacity:0.1;}
	.st3{display:inline;}
	.st4{display:inline;clip-path:url(#XMLID_72_);}
	.st5{fill:none;stroke:#020202;stroke-miterlimit:10;}
	.st6{display:none;fill:#F2F4F3;}
	.st7{display:none;}
	.st8{display:inline;fill:url(#XMLID_73_);}
	.st9{fill:#313138;}
	.st10{fill:#3F3F4B;}
	.st11{fill:#6FC5FF;}
	.st12{fill:#F2F4F3;}
	.st13{fill:#CCCCCC;}
	.st14{display:inline;fill:url(#XMLID_74_);}
	.st15{fill:#303038;}
	.st16{fill:#DFE5E2;}
	.st17{fill:#BCBCBC;}
	.st18{fill:#CFD3D1;}
	.st19{fill:#98999B;}
	.st20{fill:#94BC41;}
	.st21{fill:#C1C1C1;}
	.st22{fill:#BFBFBF;}
	.st23{display:inline;fill:url(#XMLID_75_);}
	.st24{display:inline;fill:url(#XMLID_76_);}
	.st25{fill:#BBBFBD;}
	.st26{fill:#A0A0A0;}
	.st27{fill:#E5EAE7;}
	.st28{fill:#DEE0DF;}
	.st29{fill:#2C2C33;}
	.st30{display:inline;fill:url(#XMLID_77_);}
	.st31{fill:#2D2D35;}
	.st32{fill:#4B4B56;}
	.st33{fill:#D64E29;}
	.st34{fill:#27272B;}
	.st35{fill:#FFFFFF;}
	.st36{display:inline;fill:url(#XMLID_78_);}
	.st37{fill:#B5B5B5;}
	.st38{display:none;fill:#3F3F4B;}
	.st39{fill:#7F655B;}
	.st40{fill:#9FB51C;}
	.st41{fill:#575763;}
	.st42{fill:url(#XMLID_79_);}
</style>
<g id="XMLID_191_">
	<defs>
		<rect id="XMLID_190_" x="-96" y="74.8" width="437" height="263.2"/>
	</defs>
	<clipPath id="XMLID_4_">
		<use xlink:href="#XMLID_190_"  style="overflow:visible;"/>
	</clipPath>
	<g id="XMLID_189_" class="st0">
		<g id="GRID" class="st1">
			<defs>
				<rect id="XMLID_176_" x="-96" y="74.8" class="st2" width="437" height="263.2"/>
			</defs>
			<clipPath id="XMLID_72_" class="st3">
				<use xlink:href="#XMLID_176_"  style="overflow:visible;"/>
			</clipPath>
			<g id="XMLID_161_" class="st4">
				<g id="XMLID_5_">
					<line id="XMLID_6_" class="st5" x1="-1037.7" y1="7.8" x2="105.1" y2="405.1"/>
					<line id="XMLID_7_" class="st5" x1="-1007" y1="7.8" x2="135.9" y2="405.1"/>
					<line id="XMLID_8_" class="st5" x1="-976.2" y1="7.8" x2="166.6" y2="405.1"/>
					<line id="XMLID_9_" class="st5" x1="-945.5" y1="7.8" x2="197.4" y2="405.1"/>
					<line id="XMLID_10_" class="st5" x1="-914.7" y1="7.8" x2="228.1" y2="405.1"/>
					<line id="XMLID_11_" class="st5" x1="-884" y1="7.8" x2="258.8" y2="405.1"/>
					<line id="XMLID_12_" class="st5" x1="-853.3" y1="7.8" x2="289.6" y2="405.1"/>
					<line id="XMLID_13_" class="st5" x1="-822.5" y1="7.8" x2="320.3" y2="405.1"/>
					<line id="XMLID_14_" class="st5" x1="-791.8" y1="7.8" x2="351.1" y2="405.1"/>
					<line id="XMLID_15_" class="st5" x1="-761" y1="7.8" x2="381.8" y2="405.1"/>
					<line id="XMLID_16_" class="st5" x1="-730.3" y1="7.8" x2="412.5" y2="405.1"/>
					<line id="XMLID_17_" class="st5" x1="-699.5" y1="7.8" x2="443.3" y2="405.1"/>
					<line id="XMLID_18_" class="st5" x1="-668.8" y1="7.8" x2="474" y2="405.1"/>
					<line id="XMLID_19_" class="st5" x1="-638.1" y1="7.8" x2="504.8" y2="405.1"/>
					<line id="XMLID_20_" class="st5" x1="-607.3" y1="7.8" x2="535.5" y2="405.1"/>
					<line id="XMLID_21_" class="st5" x1="-576.6" y1="7.8" x2="566.3" y2="405.1"/>
					<line id="XMLID_22_" class="st5" x1="-545.8" y1="7.8" x2="597" y2="405.1"/>
					<line id="XMLID_23_" class="st5" x1="-515.1" y1="7.8" x2="627.7" y2="405.1"/>
					<line id="XMLID_24_" class="st5" x1="-484.4" y1="7.8" x2="658.5" y2="405.1"/>
					<line id="XMLID_25_" class="st5" x1="-453.6" y1="7.8" x2="689.2" y2="405.1"/>
					<line id="XMLID_26_" class="st5" x1="-422.9" y1="7.8" x2="720" y2="405.1"/>
					<line id="XMLID_27_" class="st5" x1="-392.1" y1="7.8" x2="750.7" y2="405.1"/>
					<line id="XMLID_28_" class="st5" x1="-361.4" y1="7.8" x2="781.4" y2="405.1"/>
					<line id="XMLID_29_" class="st5" x1="-330.7" y1="7.8" x2="812.2" y2="405.1"/>
					<line id="XMLID_30_" class="st5" x1="-299.9" y1="7.8" x2="842.9" y2="405.1"/>
					<line id="XMLID_31_" class="st5" x1="-269.2" y1="7.8" x2="873.7" y2="405.1"/>
					<line id="XMLID_32_" class="st5" x1="-238.4" y1="7.8" x2="904.4" y2="405.1"/>
					<line id="XMLID_33_" class="st5" x1="-207.7" y1="7.8" x2="935.1" y2="405.1"/>
					<line id="XMLID_34_" class="st5" x1="-177" y1="7.8" x2="965.9" y2="405.1"/>
					<line id="XMLID_35_" class="st5" x1="-146.2" y1="7.8" x2="996.6" y2="405.1"/>
					<line id="XMLID_36_" class="st5" x1="-115.5" y1="7.8" x2="1027.4" y2="405.1"/>
					<line id="XMLID_37_" class="st5" x1="-84.7" y1="7.8" x2="1058.1" y2="405.1"/>
					<line id="XMLID_38_" class="st5" x1="-54" y1="7.8" x2="1088.8" y2="405.1"/>
					<line id="XMLID_39_" class="st5" x1="-23.3" y1="7.8" x2="1119.6" y2="405.1"/>
					<line id="XMLID_40_" class="st5" x1="7.5" y1="7.8" x2="1150.3" y2="405.1"/>
					<line id="XMLID_41_" class="st5" x1="38.2" y1="7.8" x2="1181.1" y2="405.1"/>
					<line id="XMLID_42_" class="st5" x1="69" y1="7.8" x2="1211.8" y2="405.1"/>
					<line id="XMLID_43_" class="st5" x1="99.7" y1="7.8" x2="1242.6" y2="405.1"/>
					<line id="XMLID_44_" class="st5" x1="130.5" y1="7.8" x2="1273.3" y2="405.1"/>
					<line id="XMLID_45_" class="st5" x1="161.2" y1="7.8" x2="1304" y2="405.1"/>
				</g>
				<g id="XMLID_46_">
					<line id="XMLID_160_" class="st5" x1="1304" y1="7.8" x2="161.2" y2="405.1"/>
					<line id="XMLID_159_" class="st5" x1="1273.3" y1="7.8" x2="130.5" y2="405.1"/>
					<line id="XMLID_158_" class="st5" x1="1242.6" y1="7.8" x2="99.7" y2="405.1"/>
					<line id="XMLID_157_" class="st5" x1="1211.8" y1="7.8" x2="69" y2="405.1"/>
					<line id="XMLID_156_" class="st5" x1="1181.1" y1="7.8" x2="38.2" y2="405.1"/>
					<line id="XMLID_155_" class="st5" x1="1150.3" y1="7.8" x2="7.5" y2="405.1"/>
					<line id="XMLID_154_" class="st5" x1="1119.6" y1="7.8" x2="-23.3" y2="405.1"/>
					<line id="XMLID_153_" class="st5" x1="1088.8" y1="7.8" x2="-54" y2="405.1"/>
					<line id="XMLID_152_" class="st5" x1="1058.1" y1="7.8" x2="-84.7" y2="405.1"/>
					<line id="XMLID_151_" class="st5" x1="1027.4" y1="7.8" x2="-115.5" y2="405.1"/>
					<line id="XMLID_150_" class="st5" x1="996.6" y1="7.8" x2="-146.2" y2="405.1"/>
					<line id="XMLID_149_" class="st5" x1="965.9" y1="7.8" x2="-177" y2="405.1"/>
					<line id="XMLID_148_" class="st5" x1="935.1" y1="7.8" x2="-207.7" y2="405.1"/>
					<line id="XMLID_147_" class="st5" x1="904.4" y1="7.8" x2="-238.4" y2="405.1"/>
					<line id="XMLID_146_" class="st5" x1="873.7" y1="7.8" x2="-269.2" y2="405.1"/>
					<line id="XMLID_69_" class="st5" x1="842.9" y1="7.8" x2="-299.9" y2="405.1"/>
					<line id="XMLID_68_" class="st5" x1="812.2" y1="7.8" x2="-330.7" y2="405.1"/>
					<line id="XMLID_67_" class="st5" x1="781.4" y1="7.8" x2="-361.4" y2="405.1"/>
					<line id="XMLID_66_" class="st5" x1="750.7" y1="7.8" x2="-392.1" y2="405.1"/>
					<line id="XMLID_65_" class="st5" x1="720" y1="7.8" x2="-422.9" y2="405.1"/>
					<line id="XMLID_64_" class="st5" x1="689.2" y1="7.8" x2="-453.6" y2="405.1"/>
					<line id="XMLID_63_" class="st5" x1="658.5" y1="7.8" x2="-484.4" y2="405.1"/>
					<line id="XMLID_62_" class="st5" x1="627.7" y1="7.8" x2="-515.1" y2="405.1"/>
					<line id="XMLID_61_" class="st5" x1="597" y1="7.8" x2="-545.8" y2="405.1"/>
					<line id="XMLID_60_" class="st5" x1="566.3" y1="7.8" x2="-576.6" y2="405.1"/>
					<line id="XMLID_59_" class="st5" x1="535.5" y1="7.8" x2="-607.3" y2="405.1"/>
					<line id="XMLID_58_" class="st5" x1="504.8" y1="7.8" x2="-638.1" y2="405.1"/>
					<line id="XMLID_57_" class="st5" x1="474" y1="7.8" x2="-668.8" y2="405.1"/>
					<line id="XMLID_56_" class="st5" x1="443.3" y1="7.8" x2="-699.5" y2="405.1"/>
					<line id="XMLID_55_" class="st5" x1="412.5" y1="7.8" x2="-730.3" y2="405.1"/>
					<line id="XMLID_54_" class="st5" x1="381.8" y1="7.8" x2="-761" y2="405.1"/>
					<line id="XMLID_53_" class="st5" x1="351.1" y1="7.8" x2="-791.8" y2="405.1"/>
					<line id="XMLID_52_" class="st5" x1="320.3" y1="7.8" x2="-822.5" y2="405.1"/>
					<line id="XMLID_51_" class="st5" x1="289.6" y1="7.8" x2="-853.3" y2="405.1"/>
					<line id="XMLID_50_" class="st5" x1="258.8" y1="7.8" x2="-884" y2="405.1"/>
					<line id="XMLID_49_" class="st5" x1="228.1" y1="7.8" x2="-914.7" y2="405.1"/>
					<line id="XMLID_48_" class="st5" x1="197.4" y1="7.8" x2="-945.5" y2="405.1"/>
					<line id="XMLID_47_" class="st5" x1="166.6" y1="7.8" x2="-976.2" y2="405.1"/>
					<line id="XMLID_70_" class="st5" x1="135.9" y1="7.8" x2="-1007" y2="405.1"/>
					<line id="XMLID_71_" class="st5" x1="105.1" y1="7.8" x2="-1037.7" y2="405.1"/>
				</g>
				<line id="XMLID_162_" class="st5" x1="-66.6" y1="67.5" x2="-66.6" y2="352.7"/>
				<line id="XMLID_163_" class="st5" x1="-35.9" y1="67.5" x2="-35.9" y2="352.7"/>
				<line id="XMLID_164_" class="st5" x1="-5.2" y1="67.5" x2="-5.2" y2="352.7"/>
				<line id="XMLID_165_" class="st5" x1="25.6" y1="67.5" x2="25.6" y2="352.7"/>
				<line id="XMLID_166_" class="st5" x1="56.3" y1="67.5" x2="56.3" y2="352.7"/>
				<line id="XMLID_167_" class="st5" x1="87.1" y1="67.5" x2="87.1" y2="352.7"/>
				<line id="XMLID_168_" class="st5" x1="117.8" y1="67.5" x2="117.8" y2="352.7"/>
				<line id="XMLID_169_" class="st5" x1="148.5" y1="67.5" x2="148.5" y2="352.7"/>
				<line id="XMLID_170_" class="st5" x1="179.3" y1="67.5" x2="179.3" y2="352.7"/>
				<line id="XMLID_171_" class="st5" x1="210" y1="67.5" x2="210" y2="352.7"/>
				<line id="XMLID_172_" class="st5" x1="240.8" y1="67.5" x2="240.8" y2="352.7"/>
				<line id="XMLID_173_" class="st5" x1="271.5" y1="67.5" x2="271.5" y2="352.7"/>
				<line id="XMLID_174_" class="st5" x1="302.2" y1="67.5" x2="302.2" y2="352.7"/>
				<line id="XMLID_175_" class="st5" x1="333" y1="67.5" x2="333" y2="352.7"/>
			</g>
		</g>
		<path id="XMLID_184_" class="st6" d="M374.6,120.6c-1-1.2-3.4-1.6-5.3-1l-67,20.7l-45.5-15.1c-1.2-0.4-2.7-0.4-3.8,0l-52.7,18.1
			l-36-14.4l100.7-35c1.2-0.4,2-1.2,2-2.1c0-0.8-0.8-1.6-2-2.1l-82.4-28.6c-1.9-0.7-4.3-0.3-5.4,0.9c-1.1,1.1-0.4,2.6,1.4,3.2
			L255,91.8l-100.3,34.9c-1.2,0.4-1.9,1.2-2,2c0,0.8,0.6,1.6,1.8,2l38,15.2l-92.4,31.7l-113.5-39.4l56-19.5c1.2-0.4,2-1.2,2-2
			c0-0.8-0.7-1.6-1.9-2.1l-180.5-64c-1.9-0.7-4.3-0.3-5.4,0.8c-1.1,1.1-0.5,2.6,1.4,3.2l174.6,62l-56.1,19.5c0,0,0,0,0,0
			c0,0,0,0,0,0l-109.5,38.9c-1.9,0.7-2.5,2.1-1.4,3.2c1.1,1.1,3.5,1.5,5.4,0.8L-21.1,141l119.3,41.5c0,0,0,0,0,0l72.1,25.1l-4.3,1.2
			c-0.1,0-0.3,0.1-0.4,0.1c-30.7-7.8-74.3-6.9-101.9,2.7c-28.3,9.8-30.4,25.4-6.4,36.1l-16.1,5.7l-59.8-20.8c-1.2-0.4-2.7-0.4-3.9,0
			L-151,277c-1.9,0.7-2.5,2.1-1.5,3.2c0.7,0.8,2.1,1.2,3.4,1.2c0.7,0,1.3-0.1,2-0.3l126.5-43.7l59.8,20.8c1.2,0.4,2.7,0.4,4,0
			l21.5-7.6c30.6,10.3,79.8,10.1,110-0.4c30.6-10.6,30.6-28,0-38.6c0,0-0.1,0-0.1,0l4-1.1l60.1,20.5c0.6,0.2,1.3,0.3,1.9,0.3
			c0.7,0,1.4-0.1,2-0.3l109.9-38c1.9-0.7,2.5-2.1,1.5-3.2c-1.1-1.1-3.5-1.5-5.4-0.9l-107.9,37.3l-59.9-20.4l-61.6-21.4l0,0
			l-11.2-3.9L254.9,130l45.4,15c1.1,0.4,2.5,0.4,3.7,0l68.9-21.3C374.9,123.2,375.6,121.7,374.6,120.6z"/>
		<g id="XMLID_178_" class="st7">
			<linearGradient id="XMLID_73_" gradientUnits="userSpaceOnUse" x1="47.8202" y1="288.456" x2="63.7307" y2="314.9355">
				<stop  offset="0" style="stop-color:#737373"/>
				<stop  offset="0.1876" style="stop-color:#888888;stop-opacity:0.8124"/>
				<stop  offset="0.575" style="stop-color:#BDBDBD;stop-opacity:0.425"/>
				<stop  offset="1" style="stop-color:#FFFFFF;stop-opacity:0"/>
			</linearGradient>
			<polygon id="XMLID_656_" class="st8" points="12.3,304.4 45.2,317.4 98.3,297.4 65.4,284.4 			"/>
			<g id="XMLID_575_" class="st3">
				<path id="XMLID_231_" class="st9" d="M71.8,286.1l0-0.7V284l-2.8-0.3l-86.3-30c-2.1-0.7-5.4-0.7-7.5,0l-49.4,17.2l-1.7-0.2v2.2
					c0,0.5,0.5,0.9,1.5,1.3l87.6,30.5c2.1,0.7,5.4,0.7,7.5,0l49.6-17.2C71.3,287.1,71.8,286.6,71.8,286.1z"/>
				<path id="XMLID_222_" class="st10" d="M20.7,302.5c-2.1,0.7-5.4,0.7-7.5,0l-87.6-30.5c-2.1-0.7-2.1-1.9,0-2.6l49.6-17.2
					c2.1-0.7,5.4-0.7,7.5,0l87.6,30.5c2.1,0.7,2.1,1.9,0,2.6L20.7,302.5z"/>
				<polygon id="XMLID_228_" class="st11" points="-18.9,254.8 -67.3,271.6 4.9,296.6 53.7,280 				"/>
				<path id="XMLID_227_" class="st12" d="M30.8,293.8c1,0.4,2.7,0.4,3.7,0l10.9-3.8c1-0.4,1-0.9,0-1.3l-2-0.7c-1-0.4-2.7-0.4-3.8,0
					l-11,3.7c-1,0.4-1,0.9,0,1.3L30.8,293.8z"/>
				<path id="XMLID_224_" class="st10" d="M29.9,292.7c-0.5-0.2-0.5-0.5,0-0.7l10.7-3.6c0.5-0.2,1.4-0.2,1.9,0l1.7,0.6
					c0.5,0.2,0.5,0.5,0,0.7l-10.6,3.7c-0.5,0.2-1.4,0.2-1.9,0L29.9,292.7z"/>
				<path id="XMLID_226_" class="st13" d="M-42.1,262c-0.8,0.3-2.2,0.3-3.1,0c-0.8-0.3-0.8-0.8,0-1.1c0.8-0.3,2.2-0.3,3.1,0
					C-41.3,261.2-41.3,261.7-42.1,262z"/>
				<path id="XMLID_229_" class="st9" d="M-42.5,261.8c-0.6,0.2-1.6,0.2-2.3,0c-0.6-0.2-0.6-0.6,0-0.8c0.6-0.2,1.6-0.2,2.3,0
					C-41.9,261.3-41.9,261.6-42.5,261.8z"/>
				<ellipse id="XMLID_230_" class="st9" cx="-40.3" cy="260.2" rx="0.8" ry="0.3"/>
				<path id="XMLID_233_" class="st9" d="M-46.5,262.8c-0.3,0.1-0.8,0.1-1.1,0c-0.3-0.1-0.3-0.3,0-0.4c0.3-0.1,0.8-0.1,1.1,0
					C-46.2,262.5-46.2,262.7-46.5,262.8z"/>
				<ellipse id="XMLID_232_" class="st12" cx="-44.9" cy="261.3" rx="0.6" ry="0.2"/>
				<path id="XMLID_236_" class="st12" d="M-43.3,261.2c-0.1,0-0.3,0-0.4,0c-0.1,0-0.1-0.1,0-0.1c0.1,0,0.3,0,0.4,0
					S-43.2,261.2-43.3,261.2z"/>
				<path id="XMLID_240_" class="st12" d="M-53.7,280.4c0-0.3-0.4-0.7-0.8-0.8l-3.9-1.4c-0.5-0.2-0.8,0-0.8,0.2s0.4,0.7,0.8,0.8
					l3.9,1.4C-54.1,280.8-53.7,280.7-53.7,280.4z"/>
				<path id="XMLID_235_" class="st12" d="M-46.7,282.9c0-0.3-0.4-0.7-0.8-0.8l-3.9-1.4c-0.5-0.2-0.8,0-0.8,0.2s0.4,0.7,0.8,0.8
					l3.9,1.4C-47.1,283.3-46.7,283.2-46.7,282.9z"/>
				<g id="XMLID_237_">
					<path id="XMLID_238_" class="st12" d="M53.1,286.1l-0.4-0.1v-1.5l0.3-0.2l3.8,0.2l0.1,0.3L53.1,286.1z M53.3,284.7v1l2.6-0.9
						L53.3,284.7z"/>
				</g>
				<polygon id="XMLID_585_" class="st12" points="22.3,296.3 22,296 19.5,296.9 19.8,296.1 19.2,296 18.8,297.2 19.1,297.4 
					21.3,297.4 21.3,297 20.1,297 				"/>
			</g>
		</g>
		<g id="XMLID_186_" class="st7">
			<linearGradient id="XMLID_74_" gradientUnits="userSpaceOnUse" x1="272.0356" y1="200.9446" x2="287.3868" y2="226.4932">
				<stop  offset="0" style="stop-color:#737373"/>
				<stop  offset="0.1876" style="stop-color:#888888;stop-opacity:0.8124"/>
				<stop  offset="0.575" style="stop-color:#BDBDBD;stop-opacity:0.425"/>
				<stop  offset="1" style="stop-color:#FFFFFF;stop-opacity:0"/>
			</linearGradient>
			<polygon id="XMLID_655_" class="st14" points="241.9,213.9 274.8,226.8 316.7,212 283.7,199 			"/>
			<g id="XMLID_348_" class="st3">
				<g id="XMLID_285_">
					<polygon id="XMLID_264_" class="st15" points="288.1,191 273.6,196 268.7,194.4 283.3,189.3 					"/>
					<path id="XMLID_284_" class="st15" d="M290.9,186.4c0,1.7,0.5,3.4-2.8,4.6c-3.3,1.2-6.3-1.1-4.7-1.7c1.6-0.6,2.7-1,2.6-3.3
						C285.8,183.6,290.9,186.4,290.9,186.4z"/>
					<ellipse id="XMLID_280_" class="st10" cx="288.3" cy="182.9" rx="1.9" ry="0.7"/>
					<path id="XMLID_276_" class="st10" d="M290.9,179.8h-2.6h-2.6l-0.5,6.5c0,0.3,0.3,0.6,0.9,0.8c1.2,0.4,3.2,0.4,4.4,0
						c0.6-0.2,0.9-0.5,0.9-0.8L290.9,179.8z"/>
					<path id="XMLID_275_" class="st10" d="M286.5,179.2c-1,0.4-1,0.9,0,1.3s2.7,0.4,3.7,0c1-0.4,1-0.9,0-1.3
						C289.1,178.8,287.5,178.8,286.5,179.2z"/>
					<ellipse id="XMLID_265_" class="st16" cx="288.3" cy="182.9" rx="4.5" ry="1.6"/>
					<path id="XMLID_277_" class="st16" d="M291,159.4c0,0.2-0.3,0.5-0.8,0.7c-1,0.4-2.8,0.4-3.8,0c-0.5-0.2-0.8-0.4-0.8-0.7
						l-1.8,23.5l4.5-0.2l4.5,0.2L291,159.4z"/>
					<path id="XMLID_281_" class="st12" d="M285.6,159.4L285.6,159.4C285.6,159.4,285.6,159.4,285.6,159.4z"/>
					<path id="XMLID_282_" class="st12" d="M291,159.4L291,159.4C291,159.4,291,159.4,291,159.4z"/>
					<path id="XMLID_283_" class="st12" d="M286.4,160.1c1,0.4,2.8,0.4,3.8,0c0.5-0.2,0.8-0.4,0.8-0.7l0,0c0-0.2-0.3-0.5-0.8-0.7
						c-1-0.4-2.8-0.4-3.8,0c-0.5,0.2-0.8,0.4-0.8,0.7l0,0C285.6,159.6,285.9,159.9,286.4,160.1z"/>
					<path id="XMLID_274_" class="st10" d="M289.8,155.3h-1.5h-1.5l-0.3,3.8c0,0.2,0.2,0.3,0.5,0.4c0.7,0.2,1.9,0.2,2.6,0
						c0.4-0.1,0.5-0.3,0.5-0.4L289.8,155.3z"/>
					<ellipse id="XMLID_273_" class="st12" cx="288.3" cy="155.3" rx="1.5" ry="0.5"/>
					<path id="XMLID_278_" class="st12" d="M285.9,156.3L285.9,156.3L285.9,156.3z"/>
					<path id="XMLID_279_" class="st12" d="M290.8,156.3L290.8,156.3L290.8,156.3z"/>
					<path id="XMLID_271_" class="st16" d="M290.4,152.9h-2.1h-2.1l-0.4,5.2c0,0.2,0.2,0.4,0.7,0.6c1,0.3,2.5,0.3,3.5,0
						c0.5-0.2,0.7-0.4,0.7-0.6L290.4,152.9z"/>
					<path id="XMLID_250_" class="st12" d="M286.8,152.4c-0.8,0.3-0.8,0.7,0,1c0.8,0.3,2.1,0.3,2.9,0c0.8-0.3,0.8-0.7,0-1
						C289,152.2,287.6,152.2,286.8,152.4z"/>
				</g>
				<g id="XMLID_287_">
					<polygon id="XMLID_303_" class="st15" points="224.9,169.8 210.4,174.8 205.5,173.2 220.1,168.1 					"/>
					<path id="XMLID_302_" class="st15" d="M227.7,165.2c0,1.7,0.5,3.4-2.8,4.6c-3.3,1.2-6.3-1.1-4.7-1.7c1.6-0.6,2.7-1,2.6-3.3
						C222.6,162.4,227.7,165.2,227.7,165.2z"/>
					<ellipse id="XMLID_301_" class="st10" cx="225.1" cy="161.7" rx="1.9" ry="0.7"/>
					<path id="XMLID_300_" class="st10" d="M227.7,158.7h-2.6h-2.6l-0.5,6.5c0,0.3,0.3,0.6,0.9,0.8c1.2,0.4,3.2,0.4,4.4,0
						c0.6-0.2,0.9-0.5,0.9-0.8L227.7,158.7z"/>
					<path id="XMLID_299_" class="st10" d="M223.3,158c-1,0.4-1,0.9,0,1.3c1,0.4,2.7,0.4,3.7,0c1-0.4,1-0.9,0-1.3
						S224.3,157.7,223.3,158z"/>
					<path id="XMLID_298_" class="st16" d="M221.9,160.7c-1.7,0.6-1.7,1.6,0,2.2c1.7,0.6,4.6,0.6,6.3,0c1.7-0.6,1.7-1.6,0-2.2
						C226.5,160.1,223.7,160.1,221.9,160.7z"/>
					<path id="XMLID_297_" class="st16" d="M227.8,138.2c0,0.2-0.3,0.5-0.8,0.7c-1,0.4-2.8,0.4-3.8,0c-0.5-0.2-0.8-0.4-0.8-0.7
						l-1.8,23.5l4.5-0.2l4.5,0.2L227.8,138.2z"/>
					<path id="XMLID_296_" class="st12" d="M222.4,138.2L222.4,138.2C222.4,138.2,222.4,138.2,222.4,138.2z"/>
					<path id="XMLID_295_" class="st12" d="M227.8,138.2L227.8,138.2C227.8,138.2,227.8,138.2,227.8,138.2z"/>
					<path id="XMLID_294_" class="st12" d="M223.2,138.9c1,0.4,2.8,0.4,3.8,0c0.5-0.2,0.8-0.4,0.8-0.7l0,0c0-0.2-0.3-0.5-0.8-0.7
						c-1-0.4-2.8-0.4-3.8,0c-0.5,0.2-0.8,0.4-0.8,0.7l0,0C222.4,138.5,222.7,138.7,223.2,138.9z"/>
					<path id="XMLID_293_" class="st10" d="M226.6,134.2h-1.5h-1.5l-0.3,3.8c0,0.2,0.2,0.3,0.5,0.4c0.7,0.2,1.9,0.2,2.6,0
						c0.4-0.1,0.5-0.3,0.5-0.4L226.6,134.2z"/>
					<path id="XMLID_292_" class="st12" d="M224,133.8c-0.6,0.2-0.6,0.5,0,0.8c0.6,0.2,1.6,0.2,2.2,0c0.6-0.2,0.6-0.5,0-0.8
						C225.6,133.6,224.6,133.6,224,133.8z"/>
					<path id="XMLID_291_" class="st12" d="M222.7,135.1L222.7,135.1L222.7,135.1z"/>
					<path id="XMLID_290_" class="st12" d="M227.6,135.1L227.6,135.1L227.6,135.1z"/>
					<path id="XMLID_289_" class="st16" d="M227.2,131.8h-2.1H223l-0.4,5.2c0,0.2,0.2,0.4,0.7,0.6c1,0.3,2.5,0.3,3.5,0
						c0.5-0.2,0.7-0.4,0.7-0.6L227.2,131.8z"/>
					<path id="XMLID_288_" class="st12" d="M223.6,131.3c-0.8,0.3-0.8,0.7,0,1c0.8,0.3,2.1,0.3,2.9,0c0.8-0.3,0.8-0.7,0-1
						C225.8,131,224.4,131,223.6,131.3z"/>
				</g>
				<polygon id="XMLID_244_" class="st17" points="241.9,183.6 284.7,193.9 241.9,208.4 				"/>
				<polygon id="XMLID_243_" class="st18" points="170.5,183.6 241.9,183.6 241.9,208.4 				"/>
				<path id="XMLID_251_" class="st12" d="M278.6,181.4l-67.9-23.6l0,0c-5-2.2-14.3-1.4-21.2,1c-9.9,3.4-17.5,12.6-17.5,18.2
					c0,4.3,0,6,0,6.6v0.3v5.2v0l0,0l69.8,24.3l42.1-14.6c0,0,0-5.1,0-12.1C284,183.9,281.8,182.2,278.6,181.4z"/>
				<polygon id="XMLID_248_" class="st16" points="170.5,189.1 241.9,213.9 241.9,208.6 170.5,183.6 				"/>
				<path id="XMLID_246_" class="st16" d="M241.9,213.4l42.1-14.6c0,0,0-5.1,0-12.1c0-7.1-14.8-7-24.7-3.6
					c-9.9,3.4-17.5,12.6-17.5,18.2c0,5.6,0,6.9,0,6.9V213.4z"/>
				<path id="XMLID_247_" class="st16" d="M203.6,180.6l-25.4-8.9c-1,0.9-2.1,3.1-2.1,4.7l19.7,6.8l41.3,14.4
					c0.6-1.4,1.5-2.9,2.6-4.4L203.6,180.6z"/>
				<path id="XMLID_258_" class="st19" d="M187.6,175.9l-1.5-0.5c-0.6,0.6-1.3,2-1.3,3l1.4,0.5C186.4,177.8,187,176.6,187.6,175.9z"
					/>
				<path id="XMLID_252_" class="st19" d="M194.1,178.2l-1.5-0.5c-0.6,0.6-1.3,2-1.3,3l1.4,0.5C192.8,180.1,193.4,178.9,194.1,178.2
					z"/>
				<path id="XMLID_253_" class="st19" d="M200.5,180.5L199,180c-0.6,0.6-1.3,2-1.3,3l1.4,0.5C199.3,182.4,199.9,181.2,200.5,180.5z
					"/>
				<path id="XMLID_254_" class="st19" d="M206.9,182.8l-1.5-0.5c-0.6,0.6-1.3,2-1.3,3l1.4,0.5C205.7,184.7,206.3,183.5,206.9,182.8
					z"/>
				<path id="XMLID_255_" class="st19" d="M213.3,185.1l-1.5-0.5c-0.6,0.6-1.3,2-1.3,3l1.4,0.5C212.1,187,212.7,185.8,213.3,185.1z"
					/>
				<path id="XMLID_256_" class="st19" d="M229.4,190.5l-1.5-0.5c-0.6,0.6-1.3,2-1.3,3l1.4,0.5C228.2,192.4,228.8,191.2,229.4,190.5
					z"/>
				<polygon id="XMLID_241_" class="st18" points="241.9,208.6 284.7,193.9 284.7,199.1 241.9,213.9 				"/>
				<polygon id="XMLID_242_" class="st10" points="237.2,197.6 237.2,202.5 176.2,181.6 176.2,176.4 				"/>
				<polygon id="XMLID_263_" class="st20" points="184.8,180.4 184.8,183.7 186.2,184.2 186.2,180.9 				"/>
				<polygon id="XMLID_257_" class="st20" points="190.8,182.5 190.8,185.8 192.3,186.2 192.3,183 				"/>
				<polygon id="XMLID_259_" class="st20" points="197.6,184.7 197.6,188 199.1,188.5 199.1,185.2 				"/>
				<polygon id="XMLID_260_" class="st20" points="204.1,187 204.1,190.2 205.5,190.7 205.5,187.5 				"/>
				<polygon id="XMLID_261_" class="st20" points="210.5,189.3 210.5,192.5 211.9,193 211.9,189.7 				"/>
				<polygon id="XMLID_262_" class="st20" points="226.6,194.8 226.6,198.1 228,198.6 228,195.3 				"/>
				<g id="XMLID_307_">
					<g id="XMLID_392_">
						<polygon id="XMLID_395_" class="st18" points="174,189.6 177.9,190.9 177.9,189.9 174,188.4 						"/>
						<polygon id="XMLID_394_" class="st18" points="174,189.6 174.9,189.5 177.9,190.5 177.9,190.9 						"/>
						<polygon id="XMLID_393_" class="st21" points="174.9,189.5 174.9,188.8 177.9,189.9 177.9,190.5 						"/>
					</g>
					<g id="XMLID_388_">
						<polygon id="XMLID_391_" class="st18" points="180.5,191.8 184.4,193.1 184.4,192.1 180.5,190.7 						"/>
						<polygon id="XMLID_390_" class="st18" points="180.5,191.8 181.4,191.7 184.4,192.7 184.4,193.1 						"/>
						<polygon id="XMLID_389_" class="st21" points="181.4,191.7 181.4,191 184.4,192.1 184.4,192.7 						"/>
					</g>
					<g id="XMLID_384_">
						<polygon id="XMLID_387_" class="st18" points="187,194.1 190.9,195.4 190.9,194.4 187,192.9 						"/>
						<polygon id="XMLID_386_" class="st18" points="187,194.1 187.9,194 190.9,195 190.9,195.4 						"/>
						<polygon id="XMLID_385_" class="st21" points="187.9,194 187.9,193.3 190.9,194.4 190.9,195 						"/>
					</g>
					<g id="XMLID_380_">
						<polygon id="XMLID_383_" class="st18" points="193.5,196.3 197.4,197.6 197.4,196.6 193.5,195.2 						"/>
						<polygon id="XMLID_382_" class="st18" points="193.5,196.3 194.4,196.2 197.4,197.2 197.4,197.6 						"/>
						<polygon id="XMLID_381_" class="st21" points="194.4,196.2 194.4,195.5 197.4,196.6 197.4,197.2 						"/>
					</g>
					<g id="XMLID_376_">
						<polygon id="XMLID_379_" class="st18" points="200,198.5 203.9,199.9 203.9,198.9 200,197.4 						"/>
						<polygon id="XMLID_378_" class="st18" points="200,198.5 200.9,198.4 203.9,199.5 203.9,199.9 						"/>
						<polygon id="XMLID_377_" class="st21" points="200.9,198.4 200.9,197.8 203.9,198.9 203.9,199.5 						"/>
					</g>
					<g id="XMLID_372_">
						<polygon id="XMLID_375_" class="st18" points="206.5,200.8 210.5,202.1 210.5,201.1 206.5,199.7 						"/>
						<polygon id="XMLID_374_" class="st18" points="206.5,200.8 207.5,200.7 210.5,201.7 210.5,202.1 						"/>
						<polygon id="XMLID_373_" class="st21" points="207.5,200.7 207.5,200 210.5,201.1 210.5,201.7 						"/>
					</g>
					<g id="XMLID_368_">
						<polygon id="XMLID_371_" class="st18" points="213.1,203 217,204.4 217,203.4 213.1,201.9 						"/>
						<polygon id="XMLID_370_" class="st18" points="213.1,203 214,202.9 217,204 217,204.4 						"/>
						<polygon id="XMLID_369_" class="st21" points="214,202.9 214,202.3 217,203.4 217,204 						"/>
					</g>
					<g id="XMLID_364_">
						<polygon id="XMLID_367_" class="st18" points="219.6,205.3 223.5,206.6 223.5,205.6 219.6,204.2 						"/>
						<polygon id="XMLID_366_" class="st18" points="219.6,205.3 220.5,205.2 223.5,206.2 223.5,206.6 						"/>
						<polygon id="XMLID_365_" class="st21" points="220.5,205.2 220.5,204.5 223.5,205.6 223.5,206.2 						"/>
					</g>
					<g id="XMLID_360_">
						<polygon id="XMLID_363_" class="st18" points="226.1,207.5 230,208.9 230,207.9 226.1,206.4 						"/>
						<polygon id="XMLID_362_" class="st18" points="226.1,207.5 227,207.4 230,208.5 230,208.9 						"/>
						<polygon id="XMLID_361_" class="st21" points="227,207.4 227,206.7 230,207.9 230,208.5 						"/>
					</g>
					<g id="XMLID_356_">
						<polygon id="XMLID_359_" class="st18" points="232.6,209.8 236.5,211.1 236.5,210.1 232.6,208.7 						"/>
						<polygon id="XMLID_358_" class="st18" points="232.6,209.8 233.5,209.7 236.5,210.7 236.5,211.1 						"/>
						<polygon id="XMLID_357_" class="st21" points="233.5,209.7 233.5,209 236.5,210.1 236.5,210.7 						"/>
					</g>
				</g>
				<g id="XMLID_304_">
					<g id="XMLID_342_">
						<polygon id="XMLID_345_" class="st18" points="174,187.4 177.9,188.7 177.9,187.7 174,186.2 						"/>
						<polygon id="XMLID_344_" class="st18" points="174,187.4 174.9,187.3 177.9,188.3 177.9,188.7 						"/>
						<polygon id="XMLID_343_" class="st21" points="174.9,187.3 174.9,186.6 177.9,187.7 177.9,188.3 						"/>
					</g>
					<g id="XMLID_338_">
						<polygon id="XMLID_341_" class="st18" points="180.5,189.6 184.4,191 184.4,190 180.5,188.5 						"/>
						<polygon id="XMLID_340_" class="st18" points="180.5,189.6 181.4,189.5 184.4,190.5 184.4,191 						"/>
						<polygon id="XMLID_339_" class="st21" points="181.4,189.5 181.4,188.8 184.4,190 184.4,190.5 						"/>
					</g>
					<g id="XMLID_334_">
						<polygon id="XMLID_337_" class="st18" points="187,191.9 190.9,193.2 190.9,192.2 187,190.7 						"/>
						<polygon id="XMLID_336_" class="st18" points="187,191.9 187.9,191.8 190.9,192.8 190.9,193.2 						"/>
						<polygon id="XMLID_335_" class="st21" points="187.9,191.8 187.9,191.1 190.9,192.2 190.9,192.8 						"/>
					</g>
					<g id="XMLID_330_">
						<polygon id="XMLID_333_" class="st18" points="193.5,194.1 197.4,195.5 197.4,194.4 193.5,193 						"/>
						<polygon id="XMLID_332_" class="st18" points="193.5,194.1 194.4,194 197.4,195 197.4,195.5 						"/>
						<polygon id="XMLID_331_" class="st21" points="194.4,194 194.4,193.3 197.4,194.4 197.4,195 						"/>
					</g>
					<g id="XMLID_326_">
						<polygon id="XMLID_329_" class="st18" points="200,196.4 203.9,197.7 203.9,196.7 200,195.2 						"/>
						<polygon id="XMLID_328_" class="st18" points="200,196.4 200.9,196.3 203.9,197.3 203.9,197.7 						"/>
						<polygon id="XMLID_327_" class="st21" points="200.9,196.3 200.9,195.6 203.9,196.7 203.9,197.3 						"/>
					</g>
					<g id="XMLID_322_">
						<polygon id="XMLID_325_" class="st18" points="206.5,198.6 210.5,199.9 210.5,198.9 206.5,197.5 						"/>
						<polygon id="XMLID_324_" class="st18" points="206.5,198.6 207.5,198.5 210.5,199.5 210.5,199.9 						"/>
						<polygon id="XMLID_323_" class="st21" points="207.5,198.5 207.5,197.8 210.5,198.9 210.5,199.5 						"/>
					</g>
					<g id="XMLID_318_">
						<polygon id="XMLID_321_" class="st18" points="213.1,200.9 217,202.2 217,201.2 213.1,199.7 						"/>
						<polygon id="XMLID_320_" class="st18" points="213.1,200.9 214,200.8 217,201.8 217,202.2 						"/>
						<polygon id="XMLID_319_" class="st21" points="214,200.8 214,200.1 217,201.2 217,201.8 						"/>
					</g>
					<g id="XMLID_314_">
						<polygon id="XMLID_317_" class="st18" points="219.6,203.1 223.5,204.4 223.5,203.4 219.6,202 						"/>
						<polygon id="XMLID_316_" class="st18" points="219.6,203.1 220.5,203 223.5,204 223.5,204.4 						"/>
						<polygon id="XMLID_315_" class="st21" points="220.5,203 220.5,202.3 223.5,203.4 223.5,204 						"/>
					</g>
					<g id="XMLID_310_">
						<polygon id="XMLID_313_" class="st18" points="226.1,205.4 230,206.7 230,205.7 226.1,204.2 						"/>
						<polygon id="XMLID_312_" class="st18" points="226.1,205.4 227,205.2 230,206.3 230,206.7 						"/>
						<polygon id="XMLID_311_" class="st21" points="227,205.2 227,204.6 230,205.7 230,206.3 						"/>
					</g>
					<g id="XMLID_305_">
						<polygon id="XMLID_309_" class="st18" points="232.6,207.6 236.5,208.9 236.5,207.9 232.6,206.5 						"/>
						<polygon id="XMLID_308_" class="st18" points="232.6,207.6 233.5,207.5 236.5,208.5 236.5,208.9 						"/>
						<polygon id="XMLID_306_" class="st21" points="233.5,207.5 233.5,206.8 236.5,207.9 236.5,208.5 						"/>
					</g>
				</g>
				<g id="XMLID_347_">
					<polygon id="XMLID_349_" class="st22" points="250.6,209.8 246.7,211.1 246.7,210.1 250.6,208.8 					"/>
					<polygon id="XMLID_286_" class="st18" points="246.7,210.7 249.8,209.7 250.6,209.8 246.7,211.1 					"/>
					<polygon id="XMLID_346_" class="st21" points="249.8,209.7 249.8,209 246.7,210.1 246.7,210.7 					"/>
				</g>
				<g id="XMLID_396_">
					<polygon id="XMLID_399_" class="st22" points="250.6,207.6 246.7,208.9 246.7,207.9 250.6,206.6 					"/>
					<polygon id="XMLID_398_" class="st18" points="246.7,208.5 249.8,207.5 250.6,207.6 246.7,208.9 					"/>
					<polygon id="XMLID_397_" class="st21" points="249.8,207.5 249.8,206.9 246.7,207.9 246.7,208.5 					"/>
				</g>
				<g id="XMLID_400_">
					<polygon id="XMLID_403_" class="st22" points="281.6,199.2 277.7,200.5 277.7,199.5 281.6,198.2 					"/>
					<polygon id="XMLID_402_" class="st18" points="277.7,200.1 280.8,199 281.6,199.2 277.7,200.5 					"/>
					<polygon id="XMLID_401_" class="st21" points="280.8,199 280.8,198.4 277.7,199.5 277.7,200.1 					"/>
				</g>
				<g id="XMLID_351_">
					<polygon id="XMLID_354_" class="st22" points="281.6,197 277.7,198.3 277.7,197.3 281.6,196 					"/>
					<polygon id="XMLID_353_" class="st18" points="277.7,197.9 280.8,196.9 281.6,197 277.7,198.3 					"/>
					<polygon id="XMLID_352_" class="st21" points="280.8,196.9 280.8,196.3 277.7,197.3 277.7,197.9 					"/>
				</g>
			</g>
		</g>
		<g id="XMLID_183_" class="st7">
			<linearGradient id="XMLID_75_" gradientUnits="userSpaceOnUse" x1="24.586" y1="184.5369" x2="36.9417" y2="205.1002">
				<stop  offset="0" style="stop-color:#737373"/>
				<stop  offset="0.1876" style="stop-color:#888888;stop-opacity:0.8124"/>
				<stop  offset="0.575" style="stop-color:#BDBDBD;stop-opacity:0.425"/>
				<stop  offset="1" style="stop-color:#FFFFFF;stop-opacity:0"/>
			</linearGradient>
			<polygon id="XMLID_638_" class="st23" points="5.4,191.9 35.5,203.5 55.4,196.5 25.3,184.8 			"/>
			<linearGradient id="XMLID_76_" gradientUnits="userSpaceOnUse" x1="53.9854" y1="195.6074" x2="66.341" y2="216.1706">
				<stop  offset="0" style="stop-color:#737373"/>
				<stop  offset="0.1876" style="stop-color:#888888;stop-opacity:0.8124"/>
				<stop  offset="0.575" style="stop-color:#BDBDBD;stop-opacity:0.425"/>
				<stop  offset="1" style="stop-color:#FFFFFF;stop-opacity:0"/>
			</linearGradient>
			<polygon id="XMLID_651_" class="st24" points="34.8,203 64.9,214.6 84.8,207.6 54.7,195.9 			"/>
			<g id="XMLID_574_" class="st3">
				<g id="XMLID_573_">
					<path id="XMLID_562_" class="st10" d="M61.4,200.9c0,0,0-0.1,0-0.1v-3.3l-3.8,0.1l-6.4-2.3l-8.1,2.8L32,198.6v3.5l6.7,2.3
						c5,1.7,13.2,1.7,18.2,0l0.8-0.3C60,203.2,61.3,202.1,61.4,200.9L61.4,200.9L61.4,200.9z"/>
					<path id="XMLID_559_" class="st11" d="M57.7,194.2l-6.5-2.3L32,198.6l6.7,2.3c5,1.7,13.2,1.7,18.2,0l0.8-0.3
						C62.6,198.9,62.6,196,57.7,194.2z"/>
				</g>
				<g id="XMLID_572_">
					<polygon id="XMLID_564_" class="st25" points="17.7,192.9 34.8,186.9 34.8,188.9 17.7,194.9 					"/>
					<polygon id="XMLID_566_" class="st26" points="34.8,188.9 24.6,185.2 24.6,183.3 34.8,186.9 					"/>
					<path id="XMLID_563_" class="st10" d="M-11.9,172.3c-5-1.8-13.1-1.8-18,0l-1.6,0.6c-0.3,0.1-0.6,0.2-0.9,0.3l-2.8-0.5v3.2
						c0,0.1,0,0.1,0,0.2v0.1l0,0c0.1,1.1,1.4,2.2,3.8,3l36.8,12.7l19.2-6.7L-11.9,172.3z"/>
					<path id="XMLID_560_" class="st11" d="M-11.9,168.8c-5-1.8-13.1-1.8-18,0l-1.6,0.6c-5,1.8-4.9,4.6,0.1,6.4l36.8,12.7l19.2-6.7
						L-11.9,168.8z"/>
					<polygon id="XMLID_556_" class="st27" points="5.4,191.9 5.4,188.5 24.6,181.8 24.6,185.2 					"/>
					<polygon id="XMLID_557_" class="st25" points="6.4,188.8 23.5,182.9 23.5,184.9 6.4,190.8 					"/>
					<polygon id="XMLID_558_" class="st28" points="6.4,190.8 17.7,194.9 17.7,192.9 6.4,188.8 					"/>
					<polygon id="XMLID_561_" class="st18" points="17.7,192.9 34.8,186.9 23.5,182.9 6.4,188.8 					"/>
					<polygon id="XMLID_565_" class="st10" points="17.7,194 34.2,188.2 34.2,189.1 17.7,194.9 					"/>
					<polygon id="XMLID_567_" class="st29" points="34.2,188.2 32.6,187.7 17.7,192.9 17.7,194 					"/>
					<g id="XMLID_570_">
						<polygon id="XMLID_568_" class="st26" points="18.2,190.2 14.5,188.9 16.6,188.2 20.3,189.4 						"/>
						<polygon id="XMLID_571_" class="st26" points="25.7,187.6 22,186.3 24.1,185.6 27.8,186.9 						"/>
					</g>
					<polygon id="XMLID_569_" class="st27" points="16.4,186.9 15.7,186.6 18.3,185.7 19.1,185.9 					"/>
				</g>
			</g>
		</g>
		<g id="XMLID_179_" class="st7">
			<linearGradient id="XMLID_77_" gradientUnits="userSpaceOnUse" x1="250.4691" y1="266.6595" x2="288.7016" y2="330.289">
				<stop  offset="0" style="stop-color:#737373"/>
				<stop  offset="0.1876" style="stop-color:#888888;stop-opacity:0.8124"/>
				<stop  offset="0.575" style="stop-color:#BDBDBD;stop-opacity:0.425"/>
				<stop  offset="1" style="stop-color:#FFFFFF;stop-opacity:0"/>
			</linearGradient>
			<polygon id="XMLID_646_" class="st30" points="183.2,303.5 262.7,330.9 358.2,297.2 278.7,269.5 			"/>
			<g id="XMLID_630_" class="st3">
				<polygon id="XMLID_590_" class="st31" points="138,264.4 238.8,229.6 289.1,246.9 188.6,282 				"/>
				<path id="XMLID_589_" class="st10" d="M188.6,305.4l95.1-33.1c3.4-1.2,5.4-3.3,5.4-5.7v-19.8L188.6,282V305.4z"/>
				<path id="XMLID_588_" class="st9" d="M188.6,305.4l-45.1-15.6c-3.4-1.2-5.5-3.3-5.5-5.7v-19.7l50.6,17.6V305.4z"/>
				<g id="XMLID_594_">
					<polygon id="XMLID_593_" class="st32" points="138,259.2 238.8,224.4 289.1,241.7 188.6,276.8 					"/>
					<polygon id="XMLID_592_" class="st10" points="188.6,279.5 289.1,244.5 289.1,241.7 188.6,276.8 					"/>
					<polygon id="XMLID_591_" class="st9" points="188.6,279.5 138,262 138,259.2 188.6,276.8 					"/>
				</g>
				<polygon id="XMLID_595_" class="st31" points="164.2,250.1 214.5,267.7 214.5,270.5 216.1,269.9 216.1,267.2 165.8,249.6 				
					"/>
				<polygon id="XMLID_596_" class="st9" points="225.9,260 188.1,246.9 238.8,229.6 276.3,242.7 				"/>
				<g id="XMLID_598_">
					<path id="XMLID_597_" class="st9" d="M187.9,273l-1.4-0.5c-0.9-0.3-0.9-1.1,0-1.4l1.5-0.5c0.4-0.1,0.9-0.1,1.3,0l1.3,0.5
						c0.9,0.3,0.9,1.1,0,1.4l-1.4,0.5C188.8,273.2,188.3,273.2,187.9,273z"/>
					<path id="XMLID_599_" class="st9" d="M193.6,271l-1.4-0.5c-0.9-0.3-0.9-1.1,0-1.4l1.5-0.5c0.4-0.1,0.9-0.1,1.3,0l1.3,0.5
						c0.9,0.3,0.9,1.1,0,1.4l-1.4,0.5C194.5,271.2,194,271.2,193.6,271z"/>
					<path id="XMLID_600_" class="st9" d="M199.2,269l-1.4-0.5c-0.9-0.3-0.9-1.1,0-1.4l1.5-0.5c0.4-0.1,0.9-0.1,1.3,0l1.3,0.5
						c0.9,0.3,0.9,1.1,0,1.4l-1.4,0.5C200.1,269.2,199.6,269.2,199.2,269z"/>
				</g>
				<g id="XMLID_602_">
					<path id="XMLID_605_" class="st9" d="M182.5,271l-1.4-0.5c-0.9-0.3-0.9-1.1,0-1.4l1.5-0.5c0.4-0.1,0.9-0.1,1.3,0l1.3,0.5
						c0.9,0.3,0.9,1.1,0,1.4l-1.4,0.5C183.4,271.2,182.9,271.2,182.5,271z"/>
					<path id="XMLID_604_" class="st9" d="M188.1,269l-1.4-0.5c-0.9-0.3-0.9-1.1,0-1.4l1.5-0.5c0.4-0.1,0.9-0.1,1.3,0l1.3,0.5
						c0.9,0.3,0.9,1.1,0,1.4l-1.4,0.5C189.1,269.2,188.6,269.2,188.1,269z"/>
					<path id="XMLID_603_" class="st9" d="M193.8,267l-1.4-0.5c-0.9-0.3-0.9-1.1,0-1.4l1.5-0.5c0.4-0.1,0.9-0.1,1.3,0l1.3,0.5
						c0.9,0.3,0.9,1.1,0,1.4l-1.4,0.5C194.7,267.2,194.2,267.2,193.8,267z"/>
				</g>
				<g id="XMLID_606_">
					<path id="XMLID_609_" class="st9" d="M177.1,269l-1.4-0.5c-0.9-0.3-0.9-1.1,0-1.4l1.5-0.5c0.4-0.1,0.9-0.1,1.3,0l1.3,0.5
						c0.9,0.3,0.9,1.1,0,1.4l-1.4,0.5C178,269.2,177.5,269.2,177.1,269z"/>
					<path id="XMLID_608_" class="st9" d="M182.7,267l-1.4-0.5c-0.9-0.3-0.9-1.1,0-1.4l1.5-0.5c0.4-0.1,0.9-0.1,1.3,0l1.3,0.5
						c0.9,0.3,0.9,1.1,0,1.4L184,267C183.6,267.2,183.1,267.2,182.7,267z"/>
					<path id="XMLID_607_" class="st9" d="M188.4,265l-1.4-0.5c-0.9-0.3-0.9-1.1,0-1.4l1.5-0.5c0.4-0.1,0.9-0.1,1.3,0l1.3,0.5
						c0.9,0.3,0.9,1.1,0,1.4l-1.4,0.5C189.3,265.1,188.8,265.1,188.4,265z"/>
				</g>
				<g id="XMLID_610_">
					<path id="XMLID_613_" class="st9" d="M171.6,267l-1.4-0.5c-0.9-0.3-0.9-1.1,0-1.4l1.5-0.5c0.4-0.1,0.9-0.1,1.3,0l1.3,0.5
						c0.9,0.3,0.9,1.1,0,1.4L173,267C172.6,267.2,172.1,267.2,171.6,267z"/>
					<path id="XMLID_612_" class="st9" d="M177.3,265l-1.4-0.5c-0.9-0.3-0.9-1.1,0-1.4l1.5-0.5c0.4-0.1,0.9-0.1,1.3,0l1.3,0.5
						c0.9,0.3,0.9,1.1,0,1.4l-1.4,0.5C178.2,265.1,177.7,265.1,177.3,265z"/>
					<path id="XMLID_611_" class="st9" d="M182.9,263l-1.4-0.5c-0.9-0.3-0.9-1.1,0-1.4l1.5-0.5c0.4-0.1,0.9-0.1,1.3,0l1.3,0.5
						c0.9,0.3,0.9,1.1,0,1.4l-1.4,0.5C183.8,263.1,183.3,263.1,182.9,263z"/>
				</g>
				<path id="XMLID_622_" class="st9" d="M175.7,257.1c-0.4-0.1-0.9-0.1-1.3,0l-3.6,1.2l-9.3,3.3c-0.9,0.3-0.9,1.1,0,1.4l4.2,1.5
					c0.4,0.1,0.9,0.1,1.3,0l10.6-3.8l2.1-0.7c0.9-0.3,0.9-1.1,0-1.4L175.7,257.1z"/>
				<path id="XMLID_614_" class="st20" d="M158,261.5l-0.8-0.3c-0.6-0.2-0.5-0.7,0-0.9l0.9-0.3c0.2-0.1,0.6-0.1,0.8,0l0.8,0.3
					c0.5,0.2,0.5,0.7,0,0.9l-0.9,0.3C158.6,261.6,158.2,261.6,158,261.5z"/>
				<path id="XMLID_621_" class="st20" d="M162.2,259.9l-0.8-0.3c-0.6-0.2-0.5-0.7,0-0.9l0.9-0.3c0.2-0.1,0.6-0.1,0.8,0l0.8,0.3
					c0.5,0.2,0.5,0.7,0,0.9l-0.9,0.3C162.7,260,162.4,260,162.2,259.9z"/>
				<path id="XMLID_623_" class="st33" d="M170.3,257.3l-0.8-0.3c-0.6-0.2-0.5-0.7,0-0.9l0.9-0.3c0.2-0.1,0.6-0.1,0.8,0l0.8,0.3
					c0.5,0.2,0.5,0.7,0,0.9l-0.9,0.3C170.8,257.4,170.5,257.4,170.3,257.3z"/>
				<polygon id="XMLID_601_" class="st33" points="195.3,285.5 198.7,284.4 198.7,282 195.3,283.2 				"/>
				<polygon id="XMLID_625_" class="st20" points="195.3,290.1 198.7,288.9 198.7,286.6 195.3,287.8 				"/>
				<polygon id="XMLID_627_" class="st9" points="222.1,274.5 282.7,252.9 282.7,268.6 222.1,290.1 				"/>
				<polygon id="XMLID_628_" class="st32" points="222.1,286.8 263.8,302.5 320.1,282 259.2,261.3 222.1,274.5 				"/>
				<polygon id="XMLID_624_" class="st9" points="263.8,304.8 263.8,302.5 222.1,286.8 222.1,289 				"/>
				<polygon id="XMLID_629_" class="st34" points="263.8,302.5 320.1,282 320.1,284.8 263.8,304.8 				"/>
				<polygon id="XMLID_632_" class="st35" points="222.1,285.5 266,302.5 322,282 260.6,260.8 222.1,274.5 				"/>
			</g>
		</g>
		<g id="XMLID_180_" class="st7">
			
				<radialGradient id="XMLID_78_" cx="-22.584" cy="111.2717" r="36.1186" gradientTransform="matrix(-0.2054 -0.5894 1.7469 -0.2208 -221.6078 220.9678)" gradientUnits="userSpaceOnUse">
				<stop  offset="0" style="stop-color:#737373"/>
				<stop  offset="0.1369" style="stop-color:#797979;stop-opacity:0.8631"/>
				<stop  offset="0.3182" style="stop-color:#898989;stop-opacity:0.6818"/>
				<stop  offset="0.5244" style="stop-color:#A5A5A5;stop-opacity:0.4756"/>
				<stop  offset="0.749" style="stop-color:#CBCBCB;stop-opacity:0.251"/>
				<stop  offset="0.986" style="stop-color:#FCFCFC;stop-opacity:1.403135e-02"/>
				<stop  offset="1" style="stop-color:#FFFFFF;stop-opacity:0"/>
			</radialGradient>
			<polygon id="XMLID_653_" class="st36" points="-61.9,218.1 -15.3,236 43.9,215.1 -3.3,197 -22.6,212 			"/>
			<g id="XMLID_637_" class="st3">
				<path id="XMLID_642_" class="st11" d="M-5.4,196.2c-17.4-6-45.1-6.2-61.7-0.5c-16.6,5.8-16,15.4,1.3,21.4
					c17.3,6,45.1,6.2,61.7,0.5C12.6,211.8,12,202.2-5.4,196.2z M-27,209.6c-4.6,1.6-12.2,1.5-16.9-0.1s-4.9-4.3-0.4-5.9
					c4.5-1.6,12.1-1.5,16.9,0.1C-22.6,205.4-22.4,208.1-27,209.6z"/>
				<path id="XMLID_645_" class="st12" d="M-21.5,201.8c-8.1-2.8-21.1-2.9-28.8-0.2c-7.7,2.7-7.5,7.2,0.6,10
					c8.1,2.8,21,2.9,28.8,0.2C-13.1,209.1-13.4,204.6-21.5,201.8z M-27,209.6c-4.6,1.6-12.2,1.5-16.9-0.1c-4.7-1.6-4.9-4.3-0.4-5.9
					c4.5-1.6,12.1-1.5,16.9,0.1C-22.6,205.4-22.4,208.1-27,209.6z"/>
				<g id="XMLID_647_">
					<path id="XMLID_648_" class="st37" d="M-47.5,206.4c0-1,1.1-2,3.3-2.8c1.9-0.7,4.5-1,7.1-1.1l-9.9-10.7
						c-7.4,0.6-14.4,1.9-20.1,3.8c-8,2.8-12,6.4-12.1,10.2L-47.5,206.4z"/>
					<path id="XMLID_649_" class="st37" d="M-4.1,217.6c7.7-2.7,11.7-6.2,12.1-9.8l-31.7-1.1c0,1.1-1.1,2.1-3.3,2.9
						c-1.4,0.5-3.1,0.8-4.9,1l9.2,10.7C-15.8,220.7-9.4,219.4-4.1,217.6z"/>
				</g>
			</g>
		</g>
		<path id="XMLID_654_" class="st38" d="M134.8,216.1v-4.2l0,4.5C134.7,216.2,134.8,216.2,134.8,216.1z"/>
		<g id="XMLID_177_">
			<g id="XMLID_577_">
				<path id="XMLID_196_" class="st16" d="M125.2,123.3l-3.3-0.8c-0.5-0.2-1.1-0.3-1.7-0.4l0,0l0,0c-1.5-0.2-3.2,0.1-5.1,0.7
					c-5.2,1.8-9.4,6.2-9.4,9.8c0,2,1.3,3.4,3.4,3.8l0,0l4.1,1l1.1-1.3c0.3-0.1,0.5-0.1,0.8-0.2c5.2-1.8,9.4-6.2,9.4-9.8
					c0-0.6-0.1-1.1-0.3-1.6L125.2,123.3z"/>
				<path id="XMLID_207_" class="st16" d="M138.2,98.5l0.7-0.2c0,0-2.3-0.4-3.8-0.6c0,0,0,0,0,0c-0.3,0-0.6,0-0.8,0
					c-4.9-0.1-10.1,0.6-14.7,1.4c-5.6,1-11,2.6-15.7,4.7c-8.8,4-16,9.5-22.2,15c-1.5,1.3-0.7,3.1,1.6,3.9c0.2,0.1,0.5,0.1,0.7,0.2
					l0,0l0,0c0.1,0,0.2,0,0.4,0.1l4.1,0.6l15.8-11.2c3.2-1.7,6.6-3.1,10.4-4.2c5-1.4,10.6-2.1,16.1-2.2c1.9,0,3.9,0.2,5.8-0.3
					c2-0.5,3.5-1.5,4.1-2.7C141.5,101.3,140.3,99.5,138.2,98.5z"/>
				<path id="XMLID_213_" class="st16" d="M151.3,87.4c-0.4-0.9-1.2-1.7-2.4-2.3l1-0.3l-3-0.4c-0.6-0.1-1.1-0.2-1.8-0.2
					c-1.4-0.1-2.9,0.1-4.4,0.1c-13.6,0.8-27.5,3.3-38.8,7.9C95.3,95,89.4,98.4,84,102c-4.6,3.1-8.8,6.4-12.7,9.8
					c-0.8,0.7-1,1.7-0.4,2.5c0.5,0.8,1.6,1.4,2.9,1.6l0,0l0,0c0.2,0,0.3,0.1,0.5,0.1l4.1,0.6l14-8.9l0,0l29.2-13
					c6.3-1.2,12.8-1.9,19.3-2.1c2.5-0.1,5.1,0.1,7.4-0.7C150.7,90.9,152,89.1,151.3,87.4z"/>
				<path id="XMLID_181_" class="st12" d="M119.1,136.9c-5.2,1.8-9.4,0.3-9.4-3.3c0-3.6,4.2-8,9.4-9.8c5.2-1.8,9.4-0.3,9.4,3.3
					C128.5,130.7,124.3,135.1,119.1,136.9z"/>
				<path id="XMLID_197_" class="st12" d="M85.9,119.4c6.2-5.5,13.4-10.9,22.2-15c4.7-2.1,10-3.7,15.7-4.7c4.6-0.8,9.8-1.6,14.7-1.4
					c4.4,0.1,7.6,2.8,6.4,5.3c-0.6,1.2-2.1,2.2-4.1,2.7c-1.8,0.4-3.8,0.2-5.8,0.3c-5.5,0.1-11.1,0.8-16.1,2.2
					c-5.3,1.5-9.8,3.8-14,6.1c-4.2,2.4-7.9,5-11.7,7.6c-1.4,1-3.7,1.4-5.8,0.8C85.2,122.5,84.5,120.7,85.9,119.4z"/>
				<path id="XMLID_188_" class="st12" d="M75.5,112.5c3.8-3.5,8.1-6.7,12.7-9.8c5.4-3.6,11.3-7,17.9-9.8
					c11.3-4.7,25.2-7.2,38.8-7.9c1.4-0.1,2.9-0.2,4.4-0.1c2.9,0.1,5.5,1.4,6.2,3.2c0.7,1.7-0.6,3.6-3.1,4.5
					c-2.2,0.8-4.8,0.6-7.4,0.7c-7.6,0.3-15.3,1.2-22.5,2.8c-6.5,1.4-12.5,3.6-17.9,6.2c-6.2,2.9-11.8,6.4-17,10c-1,0.7-2,1.4-3,2.2
					c-0.7,0.5-1.3,1.1-2.1,1.6c-2.2,1.4-6.2,0.9-7.4-0.9C74.5,114.1,74.7,113.2,75.5,112.5z"/>
				<path id="XMLID_202_" class="st16" d="M128.2,112.5l1-0.7l-3.9-0.6c-0.1,0-0.2,0-0.4-0.1l-0.1,0l0,0c-0.7-0.1-1.4-0.1-2.1,0
					c-1.6,0.1-3.2,0.3-4.8,0.5c-3.5,0.6-6.6,1.5-9.6,2.7c-5.5,2.2-10.2,5.6-13.3,9.1c-1.4,1.4,0.2,2.9,2.4,3.2l0,0l3.9,0.6l16.8-9.2
					c1.7-0.2,3.5-0.3,5.3-0.4c2.6,0,4.9-0.8,5.6-2.4C129.5,114.3,129.2,113.3,128.2,112.5z"/>
				<path id="XMLID_185_" class="st12" d="M99.2,124.1c3.1-3.5,7.8-6.8,13.3-9.1c3-1.2,6.1-2.2,9.6-2.7c1.6-0.3,3.2-0.4,4.8-0.5
					c1.1-0.1,2.2-0.1,3.2,0.2c2.5,0.6,3.9,2.3,3.2,3.9c-0.7,1.6-3,2.4-5.6,2.4c-3,0-5.7,0.3-8.5,1c-3.3,0.9-6.2,2.1-8.8,3.6
					c-1.4,0.8-2.7,1.6-3.9,2.5c-0.9,0.6-1.5,1.5-2.8,1.8C100.5,128,97.5,125.9,99.2,124.1z"/>
			</g>
			<g id="XMLID_2_">
				<path id="XMLID_234_" class="st10" d="M156.9,217.8c-20.7-7.2-54.7-7.2-75.4,0c-20.7,7.2-20.7,19,0,26.2
					c20.7,7.2,54.7,7.2,75.4,0C177.7,236.8,177.7,225,156.9,217.8z"/>
				<g id="XMLID_1_">
					<g id="XMLID_581_">
						<path id="XMLID_579_" class="st39" d="M159.2,217.5h-15.5c-14.4-3.9-34.6-3.9-49,0H79.3v10.9l0,0c0,3.6,3.9,7.1,11.7,9.8
							c15.6,5.4,41,5.4,56.6,0c7.8-2.7,11.7-6.3,11.7-9.8l0,0V217.5z"/>
						<path id="XMLID_580_" class="st40" d="M147.5,207.7c-15.6-5.4-41-5.4-56.6,0c-15.6,5.4-15.6,14.3,0,19.7
							c15.6,5.4,41,5.4,56.6,0C163.1,221.9,163.1,213.1,147.5,207.7z"/>
					</g>
					<g id="XMLID_576_">
						<g id="XMLID_193_">
							<path id="XMLID_221_" class="st41" d="M134.8,211.8h-6c-5.6-1.5-13.5-1.5-19,0h-6v4.2l0,0c0,1.4,1.5,2.8,4.5,3.8
								c6.1,2.1,16,2.1,22,0c3-1.1,4.5-2.4,4.5-3.8l0,0V211.8z"/>
							<path id="XMLID_220_" class="st10" d="M130.2,208c-6.1-2.1-16-2.1-22,0c-6.1,2.1-6.1,5.5,0,7.7c6.1,2.1,16,2.1,22,0
								C136.3,213.6,136.3,210.1,130.2,208z"/>
							<path id="XMLID_217_" class="st41" d="M128.9,208.3h-19.4v3.5l0,0c0,0.9,0.9,1.7,2.8,2.4c3.8,1.3,10,1.3,13.7,0
								c1.9-0.7,2.8-1.5,2.8-2.4l0,0V208.3z"/>
							<path id="XMLID_215_" class="st10" d="M126.1,206c-3.8-1.3-10-1.3-13.7,0c-3.8,1.3-3.8,3.5,0,4.8c3.8,1.3,10,1.3,13.7,0
								C129.9,209.4,129.9,207.3,126.1,206z"/>
						</g>
						<polygon id="XMLID_182_" class="st12" points="119.2,209.5 119.2,151.9 122.6,150.8 122.6,208.3 						"/>
						<polygon id="XMLID_187_" class="st16" points="119.2,209.5 119.2,151.9 115.9,150.8 115.9,208.3 						"/>
						<polygon id="XMLID_214_" class="st35" points="119.2,149.6 115.9,150.8 119.2,151.9 122.6,150.8 						"/>
						<path id="XMLID_219_" class="st41" d="M128.7,147.6H125c-3.4-0.9-8.2-0.9-11.6,0h-3.7v2.6l0,0c0,0.8,0.9,1.7,2.8,2.3
							c3.7,1.3,9.7,1.3,13.4,0c1.8-0.6,2.8-1.5,2.8-2.3l0,0V147.6z"/>
						<path id="XMLID_206_" class="st10" d="M125.9,145.3c-3.7-1.3-9.7-1.3-13.4,0c-3.7,1.3-3.7,3.4,0,4.6c3.7,1.3,9.7,1.3,13.4,0
							C129.6,148.6,129.6,146.5,125.9,145.3z"/>
						<path id="XMLID_218_" class="st41" d="M125.1,145.5h-11.8v2.1l0,0c0,0.5,0.6,1.1,1.7,1.5c2.3,0.8,6.1,0.8,8.3,0
							c1.1-0.4,1.7-0.9,1.7-1.5l0,0V145.5z"/>
						<path id="XMLID_216_" class="st10" d="M123.4,144c-2.3-0.8-6.1-0.8-8.3,0c-2.3,0.8-2.3,2.1,0,2.9c2.3,0.8,6.1,0.8,8.3,0
							C125.7,146.1,125.7,144.8,123.4,144z"/>
					</g>
					<linearGradient id="XMLID_79_" gradientUnits="userSpaceOnUse" x1="127.0866" y1="199.5435" x2="143.4021" y2="239.9258">
						<stop  offset="0" style="stop-color:#FFFFFF;stop-opacity:0"/>
						<stop  offset="0.2314" style="stop-color:#D0D0D0;stop-opacity:0.2314"/>
						<stop  offset="0.466" style="stop-color:#A8A8A8;stop-opacity:0.466"/>
						<stop  offset="0.6805" style="stop-color:#8B8B8B;stop-opacity:0.6805"/>
						<stop  offset="0.8656" style="stop-color:#797979;stop-opacity:0.8656"/>
						<stop  offset="1" style="stop-color:#737373"/>
					</linearGradient>
					<path id="XMLID_652_" class="st42" d="M159.2,217.5c0-0.4-0.1-0.7-0.1-1.1h-24.3l0-0.1l0-4.5h-5.8v-3.5l-6.3-0.1l-3.4,1.2v12
						v20.8l0,0c10.2,0,20.5-1.4,28.3-4.1c6.7-2.3,10.6-5.3,11.5-8.4l0.1-0.5c0-0.1,0-0.1,0-0.2l0-0.2c0-0.2,0-0.4,0-0.5V217.5z"/>
				</g>
			</g>
		</g>
	</g>
</g>
</svg>
