<?xml version="1.0" encoding="utf-8"?>
<!-- Generator: Adobe Illustrator 22.0.1, SVG Export Plug-In . SVG Version: 6.00 Build 0)  -->
<svg version="1.1" id="Layer_1" xmlns="http://www.w3.org/2000/svg" xmlns:xlink="http://www.w3.org/1999/xlink" x="0px" y="0px"
	 viewBox="0 0 180.3 208" pointer-events="none" style="enable-background:new 0 0 180.3 208;"  width="250px" height="250px" preserveAspectRatio="none" xml:space="preserve">

<g id="Tree01">
	<g>
		<g>
			<g>
				<g>
					<g>
						<path cursor="pointer" pointer-events="visible" class="st0" d="M93.2,154.3c-0.9-0.7-8.9-7.1-10.5-7.7c-1.6-0.7-3.1-1.5-4.5-2.5s-2.7-2.2-3.8-3.6
							c-2.3-2.7-4.1-6-5.4-9.5c-1.3-3.5-2.1-7.3-2.4-11l0,0c0-0.4-0.4-0.6-0.7-0.6c-0.3,0-0.6,0.3-0.6,0.6c-0.2,4,0.2,7.9,1.1,11.8
							c0.9,3.9,2.3,7.7,4.6,11.1c-4.9-1.5-9.9-2.5-14.9-3.1l-2.7-0.3c-0.8-0.1-1.7-0.3-2.5-0.5c-1.7-0.4-3.3-1-4.8-1.8
							s-3-1.7-4.3-2.9c-1.3-1.1-2.5-2.5-3.5-3.9c-2.1-2.9-3.6-6.3-4.5-9.9c-1-3.6-1.5-7.4-1.4-11.2l0,0c0-0.4-0.3-0.7-0.7-0.7
							c-0.3,0-0.6,0.3-0.7,0.6c-0.5,4-0.5,7.9,0.1,11.9s1.7,7.9,3.7,11.6c1,1.8,2.2,3.6,3.6,5.2c1.4,1.6,3.1,3,4.9,4.2
							c1.8,1.2,3.7,2.2,5.8,2.9c1,0.4,2,0.7,3.1,1l3,0.7c7.2,1.7,14,4.4,20.1,8.2c3.1,1.9,6,4,8.7,6.4c1.3,1.2,2.6,2.4,3.9,3.7
							c0.6,0.6,1.2,1.3,1.8,1.9c0.3,0.3,0.6,0.6,0.8,1c0.1,0.2,0.3,0.3,0.4,0.5c0.1,0.1,0.2,0.3,0.3,0.4c0.6,1.3,1.6,2.3,2.8,3
							v-16.6C93.5,154.9,93.4,154.6,93.2,154.3z"/>
						<path cursor="pointer" pointer-events="visible" class="st1" d="M92.4,164.4c-0.1-0.1-0.2-0.3-0.4-0.5c-0.3-0.3-0.5-0.6-0.8-1c-0.5-0.6-1.2-1.3-1.8-1.9
							c-1.2-1.3-2.5-2.5-3.9-3.7c-2.7-2.3-5.6-4.5-8.7-6.4c-6.1-3.8-13-6.5-20.1-8.2l-3-0.7c-1-0.3-2.1-0.6-3.1-1
							c-2-0.8-3.9-1.8-5.8-2.9c-1.8-1.2-3.4-2.6-4.9-4.2c-1.4-1.6-2.6-3.3-3.6-5.2c-2-3.7-3.1-7.6-3.7-11.6
							c-0.2-1.3-0.3-2.6-0.4-3.9c-0.1-1.4-0.2-2.7-0.2-4.1l0,0c0-0.4-0.3-0.7-0.7-0.7c-0.3,0-0.6,0.3-0.7,0.6
							c-0.5,4-0.5,7.9,0.1,11.9s1.7,7.9,3.7,11.6c1,1.8,2.2,3.6,3.6,5.2c1.4,1.6,3.1,3,4.9,4.2c1.8,1.2,3.7,2.2,5.8,2.9
							c1,0.4,2,0.7,3.1,1l3,0.7c7.2,1.7,14,4.4,20.1,8.2c3.1,1.9,6,4,8.7,6.4c1.3,1.2,2.6,2.4,3.9,3.7c0.6,0.6,1.2,1.3,1.8,1.9
							c0.3,0.3,0.6,0.6,0.8,1c0.1,0.2,0.3,0.3,0.4,0.5c0.1,0.1,0.2,0.3,0.3,0.4c0.6,1.3,1.6,2.3,2.8,3v-5.3c-0.4-0.5-0.8-1-1-1.6
							C92.6,164.7,92.5,164.5,92.4,164.4z"/>
					</g>
					<g>
						<path cursor="pointer" pointer-events="visible" class="st0" d="M159.7,145.2c0-0.3-0.3-0.6-0.7-0.6c-0.4,0-0.7,0.3-0.7,0.7c0,3.8-0.5,7.6-1.4,11.2
							c-1,3.6-2.4,7.1-4.5,9.9c-1,1.4-2.2,2.8-3.5,3.9s-2.8,2.1-4.3,2.9c-1.5,0.7-3.2,1.3-4.8,1.8c-0.8,0.2-1.7,0.4-2.5,0.5
							l-2.3,0.3c0.2-0.3,0.4-0.5,0.6-0.8c1.1-1.9,2-3.8,2.7-5.9c0.6-2,1-4.1,1.1-6.2c0.3-4.2-0.4-8.2-1.5-12.1
							c-1.2-3.8-2.8-7.4-4.9-10.8c-0.2-0.3-0.5-0.4-0.9-0.2c-0.3,0.2-0.5,0.6-0.3,0.9c1.6,3.4,2.8,7.1,3.4,10.8
							c0.6,3.7,0.7,7.4,0.1,10.9c-0.3,1.8-0.8,3.4-1.6,5c-0.7,1.6-1.6,3-2.7,4.4c-1.1,1.3-2.3,2.5-3.7,3.6c-0.7,0.5-1.4,1-2.1,1.5
							l-1.2,0.7c-4.5,1.1-8.9,2.6-13.1,4.6c-3.8,1.7-7.4,3.8-10.8,6.1c-0.9,0.6-1.8,1.3-2.7,1.9c-0.1,0.3-0.3,0.6-0.5,0.9v13.1
							l6.1-3.6l-6.1,3.6v3.2c1.2-0.6,2.2-1.6,2.8-3c0-0.1,0.2-0.2,0.3-0.4c0.1-0.1,0.2-0.3,0.4-0.5c0.3-0.3,0.5-0.6,0.8-1
							c0.5-0.6,1.2-1.3,1.8-1.9c1.2-1.3,2.5-2.5,3.9-3.7c2.7-2.3,5.6-4.5,8.7-6.4c6.1-3.8,13-6.5,20.1-8.2l3-0.7
							c1-0.3,2.1-0.6,3.1-1c2-0.8,3.9-1.8,5.8-2.9c1.8-1.2,3.4-2.6,4.9-4.2c1.4-1.6,2.6-3.3,3.6-5.2c2-3.7,3.1-7.6,3.7-11.6
							C160.1,153.1,160.2,149.1,159.7,145.2z"/>
						<path cursor="pointer" pointer-events="visible" class="st1" d="M157.1,156.4c-1,3.6-2.4,7.1-4.5,9.9c-1,1.4-2.2,2.8-3.5,3.9c-1.3,1.1-2.8,2.1-4.3,2.9
							c-1.5,0.7-3.2,1.3-4.8,1.8c-0.8,0.2-1.7,0.4-2.5,0.5l-2.3,0.3l-2.6-0.2c1.1-1.9,2.9-5.9,3.5-8c0.6-2,1-4.1,1.1-6.2
							c0.3-4.2-0.4-8.2-1.5-12.1c-1-3.2-2.2-6.2-3.8-9c0,0.1,0,0.2,0.1,0.4c1.6,3.4,2.8,7.1,3.4,10.8c0.6,3.7,0.7,7.4,0.1,10.9
							c-0.3,1.8-0.8,3.4-1.6,5c-0.7,1.6-1.6,3-2.7,4.4c-1.1,1.3-2.3,2.5-3.7,3.6c-0.7,0.5-1.4,1-2.1,1.5l-1.2,0.7
							c-4.5,1.1-8.9,2.6-13.1,4.6c-3.8,1.7-7.4,3.8-10.8,6.1c-0.9,0.6-1.8,1.3-2.7,1.9c-0.1,0.3-0.3,0.6-0.5,0.9v12.8
							c0.2-0.3,0.4-0.6,0.6-1c-0.3,0.2-0.2,0,0-0.1c0.1-0.1,0.2-0.3,0.4-0.5c0.3-0.3,0.5-0.6,0.8-1c0.5-0.6,1.2-1.3,1.8-1.9
							c1.2-1.3,2.5-2.5,3.9-3.7c2.7-2.3,5.6-4.5,8.7-6.4c6.1-3.8,13-6.5,20.1-8.2l3-0.7c1-0.3,2.1-0.6,3.1-1c2-0.8,3.9-1.8,5.8-2.9
							c1.8-1.2,3.4-2.6,4.9-4.2c1.4-1.6,2.6-3.3,3.6-5.2c2-3.7,3.1-7.6,3.7-11.6c0.1-0.5,0.1-0.9,0.1-1.4
							C157.4,154.8,157.3,155.6,157.1,156.4z"/>
					</g>
					<g>
						<g>
							<g>
								<g class="st2">
									<g>
										<path cursor="pointer" pointer-events="visible" class="st3" d="M100.2,202.2l-8.9,5.3L100.2,202.2L100.2,202.2l-8.9,5.1l0,0l0,0l0,0l0,0l-1.9-1.1l2,1.2l-2-1.2
											l-1.3-0.7l-0.9,56.4c-0.1,0.9,0.6,1.9,1.9,2.7c2.8,1.6,7.4,1.6,10.2,0c1.3-0.8,1.9-1.8,1.8-2.7L100.2,202.2z"/>
										<polygon cursor="pointer" pointer-events="visible" class="st1" points="88.1,205.5 89.4,206.2 91.3,207.4 100.2,202.2 98.1,63.8 90.4,63.8 88.1,205.5 89.4,206.2
																					"/>
									</g>
								</g>
								<polygon cursor="pointer" pointer-events="visible" class="st0" points="98.1,63.8 94.2,63.8 94.2,205.8 100.2,202.2 								"/>
							</g>
						</g>
					</g>
				</g>
				<g>
					<path cursor="pointer" pointer-events="visible" class="st4" d="M116.9,107.9c0-4.1-4.8-7.4-10.6-7.4c-3.6,0-6.7,1.2-8.6,3.1c-4.6-5.5-21.1-9.5-40.8-9.5
						c-12.4,0-23.6,1.6-31.3,4.2c-1.8-1.1-4.2-1.7-6.8-1.7c-5.9,0-10.6,3.3-10.6,7.4c0,1.1,0.4,2.2,1,3.2c-4.4,1.8-7.3,4.8-7.3,8.3
						c0,3.3,2.6,6.2,6.6,8c-1.2,1.2-1.9,2.6-1.9,4.2c0,4.1,4.8,7.4,10.6,7.4c2.9,0,5.5-0.8,7.4-2.1c2.3,1.5,5.4,2.6,8.9,2.9
						c-0.1,0.8-0.1,1.5,0.1,2.3c1,4,6.5,6,12.2,4.5c4.8-1.3,8.2-4.6,8.5-8c2.2,0,4.4-0.3,6.3-0.9c2.5,3.1,6.4,5.1,10.7,5.1
						c6.3,0,11.6-4.3,13.2-10.1c2.5,2.7,6.1,4.4,10.1,4.4c7.6,0,13.8-6.2,13.8-13.8c0-1.2-0.2-2.4-0.5-3.6c0.1-0.3,0.1-0.5,0.2-0.8
						C113.1,114.6,116.9,111.5,116.9,107.9z"/>
					<path cursor="pointer" pointer-events="visible" class="st5" d="M102.5,114.8c-4,0-7.6-1.7-10.1-4.4c-1.6,5.8-6.9,10.1-13.2,10.1c-4.3,0-8.2-2-10.7-5.1
						c-1.9,0.5-4,0.9-6.3,0.9c-0.3,3.4-3.7,6.7-8.5,8c-5.7,1.5-11.1-0.5-12.2-4.5c-0.2-0.8-0.2-1.5-0.1-2.3
						c-3.5-0.4-6.6-1.4-8.9-2.9c-1.9,1.3-4.5,2.1-7.4,2.1c-5.9,0-10.6-3.3-10.6-7.4c0-1.6,0.7-3,1.9-4.2c-2.9-1.3-5.1-3.2-6-5.4
						c-1.5,1.1-2.3,2.6-2.3,4.3c0,1.1,0.4,2.2,1,3.2c-4.4,1.8-7.3,4.8-7.3,8.3c0,3.3,2.6,6.2,6.6,8c-1.2,1.2-1.9,2.6-1.9,4.2
						c0,4.1,4.8,7.4,10.6,7.4c2.9,0,5.5-0.8,7.4-2.1c2.3,1.5,5.4,2.6,8.9,2.9c-0.1,0.8-0.1,1.5,0.1,2.3c1,4,6.5,6,12.2,4.5
						c4.8-1.3,8.2-4.6,8.5-8c2.2,0,4.4-0.3,6.3-0.9c2.5,3.1,6.4,5.1,10.7,5.1c6.3,0,11.6-4.3,13.2-10.1c2.5,2.7,6.1,4.4,10.1,4.4
						c7.6,0,13.8-6.2,13.8-13.8c0-1.2-0.2-2.4-0.5-3.6c0.1-0.3,0.1-0.5,0.2-0.8c5-0.6,8.8-3.6,8.8-7.3c0-1.2-0.4-2.4-1.2-3.4
						C114.2,110.4,108.9,114.8,102.5,114.8z"/>
					<g>
						<path cursor="pointer" pointer-events="visible" class="st4" d="M180.9,138.4c0-5.5-4.4-9.9-9.9-9.9c-2.4,0-4.6,0.8-6.3,2.2c-3.4-3.5-12.2-6.1-23-6.7
							c-4.7-0.7-9.7-1.1-15-1.1C102,123,82,131.1,82,141.1c0,1,0.2,2,0.6,3c-0.4,1.1-0.6,2.2-0.6,3.4c0,5.5,4.4,9.9,9.9,9.9
							c0.2,0,0.4,0,0.6,0c1.7,5.8,7,10,13.3,10c3.6,0,6.8-1.4,9.3-3.6c1.8,2.7,4.8,4.4,8.3,4.4c4.6,0,8.5-3.2,9.6-7.5
							c2.1,1.5,4.7,2.3,7.5,2.3c4.4,0,8.3-2.2,10.7-5.5c2.1,2.9,5.6,4.8,9.5,4.8c6.5,0,11.8-5.3,11.8-11.8c0-0.8-0.1-1.6-0.2-2.4
							C177.1,147.6,180.9,143.4,180.9,138.4z"/>
						<path cursor="pointer" pointer-events="visible" class="st5" d="M177.3,130.8c-1.4,1.2-3.1,1.9-5,2.2c0.2,0.8,0.2,1.5,0.2,2.4c0,6.5-5.3,11.8-11.8,11.8
							c-3.9,0-7.3-1.9-9.5-4.8c-2.4,3.4-6.3,5.5-10.7,5.5c-2.8,0-5.4-0.9-7.5-2.3c-1.1,4.3-5,7.5-9.6,7.5c-3.5,0-6.5-1.8-8.3-4.4
							c-2.5,2.2-5.7,3.6-9.3,3.6c-6.3,0-11.6-4.2-13.3-10c-0.2,0-0.4,0-0.6,0c-3.8,0-7.1-2.1-8.8-5.3c-0.7,1.3-1.1,2.6-1.1,4.1
							c0,1,0.2,2,0.6,3c-0.4,1.1-0.6,2.2-0.6,3.4c0,5.5,4.4,9.9,9.9,9.9c0.2,0,0.4,0,0.6,0c1.7,5.8,7,10,13.3,10
							c3.6,0,6.8-1.4,9.3-3.6c1.8,2.7,4.8,4.4,8.3,4.4c4.6,0,8.5-3.2,9.6-7.5c2.1,1.5,4.7,2.3,7.5,2.3c4.4,0,8.3-2.2,10.7-5.5
							c2.1,2.9,5.6,4.8,9.5,4.8c6.5,0,11.8-5.3,11.8-11.8c0-0.8-0.1-1.6-0.2-2.4c4.9-0.7,8.6-4.8,8.6-9.8
							C180.9,135.3,179.5,132.6,177.3,130.8z"/>
					</g>
					<g>
						<path cursor="pointer" pointer-events="visible" class="st5" d="M170.6,80c0-3.5-1.7-6.7-4.3-8.7c1-1.6,1.5-3.5,1.5-5.6c0-6.1-4.9-11.1-11.1-11.1c-2.8,0-5.3,1-7.3,2.7
							c-1.4-9.9-9.9-17.6-20.3-17.6c-1.8,0-3.6,0.3-5.3,0.7c-4.7-5.8-11.8-9.5-19.9-9.5c-8.7,0-16.4,4.4-21,11
							c-2.8-1.4-5.9-2.2-9.3-2.2c-8,0-14.9,4.6-18.3,11.2c-2.4-1-5-1.5-7.7-1.5c-0.1,0-0.3,0-0.4,0c-2-1.9-4.7-3.1-7.7-3.1
							c-6.1,0-11.1,4.9-11.1,11.1c0,1.3,0.2,2.5,0.6,3.7c-0.1,0.2-0.2,0.4-0.3,0.7c-4.7,1.3-8.2,5.6-8.2,10.7
							c0,6.1,4.9,11.1,11.1,11.1c0.1,0,0.2,0,0.3,0c3.8,4.4,9.4,7.3,15.7,7.3c0.3,0,0.6,0,0.9-0.1c0.9,5.2,5.4,9.1,10.9,9.1
							c3.4,0,6.4-1.5,8.4-3.9c1.9,0.5,4,0.9,6.1,0.9c3,0,5.9-0.6,8.5-1.7c3.9,6.8,11.2,11.5,19.6,11.5c4.6,0,9-1.4,12.5-3.8
							c1.5,0.8,3.3,1.3,5.1,1.3c4.2,0,7.9-2.4,9.7-5.8c2.1,0.7,4.4,1.1,6.8,1.1c2.3,0,4.4-0.3,6.5-1c1.8,1.2,3.9,1.9,6.2,1.9
							c5.4,0,10-3.9,10.9-9.1C165.9,90.7,170.6,85.9,170.6,80z"/>
						<path cursor="pointer" pointer-events="visible" class="st4" d="M158.3,47.8c0.2-0.8,0.3-1.6,0.3-2.4c0-6.1-4.9-11.1-11.1-11.1c-2.3,0-4.4,0.7-6.2,1.9
							c-1.6-0.5-3.2-0.9-5-0.9c-3.2,0-6.2,1-8.7,2.8c-1.6-7-7.8-12.2-15.3-12.2c-3.9,0-7.4,1.5-10.1,3.8c-2.6-1.9-5.8-3-9.2-3
							c-3.5,0-6.7,1.2-9.3,3.1c-1.8-1.2-3.9-1.9-6.2-1.9c-4,0-7.5,2.2-9.5,5.4c-2-2.4-5.1-4-8.5-4c-3.7,0-7,1.8-9,4.6
							c-1.2-0.5-2.6-0.7-4-0.7c-6.1,0-11.1,4.9-11.1,11.1s5.2,11,11.3,11c2,0,3.8-0.5,5.4-1.4c1.8,2.1,4.3,3.5,7.1,3.9
							c2.7,4.2,7.4,7,12.7,7c2.8,0,5.4-0.8,7.7-2.2c2.2,7.5,9,12.9,17.2,12.9c8,0,14.8-5.3,17-12.5c1.6,1,3.5,1.6,5.5,1.6
							c2.8,0,5.3-1.1,7.1-2.9c2.7,2.4,6.1,3.9,10,3.9c2.7,0,5.2-0.7,7.4-1.9c2,2.9,5.3,4.8,9.1,4.8c6.1,0,11.1-4.9,11.1-11.1
							C163.9,53.3,161.6,49.7,158.3,47.8z"/>
					</g>
				</g>
			</g>
		</g>
	</g>
</g>
<g id="grid" class="st6">
	<g class="st7">
		<path cursor="pointer" pointer-events="visible" class="st8" d="M91.3,1.3l89,51.4v102.8l-89,51.4l-89-51.4V52.7L91.3,1.3 M91.3,0.1l-90,52V156l90,52l90-52V52.1L91.3,0.1
			L91.3,0.1z"/>
	</g>
	<g class="st7">
		<path cursor="pointer" pointer-events="visible" class="st8" d="M91.3-102.7l89,51.4V51.4l-89,51.4l-89-51.4V-51.3L91.3-102.7 M91.3-103.9l-90,52V52l90,52l90-52V-51.9
			L91.3-103.9L91.3-103.9z"/>
	</g>
</g>
</svg>
