<?xml version="1.0" encoding="utf-8"?>
<!-- Generator: Adobe Illustrator 22.1.0, SVG Export Plug-In . SVG Version: 6.00 Build 0)  -->
<svg version="1.1" id="Layer_1" xmlns="http://www.w3.org/2000/svg" xmlns:xlink="http://www.w3.org/1999/xlink" x="0px" y="0px"
	 viewBox="0 0 250 250" style="enable-background:new 0 0 250 250;" xml:space="preserve">
<style type="text/css">
	.st0{display:none;}
	.st1{display:inline;fill:#808080;}
	.st2{fill:#FFEB66;stroke:#FFEB66;stroke-miterlimit:10;}
	.st3{fill:#FFD04E;}
	.st4{fill:#FCDF5F;}
	.st5{fill:url(#SVGID_1_);}
	.st6{opacity:0.53;fill:#30E2E2;}
	.st7{fill:#30E2E2;}
</style>
<g id="Layer_1_1_">
	<g class="st0">
		<path class="st1" d="M126.6,1.6L250,63.3v123.6l-123.4,61.8L3.2,186.9V63.3L126.6,1.6 M126.6,0.1L1.8,62.6v124.9L126.6,250
			l124.8-62.5V62.6L126.6,0.1L126.6,0.1z"/>
	</g>
	<polygon class="st2" points="125.2,125 0.4,187.5 126.3,250.6 250,187.5 	"/>
	<path class="st3" d="M97.9,157.2c0-2.7-5.7-4.9-9.5-4"/>
	<path class="st3" d="M127.2,220c0-1.9-4-3.5-6.8-2.9c-1.8,0.4-2.8,1.8-2.6,3c0.3,1.4,2.4,2.8,5.1,2.6
		C125.4,222.6,127.2,221.2,127.2,220z"/>
	<path class="st3" d="M148.9,209.6c1.7-0.1,3-1.1,3-1.9c0-1.3-2.9-2.5-4.8-2"/>
	<path class="st3" d="M148.6,216.7c0-3.3-7-6-11.7-4.9c-3.2,0.7-4.9,3.1-4.4,5.1c0.5,2.4,4.2,4.8,8.9,4.6
		C145.6,221.3,148.6,218.9,148.6,216.7z"/>
	<g>
		<path class="st3" d="M133.6,153.7c0-5.8-12.3-10.6-20.6-8.7c-5.6,1.3-8.6,5.4-7.8,9c1,4.2,7.5,8.5,15.6,8
			C128.3,161.7,133.6,157.5,133.6,153.7z"/>
	</g>
	<path class="st3" d="M194.6,176.4c0-2.8-6-5.2-10.1-4.3c-2.7,0.6-4.2,2.7-3.8,4.4"/>
	<path class="st3" d="M191.4,165.9c0-1-2.1-1.8-3.5-1.5c-1,0.2-1.5,0.9-1.3,1.5"/>
	<path class="st3" d="M203.9,177c0-1-2.1-1.8-3.5-1.5c-1,0.2-1.5,0.9-1.3,1.5"/>
	<path class="st3" d="M48.2,190.6c0.5,2.1,3.6,4.1,7.6,3.9c3.7-0.2,6.3-2.2,6.3-4.1"/>
	<path class="st3" d="M62.1,190.4c0-2.8-6-5.2-10.1-4.3"/>
	<path class="st3" d="M72.5,186.8c0.2,1,1.7,1.9,3.6,1.8c1.7-0.1,2.9-1,2.9-1.9"/>
	<path class="st3" d="M37,185.5c1.7-0.1,2.9-1,2.9-1.9c0-1.3-2.8-2.4-4.7-2"/>
	<path class="st4" d="M138.4,212.6c-1,0.2-1.5,1-1.4,1.6c0.2,0.7,1.3,1.5,2.7,1.4c1.3-0.1,2.2-0.8,2.3-1.5"/>
	<path class="st4" d="M113.9,148.3c0.2,0.7,1.3,1.5,2.7,1.4c1.3-0.1,2.2-0.8,2.3-1.5"/>
	<g class="st0">
		<path class="st1" d="M250.7-61.2L374.1,0.5v123.6l-123.4,61.8l-123.4-61.8V0.5L250.7-61.2 M250.7-62.7L125.9-0.2v124.9l124.8,62.5
			l124.8-62.5V-0.2L250.7-62.7L250.7-62.7z"/>
	</g>
</g>
<g>
	<linearGradient id="SVGID_1_" gradientUnits="userSpaceOnUse" x1="93.5745" y1="132.8856" x2="156.6121" y2="242.0698">
		<stop  offset="0" style="stop-color:#17BEC7;stop-opacity:0.3"/>
		<stop  offset="1" style="stop-color:#17BEC7"/>
	</linearGradient>
	<polygon class="st5" points="125.2,124.4 -1,187.5 126.3,251.3 251.1,187.5 	"/>
	<path class="st6" d="M143.2,152.5c-0.2-0.8-28.7-5.4-33.8,0.9c-2,2.5,1.4,4.4-0.5,6.9c-3.9,5-19.8,0.6-32.9,4.1
		c-16.1,4.3-17.8,18.1-16.7,18.5c1.1,0.4,4.2-11.2,20.4-14.3c12.4-2.4,21.2,2.4,29.3-1.3c7.4-3.3,2.8-8.4,10.6-12.4
		C128.9,150.2,143.3,153.1,143.2,152.5z"/>
	<path class="st6" d="M183.1,161.7c-0.3-0.7-11.1-1.4-18.9,1.9c-7.8,3.3-5.4,7.6-11.7,12.9c-10.5,8.7-31.3,8.8-30.9,9.8
		c0.4,0.9,18,2.1,28.7-3.7c9.2-5.1,5.2-11,15.9-16.3C174.1,162.5,183.3,162.4,183.1,161.7z"/>
	<path class="st7" d="M129.7,205.3c-1.8-0.9-5.3-0.4-6.4,0.7c-1.4,1.4,0.8,3.7,3.4,3.8c1.9,0.1,3.8-1.1,4.2-2.3
		C130.9,207.4,131.3,206,129.7,205.3z"/>
	<path class="st7" d="M211.2,177.9c-1.8-0.9-5.3-0.4-6.4,0.7c-1.4,1.4,0.8,3.7,3.4,3.8c1.9,0.1,3.8-1.1,4.2-2.3
		C212.4,180.1,212.8,178.7,211.2,177.9z"/>
	<path class="st7" d="M77.3,199c-1.8-0.9-5.3-0.4-6.4,0.7c-1.4,1.4,0.8,3.7,3.4,3.8c1.9,0.1,3.8-1.1,4.2-2.3
		C78.5,201.2,78.9,199.8,77.3,199z"/>
	<path class="st7" d="M115.8,131.2c-1.1-0.5-3.2-0.3-3.9,0.4c-0.8,0.9,0.5,2.3,2.1,2.3c1.2,0,2.3-0.6,2.5-1.4
		C116.6,132.5,116.8,131.7,115.8,131.2z"/>
	<path class="st7" d="M123.6,130.9c-0.6-0.3-1.7-0.1-2.1,0.2c-0.5,0.5,0.3,1.2,1.1,1.2c0.6,0,1.2-0.3,1.4-0.7
		C124,131.6,124.2,131.1,123.6,130.9z"/>
	<path class="st7" d="M111.7,129.3c-0.3-0.2-0.9-0.1-1.1,0.1c-0.2,0.3,0.1,0.7,0.6,0.7c0.3,0,0.7-0.2,0.7-0.4
		C111.9,129.7,112,129.4,111.7,129.3z"/>
	<path class="st7" d="M221,177.9c-1.1-0.6-3.3-0.3-4,0.5c-0.9,0.9,0.5,2.3,2.1,2.4c1.2,0,2.4-0.7,2.6-1.4
		C221.8,179.3,222,178.4,221,177.9z"/>
	<path class="st7" d="M202.2,173.8c-0.8-0.4-2.3-0.2-2.8,0.3c-0.6,0.6,0.4,1.6,1.5,1.7c0.8,0,1.7-0.5,1.8-1
		C202.7,174.8,202.9,174.2,202.2,173.8z"/>
	<path class="st7" d="M136.3,205c-0.9-0.4-2.5-0.2-3,0.4c-0.7,0.7,0.4,1.8,1.6,1.8c0.9,0,1.8-0.5,2-1.1
		C136.8,206.1,137,205.4,136.3,205z"/>
	<path class="st7" d="M124.1,202.9c-0.9-0.4-2.5-0.2-3,0.4c-0.7,0.7,0.4,1.8,1.6,1.8c0.9,0,1.8-0.5,2-1.1
		C124.6,203.9,124.8,203.3,124.1,202.9z"/>
	<path class="st7" d="M77.2,204.2c-0.9-0.4-2.5-0.2-3,0.4c-0.7,0.7,0.4,1.8,1.6,1.8c0.9,0,1.8-0.5,2-1.1
		C77.8,205.3,78,204.6,77.2,204.2z"/>
	<path class="st7" d="M81.2,201.9c-0.5-0.2-1.4-0.1-1.7,0.2c-0.4,0.4,0.2,1,0.9,1c0.5,0,1-0.3,1.1-0.6
		C81.6,202.5,81.7,202.2,81.2,201.9z"/>
	<path class="st6" d="M148.3,219.5c0,0.1-2.9,0.1-6.8,1.1c-4.4,1-4.7,1.9-8.7,3.1c-5.4,1.5-10.9,1.6-11,1.4c0-0.1,1.3-0.3,3.9-0.9
		c3.9-0.8,4.5-0.8,5.9-1.1c3.5-0.9,3.4-1.6,6.5-2.6C142.9,218.9,148.2,219.3,148.3,219.5z"/>
</g>
</svg>
