<?xml version="1.0" encoding="utf-8"?>
<!-- Generator: Adobe Illustrator 22.1.0, SVG Export Plug-In . SVG Version: 6.00 Build 0)  -->
<svg version="1.1" id="Layer_1" xmlns="http://www.w3.org/2000/svg" xmlns:xlink="http://www.w3.org/1999/xlink" x="0px" y="0px"
	 viewBox="0 0 250 250" style="enable-background:new 0 0 250 250;" xml:space="preserve">

<polygon class="st0" points="250,187.5 126.6,250 0.4,187.5 125.2,125 "/>
<g>
	<g class="st1">
		<polygon class="st2" points="105.4,147.2 124,156.6 105.4,165.9 86.8,156.5 		"/>
		<polygon class="st2" points="61,176.1 72.1,181.6 60.9,187.3 49.8,181.6 		"/>
		<polygon class="st2" points="145.9,156.4 157,162 145.9,167.5 134.8,162 		"/>
		<polygon class="st2" points="212.8,180.2 224.1,185.7 212.8,191.3 201.7,185.7 		"/>
		<polygon class="st2" points="130.8,226.3 141.8,231.9 130.6,237.4 119.5,231.9 		"/>
		<polygon class="st3" points="127.7,196.9 135.9,201 127.7,205 119.5,201 		"/>
	</g>
</g>
<g class="st4">
	<path class="st5" d="M126.6,1.6L250,63.3v123.6l-123.4,61.8L3.2,186.9V63.3L126.6,1.6 M126.6,0.1L1.8,62.6v124.9L126.6,250
		l124.8-62.5V62.6L126.6,0.1L126.6,0.1z"/>
</g>
<g>
	<polygon class="st6" points="125.2,124.1 -3,186.6 126.5,250.4 253.5,186.6 	"/>
	<path class="st7" d="M142.7,151.1c-0.2-0.8-28.7-5.4-33.8,0.9c-2,2.5,1.4,4.4-0.5,6.9c-3.9,5-19.8,0.6-32.9,4.1
		c-16.1,4.3-17.8,18.1-16.7,18.5c1.1,0.4,4.2-11.2,20.4-14.3c12.4-2.4,21.2,2.4,29.3-1.3c7.4-3.3,2.8-8.4,10.6-12.4
		C128.4,148.9,142.8,151.7,142.7,151.1z"/>
	<path class="st7" d="M182.6,160.4c-0.3-0.7-11.1-1.4-18.9,1.9c-7.8,3.3-5.4,7.6-11.7,12.9c-10.5,8.7-31.3,8.8-30.9,9.8
		c0.4,0.9,18,2.1,28.7-3.7c9.2-5.1,5.2-11,15.9-16.3C173.6,161.1,182.9,161,182.6,160.4z"/>
	<path class="st8" d="M129.2,203.9c-1.8-0.9-5.3-0.4-6.4,0.7c-1.4,1.4,0.8,3.7,3.4,3.8c1.9,0.1,3.8-1.1,4.2-2.3
		C130.4,206.1,130.9,204.7,129.2,203.9z"/>
	<path class="st8" d="M210.8,176.6c-1.8-0.9-5.3-0.4-6.4,0.7c-1.4,1.4,0.8,3.7,3.4,3.8c1.9,0.1,3.8-1.1,4.2-2.3
		C212,178.8,212.4,177.4,210.8,176.6z"/>
	<path class="st8" d="M76.9,197.6c-1.8-0.9-5.3-0.4-6.4,0.7c-1.4,1.4,0.8,3.7,3.4,3.8c1.9,0.1,3.8-1.1,4.2-2.3
		C78.1,199.8,78.5,198.4,76.9,197.6z"/>
	<path class="st8" d="M115.4,129.8c-1.1-0.5-3.2-0.3-3.9,0.4c-0.8,0.9,0.5,2.3,2.1,2.3c1.2,0,2.3-0.6,2.5-1.4
		C116.1,131.2,116.3,130.3,115.4,129.8z"/>
	<path class="st8" d="M123.2,129.5c-0.6-0.3-1.7-0.1-2.1,0.2c-0.5,0.5,0.3,1.2,1.1,1.2c0.6,0,1.2-0.3,1.4-0.7
		C123.6,130.2,123.7,129.8,123.2,129.5z"/>
	<path class="st8" d="M111.2,127.9c-0.3-0.2-0.9-0.1-1.1,0.1c-0.2,0.3,0.1,0.7,0.6,0.7c0.3,0,0.7-0.2,0.7-0.4
		C111.4,128.3,111.5,128.1,111.2,127.9z"/>
	<path class="st8" d="M220.5,176.6c-1.1-0.6-3.3-0.3-4,0.5c-0.9,0.9,0.5,2.3,2.1,2.4c1.2,0,2.4-0.7,2.6-1.4
		C221.3,177.9,221.5,177.1,220.5,176.6z"/>
	<path class="st8" d="M201.7,172.5c-0.8-0.4-2.3-0.2-2.8,0.3c-0.6,0.6,0.4,1.6,1.5,1.7c0.8,0,1.7-0.5,1.8-1
		C202.3,173.4,202.4,172.8,201.7,172.5z"/>
	<path class="st8" d="M135.8,203.7c-0.9-0.4-2.5-0.2-3,0.4c-0.7,0.7,0.4,1.8,1.6,1.8c0.9,0,1.8-0.5,2-1.1
		C136.4,204.7,136.6,204,135.8,203.7z"/>
	<path class="st8" d="M123.6,201.6c-0.9-0.4-2.5-0.2-3,0.4c-0.7,0.7,0.4,1.8,1.6,1.8c0.9,0,1.8-0.5,2-1.1
		C124.2,202.6,124.4,201.9,123.6,201.6z"/>
	<path class="st8" d="M76.7,202.9c-0.9-0.4-2.5-0.2-3,0.4c-0.7,0.7,0.4,1.8,1.6,1.8c0.9,0,1.8-0.5,2-1.1
		C77.3,203.9,77.5,203.2,76.7,202.9z"/>
	<path class="st8" d="M80.8,200.6c-0.5-0.2-1.4-0.1-1.7,0.2c-0.4,0.4,0.2,1,0.9,1c0.5,0,1-0.3,1.1-0.6
		C81.1,201.2,81.2,200.8,80.8,200.6z"/>
	<path class="st7" d="M147.8,218.1c0,0.1-2.9,0.1-6.8,1.1c-4.4,1-4.7,1.9-8.7,3.1c-5.4,1.5-10.9,1.6-11,1.4c0-0.1,1.3-0.3,3.9-0.9
		c3.9-0.8,4.5-0.8,5.9-1.1c3.5-0.9,3.4-1.6,6.5-2.6C142.4,217.5,147.8,217.9,147.8,218.1z"/>
</g>
</svg>
